<svg xmlns="http://www.w3.org/2000/svg" xmlns:xlink="http://www.w3.org/1999/xlink" width="1080" zoomAndPan="magnify" viewBox="0 0 810 809.999993" height="1080" preserveAspectRatio="xMidYMid meet" version="1.0"><defs><clipPath id="d34fe61754"><path d="M 129.007812 131.765625 L 681 131.765625 L 681 678.515625 L 129.007812 678.515625 Z M 129.007812 131.765625 " clip-rule="nonzero"/></clipPath></defs><g clip-path="url(#d34fe61754)"><path fill="#0f0e0e" d="M 677.640625 386.046875 C 671.371094 344.941406 654.253906 308.644531 624.300781 279.132812 C 597.257812 252.484375 564.863281 237.507812 526.800781 235.328125 C 501.65625 233.882812 477.621094 239.03125 454.246094 247.929688 C 450.667969 249.292969 447.113281 250.847656 442.898438 251.304688 C 443.226562 248.859375 443.421875 246.722656 443.820312 244.621094 C 449.453125 215.167969 460.539062 187.8125 475.929688 162.152344 C 481.347656 153.109375 479.632812 144.789062 471.113281 138.640625 C 461.980469 132.039062 451.734375 130.539062 440.945312 132.675781 C 432.925781 134.265625 427.542969 138.675781 424.566406 146.949219 C 418.660156 163.324219 413.992188 180.007812 410.230469 196.960938 C 409.015625 202.429688 407.984375 207.9375 406.757812 214.007812 C 392.320312 179.859375 367.878906 157.039062 334.074219 145.085938 C 286.246094 128.1875 240.234375 135.347656 196.332031 158.925781 C 170.039062 173.050781 148.777344 193.175781 130.796875 216.871094 C 129.5 218.566406 128.375 220.132812 129.488281 222.359375 C 130.558594 224.496094 132.421875 224.871094 134.566406 224.929688 C 147.820312 225.28125 160.589844 228.382812 173.308594 231.816406 C 192.300781 236.941406 210.566406 244.429688 229.625 249.328125 C 235.609375 250.859375 241.617188 252.304688 248.480469 253.996094 C 245.445312 255.746094 243.21875 257.042969 240.984375 258.328125 C 223.421875 268.347656 208.371094 281.316406 195.8125 297.132812 C 167.585938 332.644531 154.613281 373.839844 152.207031 418.5 C 149.683594 465.285156 158.398438 510.160156 178.457031 552.582031 C 198.742188 595.46875 227.808594 630.6875 269.320312 654.777344 C 292.550781 668.253906 317.539062 675.640625 344.386719 676.3125 C 360.050781 676.710938 375.125 673.109375 389.890625 668.289062 C 405.246094 663.289062 420.410156 663.722656 435.355469 669.5625 C 472.144531 683.949219 508.039062 680.246094 543.042969 663.8125 C 582.296875 645.390625 612.273438 616.378906 635.375 580.082031 C 673.242188 520.648438 688.292969 455.945312 677.640625 386.046875 Z M 434.585938 146.335938 C 435.082031 142.746094 438.183594 141.984375 440.933594 141.3125 C 449.132812 139.300781 457.074219 140.300781 464.457031 144.371094 C 467.660156 146.132812 470.839844 148.664062 469.898438 152.882812 C 468.988281 156.9375 465.035156 157.414062 461.628906 158.050781 C 459.9375 158.371094 458.175781 158.3125 456.878906 158.394531 C 450.109375 158.222656 444.035156 157.097656 438.71875 153.4375 C 436.300781 151.769531 434.117188 149.6875 434.585938 146.335938 Z M 412.117188 262.53125 C 413.09375 226.335938 419.683594 191.109375 431.277344 156.277344 C 432.800781 157.585938 434.015625 158.652344 435.265625 159.6875 C 436.59375 160.789062 437.957031 161.847656 439.308594 162.925781 C 431.597656 170.734375 429.269531 180.644531 427.542969 190.800781 C 427.382812 191.710938 427.597656 192.550781 428.554688 192.949219 C 429.722656 193.4375 430.507812 192.8125 431.097656 191.917969 C 431.414062 191.4375 431.632812 190.882812 431.777344 190.324219 C 434.050781 181.609375 438.832031 173.882812 441.683594 165.402344 C 442.136719 164.039062 442.648438 163.925781 443.820312 164.1875 C 449.90625 165.574219 456.0625 166.0625 462.945312 165.382812 C 456.878906 175.835938 452.144531 186.335938 447.78125 197.007812 C 437.933594 221.054688 432.539062 246.085938 431.085938 271.976562 C 430.902344 275.203125 429.882812 276.109375 426.792969 276.246094 C 412.0625 276.882812 411.730469 276.953125 412.117188 262.53125 Z M 404.269531 231.609375 C 403.554688 237.042969 403.316406 242.554688 403.03125 248.042969 C 402.90625 250.429688 402.371094 251.496094 399.65625 250.644531 C 389.902344 247.566406 380.074219 244.667969 369.25 241.382812 C 379.792969 235.703125 389.414062 230.484375 400.339844 228.324219 C 403.054688 227.78125 404.757812 227.871094 404.269531 231.609375 Z M 198.390625 230.699219 C 181.066406 224.984375 163.691406 219.574219 145.414062 217.792969 C 145.164062 217.769531 144.949219 217.496094 144.003906 216.859375 C 150.285156 213.984375 156.058594 211.359375 161.804688 208.710938 C 163.121094 208.109375 164.460938 207.53125 165.699219 206.804688 C 166.949219 206.0625 169.242188 205.722656 168.140625 203.53125 C 167.1875 201.632812 165.53125 202.996094 164.347656 203.53125 C 159.078125 205.917969 153.886719 208.460938 148.640625 210.90625 C 147.914062 211.246094 147.300781 212.054688 146.015625 211.597656 C 149.046875 207.304688 152.398438 203.417969 156.046875 199.8125 C 186.960938 169.246094 223.296875 149.414062 267.015625 145.050781 C 300.273438 141.746094 331.554688 147.8125 359.472656 167.246094 C 374.5 177.699219 386.015625 191.257812 394.535156 207.40625 C 395.125 208.519531 395.546875 209.710938 396.566406 212.085938 C 388.695312 206.734375 381.925781 201.8125 374.316406 198.484375 C 362.085938 193.132812 350.429688 187.382812 344.457031 174.199219 C 343.148438 171.3125 340.164062 169.164062 337.835938 166.800781 C 337.003906 165.960938 335.925781 164.539062 334.550781 165.847656 C 332.960938 167.359375 334.414062 168.597656 335.484375 169.40625 C 340.675781 173.324219 344.117188 178.710938 347.75 183.925781 C 348.226562 184.597656 348.511719 185.40625 349.179688 186.746094 C 344.46875 185.460938 340.300781 184.4375 336.210938 183.199219 C 326.226562 180.1875 316.039062 178.097656 305.746094 176.53125 C 304.042969 176.269531 302.929688 175.746094 301.917969 174.246094 C 297.59375 167.789062 291.914062 162.675781 285.5625 158.269531 C 284.859375 157.777344 284.085938 157.3125 283.269531 157.109375 C 281.894531 156.777344 280.054688 156.199219 279.351562 157.777344 C 278.453125 159.777344 280.644531 160.007812 281.792969 160.550781 C 288.753906 163.882812 293.515625 169.800781 299.261719 174.722656 C 297.851562 176.246094 296.320312 175.597656 295.015625 175.53125 C 281.554688 174.824219 268.117188 174.746094 254.714844 176.324219 C 252.738281 176.550781 251.433594 175.8125 250.125 174.550781 C 245.320312 169.894531 239.335938 167.382812 233.109375 165.335938 C 232.03125 164.984375 230.851562 164.777344 229.714844 164.8125 C 228.578125 164.847656 227.203125 165.164062 227.070312 166.574219 C 226.921875 168.234375 228.453125 168.15625 229.523438 168.324219 C 236.335938 169.4375 242.585938 171.835938 248.492188 176.824219 C 239.097656 178.664062 230.214844 180.199219 221.492188 182.449219 C 208.746094 185.722656 196.402344 190.257812 184.101562 194.925781 C 183.15625 195.28125 182.273438 195.792969 181.351562 196.222656 C 179.988281 196.871094 178.445312 197.699219 179.363281 199.417969 C 180.183594 200.9375 181.667969 199.882812 182.828125 199.4375 C 196.480469 194.1875 210.359375 189.746094 224.683594 186.6875 C 235.929688 184.292969 247.195312 182.109375 259.757812 181.15625 C 252.511719 186.597656 247.867188 193.019531 243.152344 199.394531 C 237.949219 206.4375 230.804688 211.0625 223.285156 215.222656 C 221.980469 215.949219 219.164062 216.359375 220.445312 218.621094 C 221.628906 220.691406 223.59375 218.734375 225.011719 218.097656 C 234.339844 213.917969 241.9375 207.632812 247.71875 199.167969 C 252.058594 192.800781 256.613281 186.65625 263.277344 182.449219 C 264.378906 181.757812 265.347656 180.925781 266.753906 180.871094 C 282.644531 180.175781 298.457031 180.757812 315.265625 183.882812 C 304.917969 188.644531 298.726562 196.417969 292.492188 204.246094 C 286.984375 211.167969 279.738281 215.9375 271.910156 219.871094 C 271.003906 220.324219 270.082031 220.746094 269.207031 221.246094 C 268.152344 221.859375 267.207031 222.65625 267.957031 224.019531 C 268.730469 225.417969 269.902344 224.871094 270.96875 224.371094 C 280.054688 220.066406 288.628906 215.042969 295.082031 207.054688 C 298.261719 203.109375 301.328125 199.085938 304.578125 195.210938 C 305.964844 193.5625 307.667969 192.167969 309.292969 190.734375 C 314.617188 186.050781 320.207031 184.335938 327.542969 186.644531 C 337.855469 189.882812 348.316406 192.542969 359.390625 197.667969 C 348.214844 200.746094 341.921875 208.632812 334.734375 215.394531 C 330.585938 219.292969 325.488281 221.824219 320.492188 224.449219 C 319.296875 225.074219 317.390625 225.566406 318.277344 227.507812 C 319.183594 229.507812 320.796875 228.347656 321.976562 227.746094 C 330.019531 223.691406 337.722656 219.222656 343.410156 211.882812 C 347.886719 206.121094 354.042969 202.632812 360.878906 200.257812 C 362.199219 199.800781 363.324219 199.6875 364.605469 200.292969 C 375.601562 205.542969 386.027344 211.722656 395.738281 219.109375 C 396.046875 219.347656 396.214844 219.78125 396.714844 220.519531 C 380.28125 223.894531 366.765625 233.566406 351.65625 239.578125 C 326.023438 249.792969 299.558594 252.257812 272.386719 248.894531 C 247.015625 245.757812 222.582031 238.679688 198.390625 230.699219 Z M 585.96875 622.753906 C 561.160156 646.753906 531.152344 662.265625 496.304688 666.824219 C 476.40625 669.425781 457.003906 667.050781 438.296875 659.867188 C 420.421875 653.003906 402.792969 652.597656 384.527344 659.027344 C 355.699219 669.175781 326.679688 667.960938 298.308594 657.074219 C 252.898438 639.664062 220.539062 607.378906 196.890625 565.71875 C 174.660156 526.558594 163.585938 484.242188 162.132812 434.738281 C 162.179688 414.453125 164.085938 389.773438 171.582031 365.964844 C 184.453125 325.066406 206.761719 290.953125 244.1875 268.179688 C 250.5 264.339844 257.132812 261.132812 263.871094 258.109375 C 266.492188 256.929688 268.992188 257.382812 271.523438 257.734375 C 298.570312 261.496094 324.875 258.597656 350.453125 249.054688 C 352.007812 248.472656 353.464844 248.453125 355.097656 248.746094 C 370.375 251.507812 384.925781 256.929688 399.828125 261.03125 C 402.382812 261.734375 402.339844 263.394531 402.28125 265.316406 C 402.007812 275.167969 404.882812 275.203125 393.285156 272.089844 C 389.789062 271.144531 386.503906 269.597656 383.390625 267.714844 C 381.769531 266.734375 380.085938 266.121094 378.847656 268.066406 C 377.484375 270.203125 379.347656 271.246094 380.746094 272.179688 C 389.765625 278.144531 400.042969 280.703125 410.480469 282.328125 C 429.835938 285.351562 448.179688 281.859375 465.488281 272.746094 C 466.898438 272.007812 468.238281 271.132812 469.523438 270.191406 C 470.964844 269.121094 472.363281 267.847656 470.953125 265.882812 C 469.726562 264.179688 468.214844 264.839844 466.714844 265.632812 C 460.0625 269.167969 453.292969 272.40625 445.839844 273.976562 C 440.695312 275.054688 440.582031 274.996094 440.761719 269.996094 C 441.011719 262.882812 441.082031 263.066406 447.691406 260.679688 C 463.21875 255.078125 478.8125 249.769531 495.226562 247.429688 C 544.738281 240.359375 587.023438 254.53125 621.542969 290.894531 C 648.074219 318.839844 663.125 352.648438 667.769531 390.429688 C 678.902344 481.160156 651.707031 559.164062 585.96875 622.753906 Z M 585.96875 622.753906 " fill-opacity="1" fill-rule="nonzero"/></g><path fill="#0f0e0e" d="M 560.398438 379.363281 C 560.570312 358.601562 543.542969 341.386719 522.792969 341.339844 C 502.085938 341.292969 484.957031 358.351562 484.84375 379.136719 C 484.71875 400.453125 501.1875 417.464844 521.941406 417.453125 C 543.554688 417.433594 560.21875 400.933594 560.398438 379.363281 Z M 505.242188 392.761719 C 502.371094 392.578125 500.757812 390.921875 500.8125 388.101562 C 500.871094 385.273438 502.574219 383.5 505.484375 383.660156 C 508.253906 383.804688 509.992188 385.464844 510.015625 388.363281 C 510.027344 391.410156 508.082031 392.589844 505.242188 392.761719 Z M 520.644531 401.203125 C 518.601562 401.285156 516.816406 400 516.796875 397.886719 C 516.761719 395.558594 518.667969 394.523438 520.507812 394.078125 C 522.847656 394.160156 524.246094 395.308594 524.324219 397.203125 C 524.417969 399.488281 522.941406 401.113281 520.644531 401.203125 Z M 518.25 378.554688 C 510.546875 378.375 504.074219 371.863281 504.164062 364.375 C 504.246094 356.863281 511.636719 350.328125 519.703125 350.625 C 526.675781 350.886719 532.832031 357.398438 532.707031 364.398438 C 532.570312 372.476562 526.164062 378.75 518.25 378.554688 Z M 534.84375 392.101562 C 532.492188 391.910156 530.925781 390.816406 530.867188 388.429688 C 530.8125 385.910156 532.242188 384.429688 534.785156 384.351562 C 537.171875 384.285156 538.59375 385.601562 538.648438 387.953125 C 538.707031 390.433594 537.375 391.921875 534.84375 392.101562 Z M 534.84375 392.101562 " fill-opacity="1" fill-rule="nonzero"/><path fill="#0f0e0e" d="M 322.839844 339.011719 C 302.375 339 285.15625 356.636719 285.085938 377.679688 C 285.03125 398.171875 301.738281 414.886719 322.332031 414.933594 C 343.878906 414.976562 360.8125 398.191406 360.753906 376.851562 C 360.710938 356 343.695312 339.03125 322.839844 339.011719 Z M 310.234375 386.804688 C 309.960938 389.828125 307.722656 391.058594 305.019531 390.726562 C 302.40625 390.410156 300.910156 388.421875 301.148438 385.804688 C 301.410156 383 303.179688 381.441406 306.316406 381.613281 C 309.0625 382.148438 310.484375 383.976562 310.234375 386.804688 Z M 322.226562 398.785156 C 320.308594 398.761719 318.753906 397.625 318.660156 395.691406 C 318.558594 393.523438 320.070312 392.363281 322.332031 392.136719 C 324.238281 392.421875 326.054688 393.125 326.011719 395.476562 C 325.953125 397.714844 324.316406 398.808594 322.226562 398.785156 Z M 319.910156 376.296875 C 311.757812 376.328125 305.179688 370.101562 305.226562 362.398438 C 305.269531 354.625 311.765625 348.714844 320.183594 348.816406 C 327.375 348.898438 333.574219 355.25 333.632812 362.578125 C 333.675781 370.304688 327.714844 376.261719 319.910156 376.296875 Z M 336.121094 390.386719 C 333.4375 390.308594 331.90625 388.953125 331.847656 386.429688 C 331.78125 383.773438 333.324219 381.941406 335.972656 381.886719 C 338.503906 381.828125 339.8125 383.601562 339.84375 386.089844 C 339.878906 388.613281 338.539062 390.066406 336.121094 390.386719 Z M 336.121094 390.386719 " fill-opacity="1" fill-rule="nonzero"/><path fill="#0f0e0e" d="M 450.691406 407.160156 C 431.109375 414.839844 411.664062 413.953125 392.582031 405.308594 C 386.835938 402.703125 383.757812 404.214844 383.449219 410.613281 C 383.144531 417.113281 382.769531 423.660156 383.210938 430.125 C 384.234375 445.023438 386.800781 459.582031 397.738281 470.921875 C 405.621094 479.09375 415.195312 483.160156 426.734375 480.875 C 440.855469 478.082031 449.269531 468.730469 454.675781 456.082031 C 459.945312 443.75 461.296875 430.714844 461.402344 417.476562 C 461.402344 416.464844 461.378906 415.453125 461.402344 414.445312 C 461.605469 405.066406 459.402344 403.738281 450.691406 407.160156 Z M 439.015625 419.125 C 431.539062 429.933594 413.433594 429.476562 404.90625 418.375 C 416.34375 420.273438 427.371094 420.761719 439.015625 419.125 Z M 445.75 457.082031 C 439.84375 467.613281 431.277344 473.457031 421.035156 473.421875 C 409.492188 473.375 396.875 462.898438 394.863281 451.71875 C 394.648438 450.488281 395.011719 449.523438 395.683594 448.488281 C 405.996094 432.671875 433.050781 431.582031 444.773438 446.433594 C 447.511719 449.910156 448 453.058594 445.75 457.082031 Z M 445.75 457.082031 " fill-opacity="1" fill-rule="nonzero"/><path fill="#0f0e0e" d="M 578.46875 426.511719 C 569.851562 419.511719 553.824219 420.320312 545.953125 428.125 C 541.5 432.546875 541.851562 437.726562 546.917969 441.386719 C 551.449219 444.660156 556.730469 445.386719 561.410156 445.707031 C 567.511719 445.671875 574.4375 443.761719 577.824219 441.386719 C 583.660156 437.285156 583.945312 430.945312 578.46875 426.511719 Z M 578.46875 426.511719 " fill-opacity="1" fill-rule="nonzero"/><path fill="#0f0e0e" d="M 276.035156 415.660156 C 270.832031 415.714844 266.574219 416.398438 262.757812 418.695312 C 256.363281 422.535156 255.78125 428.683594 261.257812 433.660156 C 268.492188 440.226562 284.925781 441.457031 293.058594 436.046875 C 298.160156 432.648438 298.738281 427.683594 294.402344 423.328125 C 289.128906 418.023438 282.507812 415.964844 276.035156 415.660156 Z M 276.035156 415.660156 " fill-opacity="1" fill-rule="nonzero"/></svg>