<svg xmlns="http://www.w3.org/2000/svg" xmlns:xlink="http://www.w3.org/1999/xlink" width="1080" zoomAndPan="magnify" viewBox="0 0 810 809.999993" height="1080" preserveAspectRatio="xMidYMid meet" version="1.0"><defs><clipPath id="7d8a0931b1"><path d="M 118.324219 116.523438 L 691.324219 116.523438 L 691.324219 693.273438 L 118.324219 693.273438 Z M 118.324219 116.523438 " clip-rule="nonzero"/></clipPath></defs><g clip-path="url(#7d8a0931b1)"><path fill="#000000" d="M 118.324219 403.265625 C 118.351562 348.964844 133.558594 299.285156 162.6875 253.515625 C 195.835938 201.441406 241.054688 163.742188 297.636719 140.019531 C 336.078125 123.90625 376.207031 114.035156 418.378906 117.113281 C 480.011719 121.609375 535.277344 142.3125 582.734375 182.753906 C 610.441406 206.363281 634.234375 233.105469 651.996094 265.011719 C 666.773438 291.558594 677.636719 319.570312 684.101562 349.3125 C 689.722656 375.175781 692.871094 401.1875 690.558594 427.679688 C 689 445.515625 685.105469 462.832031 679.957031 479.980469 C 667.46875 521.550781 649.335938 560.148438 620.878906 593.289062 C 587.910156 631.679688 548.191406 660.703125 500.339844 677.878906 C 481.011719 684.816406 461.007812 688.953125 440.515625 691.050781 C 424.128906 692.730469 407.75 693.734375 391.3125 693 C 322.230469 689.917969 262.082031 665.335938 211.886719 617.464844 C 174.660156 581.960938 147.457031 539.894531 131.433594 490.898438 C 122.140625 462.472656 118.386719 433.105469 118.324219 403.265625 Z M 647.894531 276.152344 C 645.679688 278.109375 646.054688 280.652344 645.34375 282.765625 C 628.507812 332.503906 593.945312 365.007812 546.15625 384.359375 C 525.269531 392.816406 503.285156 397.335938 480.910156 399.78125 C 445.882812 403.605469 411.089844 402.5 376.726562 394.082031 C 374.039062 393.421875 372.703125 393.9375 371.1875 396.304688 C 355.742188 420.449219 344.382812 446.371094 336.710938 473.964844 C 335.710938 477.558594 336.207031 479.078125 340.058594 480.394531 C 388.414062 496.917969 437.652344 501.898438 488.363281 494.066406 C 538.5 486.324219 583.1875 466.984375 622.0625 434.453125 C 644.195312 415.9375 661.828125 393.855469 673.019531 367.003906 C 674.976562 362.308594 677.339844 357.589844 676.050781 352.230469 C 671.050781 331.425781 665.042969 310.933594 655.859375 291.546875 C 653.414062 286.390625 651.632812 280.769531 647.894531 276.152344 Z M 679.59375 374.871094 C 676.792969 380.183594 674.617188 384.757812 672.058594 389.109375 C 648.296875 429.523438 612.953125 457.101562 571.988281 477.96875 C 535.566406 496.523438 496.210938 504.847656 455.707031 507.019531 C 414.882812 509.207031 375.089844 502.914062 336.738281 488.441406 C 334.066406 487.433594 333.179688 487.566406 332.53125 490.535156 C 327.136719 515.378906 324.835938 540.394531 327.222656 565.804688 C 327.621094 570.039062 329.488281 571.898438 333.089844 573.359375 C 362.214844 585.199219 392.699219 590.726562 423.894531 592.203125 C 455.46875 593.691406 486.679688 590.484375 517.425781 582.84375 C 569.175781 569.984375 613.730469 544.839844 649.953125 505.484375 C 658.804688 495.867188 666.933594 485.59375 671.757812 473.183594 C 679.070312 454.375 682.644531 434.820312 682.605469 414.695312 C 682.585938 401.726562 682.558594 388.695312 679.59375 374.871094 Z M 228.9375 191.953125 C 275.207031 190.535156 315.8125 204.445312 351.796875 231.582031 C 404.523438 271.347656 439.152344 324.210938 460.878906 385.960938 C 462.714844 391.179688 465.046875 392.234375 469.917969 391.742188 C 493.34375 389.390625 516.398438 385.484375 538.636719 377.371094 C 550.078125 373.199219 548.414062 374.464844 546.316406 364.296875 C 531.53125 292.753906 496.328125 233.519531 439.066406 187.871094 C 407.5 162.707031 372.230469 145.777344 331.5 141.792969 C 326.378906 141.292969 321.492188 141.214844 316.402344 142.933594 C 298.269531 149.0625 280.84375 156.6875 264.402344 166.472656 C 252.113281 173.789062 240.171875 181.628906 228.9375 191.953125 Z M 376.664062 682.507812 C 371.914062 678.910156 369.054688 675.414062 366.007812 672.082031 C 335.703125 638.929688 320.28125 599.53125 317.527344 555.046875 C 316.132812 532.5 319.433594 510.265625 324.324219 488.320312 C 331.871094 454.4375 344.292969 422.472656 363.09375 393.167969 C 365.042969 390.125 365.28125 387.449219 363.941406 384.265625 C 360.992188 377.265625 357.972656 370.316406 354.167969 363.710938 C 343.960938 345.972656 331.746094 329.871094 316.542969 316.066406 C 313.253906 313.078125 311.226562 313.03125 307.945312 316.320312 C 297.160156 327.144531 287.585938 338.929688 279.238281 351.652344 C 253.808594 390.398438 239.757812 433.023438 236.265625 479.214844 C 233.664062 513.597656 237.40625 547.257812 247.285156 580.246094 C 255.65625 608.1875 270.011719 632.992188 287.316406 656.253906 C 289.082031 658.621094 290.996094 660.328125 293.679688 661.53125 C 303.6875 666.015625 313.945312 669.828125 324.480469 672.789062 C 341.070312 677.457031 357.921875 680.902344 376.664062 682.507812 Z M 270.753906 650.65625 C 270.433594 646.9375 268.839844 645.40625 267.726562 643.65625 C 259.851562 631.253906 252.726562 618.449219 247.207031 604.820312 C 225.75 551.863281 221.226562 497.324219 232.980469 441.539062 C 243.605469 391.128906 265.71875 346.597656 302.625 310.035156 C 305.21875 307.464844 305.011719 306.011719 302.222656 303.921875 C 282.996094 289.539062 261.785156 279.835938 238.25 274.617188 C 229.632812 272.707031 225.488281 274.746094 220.414062 281.980469 C 195.59375 317.332031 178.984375 356.183594 168.792969 397.914062 C 158.332031 440.726562 156.417969 483.902344 165.566406 527.167969 C 168.953125 543.183594 172.894531 559.179688 183.238281 572.714844 C 203.273438 598.933594 226.949219 621.253906 254.097656 639.929688 C 259.257812 643.476562 264.628906 646.722656 270.753906 650.65625 Z M 162.996094 269.625 C 173.679688 266.203125 184.277344 263.882812 195.199219 263.09375 C 226.273438 260.851562 255.847656 266.589844 283.207031 281.324219 C 324.464844 303.539062 352.546875 338.007812 371.796875 380.128906 C 373.230469 383.273438 374.960938 384.636719 378.191406 385.339844 C 392.1875 388.398438 406.3125 390.636719 420.59375 391.53125 C 431.632812 392.21875 442.722656 393.179688 454.269531 391.898438 C 452.765625 387.898438 451.429688 384.285156 450.054688 380.691406 C 432.304688 334.394531 407.28125 292.898438 370.753906 258.753906 C 353.1875 242.332031 334.199219 228.097656 312.425781 217.859375 C 284.230469 204.605469 254.339844 199.671875 223.335938 200.480469 C 220.117188 200.566406 217.6875 201.300781 215.265625 203.476562 C 194.183594 222.425781 177.320312 244.699219 162.996094 269.625 Z M 344.261719 134.824219 C 351.507812 136.246094 357.605469 137.003906 363.453125 138.664062 C 399.628906 148.953125 431.375 167.410156 458.804688 192.867188 C 509.078125 239.527344 541.59375 296.414062 554.886719 363.96875 C 556.179688 370.550781 556.085938 370.460938 562.164062 367.214844 C 585.015625 355.007812 603.792969 338.246094 618.800781 317.136719 C 620.425781 314.851562 620.097656 313.070312 619.433594 310.820312 C 613.6875 291.375 604.761719 273.355469 594.535156 255.972656 C 570.925781 215.847656 539.648438 182.484375 503.21875 153.828125 C 493.019531 145.804688 482.875 138.027344 469.480469 134.777344 C 437.351562 126.976562 405.121094 123.78125 372.324219 128.75 C 363.332031 130.113281 354.089844 130.613281 344.261719 134.824219 Z M 660.320312 507.421875 C 619.398438 554.8125 567.078125 582.316406 506.792969 595.199219 C 446.738281 608.03125 387.605469 604.886719 329.824219 581.636719 C 329.824219 582.371094 329.671875 583.234375 329.847656 584.027344 C 335.484375 609.371094 346.09375 632.433594 361.648438 653.222656 C 363.050781 655.097656 365.058594 655.617188 367.136719 656.085938 C 377.308594 658.382812 387.5625 660.414062 397.9375 661.300781 C 442.273438 665.082031 485.820312 660.933594 528.066406 646.59375 C 547.3125 640.0625 566.226562 632.332031 582.128906 619.171875 C 608.851562 597.058594 630.421875 570.664062 646.296875 539.742188 C 651.648438 529.320312 656.835938 518.8125 660.320312 507.421875 Z M 216.503906 272.042969 C 216.605469 272.089844 216.167969 271.722656 215.722656 271.710938 C 198.515625 271.269531 181.628906 273.21875 164.886719 277.449219 C 158.519531 279.0625 155.628906 282.820312 153.097656 288.148438 C 131.683594 333.246094 123.535156 380.648438 128.058594 430.300781 C 130.652344 458.789062 137.140625 486.304688 148.613281 512.566406 C 151.308594 518.742188 154.21875 524.820312 157.03125 530.945312 C 139.429688 435.804688 163.117188 350.648438 216.503906 272.042969 Z M 626.480469 303.925781 C 633.558594 291.667969 637.929688 278.90625 641.238281 265.726562 C 641.78125 263.570312 640.511719 262.007812 639.484375 260.375 C 610.113281 213.613281 570.414062 178.125 521.734375 152.445312 C 519.554688 151.296875 517.261719 150.351562 515.007812 149.34375 C 512.96875 148.433594 511.152344 146.769531 508.398438 147.085938 C 561.640625 189.027344 602.488281 239.808594 626.480469 303.925781 Z M 374.671875 667.390625 C 376.953125 670.097656 379.335938 672.652344 381.410156 675.4375 C 386.324219 682.039062 393.039062 683.613281 400.890625 683.707031 C 435.398438 684.101562 469.132812 679.855469 501.632812 667.757812 C 508.828125 665.082031 516.355469 663.046875 522.476562 657.964844 C 473.792969 673.324219 424.347656 675.957031 374.671875 667.390625 Z M 374.671875 667.390625 " fill-opacity="1" fill-rule="nonzero"/></g></svg>