<svg xmlns="http://www.w3.org/2000/svg" xmlns:xlink="http://www.w3.org/1999/xlink" width="1080" zoomAndPan="magnify" viewBox="0 0 810 809.999993" height="1080" preserveAspectRatio="xMidYMid meet" version="1.0"><defs><clipPath id="365ddfb860"><path d="M 107.105469 106.359375 L 702.605469 106.359375 L 702.605469 703.359375 L 107.105469 703.359375 Z M 107.105469 106.359375 " clip-rule="nonzero"/></clipPath></defs><g clip-path="url(#365ddfb860)"><path fill="#000000" d="M 620.171875 199.765625 C 420.632812 -9.328125 80.707031 161.328125 108.878906 428.734375 C 125.832031 589.664062 255.355469 703.359375 404.53125 703.359375 C 663.546875 703.359375 801.195312 389.460938 620.171875 199.765625 Z M 581.617188 292.324219 C 559.019531 281.058594 429.632812 218.605469 449.640625 208.117188 C 500.023438 181.71875 570.855469 162.710938 610.355469 203.664062 C 656.914062 251.9375 685.53125 313.246094 691.226562 376.730469 C 657.40625 329.378906 642.847656 322.863281 581.617188 292.324219 Z M 571.175781 171.847656 C 513.347656 158.207031 442.628906 197.527344 434.523438 197.527344 C 421.996094 197.527344 382.640625 116.613281 426.730469 116.613281 C 458.847656 116.613281 525.609375 139.9375 571.175781 171.847656 Z M 417.824219 206.804688 C 416.726562 211.46875 401.378906 217.148438 367.417969 239.804688 C 347.300781 234.398438 307.628906 177.667969 255.675781 161.332031 C 274.183594 141.15625 365.121094 112.394531 397.714844 117.542969 C 375.640625 153.871094 419.253906 200.722656 417.824219 206.804688 Z M 228.804688 177.515625 C 237.421875 170.53125 245.929688 169.878906 256.011719 174.503906 C 293.21875 191.570312 346.539062 242.828125 346.203125 252.691406 C 345.953125 260.054688 305.851562 291.375 296.378906 296.496094 C 286.300781 294.476562 216.339844 232.964844 134.039062 309.414062 C 138.054688 293.820312 167.082031 227.53125 228.804688 177.515625 Z M 122.261719 357.734375 C 134.976562 276.878906 252.1875 269.699219 281.824219 310.671875 C 276.378906 325.515625 194.492188 404.53125 167.714844 494.160156 C 157.894531 527.039062 161.761719 545.804688 161.054688 553.992188 C 149.363281 539.453125 106.890625 455.472656 122.261719 357.734375 Z M 203.210938 445.449219 C 219.410156 415.617188 270.359375 340.371094 295.199219 325.296875 C 312.0625 339.074219 326.519531 392.195312 331.886719 418.835938 C 349.140625 504.492188 328.746094 616.433594 369.964844 689.511719 C 352.460938 693.875 256.023438 667.277344 191.847656 596.023438 C 152.476562 552.308594 179.476562 489.152344 203.210938 445.449219 Z M 316.71875 326.902344 C 308.757812 310.792969 308.996094 310.550781 321.359375 297.804688 C 327.574219 291.390625 350.636719 271.023438 359.496094 271.023438 C 383.941406 271.023438 543.957031 482.136719 580.738281 579.367188 C 589.667969 602.976562 595.054688 622.097656 576.851562 635.464844 C 489.375 699.710938 399.042969 692.933594 409.671875 692.933594 C 383.863281 692.933594 367.539062 685.902344 358.433594 588.425781 C 350.640625 504.96875 364.738281 424.078125 316.71875 326.902344 Z M 380.070312 256.546875 C 381.222656 247.105469 408.492188 231.082031 421.738281 224.703125 C 430.082031 220.6875 435.839844 222.617188 443.308594 228.386719 C 552.671875 312.820312 701.429688 327.78125 691.523438 429 C 681.425781 532.121094 615.761719 604.261719 601.886719 613.460938 C 588.617188 492.5 388.261719 272.945312 380.070312 256.546875 Z M 380.070312 256.546875 " fill-opacity="1" fill-rule="nonzero"/></g></svg>