<svg xmlns="http://www.w3.org/2000/svg" xmlns:xlink="http://www.w3.org/1999/xlink" width="1080" zoomAndPan="magnify" viewBox="0 0 810 809.999993" height="1080" preserveAspectRatio="xMidYMid meet" version="1.0"><defs><clipPath id="352adf0481"><path d="M 63.605469 195.042969 L 746.105469 195.042969 L 746.105469 615.042969 L 63.605469 615.042969 Z M 63.605469 195.042969 " clip-rule="nonzero"/></clipPath></defs><g clip-path="url(#352adf0481)"><path fill="#000000" d="M 696.132812 285.574219 C 700.28125 286.132812 703.757812 287.457031 707.140625 289 C 708.042969 289.417969 709.839844 289.988281 708.488281 291.453125 C 703.898438 296.4375 704.414062 302.269531 705.21875 308.285156 C 707.097656 322.152344 708.796875 336.050781 710.714844 349.917969 C 711.175781 353.261719 712.46875 356.40625 714.640625 359.121094 C 720.054688 365.875 727.246094 364.804688 734.300781 363.269531 C 740.523438 361.921875 743.792969 357.394531 745.265625 351.410156 C 747.230469 343.457031 745.003906 335.660156 744.335938 327.820312 C 743.609375 319.300781 742.371094 310.820312 741.414062 302.328125 C 740.746094 296.507812 738.726562 291.492188 733.273438 288.554688 C 732.324219 288.054688 731.992188 287.46875 732.007812 286.453125 C 732.1875 273.628906 723.558594 268.378906 713.164062 264.871094 C 706.375 262.574219 699.304688 261.515625 692.125 261.710938 C 689.578125 261.78125 688.367188 260.929688 687.339844 258.453125 C 683.75 249.722656 680.394531 240.824219 673.855469 233.640625 C 664.40625 223.253906 652.023438 218.144531 639.027344 214.175781 C 617.277344 207.546875 594.761719 204.886719 572.371094 201.644531 C 541.398438 197.160156 510.199219 195.28125 478.945312 195.058594 C 455.738281 194.890625 432.554688 196.242188 409.457031 199.039062 C 387.34375 201.710938 365.261719 204.523438 343.277344 208.035156 C 315.558594 212.460938 287.921875 217.363281 260.425781 223.03125 C 220.90625 231.160156 181.597656 240.308594 142.675781 250.976562 C 127.46875 255.136719 112.425781 259.929688 97.632812 265.539062 C 79.78125 272.308594 70.875 285.671875 68.535156 303.929688 C 63.039062 346.6875 63.261719 389.671875 64.113281 432.667969 C 64.390625 446.675781 65.292969 460.683594 66.183594 474.664062 C 66.699219 482.808594 67.480469 490.953125 68.664062 499.027344 C 70.679688 512.730469 79.488281 520.347656 92.261719 523.953125 C 98.355469 525.664062 104.464844 527.433594 110.8125 527.992188 C 113.316406 528.199219 113.941406 529.816406 114.402344 531.832031 C 116.308594 540.371094 119.5625 548.390625 123.820312 556.003906 C 130.875 568.636719 141.964844 574.328125 156.105469 574.773438 C 163.257812 574.996094 170.367188 574.691406 177.464844 573.800781 C 191.488281 572.046875 199.339844 563.136719 204.332031 550.824219 C 206.601562 545.242188 206.644531 545.144531 212.515625 545.964844 C 232.261719 548.710938 251.992188 551.621094 271.738281 554.292969 C 290.46875 556.839844 309.210938 559.265625 327.96875 561.546875 C 331.753906 562.007812 333.507812 563.328125 334.453125 567.296875 C 336.917969 577.65625 340.480469 587.628906 346.976562 596.355469 C 356.371094 608.957031 368.921875 614.765625 384.476562 614.988281 C 393.46875 615.113281 402.457031 615.210938 411.125 612.730469 C 424.832031 608.832031 432.289062 598.390625 437.175781 585.84375 C 440.109375 578.296875 439.804688 578.394531 447.777344 579.246094 C 466.980469 581.304688 486.140625 584.046875 505.523438 583.28125 C 517.574219 582.808594 529.625 582.183594 541.664062 581.429688 C 543.957031 581.292969 545.542969 581.652344 546.9375 583.574219 C 556.773438 597.164062 570.589844 602.121094 586.832031 602.09375 C 595.304688 602.078125 603.722656 601.703125 611.835938 599.226562 C 624.707031 595.285156 633.085938 586.316406 638.457031 574.261719 C 639.472656 572.003906 640.332031 570.347656 643.464844 569.832031 C 663.488281 566.53125 683.609375 563.71875 703.328125 558.679688 C 721.917969 553.917969 725.230469 544.199219 726.453125 529.496094 C 726.898438 524.203125 726.59375 518.84375 726.523438 513.511719 C 726.46875 509.820312 725.0625 506.605469 722.085938 504.390625 C 720.625 503.304688 720.246094 502.273438 720.246094 500.546875 C 720.332031 477.28125 718.480469 454.125 716.53125 430.957031 C 714.738281 409.636719 712.789062 388.335938 710.035156 367.128906 C 706.515625 339.976562 703.4375 312.6875 696.132812 285.574219 Z M 676.707031 252.828125 C 672.753906 251.53125 669.417969 250.222656 665.953125 249.347656 C 641.238281 243.082031 615.984375 240.617188 590.628906 239.167969 C 574.433594 238.25 558.207031 237.984375 541.96875 238.890625 C 522.292969 239.976562 502.53125 240.394531 483.21875 244.652344 C 465.128906 248.648438 457.617188 255.613281 458.003906 274.214844 C 458.171875 282.554688 459.746094 290.714844 460.746094 298.929688 C 462.972656 317.183594 465.574219 335.394531 468.316406 353.582031 C 470.402344 367.40625 472.617188 381.21875 475.925781 394.824219 C 478.695312 406.183594 485.320312 413.675781 496.980469 416.195312 C 503.964844 417.714844 511.019531 418.605469 518.1875 418.742188 C 546.367188 419.289062 574.5 418.5625 602.652344 417.335938 C 627.40625 416.25 652.132812 414.941406 676.777344 412.449219 C 685.390625 411.585938 694.019531 410.320312 702.1875 407.214844 C 706.347656 405.628906 706.292969 405.40625 706.738281 409.886719 C 707.78125 420.46875 708.835938 431.054688 709.757812 441.648438 C 710.355469 448.570312 710.730469 455.515625 711.203125 462.449219 C 710.269531 461.199219 709.839844 459.859375 709.3125 458.550781 C 705.761719 449.851562 697.871094 444.140625 689.425781 444.140625 C 679.78125 444.140625 671.894531 449.320312 668.359375 458.523438 C 664.519531 468.496094 665.171875 478.519531 670.054688 487.902344 C 676.792969 500.851562 691.777344 504.042969 703.078125 495.421875 C 707.25 492.234375 709.5625 487.847656 711.371094 482.445312 C 712.359375 486.859375 711.996094 490.746094 712.425781 494.574219 C 713.375 502.996094 712.777344 504.292969 704.734375 506.574219 C 686.476562 511.753906 667.621094 513.511719 648.890625 515.863281 C 635.769531 517.519531 622.660156 519.234375 609.457031 520.195312 C 596.015625 521.183594 582.613281 522.644531 569.171875 523.660156 C 557.789062 524.511719 546.40625 525.289062 534.996094 525.636719 C 511.898438 526.347656 488.867188 526.878906 466.046875 521.863281 C 462.164062 521.015625 461.75 519.316406 461.609375 516.28125 C 460.480469 492.554688 459.492188 468.8125 457.839844 445.101562 C 456.238281 422.195312 454.957031 399.277344 451.867188 376.5 C 451.742188 375.539062 451.589844 374.632812 452.328125 373.980469 C 457.269531 369.535156 457.101562 363.703125 457.003906 357.785156 C 456.808594 344.917969 454.859375 332.179688 454.5 319.339844 C 454.152344 306.519531 448.445312 294.445312 449.363281 281.46875 C 449.449219 280.328125 449.210938 279.128906 448.988281 277.988281 C 447.695312 271.332031 443.992188 268.117188 437.160156 267.960938 C 435.128906 267.921875 433.808594 267.363281 432.695312 265.625 C 428.128906 258.464844 421.535156 255.542969 413.128906 256.390625 C 405.003906 257.214844 396.820312 257.535156 388.75 258.730469 C 380.707031 259.929688 372.566406 260.832031 364.746094 263.285156 C 358.054688 265.371094 353.460938 271.179688 352.933594 277.75 C 352.265625 286.175781 352.070312 294.613281 352.152344 303.0625 C 352.375 327.363281 353.253906 351.671875 352.738281 375.941406 C 352.152344 403.371094 352.808594 430.746094 354.339844 458.121094 C 354.476562 460.558594 353.28125 461.53125 351.347656 462.464844 C 344.039062 465.988281 338.378906 471.25 333.9375 478.101562 C 324.449219 492.695312 322.207031 509.152344 321.011719 525.929688 C 320.453125 533.851562 321.679688 541.746094 321.734375 549.671875 C 321.75 550.921875 322.375 552.761719 319.800781 552.398438 C 302.367188 549.976562 284.914062 547.539062 267.464844 545.214844 C 252.328125 543.195312 237.171875 541.328125 222.035156 539.3125 C 212.542969 538.042969 202.984375 537.265625 193.6875 534.742188 C 187.832031 533.15625 184.796875 529.464844 184.128906 523.480469 C 182.765625 511.324219 179.605469 499.570312 175.320312 488.15625 C 172.398438 480.355469 168.765625 472.921875 163.0625 466.640625 C 151.027344 453.386719 132.269531 452.925781 121.496094 465.820312 C 116.65625 471.613281 114.066406 478.574219 112.203125 485.746094 C 109.613281 495.714844 108.960938 505.964844 108.945312 516.226562 C 108.945312 518.996094 108.695312 520.207031 105.355469 519.21875 C 100.152344 517.699219 94.851562 516.53125 89.757812 514.582031 C 82.367188 511.753906 77.777344 506.660156 76.578125 498.707031 C 76.066406 495.253906 75.46875 491.816406 75.0625 488.347656 C 73.085938 471.179688 72.585938 453.902344 72.183594 436.648438 C 71.445312 405.085938 71.292969 373.492188 72.78125 341.941406 C 73.449219 327.835938 74.578125 313.730469 77.386719 299.835938 C 79.460938 289.601562 83.914062 281.191406 93.863281 276.273438 C 104.714844 270.914062 116.125 267.085938 127.648438 263.742188 C 161.808594 253.828125 196.277344 245.113281 231.023438 237.425781 C 271.585938 228.460938 312.34375 220.648438 353.40625 214.46875 C 375.042969 211.207031 396.710938 208.269531 418.542969 206.390625 C 435.101562 204.957031 451.675781 204.164062 468.246094 203.648438 C 495.117188 202.8125 521.917969 204.359375 548.660156 207.269531 C 571.96875 209.800781 595.222656 212.65625 618.152344 217.628906 C 631.804688 220.59375 645.484375 223.65625 657.714844 230.910156 C 666.269531 236.007812 672.617188 243.050781 676.707031 252.828125 Z M 542.539062 410.667969 C 529.582031 410.402344 516.613281 411.210938 503.6875 409.191406 C 490.832031 407.1875 486.351562 403.652344 483.121094 391.050781 C 479.671875 377.613281 477.875 363.855469 475.636719 350.195312 C 473.324219 336.148438 471.40625 322.015625 469.664062 307.882812 C 468.191406 295.933594 465.839844 284.074219 466.1875 271.945312 C 466.492188 261.167969 470.292969 255.972656 480.839844 253.425781 C 501.738281 248.386719 523.128906 247.214844 544.472656 246.535156 C 577.328125 245.488281 610.070312 247.300781 642.53125 252.703125 C 653.761719 254.566406 664.949219 256.738281 675.523438 261.222656 C 678.628906 262.53125 680.742188 264.300781 682.050781 267.738281 C 687.1875 281.230469 690.914062 295.101562 693.417969 309.246094 C 696.566406 326.957031 699.304688 344.753906 701.839844 362.5625 C 703.050781 371.136719 704.480469 379.757812 704.34375 388.472656 C 704.230469 395.6875 701.796875 398.832031 694.921875 400.894531 C 692.082031 401.742188 689.148438 402.398438 686.210938 402.789062 C 662.167969 405.960938 638.011719 407.996094 613.785156 408.914062 C 590.042969 409.820312 566.304688 411.03125 542.539062 410.667969 Z M 413.003906 553.929688 C 415.355469 556.964844 417.832031 558.789062 421.089844 559.042969 C 431.457031 559.820312 441.820312 560.292969 452.214844 559.875 C 457.15625 559.683594 460.730469 555.949219 461.652344 551.078125 C 462.695312 545.519531 462.234375 539.964844 462.039062 534.382812 C 461.859375 529.382812 462.527344 528.894531 467.273438 529.980469 C 479.449219 532.78125 491.820312 533.976562 504.273438 534.132812 C 528.164062 534.4375 551.972656 533.199219 575.78125 531.234375 C 593.871094 529.746094 611.933594 528.1875 629.96875 526.238281 C 650.421875 524.023438 670.835938 521.265625 691.109375 517.714844 C 698.722656 516.378906 706.472656 515.25 713.570312 511.894531 C 717.285156 510.125 718.050781 510.347656 718.496094 514.429688 C 719.21875 520.917969 718.898438 527.449219 718.203125 533.867188 C 717.351562 541.71875 713.09375 547.234375 705.371094 549.878906 C 700.824219 551.4375 696.132812 552.328125 691.484375 553.359375 C 673.800781 557.273438 655.890625 559.988281 637.996094 562.757812 C 626.738281 564.5 615.46875 566.15625 604.15625 567.382812 C 590.253906 568.886719 576.296875 569.984375 562.394531 571.515625 C 545.113281 573.4375 527.773438 574.371094 510.4375 575.09375 C 493.695312 575.792969 476.984375 574.832031 460.355469 572.769531 C 448.027344 571.238281 435.699219 569.625 423.59375 566.714844 C 417.429688 565.265625 412.378906 560.894531 413.003906 553.929688 Z M 360.210938 383.097656 C 361.714844 383.835938 362.421875 384.128906 363.089844 384.503906 C 381.347656 394.960938 400.621094 403.21875 420.265625 410.597656 C 428.085938 413.535156 435.976562 417.03125 444.617188 416.308594 C 447.902344 416.042969 448.542969 417.210938 448.695312 419.984375 C 449.738281 438.515625 450.878906 457.035156 451.980469 475.554688 C 453.398438 499.542969 454.359375 523.550781 454.261719 547.59375 C 454.246094 551.285156 452.855469 552.871094 449.167969 552.59375 C 441.53125 552.039062 433.875 551.785156 426.210938 551.703125 C 420.449219 551.632812 418.765625 549.878906 417.816406 544.15625 C 416.246094 534.714844 415.285156 525.179688 413.210938 515.792969 C 409.996094 501.230469 405.710938 487.109375 396.011719 475.441406 C 389.113281 467.144531 381.179688 460.085938 369.421875 459.75 C 361.296875 459.527344 361.324219 459.5 361.042969 451.089844 C 360.515625 435.242188 360.027344 419.398438 360.195312 403.539062 C 360.265625 396.96875 360.210938 390.367188 360.210938 383.097656 Z M 360.25 317.449219 C 360.65625 307.671875 359.445312 293.625 360.890625 279.628906 C 361.460938 274.089844 362.714844 272.375 368.113281 270.929688 C 384.101562 266.640625 400.523438 265.539062 416.929688 264.398438 C 420.042969 264.175781 422.355469 265.945312 424.457031 267.921875 C 425.164062 268.589844 425.929688 269.550781 424.652344 270.539062 C 419.015625 274.882812 418.332031 281.132812 418.820312 287.414062 C 419.058594 290.5625 417.859375 291.3125 415.480469 292.230469 C 407.980469 295.140625 405.15625 299.625 405.058594 307.742188 C 404.890625 320.746094 406.617188 333.65625 406.980469 346.632812 C 407.171875 353.609375 407.996094 360.585938 409.832031 367.394531 C 411.320312 372.921875 414.839844 376.304688 420.476562 377.472656 C 427.378906 378.90625 434.378906 379.160156 441.390625 378.964844 C 443.535156 378.90625 444.5625 379.703125 444.730469 381.707031 C 445.355469 389.074219 445.925781 396.4375 446.539062 403.804688 C 446.777344 406.699219 445.285156 407.785156 442.585938 407.757812 C 439.457031 407.730469 436.410156 407.257812 433.417969 406.308594 C 421.0625 402.398438 409.09375 397.496094 397.238281 392.332031 C 387.386719 388.042969 377.546875 383.65625 368.40625 377.933594 C 364.816406 375.691406 361.53125 373.003906 361.074219 368.4375 C 360.585938 363.660156 360.335938 358.859375 360.292969 354.066406 C 360.183594 343.277344 360.25 332.484375 360.25 317.449219 Z M 339.964844 544.074219 C 340.089844 538.644531 339.726562 533.199219 340.703125 527.78125 C 342.761719 516.324219 346.851562 505.867188 355.035156 497.34375 C 363.382812 488.640625 372.746094 488.238281 381.820312 496.132812 C 385.578125 499.40625 388.582031 503.289062 391.074219 507.578125 C 398.210938 519.832031 402.050781 533.226562 404.167969 547.121094 C 406.839844 564.667969 402.414062 580.609375 391.949219 594.714844 C 383.601562 605.964844 370.4375 607.566406 360.363281 599.058594 C 356.882812 596.121094 353.851562 592.75 351.359375 588.894531 C 342.566406 575.234375 339.210938 560.183594 339.964844 544.074219 Z M 119.230469 509.347656 C 119.214844 504.917969 119.382812 500.519531 120.21875 496.160156 C 122.011719 486.761719 124.601562 477.765625 132.113281 471.027344 C 139.253906 464.636719 148.632812 464.625 155.5625 471.070312 C 160.097656 475.289062 163.480469 480.230469 165.914062 485.941406 C 168.824219 492.761719 170.6875 499.863281 172.675781 506.980469 C 177.503906 524.289062 175.488281 540.5625 166.082031 555.894531 C 163.257812 560.488281 159.332031 563.789062 154.058594 565.125 C 146.835938 566.964844 138.152344 562.871094 132.867188 555.171875 C 123.375 541.386719 119.453125 525.917969 119.230469 509.347656 Z M 413.171875 316.042969 C 413.171875 313.453125 413.15625 310.847656 413.171875 308.257812 C 413.226562 302.269531 416.398438 298.929688 422.382812 298.71875 C 425.875 298.59375 429.394531 298.566406 432.886719 298.71875 C 439.136719 298.972656 444.339844 302.519531 445.425781 307.367188 C 446.011719 310 446.175781 312.742188 446.398438 315.457031 C 447.152344 324.742188 448.140625 334.03125 448.472656 343.347656 C 448.710938 350.320312 450.003906 357.257812 448.988281 364.289062 C 448.402344 368.324219 446.078125 370.011719 442.476562 370.050781 C 436.519531 370.121094 430.550781 370.46875 424.609375 369.59375 C 418.5 368.6875 417.191406 367.519531 416.386719 361.378906 C 414.394531 346.324219 413.910156 331.175781 413.171875 316.042969 Z M 408.621094 533.574219 C 408.078125 531.457031 407.578125 529.328125 406.980469 527.226562 C 402.972656 513.09375 397.195312 499.960938 386.398438 489.476562 C 376.324219 479.703125 362.8125 480.300781 353.140625 487.582031 C 346.671875 492.457031 342.675781 499 339.699219 506.285156 C 333.8125 520.640625 330.847656 535.480469 332.5625 551.089844 C 332.671875 552.121094 333.421875 553.945312 331.195312 554.015625 C 329.136719 554.085938 329.109375 552.59375 329.054688 551.078125 C 328.539062 538.253906 327.34375 525.429688 329.832031 512.675781 C 331.976562 501.714844 334.355469 490.828125 341.035156 481.511719 C 352 466.195312 370.105469 463.453125 384.421875 474.996094 C 389.417969 479.019531 393.371094 484.019531 396.554688 489.589844 C 404.320312 503.136719 406.253906 518.355469 408.621094 533.574219 Z M 738.046875 343.277344 C 738.046875 343.929688 738.046875 344.445312 738.046875 344.960938 C 737.988281 351.742188 735.511719 355.488281 730.726562 356.042969 C 722.613281 357.003906 719.734375 355.054688 717.882812 347.355469 C 717.617188 346.230469 717.3125 345.085938 717.1875 343.945312 C 715.824219 331.191406 714.515625 318.4375 713.136719 305.683594 C 712.261719 297.59375 714 295.40625 722.042969 294.792969 C 722.949219 294.722656 723.851562 294.710938 724.769531 294.710938 C 729.960938 294.765625 733.214844 297.3125 733.789062 302.425781 C 735.332031 316.070312 736.652344 329.742188 738.046875 343.277344 Z M 704.34375 473.769531 C 704.066406 475.875 703.96875 478.492188 703.355469 480.996094 C 701.046875 490.5625 690.011719 494.753906 681.871094 489.269531 C 673.703125 483.753906 671.03125 467.980469 676.804688 459.429688 C 680.296875 454.265625 685.113281 451.535156 691.332031 452.441406 C 697.34375 453.316406 700.726562 457.578125 702.671875 462.980469 C 703.871094 466.28125 704.105469 469.804688 704.34375 473.769531 Z M 391.351562 606.828125 C 397.238281 602.011719 401.414062 596.539062 404.417969 590.175781 C 407.4375 583.785156 409.523438 577.085938 411.167969 569.847656 C 416.773438 574.273438 423.328125 574.414062 429.339844 576.167969 C 430.550781 576.53125 431.929688 576.222656 431.300781 578.421875 C 425.527344 598.375 413.253906 607.230469 391.351562 606.828125 Z M 181.539062 536.875 C 185.421875 541.679688 190.292969 542.929688 195.386719 543.503906 C 198.238281 543.824219 198.78125 544.753906 197.597656 547.46875 C 192.046875 560.238281 181.945312 566.90625 167.863281 566.589844 C 175.765625 558.386719 178.367188 547.914062 181.539062 536.875 Z M 597.878906 576.347656 C 593.523438 585.203125 586.734375 590.328125 577.632812 591.398438 C 568.171875 592.515625 561.003906 587.542969 554.410156 580.359375 C 569.117188 578.992188 583.03125 577.714844 597.878906 576.347656 Z M 592.910156 594.324219 C 599.453125 589.339844 603.765625 584.105469 606.492188 577.585938 C 606.9375 576.53125 607.242188 575.066406 608.523438 574.941406 C 615.761719 574.230469 622.882812 572.421875 630.550781 572.199219 C 622.828125 587.722656 609.539062 592.835938 592.910156 594.324219 Z M 696.160156 269.660156 C 704.316406 270.59375 712.300781 271.804688 719.191406 276.816406 C 722 278.863281 723.476562 281.511719 724.285156 284.753906 C 724.644531 286.1875 724.199219 286.566406 722.863281 286.675781 C 720.511719 286.871094 718.550781 286.648438 716.421875 285.046875 C 710.550781 280.621094 703.605469 278.542969 696.4375 277.179688 C 694.171875 276.75 690.96875 272.542969 691.75 270.664062 C 692.597656 268.589844 694.699219 270.191406 696.160156 269.660156 Z M 441.753906 286.425781 C 441.765625 286.425781 441.792969 286.425781 441.808594 286.425781 C 441.808594 287.207031 441.722656 288 441.820312 288.75 C 442.210938 291.589844 441.667969 292.832031 438.386719 291.589844 C 436.269531 290.796875 433.792969 290.503906 431.511719 290.660156 C 427.699219 290.910156 426.695312 289.15625 427.058594 285.800781 C 427.210938 284.378906 427.183594 282.957031 427.253906 281.523438 C 427.335938 279.574219 428.117188 277.988281 429.839844 277.039062 C 436.03125 273.628906 441.472656 276.691406 441.753906 283.695312 C 441.78125 284.601562 441.753906 285.507812 441.753906 286.425781 Z M 441.753906 286.425781 " fill-opacity="1" fill-rule="nonzero"/></g><path fill="#000000" d="M 340.769531 324.589844 C 340.769531 309.398438 340.367188 294.179688 340.953125 279.003906 C 341.230469 271.832031 334.746094 264.675781 325.921875 265.734375 C 306.527344 268.046875 287.171875 270.59375 268.09375 274.992188 C 257.378906 277.457031 253.09375 282.707031 252.285156 293.554688 C 250.460938 317.933594 250.894531 342.34375 250.835938 366.753906 C 250.824219 371.167969 250.933594 375.59375 252.367188 379.828125 C 254.429688 385.910156 258.824219 389.101562 265.226562 389.140625 C 284.566406 389.253906 303.882812 388.054688 323.210938 387.5 C 336.011719 387.136719 340.296875 379.367188 340.144531 369.789062 C 339.921875 354.734375 340.089844 339.671875 340.089844 324.605469 C 340.3125 324.589844 340.546875 324.589844 340.769531 324.589844 Z M 332.644531 322.085938 C 332.644531 339.921875 332.671875 355.125 332.628906 370.332031 C 332.617188 376.347656 330.195312 379.339844 324.878906 379.410156 C 305.539062 379.6875 286.210938 380.257812 266.894531 381.011719 C 261.675781 381.21875 258.964844 378.449219 258.921875 373.226562 C 258.839844 363.871094 258.894531 354.511719 258.851562 345.15625 C 258.785156 327.625 259.035156 310.097656 260.425781 292.609375 C 260.855469 287.175781 263.597656 284.28125 269.039062 282.984375 C 274.5625 281.664062 280.144531 280.507812 285.722656 279.4375 C 298.957031 276.886719 312.285156 275.035156 325.699219 273.796875 C 331.863281 273.226562 333.480469 274.992188 333.394531 281.050781 C 333.1875 295.613281 332.199219 310.152344 332.644531 322.085938 Z M 332.644531 322.085938 " fill-opacity="1" fill-rule="nonzero"/><path fill="#000000" d="M 642.199219 460.542969 C 623.425781 461.558594 604.640625 462.199219 585.941406 464.273438 C 580.414062 464.886719 574.851562 465.320312 569.324219 465.988281 C 563.425781 466.710938 559.585938 470.429688 558.554688 476.417969 C 556.441406 488.765625 560.238281 499.765625 566.375 510.113281 C 569.351562 515.152344 574.792969 515.722656 580.054688 516.101562 C 587.984375 516.671875 595.875 515.683594 603.765625 515.179688 C 613.714844 514.554688 623.636719 513.414062 633.542969 512.269531 C 639.179688 511.628906 644.871094 511.046875 650.144531 508.59375 C 658.0625 504.917969 659.746094 497.539062 661.039062 490.035156 C 662.109375 483.851562 661.582031 477.613281 661.082031 471.402344 C 660.496094 464.164062 656.933594 460.695312 649.601562 460.515625 C 647.125 460.5 644.660156 460.542969 642.199219 460.542969 Z M 573.039062 488.640625 C 565.917969 488.667969 565.917969 488.667969 565.972656 481.375 C 565.972656 480.984375 565.972656 480.59375 565.984375 480.203125 C 566 476.640625 567.292969 474.246094 571.257812 473.898438 C 581.570312 472.992188 591.855469 471.851562 602.179688 471.085938 C 616.636719 469.996094 631.121094 469.230469 645.59375 468.214844 C 652.246094 467.757812 653.398438 468.8125 653.84375 475.484375 C 654.09375 479.171875 652.675781 481.136719 649.167969 481.777344 C 646.511719 482.265625 643.855469 482.90625 641.167969 483.15625 C 630.34375 484.199219 619.515625 485.1875 608.691406 486.050781 C 596.808594 487.011719 584.925781 487.792969 573.039062 488.640625 Z M 591.644531 507.578125 C 587.5 507.71875 583.367188 507.789062 579.203125 507.550781 C 575.363281 507.339844 573 505.40625 571.191406 502.300781 C 568.671875 497.984375 569.269531 496.980469 574.152344 496.746094 C 584.117188 496.273438 594.121094 496.078125 604.015625 494.964844 C 619.699219 493.195312 635.53125 492.875 651.0625 489.769531 C 652.886719 489.40625 653.273438 490.105469 652.984375 491.832031 C 651.980469 497.566406 648.5 501.492188 642.238281 502.664062 C 625.5 505.769531 608.566406 506.6875 591.644531 507.578125 Z M 591.644531 507.578125 " fill-opacity="1" fill-rule="nonzero"/><path fill="#000000" d="M 240.414062 343.359375 C 240.820312 327 241.140625 310.640625 241.777344 294.277344 C 241.863281 292.09375 241.933594 289.890625 241.304688 287.707031 C 240.027344 283.304688 237.492188 281.164062 232.886719 281.21875 C 224.691406 281.316406 216.71875 283.25 208.660156 284.476562 C 198.808594 285.980469 189.070312 288.070312 179.398438 290.492188 C 168.933594 293.109375 165.050781 297.214844 164.246094 307.8125 C 163.132812 322.445312 162.714844 337.109375 162.742188 351.785156 C 162.753906 361.113281 161.210938 370.441406 162.660156 379.785156 C 163.992188 388.390625 168.417969 392.414062 177.101562 392.207031 C 192.921875 391.816406 208.773438 391.4375 224.566406 390.492188 C 230.910156 390.117188 237.257812 388.445312 239.707031 381.050781 C 240.261719 379.394531 240.359375 377.722656 240.375 376.066406 C 240.441406 365.179688 240.414062 354.277344 240.414062 343.359375 Z M 170.074219 358.425781 C 169.574219 348.984375 170.910156 337.859375 171.035156 326.679688 C 171.105469 320.71875 171.550781 314.734375 172.164062 308.800781 C 172.914062 301.589844 174.152344 300.40625 181.109375 298.59375 C 196.902344 294.488281 212.945312 291.6875 229.089844 289.445312 C 233.125 288.890625 234.460938 290.117188 234.277344 294.488281 C 233.164062 320.582031 232.761719 346.675781 232.859375 372.796875 C 232.886719 380.035156 231.035156 382.109375 223.773438 382.429688 C 208.605469 383.113281 193.425781 383.65625 178.242188 384.128906 C 172.023438 384.324219 170.226562 382.5 170.089844 376.136719 C 169.976562 370.832031 170.074219 365.5 170.074219 358.425781 Z M 170.074219 358.425781 " fill-opacity="1" fill-rule="nonzero"/><path fill="#000000" d="M 154.488281 343.039062 C 155.464844 330.175781 155.253906 318.605469 155.253906 307.046875 C 155.253906 301.085938 151.484375 297.203125 145.722656 297.925781 C 131.976562 299.640625 118.503906 302.578125 105.148438 306.40625 C 93.390625 309.789062 89.214844 317.683594 88.753906 328.851562 C 88.128906 344.152344 87.351562 359.457031 86.78125 374.757812 C 86.613281 379.160156 86.710938 383.574219 88.503906 387.761719 C 90.4375 392.261719 93.613281 394.710938 98.691406 394.65625 C 112.71875 394.503906 126.742188 394.890625 140.742188 393.933594 C 147.726562 393.457031 152.710938 388.847656 153.695312 381.816406 C 154.90625 373.15625 154.171875 364.425781 154.460938 355.738281 C 154.617188 351.074219 154.488281 346.394531 154.488281 343.039062 Z M 94.347656 370.246094 C 95.074219 357.089844 96.019531 342.34375 96.660156 327.570312 C 96.953125 320.816406 100.386719 316.625 106.359375 314.441406 C 118.199219 310.109375 130.5 307.714844 143.023438 306.488281 C 147.910156 306.015625 147.949219 306.210938 147.910156 311.28125 C 147.839844 320.496094 147.058594 329.671875 147.074219 338.90625 C 147.085938 352.144531 146.640625 365.375 146.351562 378.617188 C 146.253906 383.292969 144.625 385.367188 140.003906 385.757812 C 126.703125 386.898438 113.34375 387.109375 100 387.21875 C 97.269531 387.25 95.894531 385.714844 95.171875 383.085938 C 94.15625 379.351562 94.683594 375.609375 94.347656 370.246094 Z M 94.347656 370.246094 " fill-opacity="1" fill-rule="nonzero"/><path fill="#000000" d="M 484.527344 482.640625 C 484.75 496.96875 493.058594 509.625 505.21875 514.179688 C 522.597656 520.695312 541.664062 509.820312 544.863281 491.539062 C 547.617188 475.816406 540.3125 460.460938 526.703125 454.613281 C 508.210938 446.648438 484.066406 455.320312 484.527344 482.640625 Z M 514.625 460.097656 C 527.398438 460.195312 537.683594 471.335938 537.613281 484.964844 C 537.542969 497.804688 527.734375 508.234375 515.835938 508.136719 C 503.464844 508.039062 491.804688 495.3125 491.972656 482.097656 C 492.152344 469.175781 501.613281 459.988281 514.625 460.097656 Z M 514.625 460.097656 " fill-opacity="1" fill-rule="nonzero"/><path fill="#000000" d="M 376.558594 412.953125 C 374.488281 412.953125 372.425781 412.910156 370.355469 412.964844 C 367.515625 413.050781 365.679688 414.398438 365.429688 417.335938 C 365.179688 420.304688 366.804688 422.226562 369.589844 422.421875 C 374.472656 422.769531 379.414062 422.808594 384.3125 422.644531 C 386.886719 422.558594 388.054688 420.46875 388.207031 418.105469 C 388.386719 415.402344 386.96875 413.507812 384.296875 413.1875 C 381.75 412.882812 379.132812 413.117188 376.558594 413.117188 C 376.558594 413.0625 376.558594 413.007812 376.558594 412.953125 Z M 376.558594 412.953125 " fill-opacity="1" fill-rule="nonzero"/><path fill="#000000" d="M 352.542969 546.96875 C 352.695312 554.851562 354.128906 562.425781 357.621094 569.539062 C 361.976562 578.421875 371.855469 581.875 380.148438 576.988281 C 385.675781 573.730469 387.71875 567.882812 388.875 561.992188 C 390.960938 551.285156 389.890625 540.746094 385.117188 530.914062 C 381.917969 524.328125 377.480469 518.773438 368.992188 518.980469 C 362.574219 519.148438 358.429688 522.503906 355.617188 528.03125 C 352.542969 534.035156 352.320312 540.464844 352.542969 546.96875 Z M 360.085938 547.832031 C 359.75 540.300781 360.585938 535.496094 362.601562 531.820312 C 365.496094 526.570312 370.394531 525.734375 374.820312 529.800781 C 375.863281 530.761719 376.964844 531.804688 377.617188 533.03125 C 383.113281 543.433594 384.476562 554.125 379.34375 565.097656 C 377.867188 568.257812 375.78125 571.140625 371.953125 571.210938 C 368.058594 571.28125 365.664062 568.550781 363.800781 565.433594 C 363.269531 564.554688 362.9375 563.566406 362.535156 562.605469 C 360.390625 557.46875 360.015625 552.050781 360.085938 547.832031 Z M 360.085938 547.832031 " fill-opacity="1" fill-rule="nonzero"/><path fill="#000000" d="M 161.558594 519.859375 C 161.699219 511.003906 160.527344 502.480469 154.644531 495.394531 C 146.949219 486.121094 135.230469 488.015625 131.792969 499.542969 C 128.050781 512.105469 128.664062 524.664062 135.941406 536.136719 C 139.101562 541.121094 143.761719 543.824219 149.800781 542.511719 C 155.867188 541.191406 159.109375 536.832031 160.710938 531.066406 C 161.710938 527.378906 161.503906 523.605469 161.558594 519.859375 Z M 154.992188 519.398438 C 155.171875 522.964844 154.574219 526.375 153.070312 529.59375 C 150.121094 535.957031 145.320312 536.511719 141.453125 530.59375 C 135.664062 521.726562 135.578125 512.019531 139.070312 502.386719 C 140.980469 497.136719 146.183594 496.757812 149.648438 501.160156 C 153.851562 506.519531 154.546875 512.9375 154.992188 519.398438 Z M 154.992188 519.398438 " fill-opacity="1" fill-rule="nonzero"/></svg>