<svg xmlns="http://www.w3.org/2000/svg" xmlns:xlink="http://www.w3.org/1999/xlink" width="1080" zoomAndPan="magnify" viewBox="0 0 810 809.999993" height="1080" preserveAspectRatio="xMidYMid meet" version="1.0"><defs><clipPath id="f7d6d78349"><path d="M 57.113281 135.679688 L 753.113281 135.679688 L 753.113281 674.179688 L 57.113281 674.179688 Z M 57.113281 135.679688 " clip-rule="nonzero"/></clipPath></defs><g clip-path="url(#f7d6d78349)"><path fill="#000000" d="M 716.585938 157.148438 C 695.234375 139.484375 670.691406 137.042969 662.628906 136.242188 C 617.511719 131.746094 571.128906 153.660156 524.761719 201.328125 C 499.023438 227.789062 480.140625 255.410156 470.957031 269.898438 C 460.902344 261.644531 449.214844 254.453125 435.945312 248.796875 C 434.53125 239.792969 433.90625 230.648438 434.105469 221.546875 C 434.496094 203.441406 434.804688 189.140625 443.585938 177.667969 C 447.394531 172.691406 452.027344 168.910156 456.386719 166.289062 C 456.320312 167.398438 456.378906 168.519531 456.566406 169.640625 C 457.984375 178.183594 465.910156 182.949219 472.648438 183.097656 C 481.699219 183.253906 488.398438 175.78125 490.054688 168.535156 C 490.09375 168.375 490.128906 168.214844 490.160156 168.058594 C 491.996094 158.867188 486.230469 149.902344 479.808594 146.085938 C 465.171875 137.386719 441.578125 149.515625 428.726562 166.304688 C 416.230469 182.632812 415.828125 201.339844 415.398438 221.144531 C 415.242188 228.445312 415.558594 235.769531 416.328125 243.042969 C 408.886719 241.917969 401.339844 241.917969 393.902344 243.042969 C 394.667969 235.769531 394.984375 228.445312 394.828125 221.136719 C 394.398438 201.335938 393.996094 182.632812 381.5 166.304688 C 368.648438 149.515625 345.054688 137.386719 330.417969 146.085938 C 323.9375 149.9375 318.125 159.039062 320.121094 168.3125 C 321.695312 175.625 328.339844 183.234375 337.585938 183.097656 C 344.316406 182.949219 352.242188 178.183594 353.664062 169.640625 C 353.847656 168.519531 353.90625 167.398438 353.839844 166.289062 C 358.199219 168.910156 362.832031 172.691406 366.640625 177.667969 C 375.421875 189.140625 375.734375 203.441406 376.125 221.546875 C 376.320312 230.652344 375.695312 239.792969 374.285156 248.796875 C 361.011719 254.453125 349.324219 261.644531 339.269531 269.902344 C 330.085938 255.410156 311.207031 227.789062 285.464844 201.328125 C 239.097656 153.660156 192.710938 131.75 147.597656 136.242188 C 139.535156 137.042969 114.992188 139.484375 93.640625 157.148438 C 70.351562 176.410156 57.730469 207.875 57.136719 248.136719 C 56.644531 281.445312 64.578125 318.125 78.902344 348.765625 C 110.953125 417.347656 172.339844 446.289062 192.511719 455.800781 C 196.644531 457.746094 200.761719 459.519531 204.867188 461.191406 C 183.570312 469.191406 156.925781 485.074219 140.371094 516.433594 C 122.101562 551.027344 117.660156 605.285156 151.074219 642.667969 C 172.925781 667.109375 202.210938 674.167969 228.753906 674.167969 C 251.523438 674.167969 272.28125 668.96875 284.570312 665.097656 C 313.183594 656.082031 339.433594 637.929688 359.523438 613.503906 C 359.609375 613.582031 359.691406 613.664062 359.777344 613.738281 C 372.699219 625.164062 388.90625 630.875 405.113281 630.875 C 421.320312 630.875 437.527344 625.164062 450.449219 613.738281 C 450.539062 613.660156 450.621094 613.578125 450.707031 613.5 C 464.761719 630.527344 489.332031 653.652344 525.660156 665.101562 C 537.953125 668.972656 558.699219 674.167969 581.472656 674.167969 C 608.011719 674.167969 637.304688 667.109375 659.152344 642.667969 C 692.566406 605.289062 688.125 551.027344 669.855469 516.433594 C 653.300781 485.074219 626.65625 469.191406 605.359375 461.191406 C 609.464844 459.519531 613.582031 457.746094 617.714844 455.800781 C 637.886719 446.289062 699.269531 417.347656 731.328125 348.765625 C 745.648438 318.125 753.582031 281.445312 753.089844 248.136719 C 752.496094 207.875 739.871094 176.410156 716.585938 157.148438 Z M 426.660156 265.148438 C 482.804688 288.035156 507.445312 343.910156 494.445312 379.746094 C 494.445312 379.746094 494.445312 379.75 494.445312 379.75 C 487.78125 398.144531 470.410156 413.953125 446.785156 423.121094 C 433.933594 428.09375 419.53125 430.960938 405.113281 431.40625 C 403.3125 431.351562 401.511719 431.257812 399.710938 431.125 C 397.632812 430.976562 395.558594 430.761719 393.492188 430.511719 C 384.835938 429.464844 376.335938 427.578125 368.335938 424.886719 C 366.683594 424.332031 365.054688 423.742188 363.449219 423.121094 C 339.820312 413.953125 322.445312 398.144531 315.78125 379.746094 C 302.785156 343.910156 327.425781 288.035156 383.570312 265.148438 C 390.515625 262.3125 397.816406 260.898438 405.113281 260.898438 C 412.414062 260.898438 419.710938 262.3125 426.660156 265.148438 Z M 298.191406 386.113281 C 301.582031 395.46875 307.035156 404.234375 314.148438 412.113281 C 280.027344 406.316406 248.660156 393.941406 222.171875 375.609375 C 189.722656 353.152344 178.132812 331.636719 174.109375 320.808594 C 170.882812 312.121094 161.0625 285.691406 173.539062 269.015625 C 182.75 256.703125 200.265625 254.726562 205.414062 254.417969 C 237.191406 252.433594 272.566406 285.25 296.054688 338.082031 C 292.308594 354.976562 292.953125 371.667969 298.191406 386.113281 Z M 369.269531 444.726562 C 370.5625 445.089844 371.863281 445.4375 373.171875 445.765625 C 373.75 445.910156 374.328125 446.054688 374.910156 446.191406 C 376.316406 446.523438 377.726562 446.835938 379.148438 447.128906 C 379.566406 447.214844 379.980469 447.308594 380.398438 447.390625 C 382.230469 447.75 384.070312 448.074219 385.917969 448.363281 C 386.328125 448.425781 386.738281 448.476562 387.144531 448.539062 C 388.605469 448.753906 390.066406 448.949219 391.539062 449.121094 C 392.140625 449.195312 392.746094 449.257812 393.351562 449.320312 C 394.707031 449.464844 396.0625 449.585938 397.425781 449.691406 C 397.996094 449.734375 398.5625 449.785156 399.132812 449.820312 C 401.027344 449.949219 402.929688 450.050781 404.84375 450.105469 C 404.933594 450.105469 405.023438 450.109375 405.113281 450.109375 C 405.203125 450.109375 405.292969 450.105469 405.382812 450.105469 C 407.296875 450.050781 409.199219 449.949219 411.097656 449.820312 C 411.667969 449.785156 412.234375 449.734375 412.800781 449.691406 C 414.164062 449.585938 415.523438 449.464844 416.875 449.320312 C 417.480469 449.257812 418.085938 449.195312 418.691406 449.121094 C 420.164062 448.949219 421.628906 448.753906 423.089844 448.539062 C 423.496094 448.476562 423.902344 448.425781 424.308594 448.363281 C 426.160156 448.074219 428.003906 447.75 429.832031 447.390625 C 430.246094 447.308594 430.660156 447.214844 431.074219 447.128906 C 432.496094 446.835938 433.914062 446.527344 435.324219 446.191406 C 435.902344 446.054688 436.476562 445.910156 437.054688 445.765625 C 438.367188 445.4375 439.671875 445.089844 440.972656 444.722656 C 441.484375 444.578125 442 444.441406 442.511719 444.289062 C 442.761719 444.214844 443.011719 444.152344 443.261719 444.078125 C 444.652344 450.769531 445.882812 457.519531 447.023438 464.296875 C 447.019531 464.316406 447.007812 464.335938 447.003906 464.359375 C 446.558594 466.640625 447.019531 468.863281 448.082031 470.738281 C 448.980469 476.503906 449.765625 482.285156 450.476562 488.074219 C 440.644531 493.605469 424.507812 500.316406 404.105469 500.046875 C 385.203125 499.839844 370.144531 493.960938 359.75 488.085938 C 360.460938 482.289062 361.25 476.503906 362.148438 470.730469 C 363.210938 468.859375 363.667969 466.636719 363.226562 464.359375 C 363.222656 464.339844 363.210938 464.320312 363.207031 464.300781 C 364.34375 457.523438 365.578125 450.769531 366.96875 444.078125 C 367.214844 444.152344 367.46875 444.214844 367.714844 444.289062 C 368.230469 444.441406 368.75 444.582031 369.269531 444.726562 Z M 335.957031 541.417969 C 335.941406 541.4375 335.917969 541.453125 335.898438 541.472656 C 299.179688 582.984375 257.820312 604.199219 235.320312 593.078125 C 227.175781 589.050781 215.765625 578.296875 215.902344 566.992188 C 215.933594 564.421875 216.027344 556.601562 232.289062 543.070312 C 261.628906 518.65625 304.632812 508.109375 339.132812 503.589844 C 337.621094 517.460938 336.402344 530.003906 335.957031 541.417969 Z M 357.488281 507.96875 C 369.417969 513.652344 385.070312 518.535156 403.902344 518.742188 C 404.300781 518.746094 404.699219 518.75 405.09375 518.75 C 424.746094 518.75 441.078125 513.445312 452.734375 507.933594 C 454.171875 521.453125 455.222656 533.035156 455.59375 543.105469 C 445.542969 550.210938 425.335938 561.308594 398.839844 559.765625 C 379.257812 558.625 364.074219 551.019531 354.582031 544.640625 C 354.902344 534.222656 355.980469 522.160156 357.488281 507.96875 Z M 474.328125 541.472656 C 474.308594 541.453125 474.289062 541.441406 474.269531 541.417969 C 473.828125 530.003906 472.609375 517.460938 471.09375 503.589844 C 505.59375 508.109375 548.597656 518.652344 577.9375 543.070312 C 594.199219 556.601562 594.292969 564.421875 594.324219 566.992188 C 594.460938 578.296875 583.050781 589.050781 574.90625 593.078125 C 570.902344 595.058594 566.308594 596.015625 561.242188 596.015625 C 537.839844 596.011719 504.515625 575.597656 474.328125 541.472656 Z M 514.171875 338.082031 C 537.660156 285.25 573.046875 252.46875 604.8125 254.417969 C 609.960938 254.726562 627.476562 256.703125 636.6875 269.015625 C 649.164062 285.691406 639.34375 312.121094 636.117188 320.808594 C 632.09375 331.636719 620.503906 353.152344 588.054688 375.609375 C 561.566406 393.941406 530.203125 406.316406 496.078125 412.113281 C 503.191406 404.234375 508.644531 395.472656 512.035156 386.117188 C 517.277344 371.667969 517.917969 354.976562 514.171875 338.082031 Z M 95.851562 340.855469 C 73.28125 292.5625 61.375 208.113281 105.570312 171.550781 C 122.523438 157.523438 142.792969 155.507812 149.449219 154.847656 C 235.046875 146.34375 308.277344 255.339844 325.398438 282.996094 C 316.773438 292.410156 309.902344 302.679688 304.769531 313.265625 C 277.921875 262.816406 240.578125 233.585938 204.289062 235.753906 C 195.082031 236.3125 172.203125 239.574219 158.554688 257.820312 C 139.980469 282.652344 152.46875 316.269531 156.570312 327.316406 C 164.835938 349.566406 184.351562 372.175781 211.519531 390.980469 C 248.34375 416.464844 293.671875 431.34375 342.699219 434.105469 C 344.832031 435.25 347.023438 436.335938 349.261719 437.371094 C 347.789062 444.269531 346.457031 451.230469 345.242188 458.222656 C 313.59375 463.410156 258.195312 466.089844 200.492188 438.886719 C 181.832031 430.089844 125.046875 403.316406 95.851562 340.855469 Z M 278.941406 647.269531 C 255.792969 654.558594 198.351562 667.496094 165.023438 630.210938 C 137.5625 599.488281 141.570312 554.21875 156.914062 525.160156 C 180.125 481.199219 228.613281 473.1875 237.726562 472.054688 C 261.5625 478.152344 284.078125 480.265625 303.789062 480.265625 C 318.320312 480.265625 331.328125 479.121094 342.222656 477.59375 C 341.90625 479.882812 341.601562 482.171875 341.3125 484.460938 C 303.542969 488.964844 254.367188 500.371094 220.316406 528.703125 C 204.914062 541.523438 197.351562 553.972656 197.195312 566.765625 C 196.945312 587.421875 214.898438 603.839844 227.027344 609.835938 C 233.582031 613.082031 240.90625 614.652344 248.800781 614.652344 C 274.511719 614.652344 306.21875 597.933594 336.769531 567.761719 C 338.222656 579.445312 341.425781 589.730469 347.222656 598.972656 C 335.195312 614.230469 312.8125 636.597656 278.941406 647.269531 Z M 438.054688 599.734375 C 419.277344 616.335938 390.949219 616.332031 372.171875 599.738281 C 369.917969 597.742188 367.941406 595.660156 366.113281 593.359375 C 360.238281 585.96875 356.953125 577.480469 355.46875 566.800781 C 366.425781 572.410156 380.695312 577.4375 397.75 578.429688 C 399.808594 578.550781 401.832031 578.605469 403.828125 578.605469 C 425.085938 578.605469 442.601562 572.082031 454.941406 565.433594 C 453.550781 576.761719 450.238281 585.65625 444.113281 593.359375 C 444.113281 593.359375 444.109375 593.363281 444.105469 593.367188 C 442.289062 595.660156 440.308594 597.742188 438.054688 599.734375 Z M 653.3125 525.160156 C 668.65625 554.21875 672.664062 599.488281 645.203125 630.210938 C 611.875 667.492188 554.433594 654.5625 531.28125 647.265625 C 497.414062 636.59375 475.03125 614.230469 463.003906 598.972656 C 468.800781 589.726562 472.003906 579.445312 473.457031 567.761719 C 504.011719 597.9375 535.714844 614.652344 561.425781 614.652344 C 569.316406 614.652344 576.644531 613.082031 583.199219 609.835938 C 595.328125 603.84375 613.28125 587.425781 613.03125 566.765625 C 612.875 553.972656 605.3125 541.519531 589.910156 528.703125 C 555.863281 500.371094 506.6875 488.964844 468.914062 484.460938 C 468.628906 482.171875 468.320312 479.882812 468.007812 477.59375 C 478.898438 479.121094 491.90625 480.265625 506.441406 480.265625 C 526.148438 480.265625 548.664062 478.152344 572.496094 472.054688 C 581.601562 473.1875 630.097656 481.195312 653.3125 525.160156 Z M 714.375 340.855469 C 685.179688 403.320312 628.394531 430.089844 609.734375 438.886719 C 552.035156 466.089844 496.636719 463.410156 464.988281 458.222656 C 463.773438 451.230469 462.4375 444.269531 460.964844 437.371094 C 463.207031 436.335938 465.398438 435.25 467.53125 434.105469 C 516.558594 431.339844 561.882812 416.464844 598.707031 390.980469 C 625.875 372.175781 645.390625 349.566406 653.65625 327.316406 C 657.757812 316.269531 670.246094 282.652344 651.671875 257.820312 C 638.023438 239.574219 615.144531 236.3125 605.941406 235.753906 C 569.640625 233.578125 532.304688 262.8125 505.460938 313.261719 C 500.324219 302.675781 493.453125 292.410156 484.828125 282.996094 C 501.953125 255.332031 575.175781 146.332031 660.777344 154.847656 C 667.4375 155.507812 687.703125 157.523438 704.65625 171.550781 C 748.855469 208.113281 736.949219 292.5625 714.375 340.855469 Z M 714.375 340.855469 " fill-opacity="1" fill-rule="nonzero"/></g><path fill="#000000" d="M 387.144531 379.910156 C 383.84375 375.941406 377.949219 375.390625 373.96875 378.695312 C 369.996094 381.992188 369.453125 387.886719 372.753906 391.859375 C 376.023438 395.792969 385.222656 405.132812 400.011719 406.917969 C 401.65625 407.117188 403.261719 407.210938 404.820312 407.210938 C 423.71875 407.210938 435.949219 393.636719 437.378906 391.96875 C 440.742188 388.046875 440.289062 382.148438 436.367188 378.789062 C 432.441406 375.425781 426.539062 375.878906 423.175781 379.800781 C 422.824219 380.210938 414.421875 389.824219 402.253906 388.355469 C 394.136719 387.375 388.984375 382.125 387.144531 379.910156 Z M 387.144531 379.910156 " fill-opacity="1" fill-rule="nonzero"/><path fill="#000000" d="M 340.21875 327.085938 C 340.21875 342.761719 352.980469 355.515625 368.664062 355.515625 C 384.351562 355.515625 397.113281 342.761719 397.113281 327.085938 C 397.113281 311.410156 384.351562 298.65625 368.664062 298.65625 C 352.980469 298.65625 340.21875 311.410156 340.21875 327.085938 Z M 378.402344 327.085938 C 378.402344 332.453125 374.035156 336.820312 368.664062 336.820312 C 363.296875 336.820312 358.925781 332.453125 358.925781 327.085938 C 358.925781 321.722656 363.296875 317.351562 368.664062 317.351562 C 374.035156 317.351562 378.402344 321.71875 378.402344 327.085938 Z M 378.402344 327.085938 " fill-opacity="1" fill-rule="nonzero"/><path fill="#000000" d="M 441.5625 355.515625 C 457.25 355.515625 470.007812 342.761719 470.007812 327.085938 C 470.007812 311.410156 457.25 298.65625 441.5625 298.65625 C 425.875 298.65625 413.117188 311.410156 413.117188 327.085938 C 413.117188 342.765625 425.875 355.515625 441.5625 355.515625 Z M 441.5625 317.351562 C 446.933594 317.351562 451.300781 321.71875 451.300781 327.085938 C 451.300781 332.453125 446.933594 336.820312 441.5625 336.820312 C 436.191406 336.820312 431.824219 332.453125 431.824219 327.085938 C 431.824219 321.722656 436.191406 317.351562 441.5625 317.351562 Z M 441.5625 317.351562 " fill-opacity="1" fill-rule="nonzero"/></svg>