<svg xmlns="http://www.w3.org/2000/svg" xmlns:xlink="http://www.w3.org/1999/xlink" width="1080" zoomAndPan="magnify" viewBox="0 0 810 809.999993" height="1080" preserveAspectRatio="xMidYMid meet" version="1.0"><defs><clipPath id="3182b6b75d"><path d="M 55.207031 184 L 707.707031 184 L 707.707031 626.359375 L 55.207031 626.359375 Z M 55.207031 184 " clip-rule="nonzero"/></clipPath></defs><g clip-path="url(#3182b6b75d)"><path fill="#000000" d="M 663.417969 515.359375 C 642.839844 515.464844 623.273438 511.917969 603.859375 507.324219 C 601.964844 506.871094 600.757812 506.964844 599.324219 508.292969 C 584.039062 522.4375 568.332031 536.089844 552.355469 549.4375 C 521.21875 575.4375 488.644531 599.222656 450.726562 614.523438 C 430.375 622.746094 409.238281 627.378906 387.109375 625.851562 C 363.371094 624.21875 341.347656 616.6875 320.359375 605.863281 C 294.035156 592.292969 270.246094 574.695312 245.621094 558.414062 C 228.386719 547.003906 210.292969 537.269531 191.054688 529.660156 C 188.574219 528.679688 187.058594 528.945312 185.03125 530.539062 C 167.96875 543.820312 150.785156 556.941406 130.9375 565.984375 C 116.15625 572.714844 100.964844 577.65625 84.449219 576.632812 C 74.894531 576.050781 66.523438 572.78125 60.539062 564.894531 C 52.355469 554.085938 53.773438 539.34375 63.566406 527.019531 C 73.15625 514.945312 85.722656 506.488281 98.035156 497.707031 C 129.902344 474.972656 161.917969 452.449219 194.886719 431.332031 C 196.398438 430.363281 197.222656 429.421875 197.488281 427.453125 C 201.28125 400.003906 207.613281 373.125 216.925781 347.015625 C 226.890625 319.101562 241.046875 293.535156 260.628906 271.144531 C 286.394531 241.675781 318.78125 222.761719 355.917969 211.5 C 375.460938 205.578125 395.574219 203.042969 415.820312 201.210938 C 430.082031 199.90625 444.320312 198.859375 458.621094 200.414062 C 460.863281 200.652344 463.144531 200.679688 465.375 201.023438 C 466.832031 201.25 467.855469 201.0625 468.398438 199.574219 C 472.273438 188.859375 480.976562 185.257812 491.273438 184.410156 C 502.230469 183.507812 513.070312 184.222656 523.0625 189.480469 C 530.824219 193.558594 537.136719 198.832031 535.773438 208.925781 C 535.375 211.832031 537.523438 211.820312 539.140625 212.113281 C 559.253906 215.816406 578.226562 222.761719 596.074219 232.65625 C 635.957031 254.769531 667.796875 284.824219 686.796875 326.988281 C 695.886719 347.148438 700.941406 368.554688 704.230469 390.414062 C 707.097656 409.527344 708.171875 428.730469 707.519531 448.027344 C 707.054688 462.039062 705.835938 475.996094 704.457031 489.953125 C 704.019531 494.453125 703.449219 498.96875 703.382812 503.484375 C 703.339844 506.445312 702.042969 508.160156 699.785156 509.699219 C 696.164062 512.183594 691.996094 513.007812 687.832031 513.59375 C 679.578125 514.746094 671.273438 515.597656 663.417969 515.359375 Z M 204.519531 425.382812 C 226.636719 416.125 249.484375 413.84375 272.742188 413.683594 C 296.320312 413.511719 319.496094 416.855469 342.542969 421.160156 C 376.46875 427.496094 409.730469 436.605469 442.488281 447.414062 C 474.820312 458.078125 506.902344 469.5 539.035156 480.761719 C 542.113281 481.839844 543.160156 481.160156 543.929688 478.292969 C 545.644531 471.90625 547.753906 465.636719 549.359375 459.222656 C 558.300781 423.417969 564.894531 387.226562 567.386719 350.335938 C 568.847656 328.753906 568.515625 307.332031 563.820312 286.136719 C 557.53125 257.785156 543.625 234.222656 520.195312 216.640625 C 518.589844 215.433594 516.945312 214.410156 514.941406 214.039062 C 501.355469 211.527344 487.691406 209.523438 473.957031 208.246094 C 453.378906 206.347656 432.761719 205.65625 412.089844 207.929688 C 392.574219 210.066406 373.335938 213.1875 354.535156 219.019531 C 313.089844 231.886719 279.175781 255.367188 253.691406 290.585938 C 234.082031 317.679688 221.742188 348.128906 213.371094 380.335938 C 209.535156 395.023438 206.03125 409.765625 204.519531 425.382812 Z M 104.03125 500.03125 C 104.109375 500.21875 104.203125 500.40625 104.285156 500.589844 C 105.4375 500.207031 106.59375 499.808594 107.757812 499.449219 C 116.835938 496.726562 126.042969 494.734375 135.515625 494.136719 C 164.796875 492.289062 192.328125 499.527344 219.019531 510.644531 C 247.734375 522.597656 273.472656 539.792969 299.382812 556.6875 C 315.835938 567.417969 332.617188 577.539062 351.40625 583.847656 C 371.414062 590.566406 391.792969 593.195312 412.703125 589.371094 C 431.898438 585.851562 449.546875 578.109375 466.367188 568.480469 C 492.878906 553.3125 516.957031 534.773438 539.644531 514.402344 C 546.480469 508.265625 553.152344 501.972656 560.222656 495.449219 C 558.539062 494.746094 557.304688 494.175781 556.03125 493.722656 C 535.730469 486.566406 515.40625 479.527344 495.148438 472.261719 C 446.878906 454.972656 398.171875 439.246094 347.851562 428.957031 C 329.871094 425.277344 311.761719 422.277344 293.464844 421.054688 C 276.667969 419.925781 259.765625 419.578125 243.007812 421.8125 C 225.589844 424.136719 208.9375 428.769531 193.90625 438.636719 C 180.558594 447.402344 167.105469 456.007812 153.984375 465.089844 C 137.28125 476.671875 120.683594 488.386719 104.03125 500.03125 Z M 529.246094 216.785156 C 529.296875 217.171875 529.269531 217.371094 529.351562 217.4375 C 530.066406 218.113281 530.769531 218.792969 531.511719 219.417969 C 544.304688 230.214844 553.601562 243.585938 560.421875 258.765625 C 573.808594 288.59375 574.671875 320.148438 572.722656 351.96875 C 571.566406 370.867188 568.820312 389.59375 565.609375 408.265625 C 561.445312 432.460938 556.375 456.445312 548.855469 479.847656 C 547.699219 483.417969 548.613281 484.308594 551.652344 485.332031 C 583.761719 496.089844 616.160156 505.609375 650.113281 508.265625 C 663.816406 509.34375 677.507812 508.824219 691.09375 506.113281 C 695.273438 505.277344 697.011719 503.246094 697.316406 499.15625 C 698.339844 485.464844 699.707031 471.796875 700.636719 458.105469 C 702.464844 431.292969 700.621094 404.679688 695.59375 378.289062 C 691.308594 355.847656 684.566406 334.265625 673.132812 314.304688 C 661.070312 293.257812 644.816406 275.964844 626.203125 260.613281 C 597.835938 237.210938 565.410156 223.042969 529.246094 216.785156 Z M 593.285156 504.867188 C 584.410156 502.265625 576.199219 499.914062 568.023438 497.429688 C 566.207031 496.871094 565.160156 497.550781 563.964844 498.71875 C 550.832031 511.640625 537.179688 524.015625 522.808594 535.558594 C 499.257812 554.457031 474.675781 571.800781 446.851562 583.980469 C 420.25 595.625 392.800781 599.636719 364.167969 592.785156 C 341.480469 587.339844 321.140625 576.808594 301.796875 564.175781 C 277.09375 548.042969 252.65625 531.441406 225.722656 519.117188 C 193.03125 504.164062 159.277344 494.585938 122.84375 500.9375 C 101.667969 504.628906 83.003906 513.207031 68.992188 530.207031 C 65.980469 533.859375 63.765625 537.960938 62.410156 542.449219 C 60.527344 548.664062 61.734375 554.523438 65.34375 560.898438 C 65.410156 553.195312 68.117188 547.417969 72.109375 542.160156 C 78.304688 533.992188 86.304688 527.828125 95.15625 523.046875 C 110.320312 514.855469 126.984375 512.621094 143.941406 513.019531 C 166.878906 513.550781 188.253906 520.628906 208.9375 530.007812 C 231.175781 540.085938 251.289062 553.738281 271.230469 567.671875 C 293.253906 583.050781 315.769531 597.550781 340.726562 607.898438 C 369.316406 619.742188 398.636719 622.265625 428.648438 614.882812 C 451.058594 609.371094 471.265625 598.71875 490.835938 586.765625 C 516.535156 571.070312 539.578125 551.878906 562.519531 532.53125 C 572.894531 523.765625 582.871094 514.589844 593.285156 504.867188 Z M 179.761719 526.128906 C 178.527344 525.664062 177.800781 525.292969 177.015625 525.09375 C 160.234375 520.777344 143.277344 518.054688 125.921875 520.550781 C 113.4375 522.34375 101.285156 525.238281 90.976562 533.246094 C 83.691406 538.917969 76.277344 544.5625 73.183594 553.710938 C 70.320312 562.171875 72.667969 567.695312 81.117188 569.34375 C 82.496094 569.609375 83.90625 569.753906 85.296875 569.835938 C 97.359375 570.566406 108.753906 567.628906 119.898438 563.433594 C 142.148438 555.066406 160.816406 540.964844 179.761719 526.128906 Z M 500.042969 190.875 C 496.5 190.199219 492.945312 190.730469 489.496094 191.195312 C 484.480469 191.871094 479.425781 192.894531 476.320312 197.742188 C 474.660156 200.332031 474.371094 201.660156 478.21875 202.125 C 494.003906 204.050781 509.808594 205.898438 525.355469 209.429688 C 528.9375 210.238281 530.121094 209.136719 529.402344 205.484375 C 528.554688 201.167969 525.714844 198.234375 521.988281 196.203125 C 515.167969 192.484375 507.765625 190.996094 500.042969 190.875 Z M 500.042969 190.875 " fill-opacity="1" fill-rule="nonzero"/></g></svg>