<svg xmlns="http://www.w3.org/2000/svg" xmlns:xlink="http://www.w3.org/1999/xlink" width="1080" zoomAndPan="magnify" viewBox="0 0 810 809.999993" height="1080" preserveAspectRatio="xMidYMid meet" version="1.0"><defs><clipPath id="dfdf0129b8"><path d="M 66 196.5 L 743.976562 196.5 L 743.976562 613.5 L 66 613.5 Z M 66 196.5 " clip-rule="nonzero"/></clipPath></defs><g clip-path="url(#dfdf0129b8)"><path fill="#111010" d="M 743.558594 456.507812 C 742.359375 435.636719 737.566406 415.546875 729.945312 396.136719 C 724.355469 381.875 716.335938 369.160156 705.203125 358.46875 C 695.246094 348.90625 683.328125 342.570312 670.707031 337.472656 C 661.945312 333.929688 655.335938 328.1875 650.625 320.113281 C 643.253906 307.507812 637.398438 294.074219 629.460938 281.757812 C 620.769531 268.269531 611.058594 255.757812 598.726562 245.371094 C 577.84375 227.777344 553.167969 217.828125 527.351562 210.457031 C 490.433594 199.90625 452.5625 196.527344 414.304688 196.5 C 387.015625 196.378906 359.972656 198.582031 333.328125 204.863281 C 315.652344 209.023438 298.613281 214.769531 282.867188 223.960938 C 263.894531 235.035156 250.449219 251.582031 238.4375 269.480469 C 228.808594 283.835938 220.636719 299.074219 211.890625 313.953125 C 206.046875 323.902344 198.539062 332.042969 187.972656 337.210938 C 179.75 341.21875 171.664062 345.546875 163.632812 349.953125 C 141.425781 362.160156 120.402344 375.980469 103.113281 394.855469 C 75.269531 425.261719 65.53125 461.9375 66.316406 502.070312 C 66.535156 513.355469 71.46875 523.175781 80.105469 530.753906 C 85.769531 535.726562 92.421875 539.035156 99.570312 541.320312 C 101.308594 541.871094 102.410156 542.6875 103.222656 544.503906 C 110.9375 561.945312 124.285156 572.789062 142.609375 577.640625 C 150.957031 579.855469 159.402344 581.691406 168.027344 582.1875 C 184.859375 583.164062 200.855469 580.492188 214.824219 570.199219 C 216.175781 569.207031 217.289062 569.25 218.832031 569.496094 C 233.257812 571.785156 247.679688 574.03125 262.144531 576.097656 C 280.027344 578.632812 297.976562 580.421875 315.96875 581.9375 C 332.117188 583.300781 348.246094 584.789062 364.460938 584.253906 C 367.050781 584.167969 368.5 584.886719 369.917969 587.089844 C 377.109375 598.320312 387.304688 605.675781 400.210938 608.871094 C 419.734375 613.707031 439.585938 614.453125 459.519531 612.480469 C 471.078125 611.339844 481.738281 607.644531 490.816406 600.011719 C 504.992188 588.082031 512.679688 572.527344 516.027344 554.660156 C 516.746094 550.84375 517.972656 549.203125 522.078125 548.597656 C 541.378906 545.730469 560.554688 542.148438 579.550781 537.671875 C 581.976562 537.105469 583.175781 537.410156 584.757812 539.460938 C 592.96875 550.113281 603.46875 557.34375 616.746094 560.375 C 634.230469 564.371094 651.808594 563.601562 669.457031 561.972656 C 686.152344 560.445312 698.191406 551.613281 706.832031 537.851562 C 714.601562 525.492188 718.761719 511.824219 719.683594 497.25 C 719.875 494.257812 720.746094 492.824219 723.84375 492.191406 C 732.386719 490.429688 737.660156 484.78125 740.828125 476.886719 C 743.449219 470.3125 743.957031 463.453125 743.558594 456.507812 Z M 186.003906 574.773438 C 167.28125 577.390625 149.261719 573.945312 131.988281 566.808594 C 122.675781 562.964844 113.707031 553.183594 110.746094 544.820312 C 142.5 553.875 174.03125 562.097656 207.453125 567.03125 C 200.304688 572.058594 193.183594 573.769531 186.003906 574.773438 Z M 407.390625 603.96875 C 397.691406 602.371094 389.191406 598.375 381.890625 591.789062 C 379.3125 589.460938 377.300781 586.71875 375.167969 583.867188 C 375.691406 583.550781 375.980469 583.261719 376.308594 583.191406 C 389.355469 580.378906 394.8125 571 396.355469 558.941406 C 397.773438 547.90625 397.828125 536.71875 400.445312 525.78125 C 404.894531 507.179688 412.804688 490.746094 428.617188 479.074219 C 433.703125 475.328125 439.640625 473.398438 445.839844 471.996094 C 435.945312 476.859375 428.851562 484.640625 422.433594 493.308594 C 414.964844 503.367188 410.820312 514.730469 408.492188 526.84375 C 404.566406 547.21875 406.605469 566.824219 417.15625 584.984375 C 422.570312 594.308594 430.644531 600.9375 440.492188 605.359375 C 441.058594 605.605469 441.816406 605.605469 442.148438 606.832031 C 430.382812 606.945312 418.863281 605.867188 407.390625 603.96875 Z M 498.007812 581.125 C 494.660156 586.609375 490.363281 591.347656 485.292969 595.289062 C 465.855469 610.429688 441.015625 607.148438 425.613281 587.574219 C 415.488281 574.703125 412.183594 559.839844 412.222656 543.871094 C 412.347656 521.222656 418.753906 500.925781 434.871094 484.40625 C 442.242188 476.859375 450.949219 471.71875 461.832031 471.621094 C 471.199219 471.554688 479.011719 475.742188 485.984375 481.570312 C 499.511719 492.867188 506.398438 507.800781 509.042969 524.886719 C 512.15625 544.929688 508.617188 563.75 498.007812 581.125 Z M 611.539062 552.316406 C 603.644531 549.644531 597.101562 544.53125 591.824219 537.960938 C 590.667969 536.511719 589.855469 535.054688 592.570312 534.738281 C 607.242188 533.054688 612.226562 521.164062 612.683594 507.015625 C 613.152344 492.9375 615.492188 479.28125 621.195312 466.34375 C 627.175781 452.800781 635.386719 441.132812 649.175781 434.394531 C 649.769531 434.105469 650.390625 433.84375 651.007812 433.609375 C 651.230469 433.527344 651.503906 433.570312 652.632812 433.472656 C 643.265625 439.921875 636.886719 448.132812 632.039062 457.402344 C 619.542969 481.292969 617.574219 506.050781 627.683594 531.222656 C 631.859375 541.609375 639.269531 549.5625 649.410156 554.726562 C 650.167969 555.113281 651.230469 555.210938 651.601562 556.546875 C 637.960938 557.25 624.476562 556.683594 611.539062 552.316406 Z M 698.8125 537.078125 C 692.242188 546.210938 683.6875 552.757812 672.167969 554.367188 C 660.085938 556.0625 650.417969 551.007812 642.027344 542.960938 C 633.59375 534.875 629.65625 524.429688 627.878906 513.257812 C 624.226562 490.113281 628.609375 468.523438 642.054688 449.164062 C 647.332031 441.574219 653.96875 435.320312 663.144531 432.273438 C 671.136719 429.628906 678.480469 431.488281 685.230469 435.523438 C 699.515625 444.066406 706.539062 457.652344 710.136719 473.34375 C 711.554688 479.585938 712.078125 485.9375 712.246094 492.769531 C 711.761719 508.460938 708.386719 523.785156 698.8125 537.078125 Z M 732.9375 478.773438 C 730.636719 482.480469 727.371094 484.710938 723.417969 486.226562 C 720.6875 487.273438 719.558594 486.527344 719.449219 483.566406 C 719.035156 473.042969 716.117188 463.082031 711.320312 453.820312 C 703.054688 437.882812 691.167969 425.921875 672.542969 423.320312 C 658.269531 421.320312 645.375 425.507812 634.628906 435.140625 C 618.082031 449.964844 610.410156 469.347656 607.339844 490.828125 C 606.234375 498.570312 606.015625 506.4375 605.09375 514.207031 C 604.113281 522.417969 599.597656 527.089844 591.179688 528.769531 C 568.558594 533.316406 546.007812 538.25 523.234375 542.023438 C 517.804688 542.921875 517.792969 542.90625 517.738281 537.421875 C 517.570312 518.546875 512.722656 501.160156 500.917969 486.15625 C 489.964844 472.257812 475.898438 463.410156 457.894531 462.789062 C 442.214844 462.253906 428.5625 467.847656 417.171875 478.8125 C 401.574219 493.816406 394.644531 512.832031 391.367188 533.632812 C 389.976562 542.464844 390.664062 551.433594 389.066406 560.210938 C 386.957031 571.796875 382.632812 575.65625 370.910156 577.320312 C 360.273438 578.824219 349.652344 577.761719 339.085938 577.117188 C 312.457031 575.476562 285.910156 572.75 259.445312 569.234375 C 213.472656 563.117188 168.082031 554.175781 123.335938 541.984375 C 115.402344 539.820312 107.507812 537.546875 99.765625 534.765625 C 81.578125 528.234375 72.886719 516.441406 72.28125 497.070312 C 72.117188 491.902344 72.640625 486.707031 72.957031 481.542969 C 73.039062 480.179688 72.96875 478.140625 75.394531 479.820312 C 85.023438 486.488281 96.046875 490.054688 106.96875 493.734375 C 142.140625 505.597656 178.332031 513.242188 214.867188 519.472656 C 237.375 523.316406 259.96875 526.539062 282.6875 528.796875 C 306.476562 531.167969 330.339844 532.710938 354.269531 532.242188 C 354.929688 532.230469 355.589844 532.203125 356.25 532.144531 C 357.699219 532.023438 358.953125 531.554688 358.910156 529.832031 C 358.867188 527.984375 357.449219 527.890625 356.058594 527.847656 C 349.15625 527.65625 342.253906 527.449219 335.351562 527.253906 C 305.609375 526.414062 276.074219 523.246094 246.578125 519.414062 C 209.933594 514.664062 173.796875 507.320312 137.992188 498.378906 C 116.859375 493.101562 96.085938 486.640625 76.289062 477.382812 C 74.773438 476.664062 73.507812 476.222656 73.867188 474.003906 C 76.648438 456.878906 80.78125 440.167969 89.074219 424.765625 C 101.375 401.9375 119.78125 384.976562 141.09375 370.828125 C 155.835938 361.042969 171 351.9375 187.011719 344.5 C 201.984375 337.527344 212 326.269531 219.90625 312.203125 C 229.277344 295.546875 238.972656 279.082031 249.980469 263.363281 C 268.703125 236.621094 294.601562 221.175781 325.558594 213.101562 C 354.5 205.554688 383.886719 201.683594 411.371094 202.714844 C 450 202.121094 485.734375 205.773438 520.742188 214.851562 C 542.492188 220.5 563.5 228.328125 582.566406 240.6875 C 605.476562 255.539062 620.851562 276.753906 633.375 300.410156 C 637.480469 308.152344 641.046875 316.171875 645.609375 323.679688 C 651.132812 332.773438 658.738281 339.195312 668.503906 343.257812 C 678.328125 347.335938 687.886719 351.882812 696.195312 358.757812 C 707.382812 368.003906 715.757812 379.339844 721.613281 392.527344 C 731.367188 414.515625 736.65625 437.550781 737.207031 461.621094 C 737.371094 467.640625 736.230469 473.480469 732.9375 478.773438 Z M 732.9375 478.773438 " fill-opacity="1" fill-rule="nonzero"/></g><path fill="#111010" d="M 625.6875 319.546875 C 625.5625 319.175781 625.425781 318.789062 625.273438 318.429688 C 617.738281 300.09375 607.890625 283.160156 594.183594 268.75 C 586.039062 260.195312 576.617188 253.320312 564.753906 250.632812 C 547.164062 246.652344 529.53125 246.816406 511.785156 249.792969 C 484.617188 254.351562 467.851562 270.417969 459.285156 296.097656 C 455.289062 308.085938 451.984375 320.222656 449.570312 332.621094 C 447.300781 344.347656 446.582031 356.304688 443.550781 367.917969 C 442.296875 372.742188 442.628906 377.964844 443.746094 382.949219 C 445.742188 391.933594 452.011719 398.09375 461.046875 399.359375 C 473.859375 401.164062 486.710938 401.386719 499.496094 398.890625 C 512.832031 396.289062 520.464844 389.011719 521.992188 377.535156 C 522.847656 371.101562 520.382812 365.589844 516.691406 359.902344 C 531.859375 356.9375 546.570312 354.101562 561.257812 351.167969 C 579.730469 347.472656 597.996094 342.925781 616.167969 337.980469 C 627.023438 335.0625 629.269531 330.226562 625.6875 319.546875 Z M 504.195312 391.203125 C 495.847656 394.261719 487.085938 394.484375 478.335938 394.632812 C 472.371094 394.484375 466.433594 394.277344 460.539062 393.1875 C 455.414062 392.25 452.257812 389.125 450.648438 384.4375 C 448 376.738281 448.511719 369.023438 451.320312 361.472656 C 453.964844 354.390625 460.082031 352.007812 466.75 351.375 C 478.476562 350.242188 490.089844 351.195312 501.179688 355.519531 C 507.046875 357.808594 511.632812 361.746094 514.195312 367.6875 C 518.578125 377.867188 514.570312 387.414062 504.195312 391.203125 Z M 543.085938 348.960938 C 533.316406 350.835938 523.578125 352.804688 513.824219 354.777344 C 512.390625 355.066406 511.304688 354.554688 510.117188 353.851562 C 492.980469 343.628906 472.480469 341.949219 452.90625 349.417969 C 453.816406 339.605469 455.605469 330.375 457.894531 321.269531 C 461.15625 308.265625 464.972656 295.394531 471.285156 283.464844 C 479.371094 268.144531 492.828125 260.140625 509.183594 256.335938 C 513.699219 255.289062 518.316406 254.738281 522.875 253.84375 C 525.835938 253.265625 527.023438 254.519531 527.847656 257.300781 C 532.878906 274.371094 536.816406 291.703125 540.359375 309.117188 C 542.769531 320.964844 544.105469 332.964844 545.894531 344.910156 C 546.269531 347.433594 545.539062 348.492188 543.085938 348.960938 Z M 579.425781 341.21875 C 571.421875 343.09375 563.390625 344.855469 555.375 346.621094 C 553.429688 347.046875 551.585938 347.625 551.296875 344.320312 C 549.1875 320.457031 544.078125 297.144531 538.265625 273.972656 C 536.777344 268.0625 535.109375 262.179688 533.316406 256.351562 C 532.503906 253.691406 533.332031 253.015625 535.839844 253.183594 C 538.085938 253.332031 540.34375 253.210938 542.601562 253.210938 C 568.738281 252.660156 587.183594 265.582031 601.332031 286.300781 C 608.164062 296.304688 614.128906 306.777344 619.035156 317.851562 C 619.738281 319.421875 620.316406 321.0625 620.8125 322.714844 C 622.503906 328.363281 621.625 330.085938 616.015625 331.878906 C 604.003906 335.734375 591.6875 338.339844 579.425781 341.21875 Z M 579.425781 341.21875 " fill-opacity="1" fill-rule="nonzero"/><path fill="#111010" d="M 423.742188 267.234375 C 419.332031 264.601562 414.484375 262.5625 409.621094 260.855469 C 378.542969 250.011719 346.402344 245.175781 313.585938 244.667969 C 309.605469 244.667969 305.625 244.652344 301.640625 244.667969 C 290.511719 244.722656 281.0625 248.757812 272.890625 256.335938 C 261.539062 266.863281 253.273438 279.675781 245.324219 292.722656 C 239.800781 301.800781 234.71875 311.144531 231.4375 321.324219 C 228.613281 330.101562 231.148438 335.929688 239.375 340.019531 C 241.507812 341.082031 243.699219 342.101562 245.972656 342.789062 C 254.734375 345.40625 263.453125 348.191406 272.328125 350.367188 C 298.902344 356.925781 325.886719 361.128906 353.125 363.800781 C 367.660156 365.21875 382.207031 366.28125 396.835938 366.113281 C 407.304688 366.003906 414.882812 361.5 419.238281 351.867188 C 420.214844 349.691406 421.234375 347.527344 422.019531 345.269531 C 427.902344 328.433594 432.089844 311.15625 434.488281 293.496094 C 435.917969 282.816406 433.730469 273.214844 423.742188 267.234375 Z M 428.878906 287.03125 C 428.371094 301.222656 424.871094 314.863281 421.097656 328.421875 C 418.960938 336.09375 416.714844 343.726562 413.160156 350.917969 C 409.980469 357.378906 404.730469 360.273438 397.785156 360.273438 C 383.570312 360.289062 369.394531 359.210938 355.246094 357.875 C 330.777344 355.5625 306.449219 352.296875 282.464844 346.828125 C 269.53125 343.878906 256.675781 340.53125 244.222656 335.859375 C 236.121094 332.828125 234.675781 329.671875 237.5 321.449219 C 241.769531 309.023438 248.714844 297.984375 255.683594 286.992188 C 261.238281 278.230469 267.503906 270.003906 274.832031 262.578125 C 282.398438 254.917969 291.226562 250.523438 302.125 250.714844 C 306.242188 250.785156 310.363281 250.730469 314.480469 250.730469 C 346.25 250.453125 377.054688 256.144531 407.128906 266.117188 C 411.796875 267.660156 416.300781 269.6875 420.519531 272.234375 C 426.015625 275.570312 429.113281 280.335938 428.878906 287.03125 Z M 428.878906 287.03125 " fill-opacity="1" fill-rule="nonzero"/><path fill="#111010" d="M 322.046875 426.929688 C 312.882812 437.550781 311.175781 449.730469 316.066406 462.679688 C 320.503906 474.390625 330.957031 481.636719 342.160156 481.445312 C 346.042969 481.402344 349.761719 480.714844 353.316406 478.992188 C 370.277344 470.726562 376.253906 447.484375 365.730469 430.550781 C 355.726562 414.445312 334.375 412.601562 322.046875 426.929688 Z M 350.175781 439.4375 C 337.902344 443.144531 335.089844 462.472656 343.46875 471.332031 C 344.390625 472.3125 346.566406 473 345.835938 474.515625 C 345.105469 476.015625 342.945312 475.230469 341.605469 475.464844 C 331.289062 475.371094 322.761719 467.378906 320.199219 455.585938 C 317.359375 442.511719 324.070312 429.105469 335.339844 424.613281 C 342.804688 421.636719 349.679688 425.742188 352.988281 431.242188 C 355.257812 435.015625 354.363281 438.183594 350.175781 439.4375 Z M 350.175781 439.4375 " fill-opacity="1" fill-rule="nonzero"/><path fill="#111010" d="M 151.589844 396.660156 C 145.886719 392.140625 139.300781 389.675781 131.890625 391.246094 C 110.785156 395.695312 101.253906 421.925781 114.1875 439.660156 C 123.144531 451.921875 138.863281 454.757812 150.710938 446.066406 C 159.265625 439.78125 162.96875 431.035156 163.039062 420.578125 C 163.121094 410.699219 159.210938 402.695312 151.589844 396.660156 Z M 142.222656 412.132812 C 135.320312 414.03125 131.121094 423.730469 132.539062 431.957031 C 133.378906 436.792969 135.832031 440.539062 139.894531 443.875 C 132.773438 446.628906 124.6875 443.722656 119.546875 436.945312 C 111.40625 426.199219 113.429688 409.402344 123.886719 400.945312 C 130.335938 395.734375 139.234375 396.246094 144.453125 402.074219 C 147.96875 405.988281 147.746094 410.601562 142.222656 412.132812 Z M 142.222656 412.132812 " fill-opacity="1" fill-rule="nonzero"/><path fill="#111010" d="M 289.339844 466.195312 C 284.699219 470.011719 279.519531 473 273.992188 475.328125 C 255.230469 483.222656 236 483.527344 216.699219 477.988281 C 199.765625 473.136719 184.101562 465.878906 173.054688 451.246094 C 171.675781 449.425781 169.996094 449.136719 168.234375 450.472656 C 166.46875 451.808594 166.746094 453.574219 168.039062 455.007812 C 170.796875 458.050781 173.441406 461.273438 176.609375 463.867188 C 196.035156 479.792969 218.558594 487.191406 240.613281 487.839844 C 261.816406 487.410156 278.554688 482.449219 293.15625 471.03125 C 295.058594 469.542969 296.449219 467.859375 294.796875 465.726562 C 293.058594 463.480469 291.171875 464.679688 289.339844 466.195312 Z M 289.339844 466.195312 " fill-opacity="1" fill-rule="nonzero"/><path fill="#111010" d="M 622.476562 358.386719 C 619.597656 357.132812 616.554688 357.105469 613.496094 357.683594 C 606.59375 358.976562 599.84375 360.8125 593.078125 362.671875 C 590.367188 363.414062 587.832031 364.515625 585.613281 366.226562 C 580.40625 370.261719 580.761719 377.757812 586.289062 381.339844 C 588.617188 382.855469 591.152344 383.363281 593.878906 383.253906 C 603.933594 382.289062 613.714844 380.113281 623.027344 376.117188 C 626.832031 374.476562 629.367188 371.777344 629.230469 367.3125 C 629.117188 362.765625 626.390625 360.082031 622.476562 358.386719 Z M 620.109375 371.28125 C 612.144531 374.699219 603.757812 376.394531 595.1875 377.453125 C 594.265625 377.453125 593.328125 377.523438 592.417969 377.441406 C 590.367188 377.246094 588.328125 376.792969 587.898438 374.367188 C 587.472656 371.929688 588.824219 370.082031 590.957031 369.367188 C 599.71875 366.402344 608.621094 363.800781 617.820312 362.617188 C 620.191406 362.3125 622.683594 363.152344 623.359375 366.058594 C 623.980469 368.761719 622.300781 370.332031 620.109375 371.28125 Z M 620.109375 371.28125 " fill-opacity="1" fill-rule="nonzero"/><path fill="#111010" d="M 467.507812 508.917969 C 458.71875 508.105469 452.191406 512.570312 447.464844 519.582031 C 439.378906 531.566406 438.277344 544.476562 444.652344 557.34375 C 453.414062 575.035156 472.578125 576.070312 483.777344 559.90625 C 488.199219 553.527344 489.453125 546.308594 489.867188 538.828125 C 489.976562 533.828125 489.136719 528.992188 487.058594 524.484375 C 483.1875 516.039062 477.222656 509.800781 467.507812 508.917969 Z M 475.222656 561.878906 C 469.300781 567.445312 461.640625 567.621094 455.46875 562.332031 C 449.367188 557.097656 446.445312 549.988281 446.527344 540.632812 C 446.554688 533.222656 448.636719 526.46875 453.347656 520.695312 C 460.675781 511.699219 472.796875 512.210938 479.425781 521.703125 C 487.085938 532.695312 484.992188 552.6875 475.222656 561.878906 Z M 475.222656 561.878906 " fill-opacity="1" fill-rule="nonzero"/><path fill="#111010" d="M 660.210938 471.195312 C 649.78125 481.75 647.550781 500.679688 655.238281 513.355469 C 664.304688 528.289062 682.789062 527.957031 691.277344 512.707031 C 694.582031 506.769531 696.003906 500.347656 696.195312 493.335938 C 696.042969 486.238281 694.019531 479.476562 689.625 473.507812 C 682.585938 463.949219 668.464844 462.847656 660.210938 471.195312 Z M 685.476562 511.371094 C 679.609375 520.917969 668.089844 521.550781 661.246094 512.679688 C 653.832031 503.0625 655.128906 484.285156 663.78125 475.660156 C 671.09375 468.371094 680.847656 469.527344 686.359375 478.34375 C 689.417969 483.25 690.382812 488.691406 690.367188 492.082031 C 690.328125 500.484375 688.6875 506.148438 685.476562 511.371094 Z M 685.476562 511.371094 " fill-opacity="1" fill-rule="nonzero"/></svg>