<svg xmlns="http://www.w3.org/2000/svg" xmlns:xlink="http://www.w3.org/1999/xlink" width="1080" zoomAndPan="magnify" viewBox="0 0 810 809.999993" height="1080" preserveAspectRatio="xMidYMid meet" version="1.0"><defs><clipPath id="959ebcc205"><path d="M 110.285156 81 L 699.785156 81 L 699.785156 710 L 110.285156 710 Z M 110.285156 81 " clip-rule="nonzero"/></clipPath></defs><g clip-path="url(#959ebcc205)"><path fill="#000000" d="M 141.71875 205.746094 C 141.910156 205.859375 142.121094 205.988281 142.3125 206.113281 C 134.21875 213.722656 127.3125 223.40625 127.023438 234.902344 C 126.878906 240.628906 128.488281 246.742188 132.480469 251.019531 C 135.296875 254.027344 138.835938 255.410156 142.90625 255.507812 C 145.210938 255.554688 147.605469 255.203125 149.84375 254.703125 C 152.835938 260.300781 156.378906 264.804688 162.671875 266.75 C 164.472656 267.3125 166.371094 267.601562 168.238281 267.792969 C 167.371094 283.265625 165.488281 299.011719 162.15625 314.164062 C 159.984375 324.007812 156.828125 333.671875 155.25 343.628906 C 155.042969 344.945312 154.847656 346.25 154.6875 347.566406 C 154.511719 348.886719 154.367188 350.207031 154.238281 351.523438 C 154.109375 352.84375 153.980469 354.164062 153.882812 355.496094 C 153.785156 356.816406 153.707031 358.152344 153.640625 359.46875 C 153.578125 360.789062 153.53125 362.125 153.511719 363.457031 C 153.480469 364.792969 153.480469 366.113281 153.496094 367.445312 C 153.496094 368.78125 153.546875 370.101562 153.59375 371.4375 C 153.640625 372.753906 153.707031 374.089844 153.785156 375.40625 C 153.867188 376.726562 153.980469 378.0625 154.09375 379.378906 C 154.222656 380.699219 154.351562 382.019531 154.511719 383.335938 C 154.671875 384.65625 154.847656 385.976562 155.042969 387.277344 C 155.234375 388.597656 155.445312 389.898438 155.667969 391.203125 C 155.894531 392.503906 156.152344 393.808594 156.410156 395.109375 C 156.683594 396.414062 156.957031 397.699219 157.261719 399.003906 C 157.570312 400.289062 157.890625 401.574219 158.230469 402.863281 C 158.566406 404.148438 158.921875 405.417969 159.289062 406.707031 C 159.660156 407.976562 160.046875 409.246094 160.464844 410.519531 C 160.867188 411.789062 161.300781 413.042969 161.738281 414.296875 C 162.171875 415.550781 162.636719 416.789062 163.121094 418.027344 C 163.605469 419.265625 164.085938 420.507812 164.601562 421.726562 C 165.117188 422.949219 165.632812 424.171875 166.179688 425.378906 C 166.726562 426.585938 167.289062 427.792969 167.851562 428.980469 C 168.433594 430.171875 169.027344 431.363281 169.640625 432.535156 C 170.25 433.710938 170.878906 434.882812 171.523438 436.042969 C 172.164062 437.199219 172.824219 438.359375 173.5 439.5 C 174.175781 440.640625 174.871094 441.785156 175.578125 442.910156 C 176.285156 444.035156 177.007812 445.144531 177.734375 446.253906 C 178.472656 447.363281 179.214844 448.457031 179.988281 449.535156 C 180.757812 450.613281 181.53125 451.691406 182.335938 452.753906 C 183.125 453.816406 183.945312 454.875 184.765625 455.90625 C 185.585938 456.949219 186.425781 457.980469 187.277344 458.992188 C 188.128906 460.007812 189 461.019531 189.882812 462.015625 C 203.933594 477.667969 220.816406 489.359375 238.886719 499.878906 C 248.160156 505.265625 258.070312 510.574219 268.164062 514.222656 C 273.457031 530.402344 284.785156 545.90625 300.1875 553.742188 C 300.71875 554.015625 301.25 554.269531 301.78125 554.527344 C 304.066406 565.625 307.703125 575.933594 317.054688 582.949219 C 314.238281 593.546875 311.246094 604.097656 308.042969 614.601562 C 306.5625 619.585938 305.320312 625.148438 303.148438 629.847656 C 296.617188 631.746094 290.917969 630.457031 284.304688 629.925781 C 264.398438 628.320312 244.183594 629.105469 233.464844 648.710938 C 231.808594 651.734375 230.617188 654.792969 229.636719 658.089844 C 234.816406 652.363281 241.945312 647.359375 249.898438 646.960938 C 253.628906 646.78125 257.136719 647.457031 260.664062 648.648438 C 255.59375 655.386719 251.890625 662.496094 249.75 670.699219 C 255.980469 663.574219 264.734375 657.863281 274.40625 657.1875 C 277.707031 656.964844 281.054688 657.238281 284.351562 657.253906 C 291.207031 657.285156 297.742188 655.546875 303.875 652.574219 C 307.976562 650.578125 311.824219 647.761719 316.089844 646.171875 C 323.925781 650.175781 331.714844 652.476562 340.503906 653.023438 C 333.117188 654.871094 328.289062 656.238281 323.039062 661.996094 C 312.339844 661.675781 301.492188 663.636719 293.429688 671.308594 C 287.070312 677.371094 284.609375 685.914062 283.675781 694.40625 C 288.503906 687.425781 295.007812 681.617188 303.617188 680.105469 C 305.707031 679.738281 319.566406 680.140625 320.722656 681.054688 C 321.867188 681.957031 322.476562 683.371094 323.734375 684.335938 C 314.914062 691.300781 312.128906 698.796875 310.617188 709.734375 C 313.722656 704.859375 317.199219 700.644531 321.882812 697.1875 C 330.1875 691.09375 340.019531 688.664062 348.886719 683.757812 C 355.695312 679.996094 363.03125 672.773438 370.546875 671.050781 C 375.246094 669.972656 386.835938 673.707031 392.355469 674.382812 C 395.300781 674.734375 398.375 673.914062 401.269531 674.429688 C 402.878906 674.71875 404.3125 675.394531 405.679688 676.277344 C 408.320312 678.015625 410.589844 680.476562 412.792969 682.730469 C 410.832031 674.300781 408.253906 664.054688 400.351562 659.167969 C 394.625 655.628906 392.402344 657.75 386.949219 657.042969 C 381.683594 656.367188 375.3125 652.460938 373.832031 647.152344 C 371.03125 637.085938 378.144531 598.949219 379.898438 587.03125 C 388.925781 577.078125 393.289062 564.984375 395.492188 551.90625 C 418.523438 537.6875 432.636719 520.449219 444.820312 496.53125 C 463.601562 490.308594 484.523438 484.164062 497.910156 468.773438 C 500.40625 465.894531 501.984375 462.546875 504.171875 459.492188 C 506.84375 455.761719 509.113281 456 511.976562 450.324219 C 513.199219 447.878906 514.085938 444.664062 513.105469 441.976562 C 513.039062 441.816406 512.992188 441.671875 512.925781 441.511719 C 516.257812 437.507812 519.21875 433.292969 521.585938 428.644531 C 525.929688 430.929688 530.308594 433.226562 534.28125 436.121094 C 544.742188 443.746094 553.015625 455.472656 556.828125 467.824219 C 565.585938 496.210938 557.136719 527.554688 544.679688 553.46875 C 550.167969 547.308594 555.414062 541.179688 559.789062 534.167969 C 573.082031 512.921875 582.226562 481.332031 580.808594 456.226562 C 579.457031 432.359375 567.53125 412.160156 549.878906 396.621094 C 549.585938 396.363281 549.296875 396.125 549.007812 395.882812 C 557.988281 399.003906 565.40625 405.179688 571.457031 412.351562 C 575.625 417.753906 578.492188 423.851562 580.792969 430.234375 C 590.144531 456.164062 585.476562 481.011719 583.269531 507.566406 C 585.523438 504.378906 587.40625 500.808594 589.257812 497.382812 C 602.117188 473.644531 609.40625 442.972656 604.789062 416.082031 C 601.441406 396.605469 592.136719 378.382812 575.738281 366.789062 C 569.382812 362.300781 562.476562 359.742188 555.1875 357.21875 C 573.96875 356.71875 592.089844 362.816406 605.851562 375.875 C 622.714844 391.894531 627.785156 418.703125 628.25 441.042969 C 628.460938 451.464844 627.285156 459.1875 626.257812 469.269531 L 626.386719 468.917969 C 628.800781 462.691406 631.890625 457.0625 633.980469 450.613281 C 643.378906 421.695312 644.441406 387.277344 632.050781 359.019531 C 623.90625 340.425781 611.371094 327.046875 592.316406 319.664062 C 585.460938 317.007812 578.636719 315.464844 571.363281 314.453125 C 593.441406 311.125 616.390625 315.867188 634.558594 329.234375 C 656.253906 345.203125 668.984375 372.335938 672.847656 398.519531 C 674.277344 408.25 675.324219 419.558594 673.894531 429.304688 C 680.121094 419.492188 683.128906 407.769531 684.996094 396.398438 C 685.464844 393.664062 685.867188 390.929688 686.203125 388.179688 C 686.542969 385.429688 686.800781 382.679688 687.007812 379.910156 C 687.203125 377.144531 687.347656 374.378906 687.394531 371.613281 C 687.460938 368.847656 687.460938 366.078125 687.378906 363.296875 C 687.296875 360.53125 687.152344 357.765625 686.945312 355 C 686.734375 352.230469 686.460938 349.480469 686.109375 346.730469 C 685.753906 343.980469 685.351562 341.246094 684.867188 338.511719 C 684.386719 335.777344 683.839844 333.078125 683.226562 330.375 C 676.742188 301.328125 661.96875 272.167969 636.1875 255.796875 C 620.253906 245.679688 602.90625 240.597656 584.300781 238.296875 C 607.925781 228.003906 631.4375 224.660156 656.046875 234.339844 C 668.113281 239.101562 678.996094 246.164062 689.214844 254.074219 C 692.769531 256.824219 696.117188 259.929688 699.753906 262.566406 C 687.570312 236.609375 663.09375 216.023438 636.296875 206.339844 C 635.398438 206.019531 634.511719 205.714844 633.609375 205.40625 C 632.710938 205.101562 631.808594 204.828125 630.890625 204.539062 C 629.988281 204.265625 629.074219 203.992188 628.15625 203.75 C 627.238281 203.492188 626.320312 203.253906 625.402344 203.027344 C 624.484375 202.800781 623.550781 202.578125 622.636719 202.367188 C 621.703125 202.160156 620.785156 201.964844 619.851562 201.773438 C 618.917969 201.578125 617.984375 201.417969 617.050781 201.257812 C 616.117188 201.097656 615.183594 200.953125 614.234375 200.808594 C 613.300781 200.664062 612.351562 200.535156 611.417969 200.421875 C 610.46875 200.308594 609.535156 200.195312 608.585938 200.117188 C 607.636719 200.035156 606.6875 199.9375 605.753906 199.875 C 604.820312 199.808594 603.855469 199.746094 602.90625 199.699219 C 601.957031 199.648438 601.003906 199.617188 600.054688 199.601562 C 599.105469 199.585938 598.15625 199.570312 597.207031 199.570312 C 596.257812 199.570312 595.308594 199.570312 594.359375 199.601562 C 593.410156 199.632812 592.460938 199.664062 591.511719 199.714844 C 590.5625 199.761719 589.613281 199.828125 588.664062 199.890625 C 587.710938 199.957031 586.761719 200.050781 585.828125 200.148438 C 584.878906 200.246094 583.945312 200.355469 582.996094 200.46875 C 582.046875 200.582031 581.113281 200.710938 580.179688 200.855469 C 579.246094 201 578.296875 201.144531 577.363281 201.320312 C 576.429688 201.484375 575.496094 201.660156 574.5625 201.851562 C 573.632812 202.046875 572.699219 202.238281 571.78125 202.449219 C 570.847656 202.65625 569.929688 202.882812 569.011719 203.109375 C 568.09375 203.332031 567.175781 203.589844 566.261719 203.847656 C 565.34375 204.105469 564.441406 204.378906 563.523438 204.652344 C 562.625 204.925781 561.707031 205.214844 560.804688 205.519531 C 559.902344 205.824219 559.003906 206.132812 558.117188 206.453125 C 557.214844 206.773438 556.332031 207.113281 555.445312 207.449219 C 554.558594 207.789062 553.675781 208.15625 552.804688 208.511719 C 551.9375 208.882812 551.050781 209.25 550.199219 209.636719 C 549.328125 210.023438 548.476562 210.425781 547.609375 210.828125 C 506.121094 230.175781 477.8125 267.085938 462.636719 309.5 C 460.042969 316.734375 457.679688 324.132812 456.019531 331.644531 C 453.429688 333.269531 450.804688 335.085938 447.957031 336.246094 C 436.851562 340.734375 422.933594 338.820312 411.554688 336.195312 C 400.738281 333.703125 390.777344 329.167969 380.71875 324.617188 C 369.648438 319.632812 358.703125 314.402344 347.488281 309.738281 C 340.761719 306.941406 329.847656 304.304688 324.199219 300.460938 C 313.367188 293.09375 300.269531 278.34375 293.382812 267.296875 C 289.453125 261.007812 285.71875 254.621094 282.566406 247.914062 C 278.929688 240.148438 275.917969 232.105469 272.332031 224.320312 C 260.613281 198.925781 244.375 173.128906 219.382812 159.007812 C 227.976562 158.636719 235.621094 154.695312 241.398438 148.40625 C 246.257812 143.132812 250.300781 135.71875 249.832031 128.351562 C 249.65625 125.425781 248.640625 122.949219 246.40625 121.003906 C 243.460938 118.429688 239.660156 117.578125 235.832031 117.929688 C 232.308594 118.25 228.816406 118.941406 225.273438 119.121094 C 224.195312 117.496094 223.9375 115.261719 224.339844 113.378906 C 225.5 107.878906 234.480469 104.695312 231.90625 100.703125 C 230.457031 98.453125 226.527344 96.8125 224.003906 96.425781 C 218.191406 95.511719 211.222656 97.824219 206.636719 101.347656 C 203.597656 103.679688 201.039062 106.65625 198.429688 109.453125 C 196.691406 103.503906 196.160156 97.519531 197.449219 91.410156 C 197.867188 89.460938 198.71875 86.984375 198.65625 85.023438 C 198.605469 83.785156 198.011719 82.753906 196.886719 82.175781 C 195.582031 81.515625 194.164062 81.597656 192.734375 81.695312 C 192.25 81.839844 191.785156 81.984375 191.300781 82.144531 C 190.835938 82.304688 190.367188 82.480469 189.902344 82.660156 C 189.433594 82.835938 188.984375 83.046875 188.53125 83.253906 C 188.082031 83.464844 187.632812 83.6875 187.179688 83.914062 C 186.730469 84.140625 186.296875 84.378906 185.878906 84.636719 C 185.441406 84.894531 185.023438 85.152344 184.605469 85.425781 C 184.1875 85.699219 183.785156 85.988281 183.367188 86.277344 C 182.964844 86.566406 182.5625 86.875 182.175781 87.179688 C 181.789062 87.484375 181.402344 87.804688 181.035156 88.144531 C 180.664062 88.480469 180.292969 88.820312 179.9375 89.171875 C 179.585938 89.527344 179.230469 89.878906 178.894531 90.25 C 178.554688 90.621094 178.234375 90.992188 177.910156 91.375 C 177.589844 91.761719 177.285156 92.148438 176.976562 92.550781 C 176.671875 92.953125 176.382812 93.355469 176.109375 93.773438 C 175.835938 94.191406 175.5625 94.609375 175.304688 95.027344 C 175.046875 95.445312 174.789062 95.878906 174.5625 96.332031 C 171.632812 101.652344 169.734375 107.941406 167.917969 113.714844 C 167.144531 111.753906 166.550781 109.886719 166.277344 107.78125 C 165.855469 104.355469 166.984375 96.28125 163.363281 94.625 C 161.640625 93.835938 159.546875 94.335938 157.90625 95.074219 C 152.417969 97.550781 149.441406 103.875 147.542969 109.230469 C 145.355469 115.40625 144.773438 121.515625 144.035156 127.964844 C 142.941406 125.007812 141.605469 118.140625 138.53125 116.789062 C 137.628906 116.386719 136.648438 116.449219 135.746094 116.851562 C 132.511719 118.285156 130.273438 123.816406 129.179688 126.984375 C 124.964844 139.371094 127.570312 152.074219 133.285156 163.476562 C 134.570312 166.019531 135.972656 168.496094 137.46875 170.910156 C 125.863281 175.832031 116.339844 187.089844 111.621094 198.605469 C 111.109375 199.84375 110.6875 201.128906 110.285156 202.414062 C 120.554688 199.859375 132.449219 200.277344 141.683594 205.761719 Z M 401.625 666.839844 C 402.429688 667.609375 403.589844 668.734375 403.605469 669.925781 C 401.449219 669.429688 398.96875 669.539062 396.941406 668.898438 C 396.265625 667.949219 396.203125 664.667969 395.832031 663.234375 C 397.9375 663.796875 400.046875 665.34375 401.625 666.839844 Z M 141.074219 199.570312 C 135.199219 196.996094 130.546875 195.789062 124.109375 195.902344 C 130.820312 194.277344 137.273438 193.28125 144.195312 193.023438 C 148.316406 192.878906 152.402344 193.167969 156.507812 193.539062 L 156.683594 198.410156 C 153.933594 200.582031 150.601562 201.980469 147.542969 203.6875 C 145.449219 202.160156 143.359375 200.792969 141.074219 199.570312 Z M 148.136719 249.507812 C 144.808594 250.265625 142.183594 250.601562 138.902344 249.347656 C 136.421875 247.691406 134.605469 245.582031 133.429688 242.816406 C 131.113281 237.269531 132.027344 230.804688 134.21875 225.367188 C 137.484375 217.210938 142.554688 212.144531 149.746094 207.402344 C 152.707031 205.441406 155.605469 203.652344 158.90625 202.269531 C 159.4375 202.496094 161.449219 207.128906 163.203125 208.703125 C 160.546875 211.550781 157.808594 214.414062 155.542969 217.597656 C 148.316406 227.714844 146.0625 237.347656 148.136719 249.523438 Z M 151.855469 175.394531 C 160.738281 166.164062 167.128906 158.476562 180.679688 156.867188 C 181.128906 156.820312 181.582031 156.789062 182.03125 156.753906 C 182.480469 156.722656 182.933594 156.707031 183.398438 156.707031 C 183.847656 156.707031 184.300781 156.707031 184.765625 156.707031 C 185.21875 156.707031 185.667969 156.738281 186.132812 156.769531 C 186.585938 156.804688 187.035156 156.851562 187.488281 156.898438 C 187.9375 156.949219 188.386719 157.011719 188.839844 157.09375 C 189.289062 157.171875 189.738281 157.253906 190.175781 157.335938 C 190.625 157.429688 191.058594 157.527344 191.511719 157.640625 C 191.945312 157.753906 192.394531 157.882812 192.828125 158.007812 C 193.265625 158.136719 193.699219 158.28125 194.132812 158.429688 C 194.566406 158.574219 194.984375 158.734375 195.40625 158.910156 C 195.824219 159.070312 196.242188 159.265625 196.660156 159.441406 C 197.078125 159.632812 197.480469 159.828125 197.882812 160.035156 C 198.285156 160.246094 198.6875 160.453125 199.089844 160.679688 C 199.492188 160.90625 199.878906 161.128906 200.265625 161.371094 C 200.652344 161.613281 201.035156 161.855469 201.40625 162.109375 C 208.585938 167.082031 214.023438 174.976562 215.519531 183.628906 C 215.601562 184.128906 215.664062 184.644531 215.730469 185.160156 C 215.792969 185.671875 215.828125 186.171875 215.859375 186.6875 C 215.890625 187.199219 215.90625 187.714844 215.921875 188.214844 C 215.921875 188.730469 215.921875 189.242188 215.90625 189.742188 C 215.890625 190.257812 215.859375 190.773438 215.8125 191.269531 C 215.761719 191.785156 215.714844 192.285156 215.648438 192.796875 C 215.585938 193.3125 215.503906 193.8125 215.410156 194.308594 C 215.3125 194.808594 215.214844 195.308594 215.085938 195.804688 C 214.972656 196.304688 214.84375 196.804688 214.699219 197.285156 C 214.554688 197.785156 214.410156 198.265625 214.234375 198.75 C 214.074219 199.230469 213.894531 199.714844 213.703125 200.195312 C 213.507812 200.679688 213.316406 201.144531 213.089844 201.613281 C 212.882812 202.078125 212.65625 202.542969 212.414062 202.996094 C 212.171875 203.445312 211.933594 203.894531 211.675781 204.347656 C 211.417969 204.78125 211.144531 205.230469 210.871094 205.648438 C 210.597656 206.082031 210.308594 206.5 210 206.917969 C 204.785156 214.140625 196.707031 217.550781 188.144531 218.886719 C 186.535156 219.0625 185.023438 219.160156 183.398438 219.078125 C 178.554688 212.710938 172.859375 207.464844 165.050781 205.101562 C 163.828125 202.449219 162.621094 199.746094 161.867188 196.914062 C 161.253906 194.617188 161.09375 192.234375 160.578125 189.917969 C 159.339844 184.339844 155.816406 179.382812 151.886719 175.363281 Z M 166.484375 261.875 C 163.476562 261.90625 160.738281 260.476562 158.679688 258.355469 C 154.382812 253.964844 152.515625 247.640625 152.515625 241.609375 C 152.515625 228.839844 160 219.253906 168.625 210.617188 C 169.058594 210.714844 168.929688 210.667969 169.445312 210.890625 C 175.578125 213.707031 181.804688 224.015625 184.140625 230.046875 C 186.457031 236.0625 187.535156 242.816406 184.800781 248.878906 C 182 255.105469 176.527344 258.804688 170.332031 261.152344 C 169.074219 261.472656 167.789062 261.84375 166.484375 261.859375 Z M 313.546875 570.851562 C 311.902344 568.246094 307.09375 558.003906 307.6875 555.347656 C 308.558594 555.074219 309.3125 554.816406 310.117188 554.367188 C 310.277344 552.4375 305.371094 550.589844 303.746094 549.769531 C 291.113281 543.382812 280.070312 529.710938 274.582031 516.734375 C 282.324219 519.691406 290.050781 522.3125 298.0625 524.402344 C 305.386719 538.140625 315.75 549.976562 328.980469 558.324219 C 332.183594 560.351562 335.753906 561.734375 338.941406 563.742188 L 339.425781 564.050781 C 337.652344 567.957031 335.65625 571.722656 332.890625 575.003906 C 332.019531 575.789062 331.070312 576.578125 330.074219 577.191406 C 327.886719 578.558594 325.390625 579.167969 322.847656 578.574219 C 318.792969 577.609375 315.6875 574.246094 313.53125 570.835938 Z M 343.382812 568.152344 C 346.761719 575.886719 350.253906 582.59375 356.628906 588.289062 C 358.109375 601.992188 355.515625 639.03125 351.414062 652.28125 C 349.902344 648.34375 349.160156 644.804688 346.730469 641.21875 C 342.273438 636.777344 338.054688 637.519531 332.777344 635.152344 C 329.640625 633.738281 324.039062 630.554688 322.929688 627.097656 C 320.515625 619.632812 339.054688 576.933594 343.382812 568.152344 Z M 255.496094 640.253906 C 254.097656 641.023438 251.425781 641.21875 249.816406 641.699219 C 247.320312 642.457031 244.957031 643.5 242.574219 644.578125 L 239.289062 646.445312 C 243.652344 642.503906 247.464844 639.511719 253.113281 637.710938 C 254.066406 637.648438 254.5625 637.597656 255.464844 637.96875 C 256.011719 638.691406 256.058594 638.707031 256.042969 639.625 C 255.851562 639.835938 255.722656 640.125 255.480469 640.253906 Z M 275.773438 650.257812 C 273.796875 652.1875 268.113281 653.101562 265.28125 654.195312 L 261.195312 656.046875 C 263.800781 651.863281 266.648438 649.164062 271.1875 647.167969 C 272.007812 647.070312 273.039062 646.960938 273.859375 647.089844 C 274.695312 647.214844 275.371094 647.667969 275.789062 648.40625 C 276.226562 649.179688 276.046875 649.5 275.789062 650.257812 Z M 328.609375 646.347656 C 325.632812 644.722656 322.734375 642.585938 319.566406 641.394531 C 318.277344 640.910156 316.730469 640.445312 315.347656 640.6875 C 311.421875 641.394531 304.277344 646.636719 300.109375 648.421875 C 296.050781 650.175781 285.011719 653.039062 280.890625 651.414062 C 281.199219 650.707031 281.421875 649.917969 281.441406 649.128906 C 281.472656 647.214844 280.730469 646.027344 279.492188 644.644531 L 279.21875 644.355469 C 284.769531 644.257812 291.257812 644.722656 296.679688 643.5 C 297.082031 643.210938 297.695312 642.859375 297.984375 642.441406 C 298.515625 641.714844 298.515625 641.492188 298.371094 640.671875 C 298 640.238281 297.757812 640.074219 297.195312 639.882812 C 295.199219 639.222656 275.386719 640.527344 273.230469 641.039062 C 270.238281 641.75 267.46875 643.164062 264.75 644.5625 L 259.921875 642.277344 C 260.757812 641.25 261.917969 640.074219 261.804688 638.628906 C 261.710938 637.148438 260.339844 636.246094 259.3125 635.410156 C 265.910156 634.816406 272.734375 634.929688 279.347656 635.203125 C 287.457031 635.539062 298.949219 638.5 306.253906 633.609375 C 307.1875 632.984375 307.800781 632.226562 308.285156 631.230469 C 309.84375 628.046875 310.617188 624.039062 311.710938 620.628906 C 315.523438 608.648438 319.546875 596.425781 321.867188 584.058594 C 326.066406 584.507812 328.191406 583.460938 331.84375 581.453125 L 332.085938 581.691406 C 332.003906 583.574219 322.507812 604.917969 320.902344 609.597656 C 319.050781 614.984375 315.269531 625.488281 318.117188 630.988281 C 321.027344 636.601562 327.5 638.273438 333.035156 640.140625 C 330.589844 641.875 329.671875 643.644531 328.578125 646.347656 Z M 335.53125 648.019531 C 334.691406 647.730469 334.433594 647.523438 334.046875 646.734375 C 334.289062 645.703125 334.835938 645.238281 335.5625 644.53125 C 336.109375 644.53125 336.671875 644.5625 337.21875 644.644531 C 337.765625 644.722656 338.3125 644.820312 338.84375 644.964844 C 339.375 645.109375 339.90625 645.285156 340.40625 645.496094 C 340.921875 645.703125 341.402344 645.960938 341.886719 646.234375 C 342.898438 646.847656 344.671875 648.035156 344.960938 649.210938 L 344.1875 649.097656 C 341.453125 648.632812 338.136719 648.921875 335.53125 647.988281 Z M 302.085938 674.878906 C 300.527344 675.265625 299.0625 675.894531 297.597656 676.550781 L 293.21875 678.886719 C 297.210938 674.71875 301.121094 670.84375 306.800781 669.105469 C 307.992188 669.058594 309.410156 669.1875 310.40625 669.894531 C 311.050781 670.34375 311.226562 670.859375 311.355469 671.582031 C 310.054688 674.316406 304.773438 674.238281 302.121094 674.878906 Z M 315.75 675.136719 C 316.265625 673.640625 316.667969 671.90625 316.457031 670.328125 C 316.234375 668.625 315.347656 667.578125 314.027344 666.566406 C 313.933594 666.484375 313.835938 666.421875 313.738281 666.339844 C 314.171875 665.855469 316.152344 665.90625 316.878906 665.824219 C 321.898438 665.199219 327.304688 665.984375 332.359375 666.148438 C 336.511719 666.292969 340.710938 666.019531 344.863281 665.839844 C 341.773438 667.898438 338.621094 669.652344 335.207031 671.164062 C 328.691406 673.640625 322.71875 675.039062 315.734375 675.136719 Z M 318.339844 694.179688 L 318.035156 694.421875 L 317.828125 694.066406 C 318.777344 690.03125 321.320312 688.148438 324.617188 685.960938 L 325.324219 686.15625 L 325.566406 686.636719 C 324.410156 689.582031 320.691406 692.121094 318.359375 694.179688 Z M 370.742188 611.464844 C 369.695312 619.117188 368.632812 626.824219 368.003906 634.527344 C 367.667969 638.691406 367.3125 643.148438 368.117188 647.28125 C 369.246094 653.070312 373.621094 658.476562 379.109375 660.757812 C 381.992188 661.949219 389.3125 662.207031 390.921875 664.652344 C 391.566406 665.648438 391.375 666.820312 391.164062 667.898438 C 389.089844 670.039062 373.671875 664.652344 368.808594 665.96875 C 363.773438 667.320312 359.121094 670.875 354.730469 673.625 C 348.210938 677.710938 338.054688 683.789062 330.667969 685.847656 C 330.171875 685.15625 330.21875 684.496094 330.136719 683.675781 C 329.382812 681.988281 327.917969 680.910156 326.550781 679.738281 C 334.324219 676.808594 341.113281 674.6875 347.292969 668.671875 C 348.339844 667.660156 350.011719 666.019531 350.046875 664.554688 C 349.386719 663.925781 348.886719 663.765625 347.96875 663.652344 C 345.476562 663.316406 342.835938 663.589844 340.324219 663.492188 C 336.800781 663.347656 333.242188 662.976562 329.71875 662.6875 C 332.550781 659.9375 336.285156 658.539062 340.082031 657.6875 C 344.589844 656.671875 349.128906 656.046875 353.199219 658.605469 C 354.792969 659.601562 355.597656 660.210938 357.496094 659.777344 C 358.011719 659.296875 358.1875 659.214844 358.203125 658.457031 C 358.238281 656.59375 356.851562 655.179688 355.628906 653.988281 C 361.503906 643.679688 362.355469 605.078125 362.453125 591.601562 C 366.347656 592.035156 369.390625 591.875 373.140625 590.621094 L 373.429688 590.828125 C 373.847656 593.355469 371.257812 607.667969 370.742188 611.496094 Z M 566.324219 424.316406 C 568.929688 428.964844 570.960938 434 572.519531 439.082031 C 574.726562 446.253906 575.914062 454.199219 575.867188 461.710938 C 575.769531 477.457031 571.296875 495.179688 565.953125 509.914062 C 565.117188 512.246094 564.410156 514.738281 563.25 516.925781 L 563.1875 516.3125 C 566.9375 498.734375 567.046875 478.566406 560.371094 461.742188 C 553.480469 444.4375 540.332031 431.585938 523.324219 424.316406 C 523.339844 423.0625 523.371094 421.792969 523.289062 420.539062 C 523.015625 416.308594 521.3125 413.507812 518.207031 410.777344 C 522.082031 405.820312 525.042969 400.144531 527.957031 394.59375 L 531.191406 394 C 534.332031 393.664062 536.96875 393.550781 539.882812 395.03125 C 548.652344 399.484375 561.464844 415.679688 566.324219 424.300781 Z M 556.28125 362.476562 C 575.304688 370.648438 587.292969 380.652344 595.082031 400.351562 C 597.253906 405.839844 599.027344 411.789062 599.925781 417.609375 C 603.097656 438.054688 599.058594 463.253906 590.800781 482.136719 C 591.574219 475.71875 591.863281 469.269531 591.65625 462.820312 C 591.625 457.546875 591.238281 452.285156 590.496094 447.058594 C 588.113281 429.769531 580.550781 410.339844 566.148438 399.566406 C 556.296875 392.199219 542.183594 387.890625 529.90625 389.609375 C 529.984375 388.242188 530.128906 386.828125 530.066406 385.460938 C 529.9375 382.710938 528.683594 379.925781 526.605469 378.09375 C 523.871094 375.664062 520.070312 374.828125 516.5 374.988281 C 519.558594 371.757812 522.082031 367.816406 524.304688 363.972656 C 531.191406 362.527344 537.582031 359.921875 544.613281 358.859375 C 547.1875 358.3125 553.707031 361.398438 556.25 362.492188 Z M 573.953125 319.777344 C 591.238281 322.21875 607.925781 331.082031 618.433594 345.140625 C 621.589844 349.351562 624.066406 353.984375 626.304688 358.730469 C 637.730469 382.886719 637.214844 409.085938 633.386719 434.882812 C 632.097656 421.359375 629.859375 408.445312 624.808594 395.738281 C 624.613281 395.238281 624.421875 394.742188 624.226562 394.242188 C 624.019531 393.742188 623.824219 393.261719 623.601562 392.761719 C 623.390625 392.28125 623.167969 391.78125 622.941406 391.296875 C 622.714844 390.816406 622.488281 390.332031 622.25 389.851562 C 622.007812 389.367188 621.765625 388.902344 621.523438 388.417969 C 621.28125 387.953125 621.027344 387.472656 620.769531 387.003906 C 620.511719 386.539062 620.238281 386.070312 619.964844 385.605469 C 619.691406 385.140625 619.417969 384.6875 619.125 384.238281 C 618.835938 383.789062 618.5625 383.335938 618.257812 382.886719 C 617.96875 382.4375 617.664062 382.003906 617.355469 381.550781 C 617.050781 381.117188 616.746094 380.683594 616.421875 380.25 C 616.101562 379.816406 615.796875 379.382812 615.457031 378.960938 C 615.136719 378.542969 614.796875 378.109375 614.460938 377.691406 C 614.121094 377.273438 613.785156 376.855469 613.445312 376.453125 C 613.109375 376.050781 612.753906 375.632812 612.398438 375.246094 C 612.046875 374.84375 611.691406 374.460938 611.320312 374.058594 C 610.953125 373.671875 610.582031 373.285156 610.210938 372.898438 C 609.839844 372.511719 609.453125 372.144531 609.066406 371.773438 C 608.683594 371.402344 608.296875 371.035156 607.910156 370.664062 C 607.523438 370.292969 607.121094 369.941406 606.71875 369.585938 C 606.316406 369.230469 605.914062 368.878906 605.511719 368.539062 C 605.109375 368.203125 604.691406 367.847656 604.273438 367.527344 C 603.855469 367.191406 603.4375 366.867188 603 366.546875 C 602.582031 366.226562 602.148438 365.902344 601.714844 365.582031 C 601.277344 365.257812 600.84375 364.953125 600.410156 364.648438 C 599.976562 364.34375 599.523438 364.054688 599.074219 363.746094 C 598.625 363.457031 598.171875 363.167969 597.722656 362.878906 C 597.273438 362.589844 596.804688 362.316406 596.355469 362.042969 C 595.886719 361.769531 595.421875 361.511719 594.953125 361.253906 C 594.488281 360.996094 594.019531 360.738281 593.539062 360.5 C 593.070312 360.257812 592.589844 360.015625 592.105469 359.773438 C 591.625 359.535156 591.140625 359.308594 590.65625 359.082031 C 570.414062 349.917969 547.1875 350.464844 526.558594 358.246094 C 527.84375 354.035156 529.648438 349.113281 529.277344 344.65625 C 528.941406 340.734375 526.734375 337.933594 523.835938 335.488281 C 537.757812 324.261719 547.574219 320 565.488281 319.292969 C 568.289062 319.195312 571.152344 319.375 573.921875 319.761719 Z M 677.128906 392.90625 C 670.015625 366.304688 663.464844 347.3125 641.851562 328.589844 C 630.746094 318.730469 614.894531 312.023438 600.363281 309.449219 C 577.316406 305.382812 552.53125 310.65625 532.625 322.832031 C 527.699219 325.839844 523.53125 329.730469 518.816406 332.996094 L 518.480469 333.222656 C 512.171875 332.515625 506.539062 332.882812 500.4375 334.71875 C 500.597656 331.371094 500.550781 328.042969 500.488281 324.699219 C 502.789062 321.382812 504.636719 317.605469 506.648438 314.113281 C 510.367188 307.601562 514.503906 300.828125 519.285156 295.039062 C 521.375 292.5 524.480469 291.453125 527.3125 289.941406 C 542.539062 281.851562 556.265625 278.105469 573.40625 276.558594 C 575.996094 276.207031 578.8125 276.300781 581.4375 276.300781 C 605.542969 276.285156 628.6875 284.296875 645.859375 301.554688 C 665.8125 321.609375 675.003906 351.734375 676.964844 379.445312 C 677.289062 383.898438 677.160156 388.4375 677.144531 392.90625 Z M 599.636719 246.019531 C 626.898438 252.402344 647.402344 266.378906 662.160156 290.375 C 678.382812 316.753906 684.707031 351.75 681.664062 382.386719 C 681.214844 386.875 680.765625 391.589844 679.71875 395.980469 C 679.027344 394.046875 679.6875 386.039062 679.621094 383.371094 C 679.523438 380.105469 679.21875 376.808594 678.847656 373.558594 C 677.691406 363.023438 675.355469 352.796875 672.378906 342.644531 C 670.417969 335.730469 667.472656 328.75 664.21875 322.347656 C 652.84375 299.914062 635.976562 285.90625 612.125 278.121094 C 591.605469 271.414062 567.046875 272.25 546.625 278.925781 C 538.691406 281.515625 531.335938 285.085938 523.917969 288.863281 C 525.785156 285.679688 528.34375 282.65625 530.710938 279.824219 C 533.058594 276.960938 535.503906 274.179688 538.046875 271.476562 C 540.589844 268.777344 543.230469 266.171875 545.949219 263.660156 C 548.667969 261.152344 551.484375 258.738281 554.382812 256.421875 C 557.28125 254.109375 560.242188 251.902344 563.296875 249.78125 C 566.355469 247.640625 569.558594 245.214844 573.050781 243.878906 C 582.03125 243.429688 590.867188 243.976562 599.636719 246.035156 Z M 500.421875 253.015625 C 524.609375 226.347656 556.828125 206.4375 593.554688 204.683594 C 595.46875 204.554688 597.402344 204.492188 599.316406 204.523438 C 630.296875 204.714844 657.105469 218.722656 678.589844 240.355469 C 658.347656 227.90625 638.421875 221.203125 614.347656 223.984375 C 603.839844 225.207031 593.632812 228.664062 583.980469 232.878906 C 554.542969 245.710938 538.964844 261.3125 519.316406 286.160156 C 511.574219 296.761719 504.800781 307.664062 497.894531 318.792969 C 495.722656 316.300781 493.613281 314.582031 490.234375 313.984375 C 480.546875 312.265625 470.023438 320.855469 462.667969 326.128906 C 469.199219 301.441406 483.167969 272.023438 500.421875 253.015625 Z M 319.710938 303.886719 C 319.855469 303.980469 320.015625 304.078125 320.160156 304.175781 C 324.570312 307.023438 332.859375 309.628906 337.925781 311.542969 C 343.269531 313.582031 348.582031 315.722656 353.84375 317.957031 C 378.933594 328.378906 402.269531 342.96875 430.238281 343.773438 C 437.273438 343.980469 444.273438 343.402344 450.789062 340.554688 C 462.488281 335.441406 473.464844 319.839844 486.355469 318.617188 C 488.511719 318.410156 490.667969 318.8125 492.34375 320.226562 C 494.5625 322.109375 495.578125 325.117188 495.851562 327.929688 C 496.6875 336.46875 492.117188 344.851562 485.710938 350.253906 C 484.101562 351.605469 481.398438 353.003906 480.242188 354.691406 C 479.789062 355.351562 479.824219 355.769531 479.96875 356.511719 C 480.578125 356.71875 480.707031 356.703125 481.304688 356.511719 C 487.5 354.339844 495.320312 346.167969 498.039062 340.121094 C 503.59375 338.253906 511.21875 336.792969 517.046875 337.886719 C 519.414062 338.335938 521.699219 339.476562 523.066406 341.519531 C 524.640625 343.902344 524.386719 346.746094 523.835938 349.402344 C 520.957031 363.34375 513.667969 372.128906 501.515625 379.285156 C 498.988281 380.78125 495.785156 381.585938 493.4375 383.207031 C 492.808594 383.644531 492.988281 383.371094 492.859375 384.046875 C 496.898438 385.15625 512.21875 377.371094 520.894531 380.007812 C 522.519531 380.507812 523.984375 381.441406 524.738281 383.015625 C 525.6875 385.011719 525.238281 387.40625 524.578125 389.417969 C 524.449219 389.804688 524.335938 390.171875 524.191406 390.558594 C 524.0625 390.945312 523.917969 391.316406 523.773438 391.683594 C 523.628906 392.054688 523.484375 392.425781 523.339844 392.808594 C 523.195312 393.179688 523.035156 393.550781 522.871094 393.921875 C 522.710938 394.289062 522.550781 394.644531 522.375 395.015625 C 522.195312 395.382812 522.019531 395.738281 521.84375 396.089844 C 521.664062 396.445312 521.472656 396.800781 521.277344 397.152344 C 521.085938 397.507812 520.894531 397.859375 520.699219 398.199219 C 520.507812 398.550781 520.296875 398.890625 520.089844 399.226562 C 519.878906 399.566406 519.667969 399.902344 519.445312 400.242188 C 519.234375 400.578125 519.011719 400.917969 518.785156 401.238281 C 518.558594 401.574219 518.332031 401.898438 518.09375 402.21875 C 517.851562 402.539062 517.625 402.863281 517.367188 403.183594 C 517.128906 403.503906 516.871094 403.8125 516.628906 404.132812 C 516.371094 404.4375 516.113281 404.761719 515.855469 405.050781 C 515.597656 405.355469 515.324219 405.660156 515.066406 405.949219 C 514.792969 406.257812 514.519531 406.546875 514.246094 406.835938 C 513.972656 407.125 513.699219 407.414062 513.410156 407.703125 C 513.121094 407.992188 512.847656 408.265625 512.554688 408.539062 C 512.265625 408.8125 511.976562 409.085938 511.671875 409.359375 C 511.367188 409.632812 511.074219 409.890625 510.769531 410.148438 C 510.464844 410.40625 510.160156 410.664062 509.851562 410.921875 C 509.546875 411.175781 509.226562 411.417969 508.902344 411.660156 C 508.582031 411.902344 508.257812 412.140625 507.9375 412.382812 C 507.617188 412.625 507.292969 412.851562 506.957031 413.074219 C 506.617188 413.300781 506.296875 413.527344 505.957031 413.734375 C 505.621094 413.960938 505.28125 414.167969 504.945312 414.378906 C 504.605469 414.585938 504.253906 414.796875 503.914062 414.988281 C 503.558594 415.183594 503.222656 415.390625 502.867188 415.566406 C 502.515625 415.761719 502.160156 415.9375 501.804688 416.132812 C 501.453125 416.308594 501.082031 416.484375 500.726562 416.660156 C 500.375 416.839844 500.003906 417 499.632812 417.160156 C 496.253906 418.625 492.421875 419.234375 489.15625 420.875 C 488.964844 421.535156 488.996094 421.535156 489.253906 422.179688 C 491.910156 422.097656 503.6875 418.542969 506.425781 417.335938 C 508.515625 416.421875 510.433594 415.070312 512.523438 414.121094 L 512.925781 413.945312 C 513.746094 414.183594 514.519531 414.457031 515.277344 414.859375 C 515.4375 414.941406 515.597656 415.039062 515.742188 415.148438 C 515.886719 415.246094 516.03125 415.359375 516.175781 415.472656 C 516.324219 415.585938 516.449219 415.714844 516.578125 415.839844 C 516.707031 415.96875 516.835938 416.097656 516.949219 416.242188 C 517.0625 416.386719 517.175781 416.535156 517.273438 416.679688 C 517.367188 416.824219 517.464844 416.984375 517.546875 417.144531 C 517.625 417.304688 517.707031 417.464844 517.769531 417.644531 C 517.835938 417.804688 517.898438 417.980469 517.949219 418.15625 C 518.960938 421.726562 516.886719 426.8125 515.179688 429.929688 C 510.0625 439.226562 500.359375 442.925781 490.394531 444.679688 C 487.339844 445.210938 484.265625 445.097656 481.238281 445.964844 L 481.269531 446.996094 C 489.078125 449.808594 500.359375 447.347656 508.210938 445.628906 C 507.648438 447.363281 506.957031 448.84375 505.878906 450.324219 C 500.050781 458.253906 488.929688 462.886719 479.46875 464.316406 C 477.890625 464.558594 476.621094 464.527344 475.589844 465.910156 C 475.734375 466.425781 475.605469 466.40625 476.023438 466.617188 C 479.550781 468.402344 490.652344 465.074219 494.597656 463.945312 C 487.578125 473.386719 476.507812 479.886719 465.46875 483.472656 C 459.996094 475.0625 453.382812 470.523438 444.238281 466.535156 C 446.542969 466.023438 452.449219 465.25 453.847656 463.222656 C 454.523438 462.242188 454.476562 460.988281 454.167969 459.894531 C 451.691406 451.289062 437.527344 441.171875 429.933594 436.8125 C 431.382812 432.824219 429.738281 428.210938 428.242188 424.445312 C 416.496094 394.917969 381.429688 368.523438 352.976562 356.238281 C 348.226562 354.195312 328.304688 347.875 324.28125 349.804688 C 323.796875 350.027344 323.863281 350.253906 323.699219 350.71875 C 324.152344 351.734375 324.746094 352.039062 325.824219 352.28125 C 327.644531 352.699219 329.605469 352.585938 331.472656 352.84375 C 334.691406 353.277344 338.007812 354.015625 341.164062 354.855469 C 357.109375 359.082031 375.777344 370.4375 388.703125 380.667969 C 402.945312 391.941406 417.796875 406.320312 425.203125 423.191406 C 426.359375 425.828125 427.695312 429.078125 427.953125 431.957031 C 428.035156 432.96875 427.953125 433.710938 427.246094 434.5 C 424.703125 435.753906 399.742188 430.78125 395.363281 429.707031 C 391.792969 428.820312 388.316406 427.4375 384.757812 426.585938 C 384.019531 426.859375 384.050781 426.84375 383.679688 427.550781 L 383.9375 428.226562 C 389.234375 432.84375 419.003906 436.894531 426.796875 437.699219 C 429.546875 440.191406 433.585938 441.863281 436.628906 444.101562 C 441.132812 447.382812 450.839844 455.277344 451.722656 461.050781 C 451.515625 461.4375 451.304688 461.710938 450.917969 461.953125 C 447.554688 464.042969 442.132812 464.574219 438.269531 464.976562 C 417.976562 467.117188 396.636719 464.382812 377.148438 458.496094 C 374.667969 457.753906 372.222656 456.886719 369.824219 455.90625 C 367.539062 454.972656 362.082031 451.882812 360.023438 451.753906 C 359.171875 451.707031 358.882812 451.949219 358.238281 452.414062 C 358.140625 452.898438 358.011719 452.996094 358.367188 453.394531 C 359.703125 454.859375 364.660156 456.675781 366.75 457.578125 C 389.21875 467.179688 416.914062 469.671875 441.070312 467.371094 C 449.40625 471.652344 458.144531 476.058594 462.910156 484.550781 C 458.660156 486.382812 454.136719 487.863281 449.746094 489.328125 C 439.363281 492.785156 428.164062 495.066406 417.234375 495.695312 C 383.824219 497.578125 342.753906 486.753906 312.964844 471.859375 C 307.589844 469.15625 302.378906 466.167969 297.339844 462.886719 C 273.667969 447.816406 252.328125 422.742188 246.242188 394.902344 C 243.316406 381.488281 245.390625 368.957031 252.824219 357.394531 C 250.1875 359.484375 247.996094 361.59375 246.113281 364.40625 C 239.628906 374.105469 239.113281 385.234375 241.304688 396.398438 C 247.082031 425.78125 269.433594 450.484375 293.621094 466.695312 C 331.652344 492.171875 392.871094 506.875 437.964844 498.011719 C 434.808594 503.367188 431.785156 508.882812 428.277344 514.015625 C 421.195312 524.355469 411.714844 534.152344 401.496094 541.421875 C 397.777344 544.058594 393.789062 546.195312 389.941406 548.625 C 389.894531 557.085938 386.898438 565.433594 383.148438 572.925781 C 380.476562 578.285156 376.070312 586.390625 369.921875 588.289062 C 367.507812 589.027344 365.09375 588.816406 362.886719 587.59375 C 354.921875 583.253906 349.628906 569.375 347.070312 561.105469 C 344.542969 560.125 342.0625 559.097656 339.632812 557.90625 C 319.226562 547.820312 304.46875 529.742188 296.761719 508.496094 C 294.894531 503.335938 294.28125 497.898438 292.542969 492.785156 C 292.269531 491.996094 292.15625 492.078125 291.386719 491.691406 C 291.03125 491.804688 290.742188 491.769531 290.566406 492.140625 C 288.988281 495.488281 295.890625 514.449219 297.550781 518.644531 C 253.855469 506.085938 205.414062 480.433594 180.453125 440.996094 C 165.824219 417.867188 159.179688 391.957031 159.113281 364.746094 C 159.097656 355.128906 159.742188 345.75 161.851562 336.34375 C 168.5625 330.054688 174.324219 322.253906 178.21875 313.90625 C 177.136719 324.519531 174.46875 332.625 169.109375 341.921875 C 167.386719 344.914062 165.148438 347.761719 163.796875 350.929688 C 163.75 351.042969 163.714844 351.136719 163.667969 351.25 C 176.140625 347.085938 185.441406 338.867188 192.863281 328.203125 C 193.570312 336.292969 196.371094 344.078125 197.09375 352.183594 C 197.625 358.167969 196.402344 364.101562 196.160156 370.070312 C 206.15625 359.550781 214.84375 347.183594 219.433594 333.367188 C 225.257812 346.265625 226.511719 359.292969 227.429688 373.1875 C 234.800781 365.066406 241.285156 350.367188 243.378906 339.6875 C 244.488281 334.042969 244.714844 328.445312 244.972656 322.71875 C 246.132812 324.9375 247.339844 327.175781 248.691406 329.265625 C 257.042969 342.148438 269.242188 350.753906 284.257812 353.984375 C 282.277344 350.71875 280.234375 347.457031 278.800781 343.917969 C 275.679688 336.101562 274.117188 322.992188 272.699219 314.421875 C 279.78125 324.875 290.324219 332.207031 301.910156 336.96875 C 303.359375 337.5625 305.242188 338.402344 306.785156 337.773438 C 308.445312 335.554688 305.53125 334.636719 304.339844 333.285156 C 303.472656 332.289062 302.796875 330.859375 302.28125 329.636719 C 299.671875 323.523438 299.125 315.820312 298.210938 309.289062 C 308.378906 319.550781 320.949219 322.238281 334.597656 324.875 C 328.835938 318.214844 323.863281 311.414062 319.5 303.742188 C 319.597656 303.804688 319.675781 303.871094 319.773438 303.917969 Z M 225.03125 168.65625 C 243.105469 182.519531 256.574219 202.253906 265.972656 222.792969 C 272.734375 237.542969 278.445312 252.628906 286.816406 266.589844 C 291.660156 274.664062 297.566406 281.867188 304.019531 288.703125 C 306.722656 291.566406 309.988281 294.269531 312.371094 297.386719 C 314.253906 299.863281 315.285156 303.417969 316.84375 306.167969 C 319.660156 311.125 323.167969 315.753906 326.46875 320.402344 C 316.957031 317.652344 309.136719 314.226562 301.394531 308.019531 C 299.578125 306.554688 297.46875 305.058594 296.472656 302.886719 C 295.246094 300.265625 294.683594 297.097656 293.878906 294.316406 C 292.800781 290.664062 291.433594 287.144531 289.792969 283.71875 C 288.375 280.726562 286.765625 276.867188 284.675781 274.308594 C 284.0625 273.550781 283.613281 273.277344 282.664062 273.199219 L 282.179688 273.632812 C 282.132812 274.308594 282.246094 274.808594 282.5 275.433594 C 283.304688 277.414062 284.59375 279.199219 285.542969 281.113281 C 287.328125 284.699219 288.828125 288.527344 290.195312 292.273438 C 292.285156 298.03125 293.832031 304.046875 295.007812 310.046875 C 296.503906 317.636719 297.4375 325.195312 300.347656 332.433594 C 290.628906 328.652344 282.097656 321.128906 275.46875 313.230469 C 273.890625 311.347656 272.007812 309.289062 271.171875 306.941406 C 269.144531 301.359375 268.726562 295.007812 265.570312 289.84375 C 265.023438 288.960938 264.652344 288.574219 263.640625 288.332031 L 263.300781 288.605469 C 262.949219 291.261719 264.894531 295.199219 265.75 297.726562 C 270.0625 310.703125 270.464844 324.808594 273.648438 338.109375 C 274.550781 341.890625 275.855469 345.347656 277.527344 348.855469 C 260.839844 340.910156 250.507812 330.019531 243.910156 312.636719 C 243.105469 310.351562 242.71875 306.910156 241.15625 305.09375 L 240.644531 305.09375 C 240.175781 305.894531 240.257812 306.21875 240.289062 307.152344 C 240.417969 310.03125 241.011719 312.957031 241.269531 315.835938 C 241.6875 320.835938 241.753906 325.855469 241.480469 330.875 C 240.804688 343.128906 235.960938 354.035156 230.003906 364.585938 C 229.199219 354.902344 227.332031 345.78125 224.097656 336.632812 C 223.035156 333.625 220.945312 330.730469 220.285156 327.640625 C 219.578125 324.375 221.394531 316.914062 219.851562 314.566406 C 219.609375 314.195312 219.351562 314.257812 218.949219 314.195312 C 217.773438 315.882812 217.917969 325.019531 217.484375 327.800781 C 217.113281 330.292969 216.390625 332.851562 215.570312 335.230469 C 212.320312 344.6875 206.089844 352.921875 200.152344 360.820312 C 200.28125 357.121094 200.394531 353.4375 199.894531 349.769531 C 198.71875 341.085938 195.613281 332.949219 194.921875 324.132812 C 195.933594 322.460938 196.949219 320.773438 197.945312 319.085938 C 199.058594 317.203125 201.054688 314.308594 200.472656 312.039062 L 200.023438 311.878906 C 197.433594 313.328125 194.855469 320.113281 193.007812 322.863281 C 191.363281 325.308594 189.53125 327.703125 187.679688 329.988281 C 183.042969 335.714844 178.136719 340.265625 171.859375 344.140625 C 172.183594 343.546875 172.503906 342.9375 172.824219 342.324219 C 176.863281 334.574219 180.132812 326.484375 180.679688 317.683594 C 180.886719 314.324219 180.613281 310.867188 181.015625 307.519531 C 181.289062 305.285156 182.996094 301.601562 182.144531 299.480469 C 181.949219 298.996094 181.949219 299.140625 181.386719 298.980469 C 179.699219 301.296875 179.148438 304.753906 177.925781 307.390625 C 174.546875 314.675781 169.785156 320.820312 164.503906 326.789062 C 165.710938 322.832031 166.386719 318.683594 167.242188 314.628906 C 168.816406 307.167969 170.347656 299.71875 171.28125 292.144531 C 172.375 283.332031 172.808594 274.5 173.679688 265.6875 C 173.886719 265.605469 174.082031 265.511719 174.289062 265.414062 C 181.597656 262.054688 187.421875 256.792969 190.15625 249.089844 C 193.519531 239.664062 189.753906 230.65625 185.75 222.148438 C 188.789062 221.941406 191.785156 221.585938 194.710938 220.703125 C 203.46875 218.066406 211.160156 212.050781 215.457031 203.945312 C 219.433594 196.433594 220.011719 187.25 217.5 179.175781 C 214.296875 168.867188 207.054688 161.417969 197.609375 156.480469 C 198.992188 156.515625 200.410156 156.675781 201.777344 156.898438 C 210.5625 158.394531 218.128906 163.347656 225.066406 168.671875 Z M 135.859375 155.96875 C 131.53125 144.691406 131.933594 133.644531 136.808594 122.640625 C 137.308594 124.894531 138.113281 126.9375 139.238281 128.945312 C 140.878906 131.890625 143.695312 136.636719 147.203125 137.457031 C 147.71875 137.582031 148.332031 137.550781 148.78125 137.230469 C 149.425781 136.746094 149.652344 136.089844 149.730469 135.316406 C 149.941406 133.386719 149.394531 131.3125 149.3125 129.367188 C 149.167969 125.777344 149.890625 121.726562 150.617188 118.21875 C 152 111.480469 154.609375 103.421875 160.644531 99.464844 C 160.835938 104.019531 160.835938 108.730469 162.1875 113.121094 C 162.863281 115.308594 164.054688 118.140625 166.257812 119.167969 C 167.417969 119.714844 168.59375 119.683594 169.785156 119.234375 C 174.191406 117.542969 175.625 106.769531 177.300781 102.796875 C 180.226562 95.878906 185.296875 90.171875 192.347656 87.355469 C 192.8125 87.917969 192.410156 89.09375 192.3125 89.847656 C 191.492188 96.296875 191.253906 103.601562 193.136719 109.886719 C 193.683594 111.707031 194.726562 114.328125 196.644531 115.117188 C 200.394531 116.675781 205.992188 109.035156 208.585938 106.847656 C 210.742188 105.03125 213.089844 103.617188 215.761719 102.714844 C 218.160156 101.910156 222.730469 101.058594 225.046875 102.199219 C 224.550781 103.503906 222.988281 104.566406 222.136719 105.722656 C 219.816406 108.875 218.480469 113.925781 219.207031 117.832031 C 219.753906 120.730469 221.203125 122.464844 223.601562 124.058594 C 228.652344 124.332031 234.011719 122.367188 238.886719 123.1875 C 241.703125 123.65625 243.023438 124.992188 244.570312 127.257812 C 244.667969 129.125 244.632812 130.941406 244.246094 132.773438 C 242.671875 140.300781 237.230469 146.347656 230.875 150.402344 C 224.953125 154.183594 217.453125 156.289062 210.4375 155.035156 C 207.378906 154.488281 204.402344 153.363281 201.34375 152.71875 C 188.566406 150 174.515625 152.125 163.476562 159.183594 C 158.132812 162.753906 153.949219 167.820312 148.78125 171.632812 C 147.460938 171.4375 146.144531 171.148438 144.839844 170.910156 C 140.621094 167.066406 137.839844 161.210938 135.828125 155.984375 Z M 121.550781 190.835938 C 127.167969 183.308594 133.652344 176.777344 143.292969 175.394531 C 144.226562 175.265625 145.082031 175.363281 145.949219 175.734375 C 151.195312 177.921875 154.863281 184.851562 156.988281 189.804688 C 148.589844 189.46875 140.6875 189.386719 132.335938 190.449219 C 128.085938 191.140625 123.964844 192.25 119.796875 193.328125 C 120.359375 192.492188 120.957031 191.65625 121.566406 190.851562 Z M 121.550781 190.835938 " fill-opacity="1" fill-rule="nonzero"/></g><path fill="#000000" d="M 169.460938 187.585938 C 172.054688 189.226562 174.949219 189.613281 177.941406 189.5 C 181.5625 188.566406 184.523438 187.105469 186.472656 183.710938 C 186.648438 183.421875 186.792969 183.117188 186.9375 182.808594 C 187.085938 182.503906 187.195312 182.183594 187.308594 181.863281 C 187.421875 181.539062 187.503906 181.21875 187.582031 180.878906 C 187.664062 180.542969 187.710938 180.222656 187.761719 179.882812 C 187.792969 179.546875 187.824219 179.207031 187.824219 178.871094 C 187.824219 178.53125 187.824219 178.195312 187.792969 177.855469 C 187.761719 177.519531 187.710938 177.179688 187.648438 176.859375 C 187.582031 176.523438 187.503906 176.199219 187.40625 175.878906 C 187.308594 175.539062 187.195312 175.203125 187.050781 174.882812 C 186.921875 174.558594 186.761719 174.238281 186.601562 173.933594 C 186.441406 173.625 186.261719 173.320312 186.070312 173.03125 C 185.878906 172.742188 185.667969 172.453125 185.441406 172.179688 C 185.21875 171.90625 184.992188 171.648438 184.734375 171.390625 C 184.492188 171.148438 184.21875 170.910156 183.960938 170.683594 C 183.6875 170.457031 183.414062 170.25 183.109375 170.054688 C 182.820312 169.863281 182.511719 169.6875 182.207031 169.507812 C 180.179688 168.433594 178.023438 168.078125 175.753906 168.140625 C 172.164062 168.785156 169.089844 170.378906 167 173.464844 C 165.40625 175.832031 164.601562 178.917969 165.230469 181.734375 C 165.777344 184.210938 167.335938 186.234375 169.460938 187.570312 Z M 174.804688 172.113281 C 175.03125 172.113281 175.238281 172.113281 175.464844 172.113281 C 176.703125 172.113281 177.605469 172.386719 178.472656 173.335938 C 179.230469 174.15625 179.632812 175.347656 179.375 176.441406 C 179.085938 177.726562 178.378906 178.355469 177.265625 178.949219 C 175.980469 178.980469 174.46875 178.949219 173.484375 178 C 172.875 177.40625 172.550781 176.699219 172.601562 175.847656 C 172.710938 174.238281 173.664062 173.144531 174.804688 172.132812 Z M 174.804688 172.113281 " fill-opacity="1" fill-rule="nonzero"/></svg>