<svg xmlns="http://www.w3.org/2000/svg" xmlns:xlink="http://www.w3.org/1999/xlink" width="1080" zoomAndPan="magnify" viewBox="0 0 810 809.999993" height="1080" preserveAspectRatio="xMidYMid meet" version="1.0"><defs><clipPath id="f0d0f52bc5"><path d="M 81 59.652344 L 740.25 59.652344 L 740.25 774.402344 L 81 774.402344 Z M 81 59.652344 " clip-rule="nonzero"/></clipPath></defs><g clip-path="url(#f0d0f52bc5)"><path fill="#000000" d="M 718.269531 183.695312 C 708.195312 183.28125 698.082031 183.351562 688.050781 182.46875 C 672.503906 181.101562 657.359375 177.847656 643.375 170.449219 C 640.605469 168.984375 638.613281 167.289062 638.023438 163.898438 C 626.078125 95.273438 565.9375 54.03125 500.449219 60.277344 C 471.792969 63.011719 446.5625 73.402344 425.878906 93.421875 C 390.738281 127.421875 379.355469 169.269531 386.621094 216.894531 C 389.214844 233.890625 396.328125 249.160156 404.261719 264.199219 C 409.898438 274.890625 413.621094 286.230469 413.945312 298.535156 C 414.042969 302.285156 413.285156 302.734375 409.625 301.839844 C 403.875 300.4375 397.910156 299.710938 391.992188 299.242188 C 361.898438 296.871094 332.210938 299.804688 302.835938 306.496094 C 282.949219 311.03125 263.035156 315.644531 242.632812 316.972656 C 211.117188 319.023438 182.070312 311.183594 155.644531 293.800781 C 147.761719 288.613281 140 283.179688 131.785156 278.574219 C 122.0625 273.121094 113.496094 274.859375 105.550781 282.679688 C 99.117188 289.011719 95.625 296.933594 93.210938 305.371094 C 86.289062 329.554688 87.648438 354.105469 91.328125 378.472656 C 96.269531 411.175781 106.996094 442.09375 122.328125 471.460938 C 151.714844 527.734375 197.136719 564.441406 258.53125 583.003906 C 252.136719 596.839844 246.054688 610.019531 239.941406 623.191406 C 239.175781 624.84375 238.503906 626.347656 236.054688 626.464844 C 224.515625 626.992188 213.058594 628.402344 201.574219 629.65625 C 178.339844 632.1875 155.351562 636.03125 132.808594 642.203125 C 118.523438 646.117188 104.667969 651.308594 93.164062 661.054688 C 84.117188 668.71875 78.679688 678.167969 82.039062 690.5 C 84.722656 700.34375 92 706.257812 100.792969 710.578125 C 120.585938 720.304688 142.078125 723.511719 163.574219 725.960938 C 181.707031 728.023438 200.042969 728.265625 218.257812 729.730469 C 227.320312 730.460938 236.441406 730.902344 245.382812 732.859375 C 248.847656 733.617188 251.152344 734.492188 249.5625 738.964844 C 247.789062 743.964844 249.644531 748.386719 253.167969 752.207031 C 256.667969 756.003906 261.128906 758.105469 265.878906 759.824219 C 282.582031 765.878906 300.121094 767.785156 317.578125 769.757812 C 338.695312 772.140625 359.933594 773.570312 381.175781 773.996094 C 449.652344 775.371094 517.992188 773.722656 585.695312 761.941406 C 599.578125 759.527344 613.066406 755.546875 624.960938 747.546875 C 635.695312 740.332031 637.992188 733.550781 634.136719 721.34375 C 631.742188 713.761719 631.863281 713.234375 639.867188 711.664062 C 652.398438 709.207031 665.066406 707.433594 677.550781 704.769531 C 691.28125 701.835938 704.878906 698.125 716.632812 689.996094 C 725.457031 683.890625 726.640625 673.648438 720.027344 665.203125 C 715.671875 659.644531 709.941406 656.03125 703.574219 653.199219 C 685.535156 645.171875 666.339844 641.3125 647.121094 637.675781 C 632.101562 634.835938 616.949219 632.691406 601.515625 630.183594 C 603.300781 627.464844 605.054688 625.109375 606.476562 622.570312 C 615.441406 606.605469 603.273438 594.355469 591.230469 592.976562 C 585.617188 592.335938 580.167969 593.9375 574.882812 595.695312 C 553.738281 602.730469 533.109375 611.15625 512.410156 619.367188 C 508.144531 621.058594 506.40625 620.308594 504.578125 616.269531 C 500.722656 607.75 496.214844 599.527344 492.203125 591.074219 C 488.3125 582.871094 488.410156 582.753906 496.910156 579.203125 C 519.847656 569.621094 542.300781 559.222656 560.6875 541.882812 C 613.839844 491.746094 628.914062 431.128906 610.273438 361.304688 C 605.863281 344.777344 597.605469 329.878906 590.238281 314.59375 C 586.273438 306.363281 583.289062 297.761719 584.523438 288.382812 C 586.136719 276.109375 592.875 266.46875 600.734375 257.40625 C 602.449219 255.425781 604.304688 254.878906 606.617188 255.449219 C 625.808594 260.21875 645.210938 261.144531 664.804688 258.789062 C 680.695312 256.882812 696.160156 253.464844 710.371094 245.75 C 723.085938 238.839844 733.636719 229.789062 738.347656 215.519531 C 744.242188 197.667969 735.820312 184.414062 718.277344 183.691406 Z M 241.339844 653.433594 C 252.910156 633.644531 261.574219 612.535156 270.144531 591.378906 C 271.480469 588.078125 272.589844 586.75 276.4375 588.117188 C 281.828125 590.027344 287.472656 591.34375 293.097656 592.429688 C 296.175781 593.023438 297.097656 593.195312 295.488281 596.730469 C 288.949219 611.066406 282.867188 625.617188 276.664062 640.105469 C 273.113281 648.410156 273.957031 650.078125 282.402344 653.335938 C 303.71875 661.5625 325.628906 667.683594 347.96875 672.429688 C 356.824219 674.316406 365.636719 676.707031 372.453125 683.828125 C 367.640625 688.042969 361.945312 689.65625 356.339844 691.398438 C 347.996094 693.988281 346.277344 695.945312 345.539062 704.589844 C 345.117188 709.5 341.570312 706.953125 339.683594 706.765625 C 327.28125 705.527344 315.214844 702.527344 303.199219 699.28125 C 286.351562 694.730469 269.769531 689.453125 254.042969 681.773438 C 252.042969 680.796875 250.074219 679.742188 248.15625 678.613281 C 235.335938 671.074219 233.84375 666.261719 241.339844 653.441406 Z M 603.980469 648.472656 C 604.074219 646.164062 604.582031 645.125 607.132812 645.542969 C 634.058594 649.917969 661.164062 653.417969 687.167969 662.210938 C 693.492188 664.351562 699.855469 666.5 705.1875 670.699219 C 710.136719 674.597656 709.988281 677.3125 704.429688 680.320312 C 693.878906 686.03125 682.339844 689.011719 670.707031 691.382812 C 659.789062 693.613281 648.730469 695.179688 637.738281 697.058594 C 636.652344 697.246094 635.574219 697.53125 634.515625 697.84375 C 620.554688 702 613.363281 706.097656 619.910156 724.675781 C 621.925781 730.386719 620.304688 733.730469 615.34375 736.574219 C 603.695312 743.253906 590.933594 746.453125 577.90625 748.550781 C 513.75 758.875 449.089844 761.195312 384.269531 759.582031 C 350.363281 758.738281 316.5 756.46875 283.125 749.738281 C 278.207031 748.75 273.523438 746.992188 268.804688 745.308594 C 264.753906 743.859375 263.972656 741.441406 265.027344 737.535156 C 267.375 728.835938 266.285156 726.53125 258.207031 722.71875 C 247.710938 717.765625 236.3125 717.074219 225.023438 716.148438 C 194.417969 713.636719 163.582031 713.296875 133.503906 706.050781 C 125.210938 704.050781 117.015625 701.75 109.179688 698.292969 C 106.261719 697.007812 103.542969 695.46875 101.160156 693.347656 C 94.609375 687.515625 94.269531 680.695312 100.375 674.480469 C 108.867188 665.835938 119.832031 661.441406 131.003906 657.980469 C 153.960938 650.867188 177.59375 646.878906 201.464844 644.195312 C 210.839844 643.140625 220.1875 641.933594 230.0625 641.691406 C 226.230469 649.191406 222.035156 655.9375 221.933594 664.34375 C 221.828125 673.09375 225.324219 679.851562 231.847656 685.230469 C 243.25 694.628906 256.957031 699.554688 270.582031 704.382812 C 292.648438 712.199219 315.167969 718.414062 338.488281 721.316406 C 344.398438 722.050781 349.9375 721.164062 355.207031 718.253906 C 358.222656 716.585938 360.792969 713.898438 360.695312 710.964844 C 360.507812 705.253906 363.808594 704.078125 368.089844 702.847656 C 372.5625 701.5625 376.695312 699.375 380.445312 696.550781 C 389.410156 689.792969 390.136719 680.945312 382.21875 672.816406 C 377.335938 667.796875 371.222656 664.726562 364.738281 662.21875 C 349.589844 656.355469 333.339844 654.832031 317.898438 650.097656 C 309.589844 647.550781 301.390625 644.753906 292.734375 641.449219 C 295.769531 639.457031 298.742188 639.863281 301.503906 639.871094 C 340.359375 639.96875 379.222656 639.0625 418.066406 640.742188 C 429.078125 641.222656 440.105469 640.71875 451.117188 641.5625 C 454.734375 641.839844 456.6875 642.859375 457.582031 646.585938 C 459.183594 653.238281 461.230469 659.785156 463.21875 666.335938 C 467.984375 682.03125 476.433594 688.175781 492.546875 686.636719 C 517.171875 684.289062 541.773438 681.542969 565.882812 675.667969 C 574.910156 673.464844 583.574219 670.328125 591.75 665.796875 C 598.710938 661.933594 603.636719 656.824219 603.976562 648.476562 Z M 299.761719 625.300781 C 303.550781 615.996094 307.222656 606.925781 310.949219 597.878906 C 311.882812 595.613281 313.964844 595.929688 315.761719 596.261719 C 348.691406 602.335938 381.765625 601.175781 414.910156 598.628906 C 422.535156 598.042969 430.039062 596.941406 437.523438 595.609375 C 439.796875 595.207031 440.140625 595.714844 440.910156 597.675781 C 444.644531 607.226562 447.847656 616.933594 450.917969 626.925781 C 400.492188 624.820312 350.386719 625.273438 299.761719 625.304688 Z M 495.242188 630.683594 C 498.730469 637.042969 500.289062 637.917969 507.269531 635.898438 C 524.1875 631.003906 540.265625 623.769531 556.839844 617.90625 C 565.21875 614.941406 573.359375 611.300781 581.992188 609.0625 C 585.078125 608.261719 588.238281 607.726562 591.386719 608.34375 C 595.164062 609.082031 596.601562 611.265625 594.09375 614.660156 C 591.996094 617.503906 589.605469 620.140625 587.234375 622.769531 C 581.230469 629.441406 580.886719 631.609375 584.773438 639.640625 C 590.035156 650.503906 589.835938 651.089844 578.714844 656.128906 C 564.675781 662.496094 549.566406 664.542969 534.53125 666.675781 C 520.726562 668.628906 506.832031 669.96875 493.003906 671.738281 C 483.679688 672.929688 480.304688 671.078125 477.574219 662.261719 C 470.285156 638.773438 464.050781 614.945312 454.238281 592.167969 C 458.5 591.015625 462.429688 589.953125 466.355469 588.886719 C 474.042969 586.792969 474.105469 586.761719 477.539062 594.234375 C 483.175781 606.511719 488.742188 618.820312 495.242188 630.683594 Z M 597.414062 232.113281 C 594.023438 235.746094 589.992188 239.121094 590.933594 245.019531 C 591.210938 246.738281 589.570312 247.554688 588.609375 248.632812 C 580.773438 257.449219 573.699219 266.71875 570.84375 278.488281 C 567.109375 293.875 570.007812 308.351562 577.128906 322.152344 C 584.609375 336.644531 592.148438 351.101562 596.570312 366.910156 C 615.644531 435.171875 590.523438 510.035156 525.617188 549.0625 C 500.78125 563.996094 473.488281 571.851562 445.601562 578.269531 C 421.300781 583.867188 396.628906 585.511719 376.761719 585.402344 C 317.839844 586.039062 266.792969 574.054688 218.664062 549.78125 C 176.609375 528.570312 149.472656 493.75 130.171875 451.925781 C 118.144531 425.859375 109.53125 398.671875 105.835938 370.207031 C 103.148438 349.496094 102.289062 328.613281 108.710938 308.1875 C 110.113281 303.71875 111.945312 299.503906 114.664062 295.683594 C 118.425781 290.398438 121.4375 289.640625 126.886719 293.089844 C 135.367188 298.457031 143.648438 304.144531 152.148438 309.480469 C 176.175781 324.558594 202.484375 332.226562 230.785156 332.363281 C 251.703125 332.46875 272.257812 328.941406 292.59375 324.191406 C 322.582031 317.179688 352.777344 311.933594 383.777344 313.667969 C 394.566406 314.273438 405.210938 315.847656 415.773438 318.136719 C 424.875 320.113281 429.101562 316.511719 429.542969 306.941406 C 430.300781 290.429688 426.5625 274.890625 419.667969 259.988281 C 413.769531 247.226562 406.492188 235.101562 403.039062 221.230469 C 388.601562 163.238281 419.25 93.1875 488.425781 77.574219 C 543.9375 65.046875 605.304688 95.75 621.253906 159.277344 C 621.972656 162.148438 622.492188 165.09375 623.472656 167.875 C 627.5 179.296875 623.8125 189.75 619.445312 200.046875 C 614.289062 212.203125 606.371094 222.519531 597.421875 232.117188 Z M 725.082031 206.878906 C 722.230469 218.59375 714.507812 226.449219 704.292969 231.769531 C 682.785156 242.980469 659.570312 246.027344 635.652344 244.867188 C 627.308594 244.464844 619.015625 243.441406 610.179688 241.496094 C 623.730469 226.980469 633.390625 210.929688 638.480469 192.296875 C 638.820312 191.054688 639.082031 189.777344 639.261719 188.5 C 639.578125 186.230469 640.410156 186.019531 642.566406 186.917969 C 664.410156 195.980469 687.421875 198.230469 710.785156 198.226562 C 714.136719 198.226562 717.4375 198.261719 720.722656 199.292969 C 724.667969 200.539062 726.054688 202.890625 725.082031 206.882812 Z M 725.082031 206.878906 " fill-opacity="1" fill-rule="nonzero"/></g><path fill="#000000" d="M 418.023438 372.09375 C 388.035156 363.992188 357.789062 366.738281 327.675781 371.472656 C 310.949219 374.105469 294.304688 377.144531 277.320312 377.621094 C 254.617188 378.257812 232.398438 375.335938 210.777344 368.398438 C 205.695312 366.765625 202.0625 368.128906 198.960938 372 C 193.339844 379.023438 192.371094 387.136719 193.433594 395.738281 C 195.011719 408.53125 199.945312 420.019531 206.953125 430.703125 C 208.070312 432.410156 208.886719 433.75 207.871094 436.179688 C 205.355469 442.199219 205.816406 448.570312 207.175781 454.835938 C 211.261719 473.707031 222.402344 487.828125 237.945312 498.425781 C 272.53125 522.003906 311.101562 532.96875 352.78125 533.46875 C 359.914062 533.417969 366.960938 533.0625 374.042969 532.324219 C 397.472656 529.878906 419.46875 523.425781 439.128906 510.082031 C 468.9375 489.84375 482.269531 453.910156 472.023438 420.101562 C 463.886719 393.261719 443.867188 379.070312 418.023438 372.089844 Z M 459.226562 451.035156 C 454.675781 484 432.5 501.03125 403.273438 510.898438 C 379.226562 519.011719 354.472656 520.007812 329.386719 516.722656 C 300.632812 512.957031 273.824219 503.953125 249.585938 487.910156 C 235.847656 478.8125 225.585938 466.902344 221.335938 450.546875 C 221.160156 449.871094 221.1875 449.140625 221.066406 447.917969 C 230.828125 454.640625 240.90625 459.558594 251.730469 463.074219 C 256.460938 464.613281 259.03125 462.488281 260.644531 458.851562 C 262.320312 455.0625 261.546875 451.394531 257.441406 449.433594 C 253.101562 447.359375 248.601562 445.621094 244.167969 443.746094 C 224.675781 435.507812 208.339844 410.273438 208.5625 389.070312 C 208.605469 384.90625 209.125 383.546875 213.929688 385.046875 C 241.046875 393.519531 268.800781 394.3125 296.84375 391.21875 C 319.203125 388.753906 341.222656 383.625 363.726562 382.480469 C 388.105469 381.242188 412.160156 382.632812 434.09375 395.019531 C 455.476562 407.09375 462.046875 430.628906 459.226562 451.039062 Z M 459.226562 451.035156 " fill-opacity="1" fill-rule="nonzero"/><path fill="#000000" d="M 550.398438 153.554688 C 537.519531 150.828125 525.871094 161.492188 525.722656 176.15625 C 525.589844 188.90625 534.386719 199.226562 545.5 199.371094 C 556.039062 199.503906 565.222656 190.839844 566.503906 179.546875 C 567.875 167.445312 560.609375 155.71875 550.402344 153.554688 Z M 550.398438 153.554688 " fill-opacity="1" fill-rule="nonzero"/></svg>