<svg xmlns="http://www.w3.org/2000/svg" xmlns:xlink="http://www.w3.org/1999/xlink" width="1080" zoomAndPan="magnify" viewBox="0 0 810 809.999993" height="1080" preserveAspectRatio="xMidYMid meet" version="1.0"><path fill="#000000" d="M 465.132812 147.246094 C 455.941406 151.476562 447.085938 157.855469 438.046875 166.75 C 428.375 176.273438 422.222656 185.035156 417.019531 193.089844 C 406.703125 209.046875 396.875 226.417969 387.679688 244.695312 C 377.941406 233.242188 367.976562 223.902344 359.804688 216.257812 C 323.046875 181.855469 263.746094 177.179688 246.347656 181.117188 C 230.160156 184.773438 224.847656 186.285156 210.800781 191.222656 C 195.542969 196.589844 192.003906 205.804688 191.65625 206.84375 L 188.875 214.976562 L 196.757812 212.859375 C 197.578125 212.929688 201.695312 213.59375 210.804688 219.722656 C 221.804688 227.117188 223.320312 234.601562 228.953125 262.453125 L 229.621094 265.753906 C 235.125 292.894531 248.875 336.882812 267.335938 365.710938 C 242.695312 358.558594 189.882812 347.359375 152.433594 368.652344 C 104.027344 396.175781 84.664062 439.371094 83.269531 454.847656 C 82.285156 465.71875 84.328125 472.851562 89.332031 476.046875 C 93.710938 478.847656 99.527344 478.191406 106.621094 474.105469 C 120.375 466.175781 143.707031 458.765625 157.414062 460.613281 C 160.300781 461.003906 165.613281 462.546875 172.34375 464.496094 C 195.1875 471.117188 235.175781 482.707031 270.421875 475.207031 C 267.324219 479.214844 264.324219 483.164062 261.59375 486.84375 C 251.964844 499.816406 256.214844 525.566406 259.621094 546.269531 C 261.136719 555.484375 262.707031 565.015625 261.914062 568.28125 C 258.480469 582.433594 259.257812 598.730469 260.511719 609.910156 C 261.144531 615.558594 263.015625 621.3125 264.824219 626.878906 C 267.449219 634.960938 269.933594 642.589844 267.832031 647.390625 L 267.121094 649 C 264.34375 655.285156 262.148438 660.25 264.683594 664.730469 C 266.988281 668.808594 272.152344 669.953125 276.394531 670.492188 C 286.859375 671.820312 313.546875 671.707031 335.296875 641.96875 C 341.789062 633.089844 346.902344 624.210938 351.410156 616.375 C 359.804688 601.789062 366.433594 590.273438 376.347656 588.730469 C 392.617188 586.207031 428.742188 566.296875 446.128906 540.46875 C 468.429688 558.640625 517.070312 574.003906 544.019531 582.511719 C 551.621094 584.914062 557.625 586.808594 559.863281 587.789062 C 567.53125 591.140625 600.710938 619.707031 621.140625 638.085938 L 623.660156 640.355469 L 626.566406 638.609375 C 630.804688 636.066406 633.878906 632.332031 636.050781 627.851562 C 646.632812 606.050781 635.898438 566.554688 634.046875 560.167969 C 622.390625 486.628906 578.195312 457.679688 552.652344 446.921875 C 578.703125 442.117188 594.535156 430.390625 609.859375 418.992188 C 617.945312 412.980469 625.578125 407.300781 634.683594 402.566406 C 654.699219 392.148438 658.613281 387.234375 664.90625 377.976562 C 667.414062 374.285156 670.257812 370.101562 675.320312 364.296875 C 682.957031 355.542969 693.347656 348.957031 702.519531 343.140625 C 712.96875 336.515625 722.082031 330.742188 725.878906 322.910156 C 726.125 322.40625 726.351562 321.890625 726.546875 321.371094 C 728.03125 317.496094 727.988281 313.992188 726.417969 310.960938 C 723.183594 304.714844 714.777344 302.5625 704.132812 299.839844 C 698.582031 298.417969 692.292969 296.808594 686.40625 294.453125 C 666.453125 286.484375 648.035156 284.601562 616.03125 287.261719 C 605.839844 288.109375 594.988281 288.6875 583.5 289.296875 C 562.113281 290.4375 540 291.609375 520.453125 294.683594 C 518.550781 294.984375 516.683594 295.367188 514.835938 295.808594 C 519.921875 276.84375 521.941406 258.132812 520.84375 240.082031 C 520.203125 229.59375 518.769531 223.527344 517.503906 218.171875 C 516 211.820312 514.703125 206.328125 514.675781 194.335938 C 514.671875 193.414062 514.679688 192.464844 514.683594 191.5 C 514.738281 182.351562 514.804688 170.960938 508.757812 158.214844 C 504.078125 148.347656 498.957031 144.359375 495.484375 142.753906 C 485.214844 138 474.550781 142.910156 465.132812 147.246094 Z M 238.605469 263.933594 L 237.9375 260.636719 C 232.03125 231.453125 230.042969 221.617188 215.925781 212.125 C 210.914062 208.757812 206.964844 206.667969 203.863281 205.410156 C 205.921875 203.59375 209.082031 201.539062 213.84375 199.867188 C 227.460938 195.074219 232.625 193.605469 248.367188 190.050781 C 263.898438 186.535156 319.761719 191.332031 353.539062 222.945312 C 384.066406 251.515625 440.890625 304.695312 408.21875 407.4375 C 408.097656 407.824219 407.898438 408.464844 407.644531 409.273438 C 405.375 414.566406 403.21875 419.777344 401.230469 424.71875 C 402.550781 403.613281 404.0625 370.214844 402.378906 349.558594 C 410.070312 353.410156 414.246094 347.375 414.246094 347.375 C 416.003906 341.792969 410.910156 339.28125 406.160156 336.972656 C 401.410156 334.667969 386.59375 330.8125 386.117188 335.53125 C 385.65625 340.148438 389.414062 340.085938 398.660156 347.128906 C 400.585938 366.8125 397.171875 402.40625 394.59375 424.566406 C 390.78125 393.617188 382.558594 341.925781 371.390625 311.269531 C 375.054688 311.828125 378.347656 311.1875 380.324219 307.25 C 380.324219 307.25 382.199219 296.191406 367.589844 294.578125 C 352.984375 292.964844 349.773438 289.539062 346.242188 293.992188 C 342.710938 298.445312 358.675781 307.480469 364.6875 309.457031 C 365.292969 309.65625 365.90625 309.855469 366.515625 310.046875 C 374.121094 329.824219 379.289062 359.570312 382.578125 386.386719 C 381.445312 381.988281 380.183594 377.621094 378.8125 373.289062 C 375.757812 363.949219 372.027344 354.84375 367.929688 345.917969 C 363.585938 337.109375 358.863281 328.496094 353.632812 320.203125 C 348.210938 312.042969 342.695312 303.933594 336.375 296.46875 C 324.027344 281.328125 310.070312 267.574219 294.65625 255.78125 C 307.457031 270.355469 319.660156 285.1875 330.679688 300.789062 C 341.707031 316.371094 351.496094 332.730469 359.660156 349.851562 C 363.769531 358.398438 367.398438 367.167969 370.621094 376.082031 C 373.949219 384.96875 376.554688 394.101562 378.902344 403.308594 C 379.757812 406.804688 380.519531 410.328125 381.230469 413.863281 C 372.179688 394.019531 359.695312 369.292969 346.140625 350.199219 C 347.0625 349.644531 347.917969 348.832031 348.679688 347.667969 C 348.679688 347.667969 351.777344 336.890625 337.445312 333.652344 C 323.113281 330.410156 320.304688 326.648438 316.296875 330.679688 C 312.289062 334.707031 327.136719 345.472656 332.890625 348.113281 C 335.820312 349.453125 338.867188 350.832031 341.65625 351.089844 C 359.835938 376.589844 373.90625 413.03125 380.941406 433.34375 C 380.617188 432.949219 380.324219 432.570312 379.976562 432.167969 C 374.769531 426.164062 361.671875 419.695312 345.089844 411.511719 C 325.167969 401.679688 300.378906 389.449219 286.929688 376.003906 C 263.539062 352.625 244.875 294.855469 238.605469 263.933594 Z M 174.898438 455.699219 C 167.527344 453.5625 162.199219 452.019531 158.640625 451.539062 C 142.214844 449.320312 117.21875 457.421875 102.042969 466.171875 C 97.714844 468.664062 95.148438 468.894531 94.269531 468.332031 C 93.210938 467.65625 91.625 464.226562 92.398438 455.671875 C 93.476562 443.753906 110.78125 402.875 156.96875 376.613281 C 199.558594 352.394531 267.425781 375.054688 276.613281 378.308594 C 277.875 379.777344 279.152344 381.183594 280.449219 382.480469 C 294.96875 396.992188 320.507812 409.597656 341.03125 419.726562 C 344.722656 421.546875 348.359375 423.34375 351.800781 425.085938 C 350.671875 424.820312 349.542969 424.558594 348.402344 424.292969 C 339.167969 422.148438 329.894531 420.363281 320.632812 418.449219 C 316.003906 417.484375 311.363281 416.574219 306.722656 415.683594 C 302.089844 414.75 297.433594 413.917969 292.765625 413.140625 C 283.441406 411.503906 274.109375 409.960938 264.773438 408.472656 C 255.542969 406.707031 245.84375 405.949219 236.332031 405.832031 C 217.230469 405.527344 198.242188 407.976562 179.925781 412.554688 C 198.6875 410.421875 217.5 409.683594 236.074219 411.195312 C 245.378906 412.019531 254.484375 413.210938 263.699219 415.390625 C 272.890625 417.371094 282.082031 419.296875 291.285156 421.128906 C 300.507812 422.867188 309.625 425.214844 318.824219 427.09375 C 321.652344 427.703125 324.480469 428.308594 327.308594 428.910156 C 316.378906 430.074219 306.199219 432.699219 302.101562 436.839844 C 298.035156 440.949219 289.339844 451.320312 280.105469 462.882812 C 245.03125 476.015625 199.550781 462.847656 174.898438 455.699219 Z M 374.941406 579.679688 C 360.683594 581.894531 353.085938 595.097656 343.46875 611.808594 C 339.074219 619.441406 334.097656 628.089844 327.898438 636.5625 C 309.027344 662.363281 286.402344 662.53125 277.550781 661.40625 C 274.371094 661 273.140625 660.449219 272.734375 660.207031 C 272.773438 658.882812 274.277344 655.476562 275.503906 652.703125 L 276.226562 651.0625 C 279.726562 643.074219 276.582031 633.402344 273.542969 624.050781 C 271.875 618.921875 270.148438 613.617188 269.621094 608.890625 C 268.449219 598.445312 267.703125 583.292969 270.820312 570.441406 C 271.996094 565.605469 270.828125 557.929688 268.664062 544.78125 C 265.707031 526.789062 261.648438 502.148438 268.953125 492.300781 C 282.089844 474.601562 302.109375 449.863281 308.621094 443.28125 C 313.65625 438.1875 346.433594 435.363281 356.664062 439.136719 C 364.859375 442.164062 376.777344 455.625 380.675781 460.554688 L 380.816406 460.722656 C 380.964844 460.894531 382.253906 462.347656 384.332031 464.140625 C 383.292969 465.480469 382.242188 466.8125 381.191406 468.113281 C 377.957031 472.105469 374.609375 476.027344 371.242188 479.941406 C 367.867188 483.882812 364.390625 487.621094 360.875 491.554688 C 357.269531 495.578125 354.023438 499.824219 351.082031 504.234375 C 345.105469 512.996094 340.019531 522.210938 335.40625 531.617188 C 330.773438 541.011719 326.640625 550.632812 323.0625 560.441406 C 327.878906 551.183594 333.023438 542.128906 338.382812 533.242188 C 343.789062 524.394531 349.429688 515.691406 355.734375 507.617188 C 357.3125 505.597656 358.90625 503.601562 360.601562 501.710938 C 362.210938 499.734375 363.980469 497.941406 365.714844 496.121094 C 369.324219 492.453125 373.128906 488.738281 376.722656 484.933594 C 380.371094 481.144531 383.902344 477.242188 387.339844 473.230469 C 388.59375 471.757812 389.820312 470.292969 391.035156 468.816406 C 394.992188 470.960938 399.75 472.476562 404.738281 471.59375 C 413.316406 470.074219 425.796875 466.613281 429.761719 465.488281 C 440.785156 468.535156 447.757812 473.332031 451.0625 480.125 C 456.953125 492.238281 450.519531 510.371094 443.453125 526.511719 C 431.707031 553.300781 391.984375 577.035156 374.941406 579.679688 Z M 625.039062 561.878906 L 625.167969 562.457031 C 629.492188 577.234375 637.144531 616.109375 624.433594 628.738281 C 612.761719 618.308594 573.847656 583.90625 563.539062 579.398438 C 560.851562 578.222656 554.949219 576.359375 546.78125 573.78125 C 521.78125 565.886719 470.898438 549.808594 450.800781 532.429688 C 450.832031 532.363281 450.871094 532.296875 450.902344 532.234375 C 451.230469 531.554688 451.546875 530.867188 451.847656 530.179688 C 460.152344 511.214844 466.804688 491.542969 459.304688 476.121094 C 455.945312 469.210938 449.90625 463.808594 441.355469 459.953125 C 446.597656 459.976562 451.808594 460.492188 456.878906 461.59375 C 464.867188 463.425781 472.601562 466.308594 479.90625 470.195312 C 487.257812 473.988281 494.308594 478.503906 501.113281 483.480469 C 504.554688 485.90625 507.957031 488.4375 511.34375 491.015625 L 521.351562 498.789062 C 527.734375 504.09375 533.996094 510.117188 540.40625 515.761719 C 553.117188 527.28125 565.902344 538.785156 579.304688 549.707031 C 568.625 536.113281 557.242188 523.191406 545.410156 510.65625 C 542.46875 507.5 539.484375 504.386719 536.417969 501.34375 C 533.351562 498.277344 530.324219 495.257812 527.011719 492.21875 C 523.554688 489.257812 520.246094 486.691406 516.84375 483.953125 C 513.433594 481.269531 509.992188 478.601562 506.445312 476.039062 C 499.28125 471.023438 491.800781 466.253906 483.734375 462.4375 C 475.652344 458.71875 467.054688 455.71875 458.097656 454.578125 C 450.929688 453.546875 443.625 453.742188 436.570312 454.957031 C 445.542969 450.441406 453.964844 447.328125 458.386719 448.292969 C 468.828125 450.570312 491.832031 453.492188 532.769531 449.453125 L 532.671875 450.070312 C 535.804688 450.582031 609.621094 463.738281 625.035156 561.878906 Z M 583.988281 298.445312 C 595.542969 297.828125 606.460938 297.25 616.789062 296.390625 C 647.207031 293.863281 664.53125 295.582031 683.003906 302.960938 C 689.441406 305.53125 696.039062 307.21875 701.859375 308.710938 C 708.921875 310.519531 716.929688 312.570312 718.277344 315.171875 C 718.59375 315.785156 718.5 316.769531 717.988281 318.101562 C 715.777344 323.890625 706.949219 329.488281 697.613281 335.410156 C 687.914062 341.554688 676.925781 348.523438 668.410156 358.28125 C 662.988281 364.5 659.847656 369.117188 657.324219 372.828125 C 651.984375 380.683594 649.304688 384.628906 630.449219 394.441406 C 620.699219 399.515625 612.40625 405.683594 604.390625 411.648438 C 587.871094 423.929688 572.269531 435.535156 544.035156 439.003906 C 494.808594 445.058594 469.109375 441.261719 460.347656 439.347656 C 446.949219 436.421875 420.285156 453.050781 409.847656 460.042969 C 422.296875 446.019531 451.972656 414.511719 484.945312 412.25 C 486.953125 418.019531 493.25 429.738281 496.859375 427.136719 C 497.023438 427.019531 497.617188 426.859375 498.464844 425.367188 C 501.238281 420.488281 499.75 414.753906 498.539062 410.339844 C 497.113281 405.136719 496.175781 401.722656 492.84375 399.625 C 490.683594 398.265625 488.421875 398.035156 487.015625 398.023438 C 482.355469 400.101562 482.851562 404.507812 483.996094 408.972656 C 454.660156 411.191406 428.34375 433.242188 413.265625 448.753906 L 414.328125 447.253906 L 419.144531 440.414062 C 420.71875 438.246094 422.414062 436.125 424.226562 434.070312 C 427.84375 429.957031 431.84375 426.09375 436.035156 422.4375 C 440.21875 418.773438 444.539062 415.234375 449.019531 411.898438 C 457.964844 405.1875 467.441406 399.160156 477.230469 393.683594 C 486.992188 388.214844 497.152344 383.175781 507.457031 379.035156 C 517.613281 374.847656 528.699219 372.191406 539.691406 368.757812 C 550.660156 365.363281 561.496094 361.605469 572.257812 357.71875 C 593.734375 349.789062 614.933594 341.117188 635.546875 331.199219 C 613.820312 338.335938 592.136719 345.375 570.308594 351.878906 C 559.414062 355.1875 548.5 358.359375 537.527344 361.261719 L 520.996094 365.632812 C 515.445312 367.09375 509.757812 368.75 504.273438 370.855469 C 482.613281 379.46875 462.148438 390.613281 443.65625 404.832031 C 439.023438 408.351562 434.519531 412.070312 430.265625 416.085938 C 425.980469 420.058594 421.875 424.261719 418.085938 428.828125 C 416.191406 431.109375 414.386719 433.496094 412.6875 436.003906 C 411.0625 438.445312 409.527344 440.90625 407.960938 443.363281 L 405.667969 446.980469 C 405.882812 446.261719 406.105469 445.53125 406.328125 444.785156 C 412.101562 433.242188 423.230469 412.460938 433.597656 402.558594 L 454.71875 380.855469 C 457.417969 385.296875 461.933594 390.863281 464.078125 388.890625 C 466.863281 386.328125 464.429688 384.367188 462.640625 374.753906 C 460.847656 365.144531 453.597656 366.929688 453.597656 366.929688 C 449.585938 369.328125 451.289062 373.519531 452.898438 377.414062 C 452.980469 377.613281 453.085938 377.84375 453.195312 378.078125 L 430.433594 399.246094 C 424.378906 405.027344 418.773438 412.382812 414.09375 419.394531 C 414.828125 417.035156 415.542969 414.738281 416.222656 412.550781 C 417.425781 409.738281 418.660156 406.910156 419.921875 404.082031 L 420.199219 404.257812 C 425.820312 386.839844 461.410156 359.097656 467.796875 354.234375 C 468.316406 354.257812 468.863281 354.257812 469.449219 354.222656 C 479.214844 353.683594 481.699219 355.578125 483.527344 352.265625 C 485.359375 348.957031 473.886719 344.773438 469.71875 344.136719 C 465.554688 343.5 461.074219 342.839844 459.695312 347.300781 C 459.695312 347.300781 459.707031 351.210938 463.417969 353.164062 C 457.246094 357.421875 444.085938 366.832031 432.917969 377.363281 C 438.417969 367.222656 443.9375 358.730469 448.984375 353.804688 L 453.855469 349.027344 C 474.472656 328.773438 495.789062 307.832031 521.875 303.730469 C 540.957031 300.734375 562.832031 299.570312 583.984375 298.445312 Z M 500.472656 162.136719 C 505.625 173 505.566406 182.800781 505.515625 191.445312 C 505.511719 192.4375 505.503906 193.410156 505.507812 194.359375 C 505.539062 207.40625 507.019531 213.660156 508.582031 220.28125 C 509.820312 225.519531 511.097656 230.9375 511.691406 240.640625 C 512.84375 259.511719 510.335938 279.195312 504.3125 299.175781 C 482.824219 307.746094 464.882812 325.351562 447.429688 342.496094 L 442.582031 347.25 C 439.207031 350.542969 435.683594 355.210938 432.128906 360.742188 C 433.445312 357.683594 434.730469 354.617188 435.980469 351.535156 C 441.347656 338.414062 446.003906 325.007812 450.070312 311.410156 C 454.15625 297.816406 457.371094 283.921875 460.136719 270.132812 C 463.046875 256.316406 465.433594 242.398438 467.636719 228.371094 C 464.550781 234.820312 462.25 241.535156 459.808594 248.1875 C 457.5 254.882812 455.261719 261.59375 453.207031 268.355469 C 449.007812 281.902344 445.332031 295.375 441.285156 308.804688 L 429.257812 349.183594 C 428.53125 351.617188 427.8125 354.054688 427.089844 356.488281 C 429.328125 310.691406 413.003906 277.183594 394.003906 252.496094 C 403.574219 233.140625 413.882812 214.820312 424.714844 198.058594 C 428.027344 192.9375 434.1875 183.402344 444.476562 173.277344 C 452.746094 165.140625 460.753906 159.347656 468.96875 155.5625 C 477.316406 151.71875 485.199219 148.089844 491.625 151.066406 C 492.707031 151.566406 496.535156 153.839844 500.46875 162.136719 Z M 500.472656 162.136719 " fill-opacity="1" fill-rule="nonzero"/></svg>