<svg xmlns="http://www.w3.org/2000/svg" xmlns:xlink="http://www.w3.org/1999/xlink" width="1080" zoomAndPan="magnify" viewBox="0 0 810 809.999993" height="1080" preserveAspectRatio="xMidYMid meet" version="1.0"><defs><clipPath id="f6baef7458"><path d="M 78 82 L 730 82 L 730 682.5 L 78 682.5 Z M 78 82 " clip-rule="nonzero"/></clipPath></defs><g clip-path="url(#f6baef7458)"><path fill="#000000" d="M 132.191406 480.894531 C 141.382812 487.421875 150.890625 494.175781 160.441406 506.023438 C 183.105469 534.121094 211.066406 541.949219 235.023438 542.03125 C 235.359375 550.296875 241.242188 566.722656 250.125 583.636719 C 257.535156 597.761719 273.1875 623.617188 294.699219 638.105469 C 315.785156 652.304688 333.734375 660.144531 352.894531 663.53125 C 370.753906 666.6875 390.25 666.132812 418.078125 661.679688 C 438.113281 658.472656 445.382812 652.445312 449.238281 647.339844 C 449.652344 647.636719 450.066406 647.933594 450.484375 648.230469 C 477.992188 667.765625 507.316406 679.289062 535.289062 681.566406 C 540.960938 682.027344 548.957031 682.484375 558.3125 682.484375 C 583.433594 682.484375 618.34375 679.175781 644.320312 663.734375 C 665.632812 651.0625 662.359375 637.691406 659.960938 632.53125 C 658.476562 629.332031 656.203125 627.753906 654.542969 626.597656 C 652.5625 625.222656 652.257812 625.011719 652.722656 622.5 C 663.695312 563.261719 621.332031 538.523438 584.015625 519.667969 C 659.441406 509.128906 683.847656 465.324219 700.636719 435.195312 C 705.804688 425.921875 710.265625 417.914062 715.167969 412.84375 C 728.378906 399.179688 732.457031 387.875 727.28125 379.253906 C 720.125 367.328125 697.21875 366.332031 689.433594 368.558594 C 678.167969 371.773438 672.207031 367.671875 665.308594 362.914062 C 658.40625 358.160156 650.777344 352.902344 638.023438 355.804688 C 645.105469 345.195312 649.875 332.546875 652.253906 318.003906 C 655.117188 300.523438 654.542969 280.296875 650.554688 257.878906 C 643.894531 220.46875 629.25 186.945312 625.914062 181.289062 C 620.832031 172.679688 616.984375 168.179688 613.589844 164.207031 C 609.0625 158.914062 605.488281 154.730469 600.6875 141.917969 C 598.445312 135.9375 594.132812 131.566406 587.875 128.929688 C 572.949219 122.632812 547.382812 127.074219 513.933594 141.761719 C 500.921875 147.480469 460.097656 167.15625 445.671875 194.460938 C 439.375 173.867188 429.9375 155.183594 417.949219 139.710938 C 394.691406 109.703125 362.605469 92.902344 325.15625 91.121094 C 323.199219 91.027344 321.65625 91.105469 320.292969 91.175781 C 316.320312 91.386719 314.679688 91.46875 307.625 85.296875 C 304.777344 82.804688 299.40625 81.011719 289.992188 86.617188 C 275.039062 95.523438 256.246094 118.832031 241.59375 145.941406 C 222.1875 127.464844 201.980469 117.792969 181.488281 117.179688 C 163.824219 116.652344 150.429688 122.960938 143.234375 126.351562 C 141.828125 127.015625 140.257812 127.757812 139.507812 128.007812 C 136.632812 127.382812 133.464844 127.140625 131.066406 129.234375 C 127.261719 132.558594 127.832031 138.527344 129.535156 156.246094 C 130.496094 166.261719 131.808594 179.972656 132.820312 198.476562 C 136.996094 274.996094 172.933594 311.925781 186.464844 325.828125 C 187.203125 326.585938 187.878906 327.28125 188.488281 327.917969 C 189.988281 329.488281 191.429688 330.957031 192.820312 332.34375 C 127.710938 320.964844 113.984375 329.519531 108.664062 332.839844 C 108.304688 333.0625 107.964844 333.273438 107.769531 333.371094 C 95.398438 339.554688 81.363281 367.742188 78.75 376.367188 C 78.003906 378.832031 77.699219 380.808594 78.636719 382.449219 C 86.738281 396.621094 87.453125 400.101562 89.574219 410.441406 C 90.234375 413.65625 91.054688 417.664062 92.265625 422.78125 C 100.71875 458.539062 116.003906 469.402344 132.1875 480.898438 Z M 416.957031 654.683594 C 364.355469 663.105469 336.714844 657.859375 298.65625 632.230469 C 278.433594 618.613281 263.5 593.878906 256.398438 580.347656 C 246.550781 561.585938 242.238281 546.804688 242.050781 541.839844 C 251.574219 541.289062 260.253906 539.632812 267.4375 537.746094 C 267.753906 537.917969 268.109375 538.046875 268.484375 538.113281 C 277.007812 539.664062 293.570312 551.410156 306.230469 561.882812 C 310.351562 565.292969 314.582031 570.027344 319.066406 575.035156 C 330.480469 587.78125 343.414062 602.230469 361.589844 603.269531 C 389.488281 604.863281 407.207031 619.433594 418.929688 629.074219 C 426.675781 635.441406 432.484375 640.222656 438.160156 638.828125 C 439.9375 640.28125 441.734375 641.703125 443.542969 643.09375 C 440.335938 647.246094 434.304688 651.90625 416.957031 654.679688 Z M 333.542969 464.132812 C 323.980469 452.667969 323.632812 442.140625 324.507812 436.300781 C 325.777344 427.84375 330.171875 422.695312 332.246094 421.820312 C 333.195312 421.417969 333.863281 421.273438 334.261719 421.273438 C 334.429688 421.273438 334.550781 421.300781 334.628906 421.339844 C 335.796875 421.957031 336.851562 426.019531 337.671875 429.820312 C 336.574219 430.40625 335.425781 431.507812 334.476562 433.507812 C 331.878906 438.976562 330.929688 451.296875 333.539062 464.132812 Z M 321.1875 423.984375 C 320.9375 421.375 320.570312 418.460938 320.1875 415.429688 C 319.457031 409.632812 318.632812 403.066406 318.535156 397.808594 C 318.398438 390.503906 319.753906 389.269531 319.730469 389.257812 C 319.75 389.253906 319.921875 389.234375 320.320312 389.339844 C 321.257812 389.59375 324.523438 391.453125 327.296875 404.832031 C 327.300781 404.855469 327.304688 404.875 327.308594 404.898438 C 327.324219 409.578125 327.484375 413.664062 327.757812 416.238281 C 325.460938 417.773438 323.105469 420.441406 321.1875 423.984375 Z M 358.011719 355.496094 C 358.476562 357.136719 359.078125 361.953125 356.902344 374.804688 C 356.558594 376.835938 356.183594 378.839844 355.804688 380.746094 C 354.832031 380 353.253906 379.167969 351.066406 379.167969 C 350.03125 379.167969 348.859375 379.355469 347.550781 379.820312 C 349.15625 373.148438 354.972656 358.175781 358.011719 355.496094 Z M 358.6875 398.914062 C 358.859375 398.816406 359.023438 398.722656 359.589844 398.992188 C 364.195312 401.199219 365.324219 406.636719 365.929688 410.707031 C 361.011719 413.167969 354.78125 421.460938 351.371094 437.707031 C 351.007812 436.941406 350.597656 436.207031 350.144531 435.515625 C 350.199219 434.972656 350.261719 434.320312 350.328125 433.574219 C 352.894531 406.082031 356.667969 400.058594 358.6875 398.914062 Z M 440.4375 375.96875 C 441.667969 375.457031 442.675781 375.3125 443.421875 375.3125 C 443.515625 375.3125 443.605469 375.3125 443.691406 375.316406 C 443.582031 377.8125 441.375 383.820312 427.703125 395.929688 L 427.511719 396.101562 C 426.183594 396.792969 424.851562 397.53125 423.613281 398.242188 C 430.683594 382.21875 437.007812 377.398438 440.4375 375.96875 Z M 425.476562 371.109375 C 430.117188 366.441406 433.8125 363.527344 436.128906 362.175781 C 435.121094 364.617188 432.894531 368.984375 427.953125 376.269531 C 427.8125 373.574219 427.011719 372.019531 425.476562 371.109375 Z M 461 385.609375 C 463.691406 385.957031 464.652344 386.53125 464.925781 386.742188 C 464.796875 388.261719 462.140625 391.886719 450.679688 400.488281 C 449.875 401.089844 449.230469 401.578125 448.703125 401.984375 C 447.59375 401.871094 446.378906 402.011719 445.039062 402.402344 C 446.121094 399.710938 446.222656 397.4375 445.128906 395.554688 C 444.609375 394.660156 443.929688 394.015625 443.164062 393.5625 C 455.582031 385.71875 459.902344 385.46875 461 385.609375 Z M 402.988281 477.628906 C 405.367188 475.25 407.613281 472.695312 409.386719 469.992188 C 409.4375 469.914062 409.488281 469.835938 409.539062 469.761719 C 425.101562 459.996094 431.984375 457.96875 434.707031 457.632812 C 431.300781 462.523438 418.09375 472 402.988281 477.628906 Z M 416.386719 485.75 C 415.636719 487.59375 412.023438 491.453125 406.902344 493 C 393.078125 497.179688 381.410156 499.082031 372.96875 498.597656 C 380.125 493.597656 393.21875 486.378906 415.277344 485.707031 C 415.765625 485.691406 416.128906 485.714844 416.386719 485.75 Z M 389.832031 384.28125 C 394.074219 380.746094 403.8125 374.210938 407.851562 373.25 C 407.945312 375.035156 407.53125 378.441406 406.539062 382.546875 C 406.382812 382.511719 406.226562 382.484375 406.070312 382.464844 C 400.585938 381.734375 395.496094 385.519531 390.664062 393.992188 C 390.4375 393.605469 390.183594 393.257812 389.902344 392.949219 C 389.835938 389.9375 389.835938 387.660156 389.835938 385.871094 C 389.835938 385.3125 389.835938 384.785156 389.832031 384.28125 Z M 405.398438 421.390625 C 405.773438 421.175781 406.089844 421.070312 406.339844 421.058594 C 407.1875 421.003906 408.285156 421.054688 408.707031 421.589844 C 410.648438 424.054688 407.691406 433.636719 406.269531 438.242188 C 405.207031 441.6875 404.484375 444.03125 404.378906 445.847656 C 404.242188 445.960938 404.101562 446.078125 403.964844 446.195312 C 403.484375 446.160156 402.976562 446.15625 402.429688 446.191406 C 398.910156 446.421875 394.449219 448.40625 389.953125 451.121094 C 391.378906 446.839844 393.175781 441.933594 395.148438 437.382812 C 399.460938 427.457031 402.917969 423.125 404.96875 421.664062 C 405.121094 421.582031 405.265625 421.492188 405.398438 421.386719 Z M 423.722656 450.058594 C 420.203125 452.375 416.585938 454.753906 413.078125 457.441406 C 412.789062 454.539062 411.667969 452.089844 410.300781 450.117188 C 412.578125 448.195312 414.519531 446.539062 416.203125 445.101562 C 423.425781 438.933594 425.605469 437.074219 429.238281 435.515625 C 434.335938 433.332031 438.78125 432.128906 440.875 432.007812 C 440.558594 438.636719 434.023438 443.277344 423.722656 450.058594 Z M 415.59375 436.324219 C 420.847656 429.0625 422.707031 427.53125 427.609375 423.507812 C 428.4375 422.828125 429.355469 422.070312 430.394531 421.203125 C 430.867188 421.007812 431.300781 420.707031 431.664062 420.300781 L 432.320312 419.574219 C 432.945312 419.042969 433.605469 418.472656 434.304688 417.867188 C 439.285156 413.53125 442.605469 411.324219 444.738281 410.203125 C 444.550781 410.503906 444.367188 410.800781 444.203125 411.09375 C 439.359375 415.078125 434.820312 420.335938 430.347656 425.515625 C 429.503906 426.492188 428.664062 427.464844 427.820312 428.429688 C 427.371094 428.613281 426.914062 428.804688 426.449219 429.003906 C 422.738281 430.59375 420.34375 432.324219 415.59375 436.324219 Z M 440.199219 425.003906 C 447.515625 416.8125 454.621094 410.277344 462.164062 411.605469 C 462.238281 411.707031 462.300781 411.878906 462.269531 412.160156 C 462.214844 412.707031 461.203125 417.664062 443.964844 425.328125 C 443.160156 425.089844 442.230469 424.96875 441.179688 424.96875 C 440.863281 424.96875 440.535156 424.980469 440.195312 425 Z M 430.863281 402.351562 C 431.039062 402.277344 431.207031 402.191406 431.367188 402.085938 C 433.339844 401.070312 435.125 400.25 436.109375 400.035156 C 437.234375 399.785156 438.03125 399.683594 438.582031 399.65625 C 437.898438 401.480469 435.449219 405.5625 427.378906 414.476562 C 425.710938 415.890625 424.308594 417.046875 423.109375 418.03125 C 420.390625 420.261719 418.460938 421.847656 416.386719 424.03125 C 416.324219 421.40625 415.726562 419.046875 414.277344 417.207031 C 414.066406 416.9375 413.820312 416.664062 413.542969 416.394531 C 414.199219 414.902344 416.089844 412.1875 422.261719 407.386719 C 423.070312 406.765625 427.195312 404.273438 430.863281 402.351562 Z M 417.96875 393.191406 C 417.894531 393.414062 417.84375 393.636719 417.8125 393.859375 C 416.25 397.28125 414.683594 401.128906 413.128906 405.464844 C 413.070312 405.621094 413.023438 405.78125 412.992188 405.941406 C 409.851562 408.871094 408.199219 411.144531 407.269531 413.0625 C 407.628906 410.882812 408.21875 408.152344 409.152344 405.042969 C 409.183594 404.964844 409.207031 404.882812 409.226562 404.800781 C 411.175781 398.390625 414.578125 390.386719 420.367188 382.207031 C 419.6875 386.398438 418.546875 391.367188 417.96875 393.191406 Z M 414.074219 369.164062 C 414.011719 369.023438 413.941406 368.890625 413.867188 368.761719 C 413.09375 367.402344 411.875 366.496094 410.433594 366.210938 C 406.800781 365.480469 401.496094 367.847656 396.5625 370.839844 C 400.066406 362.738281 403.476562 356.144531 411.0625 350.554688 C 413.738281 348.582031 415.003906 348.394531 415.316406 348.382812 C 415.984375 349.144531 417.40625 352.714844 414.070312 369.164062 Z M 395.914062 356.410156 C 395.882812 356.507812 395.855469 356.613281 395.832031 356.710938 C 394.160156 359.335938 392.761719 362.066406 391.472656 364.863281 C 391.453125 360.746094 390.160156 359.789062 389.304688 359.152344 C 389.011719 358.9375 388.328125 358.507812 387.367188 358.355469 C 390.804688 354.734375 395.019531 350.914062 397.554688 349.589844 C 397.453125 350.789062 397.066406 352.890625 395.914062 356.40625 Z M 404.222656 389.519531 C 404.410156 391.613281 403.496094 396.230469 403.074219 398.359375 C 402.636719 400.554688 402.355469 402.027344 402.277344 403.191406 C 400.519531 409.132812 399.871094 413.9375 399.738281 416.789062 C 396.816406 419.3125 393.90625 423.558594 390.90625 429.660156 C 390.582031 428.859375 390.152344 428.15625 389.601562 427.550781 C 388.941406 426.824219 387.867188 426.101562 386.175781 425.972656 C 391.480469 405.726562 398.976562 390.566406 404.222656 389.519531 Z M 386.347656 462.191406 C 392.195312 457.746094 398.976562 453.484375 402.929688 453.257812 C 403.546875 453.21875 403.851562 453.328125 403.894531 453.378906 C 410.371094 461.296875 401.019531 470.390625 390.003906 479.796875 C 388.101562 481.417969 386.460938 482.816406 385.144531 484.09375 C 385.085938 484.148438 385.03125 484.207031 384.976562 484.265625 C 374.953125 488.078125 368.628906 492.890625 365.007812 495.671875 C 367.023438 489.414062 370.921875 479.253906 375.503906 471.882812 C 376.335938 470.59375 380.296875 466.898438 385.113281 463.136719 C 385.585938 462.917969 386.007812 462.59375 386.347656 462.1875 Z M 382.824219 393.238281 C 378.410156 397.058594 374.828125 401.605469 372.179688 405.652344 C 371.835938 404.222656 371.371094 402.71875 370.726562 401.238281 C 370.816406 401.101562 370.917969 400.949219 371.027344 400.785156 C 377.140625 391.585938 380.710938 387.007812 382.75 384.730469 C 382.75 385.097656 382.75 385.480469 382.75 385.867188 C 382.75 387.71875 382.75 390.082031 382.820312 393.234375 Z M 384.621094 433.203125 C 385.058594 436.050781 383.480469 443.238281 379.917969 454.636719 C 379.351562 456.453125 378.84375 458.066406 378.480469 459.367188 C 373.921875 463.136719 370.429688 466.628906 369.492188 468.140625 C 369.167969 468.65625 368.851562 469.1875 368.535156 469.730469 C 368.371094 466.394531 367.941406 462.988281 367.066406 459.894531 C 367.257812 459.554688 367.390625 459.175781 367.457031 458.769531 C 370.386719 441.191406 380.808594 434.308594 384.621094 433.199219 Z M 362.570312 446.871094 C 362.027344 448.070312 361.507812 449.222656 361.058594 450.335938 C 360.058594 449.644531 358.933594 449.109375 357.671875 448.757812 C 357.40625 448.683594 357.117188 448.628906 356.808594 448.601562 C 358.8125 430.914062 363.84375 422.230469 367.023438 418.78125 C 369.207031 432.199219 365.410156 440.59375 362.570312 446.871094 Z M 360.492188 485.910156 C 360.40625 486.339844 360.398438 486.765625 360.464844 487.171875 C 359.429688 489.929688 358.554688 492.5 357.890625 494.679688 C 357.234375 493.589844 356.644531 492.5 356.121094 491.421875 C 356.046875 491.210938 355.953125 491.007812 355.835938 490.8125 C 351.375 481.222656 351.796875 472.296875 352.636719 467.222656 C 353.644531 461.148438 355.675781 457.410156 356.789062 456.019531 C 362.769531 459.609375 361.933594 478.722656 360.492188 485.910156 Z M 384.019531 409.011719 C 380.941406 417.609375 378.898438 425.738281 378.253906 428.4375 C 377.074219 429.140625 375.824219 430.011719 374.554688 431.066406 C 374.933594 426.988281 374.832031 422.367188 373.925781 417.105469 C 374.964844 414.574219 378.9375 407.101562 384.953125 400.960938 C 384.941406 402.722656 384.726562 405.304688 384.019531 409.011719 Z M 382.554688 375.90625 C 379.394531 377.21875 374.890625 382.320312 366.34375 395.042969 C 365.824219 394.582031 365.261719 394.148438 364.65625 393.742188 C 367.34375 388.832031 371.992188 380.988281 377.507812 374.414062 C 377.75 374.195312 377.96875 373.941406 378.144531 373.664062 C 380.074219 371.425781 382.101562 369.359375 384.1875 367.632812 C 383.90625 369.777344 383.363281 372.648438 382.554688 375.90625 Z M 374.457031 357.082031 C 374.113281 358.789062 373.585938 361.449219 373.0625 364.109375 C 372.632812 366.289062 372.199219 368.46875 371.871094 370.113281 C 368.304688 374.382812 365.125 379.0625 362.511719 383.308594 C 363.03125 380.773438 363.546875 378.0625 363.992188 375.351562 C 364.675781 371.230469 365.105469 367.78125 365.335938 364.882812 C 368.332031 361.101562 372.257812 356.914062 374.828125 354.875 C 374.753906 355.46875 374.640625 356.195312 374.457031 357.082031 Z M 348.433594 387.21875 C 349.605469 386.53125 350.503906 386.257812 351.039062 386.257812 C 351.25 386.257812 351.40625 386.300781 351.496094 386.375 C 352.347656 387.054688 353.203125 390.621094 351.441406 396.160156 C 351.390625 396.316406 351.351562 396.476562 351.328125 396.632812 C 348.445312 401.070312 346.585938 408.167969 345.261719 416.410156 C 344.304688 398.191406 346.386719 388.421875 348.4375 387.21875 Z M 346.386719 461.34375 C 346.296875 461.78125 346.289062 462.214844 346.355469 462.632812 C 345.351562 466.65625 344.773438 471.40625 345.054688 476.539062 C 340.539062 466.914062 339.484375 456.675781 339.246094 452.726562 C 338.730469 444.238281 339.878906 438.585938 340.84375 436.566406 C 342.191406 437.078125 343.300781 438.007812 344.210938 439.382812 C 348.429688 445.765625 346.972656 458.527344 346.386719 461.34375 Z M 338.09375 415.160156 C 338.042969 415.128906 337.988281 415.101562 337.933594 415.074219 C 336.925781 414.539062 335.84375 414.246094 334.683594 414.195312 C 334.089844 406.511719 334.359375 388.15625 335.980469 379.140625 C 336.910156 382.480469 337.9375 387.40625 338.730469 393.660156 C 338.742188 393.773438 338.765625 393.890625 338.789062 394 C 337.824219 400.167969 337.746094 407.71875 338.097656 415.160156 Z M 318.699219 540.917969 C 318.75 540.890625 318.789062 540.84375 318.835938 540.808594 C 331.359375 530.679688 338.257812 515.917969 341.328125 507.828125 C 341.765625 514.277344 342.871094 520.042969 346.585938 532.855469 C 348.324219 538.855469 354.03125 560.78125 366.378906 576.398438 C 367.3125 577.578125 367.320312 577.585938 367.445312 577.621094 C 367.609375 577.664062 366.636719 576.449219 364.988281 573.542969 C 355.730469 557.230469 352.632812 536.960938 351.460938 530.636719 C 348.40625 514.164062 348.191406 509.207031 348.003906 493.085938 C 348.609375 493.679688 349.230469 494.253906 349.875 494.808594 C 351.222656 497.527344 352.894531 500.25 354.9375 502.929688 C 355.003906 503.015625 355.070312 503.09375 355.136719 503.171875 C 364.273438 537.871094 368.375 552.734375 393.851562 590.9375 C 399.453125 599.339844 406.199219 607.789062 413.738281 615.917969 C 401.710938 606.972656 385.226562 597.523438 361.992188 596.199219 C 346.742188 595.328125 334.84375 582.035156 324.347656 570.308594 C 319.679688 565.097656 315.277344 560.175781 310.746094 556.429688 C 304.25 551.050781 290.210938 539.949219 278.625 534.324219 C 304.992188 525.113281 327.089844 509.308594 338.011719 495.191406 C 337.714844 496.269531 337.375 497.445312 336.988281 498.765625 C 336.058594 501.929688 336.292969 501.980469 334.976562 507.378906 C 329.460938 530.03125 319.398438 539.785156 318.617188 540.835938 C 318.5625 540.914062 318.644531 540.945312 318.695312 540.917969 Z M 645.757812 621.210938 C 644.457031 628.21875 648.09375 630.746094 650.5 632.417969 C 651.816406 633.332031 652.859375 634.054688 653.535156 635.515625 C 654.105469 636.742188 654.433594 637.988281 654.558594 639.238281 C 650.433594 644.542969 641.792969 651.363281 621.25 655.324219 C 593.625 660.648438 557.433594 657.785156 552.15625 657.355469 C 474.351562 651.011719 433.195312 609.113281 414.5625 587.34375 C 413.054688 585.578125 413.078125 585.527344 412.929688 585.511719 C 412.902344 585.507812 412.90625 585.570312 412.921875 585.59375 C 426.597656 603.015625 461.121094 645.105469 530.035156 659.789062 C 553.9375 664.878906 581.542969 665.980469 598.621094 665.046875 C 612.308594 664.300781 629.425781 662.210938 643.046875 656.160156 C 642.296875 656.65625 641.519531 657.152344 640.695312 657.640625 C 605.847656 678.363281 551.644531 675.785156 535.859375 674.503906 C 479.355469 669.910156 425.691406 625.929688 399.746094 587.007812 C 377.285156 553.324219 372.074219 539.023438 364.492188 510.792969 C 373.75 518.0625 393.597656 523.160156 406.269531 526.480469 C 423.738281 531.0625 424.207031 531.582031 440.847656 543.296875 C 462.222656 558.34375 493.410156 549.980469 523.761719 572.253906 C 562.289062 600.53125 555.664062 617.753906 605.875 624.789062 C 606.347656 624.855469 606.359375 624.9375 606.542969 624.828125 C 606.601562 624.792969 606.527344 624.769531 605.710938 624.621094 C 556.515625 615.863281 563.96875 599.414062 526.472656 569.640625 C 497.082031 546.308594 467.253906 551.839844 447.394531 539.730469 C 442.902344 536.992188 434.171875 529.167969 425.039062 525.019531 C 415.367188 520.628906 398.925781 518.148438 382.238281 511.929688 C 374.976562 509.226562 371.25 507.082031 369 505.316406 C 381.023438 506.992188 396.863281 503.433594 408.953125 499.78125 C 409.460938 499.628906 409.96875 499.453125 410.476562 499.257812 C 410.691406 499.484375 410.941406 499.6875 411.226562 499.859375 C 412.226562 500.457031 413.148438 501.304688 414.324219 502.375 C 423.09375 510.390625 437.761719 523.804688 552.984375 521.972656 C 559.886719 521.863281 566.453125 521.519531 572.695312 520.960938 C 573.011719 521.71875 573.589844 522.367188 574.382812 522.761719 C 612.824219 541.980469 656.394531 563.765625 645.753906 621.210938 Z M 721.207031 382.898438 C 725.339844 389.785156 717.433594 400.304688 710.074219 407.917969 C 704.527344 413.65625 699.855469 422.039062 694.445312 431.746094 C 676.332031 464.25 648.960938 513.363281 552.875 514.890625 C 448.699219 516.539062 429.132812 505.75 420.882812 498.726562 C 454.582031 504.105469 516.617188 478.214844 600.140625 443.359375 C 608.625 439.820312 617.328125 436.1875 626.242188 432.488281 C 678.742188 410.699219 692.226562 401.3125 697.304688 397.78125 C 697.871094 397.386719 698.300781 397.085938 698.660156 396.863281 C 702.832031 394.304688 706.214844 392.242188 708.96875 390.566406 C 716.441406 386.011719 719.574219 384.109375 721.144531 382.785156 C 721.164062 382.824219 721.1875 382.859375 721.210938 382.894531 Z M 661.289062 368.75 C 668.605469 373.789062 676.902344 379.507812 691.382812 375.367188 C 696.230469 373.984375 707.976562 374.464844 715.519531 378.15625 C 713.902344 379.265625 710.550781 381.304688 705.277344 384.515625 C 702.523438 386.199219 699.132812 388.261719 694.953125 390.820312 C 694.460938 391.125 693.925781 391.496094 693.253906 391.964844 C 688.820312 395.050781 675.316406 404.445312 623.523438 425.945312 C 614.605469 429.644531 605.898438 433.28125 597.414062 436.820312 C 513.773438 471.726562 452.039062 497.492188 421.058594 491.59375 C 422.917969 489.175781 423.933594 486.542969 423.535156 484.085938 C 423.347656 482.945312 422.40625 479.617188 417.773438 478.800781 C 430.597656 472.15625 441.027344 463.632812 442.417969 457.621094 C 442.898438 455.539062 442.226562 453.488281 440.660156 452.128906 C 445.136719 450.578125 452.773438 448.457031 460.714844 446.25 C 501.566406 434.894531 577.605469 413.761719 625.554688 370.289062 C 626.878906 369.089844 628.160156 367.84375 629.390625 366.5625 C 629.5 366.519531 629.609375 366.472656 629.71875 366.417969 C 646.058594 358.25 653.117188 363.117188 661.292969 368.75 Z M 516.789062 148.25 C 539.367188 138.332031 558.320312 133.214844 571.960938 133.214844 C 575.164062 133.214844 578.074219 133.5 580.667969 134.066406 C 566.453125 139.882812 551.34375 153.679688 543.273438 161.050781 C 541.546875 162.628906 539.769531 164.253906 539.0625 164.792969 C 537.984375 165.09375 534.878906 165.65625 531.871094 166.203125 C 521.675781 168.050781 502.699219 171.496094 483.527344 177.882812 C 470.324219 182.285156 462.179688 186.320312 456.898438 190.011719 C 473.074219 168.738281 505.636719 153.144531 516.789062 148.25 Z M 452.570312 205.445312 C 455.605469 199.855469 459.046875 193.515625 485.773438 184.605469 C 504.464844 178.375 523.117188 174.992188 533.136719 173.175781 C 538.234375 172.25 540.539062 171.820312 541.78125 171.363281 C 542.9375 170.933594 543.949219 170.035156 548.054688 166.285156 C 555.910156 159.113281 573.273438 143.261719 586.976562 139.347656 C 586.695312 140.359375 585.980469 142.257812 584.121094 146.105469 C 581.214844 152.125 581.363281 152.1875 578.699219 158.3125 C 576.328125 163.765625 572.671875 167.21875 565.160156 179.292969 C 564.855469 179.78125 564.78125 179.761719 564.808594 179.960938 C 564.8125 179.984375 564.867188 179.964844 564.890625 179.949219 C 564.929688 179.925781 564.953125 179.882812 564.984375 179.847656 C 574.488281 169.84375 578.816406 166.898438 582.414062 162.195312 C 582.644531 161.890625 587.265625 155.371094 589.742188 150.636719 C 590.363281 149.445312 590.890625 148.378906 591.351562 147.40625 C 592.207031 150.042969 593.285156 155.558594 591.046875 165.5 C 586.792969 184.398438 571.84375 207.046875 571 208.597656 C 570.949219 208.6875 571.054688 208.695312 571.09375 208.664062 C 571.148438 208.613281 571.183594 208.550781 571.234375 208.492188 C 582.5 194.734375 594.230469 178.074219 598.164062 163.167969 C 598.816406 160.695312 599.179688 158.425781 599.335938 156.335938 C 602.335938 161.929688 605.140625 165.214844 608.210938 168.808594 C 611.417969 172.5625 615.050781 176.8125 619.820312 184.886719 C 621.703125 188.078125 636.648438 220.148438 643.585938 259.117188 C 649.546875 292.609375 650.433594 338.167969 620.796875 365.035156 C 574.089844 407.382812 499.101562 428.222656 458.816406 439.417969 C 452.039062 441.304688 446.902344 442.742188 443 443.929688 C 446.105469 440.339844 448.046875 436.273438 447.976562 431.292969 C 463.023438 424.441406 470.011719 417.855469 469.328125 411.1875 C 468.964844 407.652344 466.3125 405.226562 464.003906 404.742188 C 461.574219 404.230469 459.246094 404.210938 456.996094 404.59375 C 465.992188 397.722656 473.425781 391.054688 471.796875 384.859375 C 470.894531 381.429688 467.574219 379.316406 461.921875 378.582031 C 461.265625 378.496094 460.542969 378.492188 459.78125 378.546875 C 477.175781 367.507812 487.25 359.46875 502.929688 342.261719 C 512.289062 331.984375 523.203125 319.496094 535.898438 300.828125 C 550.144531 279.882812 559.207031 262.761719 560.894531 259.707031 C 560.902344 259.6875 561.003906 259.558594 560.964844 259.511719 C 560.945312 259.492188 560.902344 259.527344 560.882812 259.507812 C 559.863281 261.089844 538.023438 297.140625 510.703125 325.816406 C 500.269531 336.769531 492.921875 343.652344 491.324219 345.148438 C 475.78125 359.703125 465.558594 366.699219 450.761719 375.84375 C 450.878906 374.121094 450.613281 372.519531 449.945312 371.050781 C 448.5625 368.027344 443.113281 368.222656 442.878906 368.230469 C 442.285156 368.257812 441.667969 368.320312 441.027344 368.433594 C 445.636719 359.480469 443.933594 357.433594 442.980469 356.292969 C 441.882812 354.976562 440.292969 354.230469 438.5 354.195312 C 436.050781 354.148438 433.019531 355.609375 429.832031 357.878906 C 434.839844 347.746094 442.070312 328.4375 451.367188 283.652344 C 455.824219 262.179688 455.375 236.605469 450.105469 211.640625 C 449.988281 211.09375 449.871094 210.546875 449.75 210 C 450.933594 208.46875 451.765625 206.933594 452.574219 205.441406 Z M 307.570312 94.339844 C 313.191406 98.382812 316.300781 98.476562 320.664062 98.253906 C 321.917969 98.1875 323.21875 98.117188 324.820312 98.195312 C 360.136719 99.875 390.402344 115.734375 412.351562 144.046875 C 445.273438 186.527344 452.054688 245.449219 444.425781 282.214844 C 435.167969 326.8125 427.949219 345.71875 423.207031 355.234375 C 423.457031 348.941406 422.355469 344.488281 419.140625 342.394531 C 415.988281 340.34375 411.855469 341.171875 406.859375 344.851562 C 406.023438 345.46875 405.226562 346.097656 404.46875 346.742188 C 404.179688 345.363281 403.585938 344.285156 402.679688 343.453125 C 401.65625 342.507812 399.367188 341.167969 395.503906 342.789062 C 391.84375 344.324219 386.398438 348.929688 382.035156 353.609375 C 382.066406 350.984375 381.421875 348.253906 378.800781 347.046875 C 377.488281 346.445312 373.921875 344.804688 365.027344 354.3125 C 364.460938 351.761719 363.503906 350.421875 362.480469 349.515625 C 361.5625 348.699219 359.015625 347.015625 355.179688 348.914062 C 354.761719 334.441406 362.324219 317.929688 352.007812 291.554688 C 348.660156 282.992188 346.097656 279.128906 339.171875 266.1875 C 309.996094 211.675781 315.683594 206.222656 328.125 177.339844 C 328.28125 176.972656 328.363281 176.980469 328.308594 176.765625 C 328.292969 176.699219 328.25 176.765625 327.875 177.515625 C 324.074219 185.160156 320.75 191.328125 318.613281 197.222656 C 313.054688 212.554688 314.632812 227.101562 335.855469 271.445312 C 341.082031 282.371094 345.835938 290.796875 348.722656 304.125 C 353.460938 325.980469 346.277344 339.046875 348.503906 353.90625 C 348.6875 355.140625 348.671875 355.617188 349.125 356.148438 C 347.632812 358.855469 346.085938 362.265625 344.492188 366.386719 C 343.382812 369.253906 342.480469 371.8125 341.792969 374.058594 C 339.484375 368.027344 337.1875 367.894531 335.933594 367.824219 C 331.425781 367.554688 330.027344 373.378906 329.488281 375.5625 C 328.808594 378.335938 328.304688 382.285156 327.953125 386.6875 C 326.269531 384.46875 324.347656 383.089844 322.160156 382.5 C 318.734375 381.578125 316.457031 382.742188 315.144531 383.882812 C 310.054688 388.316406 311.054688 399.601562 313.15625 416.316406 C 313.46875 418.785156 313.769531 421.179688 314 423.355469 C 307.328125 412.371094 300.367188 397.859375 297.441406 391.757812 C 296.691406 390.191406 296.140625 389.046875 295.84375 388.460938 C 276.972656 351.511719 271.523438 289.523438 272.59375 247.632812 C 273.054688 240.347656 281.527344 131.222656 282.699219 125.960938 C 286.128906 113.972656 297.417969 103.664062 304.160156 97.503906 C 305.46875 96.308594 306.613281 95.265625 307.570312 94.339844 Z M 293.621094 92.703125 C 296.589844 90.933594 299.15625 90.011719 300.960938 90.011719 C 301.25 90.011719 301.519531 90.035156 301.765625 90.082031 C 301.054688 90.75 300.246094 91.488281 299.382812 92.273438 C 292.085938 98.9375 279.867188 110.09375 275.890625 124.011719 C 274.414062 129.179688 265.535156 246.445312 265.511719 247.394531 C 265.265625 256.875 263.878906 341.445312 289.53125 391.6875 C 289.816406 392.242188 290.339844 393.332031 291.054688 394.820312 C 294.59375 402.199219 298.855469 410.851562 303.210938 418.777344 C 300.058594 415.519531 296.929688 412.359375 293.839844 409.234375 C 264.894531 379.976562 239.898438 354.710938 223.664062 282.945312 C 215.613281 247.351562 221.660156 204.960938 240.699219 163.578125 C 257.828125 126.339844 280.140625 100.734375 293.621094 92.703125 Z M 191.546875 320.886719 C 177.296875 306.246094 143.929688 271.957031 139.898438 198.089844 C 138.882812 179.441406 137.558594 165.644531 136.589844 155.566406 C 135.78125 147.128906 135.0625 139.632812 135.386719 136.214844 C 136.523438 144.710938 140.179688 152.277344 148.464844 159.484375 C 160.96875 170.363281 175.894531 175.472656 179.039062 194.75 C 182.800781 217.828125 174.21875 244.882812 173.136719 252.953125 C 169.601562 279.253906 175.835938 285.289062 181.8125 292.8125 C 182.652344 293.871094 182.628906 293.917969 182.761719 293.9375 C 182.789062 293.941406 182.789062 293.878906 182.773438 293.855469 C 177.046875 285.507812 170.636719 280.023438 175.515625 253.984375 C 177.039062 245.859375 184.703125 225.785156 185.121094 204.355469 C 185.382812 190.902344 182.777344 184.300781 180.496094 179.96875 C 169.652344 159.382812 144.984375 158.03125 142.3125 134.511719 C 143.394531 134.101562 144.65625 133.515625 146.261719 132.757812 C 159.554688 126.492188 194.675781 109.945312 238.179688 152.484375 C 236.824219 155.167969 235.515625 157.882812 234.257812 160.613281 C 221.675781 187.96875 214.605469 215.816406 213.328125 242.039062 C 211.675781 240.683594 209.71875 238.046875 208.085938 232.785156 C 205.863281 225.617188 205.160156 215.578125 205.054688 213.6875 C 203.164062 178.882812 205.21875 175.324219 180.914062 152.671875 C 180.425781 152.214844 180.460938 152.148438 180.242188 152.121094 C 180.210938 152.117188 180.234375 152.183594 180.25 152.210938 C 180.304688 152.292969 180.382812 152.363281 180.449219 152.4375 C 197.703125 171.875 199.761719 177.492188 199.320312 195.164062 C 198.976562 208.925781 197.984375 218.121094 199.640625 227.636719 C 200.527344 232.726562 203.273438 246.539062 213.117188 249.933594 C 213.070312 261.921875 214.261719 273.515625 216.746094 284.5 C 223.285156 313.394531 231.386719 335.136719 240.535156 352.632812 C 237.988281 351.710938 235.648438 350.957031 233.453125 350.253906 C 221.894531 346.539062 213.546875 343.855469 193.609375 323.015625 C 192.984375 322.363281 192.292969 321.652344 191.542969 320.882812 Z M 96.824219 410.503906 C 96.714844 409.988281 96.613281 409.492188 96.515625 409.011719 C 94.320312 398.316406 93.476562 394.210938 85.195312 379.636719 C 86.179688 373.65625 100.804688 344.777344 110.941406 339.707031 C 111.4375 339.460938 111.914062 339.160156 112.417969 338.847656 C 116.878906 336.066406 130.453125 327.597656 201.304688 341.09375 C 201.582031 341.148438 201.914062 341.210938 202.179688 341.265625 C 202.199219 341.300781 202.226562 341.335938 202.25 341.375 C 202.753906 342.132812 203.5 342.632812 204.316406 342.84375 C 215.414062 351.902344 222.710938 354.25 231.292969 357.003906 C 235.742188 358.433594 240.335938 359.90625 246.097656 362.546875 C 259.027344 384.117188 273.695312 398.941406 288.804688 414.210938 C 298.121094 423.632812 307.75 433.363281 317.359375 445.035156 C 318.34375 453.496094 322.457031 464.441406 334.574219 475.351562 C 331.847656 477.25 325.6875 478.324219 317.371094 471.921875 C 310.832031 466.894531 308.941406 462.699219 303.292969 458.296875 C 286.472656 445.1875 270.976562 456.226562 247.296875 450.679688 C 225.785156 445.640625 210.359375 437.050781 193.765625 424.730469 C 185.183594 418.355469 169.324219 405.53125 168.265625 404.859375 C 168.234375 404.839844 168.105469 404.875 168.191406 404.949219 C 193.351562 426.59375 210.800781 445.105469 245.238281 455.171875 C 258.59375 459.078125 268.015625 458.054688 278.121094 457.992188 C 289.984375 457.917969 296.46875 460.023438 304.371094 469.183594 C 316.148438 482.835938 326.117188 484.855469 332.691406 483.582031 C 326.027344 490.480469 309.867188 500.738281 288.726562 504.828125 C 268.25 508.792969 229.710938 509.066406 201.703125 466.316406 C 182.636719 437.222656 175.886719 436.167969 143.449219 431.101562 L 142.929688 431.019531 C 125.207031 428.25 105.332031 415.804688 98.800781 411.71875 C 97.835938 411.113281 97.242188 410.742188 96.824219 410.5 Z M 98.925781 420.132812 C 107.976562 425.632812 125.5 435.472656 141.832031 438.027344 L 142.351562 438.105469 C 173.625 442.992188 178.433594 443.742188 195.769531 470.207031 C 226.046875 516.410156 267.847656 516.089844 290.070312 511.789062 C 303.9375 509.101562 316.839844 503.617188 326.441406 497.511719 C 314.226562 509.609375 293.433594 523.023438 268.214844 530.191406 C 244.160156 537.023438 198.878906 542.398438 165.957031 501.574219 C 155.789062 488.964844 145.429688 481.609375 136.292969 475.117188 C 120.578125 463.949219 107 454.308594 99.164062 421.148438 C 99.082031 420.804688 99.003906 420.464844 98.925781 420.132812 Z M 98.925781 420.132812 " fill-opacity="1" fill-rule="evenodd"/></g></svg>