<svg xmlns="http://www.w3.org/2000/svg" xmlns:xlink="http://www.w3.org/1999/xlink" width="1080" zoomAndPan="magnify" viewBox="0 0 810 809.999993" height="1080" preserveAspectRatio="xMidYMid meet" version="1.0"><path fill="#000000" d="M 425.449219 629.480469 C 404.667969 633.664062 383.378906 631.089844 362.597656 633.066406 C 365.355469 638.761719 374.09375 642.714844 379.011719 647.035156 C 386.875 652.320312 395.242188 657.832031 404.851562 658.980469 C 413.265625 659.394531 421.863281 659.164062 430.09375 661.371094 C 454.277344 668.265625 448.761719 699.421875 424.714844 701.210938 C 402.1875 704.335938 380.988281 690.320312 358.414062 693.125 C 351.289062 692.988281 344.667969 697.859375 344.714844 705.484375 C 343.378906 721.386719 326.460938 728.507812 312.34375 727.863281 C 299.609375 727.957031 285.035156 720.007812 284.390625 705.992188 C 284.113281 701.074219 281.769531 698.683594 276.941406 698.042969 C 254.320312 695.742188 234.042969 709.988281 211.699219 709.898438 C 193.398438 711.503906 173.949219 692.757812 188.617188 675.984375 C 198.179688 664.21875 213.445312 669.136719 226.179688 665.460938 C 230.042969 663.667969 234.273438 662.472656 237.996094 660.40625 C 213.628906 658.796875 187.101562 654.019531 161.949219 652.226562 C 142.269531 651.261719 124.339844 663.945312 104.570312 661.234375 C 94.730469 660.726562 84.980469 653.515625 83.832031 643.035156 C 82.546875 630.949219 93.074219 621.761719 104.386719 620.886719 C 113.808594 619.921875 123.605469 621.714844 132.203125 616.980469 C 134.960938 615.097656 163.605469 604.710938 158.546875 600.484375 C 115.375 570.109375 87.097656 518.871094 89.535156 465.613281 C 90.546875 431.472656 103.878906 382.484375 133.441406 362.40625 C 137.71875 355.972656 138.132812 347.058594 141.03125 339.84375 C 149.351562 312.269531 165.765625 287.960938 184.109375 266.042969 C 206.824219 239.527344 234.410156 217.515625 264.847656 200.515625 C 279.425781 192.011719 294.828125 185.257812 310.550781 179.285156 C 313.953125 177.8125 318.277344 177.585938 320.207031 174 C 332.710938 147.992188 353.402344 128.921875 383.058594 126.027344 C 399.703125 123.726562 416.253906 128.230469 430.738281 136.457031 C 436.441406 138.890625 442.460938 136.546875 448.300781 136.546875 C 468.625 135.859375 488.855469 136.917969 508.992188 139.304688 C 511.660156 139.582031 513.5 138.386719 515.292969 136.6875 C 526.878906 125.65625 540.488281 115.6875 556.71875 113.480469 C 610.511719 105.621094 639.386719 163.9375 623.707031 209.84375 C 619.894531 216.414062 624.71875 220.042969 627.203125 225.742188 C 631.480469 234.796875 646.605469 229.097656 656.214844 240.953125 C 677.183594 262.78125 656.8125 288.972656 643.480469 308.6875 C 627.433594 330.789062 607.480469 350.089844 584.167969 364.425781 C 579.890625 366.632812 588.8125 375.316406 590.007812 378.765625 C 596.582031 389.746094 603.203125 400.773438 608.445312 412.445312 C 620.304688 436.664062 609.042969 434.871094 634.789062 434.78125 C 667.203125 435.148438 699.207031 454.953125 696.722656 490.703125 C 693.226562 529.855469 662.835938 559.910156 632.492188 581.414062 C 644.125 586.195312 656.628906 588.765625 668.953125 591.433594 C 682.929688 593.589844 697.410156 586.835938 710.882812 593.363281 C 722.011719 597.957031 727.066406 613.03125 717.734375 622.175781 C 712.308594 626.402344 729.046875 636.832031 712.632812 650.710938 C 686.699219 666.425781 657.320312 644.644531 629.917969 644.828125 C 597.824219 642.300781 565.59375 650.113281 533.683594 644.738281 C 514.695312 642.070312 488.992188 637.523438 483.980469 615.601562 C 483.707031 614.085938 482.738281 614.316406 481.636719 614.683594 C 463.335938 621.164062 444.578125 625.894531 425.449219 629.480469 M 558.695312 554.210938 C 570.097656 545.710938 580.671875 535.140625 592.167969 526.316406 C 609.457031 514.554688 635.25 490.0625 655.847656 488.636719 C 616.078125 511.015625 581.640625 541.574219 546.972656 571.074219 C 538.878906 578.289062 531.707031 586.789062 522.601562 592.765625 C 516.992188 597.636719 493.359375 607.378906 493.085938 612.800781 C 495.382812 635.410156 535.753906 636.191406 553.132812 638.210938 C 579.109375 638.808594 605.042969 634.582031 631.066406 636.558594 C 654.375 636.191406 686.101562 654.664062 706.101562 644.371094 C 717.964844 636.558594 704.171875 623.460938 694.101562 624.105469 C 676.996094 624.105469 657.59375 624.519531 644.445312 611.925781 C 651.15625 611.972656 657.503906 616.660156 664.167969 618.039062 C 670.238281 619.277344 677.824219 621.578125 683.527344 618.453125 C 678.789062 614.363281 683.203125 614.179688 686.976562 614.40625 C 694.5625 613.949219 701.734375 618.128906 708.953125 618.039062 C 713.597656 615.375 714.285156 608.941406 710.699219 604.988281 C 702.5625 596.53125 690.792969 600.070312 680.585938 600.578125 C 661.960938 601.128906 643.480469 595.246094 626.652344 587.664062 C 620.304688 583.988281 608.351562 593.683594 600.902344 595.109375 C 587.847656 599.980469 547.339844 610.363281 535.9375 604.207031 C 592.671875 600.394531 650.972656 569.972656 679.066406 519.242188 C 684.90625 507.84375 689.273438 494.5625 687.617188 481.605469 C 687.527344 477.238281 682.789062 478.433594 680.078125 476.089844 C 671.296875 469.75 663.941406 460.882812 660.398438 450.585938 C 650.558594 440.523438 619.296875 441.582031 606.097656 445.257812 C 597.59375 447.417969 589.269531 449.945312 581.453125 454.035156 C 577.132812 456.195312 580.074219 460.972656 580.03125 464.511719 C 581.730469 496.035156 575.707031 528.15625 558.191406 554.671875 C 558.28125 554.53125 558.375 554.347656 558.695312 554.210938 M 430.1875 344.898438 C 409.957031 342.230469 389.449219 338.097656 370.78125 329.550781 C 365.726562 327.066406 360.988281 323.988281 356.160156 321 C 352.988281 319.027344 350.964844 319.667969 349.679688 323.390625 C 349.265625 325.089844 347.746094 327.296875 345.910156 327.066406 C 339.609375 319.070312 357.585938 305.792969 364.898438 309.558594 C 365.128906 313.417969 354.78125 314.199219 360.023438 317.507812 C 378.277344 328.03125 399.152344 333.132812 419.65625 337.269531 C 485.957031 348.574219 561.683594 339.980469 619.707031 304.550781 C 634.605469 293.339844 659.480469 280.425781 655.800781 258.550781 C 650.605469 238.425781 627.523438 238.929688 611.203125 234.796875 C 591.664062 226.570312 582.835938 222.203125 575.707031 201.339844 C 574.511719 202.582031 574.972656 204.605469 573.269531 205.429688 C 573.546875 193.851562 574.648438 180.710938 580.074219 169.863281 C 585.777344 157.503906 597.960938 146.519531 612.03125 153.046875 C 594.652344 113.847656 547.9375 112.148438 521.363281 143.394531 C 512.164062 152.171875 498.785156 146.382812 487.707031 145.738281 C 485.820312 145.601562 484.808594 147.625 483.519531 148.726562 C 511.152344 156.675781 494.003906 174.6875 473.359375 171.886719 C 471.84375 172.347656 462.003906 169.40625 463.75 172.160156 C 465.175781 175.652344 467.703125 178.871094 467.335938 182.777344 C 453.453125 167.886719 441.039062 150.242188 421.820312 141.605469 C 393.035156 126.4375 354.324219 135.722656 336.4375 163.109375 C 316.621094 187.738281 324.207031 222.15625 305.953125 243.710938 C 304.207031 245.59375 302.460938 248.214844 299.148438 247.753906 C 297.402344 248.03125 296.710938 248.351562 298.78125 249.132812 C 306.046875 257.769531 293.769531 266.410156 289.078125 273.027344 C 281.953125 280.148438 274.964844 288.375 265.125 291.636719 C 255.5625 293.84375 253.492188 284.011719 256.203125 277.117188 C 259.46875 266.914062 267.011719 258.828125 275.609375 252.714844 C 281.585938 247.523438 289.261719 246.375 296.804688 245.59375 C 307.101562 241.273438 311.792969 229.832031 312.023438 219.261719 C 311.195312 188.703125 328.851562 179.972656 301.125 192.609375 C 294.320312 195 310.597656 202.214844 293.816406 221.007812 C 284.757812 230.707031 270.550781 233.96875 262.410156 244.8125 C 254.871094 253.957031 253.214844 266.777344 243.882812 274.542969 C 228.800781 286.675781 211.144531 295.773438 199.515625 311.8125 C 193.078125 319.808594 188.523438 329.089844 184.15625 338.28125 C 182.871094 340.808594 181.261719 343.152344 178.226562 344.070312 C 177.488281 344.253906 176.570312 345.082031 176.433594 345.722656 C 175.238281 351.605469 172.25 356.429688 167.835938 360.335938 C 160.9375 367.320312 149.351562 363.738281 149.214844 353.582031 C 149.351562 344.023438 152.753906 333.042969 159.972656 326.378906 C 166.730469 320.40625 177.214844 324.265625 177.261719 333.960938 C 177.71875 336.210938 176.664062 338.785156 177.8125 340.851562 C 182.042969 337.683594 182.871094 331.753906 185.304688 327.25 C 190.316406 316.269531 198.132812 307.261719 206.320312 298.53125 C 217.214844 286.398438 233.355469 280.65625 244.203125 268.753906 C 246.871094 265.167969 249.585938 261.492188 251.191406 257.402344 C 261.769531 227.257812 287.515625 230.613281 296.480469 209.292969 C 298.320312 205.339844 298.917969 196.195312 292.847656 196.378906 C 282.230469 200.285156 272.664062 206.582031 262.734375 211.957031 C 235.972656 229.097656 250.367188 217.699219 240.34375 239.070312 C 233.214844 251.613281 220.753906 258.230469 207.46875 262.457031 C 203.972656 264.527344 202.089844 263.195312 198.410156 262.734375 C 198.273438 263.746094 197.71875 264.894531 198.042969 265.722656 C 201.765625 281.023438 187.191406 298.164062 176.339844 307.675781 C 168.847656 314.9375 163.375 310.523438 161.671875 314.476562 C 145.628906 341.3125 139.742188 372.789062 141.8125 403.761719 C 141.8125 406.566406 143.144531 406.015625 144.707031 405.507812 C 153.304688 402.566406 162.132812 402.519531 170.871094 404.082031 C 176.203125 405.050781 181.351562 407.253906 186.59375 408.863281 C 187.835938 409.230469 188.480469 409.09375 188.847656 407.484375 C 190.226562 400.546875 193.675781 392.550781 201.8125 392 C 216.296875 392.457031 218.273438 411.390625 215.238281 422.28125 C 214.136719 425.679688 218.546875 426.875 220.203125 429.175781 C 224.710938 433.769531 229.214844 438.410156 233.675781 443.097656 C 235.652344 445.121094 236.113281 445.027344 237.539062 442.410156 C 243.007812 433.171875 248.941406 424.164062 254.550781 414.972656 C 262.320312 402.199219 271.101562 389.058594 272.894531 373.847656 C 275.515625 359.050781 270.871094 344.160156 269.816406 329.410156 C 269.125 311.855469 273.539062 293.707031 286.042969 280.792969 C 293.632812 273.164062 301.675781 265.90625 309.265625 258.367188 C 310.828125 256.714844 310.78125 253.773438 312.757812 252.304688 C 314.875 254.507812 312.988281 257.863281 312.574219 260.4375 C 314.917969 259.65625 316.574219 257.632812 318.78125 256.578125 C 318.875 260.804688 313.265625 260.757812 310.6875 262.734375 C 307.285156 265.214844 304.066406 268.019531 301.035156 270.960938 C 267.011719 301.152344 273.722656 323.804688 279.285156 363.96875 C 281.261719 386.207031 269.078125 405.324219 258.089844 423.613281 C 232.34375 466.347656 226.871094 475.816406 234.320312 526.457031 C 239.882812 564.183594 251.46875 601.3125 271.652344 633.890625 C 279.5625 648.136719 297.953125 648.917969 312.023438 652.410156 C 311.011719 653.191406 310.183594 654.386719 308.757812 653.925781 C 297.035156 652.503906 284.804688 651.996094 274.414062 645.746094 C 271.699219 643.359375 265.214844 652.546875 261.675781 653.835938 C 247.746094 661.601562 235.332031 675.296875 218.6875 676.03125 C 216.019531 675.847656 213.308594 675.890625 210.640625 676.03125 C 198.179688 675.25 183.375 690.230469 199.699219 698.085938 C 224.25 706.910156 247.605469 688.300781 272.296875 688.53125 C 280.066406 688.53125 290.273438 690.503906 292.941406 699.050781 C 294.046875 706.128906 294.414062 713.621094 302.183594 716.421875 C 310.644531 719.683594 320.667969 719.273438 328.621094 715.089844 C 333.722656 712.195312 336.070312 707.414062 335.929688 701.441406 C 335.839844 696.480469 338.183594 692.527344 342.136719 689.863281 C 366.367188 674.605469 394.1875 693.078125 419.933594 692.621094 C 428.027344 692.710938 440.347656 686.691406 435.703125 677.085938 C 426.554688 661.554688 404.207031 673.042969 390.230469 663.808594 C 379.289062 658.796875 369.863281 651.539062 360.851562 643.679688 C 359.335938 642.300781 358.09375 642.164062 356.574219 643.632812 C 350.507812 649.011719 342 652.273438 334.09375 651.125 C 341.171875 645.976562 355.609375 646.757812 354.367188 634.351562 C 354.09375 586.605469 332.300781 541.710938 309.265625 501.136719 C 311.882812 500.953125 314.550781 505.085938 316.574219 506.742188 C 317.953125 508.304688 318.875 508.488281 320.160156 506.789062 C 324.390625 501.363281 328.851562 496.082031 332.757812 490.429688 C 351.609375 464.511719 371.75 427.65625 349.355469 398.109375 C 352.4375 398.109375 354.734375 401.785156 356.53125 403.898438 C 370.367188 427.703125 361.082031 457.800781 348.527344 480.226562 C 342.917969 490.933594 335.242188 500.125 327.929688 509.636719 C 324.527344 514.277344 324.757812 513.589844 327.148438 517.953125 C 340.757812 542.585938 353.171875 568.316406 358.507812 596.164062 C 360.070312 604.574219 362 612.9375 362.140625 621.53125 C 362.09375 624.976562 365.496094 624.609375 367.933594 624.105469 C 403.289062 624.886719 438.785156 621.164062 472.117188 608.847656 C 539.707031 587.617188 580.074219 527.007812 571.292969 456.421875 C 566.742188 428.023438 558.695312 397.742188 571.617188 370.492188 C 510.097656 401.511719 434.460938 415.066406 368.574219 390.207031 C 370.78125 387.679688 382.554688 392.871094 386.507812 392.871094 C 406.414062 396.59375 426.507812 398.523438 446.738281 397.007812 C 519.613281 393.515625 596.765625 362.449219 638.375 300.230469 C 629.640625 305.054688 621.777344 312.042969 612.949219 316.910156 C 600.261719 324.082031 586.605469 329.640625 572.71875 334.007812 C 526.601562 347.285156 477.820312 351.605469 430.1875 344.898438 M 122.363281 423.707031 C 124.523438 417.6875 134.5 414.882812 134.085938 408.402344 C 131.144531 396.960938 134.363281 385.105469 133.167969 373.617188 C 108.292969 397.238281 97.902344 438.871094 98.730469 472.460938 C 98.316406 548.28125 160.800781 612.847656 236.617188 614.960938 C 226.410156 619.921875 209.308594 615.832031 198.089844 614.363281 C 188.894531 612.476562 179.972656 609.492188 171.558594 605.21875 C 170.179688 604.527344 169.121094 604.621094 168.066406 605.90625 C 158.457031 616.476562 144.292969 620.613281 131.789062 626.539062 C 123.097656 631.59375 113.074219 627.964844 103.785156 630.125 C 100.0625 630.996094 96.570312 632.605469 94.316406 636.003906 C 87.1875 649.101562 105.210938 654.386719 114.59375 652.457031 C 137.949219 646.757812 161.71875 641.015625 185.859375 646.070312 C 206.960938 648.503906 228.570312 653.421875 249.8125 651.628906 C 254.183594 648.503906 258.640625 645.425781 262.871094 642.117188 C 265.214844 640.234375 265.03125 639.453125 263.515625 636.925781 C 260.160156 631.273438 256.664062 625.667969 253.675781 619.832031 C 250.183594 615.1875 246.550781 597.726562 240.800781 598.234375 C 234.136719 597.636719 227.605469 594.832031 221.492188 592.304688 C 194.132812 581.136719 178.226562 555.128906 163.238281 531.1875 C 150.730469 511.105469 136.9375 491.714844 120.800781 474.4375 C 149.8125 489.28125 170.132812 541.480469 193.078125 566.15625 C 204.800781 580.449219 221.675781 590.191406 239.789062 593.683594 C 242.179688 594.234375 242.367188 593.777344 241.445312 591.433594 C 238.734375 583.804688 236.113281 576.128906 233.90625 568.363281 C 226.042969 534.128906 213.90625 487.902344 230.917969 455.367188 C 232.984375 451.324219 227.789062 448.105469 225.628906 445.210938 C 207.605469 426.507812 184.25 410.5625 157.351562 410.378906 C 155.144531 410.289062 155.28125 411.480469 155.925781 412.675781 C 159.464844 418.789062 153.582031 424.210938 152.570312 430 C 175.742188 425.085938 205.765625 450.910156 201.675781 474.898438 C 200.203125 480.960938 196.523438 485.417969 190.914062 487.902344 C 165.71875 496.90625 139.972656 470.4375 136.386719 446.820312 C 136.15625 445.488281 135.832031 444.890625 134.363281 445.671875 C 115.097656 455.871094 112.84375 435.882812 122.363281 423.707031 M 147.648438 464.144531 C 157.214844 478.480469 184.066406 496.90625 196.617188 476.644531 C 198.777344 470.714844 198.316406 465.0625 195.375 459.457031 C 188.480469 446.683594 176.25 435.882812 161.671875 433.449219 C 154.132812 432.34375 147.558594 434.597656 142.683594 440.660156 C 137.902344 447.601562 144.15625 457.433594 147.648438 464.144531 M 572.257812 403.714844 C 572.71875 417.546875 574.648438 431.242188 577.269531 444.796875 C 577.546875 446.359375 578.144531 446.453125 579.523438 445.808594 C 583.203125 444.15625 586.925781 442.546875 590.695312 441.214844 C 595.339844 439.652344 600.121094 438.457031 604.8125 437.03125 C 614.742188 436.296875 581.179688 380.464844 576.582031 375.914062 C 572.902344 384.277344 572.628906 394.15625 572.257812 403.714844 M 285.355469 251.613281 C 273.355469 257.769531 262 268.570312 259.148438 282.171875 C 258.273438 287.363281 263.421875 289.019531 266.917969 286.492188 C 275.238281 281.207031 282.871094 274.910156 289.21875 267.375 C 296.34375 259.515625 302.046875 246.789062 285.355469 251.613281 M 584.214844 196.011719 C 585.226562 186.039062 586.144531 175.746094 596.628906 171.289062 C 595.203125 170.507812 590.144531 171.195312 592.074219 168.625 C 595.984375 163.980469 604.628906 161.640625 609.960938 165.085938 C 612.304688 166.648438 613.640625 169.589844 616.167969 170.96875 C 617.273438 164.535156 611.019531 158.699219 604.71875 158.558594 C 588.03125 159.066406 575.707031 185.488281 578.742188 200.332031 C 580.488281 213.566406 596.214844 228.222656 608.675781 218.390625 C 612.628906 212.738281 617.132812 206.167969 616.628906 199.042969 C 616.078125 199.640625 615.296875 200.101562 615.066406 200.835938 C 613.179688 205.984375 609.871094 210.117188 605.960938 213.839844 C 593.546875 223.445312 584.03125 207.730469 584.214844 196.011719 M 133.398438 441.167969 C 140.753906 434.6875 149.445312 429.082031 151.925781 418.972656 C 152.984375 415.066406 151.835938 412.308594 148.246094 411.574219 C 132.386719 408.359375 105.582031 454.125 133.398438 441.167969 M 475.015625 152.125 C 470.371094 152.585938 453.175781 152.125 455.382812 159.570312 C 463.335938 170.738281 482.003906 171.195312 492.121094 162.878906 C 498.28125 155.664062 479.75 152.265625 475.015625 152.125 M 166.042969 355.695312 C 171.835938 349.90625 173.8125 341.773438 172.570312 333.960938 C 167.191406 315.257812 150.730469 342.371094 152.9375 351.605469 C 152.847656 359.695312 161.765625 362.222656 166.042969 355.695312 M 199.144531 414.515625 C 201.8125 415.433594 210.042969 423.339844 211.742188 419.570312 C 214.503906 411.527344 210.777344 395.628906 200.570312 396.132812 C 193.859375 399.167969 189.492188 411.710938 199.144531 414.515625 M 178.6875 286.996094 C 174.363281 294.347656 167.742188 300.964844 165.488281 309.191406 C 178.457031 304.964844 195.328125 282.863281 193.535156 268.847656 C 187.238281 273.347656 183.742188 280.746094 178.6875 286.996094 M 230.871094 233.003906 C 221.582031 241.550781 211.375 249.636719 203.652344 259.609375 C 208.847656 259.515625 213.628906 255.886719 218.503906 254.050781 C 226.363281 250.1875 232.25 244.125 236.570312 236.585938 C 242.136719 225.652344 239.148438 226.800781 230.871094 233.003906 M 455.703125 151.207031 C 460.714844 148.863281 466.050781 147.945312 471.566406 147.992188 C 474.695312 147.667969 478.554688 149.277344 480.761719 146.429688 C 478.097656 144.222656 474.1875 145.1875 470.921875 144.820312 C 461.496094 145.1875 451.933594 144.957031 442.601562 146.015625 C 444.484375 148.773438 447.246094 150.839844 449.453125 153.277344 C 451.703125 155.480469 453.496094 152.265625 455.703125 151.207031 M 605.363281 175.332031 C 602.511719 171.105469 592.902344 173.496094 594.375 179.007812 C 594.925781 181.214844 595.664062 183.511719 596.996094 185.257812 C 603.066406 191.691406 612.121094 181.8125 605.363281 175.332031 M 675.710938 458.398438 C 673.640625 456.792969 671.617188 455.089844 669.410156 453.574219 C 668.308594 452.839844 666.929688 452.425781 665.6875 451.875 C 664.996094 454.722656 685.136719 478.988281 684.859375 471.910156 C 683.113281 466.761719 679.847656 462.351562 675.710938 458.398438 M 617.089844 232.082031 C 617.914062 232.175781 618.742188 232.269531 619.570312 232.359375 C 618.46875 229.695312 616.03125 221.699219 612.261719 225.097656 C 610.285156 227.441406 607.753906 226.570312 605.363281 227.535156 C 608.71875 229.925781 612.859375 230.476562 617.089844 232.082031 " fill-opacity="1" fill-rule="nonzero"/><path fill="#000000" d="M 341.449219 227.488281 C 334.507812 175.195312 388.070312 131.679688 432.992188 168.441406 C 471.382812 199.226562 463.429688 266.503906 412.992188 278.957031 C 376.207031 286.90625 346.230469 264.480469 341.449219 227.488281 M 396.164062 212.554688 C 407.75 201.753906 394.09375 186.773438 381.3125 190.082031 C 356.574219 203.59375 354.414062 241.089844 376.761719 258.09375 C 399.65625 279 442.1875 267.695312 447.152344 235.761719 C 447.429688 231.441406 449.867188 226.292969 447.289062 222.433594 C 446.785156 223.078125 445.957031 223.71875 445.863281 224.410156 C 444.992188 231.808594 442.554688 238.425781 437.679688 244.214844 C 428.808594 256.253906 409.359375 257.585938 399.195312 246.695312 C 391.058594 238.425781 387.609375 221.652344 396.164062 212.554688 M 437.082031 183.605469 C 404.851562 142.707031 348.988281 167.613281 347.425781 216.507812 C 347.105469 221.699219 353.496094 223.996094 356.117188 218.988281 C 359.058594 213.75 361.910156 208.371094 364.757812 203.042969 C 371.472656 191.003906 384.390625 182.824219 398.046875 181.167969 C 416.53125 178.226562 436.394531 188.105469 443.613281 205.753906 C 444.484375 207.589844 445.082031 209.84375 447.246094 210.484375 C 447.84375 199.640625 437.726562 191.691406 430.371094 184.984375 C 418.785156 175.195312 402.785156 172.390625 388.070312 174.597656 C 392.714844 168.257812 404.621094 171.242188 411.613281 171.976562 C 425.3125 173.265625 433.636719 184.246094 442.507812 193.347656 C 441.222656 189.898438 439.015625 187.097656 437.082031 183.605469 M 377.542969 263.792969 C 367.378906 255.886719 359.195312 245.777344 356.117188 233.050781 C 355.335938 229.925781 353.449219 227.625 350 227.488281 C 348.070312 242.605469 357.769531 257.449219 369.769531 266.132812 C 382.78125 275.277344 402.644531 278.449219 416.761719 270.867188 C 403.242188 272.339844 389.175781 272.476562 377.542969 263.792969 M 428.808594 214.851562 C 433.496094 205.429688 419.289062 196.609375 412.667969 205.109375 C 404.347656 215.21875 423.289062 227.167969 428.808594 214.851562 " fill-opacity="1" fill-rule="nonzero"/><path fill="#000000" d="M 296.710938 519.882812 C 303.148438 532.796875 304.988281 548.605469 298.550781 561.792969 C 293.125 573.96875 276.988281 576.039062 267.652344 567.078125 C 251.285156 552.921875 246.917969 511.613281 272.390625 505.179688 C 282.917969 503.019531 292.113281 510.921875 296.710938 519.882812 M 297.769531 541.574219 C 296.757812 530.589844 294.183594 519.101562 284.804688 512.070312 C 279.5625 508.167969 270.414062 507.890625 265.722656 512.945312 C 254.640625 525.445312 257.859375 553.246094 270.414062 563.859375 C 287.332031 577.644531 299.699219 558.347656 297.769531 541.574219 " fill-opacity="1" fill-rule="nonzero"/><path fill="#000000" d="M 203.515625 330.421875 C 206.503906 320.863281 212.019531 312.824219 219.515625 306.296875 C 234.964844 292.007812 255.101562 297.613281 254.410156 320.21875 C 253.539062 336.808594 239.652344 354.777344 222.550781 356.707031 C 212.9375 358.269531 203.101562 351.054688 202.6875 341.3125 C 202.59375 337.773438 203.191406 334.234375 203.515625 330.421875 M 207.652344 332.03125 C 203.144531 346.6875 215.558594 357.394531 229.167969 350.410156 C 245.539062 343.933594 261.308594 312.59375 240.710938 302.667969 C 236.433594 301.472656 232.433594 303.035156 228.800781 305.011719 C 217.996094 310.707031 211.46875 320.542969 207.652344 332.03125 " fill-opacity="1" fill-rule="nonzero"/><path fill="#000000" d="M 505.132812 231.164062 C 468.578125 229.601562 464.808594 186.40625 504.671875 188.980469 C 543.523438 192.425781 543.9375 228.636719 505.132812 231.164062 M 497.773438 193.253906 C 463.199219 198.402344 485.726562 232.40625 510.96875 226.15625 C 526.1875 224.960938 538.050781 206.304688 520.441406 198.171875 C 513.453125 194.449219 505.914062 192.75 497.773438 193.253906 " fill-opacity="1" fill-rule="nonzero"/><path fill="#000000" d="M 313.035156 421.777344 C 338.414062 435.285156 307.746094 486.292969 283.5625 475.171875 C 261.769531 461.523438 291.011719 415.25 313.035156 421.777344 M 306.734375 463.683594 C 313.265625 455.550781 320.621094 445.902344 317.953125 434.824219 C 314.597656 417.640625 295.054688 427.933594 289.035156 437.722656 C 272.574219 457.574219 280.296875 488.175781 306.734375 463.683594 " fill-opacity="1" fill-rule="nonzero"/><path fill="#000000" d="M 554.648438 182.59375 C 566.28125 200.515625 538.511719 197.527344 529.222656 191.828125 C 523.570312 189.117188 519.0625 185.304688 515.292969 180.710938 C 511.429688 176.066406 513.359375 171.058594 519.15625 169.679688 C 531.84375 167.613281 546.328125 172.898438 554.648438 182.59375 M 551.109375 184.984375 C 547.386719 179.515625 540.625 177.492188 534.785156 175.148438 C 526.972656 171.65625 509.589844 172.207031 523.15625 182.777344 C 526.648438 189.027344 559.984375 200.238281 551.109375 184.984375 " fill-opacity="1" fill-rule="nonzero"/><path fill="#000000" d="M 236.160156 396.132812 C 214.59375 391.261719 227.148438 356.796875 245.859375 361.257812 C 262.597656 367.644531 253.996094 397.835938 236.160156 396.132812 M 248.34375 368.5625 C 236.066406 356.0625 220.019531 384.921875 234.917969 391.445312 C 245.953125 395.308594 254.410156 377.9375 248.34375 368.5625 " fill-opacity="1" fill-rule="nonzero"/><path fill="#000000" d="M 534.417969 150.425781 C 519.0625 144.5 534.832031 131.035156 544.441406 129.703125 C 546.375 129.195312 549.820312 132.828125 550.695312 135.355469 C 552.902344 144.132812 543.015625 153.320312 534.417969 150.425781 M 546.050781 142.246094 C 550.417969 128.371094 530.375 134.800781 532.949219 144.453125 C 533.960938 148.175781 540.351562 148.496094 542.742188 146.015625 C 543.796875 144.914062 544.765625 143.671875 546.050781 142.246094 " fill-opacity="1" fill-rule="nonzero"/><path fill="#000000" d="M 296.390625 374.078125 C 295.46875 377.15625 294.644531 380.050781 293.585938 382.808594 C 293.125 383.910156 292.113281 384.828125 291.332031 385.839844 C 295.148438 369.621094 294.871094 356.9375 288.894531 341.128906 C 287.699219 336.992188 286.273438 332.351562 287.652344 328.125 C 290.6875 338.234375 295.609375 348.066406 296.804688 358.589844 C 296.710938 363.785156 297.449219 369.023438 296.390625 374.078125 " fill-opacity="1" fill-rule="nonzero"/><path fill="#000000" d="M 554.191406 253.359375 C 555.984375 255.613281 557.777344 257.679688 559.339844 259.886719 C 559.753906 260.484375 559.570312 261.539062 559.660156 262.367188 C 556.488281 262.136719 554.191406 259.839844 551.476562 258.460938 C 546.144531 256.253906 550.417969 265.765625 551.984375 267.285156 C 545.820312 270.222656 542.050781 260.941406 542.28125 255.886719 C 543.660156 248.257812 549.316406 250.417969 554.191406 253.359375 " fill-opacity="1" fill-rule="nonzero"/><path fill="#000000" d="M 588.351562 236.679688 C 592.8125 235.347656 600.859375 246.097656 600.074219 250.003906 C 595.570312 249.867188 593.546875 245.179688 589.914062 243.160156 C 588.628906 245.871094 589.960938 248.214844 590.695312 250.785156 C 591.386719 253.085938 589.59375 253.820312 587.9375 252.992188 C 583.109375 249.453125 581.269531 238.976562 588.351562 236.679688 " fill-opacity="1" fill-rule="nonzero"/><path fill="#000000" d="M 132.109375 494.609375 C 138.039062 503.847656 144.203125 512.851562 145.167969 524.019531 C 147.511719 552.511719 125.535156 545.480469 116.570312 526.226562 C 113.210938 520.160156 110.777344 513.726562 109.855469 507.015625 C 107.234375 490.703125 119.144531 478.894531 132.109375 494.609375 M 120.984375 491.253906 C 103.328125 493.691406 120.890625 534.863281 132.84375 538.171875 C 139.648438 541.480469 142.363281 530.40625 140.9375 525.488281 C 137.398438 512.441406 134.316406 498.101562 120.984375 491.253906 " fill-opacity="1" fill-rule="nonzero"/></svg>