<svg xmlns="http://www.w3.org/2000/svg" xmlns:xlink="http://www.w3.org/1999/xlink" width="1080" zoomAndPan="magnify" viewBox="0 0 810 809.999993" height="1080" preserveAspectRatio="xMidYMid meet" version="1.0"><defs><clipPath id="0b04860a40"><path d="M 124.226562 77 L 680 77 L 680 710 L 124.226562 710 Z M 124.226562 77 " clip-rule="nonzero"/></clipPath></defs><g clip-path="url(#0b04860a40)"><path fill="#000000" d="M 573.75 422.175781 C 574.980469 424.640625 576.832031 427.71875 578.066406 430.800781 C 581.148438 439.425781 582.382812 448.050781 582.996094 456.058594 C 584.230469 481.933594 578.066406 510.890625 560.183594 529.988281 C 557.714844 533.070312 555.25 534.917969 552.167969 537.382812 C 551.550781 537.382812 551.550781 537.382812 551.550781 536.765625 C 554.015625 526.292969 555.25 516.4375 555.25 506.578125 C 554.632812 491.792969 550.933594 478.238281 542.300781 467.148438 C 533.050781 455.445312 520.71875 448.050781 505.917969 446.203125 C 521.335938 457.90625 528.734375 476.390625 526.882812 495.488281 C 525.652344 509.660156 520.71875 523.210938 512.703125 535.535156 C 509.617188 539.230469 506.535156 542.925781 502.21875 545.390625 C 502.21875 545.390625 501.601562 546.007812 500.984375 546.007812 C 500.984375 546.007812 500.367188 545.390625 500.367188 545.390625 C 504.683594 533.070312 503.453125 518.898438 500.367188 506.578125 C 500.367188 505.960938 500.367188 505.960938 500.367188 505.960938 L 492.96875 517.050781 C 492.96875 517.667969 492.96875 517.667969 493.585938 517.667969 C 493.585938 517.667969 493.585938 517.667969 494.203125 518.285156 C 494.203125 518.285156 494.203125 518.285156 494.203125 518.898438 C 493.585938 520.132812 492.96875 520.75 492.351562 521.363281 C 477.554688 529.988281 461.519531 532.453125 443.640625 531.835938 C 443.640625 531.835938 443.023438 531.835938 443.023438 532.453125 L 439.324219 535.535156 C 439.324219 535.535156 439.324219 536.148438 439.324219 536.148438 C 439.324219 536.148438 439.324219 536.765625 439.9375 536.765625 C 451.039062 539.230469 460.90625 541.078125 470.152344 542.925781 C 470.769531 542.925781 471.386719 543.542969 472.621094 544.160156 C 473.238281 544.160156 473.238281 544.160156 473.238281 544.160156 C 473.238281 544.773438 472.621094 544.773438 472.621094 544.773438 C 467.6875 547.238281 462.136719 549.089844 456.589844 550.320312 C 446.105469 552.167969 436.238281 553.402344 425.140625 553.402344 C 425.140625 553.402344 425.140625 553.402344 424.523438 554.015625 C 422.058594 557.097656 419.589844 559.5625 417.742188 563.257812 C 413.425781 569.417969 410.957031 574.964844 409.109375 580.507812 C 404.792969 593.445312 402.941406 602.6875 396.773438 610.078125 C 396.160156 611.3125 394.925781 612.542969 394.308594 613.777344 C 393.691406 613.777344 393.691406 614.394531 393.691406 614.394531 C 389.375 624.867188 385.675781 635.957031 383.824219 647.660156 C 383.824219 647.660156 383.824219 648.277344 383.824219 648.277344 C 385.675781 648.277344 386.292969 647.660156 386.910156 647.660156 C 392.457031 647.660156 400.476562 649.507812 403.558594 655.054688 C 403.558594 655.671875 403.558594 655.671875 403.558594 655.671875 C 403.558594 656.285156 403.558594 656.285156 402.941406 656.902344 C 396.160156 658.75 389.992188 658.132812 381.976562 658.132812 C 381.359375 658.132812 381.359375 658.132812 381.359375 658.132812 C 380.742188 663.679688 380.125 667.375 380.742188 669.839844 C 380.742188 670.457031 381.359375 671.6875 382.59375 671.6875 C 392.457031 672.921875 409.722656 676 410.957031 687.707031 C 410.957031 687.707031 410.957031 688.324219 410.957031 688.324219 C 410.957031 688.9375 410.339844 688.9375 409.722656 688.9375 C 397.390625 690.171875 385.058594 689.554688 373.960938 687.089844 C 373.960938 687.089844 373.34375 687.089844 373.34375 687.089844 C 364.710938 693.867188 355.460938 699.410156 344.363281 702.492188 C 341.277344 703.109375 338.195312 703.722656 335.730469 703.722656 C 331.414062 704.957031 327.097656 706.804688 322.78125 709.269531 C 322.78125 709.886719 322.164062 709.269531 322.164062 709.269531 C 320.3125 700.644531 325.863281 694.484375 333.261719 690.785156 C 333.261719 690.785156 333.261719 690.785156 332.644531 690.785156 C 327.710938 690.171875 325.246094 689.554688 320.929688 690.171875 C 312.914062 690.785156 306.128906 693.25 299.964844 696.949219 C 299.964844 696.949219 299.347656 697.5625 299.347656 697.5625 C 299.347656 697.5625 298.730469 696.949219 298.730469 696.949219 C 296.882812 689.554688 301.8125 683.394531 307.363281 680.3125 C 307.363281 680.3125 307.363281 679.699219 307.363281 679.699219 L 298.113281 678.464844 C 297.496094 677.847656 296.882812 678.464844 296.265625 678.464844 C 290.714844 682.160156 282.699219 687.089844 275.914062 689.554688 C 271.597656 690.785156 268.515625 692.019531 267.28125 692.019531 C 259.265625 693.25 252.484375 694.484375 246.316406 698.796875 C 246.316406 698.796875 245.699219 698.796875 245.699219 698.796875 C 245.699219 697.5625 245.085938 696.949219 245.085938 695.714844 C 245.085938 688.324219 250.015625 683.394531 255.566406 680.3125 C 256.183594 680.3125 256.183594 680.3125 256.183594 680.3125 C 256.183594 679.699219 256.183594 679.699219 255.566406 679.699219 C 253.101562 679.699219 251.25 679.699219 249.402344 679.699219 C 239.535156 679.082031 230.285156 682.160156 222.269531 687.089844 C 221.652344 687.089844 221.652344 687.089844 221.652344 687.089844 C 219.800781 680.929688 223.503906 674.769531 228.433594 671.070312 C 239.535156 663.0625 253.71875 664.910156 266.667969 665.527344 C 270.984375 665.527344 275.300781 665.527344 279 663.679688 C 284.546875 661.832031 286.398438 658.75 289.480469 653.820312 C 298.730469 640.269531 304.28125 625.480469 304.898438 608.847656 C 304.898438 608.230469 304.898438 608.230469 304.28125 608.230469 C 301.8125 605.765625 299.964844 603.304688 298.113281 600.222656 C 288.863281 586.667969 280.847656 571.265625 274.066406 556.480469 C 273.449219 555.863281 273.449219 554.632812 272.832031 554.015625 C 272.832031 554.015625 272.214844 553.402344 272.214844 553.402344 C 244.46875 542.925781 220.417969 525.675781 201.304688 502.882812 C 185.886719 483.167969 175.40625 461.605469 169.238281 436.960938 C 169.238281 436.960938 169.238281 436.34375 168.621094 436.960938 C 165.539062 438.808594 159.371094 443.121094 155.671875 442.503906 C 155.671875 442.503906 155.671875 441.890625 155.671875 441.890625 C 161.839844 429.566406 166.15625 417.246094 168.621094 403.691406 C 168.621094 403.078125 168.003906 403.078125 168.003906 403.078125 C 166.773438 403.691406 165.539062 404.925781 163.6875 405.539062 C 159.988281 408.621094 156.90625 409.238281 152.589844 408.621094 C 152.589844 408.621094 152.589844 408.003906 152.589844 408.003906 C 154.441406 403.691406 156.289062 399.996094 157.523438 396.914062 C 162.457031 383.363281 165.539062 368.574219 167.390625 352.558594 C 167.390625 352.558594 167.390625 352.558594 166.773438 352.558594 C 162.457031 353.171875 158.140625 352.558594 153.824219 351.324219 C 143.957031 348.859375 138.40625 342.085938 137.175781 332.84375 C 135.941406 321.753906 141.492188 308.816406 147.039062 299.574219 C 150.738281 293.414062 155.671875 287.867188 159.371094 281.09375 C 161.222656 277.394531 163.074219 274.929688 163.6875 273.082031 C 163.6875 272.46875 163.6875 272.46875 163.6875 272.46875 C 155.054688 270.617188 148.273438 265.691406 140.875 261.378906 C 135.324219 258.296875 130.390625 256.449219 124.226562 256.449219 C 124.226562 256.449219 124.226562 256.449219 124.226562 255.832031 C 125.457031 249.054688 131.625 242.894531 136.558594 238.582031 C 143.339844 233.652344 150.738281 229.957031 158.757812 227.492188 C 158.757812 227.492188 158.757812 226.878906 158.757812 226.878906 C 158.757812 217.019531 160.605469 207.777344 164.921875 198.539062 C 169.855469 187.449219 179.105469 178.207031 189.585938 172.046875 C 189.585938 171.429688 189.585938 171.429688 189.585938 170.8125 C 186.503906 159.109375 186.503906 147.402344 188.972656 135.082031 C 192.054688 121.527344 197.605469 109.207031 206.238281 98.117188 C 213.636719 88.257812 224.734375 79.632812 237.066406 77.785156 C 249.402344 75.320312 256.183594 83.945312 256.800781 95.035156 C 256.800781 95.652344 256.800781 96.882812 256.800781 98.730469 C 256.800781 98.730469 256.800781 99.347656 256.800781 99.347656 C 257.417969 99.347656 257.417969 98.730469 257.417969 98.730469 C 263.582031 91.953125 270.984375 87.027344 279 83.945312 C 291.949219 79.015625 304.28125 86.410156 298.730469 101.195312 C 296.882812 106.125 293.179688 113.519531 295.03125 117.214844 C 295.03125 117.832031 295.648438 117.832031 296.265625 117.832031 C 298.113281 117.832031 300.582031 117.214844 302.429688 115.980469 C 309.214844 111.667969 313.53125 109.820312 314.148438 109.207031 C 320.3125 106.125 329.5625 103.660156 332.027344 112.285156 C 334.496094 119.679688 334.496094 127.070312 334.496094 135.695312 C 334.496094 136.3125 334.496094 136.929688 334.496094 138.160156 C 335.113281 138.777344 335.730469 139.394531 336.34375 139.394531 C 341.894531 138.777344 347.445312 138.777344 351.761719 141.859375 C 357.925781 146.171875 357.925781 154.179688 355.460938 160.957031 C 351.144531 170.8125 341.894531 177.589844 331.414062 181.902344 C 325.246094 184.367188 319.695312 184.367188 313.53125 183.136719 C 313.53125 183.136719 311.0625 182.519531 306.128906 181.285156 C 306.128906 181.285156 306.128906 181.902344 306.128906 181.902344 C 310.445312 187.449219 314.148438 192.375 316.613281 196.074219 C 330.796875 219.484375 337.578125 245.359375 339.429688 273.082031 C 341.277344 301.421875 341.894531 332.226562 355.460938 358.101562 C 359.777344 366.726562 366.558594 375.351562 376.425781 378.433594 C 376.425781 378.433594 376.425781 378.433594 376.425781 379.050781 C 377.042969 384.59375 366.558594 383.976562 363.476562 384.59375 C 362.859375 384.59375 362.242188 384.59375 362.242188 385.210938 C 362.242188 385.210938 362.859375 385.210938 362.859375 385.824219 C 367.175781 391.371094 373.960938 396.300781 379.507812 399.378906 C 389.375 404.308594 400.476562 408.003906 410.957031 409.851562 C 421.441406 411.703125 432.539062 411.703125 442.40625 407.390625 C 449.804688 403.691406 452.273438 396.914062 454.738281 389.523438 C 456.589844 383.976562 457.820312 377.199219 459.671875 369.808594 C 460.289062 366.113281 462.136719 356.253906 465.222656 339.621094 C 467.6875 326.683594 470.152344 314.359375 473.855469 302.65625 C 482.488281 273.082031 498.519531 244.128906 525.035156 227.492188 C 534.902344 220.714844 545.382812 216.402344 555.867188 213.9375 C 585.464844 207.777344 617.527344 215.789062 640.960938 233.652344 C 654.527344 244.128906 665.007812 257.066406 673.027344 271.851562 C 675.492188 278.011719 677.957031 284.171875 679.191406 290.332031 C 679.191406 291.566406 679.191406 292.183594 678.574219 292.796875 C 677.957031 292.796875 677.34375 292.796875 676.726562 292.796875 C 673.027344 287.253906 668.09375 281.707031 663.160156 277.394531 C 637.878906 255.214844 601.496094 244.128906 567.582031 252.136719 C 546.617188 257.066406 529.351562 269.386719 517.019531 287.253906 C 517.019531 287.253906 517.019531 287.253906 517.636719 287.253906 C 527.5 280.476562 538.601562 275.546875 550.316406 273.082031 C 581.765625 267.539062 616.914062 274.929688 641.578125 294.644531 C 657.609375 306.96875 668.710938 322.984375 674.875 342.699219 C 685.976562 379.050781 677.957031 419.710938 656.992188 451.746094 C 655.761719 452.980469 654.527344 454.828125 652.675781 456.675781 C 652.675781 457.292969 652.675781 457.292969 652.675781 457.292969 C 652.675781 457.292969 652.058594 457.292969 652.058594 456.675781 C 650.828125 441.273438 647.128906 425.871094 636.027344 414.164062 C 636.027344 420.328125 636.027344 425.871094 635.410156 432.03125 C 632.328125 460.371094 619.378906 489.328125 597.796875 508.425781 C 595.332031 510.273438 592.863281 512.121094 590.398438 513.355469 C 590.398438 513.355469 590.398438 513.355469 589.78125 513.355469 C 589.78125 513.355469 589.164062 513.355469 589.164062 512.738281 C 591.015625 501.035156 591.628906 489.945312 591.628906 478.855469 C 591.628906 465.300781 589.78125 451.132812 584.847656 438.191406 C 582.382812 432.03125 578.679688 426.488281 574.363281 422.175781 C 574.363281 422.175781 573.75 422.175781 573.75 422.175781 Z M 244.46875 196.074219 C 261.117188 199.769531 269.75 217.636719 263.582031 233.652344 C 259.265625 247.207031 245.699219 257.066406 230.285156 253.367188 C 215.484375 250.289062 208.085938 235.503906 209.9375 220.714844 C 211.785156 204.082031 227.203125 191.761719 244.46875 196.074219 Z M 222.886719 205.3125 C 229.667969 204.082031 235.21875 205.3125 240.152344 209.011719 C 247.550781 215.789062 248.785156 226.878906 244.46875 236.117188 C 241.382812 242.277344 236.453125 246.589844 229.667969 249.054688 C 242.617188 252.136719 254.332031 245.359375 259.265625 233.652344 C 263.582031 223.796875 261.117188 210.859375 251.867188 204.082031 C 242 197.304688 232.136719 197.921875 222.269531 205.3125 C 222.269531 205.3125 222.886719 205.3125 222.886719 205.3125 Z M 227.203125 220.101562 C 229.050781 220.101562 230.285156 218.867188 229.667969 217.019531 C 229.667969 215.171875 228.433594 213.9375 226.585938 213.9375 C 225.351562 213.9375 224.117188 215.789062 224.117188 217.636719 C 224.117188 218.867188 225.96875 220.714844 227.203125 220.101562 Z M 266.050781 200.386719 C 266.050781 200.386719 265.433594 200.386719 265.433594 200.386719 C 261.117188 193.609375 256.183594 188.679688 248.785156 186.214844 C 245.699219 184.984375 242.617188 184.984375 240.152344 184.367188 C 239.535156 184.367188 238.917969 183.75 238.917969 183.136719 L 239.535156 178.824219 C 240.152344 177.589844 240.769531 176.972656 241.382812 176.972656 C 248.785156 175.742188 254.949219 177.589844 260.5 181.902344 C 262.964844 183.75 265.433594 186.832031 267.898438 188.679688 C 269.132812 189.910156 269.75 190.527344 269.75 190.527344 C 270.367188 191.144531 270.367188 191.144531 270.367188 191.144531 C 269.75 194.839844 267.898438 197.921875 266.050781 200.386719 Z M 255.566406 184.367188 C 257.417969 185.597656 258.648438 186.832031 260.5 188.0625 C 261.117188 188.0625 261.117188 188.0625 261.117188 188.0625 C 260.5 186.832031 257.417969 184.984375 255.566406 183.75 C 254.332031 182.519531 251.25 181.285156 249.402344 181.285156 C 249.402344 181.285156 249.402344 181.902344 249.402344 181.902344 C 251.867188 182.519531 253.71875 183.75 255.566406 184.367188 Z M 193.902344 168.347656 C 210.554688 158.492188 228.433594 154.179688 247.550781 154.179688 C 267.898438 154.796875 285.78125 162.1875 300.582031 176.359375 C 300.582031 176.359375 301.199219 176.359375 301.199219 176.359375 C 303.046875 176.359375 304.898438 176.359375 306.128906 176.972656 C 312.296875 178.824219 319.078125 180.671875 325.246094 179.4375 C 336.34375 176.359375 348.0625 168.964844 351.761719 157.875 C 352.996094 154.179688 352.996094 149.25 349.910156 146.171875 C 346.210938 143.089844 341.277344 143.707031 336.34375 143.707031 C 331.414062 143.707031 330.179688 140.007812 330.179688 136.3125 C 330.179688 130.152344 330.179688 122.757812 328.945312 116.597656 C 328.328125 112.902344 327.097656 109.207031 322.164062 110.4375 C 315.378906 112.902344 307.363281 117.832031 304.28125 119.679688 C 299.964844 121.527344 294.414062 124.605469 291.332031 120.292969 C 289.480469 116.597656 290.714844 110.4375 291.949219 106.742188 C 293.179688 103.042969 294.414062 99.964844 295.03125 97.5 C 296.265625 94.417969 295.648438 90.722656 293.179688 88.257812 C 288.863281 84.5625 280.847656 87.027344 275.914062 89.492188 C 266.667969 94.417969 259.882812 101.8125 253.71875 109.820312 C 253.101562 110.4375 252.484375 110.4375 251.867188 110.4375 C 251.25 109.820312 251.25 108.589844 251.25 107.972656 C 252.484375 101.8125 253.101562 91.339844 249.402344 85.792969 C 242 75.9375 226.585938 85.179688 219.1875 90.722656 C 201.921875 105.507812 192.054688 128.917969 191.4375 151.714844 C 191.4375 157.257812 192.054688 162.804688 193.289062 168.347656 C 193.289062 168.347656 193.902344 168.347656 193.902344 168.347656 Z M 164.304688 434.496094 C 174.789062 428.335938 182.804688 419.710938 188.355469 409.238281 C 190.820312 404.308594 194.519531 396.914062 195.753906 390.753906 C 198.21875 383.976562 199.453125 379.050781 200.070312 375.96875 C 200.6875 375.351562 201.304688 374.738281 201.921875 374.738281 C 204.386719 375.351562 204.386719 379.050781 204.386719 380.898438 C 204.386719 394.453125 203.769531 407.390625 201.304688 419.710938 C 200.070312 424.640625 198.835938 429.566406 197.605469 433.878906 C 197.605469 433.878906 197.605469 434.496094 197.605469 434.496094 C 203.152344 430.183594 207.46875 425.253906 211.167969 419.09375 C 218.570312 407.390625 224.117188 395.066406 227.820312 380.898438 C 229.050781 377.199219 229.667969 372.886719 230.902344 368.574219 C 230.902344 367.960938 231.519531 367.34375 232.136719 367.960938 C 234.601562 369.191406 235.21875 370.425781 235.21875 373.503906 C 235.21875 389.523438 234.601562 406.15625 233.367188 421.558594 C 232.75 428.335938 232.136719 433.878906 230.902344 439.425781 C 230.902344 439.425781 231.519531 439.425781 231.519531 439.425781 C 240.769531 433.265625 246.316406 421.558594 250.015625 410.46875 C 253.101562 401.84375 254.949219 391.988281 256.800781 380.898438 C 256.800781 379.664062 256.800781 379.050781 257.417969 379.050781 C 258.035156 378.433594 258.648438 378.433594 259.882812 379.050781 C 260.5 379.664062 260.5 380.898438 261.117188 382.128906 C 264.199219 400.613281 267.28125 417.863281 268.515625 435.730469 C 268.515625 436.34375 268.515625 436.34375 269.132812 436.34375 C 269.132812 436.34375 269.132812 436.34375 269.132812 435.730469 C 279.617188 417.863281 280.847656 396.300781 280.847656 376.585938 C 280.847656 374.738281 281.464844 373.503906 281.464844 372.273438 C 282.082031 371.039062 282.699219 371.039062 283.316406 371.039062 C 284.546875 371.65625 284.546875 372.273438 285.164062 372.886719 C 285.164062 373.503906 287.015625 377.816406 289.480469 385.824219 C 292.566406 396.300781 296.265625 406.773438 302.429688 416.015625 C 302.429688 416.628906 303.046875 416.628906 303.046875 416.628906 L 308.597656 414.78125 C 308.597656 414.78125 308.597656 414.78125 308.597656 414.164062 C 309.214844 412.316406 309.214844 410.46875 308.597656 408.003906 C 307.980469 398.765625 305.515625 390.140625 301.8125 381.511719 C 301.199219 380.28125 299.964844 377.199219 298.730469 372.886719 C 298.113281 370.425781 297.496094 368.574219 297.496094 366.726562 C 297.496094 366.113281 298.730469 365.496094 299.347656 365.496094 C 300.582031 366.113281 301.199219 366.726562 301.199219 367.960938 C 306.128906 383.363281 313.53125 398.765625 325.246094 410.46875 C 325.246094 410.46875 325.863281 411.085938 325.863281 411.085938 C 325.863281 411.085938 326.480469 410.46875 326.480469 410.46875 C 327.097656 404.308594 326.480469 398.148438 325.246094 391.988281 C 324.011719 384.59375 321.546875 375.96875 318.464844 365.496094 C 317.847656 363.648438 317.230469 361.183594 318.464844 359.335938 C 319.078125 358.71875 319.695312 358.71875 320.3125 358.71875 C 320.929688 359.335938 321.546875 359.949219 322.164062 361.183594 C 329.5625 374.738281 336.34375 390.753906 354.226562 391.371094 C 354.84375 391.371094 354.84375 390.753906 354.84375 390.753906 C 354.84375 388.90625 354.226562 388.289062 353.609375 387.675781 C 344.976562 380.28125 338.8125 370.425781 333.261719 359.949219 C 330.796875 355.023438 328.945312 349.476562 328.328125 343.316406 C 328.328125 342.085938 328.328125 340.851562 328.945312 339.003906 C 329.5625 338.386719 330.179688 338.386719 330.796875 338.386719 C 330.796875 338.386719 331.414062 338.386719 331.414062 338.386719 C 331.414062 338.386719 332.027344 339.003906 332.027344 339.003906 C 336.960938 356.253906 346.210938 375.351562 365.945312 379.050781 C 365.945312 379.050781 366.558594 379.050781 366.558594 379.050781 C 366.558594 378.433594 365.945312 378.433594 365.945312 378.433594 C 354.84375 369.191406 348.0625 355.023438 343.746094 340.851562 C 340.660156 327.914062 338.195312 314.359375 336.960938 298.957031 C 335.730469 282.324219 335.113281 273.082031 334.496094 270.003906 C 332.027344 240.429688 323.394531 209.625 304.28125 186.214844 C 293.179688 173.277344 280.847656 165.269531 266.050781 160.957031 C 252.484375 157.875 238.917969 157.257812 223.503906 160.957031 C 209.9375 164.035156 196.988281 170.199219 185.886719 180.054688 C 194.519531 185.597656 195.136719 199.152344 192.671875 207.777344 C 189.585938 217.019531 185.886719 224.414062 181.570312 229.957031 C 181.570312 229.957031 181.570312 229.957031 182.1875 230.574219 C 190.820312 234.886719 197.605469 241.664062 202.535156 250.289062 C 208.703125 261.378906 200.6875 268.769531 190.820312 271.851562 C 190.820312 272.46875 190.820312 272.46875 190.820312 272.46875 C 194.519531 276.78125 196.371094 279.859375 197.605469 281.09375 C 206.851562 294.644531 213.636719 309.433594 213.636719 326.066406 C 214.253906 336.539062 212.402344 348.859375 204.386719 356.253906 C 199.453125 361.183594 193.289062 362.414062 187.121094 361.183594 C 181.570312 359.949219 176.636719 355.636719 174.171875 350.710938 C 174.171875 350.09375 174.171875 350.09375 174.171875 350.09375 C 173.554688 350.09375 173.554688 350.09375 173.554688 350.09375 L 172.320312 350.710938 C 171.707031 351.324219 171.707031 351.324219 171.707031 351.324219 C 170.472656 365.496094 167.390625 379.664062 163.074219 393.21875 C 162.457031 396.914062 161.222656 399.996094 159.988281 402.460938 C 159.988281 403.078125 159.988281 403.078125 159.988281 403.078125 C 164.304688 400.613281 167.390625 396.914062 170.472656 393.21875 C 171.707031 391.371094 172.9375 390.140625 174.789062 388.90625 C 174.789062 388.90625 174.789062 388.90625 174.789062 388.289062 C 174.789062 388.289062 175.40625 388.289062 175.40625 388.90625 C 176.023438 389.523438 176.023438 390.140625 176.023438 390.753906 C 175.40625 394.453125 174.789062 398.765625 173.554688 403.691406 C 171.707031 411.703125 169.238281 419.09375 167.390625 426.488281 C 166.15625 428.953125 164.921875 432.03125 163.6875 434.496094 C 163.6875 434.496094 164.304688 434.496094 164.304688 434.496094 Z M 175.40625 191.144531 C 180.953125 191.144531 187.121094 194.226562 188.972656 199.769531 C 188.972656 199.769531 189.585938 199.769531 189.585938 199.769531 C 189.585938 194.839844 188.355469 187.449219 184.039062 184.367188 C 183.421875 184.367188 182.804688 184.367188 182.1875 184.367188 C 179.105469 186.214844 177.253906 188.0625 175.40625 190.527344 C 175.40625 191.144531 175.40625 191.144531 175.40625 191.144531 Z M 180.953125 204.699219 C 182.1875 204.082031 182.1875 202.851562 182.1875 201.617188 C 181.570312 200.386719 180.953125 199.769531 179.722656 199.769531 C 178.488281 200.386719 177.871094 201.617188 178.488281 202.851562 C 178.488281 204.082031 179.722656 204.699219 180.953125 204.699219 Z M 457.203125 395.066406 C 457.820312 395.066406 457.820312 395.066406 457.820312 395.066406 C 462.136719 390.140625 466.453125 384.59375 469.539062 377.816406 C 477.554688 361.800781 485.570312 342.085938 491.121094 326.683594 C 495.4375 317.441406 499.753906 308.816406 504.683594 298.957031 C 509 290.949219 514.550781 282.941406 520.71875 275.546875 C 539.832031 253.367188 565.730469 244.128906 594.714844 245.359375 C 619.378906 246.589844 643.425781 255.214844 661.925781 270.617188 C 664.394531 272.46875 666.859375 274.929688 669.941406 277.394531 C 669.941406 277.394531 670.558594 277.394531 670.558594 277.394531 C 654.527344 241.664062 620.613281 218.867188 582.382812 216.402344 C 550.933594 214.554688 523.183594 228.109375 503.453125 252.753906 C 489.886719 269.386719 481.871094 288.484375 476.320312 310.046875 C 470.769531 330.378906 466.453125 356.253906 463.371094 372.273438 C 462.136719 380.28125 459.671875 387.675781 457.203125 395.066406 Z M 131.007812 252.136719 C 137.175781 251.519531 143.957031 251.519531 150.738281 252.136719 C 157.523438 253.367188 164.304688 255.214844 171.707031 256.449219 C 179.722656 257.679688 187.121094 258.914062 194.519531 257.679688 C 196.371094 257.679688 198.21875 257.066406 199.453125 256.449219 C 200.070312 256.449219 200.070312 255.832031 200.070312 255.832031 C 195.753906 245.359375 188.355469 237.964844 177.871094 233.652344 C 170.472656 230.574219 162.457031 229.957031 155.054688 233.039062 C 145.191406 236.734375 137.175781 242.894531 130.390625 251.519531 C 130.390625 251.519531 130.390625 252.136719 131.007812 252.136719 Z M 199.453125 261.378906 C 191.4375 263.226562 184.039062 263.226562 176.023438 261.378906 C 166.15625 259.53125 151.972656 255.832031 140.257812 255.832031 C 143.957031 257.679688 148.273438 260.761719 153.824219 263.84375 C 163.6875 269.386719 173.554688 271.234375 184.65625 268.769531 C 189.585938 268.15625 193.902344 266.304688 197.605469 263.226562 C 198.21875 262.609375 198.835938 261.992188 199.453125 261.378906 Z M 182.804688 274.316406 C 187.738281 288.484375 187.738281 303.269531 182.804688 317.441406 C 182.804688 318.671875 180.953125 324.21875 177.871094 334.074219 C 175.40625 340.851562 176.636719 350.09375 183.421875 355.023438 C 189.585938 359.335938 197.605469 357.488281 202.535156 351.941406 C 205.003906 348.859375 206.851562 345.78125 207.46875 342.085938 C 214.871094 316.824219 202.535156 292.183594 185.886719 273.699219 C 185.886719 273.699219 185.886719 273.699219 185.269531 273.699219 L 183.421875 273.699219 C 182.804688 273.699219 182.804688 273.699219 182.804688 274.316406 Z M 172.320312 345.78125 C 172.320312 340.234375 172.9375 334.691406 174.789062 329.761719 C 176.636719 323.601562 178.488281 318.671875 179.105469 314.976562 C 183.421875 301.421875 182.804688 287.867188 178.488281 274.929688 C 178.488281 274.316406 177.871094 274.316406 177.871094 274.316406 C 174.789062 274.316406 172.320312 274.316406 169.238281 273.699219 C 168.621094 273.699219 168.621094 273.699219 168.621094 273.699219 C 164.921875 281.09375 159.988281 287.867188 155.054688 295.261719 C 150.125 302.039062 146.421875 309.433594 143.957031 316.824219 C 139.640625 327.914062 139.640625 342.085938 152.589844 346.398438 C 158.757812 348.859375 165.539062 349.476562 172.320312 346.398438 C 172.320312 346.398438 172.320312 345.78125 172.320312 345.78125 Z M 660.078125 437.578125 C 677.957031 404.308594 681.660156 362.414062 664.394531 328.53125 C 652.675781 305.734375 634.179688 290.332031 608.894531 281.707031 C 590.398438 275.546875 571.28125 273.699219 551.550781 277.394531 C 534.285156 280.476562 518.867188 289.101562 508.386719 303.269531 C 504.070312 308.816406 500.367188 316.207031 497.285156 322.984375 C 492.96875 333.460938 488.035156 345.78125 483.101562 359.335938 C 485.570312 355.636719 487.417969 352.558594 489.269531 350.09375 C 495.4375 340.851562 502.21875 332.84375 509.617188 326.066406 C 528.734375 308.199219 551.550781 301.421875 577.449219 305.121094 C 588.546875 306.96875 599.03125 310.664062 610.128906 316.824219 C 637.261719 332.226562 653.910156 361.183594 659.460938 391.371094 C 661.925781 406.15625 661.925781 421.558594 660.078125 436.960938 C 660.078125 437.578125 660.078125 437.578125 660.078125 437.578125 Z M 516.402344 518.898438 C 523.800781 502.882812 525.652344 486.246094 518.867188 469.613281 C 514.550781 459.140625 507.152344 452.363281 497.285156 446.203125 C 496.667969 445.585938 495.4375 444.355469 494.203125 443.738281 C 493.585938 443.121094 494.203125 442.503906 494.203125 441.890625 C 494.203125 441.890625 494.820312 441.890625 494.820312 441.890625 C 495.4375 441.890625 496.050781 441.273438 497.285156 441.273438 C 514.550781 440.65625 529.96875 447.433594 541.683594 459.757812 C 550.316406 468.996094 557.097656 481.933594 558.332031 494.871094 C 558.332031 494.871094 558.332031 494.871094 558.949219 494.871094 C 560.183594 486.246094 560.800781 478.238281 559.566406 470.230469 C 557.714844 449.898438 547.234375 433.878906 527.5 425.871094 C 518.867188 422.792969 509 420.941406 499.136719 420.941406 C 498.519531 420.941406 498.519531 420.328125 498.519531 419.710938 C 498.519531 419.710938 498.519531 419.710938 498.519531 419.09375 C 500.367188 417.246094 502.21875 416.015625 504.683594 414.78125 C 515.167969 408.621094 526.269531 405.539062 538.601562 404.925781 C 546 404.308594 552.78125 404.925781 558.949219 407.390625 C 579.296875 413.550781 589.78125 432.648438 593.480469 452.363281 C 596.5625 469.613281 597.179688 486.246094 594.714844 503.496094 C 594.714844 503.496094 594.714844 503.496094 595.332031 503.496094 C 600.261719 498.570312 604.578125 493.023438 607.046875 486.863281 C 618.144531 461.605469 614.445312 427.105469 597.179688 404.925781 C 584.230469 388.289062 565.117188 379.050781 544.148438 379.664062 C 523.800781 379.664062 507.769531 389.523438 491.734375 399.996094 C 490.503906 401.226562 488.652344 401.84375 486.1875 403.078125 C 485.570312 403.078125 485.570312 403.078125 484.953125 403.078125 C 480.636719 401.84375 483.71875 396.300781 484.953125 393.835938 C 493.585938 379.664062 504.070312 367.960938 515.785156 358.71875 C 538.601562 339.621094 568.816406 334.691406 595.332031 348.246094 C 618.144531 359.335938 631.710938 381.511719 634.792969 407.390625 C 635.410156 407.390625 635.410156 408.003906 635.410156 408.003906 C 645.277344 416.628906 651.445312 428.953125 654.527344 441.273438 C 654.527344 441.273438 654.527344 441.273438 654.527344 441.890625 C 654.527344 441.890625 654.527344 441.890625 655.144531 441.890625 C 655.144531 441.273438 655.144531 441.273438 655.144531 441.273438 C 661.925781 400.613281 651.445312 351.941406 616.296875 326.066406 C 588.546875 305.734375 549.699219 300.808594 520.71875 322.371094 C 502.21875 335.921875 491.121094 354.40625 478.171875 375.351562 C 473.855469 382.746094 468.304688 389.523438 462.753906 396.300781 C 455.972656 403.078125 448.570312 409.851562 439.9375 412.933594 C 427.605469 417.246094 413.425781 415.398438 401.089844 412.316406 C 385.058594 408.003906 370.875 401.226562 359.777344 389.523438 C 359.777344 389.523438 359.160156 389.523438 359.160156 388.90625 C 359.160156 388.90625 359.160156 389.523438 359.160156 389.523438 C 360.394531 392.601562 361.628906 395.066406 356.695312 395.683594 C 343.746094 396.300781 333.878906 388.90625 327.097656 378.433594 C 326.480469 378.433594 326.480469 378.433594 326.480469 379.050781 C 330.179688 390.140625 332.027344 401.84375 330.179688 413.550781 C 330.179688 413.550781 330.179688 413.550781 330.796875 413.550781 C 349.910156 415.398438 365.945312 425.871094 381.976562 435.730469 C 401.089844 448.050781 423.289062 460.371094 446.722656 470.230469 C 447.339844 470.230469 447.957031 470.84375 448.570312 471.460938 C 449.1875 471.460938 449.1875 472.078125 449.1875 472.078125 C 449.1875 472.695312 449.1875 472.695312 448.570312 472.695312 C 447.339844 473.308594 445.488281 473.925781 443.023438 474.542969 C 437.472656 474.542969 431.304688 474.542969 423.90625 473.925781 C 441.171875 480.085938 458.4375 485.632812 476.320312 490.558594 C 484.335938 492.410156 491.734375 494.257812 497.902344 494.871094 C 499.136719 494.871094 499.753906 494.871094 500.367188 494.871094 C 500.367188 494.871094 500.367188 494.871094 500.984375 494.871094 L 503.453125 496.722656 C 503.453125 496.722656 503.453125 496.722656 503.453125 497.335938 L 503.453125 498.570312 C 503.453125 498.570312 503.453125 498.570312 503.453125 499.183594 C 504.070312 501.648438 504.683594 506.578125 505.917969 513.355469 C 507.152344 520.132812 507.769531 525.675781 507.152344 529.375 C 507.152344 529.988281 507.152344 531.222656 507.152344 532.453125 C 507.152344 532.453125 507.152344 532.453125 507.769531 532.453125 C 507.769531 533.070312 507.769531 533.070312 507.769531 533.070312 C 507.769531 533.070312 507.769531 532.453125 507.769531 532.453125 C 509 529.988281 510.234375 526.910156 511.46875 523.210938 C 514.550781 510.273438 513.316406 494.871094 506.535156 483.167969 C 505.300781 481.320312 504.070312 479.46875 502.21875 477.007812 C 502.21875 476.390625 502.21875 476.390625 502.21875 475.773438 C 502.835938 475.15625 502.835938 475.15625 503.453125 474.542969 C 504.070312 473.925781 504.070312 473.925781 504.683594 474.542969 C 509.617188 477.621094 512.703125 485.015625 514.550781 491.792969 C 517.636719 500.417969 517.636719 509.660156 516.402344 518.898438 Z M 488.652344 396.914062 C 493.585938 393.835938 497.902344 390.753906 502.21875 388.289062 C 509 383.976562 517.019531 380.28125 525.652344 377.816406 C 557.097656 369.191406 591.015625 382.128906 607.046875 412.316406 C 617.527344 431.417969 619.996094 454.210938 615.0625 475.15625 C 615.0625 477.621094 613.828125 480.085938 613.210938 483.167969 C 628.628906 458.523438 636.027344 427.71875 629.246094 399.378906 C 624.929688 380.898438 615.0625 365.496094 599.648438 355.636719 C 584.230469 345.164062 566.964844 342.085938 549.082031 346.398438 C 537.367188 348.859375 525.652344 355.636719 516.402344 363.03125 C 505.917969 372.886719 496.050781 383.976562 488.652344 396.300781 C 488.652344 396.914062 488.652344 396.914062 488.652344 396.914062 Z M 285.164062 388.90625 C 283.933594 405.539062 281.464844 422.175781 274.066406 436.34375 C 272.214844 439.425781 269.132812 444.355469 266.050781 446.203125 C 265.433594 446.203125 265.433594 446.203125 265.433594 446.203125 C 264.816406 442.503906 264.816406 438.191406 264.199219 432.648438 C 262.964844 420.328125 261.117188 408.003906 258.648438 396.300781 C 255.566406 408.621094 251.25 420.941406 244.46875 432.03125 C 240.769531 437.578125 233.984375 445.585938 225.96875 446.203125 C 225.351562 446.203125 224.734375 445.585938 224.734375 444.96875 C 224.734375 444.96875 224.734375 444.355469 224.734375 444.355469 C 225.96875 442.503906 226.585938 439.425781 227.203125 436.34375 C 227.820312 432.03125 228.433594 425.871094 229.050781 419.09375 C 230.285156 409.851562 230.902344 399.378906 230.902344 387.675781 C 230.902344 387.675781 230.285156 387.675781 230.285156 387.675781 C 224.117188 406.773438 214.871094 426.488281 199.453125 438.808594 C 198.21875 440.042969 193.902344 442.503906 192.054688 441.273438 C 191.4375 441.273438 190.820312 440.042969 191.4375 439.425781 C 192.671875 435.113281 194.519531 430.183594 195.753906 425.871094 C 197.605469 415.398438 199.453125 404.925781 200.070312 393.835938 C 200.070312 393.835938 200.070312 393.21875 199.453125 393.21875 C 199.453125 393.21875 199.453125 393.21875 199.453125 393.835938 C 196.371094 403.078125 192.054688 411.703125 186.503906 419.710938 C 182.804688 425.253906 178.488281 430.183594 172.9375 433.878906 C 172.9375 433.878906 172.9375 433.878906 172.9375 434.496094 C 185.269531 487.480469 222.269531 529.375 272.832031 549.089844 C 280.847656 552.167969 287.015625 554.632812 291.332031 555.863281 C 304.28125 559.5625 312.296875 561.410156 315.378906 562.640625 C 322.164062 564.488281 327.710938 568.1875 332.027344 573.113281 C 341.894531 584.820312 349.910156 594.679688 360.394531 604.535156 C 365.328125 608.847656 370.875 611.929688 377.042969 613.160156 C 394.308594 616.855469 399.242188 597.757812 402.941406 585.4375 C 406.640625 573.730469 411.574219 563.257812 418.972656 554.015625 C 418.972656 553.402344 418.972656 553.402344 418.972656 553.402344 C 399.859375 552.785156 381.359375 550.320312 362.242188 545.390625 C 344.363281 540.460938 327.097656 533.070312 309.832031 521.980469 C 300.582031 515.820312 291.332031 507.195312 284.546875 499.183594 C 274.066406 485.632812 268.515625 469.613281 273.449219 452.363281 C 275.300781 443.121094 280.230469 433.878906 286.398438 427.105469 C 289.480469 424.023438 293.179688 420.941406 298.113281 418.476562 C 298.113281 418.476562 298.113281 418.476562 298.113281 417.863281 C 292.566406 409.238281 288.863281 398.765625 285.164062 388.90625 Z M 312.914062 403.691406 L 313.53125 413.550781 C 313.53125 413.550781 313.53125 413.550781 314.148438 413.550781 L 320.929688 413.550781 C 320.929688 413.550781 321.546875 412.933594 321.546875 412.933594 C 321.546875 412.933594 321.546875 412.933594 320.929688 412.933594 Z M 558.332031 525.675781 C 568.199219 513.972656 573.75 501.035156 576.832031 485.632812 C 579.914062 470.230469 579.914062 452.980469 575.597656 436.960938 C 573.75 431.417969 571.28125 425.253906 567.582031 419.710938 C 563.882812 414.164062 558.949219 410.46875 552.167969 409.851562 C 537.984375 407.390625 523.800781 409.851562 509.617188 416.628906 C 509.617188 417.246094 509.617188 417.246094 509.617188 417.246094 C 509.617188 417.246094 509.617188 417.246094 510.234375 417.246094 C 518.25 417.863281 526.269531 420.328125 533.667969 424.023438 C 544.765625 428.953125 552.78125 436.960938 557.714844 447.433594 C 565.117188 463.453125 566.347656 481.320312 562.648438 498.570312 C 562.03125 502.265625 561.414062 505.347656 559.566406 508.425781 C 559.566406 509.042969 559.566406 509.042969 559.566406 509.660156 Z M 334.496094 529.988281 C 325.246094 521.980469 317.847656 512.738281 312.296875 502.265625 C 310.445312 499.183594 304.28125 486.246094 307.363281 484.398438 C 307.363281 483.785156 307.980469 483.785156 307.980469 484.398438 C 319.078125 495.488281 332.027344 504.113281 346.210938 511.507812 C 346.210938 511.507812 346.210938 511.507812 346.210938 510.890625 C 338.195312 501.035156 332.027344 489.328125 327.710938 477.007812 C 327.710938 476.390625 327.710938 476.390625 327.710938 475.773438 C 327.710938 474.542969 328.945312 474.542969 330.179688 474.542969 C 330.179688 474.542969 330.796875 474.542969 330.796875 474.542969 C 330.796875 475.15625 333.261719 476.390625 338.195312 479.46875 C 349.292969 486.863281 361.628906 492.410156 374.578125 494.257812 C 367.175781 486.863281 361.628906 478.855469 356.695312 469.613281 C 356.078125 468.996094 356.078125 467.765625 356.695312 465.917969 C 357.3125 465.300781 357.925781 465.300781 357.925781 465.300781 C 357.925781 465.917969 358.542969 465.917969 358.542969 465.917969 C 361.628906 467.765625 365.328125 470.230469 369.644531 472.695312 C 380.742188 480.085938 394.925781 485.015625 408.492188 485.632812 C 408.492188 485.632812 408.492188 485.632812 408.492188 485.015625 C 401.089844 480.703125 394.308594 475.15625 388.140625 468.996094 C 385.675781 467.148438 383.824219 464.683594 382.59375 462.21875 C 382.59375 461.605469 382.59375 460.988281 383.210938 460.371094 C 383.210938 459.140625 384.441406 459.140625 385.058594 459.757812 C 391.226562 462.21875 398.007812 464.683594 405.40625 465.917969 C 414.65625 468.382812 424.523438 469.613281 435.007812 470.230469 C 435.007812 470.230469 435.007812 469.613281 435.007812 469.613281 C 415.890625 460.988281 396.160156 449.898438 378.894531 438.808594 C 369.027344 432.648438 360.394531 427.71875 352.378906 424.023438 C 344.976562 420.941406 336.960938 418.476562 328.328125 417.863281 C 328.328125 417.863281 327.710938 417.863281 327.710938 417.863281 L 323.394531 421.558594 C 322.78125 421.558594 322.78125 421.558594 322.164062 421.558594 C 322.164062 420.941406 322.164062 420.941406 322.164062 420.941406 L 321.546875 417.863281 C 321.546875 417.863281 320.929688 417.246094 320.929688 417.246094 L 313.53125 417.863281 C 313.53125 417.863281 312.914062 418.476562 312.914062 418.476562 C 312.296875 421.558594 311.0625 424.023438 307.980469 426.488281 C 304.898438 428.953125 302.429688 424.640625 300.582031 422.175781 C 300.582031 422.175781 300.582031 422.175781 299.964844 422.175781 C 287.015625 428.335938 280.230469 441.890625 277.148438 454.828125 C 272.832031 472.695312 280.230469 489.328125 291.949219 501.648438 C 303.664062 513.355469 317.847656 523.210938 333.878906 529.988281 C 333.878906 529.988281 334.496094 529.988281 334.496094 529.988281 Z M 307.363281 419.710938 C 306.746094 419.710938 306.746094 419.710938 306.128906 419.710938 C 306.128906 420.328125 305.515625 420.328125 306.128906 420.328125 C 306.128906 420.941406 306.128906 420.941406 306.128906 420.941406 C 306.128906 420.941406 306.746094 420.941406 307.363281 420.328125 C 307.980469 420.328125 307.363281 419.710938 307.363281 419.710938 Z M 492.351562 498.570312 C 486.804688 497.335938 480.019531 496.105469 472.621094 493.640625 C 449.1875 487.480469 426.375 480.085938 404.175781 471.460938 C 401.707031 470.230469 396.160156 469.613281 392.457031 467.765625 C 393.691406 468.996094 395.542969 470.230469 397.390625 472.078125 C 402.941406 476.390625 409.109375 480.703125 415.273438 484.398438 C 415.890625 485.015625 416.507812 485.632812 417.125 486.246094 C 417.125 486.863281 417.125 486.863281 417.125 486.863281 C 415.890625 488.097656 414.65625 488.710938 413.425781 489.328125 C 408.492188 489.945312 402.941406 489.945312 396.773438 489.328125 C 403.558594 492.410156 409.109375 494.871094 415.890625 496.722656 C 439.9375 503.496094 467.6875 506.578125 492.351562 499.183594 C 492.351562 499.183594 492.351562 499.183594 492.351562 498.570312 Z M 342.511719 488.097656 C 356.078125 499.800781 372.109375 510.273438 388.757812 515.820312 C 401.089844 520.75 414.039062 523.828125 426.988281 525.675781 C 444.253906 528.757812 462.136719 528.757812 478.171875 523.210938 C 478.785156 523.210938 480.019531 522.597656 481.253906 521.980469 C 481.871094 521.363281 481.871094 521.363281 481.253906 521.363281 C 469.539062 519.515625 457.820312 516.4375 446.105469 513.355469 C 435.621094 510.273438 427.605469 507.808594 421.441406 505.347656 C 409.109375 501.035156 397.390625 496.105469 386.910156 489.945312 C 379.507812 485.632812 372.726562 481.933594 367.175781 478.238281 C 367.175781 478.238281 367.175781 478.238281 367.175781 478.855469 C 369.027344 480.703125 370.261719 482.550781 371.492188 484.398438 C 374.578125 488.097656 378.277344 491.175781 381.359375 494.871094 C 381.976562 495.488281 381.976562 496.105469 381.976562 496.722656 C 381.976562 497.335938 381.976562 497.953125 380.742188 498.570312 C 372.726562 499.183594 362.859375 496.722656 354.84375 493.640625 C 351.144531 491.792969 347.445312 489.945312 343.128906 488.097656 C 343.128906 488.097656 342.511719 487.480469 342.511719 488.097656 Z M 338.195312 489.945312 C 340.046875 494.257812 342.511719 498.570312 344.976562 502.265625 C 350.527344 509.660156 353.609375 513.972656 354.226562 513.972656 C 354.84375 515.203125 355.460938 515.820312 355.460938 517.050781 C 355.460938 517.667969 354.84375 517.667969 354.226562 517.667969 C 352.996094 517.667969 351.144531 517.667969 349.910156 517.050781 C 342.511719 514.585938 336.34375 511.507812 330.179688 507.195312 C 325.246094 504.113281 319.695312 500.417969 314.148438 496.105469 C 322.164062 512.121094 333.261719 525.0625 347.445312 534.917969 C 349.910156 536.765625 351.761719 538 353.609375 538 C 376.425781 545.390625 399.242188 549.089844 422.058594 549.089844 C 433.773438 549.703125 446.105469 547.855469 457.820312 545.390625 C 443.640625 542.3125 430.074219 538.613281 416.507812 534.300781 C 397.390625 527.523438 378.277344 518.285156 358.542969 505.347656 C 351.761719 501.035156 344.976562 495.488281 338.195312 489.945312 Z M 436.238281 505.960938 C 453.503906 510.890625 469.539062 515.820312 486.804688 517.050781 C 486.804688 517.050781 487.417969 517.050781 487.417969 517.050781 C 491.121094 512.738281 494.203125 507.808594 496.667969 502.265625 C 492.96875 503.496094 489.886719 504.113281 486.1875 504.730469 C 470.769531 508.425781 454.738281 508.425781 437.472656 505.347656 C 436.855469 505.347656 436.855469 505.347656 436.238281 505.347656 C 436.238281 505.960938 436.238281 505.960938 436.238281 505.960938 Z M 410.339844 526.910156 C 410.957031 527.523438 412.808594 528.140625 414.65625 528.757812 C 423.289062 531.835938 430.074219 533.6875 434.390625 534.917969 C 435.007812 534.917969 435.007812 534.917969 435.621094 534.917969 L 437.472656 531.835938 C 437.472656 531.222656 437.472656 531.222656 437.472656 531.222656 C 428.222656 530.605469 419.589844 529.375 410.339844 526.910156 Z M 278.382812 555.863281 C 284.546875 569.417969 291.949219 582.972656 299.964844 595.910156 C 302.429688 598.992188 304.28125 602.070312 306.128906 603.917969 C 310.445312 607.617188 315.378906 607.617188 321.546875 606.382812 C 326.480469 605.765625 330.796875 602.6875 334.496094 597.757812 C 337.578125 594.679688 339.429688 591.597656 340.046875 589.75 C 340.046875 589.132812 340.046875 589.132812 340.046875 589.132812 C 339.429688 588.515625 335.730469 584.203125 330.179688 576.8125 C 324.628906 570.652344 318.464844 567.570312 310.445312 565.722656 C 302.429688 563.257812 294.414062 561.410156 286.398438 558.945312 C 283.933594 557.714844 280.847656 557.097656 278.382812 555.863281 Z M 343.128906 593.445312 C 339.429688 599.605469 335.113281 604.535156 329.5625 608.230469 C 329.5625 608.847656 328.945312 608.847656 328.945312 609.464844 C 322.78125 619.9375 317.847656 629.792969 313.53125 639.652344 C 313.53125 639.652344 313.53125 640.269531 313.53125 640.269531 C 320.3125 640.269531 327.710938 641.5 332.027344 647.046875 C 332.644531 647.660156 332.644531 648.277344 332.644531 648.894531 C 332.644531 648.894531 332.644531 649.507812 332.027344 649.507812 C 330.796875 650.125 328.945312 650.742188 327.097656 650.742188 C 320.929688 651.359375 315.378906 651.359375 309.214844 650.742188 L 306.128906 661.214844 C 306.128906 661.214844 306.128906 661.214844 306.128906 661.832031 C 306.128906 662.445312 306.746094 663.0625 307.363281 663.0625 C 316.613281 665.527344 324.011719 666.757812 330.796875 671.6875 C 331.414062 672.304688 332.027344 673.535156 332.027344 674.769531 C 332.027344 675.382812 332.027344 675.382812 332.027344 675.382812 C 340.046875 676 348.679688 677.234375 356.078125 673.535156 C 359.160156 671.6875 360.394531 669.222656 361.628906 665.527344 C 368.410156 649.507812 370.875 632.875 369.644531 616.242188 C 369.644531 615.625 369.027344 615.625 369.027344 615.007812 C 359.160156 610.695312 351.144531 601.453125 343.746094 593.445312 C 343.746094 593.445312 343.746094 592.828125 343.128906 592.828125 C 343.128906 592.828125 343.128906 593.445312 343.128906 593.445312 Z M 323.394531 610.695312 C 318.464844 611.929688 314.148438 611.929688 309.214844 610.695312 L 308.597656 618.089844 C 308.597656 618.089844 307.980469 618.089844 307.980469 618.089844 C 307.980469 618.089844 308.597656 618.707031 308.597656 618.707031 L 319.078125 618.707031 C 319.078125 618.707031 319.078125 618.707031 319.078125 618.089844 Z M 387.527344 616.855469 C 383.210938 618.089844 378.894531 618.089844 374.578125 617.472656 C 374.578125 617.472656 373.960938 617.472656 373.960938 617.472656 L 373.960938 625.480469 C 373.960938 625.480469 374.578125 626.097656 374.578125 626.097656 L 384.441406 626.097656 C 384.441406 626.097656 384.441406 625.480469 385.058594 625.480469 L 388.140625 616.855469 C 388.140625 616.855469 388.140625 616.855469 387.527344 616.855469 Z M 307.980469 622.402344 C 307.980469 622.402344 307.363281 623.019531 307.363281 623.019531 L 305.515625 630.410156 C 305.515625 630.410156 305.515625 631.027344 305.515625 631.027344 L 311.679688 632.257812 C 312.296875 632.257812 312.296875 632.257812 312.296875 631.644531 L 316.613281 623.019531 C 316.613281 623.019531 316.613281 622.402344 315.996094 622.402344 Z M 380.742188 639.035156 L 383.824219 630.410156 C 383.824219 629.792969 383.210938 629.792969 383.210938 629.792969 L 374.578125 629.792969 C 373.960938 629.792969 373.960938 629.792969 373.960938 629.792969 L 373.34375 639.035156 Z M 300.582031 643.964844 L 306.746094 644.582031 C 306.746094 644.582031 306.746094 644.582031 307.363281 644.582031 L 310.445312 635.957031 L 304.28125 635.339844 L 299.964844 643.347656 C 299.964844 643.347656 300.582031 643.964844 300.582031 643.964844 Z M 373.34375 643.347656 C 372.726562 643.347656 372.726562 643.347656 372.726562 643.347656 L 370.875 651.972656 L 378.277344 651.972656 C 378.277344 651.972656 378.894531 651.972656 378.894531 651.972656 L 380.125 643.964844 C 380.125 643.347656 380.125 643.347656 379.507812 643.347656 Z M 311.679688 644.582031 L 311.0625 646.429688 C 311.0625 646.429688 311.679688 646.429688 311.679688 646.429688 L 314.761719 647.046875 C 320.3125 647.046875 325.246094 647.046875 325.246094 647.046875 L 325.246094 646.429688 C 325.246094 646.429688 320.3125 645.195312 314.761719 644.582031 Z M 293.796875 656.285156 C 296.882812 655.671875 299.347656 656.285156 302.429688 657.519531 C 302.429688 657.519531 302.429688 656.902344 302.429688 656.902344 L 305.515625 648.894531 L 298.113281 647.660156 C 298.113281 647.660156 298.113281 647.660156 298.113281 648.277344 L 293.796875 655.671875 C 293.796875 656.285156 293.796875 656.285156 293.796875 656.285156 Z M 382.59375 653.820312 L 394.925781 653.820312 C 394.925781 653.207031 392.457031 651.972656 388.757812 651.972656 C 385.675781 651.972656 382.59375 652.589844 382.59375 653.207031 Z M 367.175781 664.910156 L 375.808594 664.910156 L 377.660156 656.902344 C 377.660156 656.902344 377.042969 656.285156 377.042969 656.285156 L 370.261719 656.285156 C 369.644531 656.285156 369.644531 656.902344 369.644531 656.902344 L 367.175781 664.296875 C 367.175781 664.910156 367.175781 664.910156 367.175781 664.910156 Z M 273.449219 679.082031 L 275.300781 684.011719 C 275.300781 684.625 275.300781 684.625 275.914062 684.625 C 282.699219 682.160156 287.015625 679.082031 295.03125 674.152344 C 296.265625 672.921875 296.882812 672.921875 298.113281 673.535156 C 300.582031 674.152344 303.664062 674.769531 308.597656 675.382812 C 314.148438 676.617188 320.3125 675.382812 326.480469 674.769531 C 326.480469 674.769531 326.480469 674.152344 326.480469 674.152344 C 326.480469 674.152344 326.480469 673.535156 326.480469 673.535156 C 320.929688 671.070312 315.996094 669.839844 309.832031 668.609375 C 306.128906 667.375 301.8125 666.144531 301.199219 661.832031 C 301.199219 661.832031 301.199219 661.214844 301.199219 661.214844 C 298.113281 660.597656 295.03125 659.984375 291.332031 659.984375 C 291.332031 659.984375 291.332031 659.984375 290.714844 660.597656 C 288.25 664.296875 284.546875 666.757812 280.230469 667.992188 C 274.066406 670.457031 267.28125 670.457031 261.117188 669.839844 C 261.117188 669.839844 260.5 669.839844 260.5 670.457031 L 260.5 674.152344 C 260.5 674.769531 261.117188 674.769531 261.117188 674.769531 C 263.582031 675.382812 266.050781 674.769531 268.515625 674.769531 C 273.449219 674.152344 280.230469 672.304688 287.632812 671.070312 C 287.632812 670.457031 287.632812 670.457031 287.632812 670.457031 C 288.25 670.457031 288.863281 671.070312 288.863281 671.6875 C 288.863281 671.6875 288.863281 672.304688 288.863281 672.304688 C 288.25 673.535156 287.632812 674.769531 286.398438 674.769531 L 274.066406 678.464844 C 273.449219 678.464844 273.449219 678.464844 273.449219 679.082031 Z M 336.960938 685.242188 C 341.894531 686.472656 345.59375 685.242188 351.144531 684.011719 C 351.144531 684.011719 355.460938 682.777344 362.859375 680.3125 C 363.476562 680.3125 364.710938 680.3125 364.710938 681.546875 C 364.710938 682.777344 364.09375 683.394531 363.476562 684.011719 C 357.925781 686.472656 352.996094 688.324219 349.292969 688.9375 C 349.292969 688.9375 349.292969 688.9375 349.292969 689.554688 L 351.761719 695.097656 C 359.777344 691.402344 364.710938 688.324219 372.109375 682.777344 C 372.726562 682.160156 373.34375 682.160156 374.578125 682.160156 C 383.824219 684.625 393.691406 685.859375 404.792969 685.242188 C 404.792969 685.242188 404.792969 684.625 404.792969 684.625 C 401.707031 680.929688 394.925781 678.464844 389.992188 677.234375 C 383.210938 676 377.042969 676.617188 375.808594 669.839844 C 375.808594 669.222656 375.191406 669.222656 375.191406 669.222656 L 365.945312 669.222656 C 365.328125 669.222656 365.328125 669.222656 364.710938 669.839844 C 359.160156 680.3125 347.445312 681.546875 336.960938 679.699219 C 336.34375 679.699219 336.34375 680.3125 336.34375 680.3125 Z M 256.800781 669.839844 C 256.800781 669.222656 256.800781 669.222656 256.183594 669.222656 L 249.402344 669.222656 C 249.402344 669.222656 248.785156 669.222656 248.785156 669.839844 L 248.785156 674.152344 C 248.785156 674.769531 249.402344 674.769531 249.402344 674.769531 L 256.183594 674.769531 C 256.800781 674.769531 256.800781 674.769531 256.800781 674.152344 Z M 244.46875 669.839844 L 238.300781 670.457031 C 238.300781 670.457031 238.300781 671.070312 238.300781 671.070312 L 238.917969 676 C 238.917969 676 238.917969 676 239.535156 676 L 245.085938 674.769531 Z M 227.203125 679.699219 C 229.667969 678.464844 232.75 677.847656 235.21875 677.234375 C 235.21875 677.234375 235.21875 676.617188 235.21875 676.617188 L 233.984375 672.921875 C 230.902344 674.152344 228.433594 676.617188 227.203125 679.082031 C 227.203125 679.699219 227.203125 679.699219 227.203125 679.699219 Z M 332.644531 679.699219 L 325.246094 679.699219 C 325.246094 679.699219 324.628906 679.699219 324.628906 679.699219 L 325.246094 685.242188 L 332.644531 685.242188 C 332.644531 685.242188 333.261719 685.242188 333.261719 684.625 Z M 264.816406 687.707031 C 264.816406 687.707031 264.816406 687.707031 265.433594 687.707031 L 271.597656 686.472656 C 271.597656 685.859375 271.597656 685.859375 271.597656 685.859375 C 271.597656 685.859375 271.597656 685.242188 271.597656 685.242188 L 269.75 680.3125 C 269.132812 680.3125 269.132812 679.699219 269.132812 679.699219 C 268.515625 679.699219 268.515625 679.699219 268.515625 680.3125 L 263.582031 682.160156 C 263.582031 682.160156 263.582031 682.777344 263.582031 682.777344 Z M 320.3125 680.3125 C 320.3125 680.3125 320.3125 680.3125 319.695312 680.3125 L 315.378906 680.929688 C 315.378906 680.929688 314.761719 680.929688 314.761719 681.546875 L 315.996094 685.859375 C 315.996094 685.859375 315.996094 686.472656 316.613281 686.472656 L 320.929688 685.242188 C 320.929688 685.242188 321.546875 685.242188 321.546875 684.625 Z M 303.664062 690.171875 C 306.128906 688.9375 309.214844 687.707031 311.679688 687.089844 L 310.445312 683.394531 C 310.445312 683.394531 310.445312 682.777344 310.445312 682.777344 C 310.445312 682.777344 310.445312 682.777344 310.445312 683.394531 C 307.363281 684.625 305.515625 687.089844 303.664062 689.554688 C 303.664062 689.554688 303.664062 690.171875 303.664062 690.171875 Z M 250.632812 691.402344 C 253.71875 690.171875 257.417969 689.554688 260.5 688.9375 C 260.5 688.9375 260.5 688.9375 260.5 688.324219 L 259.265625 684.011719 C 259.265625 684.011719 259.265625 683.394531 259.265625 683.394531 C 255.566406 685.242188 252.484375 687.707031 250.015625 691.402344 C 250.015625 691.402344 250.632812 691.402344 250.632812 691.402344 Z M 339.429688 692.636719 C 339.429688 692.636719 339.429688 693.25 339.429688 693.25 L 340.660156 698.179688 C 340.660156 698.179688 341.277344 698.796875 341.277344 698.796875 L 347.445312 696.949219 C 347.445312 696.949219 347.445312 696.332031 347.445312 696.332031 L 344.976562 690.785156 Z M 327.710938 701.875 C 330.796875 700.644531 333.878906 700.027344 336.960938 699.410156 C 336.960938 699.410156 336.960938 699.410156 336.960938 698.796875 L 335.730469 694.484375 C 335.730469 694.484375 335.730469 694.484375 335.113281 694.484375 C 332.027344 696.332031 328.945312 698.796875 327.097656 701.875 C 327.097656 701.875 327.097656 702.492188 327.097656 702.492188 C 327.710938 702.492188 327.710938 701.875 327.710938 701.875 Z M 327.710938 701.875 " fill-opacity="1" fill-rule="evenodd"/></g></svg>