<svg xmlns="http://www.w3.org/2000/svg" xmlns:xlink="http://www.w3.org/1999/xlink" width="1080" zoomAndPan="magnify" viewBox="0 0 810 809.999993" height="1080" preserveAspectRatio="xMidYMid meet" version="1.0"><defs><clipPath id="7d5c916457"><path d="M 103.105469 610 L 663 610 L 663 734.761719 L 103.105469 734.761719 Z M 103.105469 610 " clip-rule="nonzero"/></clipPath><clipPath id="0282250102"><path d="M 166 361 L 618 361 L 618 456.574219 L 166 456.574219 Z M 166 361 " clip-rule="nonzero"/></clipPath><clipPath id="24c4619899"><path d="M 354.464844 455.789062 C 295.347656 454.476562 239.953125 460.257812 156.917969 422.125 C 129.367188 409.472656 133.179688 382.554688 142.601562 365.535156 C 156.96875 339.585938 208.519531 297.605469 243.113281 266.445312 C 277.414062 235.542969 316.351562 191.433594 350.15625 178.554688 C 380.171875 167.117188 417.421875 174.375 445.933594 189.175781 C 476.859375 205.230469 507.480469 248.828125 535.726562 274.890625 C 561.816406 298.964844 598.183594 324.140625 615.398438 345.546875 C 640.351562 376.589844 631.734375 413.570312 600.914062 426.296875 C 523.855469 458.125 424.785156 457.351562 354.464844 455.789062 Z M 354.464844 455.789062 " clip-rule="evenodd"/></clipPath><clipPath id="426273b31e"><path d="M 161 308 L 220 308 L 220 359 L 161 359 Z M 161 308 " clip-rule="nonzero"/></clipPath><clipPath id="839b92e62f"><path d="M 354.464844 455.789062 C 295.347656 454.476562 239.953125 460.257812 156.917969 422.125 C 129.367188 409.472656 133.179688 382.554688 142.601562 365.535156 C 156.96875 339.585938 208.519531 297.605469 243.113281 266.445312 C 277.414062 235.542969 316.351562 191.433594 350.15625 178.554688 C 380.171875 167.117188 417.421875 174.375 445.933594 189.175781 C 476.859375 205.230469 507.480469 248.828125 535.726562 274.890625 C 561.816406 298.964844 598.183594 324.140625 615.398438 345.546875 C 640.351562 376.589844 631.734375 413.570312 600.914062 426.296875 C 523.855469 458.125 424.785156 457.351562 354.464844 455.789062 Z M 354.464844 455.789062 " clip-rule="evenodd"/></clipPath><clipPath id="6e36ed2d76"><path d="M 413 230 L 468 230 L 468 276 L 413 276 Z M 413 230 " clip-rule="nonzero"/></clipPath><clipPath id="c3851d9dfa"><path d="M 354.464844 455.789062 C 295.347656 454.476562 239.953125 460.257812 156.917969 422.125 C 129.367188 409.472656 133.179688 382.554688 142.601562 365.535156 C 156.96875 339.585938 208.519531 297.605469 243.113281 266.445312 C 277.414062 235.542969 316.351562 191.433594 350.15625 178.554688 C 380.171875 167.117188 417.421875 174.375 445.933594 189.175781 C 476.859375 205.230469 507.480469 248.828125 535.726562 274.890625 C 561.816406 298.964844 598.183594 324.140625 615.398438 345.546875 C 640.351562 376.589844 631.734375 413.570312 600.914062 426.296875 C 523.855469 458.125 424.785156 457.351562 354.464844 455.789062 Z M 354.464844 455.789062 " clip-rule="evenodd"/></clipPath><clipPath id="391ad0466c"><path d="M 268 249 L 333 249 L 333 311 L 268 311 Z M 268 249 " clip-rule="nonzero"/></clipPath><clipPath id="6319349ce2"><path d="M 354.464844 455.789062 C 295.347656 454.476562 239.953125 460.257812 156.917969 422.125 C 129.367188 409.472656 133.179688 382.554688 142.601562 365.535156 C 156.96875 339.585938 208.519531 297.605469 243.113281 266.445312 C 277.414062 235.542969 316.351562 191.433594 350.15625 178.554688 C 380.171875 167.117188 417.421875 174.375 445.933594 189.175781 C 476.859375 205.230469 507.480469 248.828125 535.726562 274.890625 C 561.816406 298.964844 598.183594 324.140625 615.398438 345.546875 C 640.351562 376.589844 631.734375 413.570312 600.914062 426.296875 C 523.855469 458.125 424.785156 457.351562 354.464844 455.789062 Z M 354.464844 455.789062 " clip-rule="evenodd"/></clipPath><clipPath id="40876b5455"><path d="M 364 330 L 444 330 L 444 397 L 364 397 Z M 364 330 " clip-rule="nonzero"/></clipPath><clipPath id="2faf29db37"><path d="M 354.464844 455.789062 C 295.347656 454.476562 239.953125 460.257812 156.917969 422.125 C 129.367188 409.472656 133.179688 382.554688 142.601562 365.535156 C 156.96875 339.585938 208.519531 297.605469 243.113281 266.445312 C 277.414062 235.542969 316.351562 191.433594 350.15625 178.554688 C 380.171875 167.117188 417.421875 174.375 445.933594 189.175781 C 476.859375 205.230469 507.480469 248.828125 535.726562 274.890625 C 561.816406 298.964844 598.183594 324.140625 615.398438 345.546875 C 640.351562 376.589844 631.734375 413.570312 600.914062 426.296875 C 523.855469 458.125 424.785156 457.351562 354.464844 455.789062 Z M 354.464844 455.789062 " clip-rule="evenodd"/></clipPath><clipPath id="b8758ebee9"><path d="M 297 172.765625 L 361 172.765625 L 361 214 L 297 214 Z M 297 172.765625 " clip-rule="nonzero"/></clipPath><clipPath id="00c6ba9d03"><path d="M 354.464844 455.789062 C 295.347656 454.476562 239.953125 460.257812 156.917969 422.125 C 129.367188 409.472656 133.179688 382.554688 142.601562 365.535156 C 156.96875 339.585938 208.519531 297.605469 243.113281 266.445312 C 277.414062 235.542969 316.351562 191.433594 350.15625 178.554688 C 380.171875 167.117188 417.421875 174.375 445.933594 189.175781 C 476.859375 205.230469 507.480469 248.828125 535.726562 274.890625 C 561.816406 298.964844 598.183594 324.140625 615.398438 345.546875 C 640.351562 376.589844 631.734375 413.570312 600.914062 426.296875 C 523.855469 458.125 424.785156 457.351562 354.464844 455.789062 Z M 354.464844 455.789062 " clip-rule="evenodd"/></clipPath><clipPath id="ab72250f8c"><path d="M 533 284 L 597 284 L 597 345 L 533 345 Z M 533 284 " clip-rule="nonzero"/></clipPath><clipPath id="68839e7ce2"><path d="M 354.464844 455.789062 C 295.347656 454.476562 239.953125 460.257812 156.917969 422.125 C 129.367188 409.472656 133.179688 382.554688 142.601562 365.535156 C 156.96875 339.585938 208.519531 297.605469 243.113281 266.445312 C 277.414062 235.542969 316.351562 191.433594 350.15625 178.554688 C 380.171875 167.117188 417.421875 174.375 445.933594 189.175781 C 476.859375 205.230469 507.480469 248.828125 535.726562 274.890625 C 561.816406 298.964844 598.183594 324.140625 615.398438 345.546875 C 640.351562 376.589844 631.734375 413.570312 600.914062 426.296875 C 523.855469 458.125 424.785156 457.351562 354.464844 455.789062 Z M 354.464844 455.789062 " clip-rule="evenodd"/></clipPath><clipPath id="4e5ffb56f3"><path d="M 382 501 L 496 501 L 496 667.648438 L 382 667.648438 Z M 382 501 " clip-rule="nonzero"/></clipPath><clipPath id="3b19aee9a9"><path d="M 288.191406 385.761719 C 270.078125 397.734375 261.285156 426.535156 252.398438 456.375 C 239.332031 500.25 224.304688 552.191406 221.285156 579.125 C 218.078125 607.738281 223.742188 652.808594 251.609375 659.996094 C 300.625 672.632812 468.050781 668.421875 515.363281 654.941406 C 540.5 647.785156 538.125 605.140625 535.492188 579.128906 C 532.78125 552.335938 516.9375 498.691406 506 456.375 C 497.394531 423.085938 488.484375 400.878906 470.859375 394.988281 C 417.054688 376.992188 332.9375 356.195312 288.191406 385.761719 Z M 288.191406 385.761719 " clip-rule="evenodd"/></clipPath><clipPath id="01615e824a"><path d="M 379 497 L 499 497 L 499 667.648438 L 379 667.648438 Z M 379 497 " clip-rule="nonzero"/></clipPath><clipPath id="3630c051a2"><path d="M 288.191406 385.761719 C 270.078125 397.734375 261.285156 426.535156 252.398438 456.375 C 239.332031 500.25 224.304688 552.191406 221.285156 579.125 C 218.078125 607.738281 223.742188 652.808594 251.609375 659.996094 C 300.625 672.632812 468.050781 668.421875 515.363281 654.941406 C 540.5 647.785156 538.125 605.140625 535.492188 579.128906 C 532.78125 552.335938 516.9375 498.691406 506 456.375 C 497.394531 423.085938 488.484375 400.878906 470.859375 394.988281 C 417.054688 376.992188 332.9375 356.195312 288.191406 385.761719 Z M 288.191406 385.761719 " clip-rule="evenodd"/></clipPath><clipPath id="aefcbadddd"><path d="M 394 514 L 485 514 L 485 667.648438 L 394 667.648438 Z M 394 514 " clip-rule="nonzero"/></clipPath><clipPath id="836ed54df4"><path d="M 288.191406 385.761719 C 270.078125 397.734375 261.285156 426.535156 252.398438 456.375 C 239.332031 500.25 224.304688 552.191406 221.285156 579.125 C 218.078125 607.738281 223.742188 652.808594 251.609375 659.996094 C 300.625 672.632812 468.050781 668.421875 515.363281 654.941406 C 540.5 647.785156 538.125 605.140625 535.492188 579.128906 C 532.78125 552.335938 516.9375 498.691406 506 456.375 C 497.394531 423.085938 488.484375 400.878906 470.859375 394.988281 C 417.054688 376.992188 332.9375 356.195312 288.191406 385.761719 Z M 288.191406 385.761719 " clip-rule="evenodd"/></clipPath><clipPath id="118bf22d8c"><path d="M 390 510 L 488 510 L 488 667.648438 L 390 667.648438 Z M 390 510 " clip-rule="nonzero"/></clipPath><clipPath id="88d489f96c"><path d="M 288.191406 385.761719 C 270.078125 397.734375 261.285156 426.535156 252.398438 456.375 C 239.332031 500.25 224.304688 552.191406 221.285156 579.125 C 218.078125 607.738281 223.742188 652.808594 251.609375 659.996094 C 300.625 672.632812 468.050781 668.421875 515.363281 654.941406 C 540.5 647.785156 538.125 605.140625 535.492188 579.128906 C 532.78125 552.335938 516.9375 498.691406 506 456.375 C 497.394531 423.085938 488.484375 400.878906 470.859375 394.988281 C 417.054688 376.992188 332.9375 356.195312 288.191406 385.761719 Z M 288.191406 385.761719 " clip-rule="evenodd"/></clipPath><clipPath id="c0d01df36c"><path d="M 286 433 L 367 433 L 367 515 L 286 515 Z M 286 433 " clip-rule="nonzero"/></clipPath><clipPath id="b8730b4d36"><path d="M 288.191406 385.761719 C 270.078125 397.734375 261.285156 426.535156 252.398438 456.375 C 239.332031 500.25 224.304688 552.191406 221.285156 579.125 C 218.078125 607.738281 223.742188 652.808594 251.609375 659.996094 C 300.625 672.632812 468.050781 668.421875 515.363281 654.941406 C 540.5 647.785156 538.125 605.140625 535.492188 579.128906 C 532.78125 552.335938 516.9375 498.691406 506 456.375 C 497.394531 423.085938 488.484375 400.878906 470.859375 394.988281 C 417.054688 376.992188 332.9375 356.195312 288.191406 385.761719 Z M 288.191406 385.761719 " clip-rule="evenodd"/></clipPath><clipPath id="b6af303c3c"><path d="M 323 433 L 331 433 L 331 515 L 323 515 Z M 323 433 " clip-rule="nonzero"/></clipPath><clipPath id="06ae8d4acc"><path d="M 288.191406 385.761719 C 270.078125 397.734375 261.285156 426.535156 252.398438 456.375 C 239.332031 500.25 224.304688 552.191406 221.285156 579.125 C 218.078125 607.738281 223.742188 652.808594 251.609375 659.996094 C 300.625 672.632812 468.050781 668.421875 515.363281 654.941406 C 540.5 647.785156 538.125 605.140625 535.492188 579.128906 C 532.78125 552.335938 516.9375 498.691406 506 456.375 C 497.394531 423.085938 488.484375 400.878906 470.859375 394.988281 C 417.054688 376.992188 332.9375 356.195312 288.191406 385.761719 Z M 288.191406 385.761719 " clip-rule="evenodd"/></clipPath><clipPath id="ab9b976251"><path d="M 286.570312 473.832031 C 286.570312 471.191406 286.828125 468.574219 287.34375 465.984375 C 287.859375 463.394531 288.621094 460.878906 289.632812 458.4375 C 290.644531 455.996094 291.882812 453.679688 293.347656 451.484375 C 294.816406 449.285156 296.480469 447.253906 298.347656 445.386719 C 300.214844 443.519531 302.246094 441.851562 304.441406 440.382812 C 306.636719 438.917969 308.953125 437.675781 311.394531 436.667969 C 313.832031 435.65625 316.347656 434.890625 318.9375 434.378906 C 321.527344 433.863281 324.140625 433.605469 326.78125 433.605469 C 329.421875 433.605469 332.035156 433.863281 334.625 434.375 C 337.214844 434.890625 339.730469 435.65625 342.167969 436.667969 C 344.609375 437.675781 346.925781 438.917969 349.121094 440.382812 C 351.316406 441.851562 353.347656 443.519531 355.214844 445.386719 C 357.082031 447.253906 358.746094 449.285156 360.214844 451.484375 C 361.679688 453.679688 362.917969 455.996094 363.929688 458.4375 C 364.941406 460.878906 365.703125 463.394531 366.21875 465.984375 C 366.734375 468.574219 366.992188 471.191406 366.992188 473.832031 C 366.992188 476.472656 366.734375 479.089844 366.21875 481.679688 C 365.703125 484.269531 364.941406 486.785156 363.929688 489.226562 C 362.917969 491.667969 361.679688 493.984375 360.214844 496.183594 C 358.746094 498.378906 357.082031 500.410156 355.214844 502.277344 C 353.347656 504.144531 351.316406 505.8125 349.121094 507.28125 C 346.925781 508.75 344.609375 509.988281 342.167969 511 C 339.730469 512.007812 337.214844 512.773438 334.625 513.289062 C 332.035156 513.804688 329.421875 514.0625 326.78125 514.0625 C 324.140625 514.0625 321.527344 513.804688 318.9375 513.289062 C 316.347656 512.773438 313.832031 512.007812 311.394531 511 C 308.953125 509.988281 306.636719 508.75 304.441406 507.28125 C 302.246094 505.8125 300.214844 504.144531 298.347656 502.277344 C 296.480469 500.410156 294.816406 498.378906 293.347656 496.183594 C 291.882812 493.984375 290.644531 491.667969 289.632812 489.226562 C 288.621094 486.785156 287.859375 484.269531 287.34375 481.679688 C 286.828125 479.089844 286.570312 476.472656 286.570312 473.832031 Z M 286.570312 473.832031 " clip-rule="nonzero"/></clipPath><clipPath id="5b2c1865eb"><path d="M 286 470 L 367 470 L 367 478 L 286 478 Z M 286 470 " clip-rule="nonzero"/></clipPath><clipPath id="b649a125ad"><path d="M 288.191406 385.761719 C 270.078125 397.734375 261.285156 426.535156 252.398438 456.375 C 239.332031 500.25 224.304688 552.191406 221.285156 579.125 C 218.078125 607.738281 223.742188 652.808594 251.609375 659.996094 C 300.625 672.632812 468.050781 668.421875 515.363281 654.941406 C 540.5 647.785156 538.125 605.140625 535.492188 579.128906 C 532.78125 552.335938 516.9375 498.691406 506 456.375 C 497.394531 423.085938 488.484375 400.878906 470.859375 394.988281 C 417.054688 376.992188 332.9375 356.195312 288.191406 385.761719 Z M 288.191406 385.761719 " clip-rule="evenodd"/></clipPath><clipPath id="33c5183a7f"><path d="M 286.570312 473.832031 C 286.570312 471.191406 286.828125 468.574219 287.34375 465.984375 C 287.859375 463.394531 288.621094 460.878906 289.632812 458.4375 C 290.644531 455.996094 291.882812 453.679688 293.347656 451.484375 C 294.816406 449.285156 296.480469 447.253906 298.347656 445.386719 C 300.214844 443.519531 302.246094 441.851562 304.441406 440.382812 C 306.636719 438.917969 308.953125 437.675781 311.394531 436.667969 C 313.832031 435.65625 316.347656 434.890625 318.9375 434.378906 C 321.527344 433.863281 324.140625 433.605469 326.78125 433.605469 C 329.421875 433.605469 332.035156 433.863281 334.625 434.375 C 337.214844 434.890625 339.730469 435.65625 342.167969 436.667969 C 344.609375 437.675781 346.925781 438.917969 349.121094 440.382812 C 351.316406 441.851562 353.347656 443.519531 355.214844 445.386719 C 357.082031 447.253906 358.746094 449.285156 360.214844 451.484375 C 361.679688 453.679688 362.917969 455.996094 363.929688 458.4375 C 364.941406 460.878906 365.703125 463.394531 366.21875 465.984375 C 366.734375 468.574219 366.992188 471.191406 366.992188 473.832031 C 366.992188 476.472656 366.734375 479.089844 366.21875 481.679688 C 365.703125 484.269531 364.941406 486.785156 363.929688 489.226562 C 362.917969 491.667969 361.679688 493.984375 360.214844 496.183594 C 358.746094 498.378906 357.082031 500.410156 355.214844 502.277344 C 353.347656 504.144531 351.316406 505.8125 349.121094 507.28125 C 346.925781 508.75 344.609375 509.988281 342.167969 511 C 339.730469 512.007812 337.214844 512.773438 334.625 513.289062 C 332.035156 513.804688 329.421875 514.0625 326.78125 514.0625 C 324.140625 514.0625 321.527344 513.804688 318.9375 513.289062 C 316.347656 512.773438 313.832031 512.007812 311.394531 511 C 308.953125 509.988281 306.636719 508.75 304.441406 507.28125 C 302.246094 505.8125 300.214844 504.144531 298.347656 502.277344 C 296.480469 500.410156 294.816406 498.378906 293.347656 496.183594 C 291.882812 493.984375 290.644531 491.667969 289.632812 489.226562 C 288.621094 486.785156 287.859375 484.269531 287.34375 481.679688 C 286.828125 479.089844 286.570312 476.472656 286.570312 473.832031 Z M 286.570312 473.832031 " clip-rule="nonzero"/></clipPath><clipPath id="3c03104a94"><path d="M 283 430 L 371 430 L 371 518 L 283 518 Z M 283 430 " clip-rule="nonzero"/></clipPath><clipPath id="44a47830ff"><path d="M 288.191406 385.761719 C 270.078125 397.734375 261.285156 426.535156 252.398438 456.375 C 239.332031 500.25 224.304688 552.191406 221.285156 579.125 C 218.078125 607.738281 223.742188 652.808594 251.609375 659.996094 C 300.625 672.632812 468.050781 668.421875 515.363281 654.941406 C 540.5 647.785156 538.125 605.140625 535.492188 579.128906 C 532.78125 552.335938 516.9375 498.691406 506 456.375 C 497.394531 423.085938 488.484375 400.878906 470.859375 394.988281 C 417.054688 376.992188 332.9375 356.195312 288.191406 385.761719 Z M 288.191406 385.761719 " clip-rule="evenodd"/></clipPath><clipPath id="6c4a5daf2b"><path d="M 589 231 L 706.855469 231 L 706.855469 292 L 589 292 Z M 589 231 " clip-rule="nonzero"/></clipPath><clipPath id="2aaafe3ea0"><path d="M 467 75.511719 L 578 75.511719 L 578 186 L 467 186 Z M 467 75.511719 " clip-rule="nonzero"/></clipPath></defs><path fill="#ffffff" d="M 658.945312 672.605469 C 658.945312 673.566406 658.832031 674.523438 658.609375 675.480469 C 658.390625 676.441406 658.058594 677.398438 657.613281 678.351562 C 657.171875 679.304688 656.617188 680.257812 655.953125 681.207031 C 655.292969 682.15625 654.519531 683.101562 653.636719 684.042969 C 652.753906 684.984375 651.765625 685.917969 650.667969 686.847656 C 649.570312 687.78125 648.363281 688.703125 647.050781 689.621094 C 645.738281 690.539062 644.324219 691.449219 642.800781 692.355469 C 641.277344 693.257812 639.652344 694.152344 637.921875 695.039062 C 636.191406 695.925781 634.359375 696.800781 632.429688 697.667969 C 630.496094 698.535156 628.464844 699.394531 626.335938 700.238281 C 624.203125 701.085938 621.976562 701.921875 619.652344 702.742188 C 617.328125 703.566406 614.914062 704.375 612.402344 705.171875 C 609.890625 705.972656 607.289062 706.753906 604.597656 707.527344 C 601.902344 708.296875 599.125 709.054688 596.257812 709.792969 C 593.390625 710.535156 590.4375 711.261719 587.402344 711.972656 C 584.367188 712.683594 581.253906 713.378906 578.058594 714.058594 C 574.859375 714.734375 571.589844 715.398438 568.238281 716.042969 C 564.890625 716.683594 561.46875 717.3125 557.976562 717.921875 C 554.480469 718.527344 550.921875 719.117188 547.289062 719.691406 C 543.660156 720.261719 539.964844 720.8125 536.207031 721.347656 C 532.449219 721.878906 528.632812 722.394531 524.757812 722.886719 C 520.878906 723.378906 516.949219 723.851562 512.960938 724.304688 C 508.976562 724.757812 504.941406 725.1875 500.855469 725.597656 C 496.769531 726.007812 492.636719 726.398438 488.460938 726.765625 C 484.289062 727.132812 480.070312 727.476562 475.816406 727.800781 C 471.5625 728.125 467.269531 728.425781 462.945312 728.703125 C 458.621094 728.980469 454.265625 729.238281 449.882812 729.46875 C 445.496094 729.703125 441.089844 729.914062 436.65625 730.101562 C 432.222656 730.289062 427.773438 730.453125 423.300781 730.59375 C 418.832031 730.734375 414.347656 730.851562 409.847656 730.945312 C 405.351562 731.039062 400.84375 731.109375 396.332031 731.15625 C 391.816406 731.203125 387.300781 731.226562 382.78125 731.226562 C 378.261719 731.226562 373.742188 731.203125 369.230469 731.15625 C 364.714844 731.109375 360.207031 731.039062 355.710938 730.945312 C 351.210938 730.851562 346.730469 730.734375 342.257812 730.59375 C 337.789062 730.453125 333.335938 730.289062 328.902344 730.101562 C 324.46875 729.914062 320.0625 729.703125 315.675781 729.46875 C 311.292969 729.238281 306.9375 728.980469 302.613281 728.703125 C 298.289062 728.425781 294 728.125 289.742188 727.800781 C 285.488281 727.476562 281.273438 727.132812 277.097656 726.765625 C 272.921875 726.398438 268.789062 726.007812 264.703125 725.597656 C 260.617188 725.1875 256.582031 724.757812 252.597656 724.304688 C 248.609375 723.851562 244.679688 723.378906 240.804688 722.886719 C 236.925781 722.394531 233.109375 721.878906 229.351562 721.347656 C 225.59375 720.8125 221.898438 720.261719 218.269531 719.691406 C 214.636719 719.117188 211.078125 718.527344 207.582031 717.921875 C 204.089844 717.3125 200.667969 716.683594 197.320312 716.042969 C 193.96875 715.398438 190.699219 714.734375 187.503906 714.058594 C 184.304688 713.378906 181.191406 712.683594 178.15625 711.972656 C 175.121094 711.261719 172.167969 710.535156 169.300781 709.792969 C 166.433594 709.054688 163.65625 708.296875 160.960938 707.527344 C 158.269531 706.753906 155.667969 705.972656 153.15625 705.171875 C 150.648438 704.375 148.230469 703.566406 145.90625 702.742188 C 143.582031 701.921875 141.355469 701.085938 139.226562 700.238281 C 137.09375 699.394531 135.0625 698.535156 133.128906 697.667969 C 131.199219 696.800781 129.367188 695.925781 127.636719 695.039062 C 125.90625 694.152344 124.28125 693.257812 122.757812 692.355469 C 121.238281 691.449219 119.820312 690.539062 118.507812 689.621094 C 117.195312 688.703125 115.988281 687.78125 114.890625 686.847656 C 113.792969 685.917969 112.804688 684.984375 111.921875 684.042969 C 111.039062 683.101562 110.269531 682.15625 109.605469 681.207031 C 108.941406 680.257812 108.386719 679.304688 107.945312 678.351562 C 107.503906 677.398438 107.171875 676.441406 106.949219 675.480469 C 106.726562 674.523438 106.617188 673.566406 106.617188 672.605469 C 106.617188 671.644531 106.726562 670.6875 106.949219 669.730469 C 107.171875 668.769531 107.503906 667.8125 107.945312 666.859375 C 108.386719 665.90625 108.941406 664.953125 109.605469 664.003906 C 110.269531 663.054688 111.039062 662.109375 111.921875 661.167969 C 112.804688 660.226562 113.792969 659.292969 114.890625 658.363281 C 115.988281 657.429688 117.195312 656.507812 118.507812 655.589844 C 119.820312 654.671875 121.238281 653.757812 122.757812 652.855469 C 124.28125 651.953125 125.90625 651.058594 127.636719 650.171875 C 129.367188 649.285156 131.199219 648.410156 133.128906 647.542969 C 135.0625 646.675781 137.09375 645.816406 139.226562 644.972656 C 141.355469 644.125 143.582031 643.289062 145.90625 642.46875 C 148.230469 641.644531 150.648438 640.835938 153.15625 640.035156 C 155.667969 639.238281 158.269531 638.457031 160.960938 637.683594 C 163.65625 636.914062 166.433594 636.15625 169.300781 635.417969 C 172.167969 634.675781 175.121094 633.949219 178.15625 633.238281 C 181.191406 632.527344 184.304688 631.832031 187.503906 631.152344 C 190.699219 630.476562 193.96875 629.8125 197.320312 629.167969 C 200.667969 628.527344 204.089844 627.898438 207.582031 627.289062 C 211.078125 626.683594 214.636719 626.089844 218.269531 625.519531 C 221.898438 624.949219 225.59375 624.398438 229.351562 623.863281 C 233.109375 623.332031 236.925781 622.816406 240.804688 622.324219 C 244.679688 621.832031 248.609375 621.359375 252.597656 620.90625 C 256.582031 620.453125 260.617188 620.023438 264.703125 619.613281 C 268.789062 619.203125 272.921875 618.8125 277.097656 618.445312 C 281.273438 618.078125 285.488281 617.734375 289.742188 617.410156 C 294 617.085938 298.289062 616.785156 302.613281 616.507812 C 306.9375 616.230469 311.292969 615.972656 315.675781 615.742188 C 320.0625 615.507812 324.46875 615.296875 328.902344 615.109375 C 333.335938 614.921875 337.789062 614.757812 342.257812 614.617188 C 346.730469 614.476562 351.210938 614.359375 355.710938 614.265625 C 360.207031 614.171875 364.714844 614.101562 369.230469 614.054688 C 373.742188 614.007812 378.261719 613.984375 382.78125 613.984375 C 387.300781 613.984375 391.816406 614.007812 396.332031 614.054688 C 400.84375 614.101562 405.351562 614.171875 409.847656 614.265625 C 414.347656 614.359375 418.832031 614.476562 423.300781 614.617188 C 427.773438 614.757812 432.222656 614.921875 436.65625 615.109375 C 441.089844 615.296875 445.496094 615.507812 449.882812 615.742188 C 454.265625 615.972656 458.621094 616.230469 462.945312 616.507812 C 467.269531 616.785156 471.5625 617.085938 475.816406 617.410156 C 480.070312 617.734375 484.289062 618.078125 488.460938 618.445312 C 492.636719 618.8125 496.769531 619.203125 500.855469 619.613281 C 504.941406 620.023438 508.976562 620.453125 512.960938 620.90625 C 516.949219 621.359375 520.878906 621.832031 524.757812 622.324219 C 528.632812 622.816406 532.449219 623.332031 536.207031 623.863281 C 539.964844 624.398438 543.660156 624.949219 547.289062 625.519531 C 550.921875 626.089844 554.480469 626.683594 557.976562 627.289062 C 561.46875 627.898438 564.890625 628.527344 568.238281 629.167969 C 571.589844 629.8125 574.859375 630.476562 578.058594 631.152344 C 581.253906 631.832031 584.367188 632.527344 587.402344 633.238281 C 590.4375 633.949219 593.390625 634.675781 596.257812 635.417969 C 599.125 636.15625 601.902344 636.914062 604.597656 637.683594 C 607.289062 638.457031 609.890625 639.238281 612.402344 640.035156 C 614.914062 640.835938 617.328125 641.644531 619.652344 642.46875 C 621.976562 643.289062 624.203125 644.125 626.335938 644.972656 C 628.464844 645.816406 630.496094 646.675781 632.429688 647.542969 C 634.359375 648.410156 636.191406 649.285156 637.921875 650.171875 C 639.652344 651.058594 641.277344 651.953125 642.800781 652.855469 C 644.324219 653.757812 645.738281 654.671875 647.050781 655.589844 C 648.363281 656.507812 649.570312 657.429688 650.667969 658.363281 C 651.765625 659.292969 652.753906 660.226562 653.636719 661.167969 C 654.519531 662.109375 655.292969 663.054688 655.953125 664.003906 C 656.617188 664.953125 657.171875 665.90625 657.613281 666.859375 C 658.058594 667.8125 658.390625 668.769531 658.609375 669.730469 C 658.832031 670.6875 658.945312 671.644531 658.945312 672.605469 Z M 658.945312 672.605469 " fill-opacity="1" fill-rule="nonzero"/><g clip-path="url(#7d5c916457)"><path fill="#000000" d="M 382.78125 610.460938 C 490.058594 610.460938 583.195312 623.492188 629.4375 642.414062 C 641.859375 647.496094 650.988281 653.074219 656.347656 658.863281 C 660.445312 663.289062 662.464844 667.921875 662.464844 672.605469 C 662.464844 677.289062 660.445312 681.921875 656.347656 686.347656 C 650.988281 692.136719 641.859375 697.714844 629.4375 702.796875 C 583.195312 721.71875 490.058594 734.75 382.78125 734.75 C 275.503906 734.75 182.363281 721.71875 136.128906 702.796875 C 123.703125 697.714844 114.570312 692.136719 109.214844 686.347656 C 105.113281 681.921875 103.09375 677.289062 103.09375 672.605469 C 103.09375 667.921875 105.113281 663.289062 109.214844 658.863281 C 114.570312 653.074219 123.703125 647.496094 136.128906 642.414062 C 182.363281 623.492188 275.503906 610.460938 382.78125 610.460938 Z M 382.78125 617.507812 C 276.671875 617.507812 184.527344 630.21875 138.792969 648.9375 C 129.363281 652.796875 121.964844 656.882812 116.945312 661.199219 C 112.644531 664.894531 110.136719 668.628906 110.136719 672.605469 C 110.136719 676.582031 112.644531 680.316406 116.945312 684.011719 C 121.964844 688.328125 129.363281 692.414062 138.792969 696.273438 C 184.527344 714.992188 276.671875 727.703125 382.78125 727.703125 C 488.890625 727.703125 581.035156 714.992188 626.769531 696.273438 C 636.199219 692.414062 643.59375 688.328125 648.617188 684.011719 C 652.917969 680.316406 655.421875 676.582031 655.421875 672.605469 C 655.421875 668.628906 652.917969 664.894531 648.617188 661.199219 C 643.59375 656.882812 636.199219 652.796875 626.769531 648.9375 C 581.035156 630.21875 488.890625 617.507812 382.78125 617.507812 Z M 382.78125 617.507812 " fill-opacity="1" fill-rule="evenodd"/></g><path fill="#ffffff" d="M 517.277344 645.828125 C 519.058594 632.945312 531.71875 541.238281 570.132812 492.152344 C 585.078125 473.050781 617.515625 491.699219 583.511719 552.335938 C 541.792969 626.722656 516.34375 672.949219 517.277344 645.828125 Z M 517.277344 645.828125 " fill-opacity="1" fill-rule="evenodd"/><path fill="#000000" d="M 513.789062 645.34375 C 515.589844 632.320312 528.515625 539.621094 567.359375 489.980469 C 574.710938 480.585938 585.59375 479.023438 593.21875 484.8125 C 597.566406 488.113281 601 493.972656 601.824219 502.640625 C 602.933594 514.234375 599.324219 531.34375 586.582031 554.058594 C 557.101562 606.625 535.550781 645.191406 525.667969 654.25 C 522.734375 656.941406 520.105469 657.472656 518.378906 657.015625 L 517.265625 656.570312 L 516.308594 655.90625 L 515.265625 654.6875 C 515.023438 654.320312 514.804688 653.890625 514.609375 653.394531 C 513.992188 651.832031 513.632812 649.300781 513.757812 645.707031 C 513.761719 645.585938 513.773438 645.464844 513.789062 645.34375 Z M 520.910156 648.820312 C 522.132812 647.652344 523.90625 645.84375 525.375 643.921875 C 536.457031 629.390625 555.523438 595.042969 580.4375 550.613281 C 592.183594 529.671875 595.835938 514 594.8125 503.308594 C 594.222656 497.117188 592.066406 492.785156 588.964844 490.429688 C 584.183594 486.800781 577.511719 488.4375 572.90625 494.324219 C 535.109375 542.625 522.644531 632.707031 520.792969 646.121094 C 520.773438 647.0625 520.832031 648.015625 520.910156 648.820312 Z M 520.910156 648.820312 " fill-opacity="1" fill-rule="evenodd"/><path fill="#ffffff" d="M 525.734375 640.875 C 531.058594 633.410156 568.945312 580.261719 611.933594 563.160156 C 628.660156 556.507812 646.089844 579.871094 602.636719 605.820312 C 549.332031 637.648438 516.546875 657.597656 525.734375 640.875 Z M 525.734375 640.875 " fill-opacity="1" fill-rule="evenodd"/><path fill="#000000" d="M 522.867188 638.824219 C 528.277344 631.234375 566.90625 577.28125 610.628906 559.890625 C 616.925781 557.386719 623.285156 558.394531 627.652344 561.742188 C 631.832031 564.941406 634.347656 570.292969 633.203125 577.109375 C 631.773438 585.644531 624.03125 597.148438 604.441406 608.84375 C 566.632812 631.421875 538.941406 647.976562 528.964844 650.136719 C 526.910156 650.582031 525.320312 650.492188 524.21875 650.140625 L 523.34375 649.773438 L 522.484375 649.199219 L 521.730469 648.417969 L 521.167969 647.496094 L 520.726562 645.964844 L 520.789062 643.910156 C 521 642.707031 521.578125 641.121094 522.648438 639.175781 C 522.714844 639.054688 522.789062 638.9375 522.867188 638.824219 Z M 528.691406 642.820312 C 529.738281 642.53125 530.988281 642.144531 532.140625 641.667969 C 544.632812 636.511719 569.058594 621.765625 600.832031 602.792969 C 613.15625 595.4375 620.371094 588.382812 623.90625 582.164062 C 626.839844 577.003906 627.097656 572.636719 625.347656 569.585938 C 623.171875 565.792969 618.125 564.492188 613.230469 566.4375 C 571.316406 583.113281 534.417969 634.757812 528.730469 642.738281 C 528.71875 642.765625 528.703125 642.792969 528.691406 642.820312 Z M 528.691406 642.820312 " fill-opacity="1" fill-rule="evenodd"/><path fill="#ffffff" d="M 533.363281 640.789062 C 539.527344 638.003906 583.414062 618.160156 619.640625 622.824219 C 633.738281 624.636719 638.914062 645.585938 599.574219 646.320312 C 551.3125 647.222656 521.515625 648.015625 533.363281 640.789062 Z M 533.363281 640.789062 " fill-opacity="1" fill-rule="evenodd"/><path fill="#000000" d="M 531.910156 637.578125 C 538.210938 634.730469 583.074219 614.566406 620.089844 619.328125 C 629.5625 620.546875 635.488281 628.632812 632.988281 636.097656 C 632.023438 638.964844 629.792969 641.898438 625.707031 644.304688 C 620.617188 647.296875 612.289062 649.609375 599.640625 649.84375 C 565.335938 650.488281 540.21875 650.957031 532.359375 648.730469 C 530.679688 648.257812 529.527344 647.597656 528.824219 646.960938 L 527.753906 645.585938 L 527.390625 644.644531 L 527.242188 643.613281 C 527.207031 642.175781 528.121094 639.859375 531.53125 637.78125 C 531.652344 637.707031 531.78125 637.636719 531.910156 637.578125 Z M 538.207031 642.492188 C 539.964844 642.742188 542.035156 642.980469 544.101562 643.082031 C 556.050781 643.675781 575.484375 643.246094 599.507812 642.800781 C 612.136719 642.5625 619.820312 640.289062 623.84375 637.058594 C 626.511719 634.917969 627.074219 632.378906 625.898438 630.300781 C 624.710938 628.214844 622.207031 626.707031 619.191406 626.320312 C 587.757812 622.273438 550.445312 637.171875 538.207031 642.492188 Z M 538.207031 642.492188 " fill-opacity="1" fill-rule="evenodd"/><path fill="#000000" d="M 526.441406 639.464844 C 526.152344 640.191406 525.332031 640.539062 524.609375 640.25 C 523.890625 639.960938 523.539062 639.136719 523.828125 638.417969 C 546.601562 581.621094 544.625 580.914062 571.957031 526.097656 C 572.304688 525.398438 573.148438 525.117188 573.84375 525.464844 C 574.542969 525.8125 574.824219 526.65625 574.476562 527.355469 C 547.195312 582.074219 549.171875 582.777344 526.441406 639.464844 Z M 526.441406 639.464844 " fill-opacity="1" fill-rule="evenodd"/><path fill="#000000" d="M 531.320312 638.1875 C 530.691406 638.640625 529.808594 638.5 529.351562 637.871094 C 528.898438 637.238281 529.039062 636.359375 529.667969 635.902344 C 581.875 598.21875 585.863281 596.308594 597.0625 590.023438 C 597.738281 589.644531 598.597656 589.882812 598.980469 590.5625 C 599.363281 591.238281 599.117188 592.101562 598.4375 592.480469 C 587.285156 598.742188 583.320312 600.652344 531.320312 638.1875 Z M 531.320312 638.1875 " fill-opacity="1" fill-rule="evenodd"/><path fill="#000000" d="M 534.03125 644.03125 C 533.257812 644.128906 532.554688 643.582031 532.453125 642.8125 C 532.351562 642.039062 532.898438 641.332031 533.667969 641.230469 C 564.84375 637.214844 564.679688 637.347656 595.910156 633.066406 C 596.679688 632.960938 597.390625 633.503906 597.496094 634.269531 C 597.605469 635.042969 597.0625 635.753906 596.292969 635.859375 C 565.050781 640.144531 565.21875 640.007812 534.03125 644.03125 Z M 534.03125 644.03125 " fill-opacity="1" fill-rule="evenodd"/><path fill="#ffffff" d="M 248.285156 645.828125 C 246.503906 632.945312 233.84375 541.238281 195.429688 492.152344 C 180.484375 473.050781 148.046875 491.699219 182.054688 552.335938 C 223.769531 626.722656 249.21875 672.949219 248.285156 645.828125 Z M 248.285156 645.828125 " fill-opacity="1" fill-rule="evenodd"/><path fill="#000000" d="M 251.804688 645.707031 C 251.929688 649.300781 251.570312 651.832031 250.953125 653.394531 C 250.757812 653.890625 250.539062 654.320312 250.300781 654.6875 L 249.253906 655.90625 L 248.296875 656.570312 L 247.183594 657.015625 C 245.457031 657.472656 242.832031 656.941406 239.894531 654.25 C 230.011719 645.191406 208.460938 606.625 178.984375 554.058594 C 166.238281 531.34375 162.628906 514.234375 163.738281 502.640625 C 164.5625 493.972656 167.996094 488.113281 172.34375 484.8125 C 179.96875 479.023438 190.851562 480.585938 198.203125 489.980469 C 237.046875 539.621094 249.972656 632.320312 251.773438 645.34375 C 251.789062 645.464844 251.800781 645.585938 251.804688 645.707031 Z M 244.652344 648.820312 C 244.730469 648.015625 244.792969 647.0625 244.769531 646.121094 C 242.917969 632.707031 230.453125 542.625 192.65625 494.324219 C 188.050781 488.4375 181.378906 486.800781 176.597656 490.429688 C 173.496094 492.785156 171.34375 497.117188 170.75 503.308594 C 169.730469 514 173.378906 529.671875 185.125 550.613281 C 210.042969 595.042969 229.105469 629.390625 240.191406 643.921875 C 241.65625 645.84375 243.433594 647.652344 244.652344 648.820312 Z M 244.652344 648.820312 " fill-opacity="1" fill-rule="evenodd"/><path fill="#ffffff" d="M 239.828125 640.875 C 234.507812 633.410156 196.617188 580.261719 153.632812 563.160156 C 136.902344 556.507812 119.472656 579.871094 162.925781 605.820312 C 216.230469 637.648438 249.015625 657.597656 239.828125 640.875 Z M 239.828125 640.875 " fill-opacity="1" fill-rule="evenodd"/><path fill="#000000" d="M 242.914062 639.175781 C 243.984375 641.121094 244.5625 642.707031 244.773438 643.910156 L 244.835938 645.964844 L 244.394531 647.496094 L 243.832031 648.417969 L 243.078125 649.199219 L 242.21875 649.773438 L 241.34375 650.140625 C 240.246094 650.492188 238.652344 650.582031 236.597656 650.136719 C 226.621094 647.976562 198.929688 631.421875 161.121094 608.84375 C 141.53125 597.148438 133.789062 585.644531 132.359375 577.109375 C 131.214844 570.292969 133.730469 564.941406 137.910156 561.742188 C 142.277344 558.394531 148.636719 557.386719 154.933594 559.890625 C 198.65625 577.28125 237.285156 631.234375 242.695312 638.824219 C 242.773438 638.9375 242.847656 639.054688 242.914062 639.175781 Z M 236.871094 642.820312 C 236.859375 642.792969 236.84375 642.765625 236.832031 642.738281 C 231.144531 634.757812 194.25 583.113281 152.332031 566.4375 C 147.4375 564.492188 142.394531 565.792969 140.21875 569.585938 C 138.464844 572.636719 138.722656 577.003906 141.65625 582.164062 C 145.191406 588.382812 152.410156 595.4375 164.730469 602.792969 C 196.503906 621.765625 220.929688 636.511719 233.421875 641.667969 C 234.574219 642.144531 235.824219 642.53125 236.871094 642.820312 Z M 236.871094 642.820312 " fill-opacity="1" fill-rule="evenodd"/><path fill="#ffffff" d="M 232.199219 640.789062 C 226.035156 638.003906 182.148438 618.160156 145.921875 622.824219 C 131.824219 624.636719 126.648438 645.585938 165.988281 646.320312 C 214.25 647.222656 244.046875 648.015625 232.199219 640.789062 Z M 232.199219 640.789062 " fill-opacity="1" fill-rule="evenodd"/><path fill="#000000" d="M 234.03125 637.78125 C 237.441406 639.859375 238.355469 642.175781 238.320312 643.613281 L 238.171875 644.644531 L 237.808594 645.585938 L 236.738281 646.960938 C 236.035156 647.597656 234.882812 648.257812 233.203125 648.730469 C 225.34375 650.957031 200.226562 650.488281 165.921875 649.84375 C 153.273438 649.609375 144.945312 647.296875 139.855469 644.304688 C 135.769531 641.898438 133.539062 638.964844 132.578125 636.097656 C 130.074219 628.632812 136 620.546875 145.472656 619.328125 C 182.488281 614.566406 227.351562 634.730469 233.652344 637.578125 C 233.78125 637.636719 233.910156 637.707031 234.03125 637.78125 Z M 227.355469 642.492188 C 215.117188 637.171875 177.804688 622.273438 146.371094 626.320312 C 143.355469 626.707031 140.851562 628.214844 139.664062 630.300781 C 137.734375 633.699219 140.148438 637.601562 147.890625 640.210938 C 152.296875 641.695312 158.25 642.652344 166.054688 642.800781 C 190.082031 643.246094 209.511719 643.675781 221.460938 643.082031 C 223.527344 642.980469 225.597656 642.742188 227.355469 642.492188 Z M 227.355469 642.492188 " fill-opacity="1" fill-rule="evenodd"/><path fill="#000000" d="M 241.738281 638.417969 C 242.023438 639.136719 241.671875 639.960938 240.953125 640.25 C 240.230469 640.539062 239.410156 640.191406 239.121094 639.464844 C 216.390625 582.777344 218.367188 582.074219 191.085938 527.355469 C 190.738281 526.65625 191.019531 525.8125 191.71875 525.464844 C 192.414062 525.117188 193.257812 525.398438 193.609375 526.097656 C 220.9375 580.914062 218.960938 581.621094 241.738281 638.417969 Z M 241.738281 638.417969 " fill-opacity="1" fill-rule="evenodd"/><path fill="#000000" d="M 235.894531 635.902344 C 236.523438 636.359375 236.664062 637.238281 236.210938 637.871094 C 235.753906 638.5 234.875 638.640625 234.246094 638.1875 C 182.246094 600.652344 178.277344 598.742188 167.125 592.480469 C 166.445312 592.101562 166.203125 591.238281 166.582031 590.5625 C 166.964844 589.882812 167.824219 589.644531 168.5 590.023438 C 179.703125 596.308594 183.6875 598.21875 235.894531 635.902344 Z M 235.894531 635.902344 " fill-opacity="1" fill-rule="evenodd"/><path fill="#000000" d="M 231.894531 641.230469 C 232.664062 641.332031 233.210938 642.039062 233.113281 642.8125 C 233.011719 643.582031 232.304688 644.128906 231.53125 644.03125 C 200.347656 640.007812 200.511719 640.144531 169.269531 635.859375 C 168.5 635.753906 167.960938 635.042969 168.066406 634.269531 C 168.171875 633.503906 168.882812 632.960938 169.652344 633.066406 C 200.882812 637.347656 200.71875 637.214844 231.894531 641.230469 Z M 231.894531 641.230469 " fill-opacity="1" fill-rule="evenodd"/><path fill="#ffffff" d="M 354.464844 455.789062 C 295.347656 454.476562 239.953125 460.257812 156.917969 422.125 C 129.367188 409.472656 133.179688 382.554688 142.601562 365.535156 C 156.96875 339.585938 208.519531 297.605469 243.113281 266.445312 C 277.414062 235.542969 316.351562 191.433594 350.15625 178.554688 C 380.171875 167.117188 417.421875 174.375 445.933594 189.175781 C 476.859375 205.230469 507.480469 248.828125 535.726562 274.890625 C 561.816406 298.964844 598.183594 324.140625 615.398438 345.546875 C 640.351562 376.589844 631.734375 413.570312 600.914062 426.296875 C 523.855469 458.125 424.785156 457.351562 354.464844 455.789062 Z M 354.464844 455.789062 " fill-opacity="1" fill-rule="evenodd"/><g clip-path="url(#0282250102)"><g clip-path="url(#24c4619899)"><path fill="#000000" d="M 231.429688 474.539062 L 231.425781 474.539062 C 224.441406 472.253906 187.238281 459.59375 169.511719 425.304688 C 164.101562 414.835938 167.472656 403.902344 177.292969 394.265625 C 190.523438 381.28125 215.914062 370.582031 244.054688 367.15625 C 356.152344 353.507812 402.464844 369.417969 447.085938 383.238281 C 476.289062 392.28125 504.75 400.441406 551.117188 398.476562 C 551.695312 398.453125 576.140625 394.71875 594.675781 400.152344 C 602.785156 402.535156 609.773438 406.671875 613.730469 413.214844 C 616.425781 417.675781 617.773438 423.273438 617 430.320312 C 616.496094 434.902344 615.808594 440.628906 611.835938 446.980469 C 607.988281 453.128906 600.980469 459.953125 587.554688 466.742188 C 562.128906 479.601562 512.695312 492.761719 415.640625 501.96875 C 316.121094 511.410156 282.207031 497.933594 271.453125 493.707031 C 250.683594 485.542969 250.859375 485.4375 231.429688 474.539062 Z M 234.570312 468.21875 C 253.878906 479.050781 253.601562 479.113281 274.027344 487.148438 C 284.539062 491.28125 317.703125 504.179688 414.976562 494.953125 C 510.589844 485.882812 559.328125 473.121094 584.375 460.457031 C 596.183594 454.484375 602.480469 448.648438 605.867188 443.242188 C 609.121094 438.035156 609.585938 433.304688 610 429.546875 C 610.574219 424.332031 609.695312 420.164062 607.703125 416.859375 C 604.617188 411.761719 599.015625 408.773438 592.691406 406.917969 C 575.132812 401.765625 551.960938 405.496094 551.414062 405.519531 C 503.988281 407.527344 474.871094 399.222656 445.003906 389.972656 C 401.023438 376.347656 355.378906 360.699219 244.90625 374.152344 C 218.527344 377.359375 194.625 387.125 182.226562 399.292969 C 174.960938 406.421875 171.765625 414.328125 175.769531 422.070312 C 192.585938 454.59375 228.300781 466.113281 233.9375 467.945312 C 234.15625 468.015625 234.367188 468.105469 234.570312 468.21875 Z M 234.570312 468.21875 " fill-opacity="1" fill-rule="evenodd"/></g></g><g clip-path="url(#426273b31e)"><g clip-path="url(#839b92e62f)"><path fill="#000000" d="M 190.378906 308.910156 C 206.707031 308.910156 219.65625 320.210938 219.65625 333.679688 C 219.65625 347.144531 206.707031 358.445312 190.378906 358.445312 C 174.054688 358.445312 161.105469 347.144531 161.105469 333.679688 C 161.105469 320.210938 174.054688 308.910156 190.378906 308.910156 Z M 190.378906 315.957031 C 178.277344 315.957031 168.148438 323.695312 168.148438 333.679688 C 168.148438 343.660156 178.277344 351.398438 190.378906 351.398438 C 202.484375 351.398438 212.609375 343.660156 212.609375 333.679688 C 212.609375 323.695312 202.484375 315.957031 190.378906 315.957031 Z M 190.378906 315.957031 " fill-opacity="1" fill-rule="evenodd"/></g></g><g clip-path="url(#6e36ed2d76)"><g clip-path="url(#c3851d9dfa)"><path fill="#000000" d="M 440.476562 230.730469 C 455.667969 230.730469 467.65625 241.050781 467.65625 253.246094 C 467.65625 265.441406 455.667969 275.761719 440.476562 275.761719 C 425.285156 275.761719 413.292969 265.441406 413.292969 253.246094 C 413.292969 241.050781 425.285156 230.730469 440.476562 230.730469 Z M 440.476562 237.777344 C 429.546875 237.777344 420.339844 244.472656 420.339844 253.246094 C 420.339844 262.019531 429.546875 268.714844 440.476562 268.714844 C 451.402344 268.714844 460.609375 262.019531 460.609375 253.246094 C 460.609375 244.472656 451.402344 237.777344 440.476562 237.777344 Z M 440.476562 237.777344 " fill-opacity="1" fill-rule="evenodd"/></g></g><g clip-path="url(#391ad0466c)"><g clip-path="url(#6319349ce2)"><path fill="#000000" d="M 300.578125 249.722656 C 318.402344 249.722656 332.75 263.324219 332.75 279.917969 C 332.75 296.507812 318.402344 310.109375 300.578125 310.109375 C 282.753906 310.109375 268.40625 296.507812 268.40625 279.917969 C 268.40625 263.324219 282.753906 249.722656 300.578125 249.722656 Z M 300.578125 256.769531 C 286.777344 256.769531 275.453125 267.070312 275.453125 279.917969 C 275.453125 292.761719 286.777344 303.0625 300.578125 303.0625 C 314.378906 303.0625 325.707031 292.761719 325.707031 279.917969 C 325.707031 267.070312 314.378906 256.769531 300.578125 256.769531 Z M 300.578125 256.769531 " fill-opacity="1" fill-rule="evenodd"/></g></g><g clip-path="url(#40876b5455)"><g clip-path="url(#2faf29db37)"><path fill="#000000" d="M 404.195312 330.15625 C 426.34375 330.15625 443.996094 345.167969 443.996094 363.175781 C 443.996094 381.179688 426.34375 396.195312 404.195312 396.195312 C 382.046875 396.195312 364.390625 381.179688 364.390625 363.175781 C 364.390625 345.167969 382.046875 330.15625 404.195312 330.15625 Z M 404.195312 337.203125 C 386.292969 337.203125 371.4375 348.621094 371.4375 363.175781 C 371.4375 377.730469 386.292969 389.144531 404.195312 389.144531 C 422.097656 389.144531 436.953125 377.730469 436.953125 363.175781 C 436.953125 348.621094 422.097656 337.203125 404.195312 337.203125 Z M 404.195312 337.203125 " fill-opacity="1" fill-rule="evenodd"/></g></g><g clip-path="url(#b8758ebee9)"><g clip-path="url(#00c6ba9d03)"><path fill="#000000" d="M 329.230469 153.429688 C 346.546875 153.429688 360.542969 167.035156 360.542969 183.707031 C 360.542969 200.375 346.546875 213.980469 329.230469 213.980469 C 311.910156 213.980469 297.914062 200.375 297.914062 183.707031 C 297.914062 167.035156 311.910156 153.429688 329.230469 153.429688 Z M 329.230469 160.476562 C 315.871094 160.476562 304.957031 170.847656 304.957031 183.707031 C 304.957031 196.5625 315.871094 206.933594 329.230469 206.933594 C 342.585938 206.933594 353.5 196.5625 353.5 183.707031 C 353.5 170.847656 342.585938 160.476562 329.230469 160.476562 Z M 329.230469 160.476562 " fill-opacity="1" fill-rule="evenodd"/></g></g><g clip-path="url(#ab72250f8c)"><g clip-path="url(#68839e7ce2)"><path fill="#000000" d="M 565.152344 284.378906 C 582.472656 284.378906 596.46875 297.984375 596.46875 314.65625 C 596.46875 331.328125 582.472656 344.929688 565.152344 344.929688 C 547.832031 344.929688 533.839844 331.328125 533.839844 314.65625 C 533.839844 297.984375 547.832031 284.378906 565.152344 284.378906 Z M 565.152344 291.425781 C 551.796875 291.425781 540.882812 301.796875 540.882812 314.65625 C 540.882812 327.515625 551.796875 337.882812 565.152344 337.882812 C 578.511719 337.882812 589.425781 327.515625 589.425781 314.65625 C 589.425781 301.796875 578.511719 291.425781 565.152344 291.425781 Z M 565.152344 291.425781 " fill-opacity="1" fill-rule="evenodd"/></g></g><path fill="#000000" d="M 354.386719 459.3125 C 294.847656 457.988281 239.074219 463.734375 155.449219 425.328125 C 125.464844 411.554688 129.265625 382.351562 139.523438 363.828125 C 154.003906 337.664062 205.878906 295.242188 240.753906 263.824219 C 275.375 232.636719 314.785156 188.257812 348.902344 175.261719 C 379.816406 163.484375 418.191406 170.804688 447.554688 186.046875 C 478.710938 202.222656 509.660156 246.042969 538.113281 272.300781 C 564.328125 296.492188 600.84375 321.824219 618.140625 343.339844 C 644.808594 376.507812 635.195312 415.949219 602.253906 429.554688 C 524.753906 461.570312 425.117188 460.882812 354.386719 459.3125 Z M 354.542969 452.265625 C 424.453125 453.816406 522.960938 454.683594 599.566406 423.039062 C 628.277344 411.183594 635.898438 376.667969 612.652344 347.753906 C 595.523438 326.453125 559.300781 301.4375 533.339844 277.480469 C 505.304688 251.613281 475.007812 208.238281 444.3125 192.304688 C 416.652344 177.941406 380.53125 170.753906 351.40625 181.847656 C 317.917969 194.605469 279.453125 238.445312 245.46875 269.0625 C 211.160156 299.96875 159.929688 341.507812 145.683594 367.238281 C 137.089844 382.757812 133.269531 407.386719 158.390625 418.921875 C 240.832031 456.785156 295.847656 450.964844 354.542969 452.265625 Z M 354.542969 452.265625 " fill-opacity="1" fill-rule="evenodd"/><path fill="#ffffff" d="M 288.191406 385.761719 C 270.078125 397.734375 261.285156 426.535156 252.398438 456.375 C 239.332031 500.25 224.304688 552.191406 221.285156 579.125 C 218.078125 607.738281 223.742188 652.808594 251.609375 659.996094 C 300.625 672.632812 468.050781 668.421875 515.363281 654.941406 C 540.5 647.785156 538.125 605.140625 535.492188 579.128906 C 532.78125 552.335938 516.9375 498.691406 506 456.375 C 497.394531 423.085938 488.484375 400.878906 470.859375 394.988281 C 417.054688 376.992188 332.9375 356.195312 288.191406 385.761719 Z M 288.191406 385.761719 " fill-opacity="1" fill-rule="evenodd"/><g clip-path="url(#4e5ffb56f3)"><g clip-path="url(#3b19aee9a9)"><path fill="#ffffff" d="M 386.664062 541.78125 C 392.457031 522.839844 410.144531 501.261719 439.074219 501.261719 C 468.003906 501.261719 485.691406 522.839844 491.484375 541.78125 C 500.222656 570.339844 491.484375 672.605469 491.484375 672.605469 L 386.664062 672.605469 C 386.664062 672.605469 377.925781 570.339844 386.664062 541.78125 Z M 386.664062 541.78125 " fill-opacity="1" fill-rule="evenodd"/></g></g><g clip-path="url(#01615e824a)"><g clip-path="url(#3630c051a2)"><path fill="#000000" d="M 383.292969 540.75 C 389.457031 520.609375 408.320312 497.738281 439.074219 497.738281 C 469.828125 497.738281 488.695312 520.609375 494.855469 540.75 C 503.675781 569.597656 494.996094 672.90625 494.996094 672.90625 C 494.835938 674.730469 493.316406 676.132812 491.484375 676.132812 L 386.664062 676.132812 C 384.832031 676.132812 383.308594 674.730469 383.152344 672.90625 C 383.152344 672.90625 374.472656 569.597656 383.292969 540.75 Z M 390.027344 542.8125 C 382.300781 568.074219 388.5 651.605469 389.90625 669.082031 L 488.242188 669.082031 C 489.644531 651.605469 495.847656 568.074219 488.117188 542.8125 C 482.691406 525.066406 466.171875 504.785156 439.074219 504.785156 C 411.976562 504.785156 395.460938 525.066406 390.027344 542.8125 Z M 390.027344 542.8125 " fill-opacity="1" fill-rule="evenodd"/></g></g><g clip-path="url(#aefcbadddd)"><g clip-path="url(#836ed54df4)"><path fill="#ffffff" d="M 397.132812 551.554688 C 401.789062 534.023438 416.007812 514.058594 439.257812 514.058594 C 462.511719 514.058594 476.726562 534.023438 481.382812 551.554688 C 488.40625 577.976562 481.382812 672.605469 481.382812 672.605469 L 397.132812 672.605469 C 397.132812 672.605469 390.113281 577.976562 397.132812 551.554688 Z M 397.132812 551.554688 " fill-opacity="1" fill-rule="evenodd"/></g></g><g clip-path="url(#118bf22d8c)"><g clip-path="url(#88d489f96c)"><path fill="#000000" d="M 393.730469 550.648438 C 398.738281 531.789062 414.242188 510.535156 439.257812 510.535156 C 464.277344 510.535156 479.777344 531.789062 484.789062 550.648438 C 491.875 577.324219 484.898438 672.867188 484.898438 672.867188 C 484.761719 674.703125 483.230469 676.128906 481.382812 676.128906 L 397.132812 676.128906 C 395.289062 676.128906 393.757812 674.703125 393.621094 672.867188 C 393.621094 672.867188 386.636719 577.324219 393.730469 550.648438 Z M 400.535156 552.457031 C 394.355469 575.710938 399.242188 652.3125 400.410156 669.078125 L 478.109375 669.078125 C 479.269531 652.3125 484.160156 575.710938 477.980469 552.457031 C 473.679688 536.261719 460.742188 517.582031 439.257812 517.582031 C 417.773438 517.582031 404.839844 536.261719 400.535156 552.457031 Z M 400.535156 552.457031 " fill-opacity="1" fill-rule="evenodd"/></g></g><g clip-path="url(#c0d01df36c)"><g clip-path="url(#b8730b4d36)"><path fill="#ffffff" d="M 366.992188 473.832031 C 366.992188 475.148438 366.925781 476.464844 366.796875 477.777344 C 366.667969 479.085938 366.476562 480.386719 366.21875 481.679688 C 365.960938 482.972656 365.640625 484.25 365.257812 485.511719 C 364.875 486.769531 364.433594 488.011719 363.929688 489.226562 C 363.425781 490.445312 362.863281 491.632812 362.242188 492.796875 C 361.621094 493.957031 360.945312 495.085938 360.214844 496.183594 C 359.480469 497.277344 358.699219 498.335938 357.863281 499.351562 C 357.027344 500.371094 356.144531 501.347656 355.214844 502.277344 C 354.28125 503.210938 353.308594 504.09375 352.289062 504.929688 C 351.273438 505.765625 350.214844 506.550781 349.121094 507.28125 C 348.023438 508.011719 346.898438 508.691406 345.734375 509.3125 C 344.574219 509.933594 343.386719 510.496094 342.167969 511 C 340.953125 511.503906 339.714844 511.945312 338.453125 512.328125 C 337.191406 512.710938 335.917969 513.03125 334.625 513.289062 C 333.335938 513.546875 332.03125 513.738281 330.722656 513.867188 C 329.410156 513.996094 328.097656 514.0625 326.78125 514.0625 C 325.464844 514.0625 324.152344 513.996094 322.839844 513.867188 C 321.53125 513.738281 320.226562 513.546875 318.9375 513.289062 C 317.644531 513.03125 316.371094 512.710938 315.109375 512.328125 C 313.847656 511.945312 312.609375 511.503906 311.394531 511 C 310.175781 510.496094 308.988281 509.933594 307.828125 509.3125 C 306.664062 508.691406 305.539062 508.011719 304.441406 507.28125 C 303.347656 506.550781 302.289062 505.765625 301.273438 504.929688 C 300.253906 504.09375 299.28125 503.210938 298.347656 502.277344 C 297.417969 501.347656 296.535156 500.371094 295.699219 499.351562 C 294.863281 498.335938 294.082031 497.277344 293.347656 496.183594 C 292.617188 495.085938 291.941406 493.957031 291.320312 492.796875 C 290.699219 491.632812 290.136719 490.445312 289.632812 489.226562 C 289.128906 488.011719 288.6875 486.769531 288.304688 485.511719 C 287.921875 484.25 287.601562 482.972656 287.34375 481.679688 C 287.085938 480.386719 286.894531 479.085938 286.765625 477.777344 C 286.636719 476.464844 286.570312 475.148438 286.570312 473.832031 C 286.570312 472.515625 286.636719 471.199219 286.765625 469.890625 C 286.894531 468.578125 287.085938 467.277344 287.34375 465.984375 C 287.601562 464.691406 287.921875 463.414062 288.304688 462.15625 C 288.6875 460.894531 289.128906 459.65625 289.632812 458.4375 C 290.136719 457.21875 290.699219 456.03125 291.320312 454.867188 C 291.941406 453.707031 292.617188 452.578125 293.347656 451.484375 C 294.082031 450.386719 294.863281 449.332031 295.699219 448.3125 C 296.535156 447.292969 297.417969 446.316406 298.347656 445.386719 C 299.28125 444.453125 300.253906 443.570312 301.273438 442.734375 C 302.289062 441.898438 303.347656 441.117188 304.441406 440.382812 C 305.539062 439.652344 306.664062 438.976562 307.828125 438.355469 C 308.988281 437.734375 310.175781 437.171875 311.394531 436.667969 C 312.609375 436.160156 313.847656 435.71875 315.109375 435.335938 C 316.371094 434.953125 317.644531 434.632812 318.9375 434.378906 C 320.226562 434.121094 321.53125 433.925781 322.839844 433.796875 C 324.152344 433.667969 325.464844 433.605469 326.78125 433.605469 C 328.097656 433.605469 329.410156 433.667969 330.722656 433.796875 C 332.03125 433.925781 333.335938 434.121094 334.625 434.378906 C 335.917969 434.632812 337.191406 434.953125 338.453125 435.335938 C 339.714844 435.71875 340.953125 436.160156 342.167969 436.667969 C 343.386719 437.171875 344.574219 437.734375 345.734375 438.355469 C 346.898438 438.976562 348.023438 439.652344 349.121094 440.382812 C 350.214844 441.117188 351.273438 441.898438 352.289062 442.734375 C 353.308594 443.570312 354.28125 444.453125 355.214844 445.386719 C 356.144531 446.316406 357.027344 447.292969 357.863281 448.3125 C 358.699219 449.332031 359.480469 450.386719 360.214844 451.484375 C 360.945312 452.578125 361.621094 453.707031 362.242188 454.867188 C 362.863281 456.03125 363.425781 457.21875 363.929688 458.4375 C 364.433594 459.65625 364.875 460.894531 365.257812 462.15625 C 365.640625 463.414062 365.960938 464.691406 366.21875 465.984375 C 366.476562 467.277344 366.667969 468.578125 366.796875 469.890625 C 366.925781 471.199219 366.992188 472.515625 366.992188 473.832031 Z M 366.992188 473.832031 " fill-opacity="1" fill-rule="nonzero"/></g></g><g clip-path="url(#b6af303c3c)"><g clip-path="url(#06ae8d4acc)"><g clip-path="url(#ab9b976251)"><path fill="#000000" d="M 323.261719 433.601562 C 323.261719 431.660156 324.839844 430.078125 326.78125 430.078125 C 328.722656 430.078125 330.300781 431.660156 330.300781 433.601562 L 330.300781 514.058594 C 330.300781 516.007812 328.722656 517.585938 326.78125 517.585938 C 324.839844 517.585938 323.261719 516.007812 323.261719 514.058594 Z M 323.261719 433.601562 " fill-opacity="1" fill-rule="evenodd"/></g></g></g><g clip-path="url(#5b2c1865eb)"><g clip-path="url(#b649a125ad)"><g clip-path="url(#33c5183a7f)"><path fill="#000000" d="M 286.570312 477.355469 C 284.628906 477.355469 283.050781 475.773438 283.050781 473.832031 C 283.050781 471.886719 284.628906 470.308594 286.570312 470.308594 L 366.988281 470.308594 C 368.933594 470.308594 370.511719 471.886719 370.511719 473.832031 C 370.511719 475.773438 368.933594 477.355469 366.988281 477.355469 Z M 286.570312 477.355469 " fill-opacity="1" fill-rule="evenodd"/></g></g></g><g clip-path="url(#3c03104a94)"><g clip-path="url(#44a47830ff)"><path fill="#000000" d="M 326.78125 430.078125 C 350.917969 430.078125 370.511719 449.683594 370.511719 473.832031 C 370.511719 497.976562 350.917969 517.582031 326.78125 517.582031 C 302.644531 517.582031 283.050781 497.976562 283.050781 473.832031 C 283.050781 449.683594 302.644531 430.078125 326.78125 430.078125 Z M 326.78125 437.128906 C 306.53125 437.128906 290.09375 453.574219 290.09375 473.832031 C 290.09375 494.089844 306.53125 510.539062 326.78125 510.539062 C 347.03125 510.539062 363.46875 494.089844 363.46875 473.832031 C 363.46875 453.574219 347.03125 437.128906 326.78125 437.128906 Z M 326.78125 437.128906 " fill-opacity="1" fill-rule="evenodd"/></g></g><path fill="#000000" d="M 286.25 382.824219 C 304.699219 370.632812 329.609375 366.617188 356.445312 367.535156 C 395.835938 368.875 439.410156 380.753906 471.976562 391.644531 C 481.578125 394.855469 488.925781 402.378906 494.929688 413.765625 C 500.539062 424.410156 505.027344 438.53125 509.410156 455.492188 C 520.394531 497.988281 536.273438 551.867188 538.996094 578.773438 C 540.613281 594.761719 542.058594 616.875 537.460938 633.589844 C 534.109375 645.761719 527.570312 655.128906 516.328125 658.332031 C 468.683594 671.902344 300.085938 676.132812 250.730469 663.410156 C 238.539062 660.265625 230.085938 650.644531 224.734375 638.046875 C 217.164062 620.230469 215.800781 596.433594 217.785156 578.734375 C 220.820312 551.664062 235.890625 499.460938 249.023438 455.367188 C 254.425781 437.226562 259.820312 419.472656 267.214844 405.542969 C 272.382812 395.808594 278.554688 387.910156 286.25 382.824219 Z M 290.132812 388.707031 C 283.335938 393.195312 278 400.257812 273.4375 408.851562 C 266.234375 422.410156 261.035156 439.714844 255.773438 457.378906 C 242.769531 501.039062 227.789062 552.71875 224.785156 579.519531 C 222.921875 596.15625 224.097656 618.539062 231.214844 635.289062 C 235.652344 645.730469 242.386719 653.980469 252.488281 656.585938 C 301.160156 669.132812 467.417969 664.9375 514.398438 651.550781 C 523.265625 649.027344 528.027344 641.316406 530.667969 631.71875 C 535.054688 615.789062 533.53125 594.714844 531.988281 579.484375 C 529.289062 552.804688 513.480469 499.398438 502.589844 457.257812 C 498.371094 440.925781 494.101562 427.300781 488.695312 417.050781 C 483.683594 407.539062 477.765625 401.011719 469.742188 398.328125 C 437.738281 387.625 394.921875 375.894531 356.203125 374.578125 C 330.964844 373.71875 307.480469 377.238281 290.132812 388.707031 Z M 290.132812 388.707031 " fill-opacity="1" fill-rule="evenodd"/><path fill="#ffffff" d="M 135.730469 232.464844 C 243.910156 230.117188 237.003906 228.089844 246.273438 225.9375 C 255.171875 223.871094 274.691406 218.453125 266.855469 202.414062 C 258.527344 185.367188 242.089844 194.871094 240.0625 195.394531 C 233.609375 180.652344 232.28125 156.261719 201.976562 156.96875 C 161.972656 157.902344 163.53125 193.027344 162.824219 197.085938 C 153.699219 193.714844 131.828125 181.714844 116.953125 200.847656 C 105.03125 216.179688 116.453125 231.230469 135.730469 232.464844 Z M 135.730469 232.464844 " fill-opacity="1" fill-rule="evenodd"/><path fill="#000000" d="M 135.503906 235.980469 C 122.253906 235.132812 112.453125 228.246094 109.515625 219.351562 C 107.488281 213.214844 108.519531 205.953125 114.171875 198.683594 C 122.5625 187.894531 132.917969 185.867188 142.46875 187.03125 C 148.992188 187.824219 155.113281 190.195312 159.773438 192.082031 C 160.5 184.972656 162.820312 171.53125 173.78125 162.550781 C 179.960938 157.484375 188.886719 153.746094 201.894531 153.445312 C 222.042969 152.972656 230.597656 162.578125 235.792969 173.816406 C 238.402344 179.464844 240.070312 185.589844 242.046875 190.894531 C 248.234375 188.597656 262.167969 184.792969 270.019531 200.867188 C 272.472656 205.894531 272.644531 210.105469 271.5625 213.609375 C 270.46875 217.121094 268.046875 220 264.898438 222.273438 C 259.496094 226.171875 251.863281 228.257812 247.070312 229.371094 C 237.738281 231.535156 244.691406 233.625 135.808594 235.988281 C 135.707031 235.992188 135.605469 235.988281 135.503906 235.980469 Z M 135.808594 228.941406 C 243.121094 226.609375 236.273438 224.644531 245.476562 222.503906 C 249.578125 221.554688 256.15625 219.894531 260.777344 216.558594 C 262.640625 215.214844 264.1875 213.601562 264.832031 211.519531 C 265.480469 209.433594 265.152344 206.957031 263.691406 203.960938 C 261.816406 200.125 259.507812 197.894531 257.007812 196.777344 C 253.222656 195.082031 249.175781 195.894531 246.226562 196.820312 C 243.542969 197.664062 241.570312 198.644531 240.941406 198.808594 C 239.269531 199.238281 237.53125 198.390625 236.835938 196.808594 C 234.261719 190.929688 232.511719 183.511719 229.398438 176.773438 C 225.21875 167.730469 218.273438 160.113281 202.058594 160.488281 C 191.066406 160.746094 183.46875 163.722656 178.242188 168.003906 C 165.875 178.136719 166.753906 195.050781 166.292969 197.691406 C 166.113281 198.722656 165.488281 199.617188 164.582031 200.140625 C 163.675781 200.660156 162.585938 200.753906 161.605469 200.390625 C 158.042969 199.074219 152.5 196.394531 146.191406 194.867188 C 137.667969 192.804688 127.574219 192.921875 119.734375 203.011719 C 115.847656 208.007812 114.8125 212.921875 116.203125 217.136719 C 118.386719 223.742188 125.992188 228.269531 135.808594 228.941406 Z M 135.808594 228.941406 " fill-opacity="1" fill-rule="evenodd"/><path fill="#ffffff" d="M 686.660156 287.902344 C 610.402344 286.246094 615.269531 284.8125 608.734375 283.292969 C 602.464844 281.832031 588.703125 278.003906 594.226562 266.675781 C 600.097656 254.632812 611.683594 261.347656 613.113281 261.71875 C 617.664062 251.304688 618.601562 234.074219 639.960938 234.574219 C 668.160156 235.234375 667.0625 260.042969 667.5625 262.910156 C 673.996094 260.53125 689.410156 252.054688 699.898438 265.566406 C 708.300781 276.398438 700.25 287.03125 686.660156 287.902344 Z M 686.660156 287.902344 " fill-opacity="1" fill-rule="evenodd"/><g clip-path="url(#6c4a5daf2b)"><path fill="#000000" d="M 686.585938 291.425781 C 609.617188 289.75 614.535156 288.257812 607.9375 286.722656 C 604.453125 285.914062 598.917969 284.378906 594.996094 281.539062 C 592.585938 279.796875 590.75 277.582031 589.917969 274.886719 C 589.085938 272.207031 589.1875 268.976562 591.0625 265.132812 C 596.605469 253.761719 606.179688 255.59375 611.085938 257.238281 C 612.347656 253.699219 613.480469 249.730469 615.179688 246.042969 C 618.992188 237.78125 625.257812 230.707031 640.042969 231.050781 C 649.515625 231.273438 656 234.027344 660.5 237.71875 C 667.855469 243.761719 669.882812 252.5625 670.578125 257.917969 C 673.734375 256.671875 677.648438 255.285156 681.785156 254.78125 C 688.835938 253.921875 696.484375 255.421875 702.679688 263.40625 C 706.921875 268.875 707.648438 274.347656 706.128906 278.960938 C 703.945312 285.578125 696.726562 290.789062 686.886719 291.417969 C 686.785156 291.425781 686.683594 291.429688 686.585938 291.425781 Z M 686.582031 284.375 C 692.984375 283.925781 698.015625 281.074219 699.4375 276.753906 C 700.328125 274.054688 699.597656 270.925781 697.117188 267.730469 C 691.90625 261.015625 685.191406 260.976562 679.53125 262.351562 C 675.132812 263.417969 671.269531 265.296875 668.785156 266.214844 C 667.804688 266.578125 666.710938 266.488281 665.804688 265.964844 C 664.898438 265.445312 664.269531 264.546875 664.089844 263.515625 C 663.777344 261.710938 664.476562 250.101562 656.03125 243.167969 C 652.492188 240.261719 647.332031 238.269531 639.878906 238.097656 C 629.03125 237.84375 624.371094 242.933594 621.574219 248.996094 C 619.382812 253.75 618.152344 258.984375 616.339844 263.128906 C 615.648438 264.714844 613.90625 265.5625 612.234375 265.128906 C 611.785156 265.015625 610.371094 264.3125 608.457031 263.710938 C 606.578125 263.121094 604.003906 262.558594 601.59375 263.636719 C 600.011719 264.34375 598.578125 265.789062 597.390625 268.222656 C 596.503906 270.039062 596.253906 271.535156 596.644531 272.804688 C 597.035156 274.0625 597.996094 275.015625 599.121094 275.828125 C 602.261719 278.101562 606.742188 279.210938 609.535156 279.859375 C 616.003906 281.363281 611.195312 282.734375 686.582031 284.375 Z M 686.582031 284.375 " fill-opacity="1" fill-rule="evenodd"/></g><path fill="#ffffff" d="M 543.289062 130.664062 C 543.289062 131.34375 543.253906 132.019531 543.1875 132.691406 C 543.121094 133.367188 543.023438 134.039062 542.890625 134.703125 C 542.757812 135.367188 542.59375 136.023438 542.398438 136.671875 C 542.199219 137.320312 541.972656 137.957031 541.710938 138.585938 C 541.453125 139.210938 541.164062 139.824219 540.84375 140.421875 C 540.527344 141.019531 540.175781 141.597656 539.800781 142.164062 C 539.425781 142.726562 539.023438 143.269531 538.59375 143.792969 C 538.164062 144.316406 537.707031 144.820312 537.230469 145.296875 C 536.75 145.777344 536.25 146.230469 535.726562 146.664062 C 535.199219 147.09375 534.65625 147.496094 534.09375 147.871094 C 533.53125 148.25 532.949219 148.597656 532.351562 148.917969 C 531.753906 149.234375 531.144531 149.523438 530.519531 149.785156 C 529.890625 150.042969 529.253906 150.273438 528.605469 150.46875 C 527.957031 150.664062 527.300781 150.832031 526.636719 150.960938 C 525.972656 151.09375 525.304688 151.195312 524.628906 151.261719 C 523.957031 151.328125 523.28125 151.359375 522.601562 151.359375 C 521.925781 151.359375 521.25 151.328125 520.574219 151.261719 C 519.898438 151.195312 519.230469 151.09375 518.566406 150.960938 C 517.902344 150.832031 517.246094 150.664062 516.597656 150.46875 C 515.949219 150.273438 515.3125 150.042969 514.6875 149.785156 C 514.058594 149.523438 513.449219 149.234375 512.851562 148.917969 C 512.253906 148.597656 511.671875 148.25 511.109375 147.871094 C 510.546875 147.496094 510.003906 147.09375 509.480469 146.664062 C 508.957031 146.230469 508.453125 145.777344 507.976562 145.296875 C 507.496094 144.820312 507.042969 144.316406 506.613281 143.792969 C 506.183594 143.269531 505.777344 142.726562 505.402344 142.164062 C 505.027344 141.597656 504.679688 141.019531 504.359375 140.421875 C 504.039062 139.824219 503.75 139.210938 503.492188 138.585938 C 503.230469 137.957031 503.003906 137.320312 502.808594 136.671875 C 502.609375 136.023438 502.445312 135.367188 502.3125 134.703125 C 502.183594 134.039062 502.082031 133.367188 502.015625 132.691406 C 501.949219 132.019531 501.917969 131.34375 501.917969 130.664062 C 501.917969 129.988281 501.949219 129.3125 502.015625 128.636719 C 502.082031 127.960938 502.183594 127.292969 502.3125 126.628906 C 502.445312 125.960938 502.609375 125.304688 502.808594 124.65625 C 503.003906 124.007812 503.230469 123.371094 503.492188 122.746094 C 503.75 122.117188 504.039062 121.507812 504.359375 120.910156 C 504.679688 120.3125 505.027344 119.730469 505.402344 119.167969 C 505.777344 118.601562 506.183594 118.058594 506.613281 117.535156 C 507.042969 117.011719 507.496094 116.511719 507.976562 116.03125 C 508.453125 115.550781 508.957031 115.097656 509.480469 114.667969 C 510.003906 114.238281 510.546875 113.832031 511.109375 113.457031 C 511.671875 113.082031 512.253906 112.730469 512.851562 112.414062 C 513.449219 112.09375 514.058594 111.804688 514.6875 111.542969 C 515.3125 111.285156 515.949219 111.058594 516.597656 110.859375 C 517.246094 110.664062 517.902344 110.5 518.566406 110.367188 C 519.230469 110.234375 519.898438 110.136719 520.574219 110.070312 C 521.25 110.003906 521.925781 109.96875 522.601562 109.96875 C 523.28125 109.96875 523.957031 110.003906 524.628906 110.070312 C 525.304688 110.136719 525.972656 110.234375 526.636719 110.367188 C 527.300781 110.5 527.957031 110.664062 528.605469 110.859375 C 529.253906 111.058594 529.890625 111.285156 530.519531 111.542969 C 531.144531 111.804688 531.753906 112.09375 532.351562 112.414062 C 532.949219 112.730469 533.53125 113.082031 534.09375 113.457031 C 534.65625 113.832031 535.199219 114.238281 535.726562 114.667969 C 536.25 115.097656 536.75 115.550781 537.230469 116.03125 C 537.707031 116.511719 538.164062 117.011719 538.59375 117.535156 C 539.023438 118.058594 539.425781 118.601562 539.800781 119.167969 C 540.175781 119.730469 540.527344 120.3125 540.84375 120.910156 C 541.164062 121.507812 541.453125 122.117188 541.710938 122.746094 C 541.972656 123.371094 542.199219 124.007812 542.398438 124.65625 C 542.59375 125.304688 542.757812 125.960938 542.890625 126.628906 C 543.023438 127.292969 543.121094 127.960938 543.1875 128.636719 C 543.253906 129.3125 543.289062 129.988281 543.289062 130.664062 Z M 543.289062 130.664062 " fill-opacity="1" fill-rule="nonzero"/><path fill="#000000" d="M 522.601562 106.445312 C 535.960938 106.445312 546.808594 117.296875 546.808594 130.664062 C 546.808594 144.03125 535.960938 154.882812 522.601562 154.882812 C 509.242188 154.882812 498.394531 144.03125 498.394531 130.664062 C 498.394531 117.296875 509.242188 106.445312 522.601562 106.445312 Z M 522.601562 113.492188 C 513.128906 113.492188 505.4375 121.1875 505.4375 130.664062 C 505.4375 140.140625 513.128906 147.835938 522.601562 147.835938 C 532.074219 147.835938 539.765625 140.140625 539.765625 130.664062 C 539.765625 121.1875 532.074219 113.492188 522.601562 113.492188 Z M 522.601562 113.492188 " fill-opacity="1" fill-rule="evenodd"/><g clip-path="url(#2aaafe3ea0)"><path fill="#000000" d="M 544.285156 106.234375 C 543.164062 107.820312 540.960938 108.199219 539.375 107.074219 C 537.789062 105.949219 537.414062 103.75 538.539062 102.160156 L 550.519531 85.242188 C 551.640625 83.65625 553.84375 83.277344 555.429688 84.402344 C 557.015625 85.527344 557.390625 87.726562 556.269531 89.316406 Z M 498.140625 108.988281 C 499.726562 110.113281 500.101562 112.3125 498.976562 113.898438 C 497.855469 115.488281 495.65625 115.863281 494.070312 114.738281 L 477.15625 102.753906 C 475.570312 101.628906 475.195312 99.425781 476.316406 97.839844 C 477.441406 96.253906 479.640625 95.878906 481.226562 97 Z M 490.085938 134.609375 C 491.976562 134.164062 493.875 135.34375 494.316406 137.238281 C 494.761719 139.128906 493.582031 141.027344 491.691406 141.46875 L 471.511719 146.191406 C 469.617188 146.636719 467.71875 145.457031 467.277344 143.566406 C 466.835938 141.671875 468.011719 139.773438 469.90625 139.332031 Z M 527.203125 163.054688 C 526.71875 161.171875 527.851562 159.246094 529.734375 158.761719 C 531.617188 158.273438 533.539062 159.410156 534.027344 161.292969 L 539.207031 181.367188 C 539.695312 183.25 538.5625 185.175781 536.679688 185.660156 C 534.796875 186.148438 532.875 185.011719 532.386719 183.128906 Z M 494.683594 176.292969 C 493.5625 177.878906 491.359375 178.257812 489.773438 177.132812 C 488.1875 176.007812 487.8125 173.808594 488.933594 172.21875 L 500.917969 155.300781 C 502.039062 153.710938 504.238281 153.335938 505.828125 154.460938 C 507.414062 155.585938 507.789062 157.785156 506.664062 159.375 Z M 568.164062 158.613281 C 569.75 159.738281 570.128906 161.941406 569.003906 163.527344 C 567.878906 165.113281 565.679688 165.488281 564.09375 164.367188 L 547.183594 152.378906 C 545.59375 151.253906 545.21875 149.054688 546.34375 147.46875 C 547.464844 145.878906 549.664062 145.503906 551.253906 146.628906 Z M 573.644531 115.054688 C 575.535156 114.613281 577.433594 115.789062 577.878906 117.683594 C 578.320312 119.578125 577.140625 121.476562 575.25 121.917969 L 555.066406 126.640625 C 553.175781 127.082031 551.277344 125.90625 550.835938 124.011719 C 550.394531 122.117188 551.570312 120.222656 553.464844 119.777344 Z M 505.742188 79.925781 C 505.257812 78.042969 506.390625 76.121094 508.273438 75.632812 C 510.15625 75.148438 512.078125 76.28125 512.5625 78.164062 L 517.75 98.242188 C 518.234375 100.125 517.101562 102.046875 515.21875 102.535156 C 513.335938 103.019531 511.414062 101.886719 510.929688 100.003906 Z M 505.742188 79.925781 " fill-opacity="1" fill-rule="evenodd"/></g></svg>