<svg xmlns="http://www.w3.org/2000/svg" xmlns:xlink="http://www.w3.org/1999/xlink" width="1080" zoomAndPan="magnify" viewBox="0 0 810 809.999993" height="1080" preserveAspectRatio="xMidYMid meet" version="1.0"><defs><clipPath id="bba6271367"><path d="M 105.394531 60 L 704.644531 60 L 704.644531 750 L 105.394531 750 Z M 105.394531 60 " clip-rule="nonzero"/></clipPath></defs><g clip-path="url(#bba6271367)"><path fill="#000000" d="M 704.417969 444.542969 C 704.28125 443.386719 703.792969 442.292969 703.035156 441.410156 L 453.578125 159.425781 C 456.617188 155.59375 459.230469 151.402344 461.28125 146.90625 C 464.367188 140.175781 466.160156 133.046875 466.644531 125.726562 C 467.984375 106.003906 459.65625 86.785156 444.355469 74.3125 C 440.332031 71.015625 435.863281 68.234375 431.046875 66.046875 C 414.058594 58.296875 394.777344 58.707031 378.109375 67.15625 C 378.066406 67.171875 378.035156 67.199219 378.003906 67.214844 C 377.972656 67.214844 377.945312 67.230469 377.914062 67.246094 C 365.710938 73.460938 355.867188 83.777344 350.167969 96.265625 C 347.117188 102.980469 345.324219 110.046875 344.820312 117.277344 C 344.820312 117.277344 344.820312 117.277344 344.820312 117.292969 C 343.757812 132.335938 348.390625 146.980469 357.234375 158.605469 L 107.050781 441.410156 C 106.277344 442.277344 105.789062 443.371094 105.667969 444.527344 C 103.964844 459.628906 109.601562 490.941406 143.089844 501.378906 C 143.394531 501.46875 143.683594 501.53125 143.972656 501.605469 L 143.972656 696.703125 L 135.601562 696.703125 C 129.050781 696.703125 123.929688 702.871094 123.929688 710.726562 L 123.929688 735.539062 C 123.929688 743.410156 129.050781 749.5625 135.601562 749.5625 L 674.96875 749.5625 C 681.519531 749.5625 686.640625 743.410156 686.640625 735.539062 L 686.640625 710.726562 C 686.640625 702.859375 681.519531 696.703125 674.96875 696.703125 L 667.464844 696.703125 L 667.464844 501.210938 C 700.511719 490.621094 706.101562 459.539062 704.402344 444.527344 Z M 675.304688 735.554688 C 675.304688 736.953125 674.832031 737.878906 674.546875 738.226562 L 136.039062 738.226562 C 135.753906 737.863281 135.28125 736.9375 135.28125 735.554688 L 135.28125 710.742188 C 135.28125 709.34375 135.753906 708.417969 136.039062 708.054688 L 674.558594 708.054688 C 674.847656 708.417969 675.320312 709.34375 675.320312 710.742188 L 675.320312 735.554688 Z M 116.820312 450.710938 C 116.773438 449.402344 116.789062 448.308594 116.820312 447.488281 L 119.449219 444.527344 L 266.296875 278.523438 L 364.953125 167.003906 C 365.453125 167.460938 365.984375 167.886719 366.519531 168.328125 C 369.421875 170.757812 372.535156 172.960938 375.90625 174.84375 C 375.90625 174.84375 375.921875 174.84375 375.9375 174.859375 C 377.304688 175.636719 378.765625 176.363281 380.390625 177.125 C 380.9375 177.367188 381.484375 177.59375 382.03125 177.824219 C 383.125 178.277344 384.21875 178.703125 385.328125 179.097656 C 386.117188 179.371094 386.910156 179.644531 387.699219 179.890625 C 388.882812 180.253906 390.070312 180.589844 391.253906 180.878906 C 392.105469 181.089844 392.941406 181.273438 393.792969 181.453125 C 395.066406 181.710938 396.359375 181.925781 397.652344 182.09375 C 400.324219 182.457031 403.027344 182.65625 405.71875 182.65625 C 408.40625 182.65625 411.128906 182.457031 413.816406 182.09375 C 415.109375 181.925781 416.382812 181.699219 417.660156 181.4375 C 418.511719 181.273438 419.363281 181.089844 420.214844 180.878906 C 421.398438 180.589844 422.582031 180.253906 423.769531 179.890625 C 424.558594 179.644531 425.363281 179.386719 426.152344 179.113281 C 427.261719 178.71875 428.355469 178.292969 429.453125 177.839844 C 430.453125 177.414062 431.457031 176.972656 432.445312 176.484375 C 436.957031 174.296875 441.152344 171.53125 444.964844 168.34375 C 445.222656 168.128906 445.496094 167.917969 445.753906 167.6875 L 572.320312 310.765625 L 693.28125 447.519531 C 693.492188 452.109375 693.21875 464.976562 685.105469 475.960938 C 681.261719 481.171875 675.640625 485.929688 667.496094 489.210938 C 666.265625 489.710938 664.988281 490.183594 663.636719 490.59375 C 663.027344 490.789062 662.421875 490.941406 661.828125 491.0625 C 659.882812 491.457031 658 491.472656 656.160156 491.15625 C 654.183594 490.804688 652.242188 490.058594 650.324219 488.875 C 635.285156 479.609375 625.164062 447.824219 620.484375 427.507812 C 620.042969 425.566406 619.648438 423.742188 619.300781 422.039062 C 618.828125 419.746094 618.449219 417.679688 618.160156 415.933594 C 618.160156 415.933594 618.160156 415.917969 618.160156 415.917969 C 617.839844 413.988281 616.550781 412.347656 614.726562 411.601562 C 614.636719 411.558594 614.527344 411.542969 614.421875 411.511719 C 613.816406 411.296875 613.175781 411.160156 612.554688 411.160156 C 611.855469 411.160156 611.1875 411.328125 610.53125 411.585938 C 610.09375 411.753906 609.652344 411.953125 609.242188 412.242188 C 608.890625 412.484375 608.558594 412.710938 608.207031 412.953125 C 595.277344 421.964844 584.035156 424.363281 574.796875 420.066406 C 550.351562 408.671875 540.960938 353.273438 539.410156 332.886719 C 539.320312 331.6875 538.832031 330.5625 538.058594 329.648438 L 537.890625 329.453125 C 537.632812 329.164062 537.34375 328.90625 537.007812 328.675781 C 535.625 327.703125 533.894531 327.386719 532.253906 327.839844 C 519.824219 331.246094 509.460938 329.863281 500.621094 323.632812 C 476.414062 306.601562 472.464844 259.457031 472.433594 258.984375 C 472.222656 256.207031 470.019531 254.003906 467.238281 253.773438 C 436.746094 251.253906 417.691406 233.535156 410.59375 201.097656 C 410.035156 198.5 407.722656 196.632812 405.050781 196.632812 C 402.375 196.632812 400.082031 198.484375 399.503906 201.097656 C 392.421875 233.535156 373.355469 251.265625 342.859375 253.773438 C 340.082031 254.003906 337.890625 256.21875 337.664062 258.984375 C 337.632812 259.457031 333.683594 306.601562 309.480469 323.632812 C 300.621094 329.863281 290.273438 331.246094 277.847656 327.839844 C 276.875 327.582031 275.871094 327.613281 274.914062 327.855469 C 274.261719 328.023438 273.636719 328.28125 273.074219 328.675781 C 271.691406 329.648438 270.828125 331.183594 270.691406 332.871094 C 269.140625 353.261719 259.75 408.65625 235.304688 420.050781 C 226.261719 424.257812 215.324219 422.054688 202.757812 413.546875 C 202.132812 413.121094 201.496094 412.695312 200.859375 412.242188 C 200.765625 412.164062 200.644531 412.132812 200.539062 412.074219 C 199.550781 411.449219 198.425781 411.175781 197.289062 411.222656 C 196.632812 411.253906 195.980469 411.34375 195.375 411.601562 C 193.566406 412.347656 192.257812 413.988281 191.9375 415.917969 C 191.832031 416.554688 191.710938 417.253906 191.574219 417.984375 C 191.242188 419.820312 190.832031 421.917969 190.34375 424.210938 C 189.964844 425.960938 189.554688 427.8125 189.082031 429.757812 C 184.207031 450.085938 174.285156 479.910156 159.773438 488.859375 C 158.300781 489.773438 156.8125 490.425781 155.304688 490.835938 C 153.453125 491.351562 151.570312 491.488281 149.640625 491.261719 C 148.589844 491.140625 147.542969 490.925781 146.464844 490.59375 C 145.613281 490.320312 144.777344 490.046875 143.972656 489.742188 C 134.003906 486.078125 127.667969 480.183594 123.640625 473.878906 C 118.234375 465.402344 117.003906 456.226562 116.820312 450.738281 Z M 374.769531 79.855469 C 374.769531 79.964844 374.769531 80.070312 374.769531 80.175781 C 374.769531 80.632812 374.796875 81.101562 374.828125 81.589844 C 374.828125 81.816406 374.859375 82.03125 374.875 82.257812 C 374.90625 82.683594 374.949219 83.109375 374.996094 83.546875 C 375.027344 83.777344 375.042969 84.003906 375.070312 84.246094 C 375.132812 84.792969 375.207031 85.339844 375.300781 85.902344 C 375.316406 86.039062 375.332031 86.160156 375.359375 86.296875 C 375.46875 86.96875 375.605469 87.667969 375.742188 88.363281 C 375.785156 88.609375 375.847656 88.851562 375.894531 89.09375 C 376 89.582031 376.121094 90.082031 376.242188 90.582031 C 376.316406 90.855469 376.378906 91.144531 376.453125 91.417969 C 376.589844 91.933594 376.757812 92.46875 376.910156 93.015625 C 376.988281 93.257812 377.046875 93.5 377.136719 93.742188 C 377.382812 94.488281 377.640625 95.246094 377.945312 96.023438 C 378.035156 96.25 378.125 96.464844 378.21875 96.691406 C 378.445312 97.269531 378.671875 97.832031 378.929688 98.40625 C 379.066406 98.710938 379.203125 99 379.339844 99.304688 C 379.585938 99.835938 379.84375 100.367188 380.117188 100.914062 C 380.269531 101.203125 380.40625 101.492188 380.558594 101.796875 C 380.953125 102.539062 381.363281 103.285156 381.816406 104.042969 C 381.910156 104.210938 382.015625 104.363281 382.121094 104.53125 C 382.5625 105.246094 383.019531 105.957031 383.488281 106.671875 C 383.6875 106.960938 383.898438 107.265625 384.113281 107.554688 C 384.492188 108.101562 384.902344 108.648438 385.3125 109.195312 C 385.539062 109.5 385.785156 109.804688 386.027344 110.105469 C 386.511719 110.714844 387.03125 111.320312 387.546875 111.929688 C 387.742188 112.15625 387.910156 112.371094 388.109375 112.597656 C 388.824219 113.402344 389.582031 114.207031 390.371094 115 C 390.617188 115.242188 390.890625 115.5 391.148438 115.742188 C 391.738281 116.320312 392.347656 116.898438 392.96875 117.460938 C 393.09375 117.566406 393.199219 117.671875 393.304688 117.777344 C 393.519531 117.960938 393.746094 118.144531 393.957031 118.339844 C 394.203125 118.554688 394.429688 118.765625 394.671875 118.980469 C 395.082031 119.328125 395.523438 119.664062 395.949219 120.011719 C 396.175781 120.195312 396.375 120.378906 396.601562 120.558594 C 396.542969 120.574219 396.480469 120.605469 396.433594 120.621094 C 395.933594 120.789062 395.417969 120.96875 394.886719 121.136719 C 394.839844 121.152344 394.792969 121.167969 394.734375 121.183594 C 394.140625 121.363281 393.515625 121.546875 392.878906 121.730469 C 392.742188 121.773438 392.589844 121.804688 392.453125 121.851562 C 391.9375 121.988281 391.421875 122.125 390.875 122.261719 C 390.738281 122.292969 390.585938 122.335938 390.449219 122.367188 C 390.402344 122.367188 390.371094 122.382812 390.328125 122.398438 C 389.886719 122.503906 389.414062 122.59375 388.945312 122.6875 C 388.730469 122.730469 388.535156 122.777344 388.335938 122.824219 C 388.289062 122.824219 388.246094 122.839844 388.199219 122.855469 C 387.484375 122.992188 386.742188 123.113281 385.996094 123.21875 C 385.785156 123.25 385.570312 123.277344 385.359375 123.308594 C 384.78125 123.386719 384.203125 123.460938 383.609375 123.507812 C 383.382812 123.539062 383.15625 123.550781 382.914062 123.566406 C 382.121094 123.628906 381.316406 123.691406 380.496094 123.71875 C 380.464844 123.71875 380.421875 123.71875 380.390625 123.71875 C 379.613281 123.75 378.824219 123.75 378.035156 123.71875 C 377.777344 123.71875 377.519531 123.703125 377.246094 123.691406 C 376.636719 123.675781 376.015625 123.628906 375.390625 123.582031 C 375.132812 123.566406 374.875 123.550781 374.617188 123.523438 C 373.765625 123.445312 372.914062 123.339844 372.046875 123.203125 C 371.910156 123.1875 371.773438 123.15625 371.636719 123.128906 C 370.894531 123.003906 370.148438 122.855469 369.40625 122.6875 C 369.117188 122.625 368.828125 122.550781 368.539062 122.472656 C 367.886719 122.308594 367.230469 122.125 366.578125 121.925781 C 366.320312 121.851562 366.0625 121.773438 365.804688 121.683594 C 364.921875 121.394531 364.042969 121.078125 363.160156 120.710938 C 362.976562 120.636719 362.796875 120.542969 362.613281 120.46875 C 361.898438 120.164062 361.167969 119.832031 360.457031 119.464844 C 360.167969 119.328125 359.878906 119.175781 359.589844 119.023438 C 358.90625 118.660156 358.238281 118.28125 357.554688 117.871094 C 357.324219 117.734375 357.097656 117.597656 356.871094 117.460938 C 355.988281 116.898438 355.105469 116.289062 354.242188 115.652344 C 354.195312 115.621094 354.148438 115.578125 354.089844 115.53125 C 354.695312 110.199219 356.15625 104.988281 358.417969 99.988281 C 362.125 91.84375 367.6875 84.992188 374.722656 79.8125 Z M 427.261719 74.328125 C 428.964844 75.101562 430.621094 75.96875 432.214844 76.910156 C 432.140625 76.953125 432.050781 77 431.957031 77.046875 C 431.304688 77.378906 430.652344 77.730469 429.984375 78.109375 C 429.816406 78.199219 429.648438 78.308594 429.480469 78.398438 C 428.769531 78.808594 428.039062 79.234375 427.308594 79.691406 C 427.050781 79.839844 426.808594 80.007812 426.550781 80.175781 C 425.730469 80.707031 424.910156 81.253906 424.089844 81.832031 C 423.996094 81.894531 423.90625 81.953125 423.8125 82.03125 C 422.902344 82.683594 422.007812 83.382812 421.09375 84.109375 C 420.851562 84.308594 420.625 84.507812 420.378906 84.703125 C 419.667969 85.296875 418.953125 85.917969 418.253906 86.570312 C 418.027344 86.785156 417.796875 86.984375 417.570312 87.195312 C 416.6875 88.03125 415.808594 88.910156 414.957031 89.839844 C 414.820312 89.992188 414.683594 90.144531 414.5625 90.292969 C 413.847656 91.101562 413.132812 91.933594 412.449219 92.800781 C 412.222656 93.089844 411.992188 93.394531 411.765625 93.699219 C 411.082031 94.59375 410.414062 95.519531 409.773438 96.492188 C 409.652344 96.675781 409.53125 96.84375 409.410156 97.023438 C 408.679688 98.164062 407.980469 99.363281 407.328125 100.59375 C 407.160156 100.914062 406.996094 101.25 406.828125 101.582031 C 406.328125 102.570312 405.855469 103.605469 405.398438 104.652344 C 405.246094 105.015625 405.082031 105.382812 404.929688 105.761719 C 404.382812 107.144531 403.863281 108.558594 403.410156 110.046875 C 403.347656 110.226562 403.316406 110.425781 403.257812 110.59375 C 403.242188 110.652344 403.226562 110.714844 403.210938 110.773438 C 402.953125 111.6875 402.679688 112.613281 402.46875 113.570312 C 402.34375 113.480469 402.253906 113.386719 402.132812 113.296875 C 401.296875 112.628906 400.507812 111.960938 399.730469 111.277344 C 399.550781 111.109375 399.335938 110.957031 399.15625 110.789062 C 399.125 110.773438 399.109375 110.746094 399.078125 110.730469 C 398.136719 109.878906 397.253906 109.011719 396.417969 108.148438 C 396.269531 107.980469 396.101562 107.828125 395.949219 107.660156 C 395.160156 106.808594 394.398438 105.972656 393.714844 105.125 C 393.609375 104.988281 393.503906 104.863281 393.394531 104.726562 C 392.742188 103.921875 392.136719 103.117188 391.574219 102.3125 C 391.496094 102.222656 391.421875 102.113281 391.359375 102.023438 C 390.769531 101.171875 390.234375 100.320312 389.734375 99.488281 C 389.628906 99.320312 389.535156 99.136719 389.429688 98.96875 C 388.945312 98.132812 388.488281 97.296875 388.078125 96.476562 C 388.03125 96.386719 387.988281 96.296875 387.941406 96.203125 C 387.5625 95.429688 387.226562 94.671875 386.910156 93.910156 C 386.847656 93.773438 386.785156 93.636719 386.726562 93.484375 C 386.40625 92.695312 386.117188 91.90625 385.875 91.128906 C 385.8125 90.964844 385.769531 90.796875 385.722656 90.644531 C 385.480469 89.871094 385.253906 89.09375 385.054688 88.335938 C 385.054688 88.304688 385.054688 88.289062 385.039062 88.257812 C 384.855469 87.515625 384.707031 86.800781 384.570312 86.085938 C 384.539062 85.933594 384.507812 85.78125 384.476562 85.644531 C 384.355469 84.945312 384.25 84.277344 384.160156 83.625 C 384.144531 83.488281 384.128906 83.351562 384.113281 83.214844 C 384.035156 82.605469 383.976562 82 383.945312 81.421875 C 383.945312 81.359375 383.945312 81.285156 383.929688 81.222656 C 383.882812 80.601562 383.871094 80.023438 383.855469 79.445312 C 383.855469 79.308594 383.855469 79.171875 383.855469 79.050781 C 383.855469 78.503906 383.855469 77.988281 383.871094 77.488281 C 383.871094 77.394531 383.871094 77.304688 383.871094 77.214844 C 383.882812 76.773438 383.914062 76.332031 383.945312 75.9375 C 383.945312 75.859375 383.945312 75.785156 383.960938 75.710938 C 383.992188 75.285156 384.035156 74.875 384.082031 74.507812 C 384.082031 74.464844 384.082031 74.417969 384.082031 74.386719 C 397.816406 68.082031 413.40625 68.035156 427.25 74.339844 Z M 417.296875 172.1875 C 416.035156 172.476562 414.757812 172.6875 413.46875 172.886719 C 412.570312 173.023438 411.675781 173.160156 410.777344 173.25 C 409.378906 173.386719 407.980469 173.507812 406.585938 173.523438 C 406.023438 173.523438 405.445312 173.476562 404.882812 173.476562 C 403.46875 173.460938 402.058594 173.386719 400.644531 173.25 C 399.746094 173.160156 398.835938 173.039062 397.9375 172.902344 C 396.664062 172.703125 395.402344 172.445312 394.140625 172.15625 C 393.304688 171.957031 392.46875 171.804688 391.632812 171.5625 C 390.480469 171.230469 389.339844 170.835938 388.183594 170.410156 C 387.773438 170.257812 387.347656 170.152344 386.9375 170 C 386.984375 169.96875 387.03125 169.921875 387.074219 169.890625 C 387.226562 169.753906 387.378906 169.617188 387.546875 169.496094 C 388.109375 169.027344 388.65625 168.523438 389.21875 168.023438 C 389.445312 167.824219 389.660156 167.613281 389.871094 167.414062 C 390.464844 166.867188 391.054688 166.292969 391.632812 165.699219 C 391.769531 165.5625 391.90625 165.425781 392.042969 165.289062 C 392.757812 164.558594 393.472656 163.785156 394.171875 162.996094 C 394.351562 162.78125 394.535156 162.570312 394.71875 162.355469 C 395.265625 161.71875 395.796875 161.082031 396.34375 160.394531 C 396.554688 160.136719 396.753906 159.878906 396.964844 159.621094 C 397.636719 158.769531 398.289062 157.875 398.925781 156.960938 C 398.957031 156.917969 398.988281 156.871094 399.019531 156.824219 C 399.671875 155.867188 400.324219 154.867188 400.949219 153.832031 C 401.128906 153.527344 401.3125 153.226562 401.496094 152.921875 C 401.964844 152.117188 402.421875 151.296875 402.863281 150.445312 C 403.027344 150.140625 403.195312 149.835938 403.347656 149.519531 C 403.925781 148.378906 404.472656 147.222656 404.988281 146.007812 C 405.066406 145.824219 405.140625 145.613281 405.21875 145.429688 C 405.65625 144.382812 406.066406 143.320312 406.449219 142.226562 C 406.585938 141.84375 406.722656 141.449219 406.84375 141.054688 C 407.191406 140.007812 407.511719 138.945312 407.816406 137.835938 C 407.90625 137.53125 407.996094 137.226562 408.074219 136.90625 C 408.4375 135.511719 408.757812 134.082031 409.03125 132.59375 C 409.089844 132.257812 409.136719 131.925781 409.199219 131.589844 C 409.320312 130.859375 409.457031 130.132812 409.5625 129.371094 C 409.898438 129.613281 410.230469 129.84375 410.550781 130.085938 C 410.929688 130.390625 411.324219 130.679688 411.691406 130.980469 C 412.359375 131.527344 412.980469 132.074219 413.589844 132.636719 C 413.894531 132.925781 414.210938 133.199219 414.5 133.472656 C 415.214844 134.171875 415.882812 134.871094 416.507812 135.585938 C 416.644531 135.738281 416.808594 135.90625 416.945312 136.058594 C 417.707031 136.9375 418.421875 137.851562 419.074219 138.761719 C 419.242188 138.988281 419.378906 139.21875 419.53125 139.445312 C 420 140.128906 420.457031 140.828125 420.882812 141.527344 C 421.078125 141.84375 421.246094 142.179688 421.429688 142.515625 C 421.761719 143.121094 422.097656 143.746094 422.402344 144.367188 C 422.570312 144.71875 422.734375 145.066406 422.886719 145.429688 C 423.160156 146.039062 423.417969 146.660156 423.664062 147.285156 C 423.800781 147.632812 423.9375 147.984375 424.058594 148.332031 C 424.285156 149 424.5 149.671875 424.695312 150.324219 C 424.785156 150.628906 424.878906 150.914062 424.96875 151.21875 C 425.226562 152.148438 425.441406 153.089844 425.636719 154.015625 C 425.636719 154.046875 425.636719 154.0625 425.652344 154.089844 C 425.851562 155.0625 425.988281 156.019531 426.125 156.992188 C 426.152344 157.28125 426.183594 157.554688 426.214844 157.828125 C 426.292969 158.511719 426.351562 159.179688 426.398438 159.847656 C 426.414062 160.183594 426.429688 160.519531 426.441406 160.851562 C 426.472656 161.476562 426.488281 162.082031 426.503906 162.691406 C 426.503906 163.023438 426.503906 163.359375 426.503906 163.695312 C 426.503906 164.316406 426.472656 164.925781 426.457031 165.546875 C 426.457031 165.851562 426.429688 166.140625 426.414062 166.445312 C 426.367188 167.140625 426.320312 167.824219 426.246094 168.496094 C 426.230469 168.691406 426.214844 168.890625 426.199219 169.085938 C 426.199219 169.164062 426.183594 169.222656 426.167969 169.300781 C 425.183594 169.726562 424.164062 170.074219 423.144531 170.425781 C 421.992188 170.835938 420.851562 171.214844 419.679688 171.53125 C 418.859375 171.761719 418.054688 172.003906 417.234375 172.1875 Z M 446.953125 153.105469 C 445.953125 154.410156 444.886719 155.6875 443.765625 156.902344 C 443.582031 157.097656 443.398438 157.296875 443.21875 157.496094 C 442.09375 158.664062 440.890625 159.773438 439.660156 160.835938 C 439.464844 161.003906 439.265625 161.1875 439.054688 161.367188 C 437.960938 162.296875 436.820312 163.191406 435.652344 164.011719 C 435.652344 163.28125 435.652344 162.523438 435.636719 161.765625 C 435.636719 161.628906 435.636719 161.476562 435.636719 161.339844 C 435.589844 159.894531 435.484375 158.421875 435.316406 156.902344 C 435.316406 156.796875 435.300781 156.703125 435.285156 156.597656 C 435.269531 156.429688 435.242188 156.265625 435.226562 156.097656 C 435.226562 155.992188 435.195312 155.867188 435.179688 155.746094 C 435.105469 155.109375 435.011719 154.472656 434.90625 153.832031 C 434.90625 153.773438 434.890625 153.710938 434.875 153.636719 C 434.738281 152.816406 434.570312 151.996094 434.390625 151.160156 C 434.359375 150.992188 434.3125 150.824219 434.269531 150.65625 C 434.101562 149.929688 433.917969 149.199219 433.722656 148.46875 C 433.691406 148.347656 433.660156 148.226562 433.613281 148.105469 C 433.371094 147.269531 433.113281 146.433594 432.824219 145.597656 C 432.761719 145.445312 432.71875 145.277344 432.65625 145.128906 C 432.613281 145.019531 432.566406 144.898438 432.535156 144.792969 C 432.414062 144.445312 432.277344 144.09375 432.140625 143.746094 C 432.035156 143.484375 431.941406 143.210938 431.835938 142.953125 C 431.777344 142.800781 431.714844 142.652344 431.65625 142.5 C 431.304688 141.664062 430.925781 140.828125 430.515625 139.992188 C 430.453125 139.855469 430.378906 139.734375 430.316406 139.597656 C 429.953125 138.867188 429.558594 138.152344 429.148438 137.425781 C 429.054688 137.257812 428.949219 137.089844 428.859375 136.921875 C 428.371094 136.101562 427.855469 135.265625 427.292969 134.460938 C 427.234375 134.371094 427.171875 134.277344 427.113281 134.203125 C 426.609375 133.472656 426.078125 132.746094 425.515625 132.015625 C 425.378906 131.847656 425.242188 131.664062 425.105469 131.5 C 424.46875 130.695312 423.800781 129.902344 423.085938 129.113281 C 423.054688 129.082031 423.023438 129.050781 423.007812 129.023438 C 422.324219 128.277344 421.597656 127.535156 420.835938 126.820312 C 420.652344 126.652344 420.472656 126.46875 420.289062 126.300781 C 418.679688 124.796875 416.917969 123.339844 414.988281 121.925781 C 414.878906 121.851562 414.804688 121.773438 414.699219 121.714844 C 414.699219 121.714844 414.683594 121.714844 414.667969 121.699219 C 414.773438 121.652344 414.894531 121.625 415.015625 121.578125 C 415.335938 121.457031 415.640625 121.351562 415.960938 121.226562 C 416.734375 120.941406 417.492188 120.679688 418.269531 120.453125 C 418.40625 120.40625 418.542969 120.378906 418.695312 120.347656 C 418.769531 120.316406 418.859375 120.300781 418.9375 120.285156 C 419.089844 120.242188 419.226562 120.210938 419.378906 120.164062 C 420.121094 119.980469 420.882812 119.816406 421.625 119.679688 C 421.976562 119.617188 422.324219 119.542969 422.691406 119.496094 C 423.554688 119.375 424.421875 119.285156 425.273438 119.222656 C 425.5 119.207031 425.730469 119.175781 425.957031 119.160156 C 427.066406 119.101562 428.175781 119.085938 429.285156 119.132812 C 429.453125 119.132812 429.617188 119.160156 429.785156 119.160156 C 430.710938 119.207031 431.640625 119.269531 432.550781 119.375 C 432.886719 119.40625 433.21875 119.449219 433.554688 119.496094 C 434.3125 119.601562 435.074219 119.707031 435.816406 119.84375 C 436.167969 119.90625 436.515625 119.96875 436.867188 120.042969 C 437.625 120.195312 438.371094 120.363281 439.113281 120.542969 C 439.417969 120.621094 439.722656 120.679688 440.027344 120.773438 C 441 121.03125 441.957031 121.304688 442.914062 121.609375 C 442.972656 121.625 443.019531 121.636719 443.082031 121.652344 C 444.082031 121.972656 445.070312 122.320312 446.042969 122.6875 C 446.347656 122.792969 446.636719 122.914062 446.941406 123.035156 C 447.59375 123.292969 448.246094 123.550781 448.882812 123.828125 C 449.234375 123.976562 449.582031 124.128906 449.917969 124.265625 C 450.496094 124.523438 451.058594 124.769531 451.621094 125.042969 C 451.953125 125.195312 452.289062 125.359375 452.621094 125.511719 C 453.199219 125.785156 453.761719 126.074219 454.308594 126.347656 C 454.582031 126.484375 454.855469 126.621094 455.113281 126.757812 C 455.875 127.152344 456.601562 127.546875 457.300781 127.945312 C 456.664062 133.183594 455.21875 138.289062 453.003906 143.183594 C 451.484375 146.511719 449.613281 149.640625 447.457031 152.542969 C 447.304688 152.753906 447.136719 152.953125 446.96875 153.164062 Z M 456.632812 117.277344 C 456.085938 117.019531 455.554688 116.761719 454.992188 116.503906 C 454.445312 116.246094 453.882812 116 453.320312 115.757812 C 452.757812 115.515625 452.195312 115.273438 451.621094 115.027344 C 451.027344 114.785156 450.417969 114.558594 449.8125 114.316406 C 449.234375 114.085938 448.640625 113.875 448.046875 113.660156 C 447.425781 113.433594 446.773438 113.238281 446.132812 113.023438 C 445.527344 112.828125 444.933594 112.628906 444.328125 112.445312 C 443.65625 112.25 442.988281 112.082031 442.320312 111.898438 C 441.699219 111.730469 441.089844 111.566406 440.46875 111.429688 C 439.769531 111.261719 439.070312 111.140625 438.371094 110.988281 C 437.746094 110.867188 437.125 110.730469 436.484375 110.625 C 435.773438 110.5 435.042969 110.425781 434.3125 110.335938 C 433.675781 110.257812 433.039062 110.167969 432.398438 110.105469 C 431.65625 110.046875 430.910156 110.015625 430.164062 109.984375 C 429.527344 109.953125 428.890625 109.910156 428.25 109.910156 C 428.144531 109.910156 428.023438 109.910156 427.917969 109.910156 C 427.140625 109.910156 426.367188 109.96875 425.59375 110 C 425.105469 110.03125 424.621094 110.015625 424.148438 110.0625 C 422.886719 110.167969 421.640625 110.335938 420.378906 110.546875 C 420.257812 110.5625 420.136719 110.578125 420.015625 110.59375 C 418.648438 110.835938 417.265625 111.171875 415.898438 111.566406 C 415.457031 111.6875 415.015625 111.867188 414.578125 112.019531 C 413.832031 112.265625 413.074219 112.492188 412.328125 112.78125 C 412.25 112.8125 412.175781 112.828125 412.101562 112.855469 C 412.128906 112.78125 412.160156 112.703125 412.175781 112.628906 C 412.511719 111.535156 412.859375 110.472656 413.253906 109.453125 C 413.359375 109.164062 413.496094 108.890625 413.621094 108.601562 C 413.96875 107.75 414.332031 106.917969 414.726562 106.109375 C 414.910156 105.746094 415.09375 105.398438 415.277344 105.046875 C 415.65625 104.332031 416.035156 103.632812 416.445312 102.949219 C 416.644531 102.632812 416.824219 102.296875 417.023438 101.992188 C 417.507812 101.234375 418.011719 100.488281 418.542969 99.773438 C 418.664062 99.59375 418.785156 99.410156 418.921875 99.226562 C 419.574219 98.347656 420.257812 97.511719 420.957031 96.722656 C 421.140625 96.507812 421.335938 96.3125 421.535156 96.097656 C 422.066406 95.519531 422.597656 94.957031 423.144531 94.410156 C 423.402344 94.152344 423.664062 93.910156 423.921875 93.667969 C 424.4375 93.179688 424.9375 92.726562 425.46875 92.269531 C 425.730469 92.042969 425.988281 91.828125 426.246094 91.617188 C 426.851562 91.113281 427.476562 90.628906 428.097656 90.15625 C 428.25 90.035156 428.417969 89.914062 428.570312 89.792969 C 429.34375 89.214844 430.136719 88.683594 430.925781 88.167969 C 431.136719 88.03125 431.335938 87.910156 431.53125 87.789062 C 432.125 87.40625 432.703125 87.058594 433.296875 86.707031 C 433.554688 86.558594 433.8125 86.421875 434.070312 86.269531 C 434.617188 85.964844 435.164062 85.660156 435.695312 85.386719 C 435.925781 85.265625 436.167969 85.144531 436.394531 85.023438 C 437.046875 84.6875 437.703125 84.382812 438.324219 84.097656 C 438.414062 84.050781 438.507812 84.003906 438.597656 83.960938 C 439.28125 83.65625 439.949219 83.367188 440.605469 83.09375 C 450.511719 92.042969 456.558594 104.5 457.546875 117.71875 C 457.257812 117.582031 456.953125 117.445312 456.664062 117.292969 Z M 354.058594 126.46875 C 354.058594 126.46875 354.195312 126.546875 354.273438 126.578125 C 355.410156 127.230469 356.550781 127.820312 357.707031 128.355469 C 358.101562 128.535156 358.511719 128.703125 358.90625 128.871094 C 359.726562 129.21875 360.53125 129.570312 361.335938 129.875 C 361.808594 130.054688 362.277344 130.207031 362.734375 130.359375 C 363.480469 130.617188 364.222656 130.84375 364.96875 131.058594 C 365.453125 131.195312 365.941406 131.316406 366.410156 131.453125 C 367.140625 131.636719 367.855469 131.800781 368.570312 131.9375 C 369.039062 132.03125 369.527344 132.136719 369.996094 132.214844 C 370.726562 132.335938 371.457031 132.441406 372.171875 132.53125 C 372.609375 132.59375 373.066406 132.652344 373.507812 132.699219 C 374.28125 132.773438 375.058594 132.820312 375.816406 132.867188 C 376.179688 132.882812 376.5625 132.925781 376.925781 132.925781 C 377.929688 132.957031 378.902344 132.957031 379.875 132.941406 C 379.996094 132.941406 380.117188 132.941406 380.238281 132.941406 C 380.34375 132.941406 380.4375 132.941406 380.542969 132.925781 C 380.859375 132.925781 381.164062 132.898438 381.484375 132.882812 C 382.152344 132.851562 382.820312 132.820312 383.460938 132.761719 C 383.839844 132.730469 384.1875 132.683594 384.570312 132.636719 C 385.238281 132.5625 385.921875 132.5 386.574219 132.410156 C 386.984375 132.351562 387.378906 132.289062 387.773438 132.226562 C 387.894531 132.214844 388.015625 132.199219 388.140625 132.167969 C 388.609375 132.089844 389.082031 132.015625 389.550781 131.925781 C 389.613281 131.925781 389.671875 131.894531 389.75 131.878906 C 390.082031 131.816406 390.417969 131.757812 390.738281 131.679688 C 391.300781 131.558594 391.847656 131.4375 392.378906 131.316406 C 392.742188 131.226562 393.121094 131.148438 393.472656 131.058594 C 394.003906 130.921875 394.535156 130.785156 395.050781 130.632812 C 395.371094 130.542969 395.707031 130.449219 396.023438 130.359375 C 396.570312 130.191406 397.089844 130.023438 397.605469 129.859375 C 397.664062 129.84375 397.742188 129.8125 397.816406 129.796875 C 398 129.738281 398.199219 129.675781 398.363281 129.613281 C 398.972656 129.402344 399.566406 129.203125 400.128906 128.992188 C 400.25 128.945312 400.371094 128.902344 400.476562 128.871094 C 400.277344 130.132812 400.035156 131.363281 399.777344 132.546875 C 399.6875 132.957031 399.578125 133.351562 399.472656 133.746094 C 399.292969 134.523438 399.09375 135.28125 398.882812 136.027344 C 398.746094 136.480469 398.59375 136.9375 398.457031 137.378906 C 398.242188 138.03125 398.046875 138.683594 397.816406 139.308594 C 397.652344 139.765625 397.46875 140.21875 397.300781 140.660156 C 397.074219 141.253906 396.828125 141.84375 396.585938 142.421875 C 396.390625 142.863281 396.191406 143.304688 395.996094 143.730469 C 395.734375 144.277344 395.476562 144.824219 395.21875 145.355469 C 395.007812 145.78125 394.792969 146.191406 394.582031 146.585938 C 394.308594 147.101562 394.019531 147.605469 393.730469 148.105469 C 393.503906 148.484375 393.273438 148.878906 393.046875 149.257812 C 392.742188 149.746094 392.4375 150.230469 392.121094 150.703125 C 391.890625 151.050781 391.664062 151.402344 391.421875 151.734375 C 391.085938 152.207031 390.753906 152.679688 390.417969 153.132812 C 390.191406 153.4375 389.960938 153.757812 389.734375 154.046875 C 389.355469 154.53125 388.976562 154.988281 388.59375 155.457031 C 388.398438 155.703125 388.199219 155.945312 388.003906 156.1875 C 387.46875 156.8125 386.9375 157.402344 386.40625 157.964844 C 386.347656 158.027344 386.300781 158.085938 386.238281 158.148438 C 385.648438 158.785156 385.039062 159.394531 384.433594 159.972656 C 384.28125 160.121094 384.128906 160.257812 383.976562 160.394531 C 383.535156 160.820312 383.09375 161.230469 382.652344 161.628906 C 382.457031 161.808594 382.257812 161.976562 382.046875 162.144531 C 381.652344 162.476562 381.269531 162.8125 380.875 163.132812 C 380.664062 163.296875 380.464844 163.464844 380.253906 163.632812 C 379.886719 163.9375 379.523438 164.226562 379.160156 164.5 C 378.945312 164.652344 378.75 164.800781 378.550781 164.953125 C 378.355469 165.105469 378.15625 165.257812 377.960938 165.394531 C 375.984375 164.148438 374.128906 162.765625 372.367188 161.292969 C 371.898438 160.898438 371.425781 160.503906 370.984375 160.109375 C 370.027344 159.242188 369.117188 158.34375 368.21875 157.417969 C 367.792969 156.976562 367.382812 156.539062 366.972656 156.082031 C 366.109375 155.109375 365.273438 154.089844 364.480469 153.058594 C 364.101562 152.570312 363.753906 152.070312 363.386719 151.570312 C 358.160156 144.199219 354.863281 135.511719 354 126.378906 C 354.011719 126.378906 354.027344 126.394531 354.042969 126.410156 Z M 367.886719 435.882812 C 377.335938 429.074219 388.550781 424.957031 400.402344 423.953125 L 400.402344 468.015625 L 367.886719 435.894531 Z M 343.652344 476.449219 C 344.957031 464.277344 350.230469 452.988281 358.90625 443.734375 L 392.011719 476.449219 Z M 420.667969 476.449219 L 453.550781 443.964844 C 462.117188 453.1875 467.300781 464.382812 468.605469 476.449219 Z M 412.296875 468 L 412.296875 423.984375 C 424.089844 425.0625 435.242188 429.226562 444.628906 436.0625 Z M 468.925781 696.71875 L 343.332031 696.71875 L 343.332031 488.34375 L 468.925781 488.34375 Z M 480.820312 696.71875 L 480.820312 487.707031 C 480.820312 487.707031 480.820312 487.660156 480.820312 487.644531 L 480.820312 477.144531 C 480.820312 476.917969 480.714844 476.722656 480.546875 476.597656 C 477.402344 440.226562 444.8125 411.800781 406.128906 411.800781 C 367.445312 411.800781 334.867188 440.226562 331.707031 476.597656 C 331.542969 476.722656 331.433594 476.933594 331.433594 477.160156 L 331.433594 696.734375 L 155.320312 696.734375 L 155.320312 502.414062 C 158.890625 501.867188 162.386719 500.574219 165.761719 498.492188 C 186.789062 485.519531 197.699219 444.132812 201.542969 426.128906 C 215.65625 434.253906 228.601562 435.652344 240.121094 430.289062 C 269.992188 416.359375 279.105469 359.625 281.371094 340.164062 C 294.40625 342.335938 306.046875 339.875 316.042969 332.839844 C 339.882812 316.050781 346.765625 277.933594 348.484375 264.515625 C 375.4375 260.945312 394.6875 246.179688 405.050781 221.335938 C 415.414062 246.179688 434.664062 260.945312 461.617188 264.515625 C 463.332031 277.933594 470.21875 316.050781 494.054688 332.839844 C 504.054688 339.890625 515.691406 342.335938 528.730469 340.164062 C 531.007812 359.625 540.109375 416.359375 569.980469 430.289062 C 581.496094 435.652344 594.441406 434.253906 608.558594 426.128906 C 612.402344 444.117188 623.296875 485.503906 644.339844 498.492188 C 648.136719 500.832031 652.089844 502.15625 656.144531 502.550781 L 656.144531 696.71875 Z M 480.820312 696.71875 " fill-opacity="1" fill-rule="nonzero"/></g><path fill="#000000" d="M 379.707031 583.925781 C 384.308594 583.925781 388.046875 580.1875 388.046875 575.582031 C 388.046875 570.980469 384.308594 567.242188 379.707031 567.242188 C 375.101562 567.242188 371.351562 570.980469 371.351562 575.582031 C 371.351562 580.1875 375.101562 583.925781 379.707031 583.925781 Z M 379.707031 583.925781 " fill-opacity="1" fill-rule="nonzero"/><path fill="#000000" d="M 295.457031 529.972656 L 188.902344 529.972656 C 188.519531 529.972656 188.203125 530.292969 188.203125 530.671875 L 188.203125 661.546875 C 188.203125 661.925781 188.519531 662.246094 188.902344 662.246094 L 295.441406 662.246094 C 295.820312 662.246094 296.140625 661.925781 296.140625 661.546875 L 296.140625 530.671875 C 296.140625 530.292969 295.820312 529.972656 295.441406 529.972656 Z M 285.808594 601.289062 L 285.808594 651.914062 L 247.335938 651.914062 L 247.335938 601.289062 Z M 285.808594 540.320312 L 285.808594 590.960938 L 247.335938 590.960938 L 247.335938 540.320312 Z M 237.003906 601.289062 L 237.003906 651.914062 L 198.546875 651.914062 L 198.546875 601.289062 Z M 237.003906 540.320312 L 237.003906 590.960938 L 198.546875 590.960938 L 198.546875 540.320312 Z M 237.003906 540.320312 " fill-opacity="1" fill-rule="nonzero"/><path fill="#000000" d="M 624.34375 529.972656 L 517.804688 529.972656 C 517.425781 529.972656 517.105469 530.292969 517.105469 530.671875 L 517.105469 661.546875 C 517.105469 661.925781 517.425781 662.246094 517.804688 662.246094 L 624.34375 662.246094 C 624.722656 662.246094 625.042969 661.925781 625.042969 661.546875 L 625.042969 530.671875 C 625.042969 530.292969 624.722656 529.972656 624.34375 529.972656 Z M 614.710938 601.289062 L 614.710938 651.914062 L 576.242188 651.914062 L 576.242188 601.289062 Z M 614.710938 540.320312 L 614.710938 590.960938 L 576.242188 590.960938 L 576.242188 540.320312 Z M 565.910156 601.289062 L 565.910156 651.914062 L 527.453125 651.914062 L 527.453125 601.289062 Z M 565.910156 540.320312 L 565.910156 590.960938 L 527.453125 590.960938 L 527.453125 540.320312 Z M 565.910156 540.320312 " fill-opacity="1" fill-rule="nonzero"/><path fill="#000000" d="M 420.457031 307.800781 C 413.757812 307.800781 407.3125 310.050781 402.117188 314.121094 C 396.921875 310.066406 390.492188 307.800781 383.777344 307.800781 C 367.355469 307.800781 353.984375 321.171875 353.984375 337.597656 C 353.984375 338.628906 354.042969 339.632812 354.136719 340.632812 C 354.257812 344.644531 356.871094 367.632812 399.0625 394.480469 C 399.992188 395.070312 401.054688 395.359375 402.101562 395.359375 C 403.015625 395.359375 403.941406 395.132812 404.777344 394.691406 C 406.371094 393.839844 443.765625 373.527344 449.460938 344.28125 C 449.964844 342.078125 450.222656 339.828125 450.222656 337.597656 C 450.222656 321.171875 436.851562 307.800781 420.425781 307.800781 Z M 438.386719 341.941406 C 434.496094 361.921875 410.59375 377.996094 402.285156 383.054688 C 366.546875 359.382812 365.5 340.421875 365.484375 340.347656 C 365.484375 340.132812 365.484375 339.921875 365.453125 339.691406 C 365.378906 339.007812 365.332031 338.308594 365.332031 337.609375 C 365.332031 327.429688 373.613281 319.167969 383.777344 319.167969 C 389.171875 319.167969 394.277344 321.519531 397.800781 325.640625 C 399.960938 328.144531 404.261719 328.160156 406.417969 325.640625 C 409.925781 321.535156 415.046875 319.167969 420.441406 319.167969 C 430.621094 319.167969 438.886719 327.445312 438.886719 337.609375 C 438.886719 338.992188 438.734375 340.390625 438.371094 341.957031 Z M 438.386719 341.941406 " fill-opacity="1" fill-rule="nonzero"/><path fill="#000000" d="M 222.402344 488.691406 L 238.675781 488.691406 L 230.683594 501.894531 C 229.40625 504.007812 230.078125 506.773438 232.1875 508.050781 C 232.886719 508.476562 233.691406 508.703125 234.511719 508.703125 C 236.09375 508.703125 237.535156 507.898438 238.339844 506.546875 L 246.621094 492.871094 L 254.902344 506.546875 C 255.722656 507.898438 257.152344 508.703125 258.730469 508.703125 C 259.550781 508.703125 260.34375 508.476562 261.042969 508.050781 C 263.152344 506.773438 263.835938 504.007812 262.546875 501.894531 L 254.554688 488.691406 L 270.828125 488.691406 C 273.304688 488.691406 275.308594 486.6875 275.308594 484.210938 C 275.308594 481.734375 273.304688 479.730469 270.828125 479.730469 L 254.554688 479.730469 L 262.546875 466.527344 C 263.820312 464.414062 263.152344 461.648438 261.042969 460.371094 C 260.34375 459.949219 259.539062 459.71875 258.714844 459.71875 C 257.136719 459.71875 255.707031 460.523438 254.886719 461.875 L 246.605469 475.550781 L 238.328125 461.875 C 237.507812 460.523438 236.078125 459.71875 234.496094 459.71875 C 233.675781 459.71875 232.886719 459.949219 232.1875 460.371094 C 230.078125 461.648438 229.390625 464.414062 230.683594 466.527344 L 238.675781 479.730469 L 222.402344 479.730469 C 219.925781 479.730469 217.921875 481.734375 217.921875 484.210938 C 217.921875 486.6875 219.925781 488.691406 222.402344 488.691406 Z M 222.402344 488.691406 " fill-opacity="1" fill-rule="nonzero"/><path fill="#000000" d="M 546.855469 488.691406 L 563.128906 488.691406 L 555.136719 501.894531 C 553.859375 504.007812 554.527344 506.773438 556.640625 508.050781 C 557.339844 508.476562 558.144531 508.703125 558.964844 508.703125 C 560.542969 508.703125 561.988281 507.898438 562.792969 506.546875 L 571.074219 492.871094 L 579.355469 506.546875 C 580.175781 507.898438 581.605469 508.703125 583.183594 508.703125 C 584.003906 508.703125 584.792969 508.476562 585.492188 508.050781 C 587.605469 506.773438 588.289062 504.007812 586.996094 501.894531 L 579.003906 488.691406 L 595.277344 488.691406 C 597.753906 488.691406 599.761719 486.6875 599.761719 484.210938 C 599.761719 481.734375 597.753906 479.730469 595.277344 479.730469 L 579.003906 479.730469 L 586.996094 466.527344 C 588.273438 464.414062 587.605469 461.648438 585.492188 460.371094 C 584.792969 459.949219 583.988281 459.71875 583.167969 459.71875 C 581.589844 459.71875 580.160156 460.523438 579.339844 461.875 L 571.058594 475.550781 L 562.777344 461.875 C 561.957031 460.523438 560.53125 459.71875 558.949219 459.71875 C 558.128906 459.71875 557.339844 459.949219 556.640625 460.371094 C 554.527344 461.648438 553.84375 464.414062 555.136719 466.527344 L 563.128906 479.730469 L 546.855469 479.730469 C 544.378906 479.730469 542.371094 481.734375 542.371094 484.210938 C 542.371094 486.6875 544.378906 488.691406 546.855469 488.691406 Z M 546.855469 488.691406 " fill-opacity="1" fill-rule="nonzero"/></svg>