<svg xmlns="http://www.w3.org/2000/svg" xmlns:xlink="http://www.w3.org/1999/xlink" width="1080" zoomAndPan="magnify" viewBox="0 0 810 809.999993" height="1080" preserveAspectRatio="xMidYMid meet" version="1.0"><defs><clipPath id="377437f144"><path d="M 63.765625 88.066406 L 728.816406 88.066406 L 728.816406 748.808594 L 63.765625 748.808594 Z M 63.765625 88.066406 " clip-rule="nonzero"/></clipPath></defs><g clip-path="url(#377437f144)"><path fill="#231f20" d="M 558.121094 394.707031 C 557.773438 392.71875 557.445312 390.960938 555.890625 389.808594 C 553.765625 388.230469 551.414062 387.472656 548.738281 387.929688 C 544.625 388.640625 542.09375 391.363281 540.136719 394.753906 C 539.539062 395.796875 538.878906 396.925781 539.222656 398.375 C 540.335938 398.578125 541.316406 398.792969 542.308594 398.929688 C 542.9375 399.015625 543.59375 399.097656 544.207031 398.996094 C 548.957031 398.21875 553.734375 397.492188 558.121094 394.707031 Z M 567.117188 388.460938 C 571.925781 384.269531 575.386719 379.40625 578.214844 374.113281 C 581.148438 368.625 582.433594 362.703125 582.167969 356.464844 C 582.070312 354.265625 581.757812 352.1875 579.976562 350.5625 C 579.351562 350.003906 579.144531 349.003906 578.652344 348.273438 C 577.59375 346.6875 576.472656 345.03125 574.621094 344.363281 C 570.761719 342.972656 566.847656 342.152344 562.664062 343.042969 C 559.035156 343.8125 555.59375 345.089844 552.148438 346.347656 C 546.035156 348.578125 540.214844 351.457031 535.292969 355.769531 C 528.816406 361.449219 524.121094 368.296875 523.019531 377.074219 C 522.523438 380.992188 522.828125 384.945312 524.144531 388.71875 C 524.976562 391.109375 526.585938 392.808594 528.847656 393.578125 C 530.621094 390.507812 532.324219 387.558594 534.089844 384.5 C 533.761719 383.765625 533.351562 382.980469 533.058594 382.152344 C 532.148438 379.550781 532.042969 376.855469 532.902344 374.285156 C 533.996094 371.015625 535.714844 368.074219 538.207031 365.570312 C 541.9375 361.824219 546.082031 358.714844 551 356.777344 C 553.585938 355.761719 556.292969 355.03125 558.992188 354.328125 C 560.972656 353.8125 563 353.980469 565.050781 354.242188 C 571.921875 355.117188 574.761719 360.839844 573.90625 366.660156 C 573.453125 369.757812 572.351562 372.855469 570.152344 375.304688 C 568.375 377.28125 566.472656 379.144531 564.636719 381.074219 C 564.148438 381.589844 563.714844 382.160156 563.414062 382.519531 C 564.699219 384.582031 565.824219 386.386719 567.117188 388.460938 Z M 592.574219 357.605469 C 592.476562 372.210938 587.355469 384.230469 577.558594 394.414062 C 574.796875 397.28125 571.71875 399.742188 568.535156 401.960938 C 560.886719 407.285156 552.363281 410.492188 542.890625 410.3125 C 537.625 410.210938 532.582031 408.875 527.949219 406.292969 C 524.519531 404.382812 521.074219 402.511719 518.503906 399.347656 C 515.960938 396.210938 514.265625 392.714844 513.503906 388.8125 C 511.5625 378.835938 513.132812 369.367188 517.898438 360.394531 C 521.183594 354.210938 525.933594 349.4375 531.484375 345.230469 C 540.050781 338.742188 549.882812 335.160156 559.945312 331.980469 C 563.285156 330.925781 566.746094 330.847656 570.140625 331.332031 C 575.734375 332.128906 581.074219 333.769531 585.28125 337.847656 C 587.585938 340.082031 589.125 342.882812 590.417969 345.785156 C 592.160156 349.683594 592.695312 353.824219 592.574219 357.605469 Z M 482.347656 313.542969 C 488.578125 316.0625 494.71875 315.578125 500.902344 313.761719 C 501.433594 311.738281 501.175781 310.003906 499.957031 308.5625 C 498.714844 307.089844 497.144531 305.847656 495.175781 305.679688 C 492.09375 305.414062 489.039062 305.828125 486.421875 307.636719 C 484.429688 309.019531 482.832031 310.800781 482.347656 313.542969 Z M 510.953125 309.234375 C 511.15625 309.234375 511.441406 309.320312 511.640625 309.222656 C 512.320312 308.890625 513.015625 308.558594 513.621094 308.113281 C 519.40625 303.90625 524.410156 298.886719 529.054688 293.46875 C 531.699219 290.382812 533.132812 286.785156 533.777344 282.828125 C 534.074219 281.023438 533.917969 279.230469 533.132812 277.605469 C 532.308594 275.902344 531.214844 274.328125 530.316406 272.65625 C 529.5625 271.257812 528.441406 270.292969 527.109375 269.492188 C 521.976562 266.394531 516.273438 265.152344 510.410156 265.023438 C 502.285156 264.84375 494.472656 266.914062 487.289062 270.492188 C 481.234375 273.507812 476.148438 278.039062 472.488281 283.917969 C 471.140625 286.09375 470.203125 288.386719 469.679688 290.933594 C 468.863281 294.886719 469.222656 298.761719 469.8125 302.675781 C 470.128906 304.75 470.863281 306.570312 472.566406 308.003906 C 473.925781 306.15625 475.125 304.195312 476.652344 302.539062 C 478.179688 300.875 480.03125 299.519531 481.859375 297.929688 C 481.835938 297.746094 481.839844 297.363281 481.742188 297.011719 C 480.5 292.652344 481.445312 288.722656 484.039062 285.105469 C 485.976562 282.40625 488.304688 280.117188 491.0625 278.234375 C 495.101562 275.480469 499.566406 273.664062 504.257812 272.53125 C 506.683594 271.945312 509.28125 272.015625 511.804688 271.894531 C 517.300781 271.628906 521.753906 277.464844 521.832031 282.347656 C 521.902344 286.640625 520.710938 290.398438 518.097656 293.675781 C 515.277344 297.214844 512.6875 301.046875 508.226562 302.789062 C 509.195312 305.078125 510.0625 307.132812 510.953125 309.234375 Z M 457.960938 295.21875 C 458.09375 286.582031 461.078125 279.089844 466.691406 272.585938 C 470.117188 268.613281 474.023438 265.144531 478.484375 262.457031 C 486.980469 257.347656 496.164062 254.113281 506.152344 253.839844 C 515.351562 253.589844 524.050781 255.832031 532.132812 260.199219 C 536.316406 262.464844 539.753906 265.730469 542.25 269.8125 C 545.152344 274.558594 545.960938 279.785156 544.933594 285.226562 C 543.726562 291.597656 541.207031 297.332031 536.394531 301.90625 C 532.996094 305.136719 529.804688 308.59375 526.3125 311.71875 C 523.296875 314.410156 520.074219 316.875 516.390625 318.691406 C 514.242188 319.753906 512.285156 321.152344 510.035156 322.101562 C 495.6875 328.144531 482.035156 326.851562 468.988281 318.496094 C 462.582031 314.386719 459.125 308.460938 458.390625 300.917969 C 458.207031 299.023438 458.101562 297.117188 457.960938 295.21875 Z M 405.355469 445.613281 C 404.636719 445.480469 404.375 445.367188 404.144531 445.40625 C 399.300781 446.234375 394.9375 448.167969 391.039062 451.152344 C 389.933594 452 388.867188 452.90625 387.820312 453.828125 C 383.320312 457.804688 379.054688 461.988281 376.609375 467.613281 C 374.269531 473.015625 372.605469 478.570312 373.257812 484.585938 C 373.492188 486.769531 374.074219 488.769531 375.339844 490.628906 C 379.535156 496.78125 386.335938 497.96875 392.300781 494.042969 C 395.480469 491.953125 398.167969 489.21875 400.4375 486.089844 C 402.84375 482.773438 404.746094 479.195312 406.355469 475.445312 C 410.691406 465.363281 410.046875 455.460938 405.355469 445.613281 Z M 419.683594 462.464844 C 419.449219 474.277344 415.664062 484.871094 408.476562 494.226562 C 404.285156 499.679688 398.992188 503.824219 392.484375 506.082031 C 384.320312 508.910156 377.003906 507.113281 370.632812 501.292969 C 364.488281 495.675781 361.976562 488.707031 362.570312 480.457031 C 363.105469 472.96875 365.320312 466.078125 368.9375 459.511719 C 372.378906 453.253906 377.070312 448.226562 382.773438 444.054688 C 385.121094 442.332031 387.441406 440.566406 389.875 438.96875 C 393.640625 436.496094 397.929688 435.257812 402.265625 434.304688 C 406.117188 433.457031 409.273438 434.707031 411.421875 438.125 C 412.96875 440.585938 415.011719 442.695312 416.164062 445.4375 C 418.457031 450.898438 419.902344 456.503906 419.683594 462.464844 Z M 510.464844 499.726562 C 510.304688 495.015625 509.722656 490.375 508.125 485.890625 C 507.765625 484.882812 507.269531 484.121094 506.441406 483.457031 C 503.832031 481.371094 501.121094 480.945312 497.90625 482.097656 C 493.097656 483.820312 488.621094 486.09375 484.371094 488.894531 C 476.246094 494.246094 470.4375 501.480469 467.191406 510.601562 C 465.292969 515.9375 464.898438 521.515625 466.949219 527.011719 C 467.171875 527.601562 467.273438 528.3125 467.667969 528.753906 C 471.105469 532.59375 475.210938 535.300781 480.554688 534.960938 C 484.621094 534.699219 488.492188 533.464844 492.046875 531.328125 C 497.632812 527.964844 501.871094 523.25 505.160156 517.765625 C 508.449219 512.277344 510.691406 506.328125 510.464844 499.726562 Z M 520.457031 500.539062 C 520.335938 508.71875 517.972656 516.207031 514.167969 523.433594 C 510.691406 530.035156 505.753906 535.21875 499.820312 539.410156 C 494.722656 543 489.066406 545.671875 482.640625 546.019531 C 474.476562 546.457031 467.285156 544.070312 461.671875 538.019531 C 456.71875 532.683594 454.300781 526.324219 454.941406 518.890625 C 455.441406 513.148438 456.65625 507.59375 459.019531 502.347656 C 462.902344 493.71875 468.660156 486.578125 476.449219 481.140625 C 480.085938 478.601562 483.660156 475.984375 487.890625 474.433594 C 489.664062 473.789062 491.277344 472.734375 492.988281 471.914062 C 496.546875 470.203125 500.339844 469.863281 504.160156 470.421875 C 507.492188 470.902344 510.542969 472.269531 512.523438 475.167969 C 517.738281 482.808594 520.613281 491.214844 520.457031 500.539062 Z M 371.304688 393.011719 C 371.09375 392.414062 371.082031 392.265625 371.003906 392.179688 C 370.496094 391.613281 369.960938 391.066406 369.460938 390.496094 C 363.929688 384.210938 356.871094 380.582031 348.710938 379.519531 C 340.300781 378.421875 332.011719 379.265625 324.121094 382.847656 C 320.570312 384.457031 318.152344 387.027344 316.378906 390.367188 C 315.699219 391.652344 315.539062 393.023438 315.726562 394.441406 C 316.464844 400.011719 319.058594 404.140625 324.433594 406.4375 C 328.957031 408.367188 333.640625 409.269531 338.496094 409.339844 C 340.636719 409.371094 342.839844 409.269531 344.921875 408.8125 C 351.289062 407.417969 357.269531 404.957031 362.777344 401.476562 C 366.21875 399.300781 369.28125 396.636719 371.304688 393.011719 Z M 339.359375 420.011719 C 333.050781 420.152344 326.984375 418.867188 321.113281 416.699219 C 316.472656 414.992188 312.503906 412.15625 309.753906 408.070312 C 303.785156 399.199219 302.613281 388.542969 310.375 379.597656 C 313.511719 375.984375 317.433594 373.429688 321.800781 371.570312 C 331.597656 367.40625 341.683594 366.882812 352.035156 369.136719 C 358.214844 370.480469 363.933594 372.75 369.089844 376.414062 C 373.402344 379.476562 376.765625 383.378906 379.351562 387.972656 C 379.664062 388.523438 379.953125 389.097656 380.328125 389.609375 C 382.980469 393.222656 382.566406 396.929688 380.039062 400.207031 C 375.820312 405.675781 370.875 410.371094 364.292969 413.027344 C 362.308594 413.828125 360.46875 414.980469 358.527344 415.898438 C 352.464844 418.773438 346.0625 420.109375 339.359375 420.011719 Z M 341.523438 309.21875 C 348.34375 309.15625 354.789062 307.628906 360.9375 304.605469 C 366.9375 301.648438 372.046875 297.574219 376.800781 292.949219 C 378.925781 290.878906 379.464844 288.5 379.152344 285.671875 C 378.972656 284.042969 378.378906 282.835938 377.121094 281.78125 C 374.292969 279.402344 371.304688 277.292969 368.09375 275.460938 C 364.390625 273.351562 360.414062 272.242188 356.210938 271.742188 C 350.835938 271.09375 345.597656 271.722656 340.371094 273.003906 C 334.679688 274.394531 329.726562 277.074219 325.566406 281.140625 C 321.246094 285.367188 318.90625 290.363281 320.128906 296.601562 C 320.707031 299.570312 321.933594 302.027344 324.4375 303.910156 C 329.527344 307.738281 335.238281 309.355469 341.523438 309.21875 Z M 343.824219 320.101562 C 335.351562 319.835938 328.277344 318.660156 321.738281 315.144531 C 318.203125 313.242188 315.460938 310.578125 313.195312 307.234375 C 309.585938 301.917969 308.359375 296.152344 309.035156 289.867188 C 309.453125 285.992188 310.996094 282.5 312.953125 279.230469 C 315.121094 275.601562 318.09375 272.6875 321.476562 270.109375 C 327.5625 265.46875 334.371094 262.542969 341.871094 261.40625 C 350.136719 260.15625 358.289062 260.796875 366.253906 263.636719 C 373.238281 266.125 379.191406 270.101562 384.007812 275.664062 C 386.152344 278.144531 388.007812 280.9375 389.589844 283.8125 C 390.988281 286.347656 390.703125 289.265625 389.894531 291.996094 C 388.753906 295.847656 386.714844 299.210938 383.691406 301.878906 C 381.03125 304.230469 378.378906 306.625 375.5 308.6875 C 368.546875 313.667969 361.054688 317.597656 352.507812 319.054688 C 349.261719 319.605469 345.964844 319.851562 343.824219 320.101562 Z M 223.539062 524.910156 C 221.933594 525.351562 221.078125 525.550781 220.25 525.828125 C 217.007812 526.902344 213.800781 528.113281 210.519531 529.074219 C 203.960938 530.992188 197.375 532.820312 190.777344 534.601562 C 183.316406 536.617188 175.832031 538.539062 168.363281 540.523438 C 167.675781 540.707031 167.039062 541.046875 166.378906 541.320312 C 171.582031 554.402344 177.296875 562.59375 184.964844 570.019531 C 197.089844 554.738281 209.4375 539.660156 223.539062 524.910156 Z M 481.242188 396.851562 C 477.941406 398.015625 475.273438 399.726562 472.695312 401.503906 C 470.519531 403.011719 468.605469 404.90625 466.574219 406.628906 C 461.277344 411.121094 457.074219 416.496094 453.835938 422.613281 C 451.007812 427.949219 449.957031 433.617188 451.375 439.582031 C 452.785156 445.519531 456.839844 447.09375 460.996094 446.984375 C 464.726562 446.886719 467.941406 445.410156 470.660156 442.988281 C 474.863281 439.246094 478.449219 434.933594 481.257812 430.066406 C 484.195312 424.984375 486.386719 419.601562 486.726562 413.59375 C 487.082031 407.363281 485.429688 401.855469 481.242188 396.851562 Z M 447.128906 343.519531 C 444.949219 339.144531 441.824219 335.585938 437.417969 333.277344 C 433.910156 331.441406 430.15625 330.25 426.1875 329.902344 C 417.136719 329.125 408.492188 330.824219 400.226562 334.46875 C 397.890625 335.5 395.875 337.09375 394.328125 339.183594 C 392.695312 341.386719 391.617188 343.804688 391.96875 346.617188 C 392.300781 349.261719 393.617188 351.4375 395.734375 353 C 399.808594 356.007812 404.335938 357.722656 409.488281 357.851562 C 416.207031 358.023438 422.628906 356.648438 428.859375 354.363281 C 431.933594 353.238281 434.820312 351.609375 437.808594 350.238281 C 441.046875 348.753906 444.441406 346.347656 447.128906 343.519531 Z M 618.953125 321.65625 C 619.730469 321.277344 620.140625 321.191406 620.386719 320.9375 C 627.128906 314.027344 634.710938 308.085938 642.382812 302.292969 C 646.921875 298.867188 651.605469 295.589844 656.675781 292.851562 C 661.382812 290.308594 666.160156 288.050781 671.238281 286.433594 C 675.886719 284.949219 680.648438 284.300781 685.511719 285.152344 C 687.253906 285.453125 688.957031 285.972656 690.667969 286.429688 C 694.046875 287.332031 696.925781 289.082031 699.515625 291.441406 C 703.109375 294.71875 705.15625 298.855469 706.574219 303.386719 C 708.464844 309.441406 707.65625 315.160156 704.417969 320.589844 C 702.363281 324.035156 699.601562 326.726562 696.382812 329.105469 C 693.078125 331.550781 689.519531 333.007812 685.457031 332.808594 C 679.738281 332.527344 674.753906 330.71875 671.941406 325.160156 C 671.625 324.539062 671.136719 324.003906 670.710938 323.402344 C 669.644531 324.148438 669.667969 325.050781 669.699219 325.917969 C 669.867188 330.878906 672.351562 334.535156 676.234375 337.378906 C 679.839844 340.011719 683.914062 340.5 688.207031 339.957031 C 695.320312 339.058594 701.082031 335.566406 706.0625 330.597656 C 711.398438 325.261719 715.003906 318.964844 716.742188 311.59375 C 718.550781 303.90625 717.363281 296.75 713.203125 290.035156 C 710.429688 285.570312 706.449219 282.476562 701.953125 280.03125 C 697.546875 277.636719 692.8125 276.121094 687.742188 276.324219 C 684.707031 276.449219 681.644531 276.78125 678.671875 277.378906 C 668.679688 279.394531 659.222656 283.011719 650.144531 287.597656 C 647 289.191406 643.953125 291.003906 641 292.933594 C 636.117188 296.125 631.308594 299.417969 626.789062 303.121094 C 623.269531 306 619.695312 308.816406 616.066406 311.71875 C 617.03125 315.042969 617.945312 318.191406 618.953125 321.65625 Z M 572.652344 249.667969 C 575.535156 252.152344 577.929688 254.210938 580.472656 256.398438 C 581.890625 255.832031 583.339844 255.363281 584.683594 254.683594 C 588.078125 252.972656 591.4375 251.175781 594.796875 249.394531 C 598.484375 247.4375 602.171875 245.464844 605.847656 243.488281 C 606.179688 243.308594 606.445312 243.015625 606.753906 242.792969 C 608.398438 241.601562 609.980469 240.308594 611.710938 239.242188 C 615.828125 236.691406 619.566406 233.65625 623.128906 230.390625 C 628.667969 225.324219 633.894531 219.953125 638.214844 213.789062 C 640.03125 211.195312 641.832031 208.5 643.066406 205.609375 C 645.84375 199.097656 646.128906 192.28125 644.367188 185.441406 C 643.285156 181.253906 641.777344 177.242188 638.59375 174.0625 C 634.753906 170.238281 630.523438 167.042969 625.179688 165.734375 C 617.351562 163.824219 609.550781 163.867188 601.902344 166.664062 C 600.132812 167.3125 598.445312 168.203125 596.722656 168.984375 C 591.707031 171.257812 587.785156 174.839844 584.890625 179.445312 C 580.902344 185.78125 581.1875 192.636719 585.917969 198.59375 C 587.359375 200.414062 589.128906 201.851562 591.519531 202.265625 C 591.980469 202.347656 592.53125 202.585938 592.789062 201.597656 C 592.296875 200.933594 591.65625 200.160156 591.117188 199.328125 C 589.707031 197.148438 588.859375 194.738281 588.929688 192.140625 C 589.121094 184.929688 592.503906 179.515625 598.671875 175.945312 C 601.523438 174.292969 604.675781 173.164062 607.972656 172.6875 C 614.855469 171.695312 621.132812 172.886719 626.222656 178.0625 C 627.019531 178.875 627.921875 179.59375 628.671875 180.441406 C 632.125 184.339844 634.484375 188.785156 634.917969 194.042969 C 635.421875 200.175781 633.929688 205.878906 630.84375 211.207031 C 627.128906 217.613281 621.664062 222.367188 615.824219 226.644531 C 612.058594 229.40625 608.300781 232.25 604.113281 234.425781 C 602.195312 235.425781 600.445312 236.730469 598.519531 237.703125 C 594.570312 239.691406 590.570312 241.578125 586.566406 243.449219 C 583.246094 245 579.894531 246.476562 576.558594 247.976562 C 575.421875 248.480469 574.28125 248.960938 572.652344 249.667969 Z M 587.183594 471.558594 C 587.574219 472.019531 587.757812 472.378906 588.054688 472.566406 C 593.546875 476.011719 599.042969 479.429688 605.070312 481.925781 C 611.984375 484.792969 619.011719 487.320312 626.144531 489.585938 C 636.234375 492.789062 646.480469 495.109375 657.082031 495.742188 C 667.027344 496.34375 676.914062 495.980469 686.683594 493.972656 C 694.449219 492.375 701.773438 489.582031 708.089844 484.625 C 709.28125 483.691406 710.378906 482.597656 711.335938 481.433594 C 715.277344 476.671875 714.429688 468.539062 711.246094 464.765625 C 708.273438 461.246094 704.527344 459.359375 700.140625 458.734375 C 695.859375 458.128906 691.535156 458.035156 687.207031 458.359375 C 676.683594 459.144531 666.160156 459.960938 655.632812 460.679688 C 645.726562 461.351562 635.824219 461.492188 625.917969 460.542969 C 616.4375 459.636719 606.964844 458.707031 597.5625 457.132812 C 596.960938 457.03125 596.328125 457.121094 595.550781 457.121094 C 592.746094 461.964844 589.960938 466.769531 587.183594 471.558594 Z M 440.390625 214.640625 C 441.070312 212.246094 441.578125 210.289062 442.183594 208.359375 C 443.699219 203.519531 445.300781 198.707031 446.789062 193.855469 C 451.035156 180.054688 457.109375 167.066406 464.09375 154.476562 C 468.226562 147.027344 472.429688 139.613281 476.492188 132.121094 C 478.855469 127.765625 480.996094 123.292969 482.28125 118.457031 C 483.257812 114.777344 483.285156 111.136719 481.878906 107.613281 C 478.863281 100.09375 470.023438 97.070312 463.207031 100.332031 C 456.742188 103.425781 451.476562 107.859375 446.957031 113.257812 C 441.867188 119.335938 437.875 126.109375 434.558594 133.3125 C 432.269531 138.277344 429.972656 143.234375 428.40625 148.484375 C 427.203125 152.503906 425.78125 156.5 425.085938 160.609375 C 423.945312 167.355469 423.027344 174.140625 422.378906 180.972656 C 421.570312 189.480469 421.292969 197.960938 421.816406 206.472656 C 422.007812 209.613281 422.550781 212.730469 422.964844 216.109375 C 428.910156 215.863281 434.53125 215.007812 440.390625 214.640625 Z M 224.320312 315.027344 C 219.714844 313.660156 215.65625 312.773438 211.632812 311.785156 C 208.800781 311.085938 205.898438 310.675781 203.019531 310.164062 C 199.519531 309.539062 196.035156 308.726562 192.503906 308.390625 C 184.679688 307.648438 176.847656 307.160156 168.957031 307.296875 C 157.753906 307.492188 146.625 308.355469 135.511719 309.71875 C 122.328125 311.335938 109.621094 314.589844 97.417969 319.90625 C 91.792969 322.359375 86.417969 325.1875 81.648438 329.003906 C 77.457031 332.351562 74.550781 336.554688 74.574219 342.3125 C 74.59375 346.5 76.382812 349.613281 79.679688 351.984375 C 82.148438 353.761719 84.957031 354.417969 87.957031 354.371094 C 91.929688 354.316406 95.832031 353.675781 99.613281 352.566406 C 108.246094 350.03125 116.90625 347.550781 125.421875 344.65625 C 136.125 341.019531 146.902344 337.71875 157.992188 335.488281 C 160.480469 334.980469 162.976562 334.488281 165.492188 334.136719 C 172.285156 333.183594 179.074219 332.207031 185.886719 331.441406 C 190.425781 330.929688 194.984375 330.351562 199.570312 330.773438 C 202.460938 331.035156 205.34375 331.386719 208.332031 331.710938 C 213.496094 326.320312 218.671875 320.917969 224.320312 315.027344 Z M 392.558594 619.132812 C 392.148438 620.292969 391.710938 621.347656 391.398438 622.433594 C 389.980469 627.351562 387.964844 631.996094 385.292969 636.359375 C 382.773438 640.480469 380.261719 644.609375 377.792969 648.757812 C 371.136719 659.941406 363.351562 670.289062 354.675781 679.957031 C 347.976562 687.425781 341.054688 694.695312 334.378906 702.183594 C 331.003906 705.96875 327.839844 709.953125 324.792969 714.015625 C 322.824219 716.644531 321.203125 719.519531 320.511719 722.855469 C 319.59375 727.28125 321.75 733.808594 327.109375 736.160156 C 331.507812 738.085938 335.746094 737.933594 340.023438 736.242188 C 345.507812 734.070312 350.253906 730.746094 354.753906 726.933594 C 364.21875 718.910156 372.359375 709.765625 379.203125 699.421875 C 384.046875 692.09375 388.480469 684.53125 392.625 676.796875 C 399.179688 664.566406 405.097656 652.042969 408.550781 638.539062 C 410.652344 630.304688 412.398438 621.976562 414.277344 613.683594 C 414.40625 613.105469 414.292969 612.472656 414.292969 611.59375 C 407.015625 614.117188 399.960938 616.5625 392.558594 619.132812 Z M 327.804688 244.152344 C 335.28125 241 342.5 237.957031 349.84375 234.863281 C 349.597656 234.222656 349.476562 233.742188 349.238281 233.332031 C 347.480469 230.238281 345.703125 227.160156 343.914062 224.085938 C 343.660156 223.652344 343.324219 223.261719 343.023438 222.851562 C 341.679688 221.011719 340.320312 219.175781 338.984375 217.324219 C 338.164062 216.191406 337.414062 215.007812 336.558594 213.902344 C 334.460938 211.195312 332.339844 208.5 330.191406 205.832031 C 327.816406 202.875 325.578125 199.777344 322.964844 197.039062 C 318.070312 191.914062 313.160156 186.800781 307.734375 182.199219 C 300.828125 176.351562 293.621094 170.964844 285.65625 166.632812 C 281.417969 164.328125 277.042969 162.351562 272.464844 160.777344 C 265.945312 158.535156 259.257812 157.144531 252.421875 156.449219 C 245.824219 155.777344 239.226562 155.632812 232.695312 157 C 230.351562 157.492188 228.03125 158.199219 225.785156 159.042969 C 222.917969 160.121094 222.34375 162.023438 224.234375 164.324219 C 225.507812 165.871094 227.027344 167.277344 228.636719 168.484375 C 233.914062 172.453125 239.25 176.34375 244.621094 180.1875 C 250.921875 184.699219 257.296875 189.101562 263.605469 193.601562 C 271.570312 199.28125 279.507812 205.003906 287.441406 210.730469 C 292.691406 214.523438 298.003906 218.238281 303.125 222.199219 C 307.539062 225.617188 311.742188 229.316406 316 232.933594 C 320.054688 236.375 324.1875 239.742188 327.804688 244.152344 Z M 522.304688 546.570312 C 523.613281 550.609375 524.867188 554.320312 526.011719 558.058594 C 529.105469 568.136719 532.03125 578.257812 533.925781 588.648438 C 535.519531 597.394531 537.214844 606.128906 538.867188 614.863281 C 541.601562 629.351562 544.285156 643.851562 547.105469 658.320312 C 548.007812 662.925781 549.28125 667.457031 550.40625 672.015625 C 550.777344 673.523438 551.449219 674.886719 552.621094 675.941406 C 553.214844 676.480469 553.925781 676.679688 554.738281 676.375 C 556.328125 675.773438 557.511719 674.660156 558.671875 673.453125 C 562.140625 669.824219 564.722656 665.5625 566.800781 661.078125 C 569.957031 654.261719 572.222656 647.09375 573.671875 639.71875 C 575.882812 628.484375 575.652344 617.179688 573.554688 605.980469 C 571.777344 596.496094 569.167969 587.210938 565.675781 578.171875 C 562.707031 570.480469 559.175781 563.046875 555.324219 555.78125 C 551.050781 547.710938 546.679688 539.675781 541.089844 532.402344 C 540.65625 531.835938 540.179688 531.308594 539.636719 530.65625 C 533.746094 536.066406 528.046875 541.296875 522.304688 546.570312 Z M 449.820312 584.066406 C 449.796875 580.472656 449.210938 576.867188 448.425781 573.269531 C 446.835938 566.003906 443.125 559.777344 438.523438 554.15625 C 434.078125 548.714844 428.074219 545.316406 421.386719 543.269531 C 419.347656 542.640625 417.167969 542.324219 415.035156 542.203125 C 409.371094 541.871094 403.9375 543.050781 398.625 544.992188 C 392.082031 547.378906 386.457031 551.09375 381.535156 556.023438 C 376.609375 560.953125 373.0625 566.792969 369.859375 572.882812 C 366.691406 578.90625 364.621094 585.371094 363.777344 592.058594 C 362.882812 599.136719 363.296875 606.277344 365.742188 613.125 C 366.027344 613.921875 366.414062 614.679688 366.714844 615.367188 C 380.808594 614.617188 433.007812 594.921875 449.820312 584.066406 Z M 200.828125 356.769531 C 201.082031 357.113281 201.320312 357.566406 201.667969 357.902344 C 207.191406 363.164062 213.5625 366.988281 220.890625 369.15625 C 228.542969 371.421875 236.339844 372.078125 244.289062 371.445312 C 255.40625 370.558594 265.765625 367.644531 274.5625 360.449219 C 279.230469 356.632812 283.175781 352.160156 286.046875 346.839844 C 290.1875 339.175781 290.476562 331.078125 288.484375 322.773438 C 287.554688 318.890625 285.582031 315.503906 283.628906 312.070312 C 278.992188 303.933594 272.179688 298.332031 263.960938 294.363281 C 249.070312 303.058594 206.9375 344.707031 200.828125 356.769531 Z M 221.550781 544.601562 C 222.820312 546.640625 223.695312 548.515625 224.988281 550.03125 C 228.511719 554.179688 231.902344 558.433594 235.980469 562.097656 C 246.054688 571.15625 257.449219 577.3125 271.097656 578.886719 C 278.707031 579.765625 285.890625 578.972656 292.847656 575.304688 C 297.3125 572.949219 301.152344 569.96875 304.574219 566.417969 C 306.761719 564.152344 308.6875 561.554688 310.355469 558.871094 C 315.070312 551.273438 316.996094 542.976562 315.480469 534.09375 C 314.574219 528.796875 312.730469 523.824219 308.792969 519.902344 C 304.722656 515.84375 300.308594 512.238281 294.984375 509.933594 C 287.765625 506.816406 280.164062 505.546875 272.332031 505.652344 C 268.0625 505.714844 264.035156 506.695312 260.613281 509.476562 C 259.042969 510.757812 257.425781 511.980469 255.816406 513.214844 C 251.691406 516.367188 247.484375 519.429688 243.445312 522.691406 C 237.8125 527.230469 232.746094 532.382812 227.847656 537.695312 C 225.789062 539.929688 223.753906 542.1875 221.550781 544.601562 Z M 205.160156 517.929688 C 205.582031 517.847656 206.078125 517.792969 206.554688 517.660156 C 218.433594 514.371094 229.773438 509.742188 240.636719 503.941406 C 244.664062 501.789062 248.636719 499.523438 252.707031 497.464844 C 255.753906 495.925781 258.191406 493.816406 259.898438 490.882812 C 263.199219 485.222656 265.300781 479.113281 266.265625 472.664062 C 267.214844 466.324219 266.773438 460.039062 265.097656 453.804688 C 263.566406 448.09375 260.574219 443.371094 256.210938 439.507812 C 252.949219 436.625 249.273438 434.371094 245.023438 433.203125 C 239.976562 431.820312 234.871094 430.894531 229.609375 431.519531 C 223.632812 432.230469 217.96875 433.976562 212.601562 436.71875 C 204.722656 440.742188 198.902344 446.707031 195.585938 454.941406 C 193.789062 459.410156 192.402344 463.996094 191.863281 468.851562 C 191.316406 473.800781 191.148438 478.714844 191.679688 483.664062 C 192.828125 494.445312 196.734375 504.3125 201.679688 513.824219 C 202.488281 515.375 203.433594 516.921875 205.160156 517.929688 Z M 411.433594 228.121094 C 411.390625 229.230469 411.195312 230.128906 411.347656 230.960938 C 412.089844 235.089844 412.78125 239.230469 413.753906 243.308594 C 415.96875 252.585938 419.449219 261.472656 422.941406 270.304688 C 427.449219 281.707031 432.082031 293.066406 437.355469 304.15625 C 440.40625 310.570312 443.488281 316.953125 447.128906 323.046875 C 450.710938 329.042969 454.277344 335.054688 457.894531 341.027344 C 459.472656 343.640625 461.203125 346.167969 462.777344 348.777344 C 463.761719 350.402344 464.445312 352.21875 465.507812 353.777344 C 469.140625 359.121094 472.578125 364.585938 475.847656 370.160156 C 476.101562 370.597656 476.410156 371.003906 476.699219 371.421875 C 479.585938 375.605469 482.507812 379.765625 485.355469 383.972656 C 488.5625 388.703125 491.488281 393.632812 494.929688 398.179688 C 497.992188 402.234375 500.246094 406.832031 503.753906 410.585938 C 505.824219 412.796875 507.308594 415.542969 509.265625 417.867188 C 513.59375 422.996094 517.9375 428.117188 522.488281 433.054688 C 531.070312 442.367188 539.753906 451.585938 548.847656 460.410156 C 554.320312 465.726562 560.074219 470.726562 566.492188 474.898438 C 568.058594 475.914062 569.574219 477.101562 571.597656 477.289062 C 572.054688 476.707031 572.480469 476.238281 572.828125 475.71875 C 587.96875 453.308594 599.796875 429.335938 606.953125 403.179688 C 612.304688 383.625 614.683594 363.757812 612.710938 343.5 C 611.023438 326.207031 606.242188 309.847656 597.910156 294.527344 C 591.710938 283.121094 583.816406 273.074219 574.390625 264.207031 C 559.691406 250.371094 542.453125 240.792969 523.476562 234.25 C 506.042969 228.238281 488.03125 225.207031 469.640625 224.289062 C 452.8125 223.453125 436.066406 224.351562 419.398438 226.746094 C 416.773438 227.121094 414.175781 227.640625 411.433594 228.121094 Z M 354.738281 618.140625 C 354.113281 616.082031 353.46875 614.304688 353.039062 612.480469 C 350.46875 601.574219 351.054688 590.753906 354.304688 580.097656 C 356.804688 571.894531 360.589844 564.273438 365.621094 557.3125 C 371.578125 549.0625 378.621094 542.109375 388.0625 537.785156 C 393.417969 535.335938 398.847656 533.453125 404.699219 532.570312 C 415.089844 531.003906 424.679688 533.054688 433.574219 538.46875 C 438.371094 541.390625 442.472656 545.105469 446.082031 549.476562 C 450.6875 555.046875 454.132812 561.191406 456.320312 568.019531 C 457.433594 571.511719 458.046875 575.160156 458.929688 578.898438 C 461.148438 578.308594 463.085938 576.835938 465.121094 575.628906 C 489.863281 560.945312 512.496094 543.519531 532.996094 523.339844 C 544.980469 511.542969 556.054688 498.949219 565.945312 485.398438 C 565.652344 485.03125 565.535156 484.789062 565.34375 484.660156 C 564.925781 484.371094 564.480469 484.128906 564.027344 483.894531 C 559.03125 481.328125 554.347656 478.292969 550.058594 474.65625 C 542.503906 468.25 535.589844 461.175781 528.539062 454.238281 C 527.1875 452.910156 525.863281 451.550781 524.582031 450.152344 C 519.378906 444.457031 514.140625 438.792969 509.027344 433.019531 C 505.664062 429.226562 502.507812 425.257812 499.230469 421.398438 C 498.359375 420.378906 497.621094 419.160156 496.179688 418.59375 C 495.859375 419.746094 495.539062 420.699219 495.347656 421.675781 C 493.828125 429.441406 490.363281 436.324219 485.792969 442.695312 C 482.5 447.289062 478.488281 451.109375 473.691406 454.15625 C 468.613281 457.378906 463.175781 458.453125 457.285156 457.574219 C 450.738281 456.597656 446.242188 452.800781 443.117188 447.179688 C 439.433594 440.558594 439.523438 433.511719 441.246094 426.445312 C 442.640625 420.71875 445.355469 415.515625 448.679688 410.652344 C 455.050781 401.339844 463.484375 394.347656 473.199219 388.789062 C 473.816406 388.4375 474.324219 387.898438 474.957031 387.382812 C 472.304688 383.429688 469.761719 379.640625 467.148438 375.746094 C 465.605469 376.40625 464.214844 376.886719 462.960938 377.820312 C 460.71875 379.488281 458.421875 381.089844 456.074219 382.605469 C 438.421875 393.972656 420.75 405.316406 403.085938 416.667969 C 398.058594 419.898438 393.027344 423.125 387.996094 426.355469 C 384.25 428.757812 380.488281 431.128906 376.769531 433.566406 C 374.007812 435.371094 371.3125 437.269531 368.574219 439.109375 C 366.363281 440.589844 364.210938 442.1875 361.886719 443.472656 C 358.445312 445.371094 355.402344 447.847656 352.066406 449.890625 C 349.359375 451.542969 346.738281 453.335938 344.058594 455.023438 C 341.28125 456.773438 338.445312 458.425781 335.695312 460.210938 C 330.804688 463.386719 325.980469 466.667969 321.089844 469.84375 C 318.222656 471.703125 315.273438 473.441406 312.363281 475.246094 C 310.425781 476.445312 308.472656 477.625 306.570312 478.882812 C 303.617188 480.832031 300.714844 482.863281 297.761719 484.816406 C 295.75 486.152344 293.765625 487.550781 291.644531 488.675781 C 288.59375 490.296875 286.050781 492.621094 283.136719 494.410156 C 282.972656 494.511719 282.953125 494.851562 282.835938 495.160156 C 283.164062 495.273438 283.480469 495.425781 283.816406 495.492188 C 286.925781 496.101562 290.089844 496.511719 293.140625 497.34375 C 298.570312 498.828125 303.640625 501.230469 308.316406 504.34375 C 315.6875 509.246094 321.09375 515.792969 324.558594 523.992188 C 328.183594 532.570312 328.078125 541.359375 326.121094 550.179688 C 324.84375 555.90625 322.359375 561.230469 319.195312 566.199219 C 313.863281 574.578125 306.324219 580.507812 297.835938 585.351562 C 296.195312 586.285156 294.402344 586.96875 292.632812 587.644531 C 286.96875 589.816406 281.070312 590.519531 275.03125 590.332031 C 270.054688 590.175781 265.222656 589.285156 260.40625 588.023438 C 254.332031 586.429688 248.640625 583.996094 243.1875 580.96875 C 236.46875 577.234375 230.6875 572.289062 225.40625 566.742188 C 223.835938 565.097656 222.261719 563.441406 220.820312 561.679688 C 218.976562 559.429688 217.277344 557.050781 215.484375 554.75 C 215.191406 554.375 214.753906 554.109375 214.179688 553.621094 C 205.582031 563.457031 197.199219 573.28125 190.195312 584.023438 C 190.394531 584.511719 190.425781 584.8125 190.59375 584.964844 C 191.613281 585.917969 192.632812 586.878906 193.707031 587.773438 C 206.757812 598.65625 221.476562 606.589844 237.433594 612.253906 C 256.785156 619.125 276.832031 622.308594 297.292969 622.988281 C 315.289062 623.589844 333.148438 622.152344 350.878906 619.066406 C 352.101562 618.851562 353.296875 618.492188 354.738281 618.140625 Z M 433.378906 320.9375 C 433.703125 319.355469 433.003906 318.304688 432.441406 317.1875 C 431.074219 314.472656 429.703125 311.757812 428.441406 308.992188 C 426.917969 305.652344 425.546875 302.242188 424.042969 298.890625 C 420.464844 290.921875 417 282.902344 414 274.695312 C 411.824219 268.742188 409.597656 262.804688 407.617188 256.78125 C 404.988281 248.800781 402.757812 240.710938 402.5 232.222656 C 402.480469 231.507812 402.683594 230.667969 401.851562 230.199219 C 390.15625 231.710938 355.710938 241.324219 324.863281 256.488281 C 308.011719 264.773438 280.289062 281.011719 272.402344 288.292969 C 273.117188 288.839844 273.761719 289.464844 274.519531 289.886719 C 280.21875 293.039062 284.5 297.808594 288.289062 302.867188 C 293.351562 309.625 296.828125 317.238281 298.261719 325.691406 C 300.027344 336.144531 298.285156 345.898438 292.96875 355.074219 C 290.070312 360.082031 286.246094 364.3125 282.128906 368.292969 C 278.71875 371.585938 274.808594 374.257812 270.578125 376.332031 C 265.566406 378.785156 260.324219 380.714844 254.800781 381.765625 C 240.558594 384.46875 226.515625 384.375 212.8125 378.929688 C 206.019531 376.226562 199.703125 372.820312 194.578125 367.476562 C 194.257812 367.140625 193.75 366.980469 193.195312 366.660156 C 192.488281 367.550781 191.816406 368.296875 191.253906 369.113281 C 179.640625 385.9375 169.882812 403.761719 162.523438 422.859375 C 154.832031 442.832031 149.929688 463.40625 149.289062 484.890625 C 148.859375 499.234375 150.335938 513.359375 154.304688 527.179688 C 154.609375 528.25 155.042969 529.28125 155.441406 530.394531 C 168.546875 528.503906 180.957031 524.898438 193.566406 521.191406 C 193.15625 520.257812 192.898438 519.414062 192.445312 518.695312 C 190.464844 515.574219 188.957031 512.226562 187.503906 508.835938 C 184.023438 500.730469 181.527344 492.375 180.703125 483.574219 C 179.613281 471.835938 181.210938 460.488281 185.894531 449.644531 C 187.460938 446.019531 189.449219 442.617188 191.9375 439.511719 C 197.5625 432.492188 204.789062 427.648438 212.929688 424.109375 C 219.773438 421.132812 226.957031 419.710938 234.457031 419.953125 C 239.179688 420.105469 243.746094 420.867188 248.304688 422.199219 C 260.023438 425.613281 268.113281 433.171875 273.523438 443.816406 C 276.683594 450.027344 278.171875 456.746094 278.070312 463.703125 C 278.003906 468.371094 277.910156 473.082031 276.230469 477.59375 C 275.535156 479.449219 275.347656 481.496094 274.851562 483.816406 C 275.699219 483.382812 276.25 483.140625 276.757812 482.828125 C 279.796875 480.980469 282.820312 479.101562 285.867188 477.253906 C 287.601562 476.203125 289.507812 475.386719 291.078125 474.140625 C 294.882812 471.128906 299.007812 468.636719 303.160156 466.167969 C 305.011719 465.070312 306.894531 464.019531 308.691406 462.84375 C 312.519531 460.347656 316.246094 457.683594 320.132812 455.28125 C 322.925781 453.550781 325.78125 451.929688 328.457031 450.015625 C 330.421875 448.609375 332.363281 447.140625 334.457031 445.957031 C 339.097656 443.335938 343.617188 440.554688 347.894531 437.363281 C 349.515625 436.148438 351.347656 435.21875 353.101562 434.183594 C 354.300781 433.472656 355.554688 432.847656 356.734375 432.097656 C 362.527344 428.425781 368.304688 424.730469 374.078125 421.03125 C 379.652344 417.464844 385.207031 413.878906 390.78125 410.316406 C 413.296875 395.921875 435.820312 381.539062 458.332031 367.136719 C 459.058594 366.671875 459.695312 366.070312 460.492188 365.445312 C 458.046875 361.324219 455.683594 357.34375 453.210938 353.179688 C 452.414062 353.671875 451.78125 354.046875 451.160156 354.453125 C 444.882812 358.539062 438.625 362.625 431.402344 364.976562 C 422.210938 367.964844 412.886719 369.605469 403.265625 367.789062 C 399.285156 367.035156 395.460938 365.667969 391.96875 363.421875 C 388.09375 360.925781 385.367188 357.511719 383.292969 353.515625 C 382.546875 352.070312 381.867188 350.492188 381.625 348.902344 C 380.546875 341.761719 382.730469 335.578125 387.632812 330.378906 C 391.183594 326.609375 395.636719 324.132812 400.460938 322.433594 C 409.75 319.160156 419.277344 318.265625 429.003906 320.132812 C 430.464844 320.414062 431.890625 320.914062 433.378906 320.9375 Z M 425.351562 606.984375 C 425.203125 607.933594 425.054688 608.671875 424.96875 609.417969 C 423.746094 620.292969 421.789062 631.050781 419.007812 641.617188 C 416.347656 651.703125 412.476562 661.410156 408.054688 670.867188 C 402.386719 682.980469 395.875 694.625 388.496094 705.804688 C 381.863281 715.847656 373.972656 724.773438 365.105469 732.835938 C 361.070312 736.507812 356.832031 739.984375 352.085938 742.769531 C 347.332031 745.558594 342.363281 747.660156 336.867188 748.554688 C 333.890625 749.039062 331.027344 748.792969 328.179688 748.109375 C 324.285156 747.171875 320.679688 745.390625 317.785156 742.703125 C 311.203125 736.59375 307.609375 727.550781 310.828125 718.199219 C 312.558594 713.171875 315.203125 708.738281 318.632812 704.761719 C 324.035156 698.503906 329.511719 692.308594 335.023438 686.152344 C 339.945312 680.664062 345.015625 675.308594 349.925781 669.808594 C 358.171875 660.566406 365.09375 650.371094 371.34375 639.699219 C 373.597656 635.863281 375.929688 632.066406 378.136719 628.199219 C 379.007812 626.675781 379.640625 625.011719 380.378906 623.421875 C 379 622.5625 377.921875 623.203125 376.863281 623.472656 C 368.730469 625.578125 360.527344 627.351562 352.25 628.773438 C 329.3125 632.714844 306.246094 634.128906 283.035156 631.972656 C 263.9375 630.203125 245.332031 626.167969 227.519531 618.933594 C 208.800781 611.335938 191.972656 600.789062 177.730469 586.324219 C 176.851562 585.429688 176.03125 584.480469 175.238281 583.621094 C 175.765625 581.289062 177.765625 580.230469 178.867188 578.246094 C 178.398438 577.648438 177.96875 576.878906 177.34375 576.347656 C 170.691406 570.613281 166.054688 563.320312 161.78125 555.820312 C 159.917969 552.550781 158.882812 548.808594 157.484375 545.277344 C 157.210938 544.589844 156.984375 543.890625 156.746094 543.21875 C 154.398438 543.097656 152.527344 544.75 150.105469 544.308594 C 149.742188 543.558594 149.3125 542.800781 148.996094 541.992188 C 144.679688 530.902344 141.953125 519.429688 140.53125 507.617188 C 139.25 496.953125 139.128906 486.277344 140.054688 475.605469 C 140.992188 464.8125 142.886719 454.175781 145.625 443.683594 C 151.824219 419.96875 161.804688 397.902344 174.566406 377.042969 C 181.550781 365.621094 189.308594 354.75 197.726562 344.34375 C 198.363281 343.5625 198.992188 342.769531 199.535156 342.085938 C 199.371094 341 198.632812 341.050781 198.054688 341.089844 C 194.125 341.335938 190.191406 341.558594 186.273438 341.933594 C 181.839844 342.359375 177.414062 342.882812 173 343.449219 C 167.199219 344.191406 161.417969 345.070312 155.753906 346.546875 C 149.609375 348.148438 143.433594 349.648438 137.359375 351.480469 C 131.167969 353.347656 125.113281 355.660156 118.945312 357.617188 C 112.417969 359.683594 105.84375 361.621094 99.261719 363.503906 C 94.582031 364.84375 89.78125 365.382812 84.921875 364.949219 C 78.242188 364.355469 72.929688 361.4375 68.859375 355.949219 C 66.121094 352.261719 64.441406 348.378906 63.921875 343.8125 C 63.183594 337.359375 65.132812 331.722656 68.765625 326.609375 C 70.519531 324.140625 72.628906 321.914062 75.214844 320.183594 C 76.996094 318.988281 78.546875 317.4375 80.339844 316.257812 C 85.753906 312.699219 91.613281 309.972656 97.621094 307.601562 C 108.296875 303.382812 119.296875 300.40625 130.699219 298.886719 C 137.632812 297.960938 144.578125 297.289062 151.546875 296.695312 C 161.34375 295.855469 171.117188 296 180.902344 296.375 C 193.144531 296.847656 205.097656 299.28125 216.941406 302.222656 C 221.25 303.289062 225.460938 304.738281 229.71875 306 C 230.804688 306.320312 231.90625 306.589844 233.089844 306.90625 C 241.65625 299.378906 250.300781 292.089844 259.34375 285.277344 C 268.507812 278.378906 278.023438 272.027344 287.703125 265.894531 C 297.261719 259.839844 307.285156 254.601562 317.46875 249.128906 C 316.710938 248.273438 316.203125 247.558594 315.558594 247 C 309.109375 241.453125 303.046875 235.445312 296.179688 230.390625 C 291.777344 227.148438 287.351562 223.941406 282.921875 220.738281 C 272.617188 213.292969 262.335938 205.820312 251.984375 198.4375 C 244.222656 192.902344 236.332031 187.546875 228.566406 182.011719 C 225.78125 180.027344 223.203125 177.75 220.515625 175.621094 C 217.558594 173.28125 215.550781 170.183594 213.746094 166.96875 C 211.042969 162.164062 212.824219 156.519531 216.34375 153.035156 C 218.570312 150.832031 221.332031 149.644531 224.144531 148.460938 C 231.578125 145.324219 239.40625 144.703125 247.328125 144.90625 C 255.089844 145.101562 262.796875 145.992188 270.296875 148.09375 C 280.519531 150.949219 290.109375 155.226562 299.003906 161.066406 C 310.007812 168.292969 319.683594 177.074219 328.558594 186.714844 C 332.933594 191.472656 336.945312 196.59375 340.8125 201.785156 C 344.140625 206.25 347.035156 211.039062 350.097656 215.695312 C 351.496094 217.820312 352.898438 219.941406 354.195312 222.121094 C 355.296875 223.972656 356.226562 225.921875 357.285156 227.800781 C 357.902344 228.898438 358.621094 229.941406 359.402344 231.183594 C 360.3125 230.984375 361.167969 230.882812 361.96875 230.621094 C 375.992188 225.972656 390.21875 222.109375 404.71875 219.28125 C 407.0625 218.820312 409.5 218.734375 411.929688 217.703125 C 412.09375 215.125 411.636719 212.613281 411.382812 210.125 C 410.339844 199.964844 410.519531 189.828125 411.558594 179.695312 C 412.089844 174.523438 412.449219 169.316406 413.386719 164.21875 C 414.941406 155.734375 416.769531 147.308594 419.992188 139.226562 C 422.917969 131.886719 426.167969 124.722656 430.132812 117.886719 C 433.984375 111.230469 438.628906 105.214844 444.320312 100.039062 C 448.859375 95.910156 453.816406 92.316406 459.539062 90.070312 C 467.296875 87.023438 474.96875 87.367188 482.273438 91.660156 C 483.25 92.238281 484.199219 92.925781 485.019531 93.707031 C 489.542969 98.003906 492.839844 102.96875 493.808594 109.308594 C 494.507812 113.960938 493.875 118.429688 492.429688 122.820312 C 490.914062 127.421875 488.949219 131.839844 486.621094 136.085938 C 483.320312 142.109375 479.984375 148.113281 476.570312 154.078125 C 470.496094 164.675781 464.707031 175.421875 460.183594 186.792969 C 457.929688 192.453125 455.902344 198.207031 453.816406 203.929688 C 452.820312 206.675781 451.914062 209.449219 450.988281 212.21875 C 450.835938 212.671875 450.789062 213.164062 450.710938 213.539062 C 451.550781 214.480469 452.484375 214.15625 453.320312 214.171875 C 458.410156 214.257812 463.503906 214.167969 468.585938 214.386719 C 490.992188 215.347656 512.785156 219.414062 533.726562 227.589844 C 541.792969 230.738281 549.601562 234.476562 557.007812 238.992188 C 558.492188 239.898438 559.9375 240.203125 561.667969 240.105469 C 565.816406 239.867188 569.609375 238.382812 573.382812 236.933594 C 577.160156 235.480469 580.785156 233.632812 584.46875 231.945312 C 590.472656 229.203125 596.097656 225.75 601.882812 222.601562 C 605.722656 220.511719 609.132812 217.878906 612.542969 215.25 C 616.78125 211.980469 620.578125 208.210938 623.011719 203.3125 C 624.828125 199.671875 625.558594 195.914062 624.410156 191.878906 C 622.867188 186.472656 616.363281 180.550781 608.566406 182.871094 C 606.496094 183.488281 604.394531 183.960938 602.65625 185.351562 C 601.226562 186.496094 600.226562 187.902344 599.707031 189.691406 C 599.179688 191.519531 599.652344 193.023438 601.15625 194.058594 C 602.066406 194.6875 603.179688 195.074219 604.253906 195.398438 C 608.503906 196.699219 609.777344 200.207031 607.464844 204.015625 C 605.203125 207.742188 602.046875 210.375 598.089844 212.066406 C 595.6875 213.097656 593.164062 213.1875 590.59375 212.78125 C 585.121094 211.917969 581.03125 208.84375 577.683594 204.664062 C 575.53125 201.976562 574.035156 198.882812 572.996094 195.597656 C 570.996094 189.25 571.710938 183.089844 574.25 177.007812 C 576.945312 170.542969 581.625 165.832031 587.179688 161.859375 C 591.976562 158.429688 597.238281 155.917969 602.949219 154.472656 C 616.761719 150.988281 629.679688 152.921875 641.402344 161.246094 C 644.523438 163.460938 647.0625 166.308594 649.296875 169.445312 C 654.582031 176.84375 656.964844 185.132812 656.882812 194.136719 C 656.8125 201.257812 654.84375 207.90625 651.304688 214.089844 C 647.101562 221.457031 641.472656 227.636719 635.320312 233.390625 C 631.421875 237.039062 627.46875 240.648438 623.015625 243.582031 C 618.472656 246.574219 614.226562 250.027344 609.238281 252.371094 C 605.921875 253.925781 602.847656 256.011719 599.558594 257.632812 C 595.691406 259.535156 591.710938 261.195312 587.570312 263.050781 C 587.972656 263.644531 588.359375 264.421875 588.921875 265.042969 C 594.558594 271.300781 599.621094 278.003906 603.828125 285.300781 C 606.488281 289.921875 608.792969 294.753906 611.242188 299.492188 C 611.816406 300.605469 612.347656 301.734375 613.019531 303.101562 C 614.292969 301.863281 615.328125 300.769531 616.460938 299.785156 C 621.238281 295.605469 626.179688 291.625 631.394531 288 C 633.167969 286.765625 634.785156 285.304688 636.609375 284.175781 C 641.34375 281.238281 646.078125 278.332031 651.109375 275.859375 C 656.460938 273.226562 661.933594 270.964844 667.507812 268.894531 C 673.636719 266.621094 679.984375 265.296875 686.484375 264.996094 C 694.546875 264.625 702.109375 266.664062 709.050781 270.789062 C 712.777344 272.996094 716.261719 275.5625 719.066406 278.914062 C 723.535156 284.253906 726.996094 290.183594 728.132812 297.117188 C 730.8125 313.453125 725.503906 327.234375 713.871094 338.597656 C 709.140625 343.214844 703.609375 346.875 697.179688 348.960938 C 691.507812 350.804688 685.8125 351.417969 679.917969 350.175781 C 672.914062 348.703125 667.675781 344.761719 663.773438 338.9375 C 660.964844 334.753906 659.132812 330.191406 659.378906 325.011719 C 659.5625 321.207031 660.886719 317.898438 663.421875 314.984375 C 666.632812 311.28125 670.785156 309.695312 675.46875 309.277344 C 676.679688 309.171875 678.042969 309.453125 679.160156 309.953125 C 680.949219 310.753906 681.675781 312.386719 681.5625 314.34375 C 681.488281 315.601562 681.195312 316.875 681.292969 318.121094 C 681.554688 321.457031 683.046875 322.488281 686.371094 322.335938 C 688.796875 322.21875 691.109375 321.390625 692.730469 319.308594 C 693.664062 318.105469 694.757812 317.019531 695.617188 315.765625 C 698.621094 311.386719 698.1875 306.933594 695.753906 302.46875 C 692.738281 296.953125 687.671875 295.523438 681.914062 295.519531 C 678.03125 295.519531 674.355469 296.648438 670.863281 298.160156 C 663.503906 301.347656 656.640625 305.410156 650.367188 310.457031 C 647.902344 312.4375 645.25 314.183594 642.773438 316.160156 C 640.792969 317.738281 638.960938 319.507812 637.039062 321.164062 C 633.292969 324.394531 629.46875 327.539062 626.289062 331.367188 C 625.480469 332.34375 624.714844 333.367188 623.972656 334.398438 C 622.4375 336.523438 621.898438 338.726562 622.21875 341.507812 C 623.261719 350.496094 623.261719 359.546875 622.664062 368.582031 C 621.109375 392.210938 614.816406 414.652344 605.5625 436.335938 C 604.410156 439.027344 603.136719 441.664062 601.925781 444.328125 C 601.457031 445.355469 601.007812 446.390625 600.433594 447.695312 C 601.347656 447.925781 602.019531 448.199219 602.710938 448.261719 C 610.9375 448.976562 619.15625 449.957031 627.398438 450.265625 C 635.648438 450.574219 643.945312 450.496094 652.191406 450.054688 C 663.113281 449.472656 674 448.242188 684.914062 447.550781 C 689.976562 447.226562 695.089844 447.289062 700.152344 447.585938 C 706.695312 447.972656 712.605469 450.28125 717.242188 455.046875 C 722.089844 460.03125 725.164062 465.921875 724.960938 473.097656 C 724.75 480.617188 721.675781 486.890625 716.152344 491.882812 C 708.414062 498.878906 699.058594 502.785156 689.046875 505.0625 C 682.222656 506.617188 675.21875 507.132812 668.203125 507.144531 C 661.59375 507.148438 654.988281 507.117188 648.417969 506.167969 C 640.734375 505.0625 633.175781 503.390625 625.757812 501.101562 C 621.886719 499.902344 618.097656 498.429688 614.242188 497.171875 C 603.789062 493.769531 594 488.953125 584.597656 483.304688 C 583.726562 482.78125 582.847656 482.265625 581.960938 481.765625 C 581.742188 481.644531 581.484375 481.597656 581.003906 481.4375 C 580.589844 481.894531 580.03125 482.375 579.628906 482.964844 C 570.113281 496.699219 559.609375 509.632812 548.128906 521.773438 C 547.707031 522.222656 547.355469 522.746094 546.855469 523.386719 C 547.53125 524.378906 548.128906 525.335938 548.804688 526.226562 C 552.816406 531.496094 556.492188 536.988281 559.871094 542.675781 C 562.59375 547.261719 565.386719 551.804688 567.976562 556.46875 C 569.753906 559.671875 571.359375 562.988281 572.828125 566.347656 C 574.996094 571.339844 577.097656 576.355469 578.875 581.511719 C 580.617188 586.566406 582.089844 591.6875 583.328125 596.878906 C 585.101562 604.320312 586.230469 611.847656 586.570312 619.492188 C 586.738281 623.183594 586.460938 626.839844 586.214844 630.519531 C 585.863281 635.746094 585.109375 640.882812 583.808594 645.941406 C 581.417969 655.214844 578 664.085938 572.957031 672.257812 C 569.777344 677.40625 565.773438 681.839844 560.632812 685.074219 C 554.082031 689.195312 547.839844 686.980469 544.316406 682.433594 C 541.851562 679.253906 540.429688 675.632812 539.230469 671.875 C 537.566406 666.644531 536.808594 661.214844 535.792969 655.84375 C 534.277344 647.851562 532.824219 639.84375 531.308594 631.847656 C 530.125 625.601562 528.90625 619.363281 527.667969 613.128906 C 525.417969 601.785156 523.296875 590.410156 520.808594 579.117188 C 519.582031 573.554688 517.660156 568.144531 516.058594 562.664062 C 515.417969 560.464844 514.824219 558.257812 514.148438 556.074219 C 513.976562 555.5 513.601562 554.988281 513.179688 554.183594 C 503.914062 561.238281 494.867188 568.230469 485.277344 574.472656 C 475.777344 580.648438 466.15625 586.59375 456.183594 591.992188 C 446.128906 597.445312 435.808594 602.34375 425.351562 606.984375 " fill-opacity="1" fill-rule="nonzero"/></g></svg>