<svg xmlns="http://www.w3.org/2000/svg" xmlns:xlink="http://www.w3.org/1999/xlink" width="1080" zoomAndPan="magnify" viewBox="0 0 810 809.999993" height="1080" preserveAspectRatio="xMidYMid meet" version="1.0"><defs><clipPath id="574576fa75"><path d="M 551 438 L 665.511719 438 L 665.511719 691 L 551 691 Z M 551 438 " clip-rule="nonzero"/></clipPath><clipPath id="d61c47c67b"><path d="M 222 470 L 574 470 L 574 737.964844 L 222 737.964844 Z M 222 470 " clip-rule="nonzero"/></clipPath></defs><path fill="#000000" d="M 412.660156 365.785156 C 414.6875 379.65625 406.679688 429.636719 365.289062 423.253906 C 333.847656 418.402344 329.101562 378.640625 329.101562 378.640625 C 339.160156 376.042969 348.078125 372.125 350.824219 357.519531 C 350.824219 357.519531 353.808594 382.789062 383.625 378.730469 C 404.570312 375.875 412.660156 365.785156 412.660156 365.785156 Z M 399.75 391.449219 C 399.75 391.449219 387.355469 390.53125 369.808594 394.84375 C 354.460938 398.613281 347.6875 404.460938 347.6875 404.460938 C 365.402344 433.746094 401.898438 410.65625 399.75 391.449219 Z M 399.75 391.449219 " fill-opacity="1" fill-rule="evenodd"/><path fill="#000000" d="M 278.421875 539.695312 C 266.007812 539.695312 254.652344 537.316406 244.503906 532.574219 C 219.679688 520.996094 199.996094 481.722656 190.246094 458.691406 C 176.558594 456.660156 169.160156 446.925781 160.617188 435.695312 C 158.8125 433.320312 156.945312 430.863281 154.953125 428.394531 C 147.246094 418.851562 144.300781 408.550781 147.070312 400.855469 C 148.378906 397.214844 151.554688 392.601562 159.214844 390.480469 C 158.144531 386.929688 157.023438 379.902344 161.378906 372.40625 C 167.363281 362.136719 177.105469 361.914062 181.011719 362.011719 C 182.394531 354.542969 187.148438 347.054688 196.742188 347.054688 L 196.75 347.054688 C 209.3125 347.054688 218.902344 358.015625 224.746094 367.222656 C 227.695312 371.859375 229.816406 376.226562 231.097656 379.125 C 236.558594 375.632812 243.960938 374.207031 250.121094 379.746094 C 254.035156 383.265625 256.730469 389.011719 257.699219 395.933594 C 258.734375 403.285156 257.789062 411.355469 254.960938 419.273438 C 254.402344 420.851562 253.746094 422.457031 253.007812 424.0625 C 257.394531 432.269531 262.359375 440.027344 272.808594 455.011719 C 282.414062 454.691406 290.042969 454.386719 297.4375 454.039062 C 298.382812 453.992188 299.183594 454.71875 299.222656 455.664062 C 299.269531 456.605469 298.542969 457.402344 297.601562 457.449219 C 289.957031 457.8125 282.058594 458.121094 271.992188 458.453125 C 271.421875 458.46875 270.867188 458.199219 270.535156 457.722656 C 259.316406 441.652344 254.222656 433.675781 249.589844 424.902344 C 249.335938 424.425781 249.324219 423.859375 249.558594 423.371094 C 250.390625 421.617188 251.125 419.847656 251.746094 418.121094 C 257.484375 402.058594 254.121094 387.933594 247.839844 382.277344 C 241.210938 376.320312 233.640625 381.335938 231.480469 383.019531 C 231.332031 383.128906 231.242188 383.1875 231.21875 383.199219 C 230.8125 383.4375 230.324219 383.5 229.875 383.367188 C 229.425781 383.234375 229.046875 382.921875 228.835938 382.503906 C 228.824219 382.480469 228.773438 382.375 228.699219 382.1875 C 227.644531 379.640625 225.355469 374.539062 221.863281 369.042969 C 216.484375 360.566406 207.757812 350.460938 196.75 350.460938 L 196.746094 350.460938 C 194.210938 350.460938 185.800781 351.429688 184.179688 363.824219 C 184.160156 363.960938 184.144531 364.050781 184.140625 364.082031 C 183.984375 364.859375 183.3125 365.421875 182.519531 365.449219 C 182.230469 365.457031 181.898438 365.449219 181.472656 365.433594 C 169.59375 365.0625 165.910156 371.40625 164.332031 374.117188 C 159.835938 381.84375 162.167969 388.933594 162.992188 390.925781 C 163.050781 391.0625 163.078125 391.15625 163.089844 391.1875 C 163.230469 391.648438 163.171875 392.148438 162.929688 392.5625 C 162.683594 392.976562 162.273438 393.269531 161.800781 393.363281 C 155.871094 394.566406 151.886719 397.558594 150.289062 402.003906 C 147.957031 408.476562 150.765625 417.761719 157.613281 426.246094 C 159.632812 428.753906 161.519531 431.226562 163.339844 433.621094 C 171.953125 444.953125 178.757812 453.898438 191.644531 455.425781 C 192.253906 455.496094 192.777344 455.894531 193.019531 456.460938 C 197.414062 466.933594 204.5625 482.40625 213.648438 496.609375 C 224.417969 513.445312 235.285156 524.5 245.949219 529.472656 C 260.320312 536.183594 277.28125 537.933594 296.371094 534.683594 C 297.300781 534.527344 298.183594 535.152344 298.339844 536.078125 C 298.496094 537.007812 297.875 537.890625 296.945312 538.046875 C 290.542969 539.140625 284.363281 539.683594 278.425781 539.683594 Z M 278.421875 539.695312 " fill-opacity="1" fill-rule="nonzero"/><path fill="#000000" d="M 201.960938 429.484375 C 195.242188 429.484375 188.585938 426.425781 184.226562 420.636719 C 180.675781 415.914062 179.160156 410.101562 179.964844 404.265625 C 180.769531 398.429688 183.796875 393.269531 188.496094 389.734375 C 198.179688 382.449219 212.035156 384.449219 219.367188 394.199219 C 222.921875 398.917969 224.4375 404.730469 223.628906 410.566406 C 222.824219 416.40625 219.800781 421.566406 215.101562 425.097656 C 211.167969 428.058594 206.550781 429.488281 201.957031 429.488281 Z M 201.636719 388.761719 C 197.761719 388.761719 193.863281 389.964844 190.542969 392.464844 C 186.582031 395.445312 184.023438 399.804688 183.347656 404.730469 C 182.667969 409.667969 183.949219 414.582031 186.957031 418.582031 C 193.164062 426.824219 204.871094 428.523438 213.054688 422.367188 C 217.019531 419.386719 219.574219 415.027344 220.253906 410.097656 C 220.933594 405.164062 219.652344 400.246094 216.640625 396.25 C 212.953125 391.351562 207.320312 388.761719 201.636719 388.761719 Z M 189.515625 391.101562 Z M 189.515625 391.101562 " fill-opacity="1" fill-rule="nonzero"/><path fill="#000000" d="M 219.796875 399.105469 C 219.632812 399.105469 219.472656 399.085938 219.308594 399.035156 C 218.40625 398.769531 217.890625 397.820312 218.15625 396.914062 C 220.234375 389.886719 223.378906 385.410156 230.164062 379.800781 C 230.890625 379.199219 231.964844 379.300781 232.566406 380.027344 C 233.167969 380.753906 233.0625 381.832031 232.339844 382.433594 C 226.066406 387.613281 223.316406 391.511719 221.429688 397.882812 C 221.210938 398.625 220.53125 399.105469 219.796875 399.105469 Z M 219.796875 399.105469 " fill-opacity="1" fill-rule="nonzero"/><g clip-path="url(#574576fa75)"><path fill="#000000" d="M 566.289062 690.847656 C 561.34375 690.847656 556.929688 690.46875 553.371094 690.003906 C 552.4375 689.882812 551.777344 689.023438 551.898438 688.089844 C 552.019531 687.15625 552.875 686.496094 553.8125 686.621094 C 561.433594 687.617188 573.09375 688.203125 585.398438 685.3125 C 593.390625 683.4375 620.195312 674.59375 629.59375 639.667969 C 638.660156 605.941406 627.921875 586.960938 618.445312 570.21875 C 611.28125 557.554688 604.511719 545.597656 607.207031 529.394531 C 607.339844 528.585938 608.027344 527.988281 608.847656 527.96875 C 609.085938 527.964844 634.113281 524.789062 645.574219 503.003906 C 649.648438 495.269531 649.007812 488.460938 648.335938 481.253906 C 647.324219 470.417969 646.277344 459.230469 660.25 444.308594 C 642.09375 440.761719 626.050781 441.070312 612.523438 445.234375 C 599.875 449.128906 590.132812 456.304688 584.351562 465.996094 C 574.039062 483.285156 577.753906 505.859375 594.046875 524.921875 C 594.378906 525.308594 594.519531 525.828125 594.429688 526.335938 C 590.046875 550.457031 596.433594 564.175781 602.609375 577.441406 C 607.6875 588.355469 612.941406 599.640625 611.460938 616.0625 C 610.40625 627.734375 605.34375 638.214844 596.824219 646.367188 C 589.023438 653.832031 578.457031 659.078125 567.078125 661.148438 C 566.148438 661.316406 565.265625 660.699219 565.09375 659.773438 C 564.921875 658.847656 565.542969 657.953125 566.46875 657.789062 C 577.199219 655.835938 587.140625 650.90625 594.464844 643.898438 C 602.382812 636.320312 607.085938 626.589844 608.066406 615.753906 C 609.46875 600.246094 604.632812 589.867188 599.519531 578.878906 C 593.1875 565.273438 586.640625 551.210938 590.933594 526.519531 C 574.105469 506.4375 570.453125 482.640625 581.425781 464.246094 C 587.644531 453.816406 598.054688 446.113281 611.523438 441.96875 C 626.363281 437.398438 644.027344 437.269531 664.015625 441.59375 C 664.628906 441.726562 665.121094 442.183594 665.292969 442.785156 C 665.46875 443.386719 665.296875 444.035156 664.855469 444.480469 C 649.730469 459.40625 650.707031 469.863281 651.738281 480.933594 C 652.429688 488.320312 653.140625 495.957031 648.601562 504.59375 C 642.417969 516.34375 632.460938 522.9375 625.199219 526.398438 C 618.648438 529.519531 613.015625 530.789062 610.390625 531.210938 C 608.429688 545.578125 614.464844 556.242188 621.421875 568.535156 C 631.21875 585.851562 642.324219 605.476562 632.894531 640.554688 C 623.007812 677.3125 594.640625 686.648438 586.179688 688.636719 C 579.148438 690.289062 572.324219 690.855469 566.292969 690.855469 Z M 566.289062 690.847656 " fill-opacity="1" fill-rule="nonzero"/></g><path fill="#000000" d="M 604.566406 531.761719 C 599.550781 531.761719 595.472656 530.585938 592.417969 528.246094 C 591.671875 527.671875 591.527344 526.601562 592.101562 525.855469 C 592.671875 525.105469 593.742188 524.960938 594.492188 525.535156 C 597.628906 527.933594 602.289062 528.804688 608.34375 528.125 C 609.28125 528.019531 610.125 528.695312 610.230469 529.632812 C 610.335938 530.570312 609.664062 531.414062 608.730469 531.519531 C 607.277344 531.683594 605.890625 531.765625 604.566406 531.765625 Z M 604.566406 531.761719 " fill-opacity="1" fill-rule="nonzero"/><g clip-path="url(#d61c47c67b)"><path fill="#000000" d="M 369.933594 737.316406 C 364.472656 737.316406 358.695312 735.167969 350.347656 730.058594 C 350.0625 730.101562 349.785156 730.144531 349.507812 730.1875 C 343.792969 731.070312 337.882812 731.984375 332.738281 729.21875 C 327.398438 726.351562 323.785156 720.078125 321.449219 709.5625 C 315.816406 712.71875 303.851562 718.863281 294.40625 719.90625 C 285.148438 720.921875 280.554688 719.359375 276.863281 718.105469 C 273.507812 716.964844 271.085938 716.144531 266.023438 717.609375 C 253.5 721.234375 247.632812 716.546875 243.75 713.445312 C 242.152344 712.167969 240.890625 711.160156 239.679688 711.027344 C 234.65625 710.480469 230.628906 708.195312 227.707031 704.230469 C 221.621094 695.984375 222.449219 683.371094 222.863281 681.226562 C 227.46875 657.546875 243.914062 649.535156 249.648438 646.832031 C 241.183594 633.945312 236.332031 621.804688 235.222656 610.722656 C 234.179688 600.304688 236.414062 591.089844 241.863281 583.320312 C 252.703125 567.871094 275.792969 560.335938 297.539062 564.878906 C 294.28125 545.308594 294.097656 527.78125 296.996094 512.742188 C 299.910156 497.640625 305.953125 484.894531 314.957031 474.863281 C 315.589844 474.164062 316.667969 474.105469 317.367188 474.734375 C 318.070312 475.367188 318.128906 476.445312 317.496094 477.148438 C 308.910156 486.707031 303.140625 498.902344 300.347656 513.390625 C 297.40625 528.660156 297.738281 546.636719 301.335938 566.824219 C 301.441406 567.394531 301.246094 567.976562 300.816406 568.371094 C 300.394531 568.765625 299.796875 568.917969 299.234375 568.777344 C 289.320312 566.257812 278.421875 566.433594 268.550781 569.261719 C 258.183594 572.238281 249.917969 577.777344 244.652344 585.28125 C 239.6875 592.355469 237.65625 600.800781 238.613281 610.382812 C 239.714844 621.363281 244.738281 633.53125 253.558594 646.550781 C 253.824219 646.945312 253.914062 647.429688 253.808594 647.894531 C 253.699219 648.359375 253.40625 648.753906 252.988281 648.992188 C 252.578125 649.222656 252.023438 649.488281 251.3125 649.820312 C 245.632812 652.496094 230.546875 659.59375 226.207031 681.878906 C 225.914062 683.390625 225.179688 695.066406 230.445312 702.207031 C 232.777344 705.371094 236.007812 707.195312 240.039062 707.636719 C 242.242188 707.878906 244.003906 709.285156 245.875 710.777344 C 249.601562 713.753906 254.242188 717.464844 265.066406 714.332031 C 271.160156 712.570312 274.460938 713.6875 277.953125 714.875 C 281.503906 716.082031 285.527344 717.449219 294.027344 716.511719 C 304.195312 715.390625 317.832031 707.757812 321.773438 705.445312 C 322.25 705.160156 322.835938 705.132812 323.335938 705.359375 C 323.84375 705.589844 324.203125 706.046875 324.308594 706.589844 C 328.835938 729.933594 337.726562 728.558594 348.976562 726.820312 C 349.464844 726.746094 349.957031 726.671875 350.445312 726.597656 C 350.84375 726.539062 351.253906 726.621094 351.597656 726.832031 C 366.789062 736.242188 371.941406 735.554688 385.703125 728.832031 C 386.148438 728.613281 386.660156 728.597656 387.117188 728.792969 C 400.3125 734.371094 412.570312 734.199219 423.558594 728.269531 C 432.542969 723.425781 438.476562 715.878906 441.332031 712.253906 C 441.800781 711.65625 442.207031 711.140625 442.542969 710.742188 C 443 710.199219 443.75 709.996094 444.417969 710.230469 C 445.085938 710.46875 445.542969 711.09375 445.554688 711.804688 C 445.675781 717.644531 448.9375 723.492188 454.0625 727.054688 C 460.199219 731.320312 468.449219 731.972656 477.296875 728.886719 C 479.355469 728.175781 481.710938 729.042969 484.441406 730.046875 C 486.800781 730.914062 489.480469 731.898438 492.046875 731.820312 C 499.527344 731.59375 505.824219 727.6875 509.207031 725.59375 C 509.667969 725.304688 510.066406 725.0625 510.402344 724.863281 C 510.820312 724.617188 511.328125 724.558594 511.789062 724.707031 C 520.386719 727.476562 527.699219 726.8125 533.519531 722.734375 C 540.703125 717.699219 543.511719 708.914062 543.738281 702.921875 C 543.8125 700.96875 545.582031 698.101562 548.527344 693.351562 C 559.605469 675.449219 585.554688 633.523438 557.480469 573.660156 C 549.640625 556.945312 539.113281 546.421875 526.917969 534.238281 C 512.453125 519.777344 496.054688 503.386719 481.007812 472.613281 C 480.59375 471.765625 480.945312 470.746094 481.792969 470.332031 C 482.640625 469.914062 483.660156 470.269531 484.078125 471.117188 C 498.867188 501.375 515.054688 517.550781 529.332031 531.824219 C 541.234375 543.722656 552.476562 554.960938 560.570312 572.214844 C 589.425781 633.753906 562.792969 676.78125 551.421875 695.15625 C 549.242188 698.679688 547.179688 702.007812 547.144531 703.058594 C 546.890625 709.832031 543.683594 719.789062 535.472656 725.542969 C 527.390625 731.210938 518.101562 730.195312 511.488281 728.199219 C 511.335938 728.292969 511.171875 728.394531 511.003906 728.5 C 507.609375 730.601562 500.539062 734.992188 492.144531 735.242188 C 488.929688 735.339844 485.910156 734.230469 483.261719 733.257812 C 481.324219 732.542969 479.320312 731.808594 478.417969 732.117188 C 468.515625 735.570312 459.175781 734.765625 452.117188 729.859375 C 447.324219 726.53125 443.925781 721.472656 442.671875 716.054688 C 439.332031 720.199219 433.53125 726.769531 425.179688 731.277344 C 413.4375 737.609375 400.433594 737.933594 386.511719 732.238281 C 379.988281 735.398438 375.097656 737.324219 369.925781 737.328125 Z M 369.933594 737.316406 " fill-opacity="1" fill-rule="nonzero"/></g><path fill="#000000" d="M 370.371094 528.503906 C 370.148438 528.503906 369.917969 528.457031 369.699219 528.367188 C 369.316406 528.203125 360.269531 524.261719 351.871094 514.53125 C 346.902344 508.777344 343.210938 502.207031 340.898438 494.988281 C 336.238281 492.960938 312.3125 481.636719 302.441406 459.152344 C 301.40625 458.867188 299.484375 458.300781 296.929688 457.339844 C 285.96875 453.21875 265.546875 442.832031 251.890625 419.5625 C 251.414062 418.746094 251.6875 417.699219 252.496094 417.222656 C 253.308594 416.746094 254.355469 417.019531 254.832031 417.828125 C 267.960938 440.191406 287.589844 450.179688 298.128906 454.140625 C 301.753906 455.5 304.039062 456.035156 304.0625 456.039062 C 304.597656 456.164062 305.039062 456.539062 305.253906 457.042969 C 315.171875 480.679688 342.652344 492.023438 342.929688 492.136719 C 343.40625 492.324219 343.773438 492.722656 343.921875 493.21875 C 346.082031 500.28125 349.625 506.699219 354.457031 512.296875 C 360.570312 519.371094 367.160156 523.238281 369.824219 524.625 C 376.371094 515.589844 383.628906 508.308594 391.96875 502.402344 C 392.21875 502.226562 392.503906 502.121094 392.808594 502.09375 C 419.660156 499.761719 441.820312 485.261719 442.039062 485.113281 C 442.207031 485.003906 442.394531 484.921875 442.589844 484.875 C 460.710938 480.621094 477.265625 473.761719 491.789062 464.472656 C 503.40625 457.046875 513.757812 448.0625 522.570312 437.765625 C 537.589844 420.210938 542.96875 404.722656 543.019531 404.570312 C 543.289062 403.777344 544.089844 403.300781 544.914062 403.4375 C 545.742188 403.574219 546.34375 404.285156 546.34375 405.121094 C 546.316406 415.746094 545.394531 423.976562 544.730469 428.539062 C 560.34375 417.71875 572.453125 404.8125 580.765625 390.140625 C 587.867188 377.605469 592.234375 363.742188 593.738281 348.941406 C 596.316406 323.648438 589.5625 304.117188 589.492188 303.925781 C 589.21875 303.152344 589.535156 302.292969 590.246094 301.878906 C 590.953125 301.46875 591.855469 301.617188 592.394531 302.242188 C 600.835938 312.027344 607.066406 324.925781 610.175781 332.144531 C 613.695312 311.328125 613.300781 291.996094 608.984375 274.59375 C 605.597656 260.929688 599.914062 248.753906 592.09375 238.414062 C 591.527344 237.664062 591.675781 236.589844 592.425781 236.023438 C 593.179688 235.453125 594.25 235.601562 594.816406 236.355469 C 602.914062 247.070312 608.792969 259.65625 612.296875 273.773438 C 617.125 293.253906 617.179688 315.042969 612.457031 338.546875 C 612.308594 339.296875 611.675781 339.855469 610.914062 339.914062 C 610.152344 339.96875 609.445312 339.511719 609.179688 338.796875 C 609.117188 338.621094 603.703125 323.988281 594.992188 311.265625 C 596.796875 319.503906 598.753906 333.085938 597.136719 349.144531 C 595.597656 364.445312 591.097656 378.773438 583.769531 391.75 C 574.613281 407.945312 561.007812 422.027344 543.316406 433.605469 C 542.742188 433.984375 541.992188 433.976562 541.425781 433.589844 C 540.855469 433.203125 540.574219 432.507812 540.710938 431.832031 C 540.726562 431.746094 542.125 424.8125 542.691406 413.828125 C 539.523438 420.179688 534.011719 429.613281 525.269531 439.859375 C 516.242188 450.433594 505.625 459.664062 493.71875 467.292969 C 478.921875 476.765625 462.085938 483.777344 443.660156 488.128906 C 440.964844 489.871094 419.824219 503.035156 393.566406 505.453125 C 385.347656 511.34375 378.210938 518.652344 371.765625 527.777344 C 371.4375 528.242188 370.910156 528.5 370.371094 528.5 Z M 223.3125 369.839844 C 222.394531 369.839844 221.636719 369.113281 221.605469 368.191406 C 221.125 354.050781 223.5625 338.796875 228.855469 322.75 L 214.527344 336.867188 C 214.105469 337.289062 213.492188 337.453125 212.914062 337.308594 C 212.335938 337.164062 211.878906 336.722656 211.703125 336.15625 C 211.585938 335.777344 208.875 326.742188 209.746094 313.371094 C 210.550781 301.0625 214.699219 282.621094 229.90625 264.695312 C 233.890625 259.988281 234.300781 252.148438 234.820312 242.222656 C 234.894531 240.75 234.976562 239.238281 235.070312 237.6875 C 235.125 236.746094 235.9375 236.03125 236.875 236.085938 C 237.816406 236.144531 238.53125 236.949219 238.476562 237.890625 C 238.386719 239.429688 238.304688 240.933594 238.230469 242.394531 C 237.679688 252.96875 237.242188 261.316406 232.511719 266.902344 C 217.953125 284.070312 213.957031 301.6875 213.167969 313.445312 C 212.59375 321.957031 213.574219 328.714844 214.296875 332.3125 L 231.734375 315.121094 C 232.308594 314.558594 233.191406 314.472656 233.863281 314.90625 C 234.539062 315.34375 234.816406 316.191406 234.535156 316.941406 C 227.691406 335.140625 224.488281 352.347656 225.019531 368.082031 C 225.054688 369.023438 224.316406 369.8125 223.375 369.84375 C 223.351562 369.84375 223.335938 369.84375 223.316406 369.84375 Z M 268.925781 170.363281 C 268.460938 170.363281 268 170.179688 267.664062 169.808594 C 267.03125 169.109375 267.078125 168.03125 267.777344 167.398438 C 269.914062 165.445312 272.191406 163.503906 274.570312 161.597656 C 271.765625 159.917969 264.851562 156.921875 250.949219 156.632812 C 250.367188 156.617188 249.832031 156.3125 249.523438 155.8125 C 249.222656 155.316406 249.191406 154.695312 249.449219 154.171875 C 256.03125 140.726562 274.097656 127.847656 291.480469 124.214844 C 302.46875 121.917969 312.019531 123.472656 319.257812 128.707031 C 321.714844 124.007812 328.898438 111.5 341.421875 99.414062 C 350.546875 90.613281 360.605469 83.902344 371.320312 79.46875 C 384.738281 73.921875 399.207031 71.953125 414.328125 73.617188 C 415.015625 73.691406 415.59375 74.179688 415.785156 74.847656 C 415.976562 75.515625 415.738281 76.234375 415.1875 76.664062 C 415.0625 76.757812 403.792969 85.714844 399.449219 101.96875 C 404.417969 98.199219 414.066406 92.105469 428.3125 88.449219 C 440.777344 85.25 454.183594 84.597656 468.160156 86.515625 C 485.5625 88.902344 503.902344 95.300781 522.667969 105.535156 C 523.214844 105.828125 523.554688 106.398438 523.558594 107.015625 C 523.5625 107.632812 523.234375 108.207031 522.695312 108.515625 L 503.21875 119.585938 C 507.996094 120.265625 515.4375 121.835938 523.769531 125.417969 C 536.75 131.003906 554.367188 142.765625 564.558594 167.054688 C 564.921875 167.921875 564.511719 168.925781 563.644531 169.289062 C 562.773438 169.65625 561.777344 169.242188 561.414062 168.375 C 553.601562 149.765625 540.523438 136.382812 522.546875 128.613281 C 509.082031 122.792969 497.761719 122.476562 497.644531 122.476562 C 496.875 122.460938 496.210938 121.933594 496.023438 121.1875 C 495.839844 120.445312 496.171875 119.664062 496.835938 119.289062 L 518.316406 107.078125 C 500.917969 97.917969 483.953125 92.148438 467.84375 89.917969 C 454.332031 88.046875 441.382812 88.648438 429.363281 91.703125 C 408.894531 96.910156 398.042969 107.59375 397.933594 107.699219 C 397.410156 108.222656 396.605469 108.351562 395.945312 108.011719 C 395.285156 107.675781 394.921875 106.949219 395.039062 106.21875 C 397.503906 91.160156 405.648438 81.164062 410.113281 76.671875 C 396.984375 75.773438 384.40625 77.761719 372.683594 82.601562 C 362.375 86.855469 352.679688 93.3125 343.871094 101.792969 C 328.800781 116.304688 321.464844 131.90625 321.394531 132.058594 C 321.171875 132.539062 320.734375 132.894531 320.210938 133.007812 C 319.691406 133.125 319.148438 132.988281 318.742188 132.644531 C 310.433594 125.589844 299.710938 125.988281 292.175781 127.5625 C 277.027344 130.730469 260.789062 141.761719 253.808594 153.320312 C 272.617188 154.238281 278.382812 160.117188 278.628906 160.378906 C 278.960938 160.730469 279.128906 161.203125 279.089844 161.683594 C 279.054688 162.164062 278.816406 162.605469 278.433594 162.898438 C 275.488281 165.191406 272.675781 167.554688 270.078125 169.925781 C 269.75 170.222656 269.335938 170.367188 268.925781 170.367188 Z M 268.925781 170.363281 " fill-opacity="1" fill-rule="nonzero"/><path fill="#000000" d="M 268.871094 272.195312 C 268.652344 272.195312 268.429688 272.152344 268.21875 272.0625 C 251.773438 265.191406 240.347656 253.53125 235.171875 238.339844 C 233.230469 232.644531 232.125 226.363281 231.894531 219.664062 C 231.488281 208.078125 235.007812 196.367188 241.796875 186.679688 C 248.523438 177.089844 257.992188 170.109375 268.460938 167.019531 C 278.765625 163.976562 299.195312 162.183594 320.183594 184.320312 C 320.828125 185.003906 320.800781 186.082031 320.121094 186.730469 C 319.433594 187.378906 318.355469 187.347656 317.707031 186.667969 C 297.96875 165.847656 278.988281 167.472656 269.429688 170.292969 C 259.695312 173.164062 250.871094 179.679688 244.589844 188.640625 C 238.222656 197.71875 234.921875 208.695312 235.300781 219.542969 C 235.523438 225.90625 236.566406 231.855469 238.402344 237.234375 C 243.320312 251.679688 253.789062 262.335938 269.527344 268.90625 C 270.398438 269.273438 270.808594 270.269531 270.445312 271.140625 C 270.171875 271.796875 269.535156 272.191406 268.867188 272.191406 Z M 268.871094 272.195312 " fill-opacity="1" fill-rule="nonzero"/><path fill="#000000" d="M 271.914062 250.636719 C 271.632812 250.636719 271.351562 250.566406 271.089844 250.421875 C 262.3125 245.539062 251.726562 236.6875 251.179688 222.265625 C 250.800781 212.292969 255.78125 203.421875 264.175781 199.109375 C 273.335938 194.40625 284.234375 196.097656 294.074219 203.742188 C 294.816406 204.320312 294.953125 205.394531 294.371094 206.140625 C 293.789062 206.882812 292.71875 207.019531 291.976562 206.4375 C 283.230469 199.636719 273.664062 198.074219 265.730469 202.144531 C 258.53125 205.839844 254.257812 213.5 254.585938 222.132812 C 254.855469 229.214844 258.226562 239.355469 272.746094 247.429688 C 273.566406 247.886719 273.867188 248.929688 273.410156 249.75 C 273.097656 250.3125 272.515625 250.628906 271.914062 250.628906 Z M 271.914062 250.636719 " fill-opacity="1" fill-rule="nonzero"/><path fill="#000000" d="M 369.335938 457.613281 C 356.636719 457.613281 343.429688 453.105469 330.902344 439.234375 C 330.082031 438.324219 326.492188 436.976562 322.695312 435.546875 C 306.785156 429.574219 273.679688 417.140625 256.804688 375.980469 C 247.324219 352.859375 253.308594 333.457031 258.589844 316.339844 C 260.160156 311.238281 261.648438 306.417969 262.738281 301.589844 C 264.722656 292.808594 265.800781 282.828125 266.84375 273.171875 C 267.980469 262.632812 269.054688 252.683594 271.214844 244.296875 C 275.8125 226.398438 283.902344 211.566406 295.25 200.214844 C 304.699219 190.765625 316.480469 183.636719 330.273438 179.035156 C 331.167969 178.734375 332.132812 179.214844 332.429688 180.113281 C 332.730469 181.003906 332.246094 181.972656 331.351562 182.273438 C 301.828125 192.132812 282.710938 213.285156 274.519531 245.148438 C 272.425781 253.296875 271.363281 263.128906 270.238281 273.535156 C 269.183594 283.289062 268.097656 293.367188 266.066406 302.339844 C 264.945312 307.292969 263.441406 312.175781 261.851562 317.34375 C 256.492188 334.722656 250.953125 352.695312 259.964844 374.6875 C 276.273438 414.464844 308.4375 426.546875 323.898438 432.351562 C 328.988281 434.261719 332.0625 435.414062 333.4375 436.945312 C 343.90625 448.535156 355.6875 454.183594 369.402344 454.183594 C 369.890625 454.183594 370.378906 454.175781 370.875 454.164062 C 383.371094 453.804688 395.324219 449.007812 405.863281 444.78125 C 411.796875 442.402344 417.398438 440.15625 422.15625 439.15625 C 456.761719 431.863281 473.425781 425.410156 498.019531 403.707031 C 514.109375 389.515625 515.511719 364.777344 515.554688 357.53125 C 515.554688 357.355469 515.554688 357.246094 515.558594 357.191406 C 515.585938 356.527344 515.996094 355.9375 516.609375 355.683594 C 517.226562 355.429688 517.929688 355.550781 518.421875 356.003906 C 525.671875 362.65625 526.875 363.792969 531.222656 369.296875 C 529.382812 342.457031 522.53125 329.152344 515.308594 315.113281 C 510.101562 305.003906 504.722656 294.550781 501.496094 278.761719 C 501.289062 277.75 501.085938 276.207031 500.832031 274.253906 C 499.644531 265.199219 497.171875 246.355469 487.578125 227.757812 C 475.777344 204.863281 457.019531 189.691406 431.839844 182.660156 C 430.933594 182.410156 430.402344 181.464844 430.65625 180.558594 C 430.90625 179.648438 431.851562 179.117188 432.757812 179.375 C 458.894531 186.671875 478.359375 202.421875 490.613281 226.195312 C 500.476562 245.328125 503 264.570312 504.214844 273.816406 C 504.460938 275.703125 504.65625 277.195312 504.839844 278.085938 C 507.972656 293.414062 513.246094 303.65625 518.34375 313.558594 C 525.871094 328.175781 533.652344 343.292969 534.929688 374.554688 C 534.957031 375.292969 534.511719 375.96875 533.8125 376.226562 C 533.121094 376.484375 532.335938 376.257812 531.878906 375.675781 L 531.246094 374.863281 C 525.304688 367.261719 524.566406 366.320312 518.863281 361.054688 C 518.332031 371.261719 515.367188 392.964844 500.277344 406.277344 C 474.753906 428.800781 456.550781 435.40625 422.859375 442.507812 C 418.390625 443.449219 412.925781 445.640625 407.136719 447.960938 C 396.140625 452.371094 383.039062 457.621094 369.335938 457.621094 Z M 369.335938 457.613281 " fill-opacity="1" fill-rule="nonzero"/><path fill="#000000" d="M 205.234375 382.980469 C 200.839844 382.980469 196.632812 379.667969 195.207031 374.707031 C 194.398438 371.914062 194.582031 369.003906 195.722656 366.515625 C 196.902344 363.9375 198.957031 362.113281 201.503906 361.378906 C 206.667969 359.894531 212.238281 363.457031 213.925781 369.316406 C 214.734375 372.113281 214.550781 375.023438 213.410156 377.507812 C 212.230469 380.085938 210.175781 381.910156 207.628906 382.644531 C 206.835938 382.871094 206.035156 382.980469 205.238281 382.980469 Z M 202.449219 364.660156 C 200.871094 365.113281 199.585938 366.273438 198.828125 367.933594 C 198.027344 369.683594 197.90625 371.75 198.488281 373.761719 C 199.65625 377.8125 203.332031 380.324219 206.683594 379.359375 C 208.261719 378.910156 209.546875 377.746094 210.304688 376.085938 C 211.105469 374.335938 211.226562 372.269531 210.644531 370.261719 C 209.476562 366.207031 205.800781 363.695312 202.449219 364.660156 Z M 202.449219 364.660156 " fill-opacity="1" fill-rule="nonzero"/><path fill="#000000" d="M 179.222656 393.8125 C 175.632812 393.8125 171.96875 391.636719 169.964844 387.917969 C 168.640625 385.464844 168.21875 382.703125 168.78125 380.136719 C 169.363281 377.476562 170.917969 375.347656 173.160156 374.132812 C 177.699219 371.683594 183.65625 373.875 186.4375 379.023438 C 187.761719 381.476562 188.179688 384.238281 187.617188 386.804688 C 187.039062 389.464844 185.480469 391.59375 183.242188 392.808594 C 181.980469 393.488281 180.605469 393.8125 179.226562 393.8125 Z M 177.199219 376.542969 C 176.359375 376.542969 175.535156 376.738281 174.777344 377.144531 C 173.425781 377.875 172.480469 379.199219 172.113281 380.871094 C 171.726562 382.640625 172.03125 384.566406 172.964844 386.296875 C 174.847656 389.789062 178.730469 391.363281 181.617188 389.804688 C 182.96875 389.074219 183.917969 387.75 184.28125 386.078125 C 184.667969 384.308594 184.363281 382.382812 183.429688 380.652344 C 182.039062 378.074219 179.5625 376.542969 177.199219 376.542969 Z M 173.96875 375.640625 Z M 173.96875 375.640625 " fill-opacity="1" fill-rule="nonzero"/><path fill="#000000" d="M 168.050781 422.792969 C 164.929688 422.792969 161.597656 421.128906 159.316406 418.101562 C 157.65625 415.894531 156.78125 413.28125 156.855469 410.742188 C 156.9375 408.0625 158.046875 405.78125 159.996094 404.320312 C 163.882812 401.394531 169.910156 402.816406 173.429688 407.488281 C 175.09375 409.695312 175.964844 412.3125 175.890625 414.847656 C 175.8125 417.53125 174.699219 419.808594 172.753906 421.269531 C 171.382812 422.300781 169.746094 422.792969 168.050781 422.792969 Z M 162.042969 407.046875 C 160.949219 407.875 160.316406 409.222656 160.269531 410.84375 C 160.214844 412.605469 160.84375 414.457031 162.042969 416.046875 C 164.429688 419.21875 168.316406 420.335938 170.699219 418.542969 C 171.792969 417.71875 172.425781 416.367188 172.472656 414.75 C 172.527344 412.984375 171.898438 411.132812 170.699219 409.542969 C 168.3125 406.371094 164.429688 405.253906 162.042969 407.046875 Z M 162.042969 407.046875 " fill-opacity="1" fill-rule="nonzero"/><path fill="#000000" d="M 369.488281 659.035156 C 369.21875 659.035156 368.945312 658.972656 368.691406 658.835938 C 354.902344 651.535156 344.246094 639.390625 337.867188 623.707031 C 332.105469 609.539062 330.347656 593.640625 332.914062 578.945312 C 336.925781 556.003906 350.515625 540.722656 369.28125 538.058594 C 374.238281 537.359375 380.0625 536.6875 385.636719 537.039062 C 391.832031 537.429688 396.820312 539.015625 400.878906 541.878906 C 401.652344 542.421875 401.835938 543.492188 401.292969 544.257812 C 400.746094 545.03125 399.679688 545.214844 398.914062 544.667969 C 390.898438 539.015625 379.664062 540.035156 369.761719 541.4375 C 352.539062 543.878906 340.019531 558.117188 336.28125 579.53125 C 331.648438 606.042969 341.84375 640.757812 370.289062 655.8125 C 371.121094 656.25 371.4375 657.285156 371 658.121094 C 370.691406 658.695312 370.101562 659.03125 369.488281 659.03125 Z M 369.488281 659.035156 " fill-opacity="1" fill-rule="nonzero"/><path fill="#000000" d="M 602.300781 514.289062 C 601.378906 514.289062 600.621094 513.546875 600.59375 512.621094 C 600.171875 495.308594 603.226562 488.796875 610.183594 475.71875 C 610.625 474.890625 611.65625 474.570312 612.488281 475.011719 C 613.320312 475.457031 613.640625 476.492188 613.195312 477.320312 C 606.359375 490.175781 603.605469 496.050781 604.007812 512.539062 C 604.03125 513.480469 603.285156 514.265625 602.34375 514.289062 C 602.332031 514.289062 602.3125 514.289062 602.300781 514.289062 Z M 602.300781 514.289062 " fill-opacity="1" fill-rule="nonzero"/><path fill="#000000" d="M 369.378906 437.792969 C 349.476562 437.792969 339.421875 430.085938 332.609375 424.863281 C 330.878906 423.535156 329.378906 422.386719 327.976562 421.550781 C 308.015625 409.628906 294.171875 392.332031 290.949219 375.277344 C 288.996094 364.953125 291.058594 355.511719 296.90625 347.953125 C 306.34375 335.769531 319.800781 334.382812 330.472656 334.53125 C 331.414062 334.542969 332.167969 335.320312 332.152344 336.261719 C 332.140625 337.207031 331.351562 337.957031 330.421875 337.945312 C 319.933594 337.792969 308.066406 339.113281 299.605469 350.042969 C 294.371094 356.800781 292.539062 365.308594 294.300781 374.640625 C 297.34375 390.75 310.585938 407.1875 329.722656 418.617188 C 331.296875 419.554688 332.867188 420.761719 334.683594 422.15625 C 342.015625 427.777344 352.050781 435.472656 373.78125 434.257812 C 386.992188 433.519531 394.453125 427.863281 401.664062 422.390625 C 403.363281 421.105469 405.117188 419.777344 406.890625 418.558594 C 418.324219 410.714844 428.285156 400.078125 434.925781 388.613281 C 441.722656 376.882812 444.320312 365.375 442.238281 356.214844 C 439.5 344.171875 428.789062 336.367188 411.265625 333.648438 C 398.625 331.6875 388.339844 333.886719 378.390625 336.019531 C 377.46875 336.214844 376.558594 335.628906 376.363281 334.707031 C 376.167969 333.785156 376.753906 332.875 377.675781 332.679688 C 387.449219 330.585938 398.527344 328.222656 411.789062 330.277344 C 435.816406 334.003906 443.421875 346.03125 445.5625 355.460938 C 447.835938 365.464844 445.105469 377.847656 437.871094 390.328125 C 430.976562 402.222656 420.660156 413.25 408.8125 421.378906 C 407.101562 422.550781 405.457031 423.800781 403.714844 425.121094 C 396.449219 430.628906 388.214844 436.871094 373.960938 437.671875 C 372.375 437.757812 370.84375 437.804688 369.367188 437.804688 Z M 369.378906 437.792969 " fill-opacity="1" fill-rule="nonzero"/><path fill="#000000" d="M 552.050781 279.925781 C 551.332031 279.925781 550.664062 279.46875 550.425781 278.75 C 550.132812 277.855469 550.621094 276.890625 551.519531 276.597656 L 552.160156 276.386719 C 560.082031 273.816406 584.167969 265.980469 591.796875 236.957031 C 593.117188 231.9375 593.894531 226.453125 594.105469 220.65625 C 594.476562 210.371094 591.484375 199.933594 585.445312 190.476562 C 579.703125 181.480469 571.449219 173.941406 562.203125 169.242188 C 551.472656 163.796875 540.230469 162.398438 529.6875 165.203125 C 517.589844 168.425781 507.203125 176.863281 498.820312 190.289062 C 498.800781 190.316406 498.785156 190.351562 498.777344 190.375 C 498.480469 191.273438 497.515625 191.757812 496.621094 191.464844 C 495.726562 191.167969 495.242188 190.207031 495.535156 189.308594 C 495.625 189.027344 495.753906 188.757812 495.921875 188.488281 C 504.660156 174.496094 516.035156 165.308594 528.816406 161.902344 C 540.179688 158.878906 552.261719 160.363281 563.75 166.195312 C 573.53125 171.160156 582.257812 179.132812 588.324219 188.632812 C 594.734375 198.675781 597.914062 209.792969 597.511719 220.777344 C 597.292969 226.824219 596.476562 232.554688 595.09375 237.820312 C 586.992188 268.644531 561.566406 276.910156 553.207031 279.632812 L 552.574219 279.839844 C 552.398438 279.898438 552.214844 279.925781 552.042969 279.925781 Z M 548.671875 273.882812 C 547.980469 273.882812 547.335938 273.460938 547.074219 272.78125 C 545.617188 268.945312 543.960938 264.960938 542.144531 260.945312 C 541.753906 260.085938 542.132812 259.070312 542.992188 258.6875 C 543.851562 258.296875 544.867188 258.679688 545.25 259.539062 C 547.09375 263.617188 548.785156 267.667969 550.261719 271.570312 C 550.597656 272.449219 550.152344 273.4375 549.269531 273.769531 C 549.070312 273.84375 548.867188 273.882812 548.664062 273.882812 Z M 548.671875 273.882812 " fill-opacity="1" fill-rule="nonzero"/><path fill="#000000" d="M 543.457031 257.269531 C 542.894531 257.269531 542.351562 256.988281 542.027344 256.492188 C 539.398438 252.46875 537.226562 247.582031 534.707031 241.925781 C 530.609375 232.726562 525.507812 221.28125 516.265625 209.257812 C 515.796875 208.648438 515.792969 207.792969 516.265625 207.179688 C 527.832031 192.054688 541.878906 186.050781 554.789062 190.710938 C 566.78125 195.042969 575.09375 208.042969 574.550781 221.632812 C 574.128906 232.289062 569.28125 241.335938 560.144531 248.515625 C 553.882812 253.433594 547.347656 256.054688 544.007812 257.179688 C 543.828125 257.242188 543.640625 257.269531 543.460938 257.269531 Z M 519.777344 208.234375 C 528.757812 220.1875 533.777344 231.441406 537.828125 240.539062 C 540.050781 245.53125 541.996094 249.90625 544.179688 253.503906 C 568.335938 244.789062 570.925781 226.859375 571.140625 221.496094 C 571.625 209.355469 564.257812 197.761719 553.632812 193.925781 C 542.496094 189.90625 530.214844 195.117188 519.777344 208.234375 Z M 519.777344 208.234375 " fill-opacity="1" fill-rule="nonzero"/><path fill="#000000" d="M 363.332031 671.5625 C 363 671.5625 362.660156 671.464844 362.367188 671.261719 C 343.675781 658.378906 328.152344 639.851562 316.226562 616.195312 C 306.457031 596.820312 301.492188 578.945312 298.527344 568.265625 L 298 566.378906 C 297.746094 565.46875 298.277344 564.527344 299.183594 564.273438 C 300.089844 564.019531 301.03125 564.550781 301.285156 565.457031 L 301.8125 567.347656 C 304.746094 577.90625 309.652344 595.582031 319.273438 614.65625 C 330.941406 637.796875 346.089844 655.894531 364.300781 668.445312 C 365.074219 668.980469 365.269531 670.042969 364.734375 670.820312 C 364.402344 671.300781 363.871094 671.558594 363.328125 671.558594 Z M 363.332031 671.5625 " fill-opacity="1" fill-rule="nonzero"/><path fill="#000000" d="M 353.144531 730.484375 C 352.632812 730.484375 352.128906 730.253906 351.789062 729.816406 C 346.042969 722.347656 344.792969 713.214844 348.171875 703.410156 C 350.96875 695.289062 356.101562 689.074219 358.421875 686.925781 C 359.117188 686.285156 360.195312 686.324219 360.835938 687.015625 C 361.472656 687.707031 361.433594 688.789062 360.742188 689.425781 C 356.605469 693.257812 342.484375 712.125 354.496094 727.734375 C 355.074219 728.480469 354.933594 729.550781 354.1875 730.128906 C 353.875 730.371094 353.507812 730.484375 353.148438 730.484375 Z M 353.144531 730.484375 " fill-opacity="1" fill-rule="nonzero"/><path fill="#000000" d="M 388.324219 731.890625 C 387.792969 731.890625 387.273438 731.640625 386.933594 731.175781 C 386.828125 731.023438 386.632812 730.789062 386.410156 730.519531 C 384.269531 727.949219 378.59375 721.125 381.578125 706.765625 C 383.335938 698.289062 388.082031 693.953125 390.75 692.121094 L 390.824219 692.070312 C 391.550781 691.515625 392.59375 691.632812 393.175781 692.339844 C 393.773438 693.066406 393.671875 694.144531 392.945312 694.746094 C 392.902344 694.777344 392.816406 694.84375 392.679688 694.941406 C 390.429688 696.480469 386.433594 700.160156 384.917969 707.460938 C 382.269531 720.207031 387.007812 725.90625 389.03125 728.339844 C 389.296875 728.660156 389.527344 728.9375 389.710938 729.191406 C 390.257812 729.960938 390.085938 731.027344 389.316406 731.574219 C 389.019531 731.789062 388.671875 731.894531 388.324219 731.894531 Z M 390.8125 692.085938 C 390.8125 692.085938 390.785156 692.105469 390.777344 692.113281 C 390.789062 692.105469 390.800781 692.09375 390.8125 692.085938 Z M 390.8125 692.085938 " fill-opacity="1" fill-rule="nonzero"/><path fill="#000000" d="M 385.285156 674.992188 C 385.121094 674.992188 384.957031 674.96875 384.792969 674.921875 C 375.65625 672.175781 372.492188 672.605469 363.113281 673.867188 L 361.917969 674.027344 C 360.988281 674.152344 360.125 673.496094 360 672.5625 C 359.875 671.628906 360.53125 670.769531 361.464844 670.644531 L 362.65625 670.484375 C 372.3125 669.183594 375.929688 668.699219 385.773438 671.648438 C 386.675781 671.921875 387.1875 672.875 386.917969 673.777344 C 386.699219 674.515625 386.019531 674.992188 385.285156 674.992188 Z M 385.285156 674.992188 " fill-opacity="1" fill-rule="nonzero"/><path fill="#000000" d="M 299.777344 652.570312 C 299.546875 652.570312 299.3125 652.523438 299.089844 652.425781 C 274.460938 641.582031 260.980469 646.304688 252.058594 649.429688 L 251.171875 649.742188 C 250.28125 650.054688 249.308594 649.582031 249 648.691406 C 248.691406 647.800781 249.164062 646.828125 250.050781 646.519531 L 250.929688 646.214844 C 259.785156 643.113281 274.601562 637.917969 300.464844 649.300781 C 301.328125 649.679688 301.71875 650.6875 301.339844 651.550781 C 301.058594 652.191406 300.429688 652.574219 299.777344 652.574219 Z M 299.777344 652.570312 " fill-opacity="1" fill-rule="nonzero"/><path fill="#000000" d="M 244.085938 712.84375 C 243.582031 712.84375 243.078125 712.617188 242.742188 712.1875 C 237.550781 705.53125 235.796875 696.972656 237.800781 688.070312 C 240.015625 678.230469 246.441406 669.585938 254.5625 665.515625 C 255.40625 665.089844 256.429688 665.429688 256.855469 666.273438 C 257.277344 667.117188 256.9375 668.140625 256.09375 668.566406 C 248.972656 672.136719 243.097656 680.085938 241.132812 688.820312 C 239.355469 696.699219 240.882812 704.253906 245.4375 710.085938 C 246.015625 710.828125 245.882812 711.898438 245.140625 712.480469 C 244.832031 712.726562 244.460938 712.84375 244.089844 712.84375 Z M 244.085938 712.84375 " fill-opacity="1" fill-rule="nonzero"/><path fill="#000000" d="M 272.605469 716.332031 C 272.1875 716.332031 271.773438 716.183594 271.445312 715.882812 C 266.105469 710.941406 263.554688 703.949219 264.460938 696.699219 C 265.644531 687.191406 272.453125 678.398438 283.140625 672.574219 C 283.96875 672.125 285.003906 672.429688 285.457031 673.257812 C 285.910156 674.082031 285.601562 675.121094 284.773438 675.574219 C 275.0625 680.863281 268.894531 688.71875 267.847656 697.125 C 267.070312 703.359375 269.171875 709.132812 273.765625 713.378906 C 274.460938 714.015625 274.5 715.097656 273.863281 715.789062 C 273.523438 716.15625 273.070312 716.339844 272.609375 716.339844 Z M 272.605469 716.332031 " fill-opacity="1" fill-rule="nonzero"/><path fill="#000000" d="M 442.726562 713.925781 C 442.464844 713.925781 442.203125 713.867188 441.957031 713.738281 C 441.117188 713.3125 440.78125 712.285156 441.207031 711.441406 C 444.507812 704.9375 454.554688 685.144531 469.414062 623.613281 C 477.378906 590.613281 477.210938 578.910156 477.019531 565.363281 C 476.941406 559.746094 476.859375 553.941406 477.332031 546.214844 C 477.390625 545.269531 478.199219 544.554688 479.140625 544.613281 C 480.085938 544.671875 480.796875 545.484375 480.738281 546.425781 C 480.273438 554.023438 480.355469 559.765625 480.433594 565.316406 C 480.628906 579.097656 480.796875 590.996094 472.730469 624.414062 C 457.777344 686.335938 447.597656 706.398438 444.25 712.992188 C 443.949219 713.585938 443.351562 713.925781 442.726562 713.925781 Z M 442.726562 713.925781 " fill-opacity="1" fill-rule="nonzero"/><path fill="#000000" d="M 472.820312 617.15625 C 472.679688 617.15625 472.535156 617.140625 472.390625 617.101562 C 471.476562 616.867188 470.929688 615.9375 471.164062 615.023438 C 478.460938 586.890625 501.789062 574.878906 521.183594 573.023438 C 531.28125 572.058594 541.109375 573.554688 549.597656 577.355469 C 558.578125 581.375 565.328125 587.699219 569.117188 595.652344 C 569.523438 596.503906 569.160156 597.519531 568.308594 597.925781 C 567.460938 598.332031 566.441406 597.972656 566.035156 597.121094 C 559.230469 582.84375 541.335938 574.523438 521.511719 576.425781 C 510.820312 577.449219 500.894531 581.292969 492.804688 587.550781 C 483.816406 594.5 477.476562 604.296875 474.472656 615.886719 C 474.273438 616.652344 473.582031 617.164062 472.820312 617.164062 Z M 472.820312 617.15625 " fill-opacity="1" fill-rule="nonzero"/><path fill="#000000" d="M 544.707031 705.722656 C 543.78125 705.722656 543.023438 704.980469 543.003906 704.050781 C 542.777344 692.695312 539.246094 683.441406 532.507812 676.535156 C 526.597656 670.484375 518.34375 666.480469 508.648438 664.964844 C 497.625 663.242188 485.441406 664.921875 475.222656 669.570312 C 464.5 674.453125 456.890625 682.113281 453.800781 691.140625 C 453.492188 692.035156 452.527344 692.507812 451.632812 692.203125 C 450.742188 691.898438 450.269531 690.929688 450.570312 690.039062 C 453.96875 680.109375 462.222656 671.742188 473.808594 666.464844 C 484.617188 661.546875 497.507812 659.773438 509.171875 661.59375 C 532.03125 665.167969 545.949219 681.015625 546.40625 703.984375 C 546.421875 704.925781 545.675781 705.707031 544.734375 705.722656 C 544.71875 705.722656 544.707031 705.722656 544.699219 705.722656 Z M 544.707031 705.722656 " fill-opacity="1" fill-rule="nonzero"/><path fill="#000000" d="M 477.644531 731.484375 C 477.125 731.484375 476.613281 731.25 476.277344 730.800781 C 471.347656 724.257812 464.710938 705.867188 475.648438 690.769531 C 476.199219 690.003906 477.269531 689.835938 478.03125 690.386719 C 478.792969 690.9375 478.964844 692.003906 478.410156 692.769531 C 473.101562 700.097656 472.75 708.050781 473.390625 713.4375 C 474.203125 720.316406 476.925781 725.984375 479.003906 728.746094 C 479.574219 729.5 479.421875 730.570312 478.667969 731.136719 C 478.363281 731.371094 478 731.484375 477.644531 731.484375 Z M 477.644531 731.484375 " fill-opacity="1" fill-rule="nonzero"/><path fill="#000000" d="M 511.410156 726.878906 C 511.199219 726.878906 510.988281 726.839844 510.78125 726.757812 C 509.902344 726.410156 509.476562 725.414062 509.828125 724.542969 C 516.351562 708.199219 516.460938 706.894531 512.621094 689.613281 C 512.417969 688.691406 512.996094 687.785156 513.917969 687.574219 C 514.835938 687.371094 515.746094 687.949219 515.953125 688.871094 C 519.972656 706.964844 519.835938 708.691406 513 725.808594 C 512.734375 726.476562 512.089844 726.882812 511.414062 726.882812 Z M 511.410156 726.878906 " fill-opacity="1" fill-rule="nonzero"/><path fill="#000000" d="M 197.03125 389.097656 C 196.445312 389.097656 195.875 388.792969 195.558594 388.25 C 193.589844 384.886719 189.515625 378.152344 181.257812 365.167969 C 180.75 364.371094 180.988281 363.316406 181.78125 362.808594 C 182.578125 362.300781 183.628906 362.539062 184.136719 363.332031 C 192.425781 376.363281 196.523438 383.132812 198.503906 386.523438 C 198.980469 387.335938 198.707031 388.382812 197.894531 388.859375 C 197.625 389.015625 197.328125 389.09375 197.035156 389.09375 Z M 197.03125 389.097656 " fill-opacity="1" fill-rule="nonzero"/><path fill="#000000" d="M 181.71875 407.386719 C 181.34375 407.386719 180.964844 407.269531 180.65625 407.015625 C 173.195312 401.058594 168.445312 397.582031 160.015625 392.726562 C 159.199219 392.253906 158.914062 391.210938 159.390625 390.390625 C 159.859375 389.574219 160.902344 389.296875 161.722656 389.765625 C 170.339844 394.730469 175.1875 398.277344 182.789062 404.34375 C 183.523438 404.933594 183.644531 406.003906 183.058594 406.746094 C 182.722656 407.167969 182.222656 407.386719 181.722656 407.386719 Z M 181.71875 407.386719 " fill-opacity="1" fill-rule="nonzero"/><path fill="#000000" d="M 569.082031 299.046875 C 568.671875 299.046875 568.261719 298.902344 567.933594 298.605469 C 550.226562 282.46875 547.222656 274.46875 541.242188 258.539062 C 539.453125 253.773438 537.425781 248.371094 534.632812 241.796875 C 523.582031 215.765625 516.449219 209.425781 504.625 198.921875 C 498.589844 193.5625 491.082031 186.890625 481.269531 175.984375 C 480.640625 175.285156 480.699219 174.207031 481.398438 173.574219 C 482.101562 172.941406 483.179688 173 483.8125 173.703125 C 493.492188 184.464844 500.921875 191.066406 506.894531 196.371094 C 519.074219 207.195312 526.429688 213.722656 537.777344 240.460938 C 540.59375 247.097656 542.636719 252.539062 544.4375 257.335938 C 550.226562 272.757812 553.136719 280.5 570.230469 296.074219 C 570.929688 296.710938 570.980469 297.789062 570.34375 298.488281 C 570.007812 298.855469 569.546875 299.042969 569.082031 299.042969 Z M 569.082031 299.046875 " fill-opacity="1" fill-rule="nonzero"/><path fill="#000000" d="M 323.210938 712.21875 C 322.316406 712.21875 321.566406 711.519531 321.511719 710.613281 C 321.253906 706.195312 321.484375 695.019531 329.148438 686.667969 C 342.015625 672.636719 355.214844 671.007812 362.304688 670.128906 C 362.742188 670.078125 363.148438 670.027344 363.523438 669.976562 C 378.507812 631.910156 391.535156 584.15625 401.21875 531.78125 C 401.390625 530.855469 402.28125 530.242188 403.207031 530.414062 C 404.132812 530.582031 404.75 531.476562 404.578125 532.402344 C 394.773438 585.410156 381.550781 633.734375 366.335938 672.152344 C 366.113281 672.714844 365.617188 673.117188 365.019531 673.210938 C 364.339844 673.320312 363.59375 673.410156 362.722656 673.519531 C 356.070312 674.339844 343.683594 675.867188 331.664062 688.976562 C 324.878906 696.363281 324.683594 706.433594 324.917969 710.414062 C 324.972656 711.355469 324.253906 712.160156 323.3125 712.214844 C 323.277344 712.214844 323.246094 712.214844 323.210938 712.214844 Z M 323.210938 712.21875 " fill-opacity="1" fill-rule="nonzero"/><path fill="#000000" d="M 385.835938 221.703125 C 385.40625 221.703125 384.992188 221.542969 384.671875 221.246094 C 383.558594 220.210938 382.527344 219.265625 381.574219 218.394531 C 374.34375 211.78125 371.15625 208.867188 368.214844 198.289062 C 367.554688 200.605469 366.914062 202.527344 366.316406 204.320312 C 365.375 207.152344 364.5625 209.597656 363.921875 212.808594 C 363.824219 213.3125 363.496094 213.75 363.035156 213.988281 C 362.574219 214.230469 362.03125 214.246094 361.554688 214.035156 L 361.128906 213.847656 C 357.59375 212.304688 348.199219 208.203125 339.441406 197.871094 C 328.488281 184.953125 322.507812 167.183594 321.667969 145.046875 C 321.632812 144.105469 322.367188 143.3125 323.308594 143.277344 C 324.242188 143.238281 325.042969 143.972656 325.074219 144.914062 C 326.601562 185.234375 345.132812 202.589844 361.03125 210.054688 C 361.628906 207.578125 362.335938 205.457031 363.074219 203.242188 C 364.144531 200.027344 365.359375 196.386719 366.5625 190.757812 C 366.726562 189.96875 367.425781 189.410156 368.230469 189.410156 C 369.035156 189.410156 369.726562 189.96875 369.898438 190.757812 C 373.210938 206.117188 375.46875 208.1875 383.875 215.875 C 384.351562 216.304688 384.839844 216.753906 385.351562 217.222656 C 388.898438 210.644531 396.003906 200.132812 408.363281 191.613281 C 428.632812 177.644531 447.464844 174.6875 455.503906 173.421875 C 456.386719 173.285156 457.148438 173.164062 457.785156 173.046875 C 458.710938 172.878906 459.597656 173.5 459.765625 174.425781 C 459.929688 175.351562 459.3125 176.238281 458.386719 176.40625 C 457.734375 176.523438 456.945312 176.644531 456.035156 176.792969 C 448.222656 178.019531 429.933594 180.894531 410.300781 194.421875 C 397.214844 203.441406 390.316406 214.785156 387.367188 220.75 C 387.125 221.230469 386.675781 221.574219 386.144531 221.675781 C 386.039062 221.695312 385.933594 221.703125 385.835938 221.703125 Z M 385.835938 221.703125 " fill-opacity="1" fill-rule="nonzero"/><path fill="#000000" d="M 390.972656 507.300781 C 390.570312 507.300781 390.164062 507.160156 389.835938 506.867188 C 389.132812 506.242188 389.074219 505.164062 389.699219 504.457031 C 390.972656 503.027344 391.996094 501.859375 392.871094 500.855469 C 396.71875 496.453125 397.753906 495.269531 404.390625 490.050781 C 405.132812 489.46875 406.207031 489.597656 406.785156 490.335938 C 407.367188 491.082031 407.238281 492.152344 406.5 492.734375 C 400.113281 497.75 399.214844 498.777344 395.4375 503.097656 C 394.558594 504.105469 393.53125 505.28125 392.246094 506.722656 C 391.910156 507.101562 391.441406 507.296875 390.972656 507.296875 Z M 390.972656 507.300781 " fill-opacity="1" fill-rule="nonzero"/><path fill="#000000" d="M 543.925781 410.152344 C 543.765625 410.152344 543.601562 410.128906 543.433594 410.078125 C 542.53125 409.808594 542.019531 408.855469 542.292969 407.953125 C 545.199219 398.289062 545.554688 393.105469 545.96875 387.101562 C 546.082031 385.457031 546.203125 383.753906 546.375 381.875 C 546.464844 380.9375 547.292969 380.25 548.230469 380.332031 C 549.167969 380.417969 549.859375 381.25 549.773438 382.1875 C 549.605469 384.027344 549.488281 385.707031 549.375 387.335938 C 548.945312 393.542969 548.574219 398.902344 545.5625 408.933594 C 545.339844 409.671875 544.664062 410.148438 543.925781 410.148438 Z M 543.925781 410.152344 " fill-opacity="1" fill-rule="nonzero"/><path fill="#000000" d="M 233.195312 318.945312 C 232.949219 318.945312 232.699219 318.894531 232.457031 318.777344 C 231.609375 318.371094 231.25 317.347656 231.65625 316.496094 C 232.558594 314.621094 232.816406 314.128906 235.257812 309.46875 C 236.242188 307.597656 237.578125 305.046875 239.457031 301.460938 C 239.890625 300.625 240.925781 300.300781 241.757812 300.738281 C 242.59375 301.171875 242.917969 302.207031 242.480469 303.042969 C 240.605469 306.632812 239.269531 309.183594 238.285156 311.054688 C 235.867188 315.667969 235.613281 316.148438 234.738281 317.972656 C 234.441406 318.582031 233.832031 318.9375 233.195312 318.9375 Z M 233.195312 318.945312 " fill-opacity="1" fill-rule="nonzero"/><path fill="#000000" d="M 463.449219 240.75 C 463 240.75 462.558594 240.578125 462.222656 240.226562 C 448.867188 226.398438 445.742188 226.910156 432.574219 229.074219 L 431.710938 229.214844 C 430.78125 229.367188 429.90625 228.738281 429.753906 227.804688 C 429.601562 226.875 430.230469 225.996094 431.160156 225.847656 L 432.019531 225.707031 C 445.523438 223.488281 450.074219 222.738281 464.675781 237.859375 C 465.328125 238.535156 465.308594 239.617188 464.632812 240.269531 C 464.300781 240.589844 463.875 240.746094 463.445312 240.746094 Z M 463.449219 240.75 " fill-opacity="1" fill-rule="nonzero"/><path fill="#000000" d="M 353.503906 360.25 C 350.503906 360.25 347.519531 359.714844 344.625 358.640625 C 337.246094 355.890625 331.226562 349.75 329.300781 343.003906 C 327.988281 338.40625 328.417969 334.660156 330.574219 331.878906 C 335.378906 325.671875 347.25 325.976562 356.789062 326.21875 L 358.195312 326.253906 C 371.273438 326.5625 378.761719 329.71875 380.457031 335.652344 C 382.488281 342.765625 375.015625 351.453125 369.0625 355.355469 C 364.105469 358.601562 358.78125 360.253906 353.5 360.253906 Z M 350.957031 329.535156 C 343.808594 329.535156 336.207031 330.175781 333.277344 333.96875 C 331.804688 335.871094 331.574219 338.519531 332.585938 342.066406 C 334.226562 347.808594 339.417969 353.054688 345.820312 355.4375 C 352.757812 358.027344 360.351562 356.980469 367.199219 352.496094 C 372.332031 349.132812 378.652344 341.734375 377.183594 336.585938 C 375.960938 332.324219 369.371094 329.925781 358.121094 329.667969 L 356.703125 329.628906 C 354.898438 329.582031 352.945312 329.535156 350.960938 329.535156 Z M 350.957031 329.535156 " fill-opacity="1" fill-rule="nonzero"/><path fill="#000000" d="M 325.390625 381.347656 C 317.21875 381.347656 309.375 376.65625 305.015625 369.003906 C 299.960938 360.128906 300.738281 349.59375 307.085938 340.820312 C 307.636719 340.058594 308.703125 339.886719 309.464844 340.441406 C 310.230469 340.992188 310.398438 342.058594 309.847656 342.824219 C 304.308594 350.476562 303.605469 359.636719 307.980469 367.3125 C 312.023438 374.410156 319.5 378.550781 327.023438 377.863281 C 344.113281 376.292969 346.707031 365.773438 348.253906 359.488281 C 348.34375 359.140625 348.421875 358.808594 348.503906 358.496094 C 348.738281 357.582031 349.664062 357.027344 350.578125 357.261719 C 351.492188 357.496094 352.042969 358.425781 351.8125 359.335938 C 351.734375 359.644531 351.652344 359.96875 351.570312 360.304688 C 349.917969 367 346.851562 379.46875 327.335938 381.261719 C 326.691406 381.320312 326.039062 381.347656 325.390625 381.347656 Z M 325.390625 381.347656 " fill-opacity="1" fill-rule="nonzero"/><path fill="#000000" d="M 382.601562 383.039062 C 382.601562 383.039062 382.582031 383.039062 382.574219 383.039062 C 378.554688 383.027344 371.632812 381.925781 365.351562 378.867188 C 356.921875 374.761719 351.578125 368.109375 349.898438 359.632812 C 349.714844 358.707031 350.316406 357.808594 351.238281 357.628906 C 352.164062 357.445312 353.0625 358.046875 353.242188 358.972656 C 356.585938 375.859375 375.550781 379.609375 382.578125 379.628906 C 382.585938 379.628906 382.59375 379.628906 382.597656 379.628906 C 387.640625 379.628906 407.9375 375.816406 415.957031 357.046875 C 416.328125 356.179688 417.332031 355.777344 418.199219 356.148438 C 419.066406 356.519531 419.46875 357.523438 419.101562 358.390625 C 415.460938 366.90625 408.890625 373.765625 400.097656 378.222656 C 392.578125 382.035156 385.578125 383.050781 382.597656 383.050781 Z M 382.601562 383.039062 " fill-opacity="1" fill-rule="nonzero"/><path fill="#000000" d="M 423.464844 363.503906 C 423.042969 363.503906 422.621094 363.347656 422.289062 363.03125 C 416.953125 357.9375 415.453125 357.210938 411.824219 355.453125 C 411.335938 355.214844 410.808594 354.957031 410.230469 354.675781 C 409.382812 354.257812 409.039062 353.234375 409.457031 352.386719 C 409.878906 351.539062 410.898438 351.195312 411.746094 351.617188 C 412.3125 351.898438 412.832031 352.148438 413.316406 352.382812 C 417.164062 354.25 418.925781 355.101562 424.644531 360.566406 C 425.324219 361.21875 425.351562 362.296875 424.699219 362.980469 C 424.363281 363.332031 423.914062 363.503906 423.464844 363.503906 Z M 423.464844 363.503906 " fill-opacity="1" fill-rule="nonzero"/><path fill="#000000" d="M 437.214844 332.421875 C 429.976562 332.421875 423.394531 329.773438 418.679688 324.960938 C 413.492188 319.667969 410.84375 312.273438 411.019531 303.589844 C 411.351562 286.894531 421.460938 268.882812 437.214844 268.882812 C 444.457031 268.882812 451.210938 272.644531 456.226562 279.46875 C 460.90625 285.828125 463.585938 294.339844 463.585938 302.816406 C 463.585938 311.296875 460.933594 318.765625 456.125 324.128906 C 451.324219 329.476562 444.609375 332.421875 437.214844 332.421875 Z M 437.214844 272.300781 C 431.171875 272.300781 425.484375 275.683594 421.1875 281.828125 C 417.054688 287.746094 414.589844 295.707031 414.429688 303.660156 C 414.273438 311.40625 416.585938 317.949219 421.117188 322.574219 C 425.183594 326.726562 430.898438 329.011719 437.214844 329.011719 C 450.734375 329.011719 460.175781 318.242188 460.175781 302.816406 C 460.175781 287.394531 450.949219 272.300781 437.214844 272.300781 Z M 437.214844 272.300781 " fill-opacity="1" fill-rule="nonzero"/><path fill="#000000" d="M 306.453125 327.808594 C 298.847656 327.808594 292.058594 325.148438 287.335938 320.320312 C 282.710938 315.589844 280.351562 309.171875 280.519531 301.765625 C 280.847656 286.714844 290.855469 270.46875 306.453125 270.46875 C 313.59375 270.46875 320.261719 273.84375 325.230469 279.972656 C 329.890625 285.71875 332.5625 293.414062 332.5625 301.082031 C 332.5625 316.570312 321.582031 327.8125 306.453125 327.8125 Z M 306.453125 273.882812 C 295.914062 273.882812 284.308594 284.570312 283.929688 301.84375 C 283.785156 308.308594 285.808594 313.875 289.777344 317.933594 C 293.847656 322.101562 299.769531 324.394531 306.453125 324.394531 C 319.816406 324.394531 329.148438 314.808594 329.148438 301.078125 C 329.148438 287.347656 320.027344 273.882812 306.453125 273.882812 Z M 306.453125 273.882812 " fill-opacity="1" fill-rule="nonzero"/><path fill="#000000" d="M 436.804688 284.820312 C 446.960938 284.820312 454.511719 296.878906 454.511719 309.679688 C 454.511719 322.480469 446.960938 331.203125 436.804688 331.203125 C 426.648438 331.203125 418.988281 323.101562 419.222656 310.304688 C 419.460938 297.425781 426.648438 284.816406 436.804688 284.816406 Z M 436.804688 284.820312 " fill-opacity="1" fill-rule="evenodd"/><path fill="#000000" d="M 311.117188 285.070312 C 321.167969 285.070312 328.632812 295.886719 328.632812 307.367188 C 328.632812 318.847656 321.167969 326.671875 311.117188 326.671875 C 301.070312 326.671875 293.488281 319.40625 293.730469 307.929688 C 293.964844 296.375 301.074219 285.070312 311.117188 285.070312 Z M 311.117188 285.070312 " fill-opacity="1" fill-rule="evenodd"/><path fill="#000000" d="M 292.285156 235.546875 C 291.832031 235.546875 291.378906 235.367188 291.042969 235.007812 C 290.394531 234.324219 290.425781 233.246094 291.109375 232.597656 C 291.621094 232.117188 292.105469 231.65625 292.566406 231.214844 C 300.609375 223.5625 302.523438 221.746094 317.316406 220.644531 C 318.257812 220.574219 319.074219 221.28125 319.140625 222.222656 C 319.210938 223.160156 318.503906 223.984375 317.5625 224.054688 C 303.988281 225.0625 302.601562 226.378906 294.914062 233.6875 C 294.449219 234.132812 293.964844 234.59375 293.449219 235.082031 C 293.121094 235.390625 292.699219 235.546875 292.277344 235.546875 Z M 292.285156 235.546875 " fill-opacity="1" fill-rule="nonzero"/><path fill="#000000" d="M 368.949219 457.332031 C 364.488281 457.332031 360.546875 456.777344 357.175781 455.964844 C 341.738281 452.265625 331.808594 441.90625 327.65625 433.449219 C 327.242188 432.601562 327.589844 431.578125 328.4375 431.164062 C 329.285156 430.75 330.304688 431.097656 330.71875 431.945312 C 334.527344 439.707031 343.679688 449.222656 357.964844 452.648438 C 369.65625 455.453125 388.660156 454.980469 412.820312 436.820312 C 413.570312 436.253906 414.644531 436.402344 415.210938 437.160156 C 415.777344 437.914062 415.625 438.980469 414.871094 439.550781 C 396.511719 453.351562 380.875 457.335938 368.945312 457.335938 Z M 368.949219 457.332031 " fill-opacity="1" fill-rule="nonzero"/><path fill="#000000" d="M 393.488281 118.832031 C 393.3125 118.832031 393.140625 118.804688 392.964844 118.75 C 392.070312 118.457031 391.574219 117.5 391.867188 116.601562 C 393.4375 111.71875 395.011719 106.832031 396.585938 101.949219 C 396.875 101.054688 397.839844 100.558594 398.734375 100.851562 C 399.632812 101.140625 400.125 102.101562 399.835938 103 C 398.261719 107.882812 396.683594 112.765625 395.117188 117.648438 C 394.882812 118.371094 394.210938 118.832031 393.492188 118.832031 Z M 393.488281 118.832031 " fill-opacity="1" fill-rule="nonzero"/><path fill="#000000" d="M 343.757812 499.191406 C 343.066406 499.191406 342.414062 498.769531 342.15625 498.085938 C 338.878906 489.339844 338.824219 489.003906 337.484375 480.425781 L 337.328125 479.410156 C 337.183594 478.480469 337.816406 477.605469 338.75 477.457031 C 339.679688 477.3125 340.554688 477.949219 340.703125 478.882812 L 340.859375 479.898438 C 342.175781 488.308594 342.199219 488.46875 345.355469 496.886719 C 345.6875 497.773438 345.238281 498.757812 344.355469 499.085938 C 344.15625 499.160156 343.957031 499.191406 343.757812 499.191406 Z M 343.757812 499.191406 " fill-opacity="1" fill-rule="nonzero"/><path fill="#000000" d="M 478.8125 475.148438 C 478.375 475.148438 477.929688 474.976562 477.597656 474.636719 C 476.9375 473.964844 476.945312 472.882812 477.617188 472.21875 C 488.789062 461.234375 491.140625 454.925781 493.863281 447.621094 C 494.277344 446.507812 494.710938 445.355469 495.175781 444.167969 C 495.519531 443.292969 496.511719 442.859375 497.386719 443.203125 C 498.261719 443.546875 498.695312 444.539062 498.347656 445.417969 C 497.894531 446.574219 497.46875 447.707031 497.058594 448.808594 C 494.316406 456.171875 491.722656 463.132812 480.007812 474.648438 C 479.675781 474.976562 479.246094 475.136719 478.8125 475.136719 Z M 478.8125 475.148438 " fill-opacity="1" fill-rule="nonzero"/><path fill="#000000" d="M 368.898438 199.953125 C 368.023438 199.953125 367.28125 199.285156 367.199219 198.398438 C 367.082031 197.027344 366.960938 195.765625 366.851562 194.578125 C 365.992188 185.335938 365.5625 180.695312 367.035156 167.566406 C 367.136719 166.628906 367.980469 165.957031 368.921875 166.058594 C 369.859375 166.164062 370.535156 167.011719 370.429688 167.949219 C 368.992188 180.726562 369.386719 184.964844 370.253906 194.257812 C 370.367188 195.445312 370.484375 196.714844 370.609375 198.089844 C 370.691406 199.027344 370 199.859375 369.058594 199.941406 C 369.011719 199.945312 368.957031 199.949219 368.90625 199.949219 Z M 368.898438 199.953125 " fill-opacity="1" fill-rule="nonzero"/></svg>