<svg xmlns="http://www.w3.org/2000/svg" xmlns:xlink="http://www.w3.org/1999/xlink" width="1080" zoomAndPan="magnify" viewBox="0 0 810 809.999993" height="1080" preserveAspectRatio="xMidYMid meet" version="1.0"><defs><clipPath id="6e683d231f"><path d="M 76.917969 59.652344 L 733.167969 59.652344 L 733.167969 750.402344 L 76.917969 750.402344 Z M 76.917969 59.652344 " clip-rule="nonzero"/></clipPath></defs><g clip-path="url(#6e683d231f)"><path fill="#000000" d="M 212.78125 507.5625 C 209.652344 513.832031 208.066406 519.734375 204.417969 524.679688 C 202.160156 527.742188 199.929688 528.664062 196.101562 527.234375 C 183.5 522.550781 177.261719 512.035156 171.480469 501.109375 C 169.34375 497.070312 167.871094 492.695312 165.699219 487.523438 C 163.964844 491.683594 162.4375 494.96875 161.214844 498.371094 C 160.214844 501.152344 159.15625 503.910156 157.476562 506.316406 C 154.371094 510.746094 150.210938 511.382812 145.789062 508.277344 C 141.734375 505.425781 139.011719 501.449219 136.65625 497.210938 C 130.988281 487 127.902344 476.054688 127.335938 464.371094 C 127.144531 460.496094 126.089844 456.695312 126.386719 452.867188 C 125.511719 452.441406 125.085938 452.839844 124.632812 453.304688 C 118.179688 459.851562 113.546875 459.328125 108.882812 451.191406 C 104.171875 442.96875 102.707031 433.683594 101.320312 424.507812 C 99.507812 412.492188 98.929688 400.363281 99.316406 388.195312 C 99.453125 383.695312 100.910156 379.277344 100.066406 374.644531 C 98.433594 373.851562 97.648438 375.515625 96.53125 376.074219 C 90.054688 379.3125 85.363281 378.097656 81.464844 371.871094 C 78.332031 366.875 77.042969 361.207031 76.945312 355.46875 C 76.484375 328.332031 80.863281 302.011719 91.136719 276.792969 C 91.308594 276.375 91.441406 275.9375 91.597656 275.503906 C 82.273438 273.191406 79.101562 269.292969 79.648438 259.542969 C 81.289062 230.515625 89.976562 204.203125 110.121094 182.445312 C 111.175781 181.304688 112.066406 179.988281 113.191406 178.925781 C 115.25 176.980469 115.726562 175.402344 113.667969 172.828125 C 111.402344 169.996094 112.851562 166.550781 113.84375 163.460938 C 116.878906 154.097656 122.503906 146.265625 129.125 139.195312 C 140.90625 126.609375 154.691406 116.84375 169.65625 108.113281 C 179.375 102.445312 188.984375 97.703125 199.875 95.617188 C 214.554688 92.808594 229.222656 92.3125 243.613281 97.421875 C 244.308594 97.667969 245.050781 97.789062 246.359375 98.113281 C 240.429688 91.273438 233.328125 87.273438 225.601562 84.210938 C 224.601562 83.808594 223.527344 83.558594 222.53125 83.140625 C 219.175781 81.71875 215.582031 80.121094 215.539062 75.910156 C 215.496094 71.742188 219 69.804688 222.304688 68.394531 C 230.078125 65.078125 238.328125 63.359375 246.707031 62.855469 C 256.972656 62.226562 267.246094 62.714844 277.5 63.734375 C 293.488281 65.324219 308.417969 69.882812 322.066406 78.542969 C 327.769531 82.164062 332.90625 86.347656 337.597656 91.761719 C 346.230469 80.742188 357.628906 73.738281 370.125 68.183594 C 380.050781 63.769531 390.542969 62 401.191406 60.910156 C 415.152344 59.488281 429.148438 58.800781 443.007812 61.84375 C 448.273438 63.003906 453.691406 64.023438 458.242188 67.257812 C 463.929688 71.304688 463.542969 76.492188 457.144531 79.363281 C 451.101562 82.074219 444.679688 83.976562 438.324219 89 C 443.609375 88.160156 447.699219 87.492188 451.796875 86.863281 C 462.226562 85.257812 472.570312 83.121094 483.175781 82.652344 C 491.519531 82.277344 499.648438 83.175781 507.664062 85.265625 C 509.554688 85.765625 511.449219 86.800781 512.976562 88.039062 C 519.304688 93.175781 518.921875 97.011719 511.292969 104.058594 C 515.015625 104.835938 518.488281 105.523438 521.929688 106.292969 C 531.90625 108.523438 540.339844 113.871094 548.050781 120.183594 C 559.519531 129.566406 570.269531 139.71875 577.449219 153.023438 C 579.464844 156.757812 580.769531 160.671875 581.75 164.761719 C 582.140625 166.402344 582.167969 168.1875 581.15625 169.226562 C 577.648438 172.828125 580.238281 175.21875 582.566406 177.589844 C 602.25 197.671875 611.15625 222.542969 614.625 249.796875 C 615.113281 253.632812 615.21875 257.625 614.765625 261.464844 C 613.964844 268.265625 609.304688 271.5 602.957031 272.5625 C 613.101562 297.785156 617.773438 323.859375 617.660156 350.847656 C 617.644531 356.042969 616.648438 361.085938 614.714844 365.835938 C 611.84375 372.894531 605.828125 378.726562 596.320312 372.175781 C 595.859375 371.855469 595.292969 371.679688 594.148438 371.148438 C 594.558594 380.488281 595.613281 389.261719 595.203125 398.070312 C 594.53125 412.675781 593.234375 427.175781 588.714844 441.207031 C 587.511719 444.949219 585.960938 448.453125 583.316406 451.402344 C 579.078125 456.136719 575.601562 456.25 571.066406 451.777344 C 570.324219 451.054688 569.75 450.15625 568.492188 448.59375 C 567.445312 458.363281 567.261719 467.046875 565.195312 475.4375 C 562.789062 485.160156 559.082031 494.316406 552.453125 502.078125 C 545.808594 509.855469 539.328125 509.035156 535.011719 499.730469 C 533.554688 496.582031 532.351562 493.320312 530.722656 489.363281 C 526.554688 497.324219 522.445312 504.292969 517.703125 510.917969 C 513.578125 516.683594 508.03125 520.546875 502.167969 524.042969 C 498.402344 526.292969 491.679688 523.703125 488.757812 519.484375 C 486.523438 516.246094 485.984375 512.332031 484.386719 508.828125 C 482.773438 509.996094 482.828125 511.328125 483.253906 513.03125 C 486.4375 525.675781 489.960938 538.242188 492.261719 551.09375 C 493.632812 558.726562 493.5 566.554688 495.550781 574.847656 C 500.503906 562.492188 507.960938 552.472656 515.984375 542.722656 C 526.34375 530.128906 539.363281 521.410156 554.042969 514.816406 C 574.179688 505.765625 594.5 497.140625 614.363281 487.503906 C 616.527344 486.457031 617.703125 485.429688 617.738281 482.71875 C 617.941406 464.769531 626.84375 452.308594 643.011719 445.386719 C 668.878906 434.308594 693.953125 437.554688 718.019531 451.113281 C 722.328125 453.539062 726.203125 456.78125 730.152344 459.808594 C 733.9375 462.714844 734.058594 464.867188 730.789062 468.277344 C 727.839844 471.347656 724.328125 473.648438 720.410156 475.296875 C 716.144531 477.085938 711.847656 478.777344 707.566406 480.503906 C 707.652344 480.886719 707.625 481.304688 707.808594 481.445312 C 714.15625 486.277344 714.332031 489.605469 708.542969 496.234375 C 703.839844 501.613281 697.9375 505.355469 691.65625 508.519531 C 681.882812 513.441406 671.765625 517.929688 660.613281 517.269531 C 650.566406 516.667969 640.394531 515.210938 632.636719 507.578125 C 631.394531 506.359375 630.550781 506.210938 629.136719 507.308594 C 610.746094 521.488281 589.003906 529.199219 568.351562 539.085938 C 550.492188 547.640625 535.214844 559.71875 523.464844 576.679688 C 533.3125 579.304688 541.351562 584.300781 547.980469 591.503906 C 549.351562 592.996094 550.910156 592.316406 552.339844 591.921875 C 564.304688 588.671875 574.089844 592.359375 582.28125 601.203125 C 594.65625 614.570312 603.757812 629.414062 603.828125 648.441406 C 603.847656 653.027344 603.054688 657.441406 601.917969 661.800781 C 598.613281 674.585938 596.3125 687.742188 588.785156 699.027344 C 583.152344 707.46875 574.738281 713.09375 567.375 719.773438 C 562.046875 724.605469 556.492188 729.382812 549.847656 732.085938 C 529.125 740.511719 507.707031 743.582031 486.089844 736.308594 C 480.054688 734.277344 477.019531 733.769531 472.371094 739.140625 C 466.179688 746.292969 458.679688 748.585938 450.019531 742.019531 C 447.90625 740.421875 446.921875 741.277344 445.519531 742.996094 C 439.335938 750.601562 430.300781 752.476562 421.71875 747.671875 C 418.804688 746.039062 416.40625 745.628906 413.042969 746.351562 C 400.972656 748.960938 387.488281 739.054688 385.929688 726.191406 C 385.316406 721.144531 383.652344 720.035156 378.769531 720.050781 C 364.441406 720.105469 350.101562 719.53125 335.773438 719.015625 C 333.261719 718.925781 332.539062 719.722656 331.816406 722.039062 C 328.589844 732.402344 315.734375 739.882812 305.25 737.589844 C 303.113281 737.117188 301.703125 737.640625 300.183594 738.941406 C 293.320312 744.792969 279.644531 744.84375 274.1875 736.761719 C 273 735 271.832031 735.007812 269.964844 736.289062 C 260.582031 742.726562 251.984375 741.660156 244.648438 732.871094 C 242.214844 729.960938 241.039062 729.121094 237.289062 731.519531 C 229.457031 736.515625 220.273438 738.296875 211.109375 739.003906 C 200.667969 739.804688 190.195312 738.765625 179.921875 737.023438 C 169.457031 735.242188 160.492188 729.820312 152.15625 723.382812 C 142.710938 716.09375 131.941406 710.234375 125.488281 699.664062 C 119.285156 689.496094 116.191406 678.039062 112.316406 666.894531 C 103.34375 641.097656 117.367188 614.535156 134.050781 599.328125 C 139.492188 594.363281 146.417969 592.628906 153.628906 593.867188 C 158.441406 594.695312 161.339844 593.398438 164.667969 589.71875 C 175.136719 578.152344 192.644531 570.59375 209.828125 578.539062 C 212.722656 579.871094 212.453125 578.242188 212.574219 576.367188 C 213.246094 565.960938 213.125 555.515625 214.328125 545.128906 C 215.214844 537.421875 216.351562 529.753906 218.320312 522.273438 C 219 519.675781 218.800781 517.78125 217.089844 515.933594 C 215.042969 513.726562 214.363281 510.796875 212.78125 507.507812 Z M 262.136719 538.71875 C 260.460938 533.128906 258.246094 528.550781 259.25 523.390625 C 259.964844 519.699219 263.554688 516.359375 265.796875 517.800781 C 268.597656 519.597656 272.078125 520.390625 274.089844 523.5625 C 275.476562 525.753906 277.457031 527.671875 279.464844 529.355469 C 291.65625 539.601562 306.183594 543.96875 321.699219 545.453125 C 332.417969 546.480469 342.839844 548.53125 352.5 553.351562 C 355.535156 554.863281 358.386719 555.054688 361.464844 554.363281 C 375.238281 551.285156 387.890625 545.285156 399.8125 538.101562 C 410.816406 531.472656 421.046875 523.546875 431.625 516.195312 C 433.867188 514.644531 436.257812 513.214844 438.875 515.148438 C 441.410156 517.023438 442.449219 519.664062 442.117188 522.910156 C 441.734375 526.609375 439.589844 529.546875 438.253906 532.824219 C 437.476562 534.726562 435.351562 537.21875 436.875 538.582031 C 438.601562 540.117188 440.765625 537.613281 442.476562 536.496094 C 459.488281 525.367188 472.308594 510.683594 480.304688 491.867188 C 481.625 488.769531 483.464844 485.160156 487.519531 485.605469 C 491.214844 486.015625 491.660156 489.753906 492.296875 492.753906 C 493.351562 497.75 494.136719 502.808594 495.238281 507.796875 C 496.257812 512.4375 498.417969 513.097656 502.046875 510.011719 C 506.234375 506.453125 509.660156 502.261719 512.128906 497.324219 C 516.105469 489.390625 519.21875 481.140625 521.363281 472.507812 C 522.304688 468.722656 524.441406 465.234375 528.394531 464.519531 C 532.066406 463.855469 533.375 467.65625 534.960938 470.175781 C 538.1875 475.304688 540.472656 480.914062 542.679688 486.546875 C 543.542969 488.761719 543.59375 492.632812 545.636719 492.710938 C 548.226562 492.808594 548.976562 489.046875 550.125 486.78125 C 556.867188 473.472656 557.148438 458.953125 557.878906 444.511719 C 558.183594 438.566406 556.675781 432.75 556.894531 426.847656 C 557.03125 422.929688 559.1875 419.859375 562.839844 418.753906 C 566.164062 417.75 566.984375 421.378906 568.511719 423.304688 C 569.730469 424.859375 570.375 426.855469 571.386719 428.589844 C 573.691406 432.523438 574.972656 437.03125 577.953125 440.625 C 579.613281 439.464844 579.679688 437.753906 580.089844 436.34375 C 586.726562 413.703125 586.746094 390.605469 584.667969 367.390625 C 584.261719 362.820312 583.625 358.3125 580.484375 354.351562 C 577.929688 351.136719 579.621094 347.421875 581.679688 344.402344 C 583.292969 342.046875 588.777344 342.082031 589.308594 344.386719 C 590.636719 350.097656 595.1875 353.375 598.519531 357.542969 C 599.785156 359.121094 601.074219 361.859375 603.542969 360.964844 C 605.863281 360.117188 605.90625 357.230469 606.402344 355 C 606.535156 354.398438 606.453125 353.75 606.488281 353.132812 C 607.265625 340.148438 605.929688 327.285156 603.53125 314.570312 C 600.472656 298.375 596.921875 282.289062 586.773438 268.65625 C 585.75 267.289062 584.539062 266.042969 583.660156 264.585938 C 581.511719 261.054688 582.304688 257.539062 584.800781 254.738281 C 587.3125 251.914062 589.449219 254.519531 591.648438 255.941406 C 594.105469 257.539062 596.695312 258.953125 599.609375 259.683594 C 604.230469 260.84375 605.609375 259.824219 605.574219 255.183594 C 605.53125 249.238281 604.230469 243.472656 603.078125 237.691406 C 596.808594 206.269531 578.339844 183.101562 553.386719 164.335938 C 550.421875 162.101562 549.910156 158.746094 552.125 155.230469 C 554.285156 151.804688 556.832031 153.078125 559.292969 154.726562 C 562.691406 157.007812 566.09375 159.269531 570.5 160.742188 C 568.894531 156.46875 566.433594 153.453125 564.386719 150.179688 C 559.457031 142.324219 551.15625 137.992188 545.03125 131.449219 C 529.386719 114.722656 509.191406 113.496094 488.390625 114.042969 C 485.816406 114.113281 484.179688 113.382812 483.132812 111.175781 C 481.457031 107.644531 482.703125 104.03125 486.351562 101.546875 C 490.28125 98.871094 494.738281 97.160156 499.023438 94.964844 C 495.105469 94.363281 491.277344 93.898438 487.457031 93.933594 C 469.625 94.109375 452.304688 97.414062 435.367188 102.898438 C 431.992188 104 428.617188 105.148438 424.929688 104.863281 C 421.640625 104.609375 418.449219 103.101562 416.941406 100.804688 C 415.378906 98.441406 418.589844 96.246094 420.132812 94.207031 C 426.726562 85.476562 434.90625 78.710938 444.90625 74.191406 C 445.542969 73.902344 446.523438 73.878906 446.363281 72.597656 C 446.058594 72.449219 445.703125 72.210938 445.300781 72.097656 C 428.714844 67.074219 412.003906 69.097656 395.363281 71.550781 C 374.765625 74.585938 358.40625 85.292969 344.714844 100.546875 C 339.375 106.492188 334.824219 106.378906 329.417969 100.074219 C 320.261719 89.410156 308.765625 82.144531 295.589844 77.730469 C 279.316406 72.273438 262.386719 71.417969 245.398438 72.273438 C 240.578125 72.515625 235.667969 73.363281 231.253906 75.421875 C 231.203125 76.539062 231.863281 76.632812 232.421875 76.878906 C 242.765625 81.445312 251.007812 88.605469 257.964844 97.421875 C 260.292969 100.378906 262.167969 103.371094 260.78125 107.171875 C 259.335938 111.140625 255.429688 111.367188 252.042969 112.144531 C 250.308594 112.542969 248.738281 111.480469 247.152344 110.90625 C 230.375 104.84375 213.453125 101.53125 195.875 107.644531 C 173.214844 115.527344 153.027344 127.289062 136.667969 145.046875 C 131.695312 150.441406 126.976562 156.121094 124.011719 163.628906 C 128.277344 161.972656 131.582031 159.984375 134.800781 157.804688 C 137.3125 156.101562 139.953125 154.316406 142.351562 158.003906 C 144.820312 161.804688 144.125 165.242188 140.285156 167.492188 C 136.773438 169.550781 133.597656 171.984375 130.703125 174.851562 C 124.9375 180.5625 119.863281 186.878906 114.445312 192.894531 C 97.789062 211.40625 90.988281 233.75 88.980469 257.949219 C 88.597656 262.578125 90.273438 263.695312 94.859375 262.464844 C 98.355469 261.53125 101.390625 259.753906 104.3125 257.632812 C 107.453125 255.359375 110 256.1875 111.210938 259.816406 C 112.28125 263.023438 112.203125 265.9375 109.746094 268.875 C 105.855469 273.523438 102.464844 278.605469 100.214844 284.285156 C 91.589844 306.085938 87.925781 328.820312 87.8125 352.171875 C 87.792969 355.40625 87.792969 358.722656 89.179688 361.800781 C 90.289062 364.257812 91.859375 364.894531 93.726562 362.75 C 97.839844 357.996094 103.136719 354.074219 104.929688 347.636719 C 105.324219 346.242188 106.316406 346.148438 107.328125 345.832031 C 109.640625 345.117188 111.839844 345.335938 113.101562 347.535156 C 114.828125 350.542969 116.511719 354.082031 114.035156 357.132812 C 110.738281 361.199219 110.398438 365.933594 109.761719 370.632812 C 109.34375 373.703125 109.726562 376.878906 109.386719 379.964844 C 107.453125 397.78125 108.839844 415.386719 112.761719 432.792969 C 113.566406 436.367188 113.886719 440.308594 116.773438 443.796875 C 119.886719 437.730469 122.582031 431.992188 125.757812 426.53125 C 127.03125 424.34375 128.121094 420.539062 131.617188 421.5625 C 135.4375 422.675781 137.511719 425.914062 137.644531 430.074219 C 137.667969 431.003906 137.757812 431.964844 137.609375 432.871094 C 135.941406 442.953125 136.648438 453.007812 137.609375 463.097656 C 138.621094 473.71875 140.652344 484 146.363281 493.226562 C 147 494.253906 147.472656 495.816406 148.839844 495.746094 C 150.296875 495.667969 150.261719 493.921875 150.621094 492.886719 C 153.253906 485.246094 156.261719 477.773438 160.78125 471.023438 C 164.285156 465.773438 166.953125 465.746094 170.792969 470.789062 C 171.714844 472 172.726562 473.378906 173.023438 474.816406 C 174.453125 481.707031 177.125 488.160156 179.730469 494.636719 C 182.554688 501.660156 186.566406 507.875 192.417969 512.792969 C 195.917969 515.734375 197.320312 515.394531 198.410156 511.085938 C 199.851562 505.390625 200.644531 499.503906 202.519531 493.96875 C 203.234375 491.847656 201.941406 488.183594 205.796875 487.515625 C 209.636719 486.851562 210.628906 490.234375 212.582031 492.265625 C 212.90625 492.597656 213.167969 493 213.4375 493.382812 C 221.984375 505.601562 230.40625 517.746094 241.726562 527.878906 C 247.738281 533.261719 254.292969 535.824219 262.125 538.695312 Z M 226.859375 527.664062 C 224.460938 535.945312 224.023438 544.039062 223.902344 551.964844 C 223.570312 573.289062 222.785156 594.652344 225.566406 615.914062 C 228.332031 637.027344 229.457031 658.375 234.125 679.207031 C 237.183594 692.878906 241.054688 706.300781 249.933594 717.671875 C 252.21875 720.601562 255.226562 722.039062 258.507812 722.894531 C 263.15625 724.109375 270.601562 716.722656 269.574219 712.109375 C 268.675781 708.089844 267.96875 704.207031 270.671875 700.484375 C 273.644531 696.402344 276.8125 696.273438 279.375 700.660156 C 283.894531 708.394531 285.472656 716.53125 281.886719 725.152344 C 281.644531 725.738281 280.597656 726.425781 281.679688 727.039062 C 284.3125 728.539062 287.09375 729.21875 290.171875 728.519531 C 292.5 727.988281 293.929688 727.027344 294.339844 724.371094 C 295.101562 719.390625 294.8125 714.417969 294.761719 709.449219 C 294.726562 706.265625 295.691406 703.660156 297.996094 701.523438 C 300.96875 698.757812 303.828125 699.054688 305.441406 702.734375 C 307.316406 707.015625 308.539062 711.488281 307.640625 716.335938 C 307.136719 719.074219 307.1875 721.910156 306.976562 724.699219 C 306.875 726.085938 307.011719 727.082031 308.871094 727.046875 C 312.792969 726.96875 320.695312 720.855469 320.652344 717.191406 C 320.582031 710.207031 321.15625 703.167969 319.683594 696.253906 C 317.546875 686.21875 315.523438 676.136719 314.617188 665.917969 C 312.875 646.25 309.828125 626.710938 309.191406 606.949219 C 309.097656 603.957031 309.472656 601.070312 311.703125 598.707031 C 315.246094 594.96875 318.238281 595.5 320.042969 600.296875 C 321.480469 604.113281 322.363281 608.066406 322.457031 612.128906 C 322.875 630.066406 326.390625 647.683594 328.144531 665.480469 C 329.261719 676.765625 331.917969 687.902344 332.914062 699.183594 C 333.332031 704 333.726562 705.175781 338.992188 704.703125 C 352.160156 703.535156 365.425781 704.058594 378.636719 704.609375 C 383.207031 704.800781 384.785156 703.613281 385.136719 699.011719 C 387.0625 673.222656 388.613281 647.4375 388.484375 621.574219 C 388.464844 617.960938 388.851562 614.457031 389.863281 610.96875 C 390.53125 608.648438 391.082031 606.078125 393.761719 605.726562 C 396.480469 605.378906 398.363281 607.53125 399.75 609.589844 C 401.078125 611.542969 401.390625 613.90625 401.277344 616.316406 C 401.179688 618.328125 401.164062 620.351562 401.261719 622.367188 C 402.15625 641.0625 400.152344 659.707031 400.046875 678.378906 C 399.96875 692.835938 395.84375 707.015625 397.542969 721.640625 C 398.46875 729.59375 399.898438 732.347656 407.476562 734.816406 C 411.847656 736.238281 412.179688 735.863281 412.011719 731.414062 C 411.777344 725.441406 408.839844 719.632812 411.445312 713.453125 C 412.441406 711.089844 412.851562 708.261719 415.625 707.878906 C 418.511719 707.476562 420.269531 709.972656 421.945312 712.039062 C 422.992188 713.328125 422.992188 714.933594 423.125 716.484375 C 423.445312 720.367188 423.847656 724.246094 424.046875 728.136719 C 424.492188 736.933594 429.679688 736.628906 435.628906 734.660156 C 437.75 733.960938 437.90625 733.21875 436.910156 731.015625 C 433.136719 722.652344 433.953125 714.304688 438.410156 706.421875 C 440.53125 702.679688 443.398438 702.714844 446.304688 705.996094 C 448.886719 708.90625 449.566406 712.179688 448.804688 715.988281 C 448.394531 718.03125 447.351562 720.296875 448.78125 722.292969 C 453.960938 729.53125 463.34375 729.375 468.429688 722.058594 C 474.988281 712.621094 477.847656 701.800781 480.125 690.777344 C 483.761719 673.152344 484.019531 655.214844 484.691406 637.339844 C 485.261719 622.253906 486.558594 607.148438 485.398438 592.035156 C 484.167969 575.886719 483.636719 559.667969 480.875 543.664062 C 479.574219 536.128906 477.613281 528.726562 474.976562 521.035156 C 473.15625 523.03125 471.65625 524.585938 470.242188 526.214844 C 462.417969 535.292969 453 542.398438 442.761719 548.460938 C 436.414062 552.21875 432.070312 552.011719 427.78125 548.007812 C 423.996094 544.46875 424.875 539.957031 425.78125 534.820312 C 423.027344 536.785156 420.875 538.277344 418.753906 539.820312 C 412.589844 544.300781 406.421875 548.730469 399.523438 552.097656 C 387.113281 558.140625 374.328125 563.25 361.335938 567.835938 C 357.691406 569.128906 354.042969 569.3125 350.15625 567.28125 C 340.160156 562.074219 329.3125 559.5 318.238281 557.511719 C 303.417969 554.84375 288.304688 552.558594 276.941406 541.011719 C 276.0625 540.125 275.277344 538.683594 273.339844 538.886719 C 273.5 540.125 273.644531 541.335938 273.792969 542.546875 C 274.613281 549.488281 269.007812 554.339844 262.316406 552.105469 C 251.292969 548.425781 241.125 543.183594 233.042969 534.558594 C 231.042969 532.433594 229.144531 530.210938 226.867188 527.652344 Z M 587.382812 649.914062 C 588.578125 631.261719 582.742188 620.527344 573.5 611.132812 C 566.914062 604.445312 564.523438 603.703125 555.769531 606.894531 C 545.625 610.585938 544.605469 610.289062 538.257812 601.707031 C 537.792969 601.078125 537.375 600.417969 536.894531 599.808594 C 529.542969 590.582031 515.90625 587.023438 505.769531 592.035156 C 501.847656 593.980469 497.285156 596.832031 497.191406 601.386719 C 496.894531 616.460938 496.371094 631.539062 495.976562 646.617188 C 495.359375 669.8125 494.226562 692.921875 486.105469 715.019531 C 485.214844 717.429688 485.609375 718.824219 488.09375 719.625 C 489.707031 720.148438 491.214844 721.082031 492.863281 721.4375 C 507.90625 724.675781 522.636719 723.078125 536.738281 717.375 C 546.070312 713.601562 552.941406 705.90625 561.097656 700.25 C 580.589844 686.707031 583.441406 665.472656 587.382812 649.914062 Z M 204.453125 721.414062 C 214.117188 721.953125 222.324219 721.167969 230.015625 717.035156 C 232.613281 715.640625 233.078125 714.523438 231.828125 711.804688 C 224.695312 696.273438 221.199219 679.710938 219.183594 662.882812 C 216.828125 643.128906 214.160156 623.394531 213.269531 603.511719 C 212.941406 596.109375 208.335938 592.839844 202.703125 590.648438 C 192.367188 586.640625 179.015625 591.546875 172.71875 601.070312 C 167.769531 608.566406 161.054688 611.199219 152.566406 608.972656 C 151.816406 608.769531 151.089844 608.351562 150.339844 608.300781 C 147.558594 608.132812 144.5 607.488281 142.300781 609.632812 C 133.597656 618.136719 126.59375 627.539062 125.347656 640.3125 C 123.882812 655.40625 130.5625 668.183594 136.28125 681.265625 C 139.875 689.480469 145.648438 695.871094 153.097656 700.808594 C 156.601562 703.125 160.160156 705.386719 163.511719 707.921875 C 175.980469 717.375 189.707031 722.800781 204.445312 721.414062 Z M 631.25 481.332031 C 630.167969 485.945312 633.542969 488.542969 637.789062 491.59375 C 647.042969 498.238281 656.894531 502.816406 668.320312 502.320312 C 678.089844 501.894531 686.84375 497.558594 695.363281 493.050781 C 696.804688 492.292969 698.886719 491.359375 698.625 489.570312 C 698.382812 487.898438 695.964844 488.492188 694.632812 487.714844 C 693.464844 487.035156 691.964844 486.9375 690.699219 486.390625 C 688.464844 485.4375 686.390625 483.964844 686.320312 481.402344 C 686.25 479.027344 688.195312 477.519531 690.175781 476.507812 C 692.375 475.382812 694.683594 474.441406 697.003906 473.578125 C 703.089844 471.3125 709.214844 469.105469 715.328125 466.90625 C 718.40625 465.800781 718.464844 464.761719 715.726562 462.828125 C 694.769531 448.054688 672.332031 445.621094 648.679688 454.988281 C 636.246094 459.914062 630.714844 468.441406 631.25 481.324219 Z M 625.328125 501.5 C 621.621094 497.953125 621.566406 497.847656 618.269531 499.636719 C 602.6875 508.09375 586.292969 514.773438 569.894531 521.417969 C 551.269531 528.96875 533.816406 538.128906 521.128906 554.46875 C 515.765625 561.375 509.964844 567.941406 506.285156 576.234375 C 509.328125 576.777344 510.988281 576.015625 512.601562 573.742188 C 522.316406 560.050781 533.503906 547.867188 548.242188 539.296875 C 561.402344 531.640625 575.375 525.710938 589.160156 519.378906 C 601.25 513.824219 613.34375 508.292969 625.328125 501.492188 Z M 346.824219 221.636719 C 348.394531 221.234375 348.636719 220.03125 349.136719 219.132812 C 359.441406 200.761719 375.671875 190.523438 395.738281 186.265625 C 404.191406 184.480469 410.320312 182.640625 413.539062 172.757812 C 417.203125 161.519531 424.230469 151.558594 434.828125 144.609375 C 449.425781 135.035156 464.601562 132.105469 481.859375 135.933594 C 495.664062 138.992188 505.066406 146.292969 511.511719 158.429688 C 515.609375 166.15625 517.476562 174.496094 518.53125 182.980469 C 520.910156 202.085938 515.375 218.933594 502.945312 233.558594 C 501.542969 235.207031 500.078125 237.472656 497.941406 237.570312 C 492.679688 237.804688 494.78125 240.332031 495.839844 242.855469 C 500.984375 255.191406 507.0625 267.210938 509.304688 280.585938 C 510.054688 285.035156 510.714844 289.480469 510.855469 294.023438 C 511.457031 312.703125 512.234375 331.367188 512.863281 350.046875 C 512.941406 352.3125 513.367188 352.914062 515.851562 352.339844 C 524.601562 350.28125 533.433594 348.578125 542.214844 346.671875 C 543.941406 346.296875 545.679688 345.535156 546.507812 347.828125 C 547.257812 349.878906 546.4375 351.703125 544.632812 352.589844 C 541.589844 354.082031 538.429688 355.453125 535.1875 356.417969 C 529.265625 358.179688 523.28125 359.785156 517.25 361.109375 C 514.160156 361.792969 513.5 363.328125 514.152344 366.074219 C 515.09375 369.996094 514.902344 374.75 517.132812 377.652344 C 519.777344 381.097656 524.609375 377.835938 528.5 378.082031 C 534.246094 378.4375 540.027344 378.152344 545.800781 378.125 C 548.460938 378.105469 551.113281 378.394531 551.199219 381.789062 C 551.285156 385.195312 548.695312 386.140625 545.851562 386.410156 C 538.726562 387.089844 531.613281 387.839844 524.46875 388.273438 C 520.703125 388.503906 518.886719 389.453125 519.550781 393.8125 C 520.203125 398.09375 520.230469 402.550781 519.339844 406.859375 C 518.679688 410.058594 519.96875 410.738281 522.941406 410.984375 C 528.515625 411.445312 534.070312 412.214844 539.53125 413.574219 C 542.292969 414.261719 544.257812 415.640625 543.988281 418.597656 C 543.691406 421.777344 541.335938 423.0625 538.351562 422.914062 C 531.988281 422.589844 525.613281 422.285156 519.269531 421.632812 C 517.273438 421.421875 516.238281 421.507812 515.257812 423.472656 C 499.257812 455.457031 472.449219 474.722656 440.164062 487.914062 C 424.179688 494.445312 407.257812 495.796875 390.601562 498.597656 C 371.84375 501.746094 352.859375 503.070312 333.839844 502.261719 C 297.742188 500.707031 262.710938 494.421875 230.46875 477.058594 C 208.273438 465.101562 189.601562 449.605469 180.324219 425.121094 C 179.617188 423.253906 178.394531 422.757812 176.679688 423.261719 C 173.765625 424.125 170.800781 423.863281 167.851562 423.835938 C 165.019531 423.820312 162.960938 422.441406 162.679688 419.53125 C 162.429688 416.816406 164.113281 415.238281 166.703125 414.621094 C 167.304688 414.472656 167.90625 414.289062 168.507812 414.140625 C 176.566406 412.132812 176.539062 412.132812 176.433594 403.640625 C 176.382812 399.742188 176.25 395.828125 176.582031 391.957031 C 176.800781 389.390625 175.859375 388.632812 173.566406 388.476562 C 169.378906 388.1875 165.191406 387.753906 161.015625 387.359375 C 158.179688 387.097656 155.511719 386.261719 155.496094 382.894531 C 155.476562 379.1875 158.390625 379.039062 161.179688 379.050781 C 166.011719 379.066406 170.851562 378.988281 175.683594 379.117188 C 177.925781 379.179688 179.042969 378.527344 179.40625 376.152344 C 180.019531 372.167969 181.011719 368.246094 181.726562 364.269531 C 182.226562 361.484375 181.632812 359.75 178.1875 359.097656 C 173.355469 358.171875 168.550781 356.804688 164.078125 354.578125 C 162.988281 354.039062 161.851562 353.429688 161.015625 352.574219 C 159.847656 351.386719 159.515625 349.84375 160.378906 348.273438 C 161.277344 346.636719 162.714844 347.125 164.085938 347.429688 C 168.917969 348.511719 173.765625 349.558594 178.589844 350.707031 C 181.351562 351.371094 182.660156 351.125 182.800781 347.558594 C 183.558594 328.417969 184.152344 309.277344 184.394531 290.117188 C 184.476562 283.578125 185.792969 277.125 187.578125 270.828125 C 188.179688 268.710938 187.632812 267.734375 185.828125 266.824219 C 159.15625 253.378906 148.484375 230.574219 149.144531 201.9375 C 149.496094 186.867188 156.078125 175.070312 169.648438 166.566406 C 187.1875 155.589844 204.976562 153.871094 223.832031 161.089844 C 234.699219 165.25 242.84375 173.378906 250.414062 181.90625 C 252.132812 183.84375 253.464844 184.6875 255.847656 184.078125 C 275.398438 179.046875 294.105469 182.925781 312.359375 189.9375 C 326.695312 195.441406 337.464844 205.304688 345.070312 218.636719 C 345.65625 219.667969 346.28125 220.675781 346.859375 221.636719 Z M 222.019531 421.027344 C 212.976562 420.75 203.964844 421.917969 194.941406 421.910156 C 190.9375 421.910156 191.390625 423.269531 192.734375 425.9375 C 196.917969 434.207031 202.34375 441.671875 208.917969 448.027344 C 220.738281 459.433594 234.246094 468.066406 250.386719 472.664062 C 273.210938 479.167969 295.824219 486.710938 319.796875 487.140625 C 332.976562 487.375 346.144531 487.863281 359.40625 486.730469 C 373.726562 485.507812 388.03125 484.539062 402.191406 481.941406 C 422.496094 478.210938 442.125 472.652344 460.492188 462.90625 C 475.988281 454.679688 488.53125 443.554688 497.03125 428.117188 C 501.21875 420.523438 501.132812 420.472656 492.804688 420.253906 C 491.871094 420.226562 490.9375 420.234375 489.996094 420.234375 C 479.40625 420.183594 468.8125 420.105469 458.226562 420.113281 C 455.625 420.113281 453.464844 419.441406 452.765625 416.765625 C 452.113281 414.28125 453.882812 412.570312 455.652344 411.375 C 458.566406 409.40625 462 409.003906 465.480469 409.003906 C 474.988281 409.003906 484.5 409.003906 494.007812 408.976562 C 507.261719 408.941406 507.28125 408.777344 506.6875 395.339844 C 506.511719 391.414062 504.742188 390.167969 501.472656 391.214844 C 490.117188 394.859375 478.109375 395.820312 466.832031 399.777344 C 463.980469 400.78125 460.089844 403.839844 458.304688 399.65625 C 456.472656 395.363281 461.179688 393.796875 464.191406 392.191406 C 473.460938 387.246094 483.613281 384.996094 493.746094 382.667969 C 504.15625 380.269531 504.113281 380.050781 501.4375 369.605469 C 500.75 366.910156 499.796875 366.492188 497.347656 367.652344 C 491.199219 370.574219 484.859375 373.09375 478.753906 376.117188 C 471.394531 379.765625 464.191406 383.75 456.933594 387.613281 C 455.007812 388.632812 453.15625 389.085938 451.40625 387.316406 C 449.441406 385.328125 450.828125 383.617188 451.894531 381.917969 C 453.167969 379.886719 455.101562 378.59375 457.074219 377.304688 C 468.96875 369.527344 481.761719 363.519531 495.035156 358.625 C 499.011719 357.160156 500.234375 355.269531 499.894531 351.238281 C 498.65625 336.789062 498.054688 322.253906 498.769531 307.8125 C 500.144531 279.730469 489.15625 255.359375 476.460938 231.734375 C 467.023438 214.179688 452.730469 201.773438 431.609375 199.601562 C 415.703125 197.96875 400.605469 201.203125 385.929688 206.917969 C 372.148438 212.269531 362.40625 222.246094 354.445312 234.414062 C 348.289062 243.832031 346.910156 243.691406 340.40625 234.585938 C 336.875 229.640625 333.4375 224.652344 329.226562 220.222656 C 318.53125 209 304.804688 203.664062 290.144531 200.59375 C 252.679688 192.761719 231.011719 204.589844 214.867188 235.78125 C 209.453125 246.246094 205.683594 257.574219 201.367188 268.597656 C 199.152344 274.253906 197.816406 280.210938 197.339844 286.273438 C 195.636719 307.566406 197.453125 328.96875 195.65625 350.253906 C 195.375 353.550781 196.625 354.738281 199.65625 355.617188 C 217.804688 360.882812 234.8125 368.722656 250.703125 378.988281 C 252.847656 380.375 254.609375 382.09375 255.644531 384.4375 C 256.859375 387.160156 255.316406 389.433594 252.367188 389.398438 C 250.71875 389.382812 249.4375 388.441406 248.09375 387.699219 C 233.667969 379.824219 219.21875 372.011719 203.714844 366.394531 C 198.132812 364.371094 194.863281 366.242188 193.902344 372.003906 C 193.675781 373.371094 193.535156 374.828125 192.960938 376.066406 C 191.546875 379.09375 192.679688 380.402344 195.699219 380.503906 C 204.480469 380.828125 212.757812 383.679688 221.226562 385.554688 C 229.894531 387.480469 238.257812 390.332031 245.800781 395.101562 C 247.667969 396.28125 249.996094 398.023438 248.441406 400.789062 C 246.953125 403.449219 244.492188 402.453125 242.261719 401.660156 C 235.542969 399.261719 228.691406 397.5625 221.660156 396.226562 C 212.417969 394.476562 203.433594 391.386719 193.988281 390.507812 C 192.0625 390.324219 189.429688 389.234375 189.53125 392.558594 C 189.671875 397.101562 188.808594 401.511719 188.433594 405.988281 C 188.128906 409.648438 189.105469 411.339844 193.308594 410.871094 C 209.144531 409.082031 225.070312 410.304688 240.953125 409.9375 C 244.273438 409.859375 247.554688 410.285156 250.421875 411.941406 C 252.566406 413.179688 254.625 415.019531 253.78125 417.933594 C 253.003906 420.609375 250.691406 421.054688 248.15625 421.039062 C 239.433594 420.976562 230.714844 421.011719 221.992188 421.011719 Z M 506.828125 195.003906 C 506.390625 181.984375 505.089844 172.6875 501.097656 164.132812 C 497.46875 156.363281 493.117188 148.8125 483.917969 146.265625 C 471.996094 142.960938 460.308594 142.855469 448.964844 148.734375 C 436.039062 155.429688 429.191406 166.628906 425.207031 180.03125 C 424.929688 180.972656 424.441406 182.0625 425.792969 182.890625 C 428.417969 184.515625 434.015625 183.230469 435.21875 180.503906 C 439.039062 171.84375 445.511719 166.496094 454.535156 163.59375 C 471.394531 158.179688 490.371094 170.359375 492.324219 188.019531 C 493.40625 197.785156 488.992188 205.453125 483.621094 212.871094 C 482.78125 214.023438 480.917969 215.019531 482.375 216.8125 C 484.683594 219.664062 485.835938 223.382812 488.976562 225.578125 C 489.15625 225.710938 489.636719 225.605469 489.863281 225.4375 C 492.96875 223.207031 497.101562 222.238281 498.933594 218.453125 C 503.066406 209.882812 507.28125 201.308594 506.816406 194.988281 Z M 198.726562 167.554688 C 188.511719 165.914062 180.445312 171.511719 172.136719 176.4375 C 168.65625 178.503906 166.28125 181.4375 164.652344 185.125 C 159.472656 196.84375 160.703125 208.738281 163.203125 220.808594 C 165.699219 232.859375 172.796875 241.875 181.457031 249.953125 C 184.597656 252.882812 188.949219 253.535156 192.742188 253.179688 C 195.375 252.925781 195.296875 248.625 196.703125 246.296875 C 198.664062 243.054688 197.546875 241.433594 194.382812 239.539062 C 186.941406 235.109375 180.332031 229.582031 177.925781 220.730469 C 174.289062 207.371094 180.269531 193.320312 192.386719 186.390625 C 201.402344 181.226562 218.984375 181.558594 227.992188 192.1875 C 232.019531 196.949219 234.21875 192.589844 236.714844 191.019531 C 240.132812 188.875 236.808594 186.695312 235.640625 185.464844 C 225.707031 174.921875 214.738281 166.226562 198.726562 167.542969 Z M 190.011719 211.136719 C 189.480469 218.742188 194.085938 224.914062 200.433594 230.191406 C 201.558594 231.125 202.554688 232.101562 203.546875 229.84375 C 207.453125 220.921875 213.253906 213.257812 219.65625 206.011719 C 220.441406 205.121094 220.78125 204.484375 220.179688 203.203125 C 216.566406 195.433594 208.78125 191.707031 200.023438 193.75 C 194.292969 195.082031 189.941406 202.121094 190.011719 211.144531 Z M 479.226562 192.746094 C 479.042969 188.472656 478.136719 184.367188 476.234375 180.597656 C 473.234375 174.660156 467.292969 171.171875 462.070312 171.921875 C 453.882812 173.109375 449.171875 177.371094 447.578125 184.871094 C 447.246094 186.414062 447.113281 187.644531 448.875 188.265625 C 458.214844 191.578125 465.53125 197.761719 472.238281 204.789062 C 473.460938 206.070312 474.53125 206.472656 475.414062 204.597656 C 477.175781 200.804688 479.121094 197.054688 479.242188 192.746094 Z M 533.066406 647.472656 C 529.136719 640.226562 521.914062 638.996094 516.070312 644.742188 C 511.953125 648.796875 510.4375 653.8125 510.742188 659.613281 C 511.257812 669.507812 516.203125 678.027344 519.089844 687.167969 C 520.152344 690.523438 523.441406 691.449219 526.886719 690.457031 C 529.886719 689.59375 532.980469 689.261719 536 688.617188 C 547.65625 686.113281 557.914062 681.480469 562.597656 669.265625 C 565.578125 661.46875 562.117188 654.980469 554.050781 652.792969 C 546.933594 650.863281 541.710938 654.230469 536.304688 658.738281 C 535.300781 654.527344 534.875 650.796875 533.066406 647.472656 Z M 167.730469 654.429688 C 161.914062 653.324219 156.875 654.929688 153.089844 659.488281 C 149.511719 663.796875 150.28125 668.496094 152.792969 673.007812 C 156.132812 679.015625 160.761719 683.453125 167.339844 686.15625 C 174.976562 689.296875 183.054688 689.398438 190.964844 690.65625 C 194.75 691.257812 196.613281 688.71875 197.546875 685.414062 C 199.316406 679.144531 201.5 672.945312 202.675781 666.570312 C 204.042969 659.148438 204.148438 651.703125 198.394531 645.484375 C 192.253906 638.855469 184.179688 639.957031 180.246094 648.046875 C 178.519531 651.597656 178.597656 655.503906 177.75 659.558594 C 174.542969 657.25 171.445312 655.136719 167.730469 654.429688 Z M 338.234375 355.84375 C 328.964844 357.371094 321.542969 368.480469 325.265625 375.839844 C 329.3125 383.84375 334.761719 391.144531 344.460938 392.671875 C 348.761719 393.34375 348.742188 395.59375 347.964844 398.382812 C 345.8125 406.136719 344.023438 413.964844 342.8125 421.902344 C 342.203125 425.902344 339.839844 427.890625 336.394531 428.992188 C 332.90625 430.105469 330.019531 428.546875 327.542969 426.304688 C 325.589844 424.535156 324.035156 422.328125 322.066406 420.59375 C 320.808594 419.484375 319.082031 418.613281 317.355469 419.78125 C 315.792969 420.847656 316.152344 422.609375 316.464844 424.082031 C 319.773438 439.457031 339.375 446.910156 350.816406 436.761719 C 352.726562 435.070312 353.488281 435.433594 355.179688 437.023438 C 361.5 442.953125 368.730469 443.625 376.753906 440.570312 C 384.351562 437.675781 388.328125 432.050781 390.246094 424.570312 C 390.585938 423.246094 390.714844 421.675781 389.339844 420.722656 C 387.804688 419.652344 386.339844 420.453125 384.988281 421.238281 C 382.769531 422.519531 381.5 424.761719 379.816406 426.585938 C 377.339844 429.261719 374.226562 430.867188 370.726562 430.082031 C 366.90625 429.226562 364.511719 426.757812 363.699219 422.425781 C 362.40625 415.484375 361.816406 408.382812 358.738281 401.75 C 357.558594 399.21875 358.160156 395.503906 358.902344 392.566406 C 359.382812 390.65625 362.390625 391.046875 364.167969 390.160156 C 369.875 387.332031 375.65625 384.65625 380.304688 380.148438 C 385.457031 375.140625 385.839844 368.898438 384.367188 362.445312 C 383.085938 356.855469 378.097656 356.011719 373.492188 355.136719 C 365.800781 353.691406 357.996094 356.375 350.292969 354.542969 C 346.195312 354.300781 342.203125 355.179688 338.234375 355.835938 Z M 438.089844 315.941406 C 433.203125 311.066406 425.136719 311.195312 422.40625 316.722656 C 418.746094 324.152344 417.863281 332.203125 421.160156 340.121094 C 423.054688 344.671875 429.203125 347.917969 433.761719 347.21875 C 439.039062 346.417969 441.332031 342.808594 442.101562 337.933594 C 442.484375 335.492188 442.71875 333.015625 443.015625 330.554688 C 443.023438 325.097656 442.125 319.960938 438.089844 315.929688 Z M 273.542969 346.121094 C 275.15625 351.292969 280.25 354.03125 285.339844 352.617188 C 291.324219 350.960938 295.300781 346.023438 295.648438 339.695312 C 295.867188 335.804688 295.5625 331.941406 294.875 328.097656 C 293.835938 322.304688 291.054688 318.957031 286.476562 318.207031 C 281.828125 317.449219 276.792969 320.371094 274.351562 325.15625 C 272.609375 328.585938 272.128906 332.230469 272.285156 335.734375 C 272.179688 339.441406 272.519531 342.851562 273.542969 346.121094 Z M 429.777344 258.253906 C 427.046875 258.183594 424.535156 259.273438 423.65625 261.664062 C 422.660156 264.347656 425.292969 265.535156 427.1875 266.929688 C 428.929688 268.222656 430.78125 268.550781 432.839844 268.675781 C 438.699219 269.03125 444.140625 270.601562 448.632812 274.605469 C 452.503906 278.050781 455.234375 282.375 457.988281 286.707031 C 459.636719 289.308594 461.09375 292.082031 463.691406 293.980469 C 465.289062 295.148438 466.789062 296.152344 468.707031 294.730469 C 470.566406 293.363281 470.878906 291.835938 470.15625 289.492188 C 468.15625 283.019531 464.964844 277.222656 460.761719 272.015625 C 453.671875 263.222656 444.542969 258.304688 433.046875 258.253906 C 431.957031 258.253906 430.867188 258.28125 429.785156 258.253906 Z M 270.960938 265.613281 C 268.953125 265.796875 266.914062 265.78125 264.953125 266.179688 C 247.570312 269.789062 238.859375 282.105469 233.441406 297.695312 C 232.769531 299.632812 233.574219 300.992188 235.03125 302.136719 C 236.652344 303.410156 238.152344 302.964844 239.695312 301.863281 C 242.851562 299.625 244.605469 296.308594 246.488281 293.117188 C 252.429688 283.082031 260.113281 275.921875 272.738281 275.964844 C 276.375 275.972656 281.136719 271.804688 280.40625 269.730469 C 279.113281 266.050781 275.816406 265.554688 272.375 265.753906 C 271.910156 265.78125 271.441406 265.753906 270.976562 265.753906 C 270.976562 265.710938 270.96875 265.65625 270.960938 265.613281 Z M 270.960938 265.613281 " fill-opacity="1" fill-rule="nonzero"/></g></svg>