<svg xmlns="http://www.w3.org/2000/svg" xmlns:xlink="http://www.w3.org/1999/xlink" width="1080" zoomAndPan="magnify" viewBox="0 0 810 809.999993" height="1080" preserveAspectRatio="xMidYMid meet" version="1.0"><defs><clipPath id="37faede17f"><path d="M 276 79.296875 L 497 79.296875 L 497 255 L 276 255 Z M 276 79.296875 " clip-rule="nonzero"/></clipPath><clipPath id="c1b0958267"><path d="M 35.089844 438 L 147 438 L 147 545 L 35.089844 545 Z M 35.089844 438 " clip-rule="nonzero"/></clipPath><clipPath id="799a1d0e55"><path d="M 545 518 L 728.839844 518 L 728.839844 559 L 545 559 Z M 545 518 " clip-rule="nonzero"/></clipPath><clipPath id="3c51bb9ad8"><path d="M 709.933594 516.546875 L 733.289062 516.546875 L 733.289062 720.402344 L 709.933594 720.402344 Z M 709.933594 516.546875 " clip-rule="nonzero"/></clipPath><clipPath id="3f8849bfe0"><path d="M 731.925781 519.449219 C 733.726562 525.601562 733.425781 530.324219 732.523438 534.898438 C 731.324219 541.273438 726.75 551.023438 724.875 557.476562 C 723.449219 562.125 722.550781 565.125 721.800781 569.699219 C 720.824219 575.324219 720.601562 580.949219 720.226562 588.898438 C 719.699219 601.800781 719.476562 627.300781 720.148438 639.375 C 720.601562 646.199219 721.648438 650.023438 722.101562 655.351562 C 722.550781 660.75 722.175781 666.523438 722.925781 671.550781 C 723.523438 675.976562 725.25 679.875 725.773438 684 C 726.226562 688.050781 725.476562 692.101562 725.925781 696.226562 C 726.300781 700.351562 728.101562 705.300781 728.175781 708.601562 C 728.25 710.699219 728.101562 712.199219 727.425781 713.773438 C 726.601562 715.5 725.25 717.449219 723.523438 718.5 C 721.726562 719.699219 718.574219 720.675781 716.699219 720.300781 C 715.125 720 713.476562 718.574219 712.800781 717.375 C 712.273438 716.476562 712.125 715.199219 712.5 714.148438 C 712.875 712.875 714.226562 711 715.574219 710.476562 C 716.925781 709.949219 719.175781 710.175781 720.375 711 C 721.574219 711.75 722.625 713.773438 722.625 715.199219 C 722.625 716.625 721.425781 718.648438 720.375 719.476562 C 719.550781 720.148438 718.273438 720.449219 717.226562 720.375 C 716.175781 720.300781 714.976562 719.851562 714.148438 719.175781 C 713.398438 718.5 712.648438 717.449219 712.5 716.324219 C 712.273438 715.050781 712.875 712.949219 713.773438 711.675781 C 714.675781 710.398438 717.300781 710.476562 718.050781 708.824219 C 719.101562 706.273438 716.25 700.351562 715.875 696.226562 C 715.5 692.25 716.25 688.425781 715.800781 684.675781 C 715.351562 681.074219 714.074219 678.75 713.398438 674.101562 C 712.050781 665.398438 710.851562 649.800781 710.324219 636 C 709.648438 619.648438 709.949219 593.625 710.550781 582.375 C 710.851562 577.125 711 574.199219 711.675781 570.976562 C 712.199219 568.425781 713.25 566.925781 713.925781 564.300781 C 714.824219 560.851562 715.199219 555.300781 716.324219 551.925781 C 717.148438 549.449219 718.273438 548.25 719.324219 545.699219 C 720.824219 541.949219 723.375 534.898438 724.125 531.226562 C 724.574219 529.125 724.800781 527.625 724.574219 526.050781 C 724.425781 524.550781 723.226562 523.050781 723.074219 521.851562 C 722.925781 521.023438 723 520.351562 723.300781 519.601562 C 723.675781 518.773438 724.648438 517.648438 725.398438 517.125 C 726.074219 516.75 726.824219 516.523438 727.574219 516.601562 C 728.476562 516.601562 729.898438 517.125 730.648438 517.648438 C 731.25 518.175781 731.925781 519.449219 731.925781 519.449219 " clip-rule="nonzero"/></clipPath><clipPath id="507acc98bd"><path d="M 0.933594 0.546875 L 24.289062 0.546875 L 24.289062 204.402344 L 0.933594 204.402344 Z M 0.933594 0.546875 " clip-rule="nonzero"/></clipPath><clipPath id="c1e4027ba5"><path d="M 22.925781 3.449219 C 24.726562 9.601562 24.425781 14.324219 23.523438 18.898438 C 22.324219 25.273438 17.75 35.023438 15.875 41.476562 C 14.449219 46.125 13.550781 49.125 12.800781 53.699219 C 11.824219 59.324219 11.601562 64.949219 11.226562 72.898438 C 10.699219 85.800781 10.476562 111.300781 11.148438 123.375 C 11.601562 130.199219 12.648438 134.023438 13.101562 139.351562 C 13.550781 144.75 13.175781 150.523438 13.925781 155.550781 C 14.523438 159.976562 16.25 163.875 16.773438 168 C 17.226562 172.050781 16.476562 176.101562 16.925781 180.226562 C 17.300781 184.351562 19.101562 189.300781 19.175781 192.601562 C 19.25 194.699219 19.101562 196.199219 18.425781 197.773438 C 17.601562 199.5 16.25 201.449219 14.523438 202.5 C 12.726562 203.699219 9.574219 204.675781 7.699219 204.300781 C 6.125 204 4.476562 202.574219 3.800781 201.375 C 3.273438 200.476562 3.125 199.199219 3.5 198.148438 C 3.875 196.875 5.226562 195 6.574219 194.476562 C 7.925781 193.949219 10.175781 194.175781 11.375 195 C 12.574219 195.75 13.625 197.773438 13.625 199.199219 C 13.625 200.625 12.425781 202.648438 11.375 203.476562 C 10.550781 204.148438 9.273438 204.449219 8.226562 204.375 C 7.175781 204.300781 5.976562 203.851562 5.148438 203.175781 C 4.398438 202.5 3.648438 201.449219 3.5 200.324219 C 3.273438 199.050781 3.875 196.949219 4.773438 195.675781 C 5.675781 194.398438 8.300781 194.476562 9.050781 192.824219 C 10.101562 190.273438 7.25 184.351562 6.875 180.226562 C 6.5 176.25 7.25 172.425781 6.800781 168.675781 C 6.351562 165.074219 5.074219 162.75 4.398438 158.101562 C 3.050781 149.398438 1.851562 133.800781 1.324219 120 C 0.648438 103.648438 0.949219 77.625 1.550781 66.375 C 1.851562 61.125 2 58.199219 2.675781 54.976562 C 3.199219 52.425781 4.25 50.925781 4.925781 48.300781 C 5.824219 44.851562 6.199219 39.300781 7.324219 35.925781 C 8.148438 33.449219 9.273438 32.25 10.324219 29.699219 C 11.824219 25.949219 14.375 18.898438 15.125 15.226562 C 15.574219 13.125 15.800781 11.625 15.574219 10.050781 C 15.425781 8.550781 14.226562 7.050781 14.074219 5.851562 C 13.925781 5.023438 14 4.351562 14.300781 3.601562 C 14.675781 2.773438 15.648438 1.648438 16.398438 1.125 C 17.074219 0.75 17.824219 0.523438 18.574219 0.601562 C 19.476562 0.601562 20.898438 1.125 21.648438 1.648438 C 22.25 2.175781 22.925781 3.449219 22.925781 3.449219 " clip-rule="nonzero"/></clipPath><clipPath id="4ca7eb69aa"><rect x="0" width="25" y="0" height="205"/></clipPath></defs><path stroke-linecap="round" transform="matrix(1.459887, 0, 0, 1.460995, 10.570746, 50.222617)" fill="none" stroke-linejoin="round" d="M 267.601299 203.401061 C 332.300248 199.099093 338.200214 166.1004 338.200214 166.1004 L 340.099977 170.699148 C 344.699542 160.199564 340.999019 152.199881 340.999019 152.199881 L 343.500819 154.100875 C 343.500819 146.101192 336.699135 140.200356 336.699135 140.200356 L 340.699338 141.098716 C 332.099569 123.20103 309.200743 123.20103 309.200743 123.20103 C 313.500628 119.800095 326.499284 83.101014 301.500016 74.49975 C 276.500749 65.90116 261.701333 88.699722 261.701333 88.699722 C 254.300287 80.400586 223.799736 65.599033 211.700123 90.600717 C 199.699511 115.599726 216.599369 131.90122 216.599369 131.90122 C 216.599369 131.90122 183.599694 135.901061 182.10129 164.899913 L 186.401175 158.40017 C 186.401175 158.40017 183.000333 164.600459 187.000536 175.399497 L 187.899579 169.800788 C 187.899579 169.800788 188.801297 183.099727 198.698791 191.70099 L 196.499348 184.899121 C 196.601026 184.899121 212.299484 207.098776 267.601299 203.401061 Z M 267.601299 203.401061 " stroke="#000000" stroke-width="3" stroke-opacity="1" stroke-miterlimit="10"/><g clip-path="url(#37faede17f)"><path stroke-linecap="round" transform="matrix(1.459887, 0, 0, 1.460995, 10.570746, 50.222617)" fill="none" stroke-linejoin="round" d="M 196.601026 138.299362 C 196.601026 138.299362 168.800278 106.199029 195.399627 71.098815 C 221.998975 36.001275 261.701333 37.501215 271.598827 21.400249 C 271.598827 21.400249 275.29935 29.998839 266.699581 36.199128 C 266.699581 36.199128 284.300478 32.49874 285.798882 35.001315 C 287.299962 37.501215 274.999669 42.099964 274.999669 42.099964 C 274.999669 42.099964 298.398855 37.199088 318.801233 61.799718 C 325.00088 69.299421 328.500723 77.799085 330.199807 86.199821 C 334.200011 105.501196 328.599725 123.799936 323.400798 125.898784 " stroke="#000000" stroke-width="3" stroke-opacity="1" stroke-miterlimit="10"/></g><path stroke-linecap="round" transform="matrix(1.459887, 0, 0, 1.460995, 10.570746, 50.222617)" fill="none" stroke-linejoin="round" d="M 331.401206 85.600915 C 331.401206 85.600915 359.199278 66.79952 374.900412 88.699722 C 390.598871 110.599924 370.300847 152.900388 340.699338 141.098716 " stroke="#000000" stroke-width="3" stroke-opacity="1" stroke-miterlimit="10"/><path stroke-linecap="round" transform="matrix(1.459887, 0, 0, 1.460995, 10.570746, 50.222617)" fill="none" stroke-linejoin="round" d="M 331.401206 105.300669 C 331.098849 104.399635 337.600853 91.40015 351.800907 91.999057 C 366.000962 92.600637 370.300847 108.69893 366.600324 118.201228 " stroke="#000000" stroke-width="3" stroke-opacity="1" stroke-miterlimit="10"/><path stroke-linecap="round" transform="matrix(1.459887, 0, 0, 1.460995, 10.570746, 50.222617)" fill="none" stroke-linejoin="round" d="M 333.90033 102.800768 C 333.600649 102.800768 348.999427 107.100063 341.2987 124.398843 " stroke="#000000" stroke-width="3" stroke-opacity="1" stroke-miterlimit="10"/><path stroke-linecap="round" transform="matrix(1.459887, 0, 0, 1.460995, 10.570746, 50.222617)" fill="none" stroke-linejoin="round" d="M 184.600414 95.998898 C 184.600414 95.998898 160.200509 82.69996 143.900012 102.199188 C 127.599516 121.599489 141.101208 148.499493 152.799463 154.600855 C 164.500393 160.801145 183.800373 156.600776 183.800373 156.600776 " stroke="#000000" stroke-width="3" stroke-opacity="1" stroke-miterlimit="10"/><path stroke-linecap="round" transform="matrix(1.459887, 0, 0, 1.460995, 10.570746, 50.222617)" fill="none" stroke-linejoin="round" d="M 184.300733 113.599806 C 184.300733 113.599806 167.299198 120.399002 180.30053 138.400962 " stroke="#000000" stroke-width="3" stroke-opacity="1" stroke-miterlimit="10"/><path stroke-linecap="round" transform="matrix(1.459887, 0, 0, 1.460995, 10.570746, 50.222617)" fill="none" stroke-linejoin="round" d="M 183.000333 112.899299 C 183.000333 112.899299 168.701276 102.300788 159.601147 106.600083 C 150.501018 110.899378 147.100176 127.599251 154.000862 138.400962 " stroke="#000000" stroke-width="3" stroke-opacity="1" stroke-miterlimit="10"/><path fill="#000000" d="M 360.796875 206.257812 C 352.476562 206.257812 345.761719 214.585938 345.761719 224.957031 C 345.761719 235.332031 352.476562 243.660156 360.796875 243.660156 C 369.117188 243.660156 375.835938 235.332031 375.835938 224.957031 C 375.835938 214.585938 369.265625 206.257812 360.796875 206.257812 Z M 364.445312 222.035156 C 361.527344 222.035156 359.191406 219.550781 359.191406 216.484375 C 359.191406 213.414062 361.527344 210.933594 364.445312 210.933594 C 367.367188 210.933594 369.703125 213.414062 369.703125 216.484375 C 369.703125 219.550781 367.367188 222.035156 364.445312 222.035156 Z M 364.445312 222.035156 " fill-opacity="1" fill-rule="nonzero"/><path fill="#000000" d="M 430.433594 198.953125 C 422.113281 198.953125 415.398438 207.28125 415.398438 217.652344 C 415.398438 228.027344 422.113281 236.351562 430.433594 236.351562 C 438.753906 236.351562 445.472656 228.027344 445.472656 217.652344 C 445.472656 207.28125 438.753906 198.953125 430.433594 198.953125 Z M 433.355469 215.605469 C 430.433594 215.605469 428.097656 213.125 428.097656 210.054688 C 428.097656 206.988281 430.433594 204.503906 433.355469 204.503906 C 436.273438 204.503906 438.609375 206.988281 438.609375 210.054688 C 438.609375 213.125 436.273438 215.605469 433.355469 215.605469 Z M 433.355469 215.605469 " fill-opacity="1" fill-rule="nonzero"/><path stroke-linecap="round" transform="matrix(1.459887, 0, 0, 1.460995, 10.570746, 50.222617)" fill="none" stroke-linejoin="round" d="M 282.499717 92.801164 C 283.000077 92.801164 288.498685 89.301303 292.999249 93.699524 " stroke="#000000" stroke-width="3" stroke-opacity="1" stroke-miterlimit="10"/><path stroke-linecap="round" transform="matrix(1.459887, 0, 0, 1.460995, 10.570746, 50.222617)" fill="none" stroke-linejoin="round" d="M 228.698982 98.800927 C 228.698982 98.800927 232.998867 93.199544 239.500871 95.899972 " stroke="#000000" stroke-width="3" stroke-opacity="1" stroke-miterlimit="10"/><path stroke-linecap="round" transform="matrix(1.459887, 0, 0, 1.460995, 10.570746, 50.222617)" fill="none" stroke-linejoin="round" d="M 253.200565 133.200633 C 253.200565 133.200633 261.800335 120.201148 279.401232 130.000225 " stroke="#000000" stroke-width="3" stroke-opacity="1" stroke-miterlimit="10"/><path fill="#000000" d="M 393.789062 255.054688 C 393.789062 255.054688 380.796875 254.324219 382.550781 248.773438 C 384.300781 243.21875 391.894531 247.3125 393.789062 255.054688 Z M 393.789062 255.054688 " fill-opacity="1" fill-rule="nonzero"/><path fill="#000000" d="M 404.59375 251.546875 C 404.59375 251.546875 417.585938 250.816406 415.835938 245.265625 C 414.082031 239.714844 406.347656 243.949219 404.59375 251.546875 Z M 404.59375 251.546875 " fill-opacity="1" fill-rule="nonzero"/><path stroke-linecap="round" transform="matrix(1.459887, 0, 0, 1.460995, 10.570746, 50.222617)" fill="none" stroke-linejoin="round" d="M 268.299662 145.900665 C 268.200661 146.200119 268.599343 153.499295 268.599343 153.499295 " stroke="#000000" stroke-width="3" stroke-opacity="1" stroke-miterlimit="10"/><path stroke-linecap="round" transform="matrix(1.459887, 0, 0, 1.460995, 10.570746, 50.222617)" fill="none" stroke-linejoin="round" d="M 229.600701 162.801065 C 229.798704 162.899992 240.900273 170.699148 263.700097 171.100202 C 286.400919 171.501255 304.298821 158.100717 307.199304 154.400329 " stroke="#000000" stroke-width="3" stroke-opacity="1" stroke-miterlimit="10"/><path stroke-linecap="round" transform="matrix(1.459887, 0, 0, 1.460995, 10.570746, 50.222617)" fill="none" stroke-linejoin="round" d="M 241.601312 169.100281 C 241.799315 169.300808 251.399805 179.300412 259.499214 184.701267 C 267.601299 190.099449 279.200552 187.201168 284.998841 178.399378 C 290.799806 169.600261 292.600566 165.399893 292.600566 165.399893 " stroke="#000000" stroke-width="3" stroke-opacity="1" stroke-miterlimit="10"/><path stroke-linecap="round" transform="matrix(1.459887, 0, 0, 1.460995, 10.570746, 50.222617)" fill="none" stroke-linejoin="round" d="M 302.300057 151.400447 C 302.69874 151.600974 308.200023 152.999315 309.398747 157.699663 " stroke="#000000" stroke-width="3" stroke-opacity="1" stroke-miterlimit="10"/><path stroke-linecap="round" transform="matrix(1.459887, 0, 0, 1.460995, 10.570746, 50.222617)" fill="none" stroke-linejoin="round" d="M 232.501183 159.199604 C 232.501183 159.40013 226.999899 162.699465 226.199858 167.800867 " stroke="#000000" stroke-width="3" stroke-opacity="1" stroke-miterlimit="10"/><path stroke-linecap="round" transform="matrix(1.459887, 0, 0, 1.460995, 10.570746, 50.222617)" fill="none" stroke-linejoin="round" d="M 259.100532 184.099687 C 258.998854 183.800234 260.200253 180.198772 263.298739 178.300451 C 266.3999 176.399457 269.300382 179.800392 270.301102 179.500939 C 271.299146 179.198812 272.800226 176.599984 276.80043 177.198891 C 280.698957 177.800471 282.499717 181.599786 282.499717 181.599786 " stroke="#000000" stroke-width="3" stroke-opacity="1" stroke-miterlimit="10"/><path stroke-linecap="round" transform="matrix(1.459887, 0, 0, 1.460995, 10.570746, 50.222617)" fill="none" stroke-linejoin="round" d="M 247.300599 203.401061 C 247.300599 203.401061 246.701237 204.901002 247.800959 207.200376 C 248.799003 209.49975 254.399289 212.499632 254.300287 213.101212 " stroke="#000000" stroke-width="3" stroke-opacity="1" stroke-miterlimit="10"/><path stroke-linecap="round" transform="matrix(1.459887, 0, 0, 1.460995, 10.570746, 50.222617)" fill="none" stroke-linejoin="round" d="M 246.500558 207.49983 C 246.500558 207.49983 231.599465 208.400863 231.000103 209.799204 C 230.400741 211.200218 235.200986 211.799125 235.200986 211.799125 C 235.200986 211.799125 224.698779 216.900527 224.800456 218.699921 C 224.899458 220.600915 229.100341 218.101014 229.100341 218.101014 C 229.100341 218.101014 218.499132 225.499117 218.600809 227.699564 C 218.699811 229.900012 223.898738 226.699604 223.898738 226.699604 C 223.898738 226.699604 205.200795 264.401319 199.999192 278.999671 C 194.800265 293.600697 193.799545 306.800709 194.299905 308.80063 C 194.899267 310.899477 197.700747 306.800709 197.700747 306.800709 C 197.700747 306.800709 197.898751 316.099806 199.399831 315.500899 C 200.90091 314.899319 201.599274 311.800511 201.599274 311.800511 C 201.599274 311.800511 201.599274 316.099806 203.600713 316.50086 C 205.599478 317.00084 206.099837 313.399378 206.099837 313.399378 C 206.099837 313.399378 206.399518 316.099806 208.200279 316.50086 C 209.899362 317.00084 210.699403 313.000998 210.900082 313.399378 C 210.999084 313.698832 212.098805 318.701307 214.801284 318.300254 C 217.600089 317.800274 218.40013 315.399299 218.600809 315.800353 C 218.798812 316.099806 220.299892 319.500741 222.199655 317.00084 C 224.099417 314.500939 232.099825 295.699545 232.800864 282.400606 C 233.499227 269.098994 232.998867 247.899299 237.900789 238.199148 " stroke="#000000" stroke-width="3" stroke-opacity="1" stroke-miterlimit="10"/><path stroke-linecap="round" transform="matrix(1.459887, 0, 0, 1.460995, 10.570746, 50.222617)" fill="none" stroke-linejoin="round" d="M 249.500042 272.999909 C 249.500042 272.999909 236.001027 261.898744 240.900273 242.69897 C 245.901197 223.499196 265.099499 204.401022 287.000281 215.400586 C 309.000064 226.40015 308.700383 240.300669 309.701103 249.89922 C 310.600146 259.500444 304.4995 266.79962 304.4995 266.79962 C 304.4995 266.79962 317.000472 286.798828 305.898903 306.100202 C 294.80001 325.398903 267.799303 324.599469 257.899133 312.599945 C 247.998962 300.49882 246.0992 282.900586 249.500042 272.999909 Z M 249.500042 272.999909 " stroke="#000000" stroke-width="3" stroke-opacity="1" stroke-miterlimit="10"/><path stroke-linecap="round" transform="matrix(1.459887, 0, 0, 1.460995, 10.570746, 50.222617)" fill="none" stroke-linejoin="round" d="M 276.599751 267.79958 C 276.500749 267.500127 281.199316 257.20107 271.400824 245.899378 " stroke="#000000" stroke-width="3" stroke-opacity="1" stroke-miterlimit="10"/><path stroke-linecap="round" transform="matrix(1.459887, 0, 0, 1.460995, 10.570746, 50.222617)" fill="none" stroke-linejoin="round" d="M 276.399072 242.600044 C 276.399072 242.600044 278.298834 247.000939 277.30079 255.000622 " stroke="#000000" stroke-width="3" stroke-opacity="1" stroke-miterlimit="10"/><path stroke-linecap="round" transform="matrix(1.459887, 0, 0, 1.460995, 10.570746, 50.222617)" fill="none" stroke-linejoin="round" d="M 232.399505 286.298847 C 232.399505 286.798828 231.000103 296.699505 236.999071 304.699188 " stroke="#000000" stroke-width="3" stroke-opacity="1" stroke-miterlimit="10"/><path stroke-linecap="round" transform="matrix(1.459887, 0, 0, 1.460995, 10.570746, 50.222617)" fill="none" stroke-linejoin="round" d="M 246.59956 308.30065 C 246.59956 308.30065 231.800144 300.60042 224.300096 311.399458 C 216.800048 322.201169 226.199858 358.90025 235.099309 368.6004 C 243.998759 378.300551 247.60028 379.399438 247.501278 377.899497 C 247.399601 376.399557 246.59956 373.899656 246.701237 374.300709 C 246.800239 374.80069 250.300083 378.198951 252.100844 377.800571 C 254.000606 377.300591 252.298847 373.800729 252.700205 374.300709 C 252.999886 374.899616 256.700409 378.600004 258.699173 377.69897 C 260.700613 376.80061 259.199533 373.800729 259.199533 373.800729 C 259.199533 373.800729 263.400416 375.501197 264.200457 374.100183 C 265.000498 372.699169 265.099499 368.800927 265.39918 369.100381 C 265.599859 369.399834 268.800022 370.600321 270.301102 368.4988 C 271.799506 366.399953 264.200457 336.099014 250.300083 323.701109 " stroke="#000000" stroke-width="3" stroke-opacity="1" stroke-miterlimit="10"/><path stroke-linecap="round" transform="matrix(1.459887, 0, 0, 1.460995, 10.570746, 50.222617)" fill="none" stroke-linejoin="round" d="M 261.398976 337.901082 C 261.398976 337.901082 267.100939 339.598875 276.099391 335.599034 " stroke="#000000" stroke-width="3" stroke-opacity="1" stroke-miterlimit="10"/><path stroke-linecap="round" transform="matrix(1.459887, 0, 0, 1.460995, 10.570746, 50.222617)" fill="none" stroke-linejoin="round" d="M 262.900056 327.09937 C 262.900056 327.09937 271.598827 336.799521 280.599955 336.401141 C 289.601082 335.901161 296.699772 325.20105 296.699772 325.20105 " stroke="#000000" stroke-width="3" stroke-opacity="1" stroke-miterlimit="10"/><path stroke-linecap="round" transform="matrix(1.459887, 0, 0, 1.460995, 10.570746, 50.222617)" fill="none" stroke-linejoin="round" d="M 284.501157 335.901161 C 284.501157 335.901161 289.799086 339.299422 299.399575 336.901121 " stroke="#000000" stroke-width="3" stroke-opacity="1" stroke-miterlimit="10"/><path stroke-linecap="round" transform="matrix(1.459887, 0, 0, 1.460995, 10.570746, 50.222617)" fill="none" stroke-linejoin="round" d="M 247.399601 377.399517 C 247.399601 377.399517 245.901197 389.099588 253.500246 398.599212 C 261.099296 408.098836 267.298943 406.098915 267.601299 404.799501 C 267.90098 403.500088 267.40062 402.500127 267.40062 402.500127 C 267.40062 402.500127 270.301102 405.200555 273.800946 403.200634 C 277.30079 401.200713 276.099391 398.200832 276.099391 398.200832 C 276.099391 398.200832 281.498997 400.29968 282.598719 394.500444 C 283.599439 388.701209 278.298834 385.500801 278.298834 385.500801 C 278.298834 385.500801 275.500029 373.399676 270.600783 367.99882 " stroke="#000000" stroke-width="3" stroke-opacity="1" stroke-miterlimit="10"/><path stroke-linecap="round" transform="matrix(1.459887, 0, 0, 1.460995, 10.570746, 50.222617)" fill="none" stroke-linejoin="round" d="M 274.999669 397.398725 C 274.999669 397.398725 271.200145 395.500404 268.599343 389.300115 " stroke="#000000" stroke-width="3" stroke-opacity="1" stroke-miterlimit="10"/><path stroke-linecap="round" transform="matrix(1.459887, 0, 0, 1.460995, 10.570746, 50.222617)" fill="none" stroke-linejoin="round" d="M 260.901292 391.398963 C 261.000294 391.70109 261.698657 397.599252 267.40062 402.500127 " stroke="#000000" stroke-width="3" stroke-opacity="1" stroke-miterlimit="10"/><path stroke-linecap="round" transform="matrix(1.459887, 0, 0, 1.460995, 10.570746, 50.222617)" fill="none" stroke-linejoin="round" d="M 274.100627 384.50084 C 274.600987 384.50084 279.500233 385.00082 282.101035 390.599529 " stroke="#000000" stroke-width="3" stroke-opacity="1" stroke-miterlimit="10"/><path stroke-linecap="round" transform="matrix(1.459887, 0, 0, 1.460995, 10.570746, 50.222617)" fill="none" stroke-linejoin="round" d="M 196.400347 308.69903 C 196.199667 308.899557 183.000333 315.198772 182.700652 320.800155 C 182.400971 326.398863 184.900095 326.799917 184.900095 326.799917 C 184.900095 326.799917 183.800373 329.398745 186.898859 331.799719 C 190.00002 334.200693 191.399423 331.700792 191.399423 331.700792 C 191.399423 331.700792 191.899783 333.90124 196.298669 334.200693 C 200.700231 334.500147 211.999804 331.599192 214.801284 327.09937 C 217.699091 322.599549 219.40085 317.50082 219.40085 317.50082 " stroke="#000000" stroke-width="3" stroke-opacity="1" stroke-miterlimit="10"/><path stroke-linecap="round" transform="matrix(1.459887, 0, 0, 1.460995, 10.570746, 50.222617)" fill="none" stroke-linejoin="round" d="M 202.099634 321.300135 C 202.099634 321.300135 191.300421 322.899002 192.199464 332.299699 " stroke="#000000" stroke-width="3" stroke-opacity="1" stroke-miterlimit="10"/><path stroke-linecap="round" transform="matrix(1.459887, 0, 0, 1.460995, 10.570746, 50.222617)" fill="none" stroke-linejoin="round" d="M 192.999504 319.000761 C 192.999504 319.000761 185.601134 320.899081 184.498737 327.898804 " stroke="#000000" stroke-width="3" stroke-opacity="1" stroke-miterlimit="10"/><path stroke-linecap="round" transform="matrix(1.459887, 0, 0, 1.460995, 10.570746, 50.222617)" fill="none" stroke-linejoin="round" d="M 182.898655 324.70107 C 182.898655 324.70107 130.299319 315.800353 118.100704 311.698911 C 105.899414 307.600143 103.499292 306.399656 102.39957 304.600262 C 101.299848 302.800868 98.899726 287.600935 99.900446 283.798946 C 101.000168 279.900705 121.69955 271.598895 117.099985 262.398725 C 117.000983 262.200871 99.100405 262.898705 99.400086 282.200079 " stroke="#000000" stroke-width="3" stroke-opacity="1" stroke-miterlimit="10"/><path stroke-linecap="round" transform="matrix(1.459887, 0, 0, 1.460995, 10.570746, 50.222617)" fill="none" stroke-linejoin="round" d="M 100.499808 264.401319 C 99.900446 264.700772 102.099889 249.599766 113.000779 244.300511 C 113.000779 244.300511 109.698939 260.200951 100.499808 264.401319 Z M 100.499808 264.401319 " stroke="#000000" stroke-width="3" stroke-opacity="1" stroke-miterlimit="10"/><path stroke-linecap="round" transform="matrix(1.459887, 0, 0, 1.460995, 10.570746, 50.222617)" fill="none" stroke-linejoin="round" d="M 98.300364 262.200871 C 98.300364 261.799818 99.199407 251.89914 98.000684 248.198752 C 96.799285 244.399438 96.199923 245.500998 97.200643 241.600083 C 98.198687 237.699168 93.50012 225.90017 92.700079 225.301264 C 91.900038 224.699683 90.599638 235.498721 91.399678 238.899655 C 92.199719 242.399517 94.300161 249.800293 93.50012 249.800293 C 92.700079 249.800293 86.599434 242.001137 81.499508 238.800729 C 76.300581 235.600321 72.000697 234.800887 72.501056 236.800808 C 72.998741 238.800729 77.100622 245.899378 83.300269 249.89922 C 89.499916 253.899061 95.80124 257.299996 96.199923 268.401161 C 96.601281 279.499652 93.700799 298.498899 92.4994 299.498859 C 91.300677 300.49882 73.900459 281.601173 70.100934 276.700297 C 66.298734 271.799422 66.900771 262.799778 68.899535 261.898744 C 70.900975 261.000384 72.399379 271.499968 72.000697 277.299204 " stroke="#000000" stroke-width="3" stroke-opacity="1" stroke-miterlimit="10"/><g clip-path="url(#c1b0958267)"><path stroke-linecap="round" transform="matrix(1.459887, 0, 0, 1.460995, 10.570746, 50.222617)" fill="none" stroke-linejoin="round" d="M 65.498693 275.799263 C 65.30069 275.598737 58.301002 266.90122 47.798794 267.099073 C 47.798794 267.099073 50.899956 273.299362 56.299562 275.700337 C 61.699168 277.999711 63.499929 276.700297 66.499413 278.400765 C 69.399895 280.101232 91.699359 309.19901 91.900038 311.698911 C 92.100717 314.198812 73.499101 315.198772 64.500649 315.599826 C 55.40052 316.00088 35.89986 313.099925 30.500254 307.001236 C 30.500254 307.001236 34.59946 313.399378 43.399908 316.599786 C 52.200356 319.800194 57.399284 320.701228 57.099603 322.099568 C 56.898924 323.500582 44.99999 327.898804 41.401144 328.200931 C 37.799623 328.500384 26.50005 325.398903 18.60132 336.099014 C 18.60132 336.099014 24.899969 338.299462 32.001334 334.500147 C 39.100023 330.700832 41.799826 328.898764 41.799826 328.898764 " stroke="#000000" stroke-width="3" stroke-opacity="1" stroke-miterlimit="10"/></g><path stroke-linecap="round" transform="matrix(1.459887, 0, 0, 1.460995, 10.570746, 50.222617)" fill="none" stroke-linejoin="round" d="M 61.000805 324.000563 C 60.701124 324.000563 41.401144 334.9012 38.099303 341.99985 C 34.800139 349.101173 28.199133 352.601034 27.800451 350.298986 C 27.50077 347.999612 31.300295 342.799283 36.999582 341.400943 " stroke="#000000" stroke-width="3" stroke-opacity="1" stroke-miterlimit="10"/><path stroke-linecap="round" transform="matrix(1.459887, 0, 0, 1.460995, 10.570746, 50.222617)" fill="none" stroke-linejoin="round" d="M 54.100119 333.599113 C 54.100119 333.599113 44.99999 342.598757 50.300594 359.90021 C 50.300594 359.90021 62.400207 344.098697 54.300798 333.79964 " stroke="#000000" stroke-width="3" stroke-opacity="1" stroke-miterlimit="10"/><path stroke-linecap="round" transform="matrix(1.459887, 0, 0, 1.460995, 10.570746, 50.222617)" fill="none" stroke-linejoin="round" d="M 55.100839 334.000167 C 55.100839 334.000167 59.799406 327.299897 73.900459 323.701109 C 87.998836 320.099648 102.099889 331.299739 102.099889 331.299739 C 102.099889 331.299739 81.100826 331.401339 70.700296 345.299184 C 70.700296 345.299184 88.499196 339.700476 112.099061 340.098856 C 135.698926 340.499909 169.39964 354.100975 192.400143 359.801284 C 215.400646 365.498919 236.600388 371.600282 236.600388 371.600282 " stroke="#000000" stroke-width="3" stroke-opacity="1" stroke-miterlimit="10"/><path stroke-linecap="round" transform="matrix(1.459887, 0, 0, 1.460995, 10.570746, 50.222617)" fill="none" stroke-linejoin="round" d="M 77.100622 292.100757 C 77.100622 292.100757 64.80033 294.600658 58.999365 287.600935 C 58.999365 287.600935 66.400411 282.400606 72.899739 285.900468 " stroke="#000000" stroke-width="3" stroke-opacity="1" stroke-miterlimit="10"/><path stroke-linecap="round" transform="matrix(1.459887, 0, 0, 1.460995, 10.570746, 50.222617)" fill="none" stroke-linejoin="round" d="M 132.60044 314.000959 C 132.399761 313.800432 126.299116 305.600222 130.200318 294.600658 C 130.200318 294.600658 140.400169 299.301006 133.799163 314.099885 " stroke="#000000" stroke-width="3" stroke-opacity="1" stroke-miterlimit="10"/><path stroke-linecap="round" transform="matrix(1.459887, 0, 0, 1.460995, 10.570746, 50.222617)" fill="none" stroke-linejoin="round" d="M 145.401092 345.900765 C 145.401092 345.900765 136.001282 353.798848 130.799679 355.400388 C 125.600752 356.999256 113.099781 362.801165 113.80082 364.301105 C 114.400181 365.801046 125.499075 364.600559 135.500922 359.801284 C 145.401092 354.999335 155.199585 348.400666 155.199585 348.400666 " stroke="#000000" stroke-width="3" stroke-opacity="1" stroke-miterlimit="10"/><path stroke-linecap="round" transform="matrix(1.459887, 0, 0, 1.460995, 10.570746, 50.222617)" fill="none" stroke-linejoin="round" d="M 147.100176 354.600955 C 147.100176 354.600955 144.100692 357.600836 146.099456 365.399992 C 148.100895 373.199149 153.701181 375.600123 154.300542 374.80069 C 154.800902 374.001256 157.201025 358.999176 147.498858 354.499355 " stroke="#000000" stroke-width="3" stroke-opacity="1" stroke-miterlimit="10"/><path stroke-linecap="round" transform="matrix(1.459887, 0, 0, 1.460995, 10.570746, 50.222617)" fill="none" stroke-linejoin="round" d="M 129.600956 362.400111 C 129.301275 362.301185 124.300352 363.900052 126.901153 374.699089 C 126.901153 374.699089 136.801323 369.498761 135.500922 359.499157 " stroke="#000000" stroke-width="3" stroke-opacity="1" stroke-miterlimit="10"/><path stroke-linecap="round" transform="matrix(1.459887, 0, 0, 1.460995, 10.570746, 50.222617)" fill="none" stroke-linejoin="round" d="M 311.999548 316.89924 C 311.699867 317.50082 302.300057 333.200733 298.398855 345.900765 C 294.500329 358.499196 296.199412 366.100499 297.598814 366.699406 C 299.000892 367.300987 300.400295 361.600678 300.400295 361.600678 C 300.400295 361.600678 299.501252 367.899893 301.500016 368.99878 C 303.498781 370.100341 304.601178 366.199426 304.601178 366.199426 C 304.601178 366.199426 303.498781 370.699248 306.300261 371.800808 C 309.099066 372.899695 310.000784 369.600361 310.000784 369.600361 C 310.000784 369.600361 309.099066 372.699169 311.900546 373.600202 C 314.699351 374.501236 315.10071 370.800848 315.10071 370.800848 C 315.10071 370.800848 314.300669 375.30067 316.599114 374.699089 C 318.900234 374.100183 319.999956 370.800848 319.999956 370.800848 C 319.999956 370.800848 319.999956 377.001137 324.200839 375.100143 C 328.399046 373.199149 348.900425 348.700119 343.201138 321.099608 C 337.499175 293.499097 315.298713 300.60042 311.699867 304.100281 " stroke="#000000" stroke-width="3" stroke-opacity="1" stroke-miterlimit="10"/><path stroke-linecap="round" transform="matrix(1.459887, 0, 0, 1.460995, 10.570746, 50.222617)" fill="none" stroke-linejoin="round" d="M 318.300873 299.60046 C 318.300873 299.60046 323.400798 287.600935 321.099677 268.000107 C 318.801233 248.399279 311.999548 236.399754 311.999548 236.399754 " stroke="#000000" stroke-width="3" stroke-opacity="1" stroke-miterlimit="10"/><path stroke-linecap="round" transform="matrix(1.459887, 0, 0, 1.460995, 10.570746, 50.222617)" fill="none" stroke-linejoin="round" d="M 291.599846 199.7996 C 291.599846 199.7996 290.401123 204.401022 285.400199 208.900844 " stroke="#000000" stroke-width="3" stroke-opacity="1" stroke-miterlimit="10"/><path stroke-linecap="round" transform="matrix(1.459887, 0, 0, 1.460995, 10.570746, 50.222617)" fill="none" stroke-linejoin="round" d="M 289.799086 206.499869 C 289.799086 206.499869 300.100614 203.700515 305.098862 205.999889 C 310.000784 208.299263 312.299229 211.700198 310.699147 211.601271 C 309.000064 211.400745 304.799181 210.799164 304.799181 210.799164 C 304.799181 210.799164 318.498876 216.400547 319.900954 219.699881 C 321.300357 223.100816 316.700791 221.900329 316.700791 221.900329 C 316.700791 221.900329 325.50124 224.999136 343.201138 253.500681 C 360.901037 281.999553 364.499882 322.599549 363.400161 324.398943 C 362.300439 326.299937 359.999318 321.800115 359.999318 321.800115 C 359.999318 321.800115 361.398721 327.500424 358.599916 328.700911 C 355.801111 329.898725 355.199074 327.799877 355.199074 327.799877 C 355.199074 327.799877 355.999115 332.099172 353.499991 332.099172 C 351.000867 332.099172 348.699746 327.799877 348.699746 327.799877 C 348.699746 327.799877 348.499067 334.599073 345.499583 332.299699 " stroke="#000000" stroke-width="3" stroke-opacity="1" stroke-miterlimit="10"/><path stroke-linecap="round" transform="matrix(1.459887, 0, 0, 1.460995, 10.570746, 50.222617)" fill="none" stroke-linejoin="round" d="M 321.800716 283.298966 C 321.800716 283.298966 321.600037 293.499097 326.30128 299.800986 " stroke="#000000" stroke-width="3" stroke-opacity="1" stroke-miterlimit="10"/><path stroke-linecap="round" transform="matrix(1.459887, 0, 0, 1.460995, 10.570746, 50.222617)" fill="none" stroke-linejoin="round" d="M 353.101308 273.999869 C 353.101308 273.999869 362.198762 269.200594 362.998802 251.300234 C 363.798843 233.399873 359.801315 201.799521 381.001058 186.099608 C 402.299802 170.399695 413.398695 188.599509 410.800569 194.000364 C 408.199768 199.40122 384.899584 187.500622 381.199061 215.400586 C 377.501214 243.300551 387.800066 290.798669 361.299719 299.399933 " stroke="#000000" stroke-width="3" stroke-opacity="1" stroke-miterlimit="10"/><path stroke-linecap="round" transform="matrix(1.459887, 0, 0, 1.460995, 10.570746, 50.222617)" fill="none" stroke-linejoin="round" d="M 341.900737 347.601232 C 341.900737 347.601232 340.399658 360.900171 343.000459 363.801125 C 345.60126 366.699406 348.400065 359.801284 348.400065 359.801284 C 348.400065 359.801284 346.200622 364.600559 350.398829 367.699367 C 354.599712 370.800848 356.400473 363.400072 356.400473 363.400072 C 356.400473 363.400072 359.001274 367.10046 362.899801 364.600559 C 366.801003 362.100658 372.599292 341.49987 360.298999 326.20101 " stroke="#000000" stroke-width="3" stroke-opacity="1" stroke-miterlimit="10"/><path stroke-linecap="round" transform="matrix(1.459887, 0, 0, 1.460995, 10.570746, 50.222617)" fill="none" stroke-linejoin="round" d="M 351.000867 346.900725 C 351.000867 346.900725 350.398829 357.199782 347.099665 361.199624 " stroke="#000000" stroke-width="3" stroke-opacity="1" stroke-miterlimit="10"/><path stroke-linecap="round" transform="matrix(1.459887, 0, 0, 1.460995, 10.570746, 50.222617)" fill="none" stroke-linejoin="round" d="M 358.099556 346.799125 C 358.099556 347.299105 358.698918 358.199743 355.801111 364.400032 " stroke="#000000" stroke-width="3" stroke-opacity="1" stroke-miterlimit="10"/><path stroke-linecap="round" transform="matrix(1.459887, 0, 0, 1.460995, 10.570746, 50.222617)" fill="none" stroke-linejoin="round" d="M 295.300369 362.999018 C 295.198692 363.301145 281.900356 374.300709 283.299758 383.599806 C 284.69916 392.898903 287.500641 389.399042 287.500641 389.399042 C 287.500641 389.399042 286.299242 394.09939 289.999765 395.599331 C 293.700288 397.099272 294.701008 393.898864 294.701008 393.898864 C 294.701008 393.898864 294.59933 398.398685 297.799493 398.799739 C 300.999657 399.099192 302.899419 395.898784 302.899419 395.898784 C 302.899419 395.898784 302.599738 399.700773 309.599426 398.299759 C 316.599114 396.898745 325.699243 383.50088 325.899922 374.100183 " stroke="#000000" stroke-width="3" stroke-opacity="1" stroke-miterlimit="10"/><path stroke-linecap="round" transform="matrix(1.459887, 0, 0, 1.460995, 10.570746, 50.222617)" fill="none" stroke-linejoin="round" d="M 310.099786 386.599687 C 310.099786 386.599687 304.70018 390.000622 302.500736 396.398765 " stroke="#000000" stroke-width="3" stroke-opacity="1" stroke-miterlimit="10"/><path stroke-linecap="round" transform="matrix(1.459887, 0, 0, 1.460995, 10.570746, 50.222617)" fill="none" stroke-linejoin="round" d="M 303.001096 384.300313 C 302.899419 384.599767 296.10041 387.800175 294.701008 394.799897 " stroke="#000000" stroke-width="3" stroke-opacity="1" stroke-miterlimit="10"/><path stroke-linecap="round" transform="matrix(1.459887, 0, 0, 1.460995, 10.570746, 50.222617)" fill="none" stroke-linejoin="round" d="M 296.400091 380.099945 C 296.400091 380.099945 288.900043 384.099786 287.398963 391.201109 " stroke="#000000" stroke-width="3" stroke-opacity="1" stroke-miterlimit="10"/><path stroke-linecap="round" transform="matrix(1.459887, 0, 0, 1.460995, 10.570746, 50.222617)" fill="none" stroke-linejoin="round" d="M 275.700709 376.100103 C 276.000389 376.30063 278.100831 378.800531 283.39876 378.100024 " stroke="#000000" stroke-width="3" stroke-opacity="1" stroke-miterlimit="10"/><path stroke-linecap="round" transform="matrix(1.459887, 0, 0, 1.460995, 10.570746, 50.222617)" fill="none" stroke-linejoin="round" d="M 321.399358 387.701248 C 321.399358 387.701248 336.300452 386.899141 338.101213 391.70109 C 339.899298 396.500365 331.299528 410.299284 329.199087 412.499731 C 327.101321 414.700179 316.500112 409.299323 307.100302 413.400765 C 307.100302 413.400765 310.998828 417.400607 316.500112 416.799026 C 321.99872 416.200119 327.500004 414.700179 327.500004 414.700179 C 327.500004 414.700179 316.200431 426.499177 310.399467 430.301165 C 304.601178 434.10048 299.198896 429.999038 293.900967 437.899795 C 293.900967 437.899795 301.898699 440.199169 306.50094 435.699347 " stroke="#000000" stroke-width="3" stroke-opacity="1" stroke-miterlimit="10"/><path stroke-linecap="round" transform="matrix(1.459887, 0, 0, 1.460995, 10.570746, 50.222617)" fill="none" stroke-linejoin="round" d="M 302.201056 447.300492 C 302.000376 447.001038 292.699568 449.000959 293.100926 464.398745 C 293.100926 464.398745 307.399983 456.300135 302.201056 447.300492 Z M 302.201056 447.300492 " stroke="#000000" stroke-width="3" stroke-opacity="1" stroke-miterlimit="10"/><path stroke-linecap="round" transform="matrix(1.459887, 0, 0, 1.460995, 10.570746, 50.222617)" fill="none" stroke-linejoin="round" d="M 312.700587 436.399854 C 312.700587 436.399854 307.699664 439.100282 309.099066 447.599945 C 310.501144 456.201209 313.299949 456.599589 314.198991 455.201248 C 315.199711 453.899161 316.40111 445.600024 312.700587 436.399854 Z M 312.700587 436.399854 " stroke="#000000" stroke-width="3" stroke-opacity="1" stroke-miterlimit="10"/><path stroke-linecap="round" transform="matrix(1.459887, 0, 0, 1.460995, 10.570746, 50.222617)" fill="none" stroke-linejoin="round" d="M 313.800309 435.699347 C 314.000988 434.99884 332.300248 419.400527 341.100697 408.098836 C 349.901145 396.799818 349.700466 391.398963 351.69923 390.201149 C 353.799671 388.899062 432.398994 407.499929 443.299884 414.799105 C 454.200774 422.100955 481.099804 454.399141 482.400204 456.399062 " stroke="#000000" stroke-width="3" stroke-opacity="1" stroke-miterlimit="10"/><path stroke-linecap="round" transform="matrix(1.459887, 0, 0, 1.460995, 10.570746, 50.222617)" fill="none" stroke-linejoin="round" d="M 333.001287 418.400567 C 333.001287 418.400567 332.89961 422.999315 337.499175 427.40021 C 342.098741 431.801106 347.600024 434.49886 347.899705 432.600539 C 348.199386 430.699545 343.698822 420.999394 339.800296 419.2 C 335.899094 417.299006 333.199291 417.20008 333.199291 417.20008 " stroke="#000000" stroke-width="3" stroke-opacity="1" stroke-miterlimit="10"/><path stroke-linecap="round" transform="matrix(1.459887, 0, 0, 1.460995, 10.570746, 50.222617)" fill="none" stroke-linejoin="round" d="M 324.200839 426.699703 C 324.200839 426.699703 321.501036 431.900032 321.800716 438.498701 C 321.99872 445.100044 323.299121 447.800472 324.099161 448.198852 C 324.899202 448.698832 329.801124 435.699347 326.199603 426.90023 " stroke="#000000" stroke-width="3" stroke-opacity="1" stroke-miterlimit="10"/><path stroke-linecap="round" transform="matrix(1.459887, 0, 0, 1.460995, 10.570746, 50.222617)" fill="none" stroke-linejoin="round" d="M 196.199667 288.900349 C 195.998988 288.798748 195.399627 286.298847 191.099742 278.799145 C 186.799857 271.299442 174.700244 268.700614 174.100882 270.500008 C 173.600523 272.401002 179.398811 279.799105 184.900095 282.400606 C 190.398703 284.999434 193.200183 284.298927 193.200183 284.298927 " stroke="#000000" stroke-width="3" stroke-opacity="1" stroke-miterlimit="10"/><g clip-path="url(#799a1d0e55)"><path stroke-linecap="round" transform="matrix(1.459887, 0, 0, 1.460995, 10.570746, 50.222617)" fill="none" stroke-linejoin="round" d="M 368.200405 345.900765 C 369.800487 345.900765 451.698974 353.101014 490.100931 322.099568 " stroke="#000000" stroke-width="3" stroke-opacity="1" stroke-miterlimit="10"/></g><path stroke-linecap="round" transform="matrix(1.459887, 0, 0, 1.460995, 10.570746, 50.222617)" fill="none" stroke-linejoin="round" d="M 392.501309 344.499751 C 392.501309 344.499751 394.098715 338.901042 388.300426 332.500226 C 382.499462 326.000483 378.600935 320.701228 381.39974 318.39918 C 384.201221 316.099806 391.80027 333.40126 391.80027 333.40126 C 391.80027 333.40126 399.39932 311.698911 404.499245 314.899319 C 409.59917 318.099727 394.799754 337.799481 394.799754 337.799481 " stroke="#000000" stroke-width="3" stroke-opacity="1" stroke-miterlimit="10"/><g clip-path="url(#3c51bb9ad8)"><g clip-path="url(#3f8849bfe0)"><g transform="matrix(1, 0, 0, 1, 709, 516)"><g clip-path="url(#4ca7eb69aa)"><g clip-path="url(#507acc98bd)"><g clip-path="url(#c1e4027ba5)"><rect x="-887.2" width="1166.4" fill="#1e1e1e" height="1166.39999" y="-694.199998" fill-opacity="1"/></g></g></g></g></g></g></svg>