<svg xmlns="http://www.w3.org/2000/svg" xmlns:xlink="http://www.w3.org/1999/xlink" width="1080" zoomAndPan="magnify" viewBox="0 0 810 809.999993" height="1080" preserveAspectRatio="xMidYMid meet" version="1.0"><path fill="#000000" d="M 353.742188 81.75 C 353.925781 91.292969 355.339844 100.421875 361.082031 108.296875 C 363.59375 111.746094 366.496094 114.800781 370.695312 117.507812 C 368.914062 106.558594 369.234375 96.363281 372.75 85.8125 C 377.699219 94.390625 383.660156 101.316406 391.554688 106.464844 C 401.523438 112.960938 412.746094 116.070312 424.183594 118.457031 C 450.542969 123.949219 476.640625 130.25 501.332031 141.34375 C 507.4375 144.089844 513.535156 146.863281 519.324219 150.234375 C 521.4375 151.464844 522.160156 151.324219 522.867188 148.671875 C 529.816406 122.597656 544.992188 103.289062 570.632812 93.695312 C 593.289062 85.214844 615.933594 87.496094 637.167969 98.292969 C 674.191406 117.117188 699.074219 146.226562 707.261719 187.632812 C 712.125 212.21875 708.625 235.707031 691.890625 255.550781 C 675.800781 274.625 654.757812 281.707031 630.191406 279.066406 C 624.351562 278.4375 618.703125 276.917969 612.726562 275.015625 C 614.042969 281.121094 615.355469 286.804688 616.484375 292.527344 C 622.066406 320.8125 624.265625 349.300781 620.855469 378.023438 C 615.867188 420.019531 593.875 450.628906 557.601562 471.523438 C 551.796875 474.871094 545.835938 477.917969 539.675781 480.550781 C 537.808594 481.34375 536.96875 481.867188 538.308594 484.113281 C 549.042969 502.113281 555.65625 521.535156 557.816406 542.414062 C 557.9375 543.601562 558.183594 544.707031 558.816406 545.683594 C 562.402344 551.210938 565.785156 556.847656 568.632812 562.796875 C 569.210938 564 570.265625 564.679688 571.320312 565.410156 C 586.796875 576.164062 592.570312 591.230469 590.828125 609.574219 C 590.671875 611.242188 590.480469 612.554688 592.003906 613.878906 C 604.179688 624.453125 608.894531 638.386719 608.117188 653.910156 C 606.578125 684.71875 592.40625 707.992188 564.605469 722.164062 C 552.09375 728.539062 538.425781 728.269531 524.871094 727.308594 C 507.636719 726.089844 491.308594 721.296875 475.71875 713.933594 C 474.542969 713.378906 473.484375 713.121094 472.101562 713.425781 C 438.503906 720.84375 404.527344 721.867188 370.363281 719.085938 C 357.816406 718.0625 345.355469 716.226562 333.070312 713.414062 C 331.085938 712.960938 329.5625 713.25 327.808594 714.078125 C 306.863281 723.976562 284.875 728.828125 261.640625 727.664062 C 239.53125 726.550781 223.507812 715.171875 211.113281 697.738281 C 208.980469 694.738281 207.121094 691.511719 205.4375 688.234375 C 202.195312 681.933594 199.496094 675.496094 194.933594 669.765625 C 189.355469 662.753906 188.566406 653.601562 187.386719 644.878906 C 186.5 638.332031 186.351562 631.746094 186.523438 625.15625 C 186.582031 622.976562 186.101562 621.332031 184.324219 619.714844 C 179.742188 615.535156 179.46875 610.234375 181.523438 604.734375 C 183.445312 599.578125 187.035156 595.671875 191.609375 592.742188 C 193.050781 591.820312 194.050781 590.761719 194.785156 589.261719 C 203.542969 571.351562 218.164062 562.78125 237.851562 562.625 C 240.996094 562.597656 242.617188 561.570312 244.386719 558.972656 C 249.1875 551.917969 251.917969 544.433594 253.503906 535.9375 C 256.917969 517.65625 266.511719 502.035156 277.394531 487.226562 C 280.625 482.828125 280.644531 482.925781 275.523438 480.6875 C 247.585938 468.46875 223.792969 451.207031 207.90625 424.523438 C 198.601562 408.898438 193.585938 391.789062 191.585938 373.820312 C 187.503906 337.152344 191.714844 301.207031 201.460938 265.785156 C 201.636719 265.140625 201.773438 264.484375 202.054688 263.316406 C 196.292969 264.824219 190.929688 266.359375 185.398438 267.195312 C 147.78125 272.867188 113.980469 250.390625 104.867188 213.246094 C 97.847656 184.644531 104.03125 158.140625 119.414062 133.734375 C 136.628906 106.40625 160.316406 87.046875 192.261719 79.457031 C 243.300781 67.328125 288.929688 97.6875 300.765625 142.671875 C 301.195312 144.300781 301.347656 145.304688 303.589844 144.269531 C 316.300781 138.402344 329.570312 134.046875 343.128906 130.625 C 345.867188 129.933594 346.1875 129.054688 345.441406 126.480469 C 340.84375 110.539062 344.546875 95.929688 352.945312 82.148438 C 353.035156 82 353.308594 81.960938 353.742188 81.753906 Z M 232.988281 207.367188 C 234.601562 203.644531 236.789062 200.234375 239.0625 196.910156 C 247.320312 184.816406 258.214844 175.34375 269.800781 166.625 C 271.734375 165.167969 272.289062 163.804688 272.019531 161.453125 C 269.578125 140.308594 252.089844 123.496094 230.585938 121.941406 C 206.140625 120.175781 185.601562 129.121094 168.804688 146.226562 C 153.199219 162.121094 145.878906 181.28125 150.609375 203.828125 C 156.429688 231.570312 182.996094 247.207031 209.265625 238.589844 C 211.386719 237.894531 212.765625 236.792969 213.816406 234.785156 C 218.660156 225.546875 224.472656 216.960938 231.714844 209.398438 C 231.730469 211.019531 230.585938 212.128906 229.867188 213.398438 C 226.0625 220.148438 222.773438 227.136719 219.945312 234.34375 C 210.949219 257.230469 205.082031 280.925781 201.703125 305.265625 C 198.269531 329.992188 197.074219 354.742188 201.226562 379.507812 C 206.09375 408.550781 219.335938 432.847656 242.453125 451.464844 C 258.128906 464.085938 275.945312 472.703125 294.828125 479.234375 C 328.449219 490.863281 363.207031 495.679688 398.652344 496.234375 C 440.796875 496.898438 482.140625 492.1875 522.011719 477.757812 C 541.824219 470.589844 560.34375 461.03125 576.078125 446.769531 C 599.148438 425.855469 610.054688 399.308594 612.082031 368.613281 C 613.390625 348.808594 612.757812 329.097656 609.945312 309.472656 C 606.347656 284.371094 600.644531 259.796875 590.707031 236.359375 C 588.375 230.859375 585.828125 225.445312 583.382812 219.996094 C 584.734375 220.769531 585.511719 222.089844 586.386719 223.285156 C 591.785156 230.65625 596.703125 238.324219 600.605469 246.601562 C 601.253906 247.972656 601.886719 249.164062 603.464844 249.84375 C 617.722656 256.011719 631.621094 255.523438 644.144531 246.136719 C 660.832031 233.625 665.285156 216.042969 661.625 196.394531 C 655.746094 164.839844 627.601562 139.425781 595.636719 135.953125 C 572.515625 133.4375 552.207031 148.09375 548.242188 170.085938 C 547.871094 172.160156 547.976562 173.699219 549.808594 175.25 C 559.757812 183.667969 568.109375 193.535156 575.226562 204.410156 C 578.109375 208.8125 581.394531 213.105469 582.269531 218.550781 C 571.328125 201.40625 557.507812 186.960938 541.324219 174.710938 C 519.90625 158.488281 495.816406 147.621094 470.457031 139.269531 C 453.015625 133.523438 434.996094 129.996094 417.253906 125.390625 C 404.769531 122.152344 392.828125 117.671875 382.847656 109.089844 C 379.992188 106.632812 377.652344 103.6875 374.828125 100.460938 C 373.71875 110.734375 376.382812 119.589844 381.070312 128.691406 C 366.304688 123.480469 355.503906 115.136719 350.648438 99.847656 C 346.160156 118.671875 349.855469 134.632812 367.402344 142.519531 C 375.316406 146.074219 383.601562 148.371094 391.851562 150.882812 C 380.558594 149.34375 369.234375 147.90625 358.949219 142.464844 C 357.128906 141.503906 355.265625 140.359375 353.902344 138.863281 C 352.21875 137.019531 350.597656 136.933594 348.378906 137.496094 C 326.441406 143.058594 305.566406 151.203125 285.898438 162.46875 C 268.007812 172.71875 251.664062 184.792969 238.519531 200.871094 C 236.722656 203.070312 235.378906 205.671875 232.984375 207.363281 Z M 498.554688 623.40625 C 496.730469 624.023438 494.925781 624.699219 493.082031 625.25 C 482.1875 628.523438 471.960938 627.664062 463.316406 619.609375 C 454.269531 611.179688 452.535156 600.335938 454.171875 588.707031 C 455.808594 577.074219 460.746094 566.648438 466.738281 556.710938 C 468.023438 554.582031 467.933594 553.117188 466.609375 551.183594 C 461.800781 544.136719 456.050781 538.03125 448.96875 533.261719 C 428.699219 519.613281 406.542969 515.8125 382.855469 521.246094 C 365.410156 525.25 350.890625 534.136719 339.835938 548.414062 C 338.210938 550.515625 337.660156 552.191406 339.34375 554.796875 C 342.976562 560.417969 345.710938 566.566406 348.175781 572.792969 C 351.652344 581.582031 353.71875 590.601562 352.574219 600.183594 C 350.46875 617.878906 335.636719 629.136719 318.035156 626.378906 C 313.640625 625.691406 309.722656 623.617188 304.777344 622.007812 C 305.84375 623.160156 306.328125 623.644531 306.769531 624.167969 C 324.953125 645.75 331.863281 669.988281 323.808594 697.613281 C 323.085938 700.097656 324.152344 700.253906 325.828125 700.796875 C 342.402344 706.144531 359.460938 709.007812 376.773438 710.175781 C 398.710938 711.65625 420.648438 711.679688 442.523438 708.898438 C 455.03125 707.308594 467.339844 704.820312 479.363281 701.007812 C 480.65625 700.597656 482.414062 700.523438 481.398438 698.105469 C 476.65625 686.800781 477 675.101562 479.234375 663.367188 C 482.078125 648.429688 488.285156 635.101562 498.554688 623.40625 Z M 312.859375 615.304688 C 312.488281 614.222656 312.355469 613.8125 312.203125 613.410156 C 310.605469 609.207031 310.957031 605.222656 313.324219 603.847656 C 316.671875 601.902344 318.941406 604.460938 321.347656 606.152344 C 323.230469 607.476562 324.964844 609.046875 327.246094 609.699219 C 328.144531 609.957031 329.132812 610.234375 329.871094 609.46875 C 330.605469 608.707031 330.378906 607.726562 329.949219 606.882812 C 328.808594 604.621094 327.542969 602.417969 326.460938 600.128906 C 325.523438 598.136719 323.519531 596.070312 325.640625 593.832031 C 327.722656 591.628906 330.449219 591.972656 333.097656 592.746094 C 333.644531 592.90625 334.21875 593.117188 334.667969 593.457031 C 337.082031 595.273438 337.285156 593.738281 337.210938 591.804688 C 337.109375 589.265625 337.183594 586.703125 336.816406 584.199219 C 334.625 569.207031 328.996094 555.296875 323.070312 541.503906 C 318.996094 532.027344 314.660156 522.664062 310.441406 513.246094 C 319.828125 524.347656 328.128906 536.183594 335.996094 548.472656 C 369.011719 503.320312 441.757812 506.316406 470.097656 550.53125 C 473.191406 546.203125 476.203125 541.839844 479.375 537.597656 C 482.625 533.25 485.957031 528.953125 489.402344 524.761719 C 492.683594 520.773438 496.164062 516.949219 499.554688 513.054688 C 497.285156 518.699219 494.519531 523.894531 491.820312 529.125 C 483.925781 544.414062 476.199219 559.777344 471.550781 576.453125 C 469.941406 582.230469 469.28125 588.09375 469.960938 594.363281 C 472.394531 593.117188 474.550781 592.097656 477.082031 592.265625 C 481.390625 592.550781 482.929688 594.933594 481.007812 598.722656 C 479.914062 600.878906 478.511719 602.878906 477.410156 605.03125 C 476.714844 606.382812 475.175781 607.984375 476.683594 609.398438 C 478.144531 610.765625 480.035156 609.773438 481.496094 608.898438 C 483.867188 607.476562 486.03125 605.707031 488.402344 604.285156 C 492.625 601.75 495.855469 603.644531 496.15625 608.601562 C 496.300781 610.929688 495.132812 612.894531 494.230469 615.539062 C 518.019531 605.609375 536.128906 590.617188 546 566.933594 C 549.542969 558.4375 550.425781 549.480469 549.339844 540.394531 C 547.070312 521.390625 539.972656 504.089844 530.453125 487.652344 C 529.324219 485.703125 528.347656 485.265625 526.113281 486.117188 C 503.207031 494.851562 479.375 499.828125 455.121094 502.675781 C 424.703125 506.242188 394.230469 506.140625 363.761719 502.914062 C 338.765625 500.269531 314.347656 495.050781 290.652344 486.617188 C 288.738281 485.9375 287.773438 486.199219 286.613281 487.75 C 279.257812 497.574219 272.609375 507.820312 267.425781 518.980469 C 258.90625 537.304688 256.871094 555.691406 266.644531 574.261719 C 276.757812 593.480469 292.277344 606.640625 312.859375 615.304688 Z M 506.636719 681.554688 C 506.636719 682.59375 506.589844 683.632812 506.644531 684.671875 C 507.609375 702.242188 517.777344 714.707031 533.773438 717.742188 C 546.796875 720.214844 558.949219 717.6875 569.679688 710.03125 C 588.375 696.6875 598.667969 678.386719 599.976562 655.394531 C 601.078125 636.007812 589.386719 619.40625 571.988281 615.511719 C 559.164062 612.640625 547.109375 615.160156 536.363281 622.640625 C 515.910156 636.878906 508.0625 657.648438 506.636719 681.554688 Z M 297.074219 681.347656 C 297.339844 666.410156 291.820312 649.21875 282.6875 636.578125 C 276.96875 628.660156 269.902344 622.324219 260.953125 618.25 C 238.175781 607.878906 214.199219 618.203125 207.207031 641.46875 C 204.332031 651.035156 204.964844 660.691406 207.484375 670.210938 C 211.953125 687.121094 220.949219 701.050781 235.597656 710.894531 C 247.648438 718.992188 260.816406 720.792969 274.652344 716.414062 C 288.664062 711.976562 296.757812 699.121094 297.074219 681.347656 Z M 238.78125 569.371094 C 237.375 569.371094 236.570312 569.316406 235.773438 569.378906 C 216.578125 570.867188 205.21875 580.183594 198.453125 597.1875 C 191.402344 614.914062 192.570312 633.152344 195.335938 651.460938 C 195.527344 652.707031 195.941406 653.917969 196.226562 655.152344 C 196.5 656.347656 196.570312 657.625 197.640625 658.691406 C 197.683594 658.238281 197.730469 658.007812 197.71875 657.78125 C 196.523438 635.15625 204.46875 617.390625 225.101562 606.390625 C 226.042969 605.886719 226.785156 605.402344 227.003906 604.175781 C 229.140625 592.199219 232.933594 580.757812 238.78125 569.371094 Z M 532.613281 602.574219 C 533.566406 602.65625 533.808594 602.742188 534.019531 602.6875 C 546.820312 599.535156 559.59375 599.324219 572.304688 603.132812 C 574.738281 603.863281 574.394531 602.605469 574.175781 601.035156 C 572.617188 589.742188 569.023438 579.082031 564.207031 568.800781 C 562.351562 564.84375 560.371094 560.949219 558.445312 557.023438 C 555.921875 575.734375 545.832031 589.777344 532.613281 602.574219 Z M 251.980469 558.589844 C 243.671875 572.421875 237.707031 585.929688 234.175781 600.492188 C 233.5 603.28125 234.707031 602.636719 236.417969 602.21875 C 249.121094 599.125 261.761719 599.328125 274.304688 603.175781 C 275 603.386719 275.757812 603.859375 276.675781 603.105469 C 264.269531 590.960938 253.824219 577.703125 251.980469 558.589844 Z M 574.871094 576.355469 C 574.285156 577.886719 575.085938 578.894531 575.441406 579.921875 C 578.066406 587.464844 580.007812 595.175781 580.546875 603.136719 C 580.75 606.164062 582.125 607.410156 585.042969 608.140625 C 585.945312 596.089844 582.792969 585.601562 574.871094 576.355469 Z M 187.628906 611.34375 C 188.175781 608.753906 188.71875 606.164062 189.265625 603.574219 C 187.414062 605.902344 186.179688 608.371094 187.628906 611.34375 Z M 187.628906 611.34375 " fill-opacity="1" fill-rule="nonzero"/><path fill="#000000" d="M 459.816406 342.953125 C 460.207031 330.132812 463.167969 314.253906 472.203125 300.058594 C 478.347656 290.394531 486.550781 283.511719 498.332031 281.871094 C 505.492188 280.875 512.109375 282.738281 518.351562 286.027344 C 529.527344 291.914062 537.554688 301.085938 544.214844 311.546875 C 557.691406 332.722656 564.257812 356.089844 565.25 381 C 566.078125 401.878906 553.1875 415.617188 532.253906 416.78125 C 511.984375 417.90625 495.519531 409.207031 480.878906 396.296875 C 465.980469 383.160156 459.4375 366.320312 459.816406 342.953125 Z M 475.804688 359.550781 C 475.882812 371.726562 477.992188 380.253906 482.210938 387.792969 C 484.140625 391.242188 486.480469 394.375 489.261719 397.171875 C 501.71875 409.691406 517.769531 408.421875 528.101562 394.0625 C 535.363281 383.972656 536.585938 372.554688 534.933594 360.683594 C 533.179688 348.09375 528.582031 336.796875 518.15625 328.769531 C 507.054688 320.222656 494.714844 321.648438 485.609375 332.332031 C 478.351562 340.84375 475.859375 350.96875 475.804688 359.550781 Z M 475.804688 359.550781 " fill-opacity="1" fill-rule="nonzero"/><path fill="#000000" d="M 243.433594 374.160156 C 244.867188 352.347656 251.679688 327.835938 266.898438 306.09375 C 272.175781 298.558594 278.4375 291.949219 286.277344 286.980469 C 303.390625 276.132812 320.855469 279.234375 333.039062 295.390625 C 341.855469 307.078125 345.746094 320.644531 347.597656 334.898438 C 349.242188 347.546875 348.84375 360.082031 343.847656 372.042969 C 335.804688 391.308594 320.484375 402.871094 301.839844 410.519531 C 291.707031 414.679688 281.089844 415.820312 270.21875 413.445312 C 252.417969 409.546875 242.5625 396.847656 243.433594 374.160156 Z M 273.011719 364.027344 C 272.992188 375 274.484375 382.84375 278.84375 389.972656 C 288.914062 406.449219 307.101562 408.453125 320.015625 394.117188 C 331.542969 381.328125 334.109375 365.960938 331.226562 349.445312 C 330.042969 342.644531 327.425781 336.378906 322.929688 331.027344 C 313.199219 319.429688 299.441406 318.386719 288.28125 328.652344 C 277.164062 338.875 273.546875 352.25 273.011719 364.027344 Z M 273.011719 364.027344 " fill-opacity="1" fill-rule="nonzero"/><path fill="#000000" d="M 401.066406 422.867188 C 401.066406 419.976562 400.886719 417.074219 401.121094 414.203125 C 401.3125 411.832031 400.363281 411.011719 398.175781 410.648438 C 391.273438 409.515625 384.769531 407.183594 378.941406 403.269531 C 375.402344 400.890625 372.574219 397.84375 371.988281 393.378906 C 371.402344 388.933594 373.257812 385.523438 376.804688 382.9375 C 381.851562 379.257812 387.808594 378.144531 393.757812 377.464844 C 403.710938 376.324219 413.609375 376.835938 423.203125 380.097656 C 428.667969 381.957031 433.664062 384.621094 434.25 391.117188 C 434.8125 397.351562 430.714844 401.117188 425.894531 404.042969 C 420.519531 407.300781 414.675781 409.523438 408.472656 410.507812 C 405.480469 410.984375 404.503906 412.171875 404.6875 415.195312 C 405.019531 420.726562 404.992188 426.285156 405 431.832031 C 405 433.621094 405.496094 434.765625 407.117188 435.761719 C 422.660156 445.347656 440.796875 441.121094 450.523438 425.65625 C 451.171875 424.621094 451.519531 421.742188 453.800781 423.765625 C 455.417969 425.199219 459.066406 425.609375 456.726562 429.585938 C 450.226562 440.632812 440.972656 447.175781 428.050781 448.074219 C 426.101562 448.210938 424.945312 448.996094 423.816406 450.496094 C 419.652344 456.023438 414.863281 460.859375 407.824219 462.539062 C 398.96875 464.648438 391.382812 461.777344 385.671875 455.164062 C 381.679688 450.542969 377.539062 447.730469 371.355469 446.46875 C 361.3125 444.414062 354.378906 437.621094 349.65625 428.554688 C 347.644531 424.691406 351.574219 424.921875 352.96875 423.507812 C 354.957031 421.492188 355.449219 423.917969 355.988281 424.960938 C 363.695312 439.8125 381.816406 445.53125 399.0625 435.570312 C 400.460938 434.765625 400.988281 433.773438 400.957031 432.230469 C 400.894531 429.109375 400.9375 425.988281 400.9375 422.867188 Z M 402.972656 393.917969 C 407.773438 393.804688 412.257812 393.421875 416.542969 391.847656 C 418.289062 391.203125 420.292969 390.476562 420.328125 388.300781 C 420.359375 386.199219 418.5625 385.0625 416.796875 384.464844 C 407.761719 381.417969 398.664062 381.304688 389.613281 384.382812 C 387.992188 384.9375 386.304688 385.796875 386.390625 387.96875 C 386.476562 390.035156 388.054688 390.929688 389.679688 391.597656 C 394.019531 393.382812 398.617188 393.777344 402.972656 393.917969 Z M 388.546875 447.667969 C 394.847656 459.050781 409.183594 459.28125 417.199219 447.890625 C 412.355469 446.824219 407.875 445.136719 403.683594 442.761719 C 402.703125 442.207031 401.898438 442.78125 401.105469 443.21875 C 397.183594 445.394531 392.996094 446.84375 388.546875 447.667969 Z M 388.546875 447.667969 " fill-opacity="1" fill-rule="nonzero"/><path fill="#000000" d="M 286.488281 251.566406 C 293.292969 237.769531 313.074219 226.265625 328.695312 237.636719 C 330.578125 239.007812 333.792969 240.550781 332.863281 242.871094 C 332.015625 245 328.957031 243.128906 326.945312 242.753906 C 313.710938 240.277344 301.515625 243.242188 289.933594 249.59375 C 288.867188 250.179688 287.820312 250.800781 286.488281 251.566406 Z M 286.488281 251.566406 " fill-opacity="1" fill-rule="nonzero"/><path fill="#000000" d="M 522.292969 252.785156 C 516.386719 249.472656 510.390625 246.546875 503.894531 244.847656 C 495.964844 242.773438 487.953125 242.464844 479.914062 244.359375 C 478.824219 244.617188 477.449219 245.296875 476.710938 244.164062 C 475.785156 242.75 477.308594 241.859375 478.121094 241.042969 C 483.132812 235.996094 489.273438 233.597656 496.324219 234.417969 C 508.234375 235.800781 516.28125 242.921875 522.292969 252.785156 Z M 522.292969 252.785156 " fill-opacity="1" fill-rule="nonzero"/><path fill="#000000" d="M 384.558594 468.074219 C 396.359375 476.75 407.910156 477.148438 419.480469 468.109375 C 418.078125 473.1875 410.242188 478.558594 403.683594 479.109375 C 396.175781 479.746094 388.039062 475.175781 384.558594 468.070312 Z M 384.558594 468.074219 " fill-opacity="1" fill-rule="nonzero"/><path fill="#000000" d="M 383.726562 373.445312 C 396.726562 367.632812 409.761719 367.652344 422.777344 373.515625 C 409.777344 371.042969 396.78125 370.632812 383.726562 373.445312 Z M 383.726562 373.445312 " fill-opacity="1" fill-rule="nonzero"/><path fill="#000000" d="M 575.492188 635.820312 C 575.160156 640.9375 572.863281 645.074219 568.855469 648.167969 C 566.644531 649.871094 563.988281 650.34375 561.355469 649.054688 C 558.621094 647.714844 557.25 645.328125 557.3125 642.34375 C 557.417969 637.257812 559.390625 632.914062 563.332031 629.671875 C 565.675781 627.746094 568.429688 626.949219 571.371094 628.433594 C 574.378906 629.949219 575.59375 632.523438 575.492188 635.820312 Z M 575.492188 635.820312 " fill-opacity="1" fill-rule="nonzero"/><path fill="#000000" d="M 536.734375 640.011719 C 537.074219 635.632812 538.714844 631.664062 542.394531 628.792969 C 544.746094 626.957031 547.40625 626.304688 550.082031 628.132812 C 552.648438 629.890625 553.445312 632.445312 552.765625 635.429688 C 551.863281 639.359375 550.09375 642.804688 546.773438 645.25 C 544.652344 646.804688 542.300781 647.046875 539.910156 645.929688 C 537.515625 644.804688 536.835938 642.648438 536.734375 640.011719 Z M 536.734375 640.011719 " fill-opacity="1" fill-rule="nonzero"/><path fill="#000000" d="M 574.34375 654.742188 C 574.6875 650.847656 576.558594 647.109375 580.003906 644.257812 C 582.195312 642.449219 584.742188 641.804688 587.398438 643.25 C 589.921875 644.625 590.808594 647.003906 590.507812 649.703125 C 589.929688 654.855469 587.449219 658.914062 582.648438 661.09375 C 578.167969 663.121094 574.140625 660.203125 574.34375 654.742188 Z M 574.34375 654.742188 " fill-opacity="1" fill-rule="nonzero"/><path fill="#000000" d="M 246.398438 641.578125 C 246.496094 644.855469 245.335938 647.476562 242.324219 649.011719 C 239.253906 650.578125 236.367188 649.777344 233.964844 647.691406 C 229.902344 644.167969 227.796875 639.628906 228.347656 634.183594 C 228.875 628.953125 234.640625 626.210938 239.339844 628.804688 C 243.363281 631.023438 246.378906 636.480469 246.398438 641.578125 Z M 246.398438 641.578125 " fill-opacity="1" fill-rule="nonzero"/><path fill="#000000" d="M 267.074219 639.414062 C 266.863281 642.371094 265.9375 644.753906 263.164062 645.953125 C 260.519531 647.097656 258.128906 646.3125 256.195312 644.46875 C 253.089844 641.507812 251.289062 637.839844 251.230469 633.472656 C 251.199219 630.835938 252.382812 628.8125 254.75 627.609375 C 257.175781 626.375 259.480469 626.882812 261.511719 628.5 C 265.054688 631.3125 266.636719 635.15625 267.078125 639.414062 Z M 267.074219 639.414062 " fill-opacity="1" fill-rule="nonzero"/><path fill="#000000" d="M 213.050781 650.613281 C 212.933594 646.875 213.730469 644.644531 216.101562 643.339844 C 218.464844 642.042969 220.941406 642.433594 222.960938 643.964844 C 226.699219 646.800781 229.09375 650.574219 229.097656 655.417969 C 229.097656 660.578125 223.878906 663.5 219.546875 660.699219 C 215.558594 658.117188 213.386719 654.273438 213.050781 650.613281 Z M 213.050781 650.613281 " fill-opacity="1" fill-rule="nonzero"/><path fill="#000000" d="M 483.398438 367.1875 C 483.4375 360.683594 485.015625 354.625 488.554688 349.136719 C 496.703125 336.503906 512.335938 335.636719 521.863281 347.28125 C 531.582031 359.15625 531.21875 379.007812 521.074219 390.550781 C 513.527344 399.140625 501.394531 399.746094 493.066406 391.902344 C 485.949219 385.199219 483.484375 376.644531 483.398438 367.1875 Z M 514.261719 370.398438 C 519.90625 370.335938 524.511719 365.519531 524.339844 359.851562 C 524.160156 353.8125 519.835938 349.296875 514.230469 349.285156 C 508.414062 349.273438 503.957031 353.933594 503.960938 360.027344 C 503.964844 365.675781 508.714844 370.457031 514.261719 370.398438 Z M 514.261719 370.398438 " fill-opacity="1" fill-rule="nonzero"/><path fill="#000000" d="M 324.910156 366.183594 C 324.617188 375.917969 321.914062 384.859375 313.707031 391.324219 C 306.09375 397.324219 296.128906 396.875 289.015625 390.324219 C 276.929688 379.199219 276.34375 355.398438 287.863281 343.675781 C 296.5625 334.820312 308.035156 334.808594 316.605469 343.773438 C 322.507812 349.941406 324.765625 357.550781 324.910156 366.183594 Z M 304.074219 357.890625 C 304.148438 351.761719 299.75 346.953125 294.078125 346.964844 C 288.589844 346.972656 284.0625 351.726562 283.972656 357.570312 C 283.886719 363.199219 288.550781 368.203125 293.960938 368.296875 C 299.566406 368.390625 304.003906 363.824219 304.074219 357.890625 Z M 304.074219 357.890625 " fill-opacity="1" fill-rule="nonzero"/></svg>