<svg xmlns="http://www.w3.org/2000/svg" xmlns:xlink="http://www.w3.org/1999/xlink" width="1080" zoomAndPan="magnify" viewBox="0 0 810 809.999993" height="1080" preserveAspectRatio="xMidYMid meet" version="1.0"><defs><clipPath id="20ed497789"><path d="M 186 67.199219 L 625 67.199219 L 625 666 L 186 666 Z M 186 67.199219 " clip-rule="nonzero"/></clipPath><clipPath id="d70a8e40cd"><path d="M 85.074219 354 L 239 354 L 239 602 L 85.074219 602 Z M 85.074219 354 " clip-rule="nonzero"/></clipPath><clipPath id="decba5606f"><path d="M 172 642 L 355 642 L 355 742.949219 L 172 742.949219 Z M 172 642 " clip-rule="nonzero"/></clipPath><clipPath id="7fc596b164"><path d="M 456 642 L 638 642 L 638 742.949219 L 456 742.949219 Z M 456 642 " clip-rule="nonzero"/></clipPath><clipPath id="fe9e10f52e"><path d="M 571 355 L 724.824219 355 L 724.824219 602 L 571 602 Z M 571 355 " clip-rule="nonzero"/></clipPath><clipPath id="a946471fbd"><path d="M 220 702 L 234 702 L 234 742.949219 L 220 742.949219 Z M 220 702 " clip-rule="nonzero"/></clipPath><clipPath id="8e9376da4c"><path d="M 256 702 L 270 702 L 270 742.949219 L 256 742.949219 Z M 256 702 " clip-rule="nonzero"/></clipPath><clipPath id="1a4e31f02d"><path d="M 293 702 L 307 702 L 307 742.949219 L 293 742.949219 Z M 293 702 " clip-rule="nonzero"/></clipPath><clipPath id="fb3079c94c"><path d="M 503 702 L 517 702 L 517 742.949219 L 503 742.949219 Z M 503 702 " clip-rule="nonzero"/></clipPath><clipPath id="594f601041"><path d="M 540 702 L 554 702 L 554 742.949219 L 540 742.949219 Z M 540 702 " clip-rule="nonzero"/></clipPath><clipPath id="2daa4c8c42"><path d="M 577 702 L 591 702 L 591 742.949219 L 577 742.949219 Z M 577 702 " clip-rule="nonzero"/></clipPath></defs><path fill="#000000" d="M 263.113281 655.777344 C 260.738281 655.777344 258.363281 654.589844 257.175781 651.816406 C 226.292969 580.527344 258.363281 516.363281 286.472656 460.125 C 309.832031 413.785156 329.625 373.785156 309.039062 340.515625 C 307.457031 337.742188 305.476562 334.574219 303.101562 331.40625 C 290.828125 313.1875 273.804688 288.632812 276.179688 242.691406 C 278.554688 190.410156 307.058594 165.0625 333.980469 163.476562 C 361.300781 161.5 392.972656 182.488281 402.472656 233.582031 C 402.871094 237.144531 400.496094 240.710938 396.929688 241.105469 C 393.367188 241.898438 390.199219 239.519531 389.410156 235.957031 C 381.492188 193.183594 356.152344 175.359375 334.773438 176.546875 C 313.789062 178.132812 291.621094 199.125 289.242188 243.480469 C 286.867188 284.671875 301.914062 306.453125 314.1875 323.882812 C 316.164062 327.050781 318.542969 330.21875 320.519531 333.386719 C 344.671875 372.992188 322.105469 418.144531 298.351562 466.066406 C 271.429688 519.929688 240.941406 580.921875 269.449219 646.667969 C 270.636719 650.230469 269.050781 653.796875 265.886719 655.378906 C 265.09375 655.777344 264.300781 655.777344 263.113281 655.777344 Z M 263.113281 655.777344 " fill-opacity="1" fill-rule="evenodd"/><g clip-path="url(#20ed497789)"><path fill="#000000" d="M 589.738281 665.28125 C 588.550781 665.28125 587.363281 664.886719 586.175781 664.488281 C 583.40625 662.511719 582.214844 658.550781 584.195312 655.378906 C 614.679688 606.269531 613.890625 543.691406 607.554688 499.730469 C 600.824219 451.410156 586.175781 414.578125 586.175781 414.183594 C 585.382812 412.203125 567.171875 365.863281 559.253906 275.957031 C 558.460938 267.640625 559.253906 260.117188 560.046875 252.589844 C 560.441406 247.046875 561.234375 242.292969 561.234375 236.75 C 561.234375 150.804688 491.15625 80.703125 404.847656 80.703125 C 318.9375 80.703125 248.859375 150.804688 248.859375 236.75 C 248.859375 242.691406 249.257812 248.234375 250.046875 253.78125 C 250.839844 261.304688 251.632812 269.226562 250.839844 278.730469 C 242.527344 366.65625 225.105469 412.203125 224.316406 414.183594 C 224.316406 414.578125 209.664062 451.410156 202.933594 499.730469 C 196.601562 543.691406 195.414062 606.269531 225.898438 655.378906 C 227.480469 658.550781 226.691406 662.511719 223.523438 664.488281 C 220.355469 666.46875 216.394531 665.28125 214.417969 662.113281 C 188.683594 620.925781 180.367188 563.890625 189.871094 497.355469 C 196.996094 447.847656 211.25 411.015625 212.042969 409.429688 C 212.042969 409.035156 229.460938 363.488281 237.777344 277.542969 C 238.171875 269.621094 237.777344 262.492188 236.984375 254.96875 C 236.191406 249.421875 235.796875 243.480469 235.796875 236.75 C 235.796875 143.28125 311.8125 67.238281 404.847656 67.238281 C 498.285156 67.238281 574.296875 143.28125 574.296875 236.75 C 574.296875 242.691406 573.507812 248.628906 573.109375 253.78125 C 572.320312 260.910156 571.527344 268.039062 572.320312 274.769531 C 579.839844 362.695312 598.054688 408.636719 598.449219 409.429688 C 598.84375 411.015625 613.492188 447.847656 620.621094 497.355469 C 630.121094 563.890625 621.410156 620.925781 595.28125 662.113281 C 594.09375 664.488281 592.113281 665.28125 589.738281 665.28125 Z M 589.738281 665.28125 " fill-opacity="1" fill-rule="evenodd"/></g><g clip-path="url(#d70a8e40cd)"><path fill="#000000" d="M 117.816406 601.121094 C 109.5 601.121094 103.167969 598.746094 97.625 594.785156 C 87.328125 586.46875 83.371094 571.417969 85.746094 548.445312 C 93.269531 472.796875 131.671875 424.480469 162.949219 396.753906 C 196.601562 367.050781 228.273438 355.167969 229.855469 354.773438 C 233.023438 353.585938 236.984375 355.566406 238.171875 358.734375 C 239.359375 362.300781 237.777344 365.863281 234.210938 367.449219 C 233.816406 367.449219 203.332031 378.933594 171.261719 407.054688 C 128.902344 444.679688 104.355469 492.601562 98.8125 549.632812 C 97.226562 567.851562 99.601562 579.335938 105.9375 584.488281 C 111.875 589.238281 122.960938 588.84375 138.007812 583.695312 C 152.257812 578.546875 169.285156 567.851562 188.683594 552.40625 C 191.453125 550.03125 195.808594 550.425781 197.789062 553.199219 C 200.164062 555.96875 199.769531 560.328125 196.996094 562.703125 C 176.804688 579.335938 158.199219 590.425781 142.363281 595.972656 C 132.859375 599.535156 124.941406 601.121094 117.816406 601.121094 Z M 117.816406 601.121094 " fill-opacity="1" fill-rule="evenodd"/></g><g clip-path="url(#decba5606f)"><path fill="#000000" d="M 321.3125 742.910156 L 205.3125 742.910156 C 204.519531 742.910156 186.703125 742.511719 177.597656 729.839844 C 172.054688 721.917969 171.261719 711.621094 175.617188 698.945312 C 187.097656 664.886719 221.542969 642.707031 263.507812 642.707031 C 305.476562 642.707031 339.921875 664.886719 351.402344 698.945312 C 355.757812 711.621094 354.964844 721.917969 349.421875 729.839844 C 340.316406 742.511719 322.5 742.910156 321.707031 742.910156 C 321.707031 742.910156 321.707031 742.910156 321.3125 742.910156 Z M 205.707031 729.839844 L 321.3125 729.839844 C 324.875 729.839844 334.378906 728.253906 338.734375 721.917969 C 341.503906 717.957031 341.503906 711.621094 339.128906 703.304688 C 327.25 668.449219 290.828125 656.171875 263.507812 656.171875 C 236.191406 656.171875 199.769531 668.449219 187.890625 703.304688 C 185.121094 711.621094 185.515625 717.957031 188.285156 721.917969 C 192.640625 728.253906 202.144531 729.839844 205.707031 729.839844 Z M 205.707031 729.839844 " fill-opacity="1" fill-rule="evenodd"/></g><g clip-path="url(#7fc596b164)"><path fill="#000000" d="M 604.785156 742.910156 L 488.78125 742.910156 C 487.992188 742.910156 469.777344 742.511719 461.070312 729.839844 C 455.527344 721.917969 454.734375 711.621094 458.691406 698.945312 C 470.570312 664.886719 505.015625 642.707031 546.980469 642.707031 C 588.550781 642.707031 622.996094 664.886719 634.476562 698.945312 C 638.832031 711.621094 638.039062 721.917969 632.496094 729.839844 C 623.789062 742.511719 605.574219 742.910156 605.179688 742.910156 C 604.785156 742.910156 604.785156 742.910156 604.785156 742.910156 Z M 489.179688 729.839844 L 604.785156 729.839844 C 608.347656 729.839844 617.847656 728.253906 621.808594 722.3125 C 624.578125 717.957031 624.976562 711.621094 621.808594 703.304688 C 610.328125 668.449219 574.296875 656.171875 546.980469 656.171875 C 519.265625 656.171875 483.238281 668.449219 471.363281 703.304688 C 468.589844 711.621094 468.988281 717.957031 471.757812 722.3125 C 476.90625 729.046875 488.386719 729.839844 489.179688 729.839844 Z M 489.179688 729.839844 " fill-opacity="1" fill-rule="evenodd"/></g><path fill="#000000" d="M 405.246094 733.007812 C 379.90625 733.007812 354.964844 729.839844 343.878906 723.503906 C 340.710938 721.523438 339.523438 717.5625 341.503906 714.394531 C 343.484375 711.226562 347.441406 710.433594 350.609375 712.015625 C 368.425781 722.3125 442.066406 722.3125 459.878906 712.015625 C 463.046875 710.433594 467.007812 711.226562 468.988281 714.394531 C 470.570312 717.5625 469.777344 721.523438 466.609375 723.503906 C 455.527344 729.839844 430.1875 733.007812 405.246094 733.007812 Z M 405.246094 733.007812 " fill-opacity="1" fill-rule="evenodd"/><g clip-path="url(#fe9e10f52e)"><path fill="#000000" d="M 692.28125 601.121094 C 685.550781 601.121094 677.234375 599.535156 668.128906 595.972656 C 652.292969 590.824219 634.476562 579.734375 613.492188 562.703125 C 610.328125 560.328125 609.929688 555.96875 612.304688 553.199219 C 614.679688 550.425781 619.035156 550.03125 621.808594 552.40625 C 641.601562 568.644531 657.835938 578.941406 672.484375 583.695312 C 687.527344 588.84375 697.820312 589.238281 704.15625 584.488281 C 710.492188 579.335938 712.867188 567.457031 711.28125 549.632812 C 705.742188 494.1875 682.382812 447.054688 641.601562 409.429688 C 612.304688 382.894531 584.195312 370.617188 576.277344 367.449219 C 571.132812 365.070312 571.921875 360.320312 571.921875 359.921875 L 584.988281 362.300781 L 578.257812 361.109375 L 581.027344 355.167969 C 589.738281 358.339844 619.828125 371.804688 650.3125 399.925781 C 693.070312 438.738281 718.410156 490.226562 724.347656 548.445312 C 726.328125 571.417969 722.367188 586.863281 712.074219 594.785156 C 706.929688 599.140625 700.199219 601.121094 692.28125 601.121094 Z M 692.28125 601.121094 " fill-opacity="1" fill-rule="evenodd"/></g><path fill="#000000" d="M 546.980469 655.777344 C 546.1875 655.777344 545.398438 655.777344 544.605469 655.378906 C 541.042969 653.796875 539.457031 650.230469 541.042969 646.667969 C 569.152344 580.921875 538.667969 519.929688 511.746094 466.066406 C 487.992188 418.144531 465.421875 372.992188 489.96875 333.386719 C 491.949219 330.613281 493.929688 327.445312 496.304688 324.277344 C 508.183594 306.851562 522.832031 285.066406 521.246094 243.480469 C 518.871094 199.125 496.699219 178.132812 475.320312 176.546875 C 453.941406 175.359375 429 193.183594 421.082031 235.957031 C 420.289062 239.519531 416.726562 241.898438 413.164062 241.105469 C 409.601562 240.710938 407.226562 237.144531 408.015625 233.582031 C 417.519531 182.488281 449.191406 161.5 476.507812 163.476562 C 503.429688 165.0625 531.539062 190.410156 534.3125 242.691406 C 536.292969 288.632812 519.265625 313.582031 506.992188 331.40625 C 505.015625 334.574219 503.035156 337.742188 501.054688 340.515625 C 480.46875 373.785156 500.660156 413.785156 523.621094 460.125 C 552.128906 516.761719 583.800781 580.527344 553.316406 651.816406 C 552.128906 654.589844 549.753906 655.777344 546.980469 655.777344 Z M 546.980469 655.777344 " fill-opacity="1" fill-rule="evenodd"/><path fill="#000000" d="M 353.777344 283.085938 C 352.191406 283.085938 350.609375 282.296875 349.421875 281.105469 C 346.652344 278.335938 346.652344 274.375 349.421875 271.601562 L 390.597656 230.808594 C 394.160156 226.847656 399.703125 224.867188 405.246094 224.867188 C 410.789062 224.867188 415.933594 226.847656 419.894531 230.808594 L 460.671875 271.601562 C 463.445312 274.375 463.445312 278.335938 460.671875 281.105469 C 458.296875 283.484375 453.941406 283.484375 451.566406 281.105469 L 410.789062 240.3125 C 409.203125 238.730469 407.226562 237.9375 405.246094 237.9375 C 403.265625 237.9375 401.285156 238.730469 399.703125 240.3125 L 358.527344 281.105469 C 357.339844 282.296875 355.757812 283.085938 353.777344 283.085938 Z M 353.777344 283.085938 " fill-opacity="1" fill-rule="evenodd"/><path fill="#000000" d="M 405.246094 328.238281 C 399.703125 328.238281 394.160156 325.863281 390.199219 321.902344 L 349.421875 281.105469 C 347.441406 279.125 346.652344 276.355469 347.839844 273.976562 C 349.027344 271.207031 351.402344 269.621094 353.777344 269.621094 L 455.921875 269.621094 C 458.691406 269.621094 461.070312 271.207031 462.257812 273.976562 C 463.046875 276.355469 462.652344 279.125 460.671875 281.105469 L 419.894531 321.902344 C 415.933594 325.863281 410.789062 328.238281 405.246094 328.238281 Z M 370.007812 283.085938 L 399.703125 312.394531 C 399.703125 312.394531 399.703125 312.394531 400.097656 312.792969 C 401.285156 313.980469 403.265625 314.773438 405.246094 314.773438 C 407.226562 314.773438 409.203125 313.980469 410.390625 312.792969 C 410.390625 312.394531 410.390625 312.394531 410.789062 312.394531 L 440.085938 283.085938 Z M 370.007812 283.085938 " fill-opacity="1" fill-rule="evenodd"/><path fill="#000000" d="M 356.152344 235.164062 C 354.171875 235.164062 352.191406 233.976562 350.609375 231.996094 C 347.839844 227.640625 342.691406 224.867188 337.148438 224.867188 C 331.605469 224.867188 326.460938 227.640625 323.292969 231.996094 C 321.3125 235.164062 317.351562 235.957031 314.1875 233.976562 C 311.019531 231.996094 310.226562 227.640625 312.601562 224.867188 C 317.75 216.550781 327.25 211.402344 337.148438 211.402344 C 347.046875 211.402344 356.152344 216.550781 361.695312 224.867188 C 363.675781 227.640625 362.882812 231.996094 360.113281 233.976562 C 358.921875 234.769531 357.734375 235.164062 356.152344 235.164062 Z M 356.152344 235.164062 " fill-opacity="1" fill-rule="evenodd"/><path fill="#000000" d="M 492.34375 235.164062 C 490.367188 235.164062 488.386719 233.976562 487.199219 232.390625 C 483.636719 227.640625 478.488281 224.867188 472.945312 224.867188 C 467.800781 224.867188 462.257812 227.640625 459.089844 232.390625 C 456.714844 235.164062 452.753906 235.957031 449.585938 233.582031 C 446.816406 231.601562 446.023438 227.640625 448.398438 224.472656 C 454.339844 216.550781 463.445312 211.402344 472.945312 211.402344 C 482.449219 211.402344 491.949219 216.550781 497.886719 224.472656 C 499.867188 227.640625 499.472656 231.601562 496.304688 233.582031 C 495.117188 234.769531 493.929688 235.164062 492.34375 235.164062 Z M 492.34375 235.164062 " fill-opacity="1" fill-rule="evenodd"/><path fill="#000000" d="M 120.585938 600.726562 C 119.792969 600.726562 119.398438 600.726562 119.003906 600.726562 C 115.441406 599.933594 113.0625 596.367188 113.855469 592.804688 C 114.25 592.40625 114.25 591.617188 114.25 590.425781 C 114.25 589.238281 114.25 588.050781 114.648438 586.863281 C 122.960938 501.316406 170.472656 449.828125 209.269531 421.3125 C 212.042969 419.332031 216 420.125 218.375 422.894531 C 220.355469 425.667969 219.960938 430.023438 216.792969 432.003906 C 180.367188 458.9375 135.234375 507.652344 127.710938 588.445312 C 127.710938 588.84375 127.710938 588.84375 127.710938 589.238281 C 127.710938 590.03125 127.316406 590.824219 127.316406 591.617188 C 127.316406 592.804688 127.316406 594.386719 126.921875 595.578125 C 126.128906 598.746094 123.359375 600.726562 120.585938 600.726562 Z M 120.585938 600.726562 " fill-opacity="1" fill-rule="evenodd"/><path fill="#000000" d="M 689.507812 600.726562 C 685.945312 600.726562 682.777344 597.953125 682.777344 594.386719 C 682.777344 592.804688 682.777344 590.425781 682.777344 589.238281 C 682.777344 588.84375 682.777344 588.84375 682.777344 588.445312 C 674.859375 507.652344 629.726562 458.9375 593.300781 432.003906 C 590.53125 430.023438 589.738281 425.667969 592.113281 422.894531 C 594.09375 420.125 598.449219 419.332031 601.21875 421.3125 C 639.625 449.828125 687.527344 501.316406 695.84375 586.863281 C 696.238281 589.636719 696.238281 592.011719 696.238281 594.386719 C 696.238281 597.953125 693.070312 600.726562 689.507812 600.726562 Z M 689.507812 600.726562 " fill-opacity="1" fill-rule="evenodd"/><g clip-path="url(#a946471fbd)"><path fill="#000000" d="M 226.691406 742.910156 C 223.125 742.910156 220.355469 740.136719 220.355469 736.574219 L 220.355469 709.246094 C 220.355469 705.285156 223.125 702.511719 226.691406 702.511719 C 230.648438 702.511719 233.421875 705.285156 233.421875 709.246094 L 233.421875 736.574219 C 233.421875 740.136719 230.648438 742.910156 226.691406 742.910156 Z M 226.691406 742.910156 " fill-opacity="1" fill-rule="evenodd"/></g><g clip-path="url(#8e9376da4c)"><path fill="#000000" d="M 263.113281 742.910156 C 259.550781 742.910156 256.777344 740.136719 256.777344 736.574219 L 256.777344 709.246094 C 256.777344 705.285156 259.550781 702.511719 263.113281 702.511719 C 267.074219 702.511719 269.84375 705.285156 269.84375 709.246094 L 269.84375 736.574219 C 269.84375 740.136719 267.074219 742.910156 263.113281 742.910156 Z M 263.113281 742.910156 " fill-opacity="1" fill-rule="evenodd"/></g><g clip-path="url(#1a4e31f02d)"><path fill="#000000" d="M 299.933594 742.910156 C 296.371094 742.910156 293.597656 740.136719 293.597656 736.574219 L 293.597656 709.246094 C 293.597656 705.285156 296.371094 702.511719 299.933594 702.511719 C 303.890625 702.511719 306.664062 705.285156 306.664062 709.246094 L 306.664062 736.574219 C 306.664062 740.136719 303.890625 742.910156 299.933594 742.910156 Z M 299.933594 742.910156 " fill-opacity="1" fill-rule="evenodd"/></g><g clip-path="url(#fb3079c94c)"><path fill="#000000" d="M 509.765625 742.910156 C 506.203125 742.910156 503.429688 740.136719 503.429688 736.574219 L 503.429688 709.246094 C 503.429688 705.285156 506.203125 702.511719 509.765625 702.511719 C 513.328125 702.511719 516.496094 705.285156 516.496094 709.246094 L 516.496094 736.574219 C 516.496094 740.136719 513.328125 742.910156 509.765625 742.910156 Z M 509.765625 742.910156 " fill-opacity="1" fill-rule="evenodd"/></g><g clip-path="url(#594f601041)"><path fill="#000000" d="M 546.585938 742.910156 C 543.023438 742.910156 540.25 740.136719 540.25 736.574219 L 540.25 709.246094 C 540.25 705.285156 543.023438 702.511719 546.585938 702.511719 C 550.148438 702.511719 553.316406 705.285156 553.316406 709.246094 L 553.316406 736.574219 C 553.316406 740.136719 550.148438 742.910156 546.585938 742.910156 Z M 546.585938 742.910156 " fill-opacity="1" fill-rule="evenodd"/></g><g clip-path="url(#2daa4c8c42)"><path fill="#000000" d="M 583.40625 742.910156 C 579.839844 742.910156 577.070312 740.136719 577.070312 736.574219 L 577.070312 709.246094 C 577.070312 705.285156 579.839844 702.511719 583.40625 702.511719 C 586.96875 702.511719 590.136719 705.285156 590.136719 709.246094 L 590.136719 736.574219 C 590.136719 740.136719 586.96875 742.910156 583.40625 742.910156 Z M 583.40625 742.910156 " fill-opacity="1" fill-rule="evenodd"/></g><path fill="#000000" d="M 404.847656 153.179688 C 403.660156 153.179688 402.472656 152.785156 401.285156 151.992188 C 369.21875 129.8125 329.625 144.863281 329.230469 145.261719 C 325.667969 146.449219 321.707031 144.863281 320.519531 141.300781 C 319.332031 138.128906 320.917969 134.171875 324.082031 132.980469 C 326.0625 132.191406 367.632812 115.953125 404.847656 138.527344 C 442.460938 115.953125 484.425781 132.191406 486.011719 132.980469 C 489.574219 134.171875 491.15625 138.128906 489.96875 141.300781 C 488.386719 144.863281 484.824219 146.449219 481.261719 145.261719 C 480.863281 144.863281 441.273438 129.8125 408.808594 151.992188 C 407.621094 152.785156 406.433594 153.179688 404.847656 153.179688 Z M 404.847656 153.179688 " fill-opacity="1" fill-rule="evenodd"/></svg>