<svg xmlns="http://www.w3.org/2000/svg" xmlns:xlink="http://www.w3.org/1999/xlink" width="1080" zoomAndPan="magnify" viewBox="0 0 810 809.999993" height="1080" preserveAspectRatio="xMidYMid meet" version="1.0"><defs><clipPath id="0abbfe6e6a"><path d="M 60.15625 196.800781 L 750 196.800781 L 750 613.050781 L 60.15625 613.050781 Z M 60.15625 196.800781 " clip-rule="nonzero"/></clipPath></defs><path fill="#000000" d="M 340.679688 334.019531 C 323.296875 334.019531 309.15625 348.160156 309.15625 365.542969 C 309.15625 382.921875 323.296875 397.066406 340.679688 397.066406 C 358.0625 397.066406 372.203125 382.921875 372.203125 365.542969 C 372.203125 348.160156 358.0625 334.019531 340.679688 334.019531 Z M 340.679688 386.453125 C 329.148438 386.453125 319.765625 377.074219 319.765625 365.542969 C 319.765625 354.011719 329.148438 344.628906 340.679688 344.628906 C 352.210938 344.628906 361.59375 354.011719 361.59375 365.542969 C 361.59375 377.074219 352.210938 386.453125 340.679688 386.453125 Z M 340.679688 386.453125 " fill-opacity="1" fill-rule="nonzero"/><path fill="#000000" d="M 435.78125 334.019531 C 418.398438 334.019531 404.257812 348.160156 404.257812 365.542969 C 404.257812 382.921875 418.398438 397.066406 435.78125 397.066406 C 453.164062 397.066406 467.304688 382.921875 467.304688 365.542969 C 467.304688 348.160156 453.164062 334.019531 435.78125 334.019531 Z M 435.78125 386.453125 C 424.25 386.453125 414.867188 377.074219 414.867188 365.542969 C 414.867188 354.011719 424.25 344.628906 435.78125 344.628906 C 447.3125 344.628906 456.695312 354.011719 456.695312 365.542969 C 456.695312 377.074219 447.3125 386.453125 435.78125 386.453125 Z M 435.78125 386.453125 " fill-opacity="1" fill-rule="nonzero"/><path fill="#000000" d="M 530.882812 334.019531 C 513.5 334.019531 499.359375 348.160156 499.359375 365.542969 C 499.359375 382.921875 513.5 397.066406 530.882812 397.066406 C 548.265625 397.066406 562.40625 382.921875 562.40625 365.542969 C 562.40625 348.160156 548.265625 334.019531 530.882812 334.019531 Z M 530.882812 386.453125 C 519.351562 386.453125 509.96875 377.074219 509.96875 365.542969 C 509.96875 354.011719 519.351562 344.628906 530.882812 344.628906 C 542.414062 344.628906 551.796875 354.011719 551.796875 365.542969 C 551.796875 377.074219 542.414062 386.453125 530.882812 386.453125 Z M 530.882812 386.453125 " fill-opacity="1" fill-rule="nonzero"/><g clip-path="url(#0abbfe6e6a)"><path fill="#000000" d="M 724.652344 349.324219 C 726.796875 342.089844 726.617188 335.035156 724.058594 328.730469 C 723.730469 327.925781 723.359375 327.140625 722.953125 326.378906 L 749.121094 227.777344 C 750.667969 221.949219 749.6875 215.691406 746.429688 210.617188 C 743.171875 205.539062 737.890625 202.042969 731.945312 201.019531 L 709.335938 197.132812 C 701.28125 195.75 693.25 198.964844 688.382812 205.535156 L 628.4375 286.386719 C 552.910156 266.660156 464.203125 256.570312 394.207031 253.703125 C 297.289062 249.738281 186.980469 257.011719 168.0625 289.332031 C 146.1875 326.703125 115.910156 360.882812 99.808594 377.929688 C 96.890625 381.019531 93.78125 383.917969 90.792969 386.546875 C 90.765625 386.570312 90.730469 386.585938 90.703125 386.609375 C 88.378906 388.644531 85.941406 390.699219 83.457031 392.710938 C 75.175781 399.421875 68.917969 408.121094 64.855469 418.566406 C 54.339844 445.609375 61.78125 476.390625 83.816406 496.984375 C 85.375 498.441406 87.007812 499.847656 88.683594 501.226562 C 89.179688 501.636719 89.691406 502.035156 90.199219 502.4375 C 91.472656 503.453125 92.78125 504.445312 94.121094 505.417969 C 94.613281 505.773438 95.101562 506.136719 95.601562 506.484375 C 103.597656 512.09375 112.628906 516.949219 122.636719 520.964844 C 122.972656 521.097656 123.316406 521.191406 123.660156 521.257812 C 148.605469 531.003906 179.660156 535.917969 216.402344 535.917969 C 258.265625 535.917969 307.492188 529.554688 363.320312 516.808594 C 433.542969 569.5 519.53125 613.175781 569.351562 613.171875 C 574.953125 613.171875 580.105469 612.617188 584.714844 611.464844 C 597.804688 608.191406 606.542969 600.546875 610.691406 588.738281 C 625.433594 546.785156 580.960938 496.25 542.710938 462.328125 C 608.925781 437.875 657.894531 414.15625 688.414062 391.75 C 704.039062 400.367188 719.734375 406.488281 731.296875 406.488281 C 733.5 406.488281 735.554688 406.269531 737.425781 405.800781 C 742.984375 404.410156 746.867188 400.980469 748.660156 395.882812 C 754.230469 380.023438 739.167969 362.121094 724.652344 349.324219 Z M 696.90625 211.855469 C 699.375 208.519531 703.445312 206.886719 707.539062 207.589844 L 730.148438 211.476562 C 733.210938 212.003906 735.820312 213.734375 737.5 216.347656 C 739.175781 218.960938 739.660156 222.054688 738.863281 225.054688 L 714.457031 317.015625 C 713.175781 316.140625 711.820312 315.351562 710.375 314.683594 C 689.4375 304.980469 665.339844 296.574219 639.445312 289.351562 Z M 107.519531 385.214844 C 122.117188 369.761719 148.152344 340.453125 169.5 307.226562 C 193.175781 305.480469 223.636719 313.484375 223.953125 313.566406 C 224.132812 313.613281 224.339844 313.65625 224.519531 313.683594 C 225.894531 313.898438 258.113281 319.433594 258.113281 361.371094 C 258.113281 408.5 231.125 420.800781 208.480469 422.824219 C 182.445312 425.152344 161.53125 415.039062 126.863281 398.296875 L 122.925781 396.394531 C 117.414062 392.8125 111.386719 389.917969 104.957031 387.839844 C 105.820312 386.980469 106.675781 386.109375 107.519531 385.214844 Z M 74.746094 422.414062 C 78.128906 413.707031 83.308594 406.488281 90.136719 400.953125 C 91.847656 399.566406 93.742188 398.007812 95.71875 396.316406 C 103.378906 398.011719 110.472656 401.027344 116.796875 405.082031 C 116.886719 405.152344 116.988281 405.203125 117.082031 405.265625 C 135.179688 417.007812 146.84375 437.359375 146.84375 460.089844 C 146.84375 479.46875 138.464844 497.464844 123.742188 509.925781 C 123.453125 509.804688 123.167969 509.679688 122.882812 509.554688 C 121.632812 509.011719 120.394531 508.464844 119.179688 507.894531 C 118.867188 507.746094 118.566406 507.589844 118.257812 507.441406 C 114.34375 505.5625 110.628906 503.53125 107.109375 501.363281 C 106.574219 501.035156 106.03125 500.707031 105.503906 500.371094 C 104.652344 499.824219 103.824219 499.265625 102.996094 498.703125 C 102.3125 498.234375 101.632812 497.765625 100.964844 497.289062 C 100.257812 496.785156 99.558594 496.273438 98.875 495.757812 C 98.050781 495.136719 97.246094 494.5 96.449219 493.859375 C 95.925781 493.441406 95.394531 493.027344 94.886719 492.601562 C 93.578125 491.503906 92.292969 490.382812 91.058594 489.230469 C 72.214844 471.617188 65.808594 445.390625 74.746094 422.414062 Z M 600.683594 585.21875 C 597.75 593.566406 591.683594 598.785156 582.140625 601.171875 C 578.117188 602.179688 573.621094 602.660156 568.699219 602.660156 C 520.089844 602.652344 430.722656 555.59375 361.21875 501.8125 C 360.34375 501.132812 359.476562 500.453125 358.609375 499.773438 C 357.140625 498.628906 355.683594 497.476562 354.234375 496.324219 C 353.363281 495.628906 352.488281 494.933594 351.625 494.238281 C 349.894531 492.847656 348.179688 491.453125 346.480469 490.054688 C 345.992188 489.652344 345.496094 489.253906 345.011719 488.851562 C 342.863281 487.074219 340.746094 485.289062 338.652344 483.507812 C 338.027344 482.972656 337.410156 482.4375 336.789062 481.90625 C 335.203125 480.542969 333.636719 479.175781 332.085938 477.8125 C 331.472656 477.273438 330.859375 476.734375 330.253906 476.199219 C 328.195312 474.371094 326.160156 472.539062 324.167969 470.710938 C 321.445312 468.210938 319.886719 464.796875 319.773438 461.171875 C 319.757812 460.65625 319.769531 460.132812 319.8125 459.609375 C 319.9375 458.082031 320.316406 456.621094 320.921875 455.273438 C 321.925781 453.027344 323.558594 451.101562 325.679688 449.714844 C 326.214844 449.363281 326.777344 449.015625 327.347656 448.664062 C 327.519531 448.558594 327.695312 448.453125 327.871094 448.347656 C 328.292969 448.09375 328.722656 447.84375 329.164062 447.589844 C 329.359375 447.472656 329.5625 447.359375 329.761719 447.246094 C 330.242188 446.980469 330.730469 446.710938 331.230469 446.441406 C 331.390625 446.359375 331.546875 446.273438 331.707031 446.1875 C 332.378906 445.832031 333.070312 445.480469 333.78125 445.128906 C 333.875 445.082031 333.976562 445.035156 334.070312 444.992188 C 334.6875 444.6875 335.324219 444.386719 335.976562 444.089844 C 336.1875 443.992188 336.40625 443.894531 336.621094 443.796875 C 337.191406 443.539062 337.773438 443.28125 338.367188 443.027344 C 338.589844 442.933594 338.8125 442.839844 339.035156 442.746094 C 339.753906 442.441406 340.492188 442.140625 341.246094 441.84375 C 341.339844 441.808594 341.425781 441.773438 341.519531 441.734375 C 342.390625 441.394531 343.285156 441.058594 344.207031 440.726562 C 344.371094 440.667969 344.546875 440.609375 344.714844 440.546875 C 345.457031 440.28125 346.214844 440.019531 346.992188 439.757812 C 347.253906 439.671875 347.515625 439.585938 347.78125 439.5 C 348.527344 439.253906 349.292969 439.011719 350.070312 438.769531 C 350.304688 438.699219 350.539062 438.625 350.777344 438.550781 C 352.824219 437.933594 354.96875 437.335938 357.222656 436.765625 C 357.46875 436.699219 357.71875 436.640625 357.96875 436.578125 C 358.859375 436.355469 359.765625 436.136719 360.6875 435.925781 C 361 435.851562 361.3125 435.78125 361.625 435.710938 C 362.589844 435.492188 363.574219 435.28125 364.574219 435.070312 C 364.808594 435.023438 365.039062 434.972656 365.277344 434.921875 C 366.542969 434.664062 367.832031 434.410156 369.15625 434.167969 C 369.234375 434.15625 369.3125 434.140625 369.390625 434.128906 C 370.597656 433.910156 371.832031 433.695312 373.089844 433.492188 C 373.445312 433.433594 373.804688 433.375 374.164062 433.320312 C 375.195312 433.15625 376.246094 432.996094 377.3125 432.84375 C 377.695312 432.789062 378.078125 432.730469 378.46875 432.675781 C 379.691406 432.507812 380.941406 432.34375 382.210938 432.1875 C 382.414062 432.160156 382.613281 432.132812 382.816406 432.109375 C 384.3125 431.925781 385.839844 431.757812 387.398438 431.59375 C 387.703125 431.5625 388.015625 431.535156 388.324219 431.503906 C 389.5625 431.378906 390.816406 431.261719 392.097656 431.152344 C 392.578125 431.109375 393.0625 431.070312 393.546875 431.03125 C 394.726562 430.933594 395.925781 430.84375 397.140625 430.757812 C 397.617188 430.726562 398.089844 430.691406 398.574219 430.660156 C 400.207031 430.550781 401.859375 430.453125 403.554688 430.371094 C 403.589844 430.367188 403.628906 430.363281 403.667969 430.363281 C 405.402344 430.277344 407.179688 430.203125 408.980469 430.140625 C 409.492188 430.125 410.019531 430.109375 410.539062 430.09375 C 411.851562 430.054688 413.175781 430.019531 414.523438 429.992188 C 415.136719 429.980469 415.75 429.96875 416.367188 429.960938 C 417.757812 429.9375 419.167969 429.925781 420.59375 429.917969 C 421.117188 429.914062 421.632812 429.910156 422.164062 429.90625 C 424.007812 429.90625 425.882812 429.914062 427.789062 429.9375 C 427.957031 429.9375 428.117188 429.9375 428.285156 429.941406 C 430.347656 429.964844 432.449219 430.007812 434.585938 430.0625 C 435.257812 430.082031 435.945312 430.105469 436.625 430.125 C 438.105469 430.167969 439.589844 430.21875 441.105469 430.277344 C 441.953125 430.308594 442.8125 430.347656 443.671875 430.386719 C 445.066406 430.445312 446.472656 430.511719 447.898438 430.585938 C 448.804688 430.632812 449.71875 430.683594 450.640625 430.734375 C 452.078125 430.8125 453.53125 430.902344 454.996094 430.996094 C 455.917969 431.054688 456.832031 431.113281 457.765625 431.175781 C 459.359375 431.285156 460.976562 431.40625 462.605469 431.53125 C 463.421875 431.59375 464.230469 431.648438 465.054688 431.714844 C 467.523438 431.914062 470.015625 432.125 472.5625 432.359375 C 484.042969 433.410156 494.9375 437.597656 504.066406 444.46875 C 505.898438 445.847656 507.722656 447.246094 509.539062 448.652344 C 541.207031 473.21875 617.171875 538.285156 600.683594 585.21875 Z M 678.367188 385.90625 C 647.566406 407.546875 598.921875 430.550781 533.550781 454.390625 C 533.328125 454.203125 533.09375 454.019531 532.871094 453.832031 C 529.257812 450.792969 525.761719 447.941406 522.445312 445.292969 C 522.273438 445.15625 522.105469 445.023438 521.9375 444.886719 C 517.773438 441.574219 513.902344 438.59375 510.445312 435.988281 C 499.738281 427.933594 486.972656 423.023438 473.527344 421.792969 C 383.273438 413.53125 340.15625 427.585938 319.878906 440.832031 C 313.722656 444.851562 309.84375 451.378906 309.238281 458.738281 C 308.621094 466.222656 311.445312 473.433594 316.992188 478.523438 C 319.566406 480.890625 322.207031 483.253906 324.882812 485.617188 C 325.398438 486.070312 325.925781 486.523438 326.445312 486.976562 C 328.792969 489.03125 331.175781 491.082031 333.589844 493.128906 C 333.871094 493.363281 334.15625 493.601562 334.4375 493.839844 C 340.238281 498.734375 346.222656 503.59375 352.359375 508.398438 C 258.246094 529.035156 184.507812 530.855469 134.839844 514.140625 C 149.308594 499.925781 157.457031 480.683594 157.457031 460.089844 C 157.457031 444.9375 152.988281 430.691406 145.214844 418.722656 C 165.574219 427.941406 182.480469 433.761719 201.191406 433.761719 C 203.890625 433.761719 206.632812 433.640625 209.425781 433.390625 C 231.570312 431.414062 268.722656 419.425781 268.722656 361.371094 C 268.722656 312.753906 230.804688 304.085938 226.488281 303.261719 C 223.800781 302.554688 199.148438 296.273438 176.210938 296.367188 C 176.542969 295.804688 176.890625 295.253906 177.21875 294.691406 C 188.578125 275.289062 255.988281 263.332031 347.304688 263.332031 C 362.203125 263.332031 377.742188 263.648438 393.773438 264.304688 C 490.621094 268.269531 623.480469 286.113281 705.914062 324.308594 C 709.804688 326.113281 712.757812 329.097656 714.230469 332.722656 C 715.363281 335.519531 715.765625 338.53125 715.433594 341.738281 C 715.433594 341.734375 715.429688 341.734375 715.425781 341.730469 C 714.8125 341.257812 714.207031 340.796875 713.617188 340.351562 C 709.484375 337.242188 704.554688 335.34375 699.367188 334.867188 C 674.097656 332.558594 655.894531 334.90625 645.261719 341.851562 C 642.269531 343.808594 640.382812 346.976562 640.085938 350.550781 C 639.789062 354.164062 641.152344 357.648438 643.832031 360.109375 C 644.84375 361.035156 645.90625 361.980469 646.996094 362.929688 C 647.332031 363.226562 647.667969 363.519531 648.007812 363.8125 C 648.871094 364.554688 649.75 365.296875 650.652344 366.046875 C 658.984375 372.980469 668.574219 379.863281 678.367188 385.90625 Z M 738.644531 392.367188 C 738.230469 393.554688 737.453125 394.855469 734.851562 395.507812 C 726.484375 397.601562 709.253906 391.445312 690.855469 381.019531 C 690.769531 380.96875 690.703125 380.894531 690.617188 380.84375 C 678.113281 373.710938 665.503906 364.855469 655.257812 356.066406 C 655.25 356.054688 655.238281 356.046875 655.226562 356.035156 C 653.769531 354.785156 652.359375 353.535156 651.007812 352.292969 C 650.667969 351.984375 650.644531 351.613281 650.660156 351.421875 C 650.6875 351.125 650.820312 350.894531 651.0625 350.738281 C 655.894531 347.582031 668.46875 342.691406 698.398438 345.4375 C 701.621094 345.730469 704.679688 346.90625 707.238281 348.832031 C 708.53125 349.804688 709.816406 350.804688 711.085938 351.816406 C 711.164062 351.878906 711.242188 351.941406 711.320312 352.003906 C 712.53125 352.972656 713.726562 353.953125 714.898438 354.941406 C 729.734375 367.472656 742.132812 382.441406 738.644531 392.367188 Z M 738.644531 392.367188 " fill-opacity="1" fill-rule="nonzero"/></g></svg>