<svg xmlns="http://www.w3.org/2000/svg" xmlns:xlink="http://www.w3.org/1999/xlink" width="1080" zoomAndPan="magnify" viewBox="0 0 810 809.999993" height="1080" preserveAspectRatio="xMidYMid meet" version="1.0"><path fill="#000000" d="M 232.023438 549.207031 C 225.277344 548.535156 218.832031 547.664062 213.203125 543.789062 C 200.609375 535.109375 198.464844 517.734375 211.992188 507.890625 C 214.425781 506.117188 215.648438 505.117188 213.941406 501.257812 C 210.890625 494.355469 206.125 489.097656 201.28125 483.726562 C 194.863281 476.613281 193.84375 467.273438 197.359375 458.425781 C 200.652344 450.128906 205.914062 442.972656 209.613281 434.949219 C 210.527344 432.96875 212.277344 430.535156 214.835938 431.246094 C 217.160156 431.886719 217.109375 434.550781 217.046875 436.734375 C 216.84375 444.042969 218.703125 450.519531 224.214844 455.738281 C 227.820312 459.15625 232.488281 458.628906 236.691406 459.214844 C 251.941406 461.328125 265.410156 466.527344 275.417969 478.894531 C 282.015625 487.046875 285.324219 496.328125 285.6875 506.738281 C 285.734375 508.0625 285.75 509.390625 285.675781 510.714844 C 285.566406 512.671875 286.136719 513.808594 288.375 513.933594 C 290.683594 514.0625 290.300781 512.558594 290.742188 511.121094 C 295.445312 495.808594 299.195312 480.230469 304.808594 465.164062 C 308.847656 454.316406 313.035156 443.585938 318.207031 433.25 C 319.453125 430.757812 317.699219 430.71875 316.421875 430.359375 C 309.207031 428.339844 302.378906 425.3125 295.40625 422.648438 C 289.148438 420.257812 282.933594 417.675781 277.308594 414.253906 C 265.84375 407.273438 253.683594 404.765625 240.558594 406.355469 C 238.035156 406.664062 236.242188 405.625 234.871094 404.074219 C 233.128906 402.101562 235.070312 400.3125 236.109375 398.820312 C 240.246094 392.886719 245.816406 388.277344 250.878906 383.195312 C 251.304688 382.773438 251.597656 382.214844 252.207031 381.359375 C 245.820312 379.289062 239.414062 379.402344 233.351562 377.125 C 223.097656 373.269531 214.21875 367.699219 206.410156 360.230469 C 205.722656 359.574219 204.980469 358.980469 204.285156 358.335938 C 200.484375 354.828125 201.335938 350.445312 206.355469 348.984375 C 210.753906 347.703125 215.277344 346.964844 219.636719 345.355469 C 222.222656 344.402344 224.371094 343.253906 226.597656 340.984375 C 221.277344 337.859375 215.296875 335.980469 211.234375 331.105469 C 210.210938 329.875 209.589844 328.285156 208.414062 327.378906 C 206.894531 326.199219 206.730469 324.941406 207.410156 323.535156 C 208.171875 321.957031 209.546875 320.886719 211.433594 321.285156 C 219.21875 322.933594 226.820312 322.003906 234.460938 320.160156 C 236.648438 319.628906 238.464844 319.121094 239.808594 316.96875 C 193.605469 313.945312 157.417969 297.003906 143.382812 248.5625 C 140.648438 251.429688 142.296875 255.261719 140.949219 258.332031 C 140.160156 260.132812 140.035156 262.203125 137.359375 262.417969 C 134.886719 262.613281 133.5625 261.652344 132.273438 259.511719 C 123.484375 244.921875 122.648438 229.511719 127.15625 213.496094 C 127.476562 212.359375 128.230469 211.136719 127.316406 210.253906 C 125.941406 208.921875 125.070312 210.585938 124.019531 211.207031 C 121.074219 212.949219 117.652344 213.660156 114.917969 216.023438 C 113.363281 217.371094 110.777344 217.335938 108.824219 216.046875 C 106.921875 214.796875 107.570312 212.71875 107.910156 211.015625 C 111.074219 195.203125 118.351562 181.738281 130.546875 170.96875 C 150.175781 153.644531 171.589844 138.570312 191.824219 121.996094 C 201.070312 114.421875 210.222656 106.417969 220.886719 100.796875 C 229.597656 96.203125 239.113281 94.597656 249.035156 95.847656 C 268.421875 98.292969 281.039062 110.296875 291.46875 125.539062 C 294.128906 129.425781 297.046875 133.136719 298.785156 137.578125 C 299.402344 139.152344 300.320312 139.382812 301.875 138.515625 C 306.433594 135.964844 311.113281 133.625 315.683594 131.097656 C 317.59375 130.042969 315.925781 129.203125 315.253906 128.5 C 312.433594 125.566406 309.417969 122.808594 306.734375 119.753906 C 305.128906 117.921875 303.703125 115.726562 305.324219 113.0625 C 306.910156 110.453125 309.414062 111.222656 311.578125 111.636719 C 319.769531 113.207031 319.339844 113.210938 320.667969 105.390625 C 323.476562 88.824219 332.800781 77.242188 348.46875 70.878906 C 350.710938 69.964844 352.613281 69.902344 354.28125 71.851562 C 356.074219 73.949219 354.019531 75.125 353.105469 76.507812 C 347.167969 85.523438 348.121094 95.496094 348.65625 106.660156 C 353.019531 99.808594 357.730469 94.867188 363.433594 90.851562 C 370.832031 85.648438 379.378906 82.863281 387.992188 81.761719 C 396.347656 80.695312 405.160156 80.285156 413.429688 83.503906 C 415.601562 84.347656 418.171875 84.394531 419.328125 87.308594 C 420.144531 89.359375 422.707031 88.699219 424.25 88.292969 C 436.53125 85.074219 448.730469 86.46875 460.933594 88.574219 C 462.046875 88.765625 463.222656 89.109375 464.164062 89.703125 C 465.839844 90.761719 468.476562 91.054688 468.257812 93.925781 C 468.019531 97.023438 465.804688 97.46875 463.292969 97.519531 C 462.878906 97.53125 462.472656 97.910156 461.148438 98.589844 C 466.351562 99.488281 470.554688 100.800781 474.601562 102.65625 C 476.984375 103.746094 479.34375 104.820312 479.402344 107.652344 C 479.46875 110.832031 476.347656 110.484375 474.371094 111.34375 C 473.933594 111.53125 473.511719 111.761719 472.332031 112.339844 C 480.578125 114.464844 487.609375 117.855469 494.730469 121.082031 C 498.136719 122.625 501.585938 124.097656 504.558594 126.257812 C 507.402344 128.328125 508.808594 128.207031 510.449219 124.957031 C 515.738281 114.492188 523.128906 105.679688 532.140625 98.175781 C 545.519531 87.027344 565.277344 83.757812 581.726562 91.589844 C 592.96875 96.945312 602.511719 104.757812 612.695312 111.632812 C 625.882812 120.539062 638.976562 129.605469 652.019531 138.714844 C 663.070312 146.433594 674.84375 153.5 684.136719 163.433594 C 693.203125 173.125 699.578125 184.566406 702.746094 197.628906 C 703.140625 199.253906 703.085938 200.621094 701.882812 201.726562 C 700.050781 203.417969 697.839844 203.042969 695.867188 202.195312 C 692.25 200.640625 688.753906 198.8125 685.203125 197.105469 C 684.09375 196.574219 683.050781 195.046875 681.742188 196.234375 C 680.75 197.132812 681.574219 198.355469 681.984375 199.445312 C 687.375 213.75 685.832031 227.890625 680.820312 241.902344 C 680.222656 243.574219 679.09375 245.074219 678.128906 246.601562 C 677.265625 247.96875 675.988281 248.71875 674.339844 248.273438 C 672.636719 247.808594 671.335938 246.90625 671.363281 244.851562 C 671.410156 241.402344 669.621094 238.644531 667.496094 234.386719 C 662.875 255.082031 653.84375 271.953125 637.742188 284.132812 C 621.835938 296.164062 603.671875 302.222656 582.382812 302.558594 C 586.722656 306.21875 591.234375 306.242188 595.21875 307.007812 C 599.371094 307.804688 603.722656 308.53125 608.027344 307.359375 C 610.261719 306.75 612.023438 307.925781 613.257812 309.445312 C 614.71875 311.234375 612.707031 312.390625 611.832031 313.648438 C 607.554688 319.828125 601.464844 323.363281 593.832031 325.429688 C 600.644531 330.476562 607.898438 333.488281 615.324219 336.136719 C 621.011719 338.167969 622.21875 341.082031 617.625 345.824219 C 606.878906 356.921875 594.121094 364.785156 579.46875 369.5625 C 577.953125 370.054688 576.207031 369.851562 574.3125 369.988281 C 574.566406 373.34375 577.421875 374.894531 579.378906 376.238281 C 583.726562 379.222656 587.285156 382.980469 591.203125 386.386719 C 593.488281 388.371094 594.746094 390.941406 593.566406 393.597656 C 592.460938 396.097656 589.699219 395.558594 587.386719 395.035156 C 583.03125 394.042969 578.863281 395.523438 574.621094 395.996094 C 567.046875 396.839844 560.714844 400.390625 554.503906 404.664062 C 539.234375 415.167969 522.363281 422.589844 505.078125 429.046875 C 502.539062 429.996094 502.65625 430.65625 503.566406 432.730469 C 508.257812 443.457031 513.253906 454.085938 517.25 465.074219 C 521.988281 478.101562 526.46875 491.269531 529.253906 504.921875 C 529.742188 507.324219 530.769531 509.613281 531.308594 512.007812 C 531.699219 513.746094 532.765625 514.003906 534.199219 513.960938 C 548.699219 513.519531 560.515625 519.878906 570.246094 529.726562 C 577.554688 537.121094 582.460938 546.308594 586.144531 556.265625 C 591.203125 569.941406 593.402344 583.839844 592.910156 598.34375 C 592.679688 605.183594 591.257812 611.722656 589.292969 618.171875 C 588.265625 621.542969 588.597656 623.226562 592.617188 623.757812 C 604.296875 625.300781 614.90625 629.464844 623.453125 637.914062 C 634.289062 648.625 639.550781 661.492188 638.566406 676.851562 C 637.773438 689.273438 625.21875 705.335938 615.242188 710.066406 C 595.636719 719.371094 575.425781 716.988281 555.128906 715.328125 C 552.488281 715.109375 551.398438 715.703125 550.074219 717.785156 C 544.046875 727.273438 535.480469 732.832031 524.121094 733.5625 C 522.066406 733.691406 520.164062 734.28125 518.488281 735.152344 C 508.339844 740.40625 498.316406 739.9375 488.128906 735.246094 C 485.050781 733.824219 481.609375 734.859375 478.324219 734.894531 C 472.460938 734.957031 466.652344 735.566406 461.179688 732.058594 C 454.808594 727.972656 450.101562 722.757812 447.839844 715.609375 C 446.78125 712.265625 445.492188 710.789062 441.65625 711.257812 C 422.210938 713.632812 402.707031 713.492188 383.214844 711.78125 C 379.40625 711.449219 377.339844 711.988281 375.863281 716.503906 C 373.035156 725.167969 362.410156 736.027344 350.761719 734.792969 C 344.261719 734.101562 338.046875 735.382812 331.585938 737.601562 C 324.25 740.125 315.90625 739.957031 308.535156 735.914062 C 305.996094 734.523438 303.464844 733.773438 300.632812 733.769531 C 288.765625 733.757812 280.085938 728.152344 273.757812 718.433594 C 272.367188 716.296875 270.941406 715.167969 267.882812 715.46875 C 253.554688 716.886719 239.214844 717.566406 224.808594 715.839844 C 206.558594 713.648438 192.617188 705.058594 185.09375 688.203125 C 181.414062 679.957031 181.136719 670.773438 183.25 661.535156 C 186.714844 646.378906 196.550781 636.46875 209.15625 628.960938 C 213.964844 626.09375 219.734375 624.769531 225.457031 624.046875 C 228.050781 623.71875 228.949219 622.949219 228.082031 619.667969 C 223.628906 602.785156 222.378906 585.78125 226.222656 568.445312 C 227.679688 561.878906 230.828125 555.898438 232.019531 549.199219 Z M 338.210938 135.960938 C 333.082031 135.851562 328.351562 134.488281 323.113281 136.695312 C 313.394531 140.785156 304.523438 146.003906 296.125 152.292969 C 277.546875 166.203125 265.199219 184.324219 260 206.878906 C 256.277344 223.015625 259.824219 238.929688 263.585938 254.6875 C 267.070312 269.292969 268.285156 283.917969 263.082031 298.417969 C 258.011719 312.558594 248.917969 322.800781 234.253906 327.4375 C 230.929688 328.492188 227.5625 329.40625 223.523438 330.589844 C 230.515625 335.117188 237.4375 334.050781 244.042969 333.164062 C 237.554688 344.949219 227.152344 351.550781 213.808594 355.507812 C 219.78125 359.976562 226.003906 360.996094 231.652344 363.328125 C 237.777344 365.855469 244.15625 365.992188 250.609375 365.90625 C 256.648438 365.824219 262.695312 366.117188 268.679688 364.824219 C 259.507812 370.117188 249.476562 370.457031 239.351562 370.710938 C 247.507812 374.003906 256.132812 374.117188 264.957031 374.839844 C 260.699219 382.949219 255.898438 389.863281 249.273438 395.410156 C 248.695312 395.894531 248.035156 396.882812 248.160156 397.476562 C 248.417969 398.675781 249.707031 398.402344 250.660156 398.457031 C 253.960938 398.640625 257.234375 398.859375 260.515625 399.464844 C 267.253906 400.710938 273.878906 400.183594 280.613281 398.507812 C 285.441406 397.308594 289.460938 394.253906 294.878906 392.855469 C 290.019531 398.460938 284.976562 402.554688 277.832031 405.617188 C 342.164062 437.941406 408.355469 445.253906 477.0625 429.273438 C 502.777344 423.292969 527.007812 413.039062 550.058594 398.269531 C 542.601562 395.777344 536.582031 392.988281 532.328125 387.351562 C 533.699219 387.386719 534.914062 387.738281 535.976562 388.355469 C 541.996094 391.851562 548.660156 391.546875 555.179688 391.328125 C 562.257812 391.09375 569.121094 389.160156 576.019531 387.636719 C 577.085938 387.402344 578.601562 387.820312 578.867188 386.300781 C 579.097656 384.957031 577.835938 384.5 576.871094 383.808594 C 570.910156 379.546875 565.957031 374.25 561.820312 368.242188 C 559.933594 365.503906 560.441406 363.953125 564.308594 363.710938 C 570.421875 363.328125 576.421875 362.050781 582.21875 359.769531 C 572.695312 358.46875 562.808594 360.445312 553.964844 355.449219 C 563.820312 354.675781 573.730469 356.234375 583.429688 353.492188 C 592.710938 350.867188 601.582031 347.492188 609.726562 341.835938 C 595.390625 337.554688 584.777344 329.710938 576.484375 316.414062 C 584.753906 319.164062 591.636719 318.289062 598.402344 315.339844 C 597.851562 314.058594 596.921875 314.339844 596.167969 314.253906 C 587.941406 313.300781 580.476562 311.023438 573.621094 305.742188 C 555.335938 291.652344 550.046875 272.960938 552.851562 251.097656 C 554.023438 241.960938 556.152344 232.925781 556.949219 223.769531 C 558.363281 207.441406 554.335938 192.015625 546.601562 177.765625 C 540.066406 165.722656 531.203125 155.265625 520.625 146.550781 C 507.988281 136.140625 493.847656 128 478.375 122.621094 C 471.949219 120.386719 465.675781 117.367188 458.5625 117.039062 C 453.875 116.820312 449.242188 115.425781 443.726562 114.398438 C 450.886719 111.878906 457.160156 109.671875 463.429688 107.464844 C 455.035156 105.527344 446.921875 105.660156 438.671875 105.882812 C 430.535156 106.101562 423.167969 109.835938 415.03125 109.59375 C 424.644531 103.429688 434.402344 97.910156 445.425781 94.980469 C 416.039062 94.089844 390.574219 103.742188 368.691406 123.289062 C 377.03125 108.828125 387.941406 97.140625 403.101562 89.675781 C 390.898438 88.171875 379.65625 90.476562 369.332031 96.605469 C 358.296875 103.152344 352.265625 113.179688 350.425781 126.40625 C 346.128906 119.542969 344.453125 112.550781 342.632812 105.609375 C 340.746094 98.425781 340.972656 91.171875 342.445312 83 C 329.96875 93.777344 325.441406 106.113281 329.835938 121.371094 C 326.976562 121.371094 324.503906 121.355469 322.035156 121.378906 C 321.285156 121.386719 320.324219 120.863281 319.894531 121.925781 C 319.496094 122.910156 320.292969 123.386719 320.921875 123.914062 C 326.308594 128.414062 332.097656 132.320312 338.210938 135.957031 Z M 452.464844 555.488281 C 451.855469 567.832031 450.914062 579.527344 450.8125 591.230469 C 450.722656 601.683594 449.828125 612.058594 449.117188 622.453125 C 447.574219 644.933594 446.582031 667.433594 448.730469 689.90625 C 449.640625 699.398438 452.257812 708.601562 457.148438 716.988281 C 459.992188 721.871094 464.105469 725.429688 469.308594 727.25 C 472.6875 728.429688 476.820312 728.664062 479.910156 726.96875 C 481.035156 726.351562 479.394531 722.203125 478.699219 719.722656 C 478.476562 718.929688 478.324219 718.09375 478.304688 717.273438 C 478.175781 710.949219 478.722656 704.765625 481.929688 699.128906 C 482.539062 703.335938 482.296875 707.46875 482.59375 711.5625 C 483.046875 717.785156 485.085938 723.976562 490.335938 727.242188 C 496.777344 731.242188 504.347656 731.863281 511.851562 729.4375 C 518.199219 727.386719 521.449219 723.292969 522.582031 716.460938 C 523.695312 709.742188 522.878906 703.417969 521.351562 696.25 C 527.269531 703.976562 529.503906 711.902344 528.179688 720.8125 C 528 722.007812 526.863281 723.46875 528.574219 724.328125 C 529.816406 724.953125 530.980469 724.453125 532.257812 723.734375 C 551.683594 712.800781 556.492188 685.195312 540.074219 668.226562 C 534.09375 662.050781 526.523438 659.589844 518.585938 657.4375 C 522.941406 657.425781 527.253906 656.542969 531.464844 657.832031 C 534.136719 658.648438 534.988281 657.625 535.125 654.992188 C 535.457031 648.714844 536.304688 642.484375 536.234375 636.160156 C 535.96875 612.019531 536.261719 587.964844 532.648438 563.859375 C 530.066406 546.609375 527.011719 529.53125 523.4375 512.488281 C 522.152344 506.359375 520.039062 500.527344 518.441406 494.523438 C 515.117188 482.039062 510.773438 469.921875 506.058594 457.917969 C 503.5 451.410156 500.546875 445.082031 497.613281 438.734375 C 496.722656 436.808594 496.488281 434.082031 494.394531 433.707031 C 491.980469 433.277344 489.816406 434.835938 488.394531 437.179688 C 484.066406 444.304688 478.78125 450.695312 472.898438 456.574219 C 460.738281 468.726562 447.128906 478.578125 430.3125 483.367188 C 427.113281 484.277344 424.03125 485.597656 420.261719 486.957031 C 424.210938 490.289062 427.976562 492.730469 429.820312 496.867188 C 434.679688 507.761719 433.199219 514.421875 423.449219 522.738281 C 414.421875 530.4375 400.011719 526.863281 393.867188 517.035156 C 388.078125 507.769531 390.664062 496.019531 399.664062 489.632812 C 402.507812 487.613281 402.207031 486.195312 398.851562 485.3125 C 397.578125 484.976562 396.34375 484.484375 395.074219 484.128906 C 381.53125 480.328125 369.496094 473.714844 358.539062 464.9375 C 349.144531 457.40625 341.296875 448.4375 334.289062 438.785156 C 332.449219 436.253906 330.636719 434.253906 327.878906 434.453125 C 325.171875 434.644531 324.363281 437.691406 323.65625 439.957031 C 322.289062 444.34375 320.058594 448.371094 318.15625 452.460938 C 313.03125 463.484375 309.367188 475.011719 305.820312 486.53125 C 302.511719 497.289062 299.824219 508.273438 297.445312 519.335938 C 295.300781 529.289062 293.273438 539.28125 291.714844 549.296875 C 288.460938 570.191406 286.878906 591.273438 287.59375 612.46875 C 288.0625 626.359375 286.949219 640.277344 288.550781 654.164062 C 288.9375 657.515625 289.65625 658.160156 293.066406 657.554688 C 296.972656 656.859375 301.09375 657.394531 306.238281 657.394531 C 302.699219 658.480469 300.273438 659.496094 297.746094 659.957031 C 287.441406 661.820312 281.226562 668.957031 277.167969 677.527344 C 271.050781 690.441406 273.082031 703.296875 281.027344 714.945312 C 284.621094 720.210938 289.421875 724.542969 296.207031 725.597656 C 298.003906 725.878906 299.507812 726.425781 299.015625 723.078125 C 298.296875 718.210938 298.410156 713.144531 298.796875 708.214844 C 299.128906 703.972656 301.113281 700.195312 304.167969 696.703125 C 305.109375 699.1875 303.605469 700.683594 303.144531 702.359375 C 299.5625 715.292969 307.238281 728.53125 319.636719 730.5625 C 329.945312 732.25 338.003906 727.53125 341.457031 717.886719 C 343.8125 711.300781 343.753906 704.558594 343.011719 697.710938 C 346.660156 706.496094 351.023438 715.183594 345.9375 724.847656 C 344.71875 727.160156 345.640625 727.609375 347.859375 727.738281 C 355.210938 728.167969 360.835938 724.992188 365.179688 719.417969 C 370.992188 711.960938 372.761719 703.042969 374.296875 693.953125 C 376.714844 679.609375 376.390625 665.277344 375.214844 650.886719 C 373.191406 626.148438 372.964844 601.292969 370.433594 576.578125 C 369.792969 570.324219 369.792969 564.007812 369.5 557.71875 C 369.960938 557.675781 370.414062 557.636719 370.875 557.59375 C 372.660156 570.699219 375.21875 583.753906 376.03125 596.917969 C 377.027344 613.074219 380.007812 628.976562 380.78125 645.179688 C 381.644531 663.207031 383.730469 681.144531 380.335938 699.09375 C 379.742188 702.226562 380.082031 704.140625 384.074219 703.96875 C 387.691406 703.816406 391.335938 704.402344 394.976562 704.578125 C 409.71875 705.296875 424.433594 704.660156 439.140625 703.554688 C 442.730469 703.285156 444.367188 702.519531 443.246094 698.066406 C 441.761719 692.183594 441.203125 685.996094 440.875 679.90625 C 439.589844 656.171875 443.082031 632.660156 444.648438 609.0625 C 445.203125 600.683594 447.15625 592.394531 447.625 584.019531 C 448.121094 575.085938 451.105469 566.527344 451 557.550781 C 450.992188 557.039062 451.703125 556.523438 452.460938 555.488281 Z M 149.378906 226.898438 C 149.425781 277.605469 187.851562 303.128906 227.507812 307.867188 C 221.550781 304.296875 216.214844 302.117188 211.804688 298.3125 C 207.402344 294.511719 203.089844 290.757812 199.914062 285.808594 C 204.96875 288.738281 209.507812 292.480469 214.625 295.078125 C 225.316406 300.511719 236.664062 302.992188 248.882812 302.496094 C 254.351562 302.273438 256.964844 300.480469 258.148438 295.683594 C 259.324219 290.921875 260.871094 286.253906 261.117188 281.277344 C 261.796875 267.605469 258.0625 254.527344 255.246094 241.441406 C 250.683594 220.253906 254.535156 200.53125 264.003906 181.761719 C 270.667969 168.566406 280.207031 157.355469 292.082031 148.363281 C 294.164062 146.785156 294.300781 145.335938 293.066406 143.371094 C 292.363281 142.257812 291.515625 141.21875 290.914062 140.050781 C 282.757812 124.308594 272.242188 110.96875 254.726562 104.921875 C 247.167969 102.316406 239.546875 102.394531 231.9375 105.003906 C 224.402344 107.585938 218.015625 111.898438 211.839844 116.898438 C 200.734375 125.886719 189.128906 134.25 177.875 143.054688 C 166.339844 152.078125 155.109375 161.488281 143.5 170.410156 C 131.488281 179.644531 122.175781 190.753906 117.007812 205.910156 C 126.816406 201.835938 135.519531 196.625 145.121094 191.644531 C 131.882812 213.007812 128.773438 235.117188 135.847656 248.246094 C 138.878906 240.324219 142.59375 233.222656 149.378906 226.898438 Z M 664.257812 178.746094 C 673.261719 183.191406 681.109375 187.050781 688.945312 190.9375 C 689.824219 191.371094 690.785156 192.191406 691.65625 191.464844 C 692.710938 190.589844 692.4375 189.148438 691.660156 188.324219 C 689.242188 185.75 688.367188 182.351562 686.628906 179.421875 C 678.542969 165.816406 665.386719 157.894531 653.003906 149.152344 C 635.121094 136.535156 617.222656 123.933594 599.054688 111.734375 C 589.574219 105.363281 580.84375 97.632812 568.707031 95.824219 C 554.109375 93.644531 542.503906 98.691406 532.296875 108.527344 C 525.65625 114.929688 521.226562 122.886719 516.164062 130.445312 C 513.902344 133.828125 514.242188 135.65625 517.363281 137.605469 C 523.269531 141.296875 527.953125 146.304688 532.691406 151.339844 C 536.039062 154.894531 538.96875 158.277344 545.679688 156.625 C 552.222656 155.011719 559.710938 154.824219 566.648438 157.722656 C 577.65625 162.316406 585.164062 171.003906 592.738281 179.5625 C 600.125 187.914062 605.050781 197.863281 609.554688 207.960938 C 611.3125 211.898438 612.378906 216.144531 613.761719 220.25 C 610.386719 217.839844 609.613281 214.011719 607.847656 210.835938 C 597.347656 191.945312 584.34375 175.566406 564.886719 165.207031 C 557.585938 161.324219 549.863281 159.21875 540.960938 159.972656 C 541.671875 161.085938 542.070312 161.753906 542.511719 162.394531 C 552.367188 176.65625 559.8125 191.785156 561.488281 209.464844 C 562.449219 219.613281 562.257812 229.695312 560.085938 239.460938 C 557.046875 253.132812 555.75 266.3125 560.882812 279.859375 C 564.203125 288.621094 565.648438 290.683594 574.933594 289.984375 C 586.835938 289.085938 598.207031 286.308594 607.871094 278.652344 C 610.3125 276.71875 612.988281 275.078125 615.558594 273.300781 C 610.058594 281.964844 602.359375 288.082031 594.148438 293.582031 C 637.910156 284.984375 661.140625 259.085938 660.867188 212.742188 C 666.613281 219.730469 672.296875 225.585938 675.070312 233.917969 C 680.761719 219.296875 676.335938 197.730469 664.257812 178.75 Z M 233.570312 684.234375 C 234.511719 688.179688 231.511719 689.527344 231.117188 691.929688 C 230.6875 694.53125 229.292969 696.8125 228.757812 699.449219 C 227.171875 707.265625 227.871094 708.410156 235.835938 708.753906 C 245.273438 709.160156 254.683594 708.46875 264.105469 707.988281 C 268.023438 707.792969 268.675781 706.699219 267.726562 702.957031 C 264.84375 691.574219 266.691406 680.671875 272.632812 670.628906 C 274.179688 668.023438 273.210938 666.6875 271.707031 665.074219 C 255.910156 648.136719 247.121094 627.59375 241.480469 605.539062 C 239.828125 599.085938 239.222656 592.363281 238.003906 584.949219 C 241.164062 588.40625 240.15625 592.28125 241.46875 595.289062 C 246.484375 606.8125 249.386719 619.097656 255.265625 630.367188 C 260.910156 641.183594 266.9375 651.542969 275.539062 660.210938 C 276.371094 661.050781 276.019531 664.261719 278.757812 662.605469 C 280.699219 661.429688 282.0625 659.890625 281.699219 657.363281 C 279.953125 645.179688 280.601562 632.886719 280.363281 620.660156 C 279.839844 593.402344 280.71875 566.179688 285.777344 539.269531 C 286.6875 534.425781 287.890625 529.664062 288.003906 524.667969 C 288.042969 522.890625 288.324219 522.0625 286.171875 521.796875 C 272.695312 520.144531 261.28125 524.441406 252.058594 534.109375 C 242.050781 544.59375 236.589844 557.273438 233.617188 571.546875 C 229.972656 589.058594 231.613281 605.851562 237.121094 622.535156 C 239.113281 628.570312 238.171875 630.371094 231.785156 630.976562 C 221.078125 631.988281 211.515625 635.414062 203.457031 642.863281 C 198.191406 647.734375 193.542969 653.222656 191.652344 659.964844 C 187.699219 674.070312 190.4375 686.953125 201.3125 697.46875 C 202.15625 698.285156 202.292969 700.324219 204.121094 699.621094 C 205.921875 698.929688 204.84375 697.320312 204.800781 696.148438 C 204.425781 685.402344 212.261719 671.535156 220.621094 669.078125 C 220.398438 669.582031 220.300781 670.0625 220.023438 670.394531 C 211.988281 680.046875 208.027344 690.472656 213.117188 702.996094 C 214.679688 706.84375 217.46875 706.800781 220.714844 706.867188 C 224.648438 706.945312 223.703125 704.089844 223.785156 702.023438 C 224.078125 694.714844 228.898438 690.039062 233.570312 684.234375 Z M 617.507812 698.136719 C 619.648438 698.335938 620.476562 696.625 621.476562 695.496094 C 640.042969 674.585938 628.808594 645.640625 605.53125 635.1875 C 598.785156 632.160156 591.585938 631.78125 584.535156 630.476562 C 580.128906 629.664062 578.542969 627.835938 580.179688 623.996094 C 581.765625 620.265625 581.765625 616.296875 582.824219 612.507812 C 585.421875 603.210938 586.574219 593.824219 585.125 584.105469 C 584.394531 579.183594 583.003906 574.480469 582.027344 569.65625 C 578.90625 554.214844 571.957031 540.953125 559.632812 531.007812 C 552.964844 525.625 545.519531 521.394531 536.375 521.835938 C 534.25 521.941406 533.335938 521.925781 533.910156 524.863281 C 536.132812 536.304688 537.628906 547.898438 539.511719 559.386719 C 543.015625 580.753906 543.453125 602.164062 543.273438 623.65625 C 543.175781 635.65625 543.675781 647.671875 542.835938 659.835938 C 562.320312 638.722656 570.546875 612.351562 578.003906 585.542969 C 575.707031 601.792969 573.480469 617.96875 566.691406 633.101562 C 561.988281 643.585938 556.148438 653.375 549.257812 662.515625 C 547.636719 664.671875 546.980469 665.582031 549.070312 667.980469 C 551.324219 670.570312 552.902344 673.804688 554.308594 677.164062 C 558.078125 686.148438 557.542969 695.183594 556.175781 704.375 C 555.878906 706.367188 556.308594 707.554688 558.550781 707.753906 C 568.617188 708.648438 578.679688 709.296875 588.792969 708.621094 C 591.839844 708.417969 592.984375 707.039062 592.933594 703.875 C 592.867188 699.816406 592.285156 696.050781 590.316406 692.433594 C 588.667969 689.402344 587.417969 686.152344 585.996094 682.996094 C 592.132812 688.578125 597.460938 694.636719 597.640625 703.265625 C 597.710938 706.707031 599.355469 707.027344 601.949219 706.878906 C 604.226562 706.753906 606.015625 705.867188 607.433594 704.019531 C 612.574219 697.304688 611.660156 690.027344 609.003906 682.890625 C 607.097656 677.757812 604.714844 672.738281 601.21875 668.371094 C 612.0625 675.335938 616.761719 685.660156 617.511719 698.132812 Z M 235.527344 528.652344 C 243.722656 520.191406 245.972656 514.566406 243.335938 509.121094 C 239.839844 501.886719 228.898438 496.257812 219.867188 497.34375 C 223.761719 502.738281 226.683594 508.632812 234.171875 511.960938 C 229.648438 511.554688 226.40625 510.945312 223.1875 511.039062 C 214.703125 511.285156 208.519531 522.160156 211.851562 529.734375 C 216.476562 540.242188 225.085938 540.929688 234.324219 541.265625 C 236.175781 541.332031 237.125 540.125 238.164062 538.65625 C 247.078125 526.035156 258.027344 516.214844 274.082031 514.152344 C 277.335938 513.734375 278.460938 512.160156 278.378906 509.394531 C 278.085938 499.28125 275.230469 490.144531 268.3125 482.410156 C 259.21875 472.246094 247.257812 468.863281 234.386719 467.152344 C 224.476562 465.832031 215.652344 462.628906 212.039062 451.882812 C 211.78125 451.121094 211.472656 449.914062 209.808594 450.101562 C 208.074219 453.832031 206.5 457.785156 204.472656 461.484375 C 200.050781 469.542969 206.039062 478.78125 211.363281 483.253906 C 218.003906 488.828125 226.324219 490.316406 233.921875 493.476562 C 244.339844 497.808594 249.023438 504.058594 248.945312 515.449219 C 248.890625 522.640625 242.957031 528.480469 235.527344 528.652344 Z M 460.277344 440.761719 C 428.121094 446.933594 396.453125 446.023438 363.496094 442.339844 C 374.601562 452.214844 385.359375 459.554688 398.242188 463.398438 C 400.550781 464.089844 401.992188 464.828125 403.902344 461.980469 C 407.402344 456.769531 415.570312 456.910156 419.15625 462.15625 C 420.746094 464.480469 421.828125 464.152344 423.894531 463.570312 C 433.007812 461.003906 441.195312 456.503906 448.820312 451.113281 C 452.800781 448.296875 456.890625 445.3125 460.277344 440.757812 Z M 411.820312 521.964844 C 424.28125 522.535156 430.878906 509.171875 425.417969 498.214844 C 423.78125 494.929688 421.25 491.539062 416.367188 495.296875 C 413 497.890625 408.855469 497.734375 405.292969 495.054688 C 403.0625 493.378906 401.589844 493.917969 399.820312 495.800781 C 396.175781 499.6875 394.660156 506.578125 396.636719 511.300781 C 399.394531 517.882812 403.730469 522.230469 411.820312 521.964844 Z M 482.988281 436.292969 C 475.90625 437.097656 469.96875 437.953125 465.320312 442.945312 C 453.671875 455.4375 439.707031 464.355469 423.25 469.066406 C 420.460938 469.863281 421.039062 471.574219 421.085938 473.179688 C 421.15625 475.722656 420.273438 478.460938 422.160156 480.722656 C 422.296875 480.886719 423.050781 480.585938 423.5 480.4375 C 429.53125 478.472656 435.554688 476.609375 441.296875 473.71875 C 448.195312 470.242188 454.644531 466.171875 460.449219 461.183594 C 468.726562 454.066406 476.523438 446.433594 482.988281 436.292969 Z M 401.914062 475.011719 C 401.859375 469.863281 401.875 469.8125 397.027344 468.324219 C 384.160156 464.371094 372.875 457.523438 363.027344 448.558594 C 357.390625 443.429688 351.648438 439.125 344.042969 437.730469 C 342.894531 437.519531 341.695312 437.027344 340.824219 438.058594 C 340.28125 438.703125 340.484375 439.515625 341.171875 440.234375 C 347.789062 447.175781 353.636719 454.808594 361.375 460.722656 C 372.285156 469.054688 383.640625 476.085938 397.175781 479.613281 C 403.074219 481.148438 401.796875 478.015625 401.914062 475.011719 Z M 415.925781 478.046875 C 415.917969 478.046875 415.90625 478.046875 415.898438 478.046875 C 415.898438 474.757812 415.929688 471.460938 415.886719 468.171875 C 415.855469 465.4375 414.601562 463.859375 411.683594 463.867188 C 408.9375 463.878906 407.269531 465.019531 407.253906 467.929688 C 407.226562 474.347656 407.207031 480.765625 407.25 487.183594 C 407.265625 489.824219 408.203125 491.542969 411.355469 491.382812 C 414.339844 491.230469 415.992188 490.101562 415.9375 486.941406 C 415.886719 483.976562 415.925781 481.011719 415.925781 478.050781 Z M 415.925781 478.046875 " fill-opacity="1" fill-rule="nonzero"/><path fill="#000000" d="M 414.621094 310.070312 C 421.628906 310.574219 428.695312 310.84375 434.617188 315.535156 C 438.066406 318.265625 439.945312 321.496094 438.941406 326.011719 C 437.042969 334.550781 433.242188 341.757812 425.484375 346.515625 C 422.9375 348.078125 420.105469 347.964844 417.441406 348.636719 C 415.257812 349.183594 414.535156 349.953125 415.121094 351.886719 C 417.609375 360.058594 425.09375 368.019531 434.890625 369.972656 C 448.382812 372.667969 458.1875 366.214844 467.597656 358.363281 C 468.789062 357.367188 470.359375 355.566406 469.398438 352.863281 C 467.335938 347.070312 470.429688 343.523438 476.308594 345.125 C 481.515625 346.539062 485.667969 349.851562 487.210938 355.417969 C 488.273438 359.25 485.816406 362.71875 482.09375 361.589844 C 476.699219 359.953125 473.601562 361.597656 470.351562 365.640625 C 466.949219 369.875 461.847656 372.125 457.164062 374.746094 C 455.609375 375.617188 454.871094 376.480469 454.570312 378.421875 C 452.832031 389.605469 450.191406 400.46875 443.808594 410.167969 C 435.753906 422.410156 417.644531 428.25 404.988281 423.324219 C 391.398438 418.039062 384.207031 408.246094 380.023438 395.171875 C 378.375 390.015625 375.832031 385.105469 376.070312 379.476562 C 376.15625 377.390625 374.546875 376.808594 373.054688 376.058594 C 366.300781 372.679688 359.5 369.386719 354.933594 362.933594 C 353.511719 360.925781 351.460938 361.371094 349.5625 362.34375 C 346.332031 364 343.097656 363.574219 341.046875 360.878906 C 339.003906 358.195312 341.304688 355.65625 342.835938 353.289062 C 344.902344 350.085938 347.929688 348.148438 351.292969 346.664062 C 355.222656 344.925781 358.785156 346.914062 358.117188 351.042969 C 357.308594 356.039062 360.117188 358.824219 363.117188 361.367188 C 372.789062 369.5625 383.773438 373.09375 396.464844 369.792969 C 401.96875 368.363281 411.382812 357.382812 411.933594 351.523438 C 412.113281 349.621094 411.441406 348.824219 409.519531 348.722656 C 401.363281 348.296875 395.753906 343.515625 391.898438 337.003906 C 388.566406 331.371094 385.941406 325.164062 389.976562 318.464844 C 391.96875 315.15625 395.214844 313.273438 398.507812 312.5 C 403.753906 311.269531 409.015625 309.371094 414.621094 310.070312 Z M 415.210938 417.648438 C 427.578125 417.808594 441.226562 406.898438 443.644531 394.789062 C 443.902344 393.5 444.378906 392.035156 442.917969 390.714844 C 435.21875 383.757812 427.011719 379.796875 416.742188 387.996094 C 414.8125 389.535156 414.035156 388.761719 412.742188 387.5625 C 408.699219 383.804688 403.730469 382.628906 398.589844 383.953125 C 394.164062 385.09375 389.847656 387.378906 387.441406 391.429688 C 385.453125 394.78125 388.785156 397.519531 389.933594 400.484375 C 393.363281 409.34375 405.453125 417.871094 415.210938 417.648438 Z M 395.921875 322.699219 C 407.71875 318.703125 419.582031 318.636719 431.480469 322.6875 C 422.550781 315.207031 406.210938 315.117188 395.921875 322.699219 Z M 395.921875 322.699219 " fill-opacity="1" fill-rule="nonzero"/><path fill="#000000" d="M 284.457031 336.613281 C 292.140625 329.636719 300.507812 324.84375 310.582031 321.398438 C 301.605469 315.226562 295.664062 307.78125 292.890625 298.035156 C 290.105469 288.246094 292.425781 279.375 297.21875 270.707031 C 300.875 264.09375 306.578125 259.949219 313.042969 256.992188 C 318.621094 254.441406 324.828125 254.304688 331 254.878906 C 347.425781 256.410156 356.523438 266.726562 361.523438 281.136719 C 363.492188 286.8125 363.332031 293.429688 361.539062 299.230469 C 356.417969 315.78125 343.789062 325.519531 326.214844 325.878906 C 311.9375 326.167969 298.601562 329.453125 286.320312 336.820312 C 286.101562 336.953125 285.695312 336.765625 284.460938 336.613281 Z M 312.222656 313.886719 C 325.921875 323.324219 340.933594 318.550781 349.507812 308.554688 C 359.421875 296.992188 358.601562 280.394531 347.414062 269.242188 C 338.390625 260.246094 321.207031 256.550781 310.160156 267.253906 C 318.722656 262.867188 327.300781 261.738281 336.152344 267.140625 C 334.441406 267.410156 333.757812 268.808594 332.738281 269.851562 C 329.320312 273.34375 329.519531 278.71875 333.214844 282.902344 C 335.144531 285.085938 342.46875 285.238281 345.046875 283.148438 C 349.210938 279.773438 349.273438 279.816406 350.425781 285.179688 C 353.566406 299.789062 340.855469 316.058594 325.527344 316.167969 C 321.28125 316.199219 317.292969 315.246094 312.222656 313.886719 Z M 312.222656 313.886719 " fill-opacity="1" fill-rule="nonzero"/><path fill="#000000" d="M 541.710938 333.164062 C 526.574219 326.925781 511.300781 322.484375 494.84375 322.960938 C 481.316406 323.355469 471.648438 316.253906 465.246094 305.285156 C 458.304688 293.390625 458.664062 280.332031 465.566406 268.691406 C 472.34375 257.261719 483.179688 251.355469 497.019531 251.828125 C 512.050781 252.339844 522.394531 260.234375 528.332031 273.183594 C 533.21875 283.859375 532.832031 295.074219 526.324219 305.613281 C 523.71875 309.828125 520.742188 313.503906 516.695312 316.324219 C 515.78125 316.960938 514.296875 317.414062 514.710938 318.765625 C 515.078125 319.957031 516.570312 319.820312 517.679688 320.136719 C 526.695312 322.699219 534.671875 327.214844 541.710938 333.164062 Z M 517.667969 277.824219 C 518.683594 286.675781 519.40625 294.609375 514.125 301.992188 C 506.210938 313.0625 495.277344 314.84375 481.765625 311.925781 C 491.585938 319.804688 512.285156 317.269531 521.175781 302.488281 C 529.230469 289.09375 525.738281 272.992188 512.320312 262.96875 C 501.332031 254.757812 482.234375 257.25 476.757812 266.71875 C 484.515625 260.667969 492.429688 260.332031 500.703125 262.394531 C 501.90625 262.695312 503.65625 261.898438 504.140625 263.578125 C 504.617188 265.222656 502.910156 265.5625 501.90625 266.359375 C 498.632812 268.941406 497.972656 275.949219 500.554688 279.496094 C 503.347656 283.335938 509.394531 284.285156 513.324219 281.441406 C 514.628906 280.496094 515.808594 279.378906 517.667969 277.820312 Z M 517.667969 277.824219 " fill-opacity="1" fill-rule="nonzero"/><path fill="#000000" d="M 457.421875 302.160156 C 427.546875 295.28125 398.375 295.640625 368.339844 305.902344 C 384.179688 289.941406 441.1875 287.996094 457.421875 302.160156 Z M 457.421875 302.160156 " fill-opacity="1" fill-rule="nonzero"/><path fill="#000000" d="M 475.121094 229.890625 C 484.585938 223.59375 494.542969 217.726562 506.503906 219.789062 C 519.289062 221.992188 522.976562 233.828125 528.804688 243.316406 C 521.507812 236.78125 515.125 228.652344 504.871094 226.886719 C 494.835938 225.15625 484.960938 227.003906 475.121094 229.890625 Z M 475.121094 229.890625 " fill-opacity="1" fill-rule="nonzero"/><path fill="#000000" d="M 295.058594 243.800781 C 299.714844 229.527344 309.804688 217.21875 325.539062 222.9375 C 333.71875 225.910156 342.574219 230.234375 346.96875 235.214844 C 326.949219 226.277344 309.097656 224.359375 295.058594 243.800781 Z M 295.058594 243.800781 " fill-opacity="1" fill-rule="nonzero"/><path fill="#000000" d="M 267.851562 167.148438 C 259.898438 168.453125 252.246094 170.199219 244.757812 173.292969 C 234.582031 177.496094 227.214844 184.914062 220.132812 192.757812 C 211.941406 201.828125 205.777344 212.265625 200.390625 223.207031 C 198.835938 226.371094 198.917969 230.351562 195.109375 233.378906 C 197.753906 223.664062 200.25 214.746094 204.660156 206.550781 C 209.132812 198.242188 213.855469 190.105469 220.066406 182.847656 C 231.503906 169.472656 244.894531 161.902344 263.050781 166.636719 C 263.839844 166.84375 264.679688 166.859375 265.496094 166.941406 C 266.28125 167.023438 267.066406 167.082031 267.851562 167.148438 Z M 267.851562 167.148438 " fill-opacity="1" fill-rule="nonzero"/></svg>