<svg xmlns="http://www.w3.org/2000/svg" xmlns:xlink="http://www.w3.org/1999/xlink" width="1080" zoomAndPan="magnify" viewBox="0 0 810 809.999993" height="1080" preserveAspectRatio="xMidYMid meet" version="1.0"><defs><clipPath id="59a0b007b6"><path d="M 184.28125 170 L 308 170 L 308 317 L 184.28125 317 Z M 184.28125 170 " clip-rule="nonzero"/></clipPath><clipPath id="665ceff55b"><path d="M 502 170 L 626.03125 170 L 626.03125 317 L 502 317 Z M 502 170 " clip-rule="nonzero"/></clipPath><clipPath id="60932273c1"><path d="M 184.28125 340 L 308 340 L 308 487 L 184.28125 487 Z M 184.28125 340 " clip-rule="nonzero"/></clipPath><clipPath id="d3e1de2e55"><path d="M 502 340 L 626.03125 340 L 626.03125 487 L 502 487 Z M 502 340 " clip-rule="nonzero"/></clipPath><clipPath id="33dd7fbc4c"><path d="M 184.28125 511 L 308 511 L 308 658 L 184.28125 658 Z M 184.28125 511 " clip-rule="nonzero"/></clipPath><clipPath id="b41cb535f9"><path d="M 502 511 L 626.03125 511 L 626.03125 658 L 502 658 Z M 502 511 " clip-rule="nonzero"/></clipPath><clipPath id="ecb45d04c0"><path d="M 275 128.054688 L 535 128.054688 L 535 699.554688 L 275 699.554688 Z M 275 128.054688 " clip-rule="nonzero"/></clipPath></defs><g clip-path="url(#59a0b007b6)"><path stroke-linecap="butt" transform="matrix(0.189568, 0, 0, 0.189455, 177.534223, 128.123349)" fill="none" stroke-linejoin="miter" d="M 51.952845 359.159069 C 33.057072 340.252078 46.430416 307.943186 73.156498 307.943186 L 600.73388 307.943186 L 600.73388 907.936026 Z M 51.952845 359.159069 " stroke="#000000" stroke-width="15" stroke-opacity="1" stroke-miterlimit="4"/></g><g clip-path="url(#665ceff55b)"><path stroke-linecap="butt" transform="matrix(0.189568, 0, 0, 0.189455, 177.534223, 128.123349)" fill="none" stroke-linejoin="miter" d="M 2349.509793 359.159069 C 2368.426171 340.252078 2355.032221 307.943186 2328.30614 307.943186 L 1800.728758 307.943186 L 1800.728758 907.936026 Z M 2349.509793 359.159069 " stroke="#000000" stroke-width="15" stroke-opacity="1" stroke-miterlimit="4"/></g><g clip-path="url(#60932273c1)"><path stroke-linecap="butt" transform="matrix(0.189568, 0, 0, 0.189455, 177.534223, 128.123349)" fill="none" stroke-linejoin="miter" d="M 51.952845 1259.168948 C 33.057072 1240.261958 46.430416 1207.932446 73.156498 1207.932446 L 600.73388 1207.932446 L 600.73388 1807.945905 Z M 51.952845 1259.168948 " stroke="#000000" stroke-width="15" stroke-opacity="1" stroke-miterlimit="4"/></g><g clip-path="url(#d3e1de2e55)"><path stroke-linecap="butt" transform="matrix(0.189568, 0, 0, 0.189455, 177.534223, 128.123349)" fill="none" stroke-linejoin="miter" d="M 2349.509793 1259.168948 C 2368.426171 1240.261958 2355.032221 1207.932446 2328.30614 1207.932446 L 1800.728758 1207.932446 L 1800.728758 1807.945905 Z M 2349.509793 1259.168948 " stroke="#000000" stroke-width="15" stroke-opacity="1" stroke-miterlimit="4"/></g><g clip-path="url(#33dd7fbc4c)"><path stroke-linecap="butt" transform="matrix(0.189568, 0, 0, 0.189455, 177.534223, 128.123349)" fill="none" stroke-linejoin="miter" d="M 51.952845 2159.158209 C 33.057072 2140.251218 46.430416 2107.942326 73.156498 2107.942326 L 600.73388 2107.942326 L 600.73388 2707.935166 Z M 51.952845 2159.158209 " stroke="#000000" stroke-width="15" stroke-opacity="1" stroke-miterlimit="4"/></g><g clip-path="url(#b41cb535f9)"><path stroke-linecap="butt" transform="matrix(0.189568, 0, 0, 0.189455, 177.534223, 128.123349)" fill="none" stroke-linejoin="miter" d="M 2349.509793 2159.158209 C 2368.426171 2140.251218 2355.032221 2107.942326 2328.30614 2107.942326 L 1800.728758 2107.942326 L 1800.728758 2707.935166 Z M 2349.509793 2159.158209 " stroke="#000000" stroke-width="15" stroke-opacity="1" stroke-miterlimit="4"/></g><g clip-path="url(#ecb45d04c0)"><path stroke-linecap="butt" transform="matrix(0.189568, 0, 0, 0.189455, 177.534223, 128.123349)" fill="none" stroke-linejoin="miter" d="M 675.739999 7.946765 L 1725.722638 7.946765 C 1730.647491 7.946765 1735.531131 8.420987 1740.373559 9.390047 C 1745.195381 10.338489 1749.893566 11.761153 1754.426903 13.658037 C 1758.980846 15.534304 1763.308122 17.843554 1767.408732 20.58579 C 1771.488735 23.328025 1775.280253 26.420772 1778.76268 29.905266 C 1782.245107 33.389761 1785.356624 37.18353 1788.097233 41.265955 C 1790.837841 45.368999 1793.145721 49.698844 1795.020874 54.234873 C 1796.916634 58.791519 1798.338453 63.471876 1799.286332 68.317179 C 1800.254818 73.141864 1800.728758 78.007785 1800.728758 82.935561 L 1800.728758 2932.94279 C 1800.728758 2937.870567 1800.254818 2942.736488 1799.286332 2947.581791 C 1798.338453 2952.406476 1796.916634 2957.086832 1795.020874 2961.643479 C 1793.145721 2966.200125 1790.837841 2970.509352 1788.097233 2974.612396 C 1785.356624 2978.694822 1782.245107 2982.488591 1778.76268 2985.973085 C 1775.280253 2989.45758 1771.488735 2992.570945 1767.408732 2995.292562 C 1763.308122 2998.034797 1758.980846 3000.344048 1754.426903 3002.240933 C 1749.893566 3004.117199 1745.195381 3005.539862 1740.373559 3006.508923 C 1735.531131 3007.457365 1730.647491 3007.952205 1725.722638 3007.952205 L 675.739999 3007.952205 C 670.815147 3007.952205 665.931507 3007.457365 661.109685 3006.508923 C 656.267257 3005.539862 651.589677 3004.117199 647.035734 3002.240933 C 642.481791 3000.344048 638.154515 2998.034797 634.074512 2995.292562 C 629.973903 2992.570945 626.182385 2989.45758 622.699958 2985.973085 C 619.217531 2982.488591 616.106013 2978.694822 613.365405 2974.612396 C 610.645403 2970.509352 608.316916 2966.200125 606.441763 2961.643479 C 604.56661 2957.086832 603.144791 2952.406476 602.176305 2947.581791 C 601.20782 2942.736488 600.73388 2937.870567 600.73388 2932.94279 L 600.73388 82.935561 C 600.73388 78.007785 601.20782 73.141864 602.176305 68.317179 C 603.144791 63.471876 604.56661 58.791519 606.441763 54.234873 C 608.316916 49.698844 610.645403 45.368999 613.365405 41.265955 C 616.106013 37.18353 619.217531 33.389761 622.699958 29.905266 C 626.182385 26.420772 629.973903 23.328025 634.074512 20.58579 C 638.154515 17.843554 642.481791 15.534304 647.035734 13.658037 C 651.589677 11.761153 656.267257 10.338489 661.109685 9.390047 C 665.931507 8.420987 670.815147 7.946765 675.739999 7.946765 Z M 675.739999 7.946765 " stroke="#000000" stroke-width="15" stroke-opacity="1" stroke-miterlimit="4"/></g><path stroke-linecap="butt" transform="matrix(0.189568, 0, 0, 0.189455, 177.534223, 128.123349)" fill="none" stroke-linejoin="miter" d="M 1500.724887 607.939606 C 1500.724887 617.77454 1500.250947 627.568238 1499.282461 637.341317 C 1498.313976 647.135014 1496.892156 656.82562 1494.955185 666.47499 C 1493.03882 676.103741 1490.669121 685.6294 1487.804877 695.03135 C 1484.961238 704.4333 1481.64366 713.670303 1477.893354 722.74236 C 1474.143048 731.814416 1469.939408 740.700908 1465.303041 749.360599 C 1460.666674 758.020289 1455.638791 766.453178 1450.178181 774.618029 C 1444.71757 782.78288 1438.865444 790.659075 1432.642409 798.267232 C 1426.398768 805.85477 1419.804823 813.133034 1412.860576 820.081404 C 1405.916328 827.029775 1398.642383 833.607016 1391.03874 839.854364 C 1383.455704 846.081094 1375.563577 851.916076 1367.40357 857.379928 C 1359.222958 862.843781 1350.815679 867.895267 1342.14052 872.513768 C 1333.485968 877.152888 1324.604749 881.338405 1315.538075 885.111556 C 1306.450795 888.864089 1297.219273 892.163018 1287.822902 895.028964 C 1278.405925 897.874291 1268.885918 900.266015 1259.26288 902.183517 C 1249.619236 904.10102 1239.913774 905.544302 1230.125887 906.492744 C 1220.358607 907.461805 1210.550114 907.936026 1200.721016 907.936026 C 1190.912523 907.936026 1181.104031 907.461805 1171.316144 906.492744 C 1161.548864 905.544302 1151.843402 904.10102 1142.199758 902.183517 C 1132.556114 900.266015 1123.056713 897.874291 1113.639736 895.028964 C 1104.243365 892.163018 1095.011842 888.864089 1085.924562 885.111556 C 1076.837283 881.338405 1067.97667 877.152888 1059.301511 872.513768 C 1050.646959 867.895267 1042.219074 862.843781 1034.059067 857.379928 C 1025.899061 851.916076 1018.006934 846.081094 1010.403291 839.854364 C 1002.820255 833.607016 995.54631 827.029775 988.602062 820.081404 C 981.657814 813.133034 975.06387 805.85477 968.820228 798.267232 C 962.597193 790.659075 956.745067 782.78288 951.284457 774.618029 C 945.823847 766.453178 940.775358 758.020289 936.159597 749.360599 C 931.52323 740.700908 927.31959 731.814416 923.569284 722.74236 C 919.798372 713.670303 916.5014 704.4333 913.657761 695.03135 C 910.793516 685.6294 908.403211 676.103741 906.486846 666.47499 C 904.570481 656.82562 903.128056 647.135014 902.180176 637.341317 C 901.211691 627.568238 900.737751 617.77454 900.737751 607.939606 C 900.737751 598.12529 901.211691 588.310974 902.180176 578.537895 C 903.128056 568.764816 904.570481 559.053591 906.486846 549.42484 C 908.403211 539.775471 910.793516 530.249811 913.657761 520.847862 C 916.5014 511.445912 919.798372 502.208909 923.569284 493.136852 C 927.31959 484.064795 931.52323 475.178303 936.159597 466.518613 C 940.775358 457.858923 945.823847 449.446652 951.284457 441.261182 C 956.745067 433.096331 962.597193 425.220137 968.820228 417.632598 C 975.06387 410.024442 981.657814 402.766796 988.602062 395.818426 C 995.54631 388.870055 1002.820255 382.272196 1010.403291 376.045466 C 1018.006934 369.798118 1025.899061 363.963136 1034.059067 358.499283 C 1042.219074 353.035431 1050.646959 348.004563 1059.301511 343.365443 C 1067.97667 338.726323 1076.837283 334.540806 1085.924562 330.788274 C 1095.011842 327.015123 1104.243365 323.716193 1113.639736 320.850248 C 1123.056713 318.004921 1132.556114 315.613197 1142.199758 313.716313 C 1151.843402 311.79881 1161.548864 310.355528 1171.316144 309.386467 C 1181.104031 308.417407 1190.912523 307.943186 1200.721016 307.943186 C 1210.550114 307.943186 1220.358607 308.417407 1230.125887 309.386467 C 1239.913774 310.355528 1249.619236 311.79881 1259.26288 313.716313 C 1268.885918 315.613197 1278.405925 318.004921 1287.822902 320.850248 C 1297.219273 323.716193 1306.450795 327.015123 1315.538075 330.788274 C 1324.604749 334.540806 1333.485968 338.726323 1342.14052 343.365443 C 1350.815679 348.004563 1359.222958 353.035431 1367.40357 358.499283 C 1375.563577 363.963136 1383.455704 369.798118 1391.03874 376.045466 C 1398.642383 382.272196 1405.916328 388.870055 1412.860576 395.818426 C 1419.804823 402.766796 1426.398768 410.024442 1432.642409 417.632598 C 1438.865444 425.220137 1444.71757 433.096331 1450.178181 441.261182 C 1455.638791 449.446652 1460.666674 457.858923 1465.303041 466.518613 C 1469.939408 475.178303 1474.143048 484.064795 1477.893354 493.136852 C 1481.64366 502.208909 1484.961238 511.445912 1487.804877 520.847862 C 1490.669121 530.249811 1493.03882 539.775471 1494.955185 549.42484 C 1496.892156 559.053591 1498.313976 568.764816 1499.282461 578.537895 C 1500.250947 588.310974 1500.724887 598.12529 1500.724887 607.939606 Z M 1500.724887 607.939606 " stroke="#000000" stroke-width="15" stroke-opacity="1" stroke-miterlimit="4"/><path stroke-linecap="butt" transform="matrix(0.189568, 0, 0, 0.189455, 177.534223, 128.123349)" fill="none" stroke-linejoin="miter" d="M 1500.724887 1507.949485 C 1500.724887 1517.763801 1500.250947 1527.557498 1499.282461 1537.351196 C 1498.313976 1547.124275 1496.892156 1556.8355 1494.955185 1566.464251 C 1493.03882 1576.11362 1490.669121 1585.618661 1487.804877 1595.020611 C 1484.961238 1604.422561 1481.64366 1613.659564 1477.893354 1622.752239 C 1474.143048 1631.824295 1469.939408 1640.690169 1465.303041 1649.34986 C 1460.666674 1658.030168 1455.638791 1666.442439 1450.178181 1674.60729 C 1444.71757 1682.772141 1438.865444 1690.668954 1432.642409 1698.256492 C 1426.398768 1705.844031 1419.804823 1713.122294 1412.860576 1720.070665 C 1405.916328 1727.019036 1398.642383 1733.616895 1391.03874 1739.843625 C 1383.455704 1746.070355 1375.563577 1751.925955 1367.40357 1757.389807 C 1359.222958 1762.833041 1350.815679 1767.884528 1342.14052 1772.523648 C 1333.485968 1777.142149 1324.604749 1781.348284 1315.538075 1785.100817 C 1306.450795 1788.85335 1297.219273 1792.172898 1287.822902 1795.018224 C 1278.405925 1797.88417 1268.885918 1800.255275 1259.26288 1802.172778 C 1249.619236 1804.090281 1239.913774 1805.533563 1230.125887 1806.502623 C 1220.358607 1807.451066 1210.550114 1807.945905 1200.721016 1807.945905 C 1190.912523 1807.945905 1181.104031 1807.451066 1171.316144 1806.502623 C 1161.548864 1805.533563 1151.843402 1804.090281 1142.199758 1802.172778 C 1132.556114 1800.255275 1123.056713 1797.88417 1113.639736 1795.018224 C 1104.243365 1792.172898 1095.011842 1788.85335 1085.924562 1785.100817 C 1076.837283 1781.348284 1067.97667 1777.142149 1059.301511 1772.523648 C 1050.646959 1767.884528 1042.219074 1762.833041 1034.059067 1757.389807 C 1025.899061 1751.925955 1018.006934 1746.070355 1010.403291 1739.843625 C 1002.820255 1733.616895 995.54631 1727.019036 988.602062 1720.070665 C 981.657814 1713.122294 975.06387 1705.844031 968.820228 1698.256492 C 962.597193 1690.668954 956.745067 1682.772141 951.284457 1674.60729 C 945.823847 1666.442439 940.775358 1658.030168 936.159597 1649.34986 C 931.52323 1640.690169 927.31959 1631.824295 923.569284 1622.752239 C 919.798372 1613.659564 916.5014 1604.422561 913.657761 1595.020611 C 910.793516 1585.618661 908.403211 1576.11362 906.486846 1566.464251 C 904.570481 1556.8355 903.128056 1547.124275 902.180176 1537.351196 C 901.211691 1527.557498 900.737751 1517.763801 900.737751 1507.949485 C 900.737751 1498.114551 901.211691 1488.320853 902.180176 1478.527156 C 903.128056 1468.754076 904.570481 1459.042852 906.486846 1449.414101 C 908.403211 1439.78535 910.793516 1430.25969 913.657761 1420.857741 C 916.5014 1411.455791 919.798372 1402.218788 923.569284 1393.126113 C 927.31959 1384.054056 931.52323 1375.188183 936.159597 1366.528492 C 940.775358 1357.848183 945.823847 1349.435913 951.284457 1341.271062 C 956.745067 1333.10621 962.597193 1325.209398 968.820228 1317.621859 C 975.06387 1310.034321 981.657814 1302.756057 988.602062 1295.807686 C 995.54631 1288.859316 1002.820255 1282.261456 1010.403291 1276.034727 C 1018.006934 1269.807997 1025.899061 1263.952396 1034.059067 1258.509162 C 1042.219074 1253.04531 1050.646959 1247.993824 1059.301511 1243.354704 C 1067.97667 1238.736203 1076.837283 1234.530067 1085.924562 1230.777535 C 1095.011842 1227.025002 1104.243365 1223.705454 1113.639736 1220.860127 C 1123.056713 1218.0148 1132.556114 1215.623076 1142.199758 1213.705573 C 1151.843402 1211.788071 1161.548864 1210.344789 1171.316144 1209.375728 C 1181.104031 1208.427286 1190.912523 1207.932446 1200.721016 1207.932446 C 1210.550114 1207.932446 1220.358607 1208.427286 1230.125887 1209.375728 C 1239.913774 1210.344789 1249.619236 1211.788071 1259.26288 1213.705573 C 1268.885918 1215.623076 1278.405925 1218.0148 1287.822902 1220.860127 C 1297.219273 1223.705454 1306.450795 1227.025002 1315.538075 1230.777535 C 1324.604749 1234.530067 1333.485968 1238.736203 1342.14052 1243.354704 C 1350.815679 1247.993824 1359.222958 1253.04531 1367.40357 1258.509162 C 1375.563577 1263.952396 1383.455704 1269.807997 1391.03874 1276.034727 C 1398.642383 1282.261456 1405.916328 1288.859316 1412.860576 1295.807686 C 1419.804823 1302.756057 1426.398768 1310.034321 1432.642409 1317.621859 C 1438.865444 1325.209398 1444.71757 1333.10621 1450.178181 1341.271062 C 1455.638791 1349.435913 1460.666674 1357.848183 1465.303041 1366.528492 C 1469.939408 1375.188183 1474.143048 1384.054056 1477.893354 1393.126113 C 1481.64366 1402.218788 1484.961238 1411.455791 1487.804877 1420.857741 C 1490.669121 1430.25969 1493.03882 1439.78535 1494.955185 1449.414101 C 1496.892156 1459.042852 1498.313976 1468.754076 1499.282461 1478.527156 C 1500.250947 1488.320853 1500.724887 1498.114551 1500.724887 1507.949485 Z M 1500.724887 1507.949485 " stroke="#000000" stroke-width="15" stroke-opacity="1" stroke-miterlimit="4"/><path stroke-linecap="butt" transform="matrix(0.189568, 0, 0, 0.189455, 177.534223, 128.123349)" fill="none" stroke-linejoin="miter" d="M 1500.724887 2407.938746 C 1500.724887 2417.77368 1500.250947 2427.567378 1499.282461 2437.340457 C 1498.313976 2447.113536 1496.892156 2456.82476 1494.955185 2466.47413 C 1493.03882 2476.102881 1490.669121 2485.62854 1487.804877 2495.03049 C 1484.961238 2504.43244 1481.64366 2513.669443 1477.893354 2522.7415 C 1474.143048 2531.813556 1469.939408 2540.700048 1465.303041 2549.359739 C 1460.666674 2558.019429 1455.638791 2566.4317 1450.178181 2574.617169 C 1444.71757 2582.78202 1438.865444 2590.658215 1432.642409 2598.266372 C 1426.398768 2605.85391 1419.804823 2613.132174 1412.860576 2620.080544 C 1405.916328 2627.028915 1398.642383 2633.606156 1391.03874 2639.832886 C 1383.455704 2646.080234 1375.563577 2651.915216 1367.40357 2657.379068 C 1359.222958 2662.842921 1350.815679 2667.894407 1342.14052 2672.512908 C 1333.485968 2677.152028 1324.604749 2681.337545 1315.538075 2685.110696 C 1306.450795 2688.863229 1297.219273 2692.162158 1287.822902 2695.028104 C 1278.405925 2697.87343 1268.885918 2700.265154 1259.26288 2702.182657 C 1249.619236 2704.10016 1239.913774 2705.522824 1230.125887 2706.491884 C 1220.358607 2707.460945 1210.550114 2707.935166 1200.721016 2707.935166 C 1190.912523 2707.935166 1181.104031 2707.460945 1171.316144 2706.491884 C 1161.548864 2705.522824 1151.843402 2704.10016 1142.199758 2702.182657 C 1132.556114 2700.265154 1123.056713 2697.87343 1113.639736 2695.028104 C 1104.243365 2692.162158 1095.011842 2688.863229 1085.924562 2685.110696 C 1076.837283 2681.337545 1067.97667 2677.152028 1059.301511 2672.512908 C 1050.646959 2667.894407 1042.219074 2662.842921 1034.059067 2657.379068 C 1025.899061 2651.915216 1018.006934 2646.080234 1010.403291 2639.832886 C 1002.820255 2633.606156 995.54631 2627.028915 988.602062 2620.080544 C 981.657814 2613.132174 975.06387 2605.85391 968.820228 2598.266372 C 962.597193 2590.658215 956.745067 2582.78202 951.284457 2574.617169 C 945.823847 2566.4317 940.775358 2558.019429 936.159597 2549.359739 C 931.52323 2540.700048 927.31959 2531.813556 923.569284 2522.7415 C 919.798372 2513.669443 916.5014 2504.43244 913.657761 2495.03049 C 910.793516 2485.62854 908.403211 2476.102881 906.486846 2466.47413 C 904.570481 2456.82476 903.128056 2447.113536 902.180176 2437.340457 C 901.211691 2427.567378 900.737751 2417.77368 900.737751 2407.938746 C 900.737751 2398.12443 901.211691 2388.310114 902.180176 2378.537035 C 903.128056 2368.763955 904.570481 2359.052731 906.486846 2349.403362 C 908.403211 2339.774611 910.793516 2330.248951 913.657761 2320.847001 C 916.5014 2311.445052 919.798372 2302.208049 923.569284 2293.135992 C 927.31959 2284.063935 931.52323 2275.177443 936.159597 2266.517753 C 940.775358 2257.858062 945.823847 2249.445792 951.284457 2241.260322 C 956.745067 2233.095471 962.597193 2225.219277 968.820228 2217.631738 C 975.06387 2210.023582 981.657814 2202.745318 988.602062 2195.817566 C 995.54631 2188.869195 1002.820255 2182.271335 1010.403291 2176.044606 C 1018.006934 2169.797258 1025.899061 2163.962276 1034.059067 2158.498423 C 1042.219074 2153.034571 1050.646959 2148.003703 1059.301511 2143.364583 C 1067.97667 2138.725463 1076.837283 2134.539946 1085.924562 2130.766795 C 1095.011842 2127.014263 1104.243365 2123.715333 1113.639736 2120.849388 C 1123.056713 2118.004061 1132.556114 2115.612337 1142.199758 2113.694834 C 1151.843402 2111.777331 1161.548864 2110.354668 1171.316144 2109.385607 C 1181.104031 2108.416547 1190.912523 2107.942326 1200.721016 2107.942326 C 1210.550114 2107.942326 1220.358607 2108.416547 1230.125887 2109.385607 C 1239.913774 2110.354668 1249.619236 2111.777331 1259.26288 2113.694834 C 1268.885918 2115.612337 1278.405925 2118.004061 1287.822902 2120.849388 C 1297.219273 2123.715333 1306.450795 2127.014263 1315.538075 2130.766795 C 1324.604749 2134.539946 1333.485968 2138.725463 1342.14052 2143.364583 C 1350.815679 2148.003703 1359.222958 2153.034571 1367.40357 2158.498423 C 1375.563577 2163.962276 1383.455704 2169.797258 1391.03874 2176.044606 C 1398.642383 2182.271335 1405.916328 2188.869195 1412.860576 2195.817566 C 1419.804823 2202.745318 1426.398768 2210.023582 1432.642409 2217.631738 C 1438.865444 2225.219277 1444.71757 2233.095471 1450.178181 2241.260322 C 1455.638791 2249.445792 1460.666674 2257.858062 1465.303041 2266.517753 C 1469.939408 2275.177443 1474.143048 2284.063935 1477.893354 2293.135992 C 1481.64366 2302.208049 1484.961238 2311.445052 1487.804877 2320.847001 C 1490.669121 2330.248951 1493.03882 2339.774611 1494.955185 2349.403362 C 1496.892156 2359.052731 1498.313976 2368.763955 1499.282461 2378.537035 C 1500.250947 2388.310114 1500.724887 2398.12443 1500.724887 2407.938746 Z M 1500.724887 2407.938746 " stroke="#000000" stroke-width="15" stroke-opacity="1" stroke-miterlimit="4"/></svg>