<svg xmlns="http://www.w3.org/2000/svg" xmlns:xlink="http://www.w3.org/1999/xlink" width="1080" zoomAndPan="magnify" viewBox="0 0 810 809.999993" height="1080" preserveAspectRatio="xMidYMid meet" version="1.0"><path fill="#000000" d="M 346.195312 126.800781 C 354.789062 108.164062 366.648438 90.65625 386.761719 83.183594 C 387.285156 82.988281 387.808594 82.804688 388.339844 82.632812 C 388.875 82.460938 389.410156 82.304688 389.945312 82.160156 C 390.484375 82.015625 391.027344 81.882812 391.574219 81.765625 C 392.121094 81.648438 392.667969 81.542969 393.21875 81.453125 C 393.769531 81.363281 394.324219 81.285156 394.875 81.222656 C 395.429688 81.15625 395.988281 81.109375 396.542969 81.070312 C 397.101562 81.035156 397.660156 81.011719 398.214844 81.003906 C 398.773438 80.996094 399.332031 81 399.890625 81.019531 C 400.449219 81.039062 401.003906 81.070312 401.5625 81.117188 C 402.117188 81.164062 402.671875 81.222656 403.226562 81.296875 C 403.777344 81.371094 404.332031 81.457031 404.878906 81.558594 C 405.429688 81.660156 405.972656 81.773438 406.519531 81.902344 C 407.0625 82.03125 407.601562 82.171875 408.136719 82.324219 C 408.671875 82.480469 409.207031 82.648438 409.734375 82.828125 C 410.261719 83.007812 410.785156 83.203125 411.304688 83.410156 C 411.824219 83.613281 412.335938 83.832031 412.84375 84.066406 C 422.976562 88.734375 430.777344 98.691406 434.527344 109.050781 C 435.09375 110.636719 435.605469 112.238281 436.066406 113.859375 C 443.21875 108.566406 450.332031 106.074219 459.289062 107.421875 C 466.738281 108.539062 473.699219 112.464844 478.121094 118.605469 C 481.140625 122.796875 482.792969 127.332031 484.15625 132.269531 C 496.632812 123.175781 515.882812 111.558594 531.984375 114.042969 C 537.21875 114.851562 542.242188 117.617188 545.425781 121.894531 C 547.847656 125.148438 548.894531 128.824219 549.175781 132.8125 C 556.589844 129.605469 565.703125 126.507812 573.695312 129.628906 C 578.398438 131.464844 581.605469 135.492188 583.5 140.039062 C 585.542969 144.941406 585.652344 149.84375 585.550781 155.078125 C 595.371094 151.425781 607.273438 147.976562 617.433594 152.605469 C 622.183594 154.765625 625.449219 158.984375 627.160156 163.820312 C 631.621094 176.445312 625.734375 189.855469 620.5625 201.25 C 632.074219 197.726562 645.714844 197.375 656.640625 203.117188 C 662.085938 205.980469 666.46875 210.726562 668.226562 216.695312 C 670.730469 225.191406 668.304688 234.917969 664.144531 242.472656 C 661.214844 247.800781 657.160156 251.972656 653.59375 256.800781 C 665.566406 255.769531 678.679688 257.789062 688.152344 265.777344 C 688.4375 266.015625 688.714844 266.257812 688.984375 266.507812 C 689.257812 266.757812 689.523438 267.015625 689.78125 267.28125 C 690.039062 267.542969 690.289062 267.8125 690.535156 268.089844 C 690.78125 268.367188 691.015625 268.648438 691.246094 268.9375 C 691.476562 269.226562 691.703125 269.519531 691.917969 269.820312 C 692.132812 270.117188 692.339844 270.421875 692.539062 270.734375 C 692.742188 271.042969 692.933594 271.359375 693.117188 271.679688 C 693.300781 272 693.476562 272.324219 693.644531 272.652344 C 693.8125 272.980469 693.972656 273.3125 694.125 273.652344 C 694.273438 273.988281 694.417969 274.328125 694.550781 274.671875 C 694.683594 275.015625 694.808594 275.363281 694.925781 275.714844 C 695.042969 276.066406 695.148438 276.417969 695.246094 276.773438 C 695.34375 277.128906 695.433594 277.488281 695.515625 277.847656 C 695.59375 278.210938 695.664062 278.570312 695.726562 278.9375 C 695.789062 279.300781 695.84375 279.664062 695.886719 280.03125 C 695.929688 280.398438 695.964844 280.765625 695.988281 281.136719 C 696.671875 290.40625 692.933594 297.289062 687.542969 304.457031 C 694.828125 306.75 701.222656 310.820312 704.871094 317.777344 C 705.011719 318.042969 705.144531 318.308594 705.273438 318.578125 C 705.398438 318.847656 705.515625 319.121094 705.628906 319.394531 C 705.742188 319.667969 705.847656 319.949219 705.949219 320.226562 C 706.046875 320.507812 706.140625 320.789062 706.226562 321.074219 C 706.3125 321.359375 706.390625 321.648438 706.460938 321.9375 C 706.53125 322.226562 706.59375 322.515625 706.652344 322.808594 C 706.707031 323.101562 706.757812 323.394531 706.800781 323.6875 C 706.84375 323.980469 706.878906 324.277344 706.90625 324.574219 C 706.933594 324.871094 706.957031 325.167969 706.96875 325.464844 C 706.984375 325.761719 706.988281 326.058594 706.988281 326.355469 C 706.984375 326.652344 706.976562 326.953125 706.960938 327.25 C 706.945312 327.546875 706.921875 327.84375 706.890625 328.136719 C 706.863281 328.433594 706.824219 328.730469 706.78125 329.023438 C 706.734375 329.316406 706.683594 329.609375 706.621094 329.902344 C 706.5625 330.191406 706.496094 330.484375 706.421875 330.769531 C 706.351562 331.058594 706.269531 331.347656 706.183594 331.628906 C 705.398438 334.140625 704.179688 336.175781 702.601562 338.257812 C 702.539062 338.34375 702.472656 338.429688 702.410156 338.515625 C 708.929688 342.957031 717.472656 347.976562 718.980469 356.46875 C 720.136719 362.972656 717.140625 369.695312 713.386719 374.84375 C 709.328125 380.40625 704.570312 383.746094 699.152344 387.800781 C 705.898438 391.503906 714.75 397.65625 717.109375 405.429688 C 718.167969 408.917969 717.660156 412.386719 715.867188 415.535156 C 710.878906 424.289062 699.023438 430.554688 689.601562 433.007812 C 687.351562 433.59375 685.039062 433.988281 682.753906 434.402344 C 684.117188 440.390625 684.039062 446.167969 680.644531 451.542969 C 676.097656 458.746094 667.21875 463.316406 659.117188 465.117188 C 654.113281 466.226562 649.117188 466.347656 644.054688 466.867188 C 640.363281 474.714844 635.308594 480.191406 626.980469 483.238281 C 620.140625 485.738281 612.574219 485.523438 605.523438 484.09375 C 603.058594 491.609375 597.277344 497.164062 590.324219 500.691406 C 583.105469 504.355469 575.179688 504.683594 567.507812 502.144531 C 566.714844 501.886719 565.9375 501.589844 565.175781 501.253906 C 564.410156 500.921875 563.664062 500.554688 562.933594 500.152344 C 562.203125 499.75 561.492188 499.3125 560.804688 498.84375 C 560.113281 498.375 559.445312 497.878906 558.804688 497.347656 C 552.386719 503.964844 544.636719 506.792969 535.460938 506.886719 C 526.28125 506.980469 518.113281 504.507812 510.507812 499.449219 C 503.269531 504.769531 495.074219 506.425781 486.183594 505.066406 C 480.785156 504.238281 476.550781 502.089844 472.1875 498.890625 C 466.136719 503.847656 460.429688 505.945312 452.574219 505.152344 C 451.089844 505.003906 449.617188 504.738281 448.148438 504.476562 C 447.46875 505.675781 446.8125 506.894531 446.1875 508.121094 C 445.558594 509.351562 444.957031 510.59375 444.382812 511.851562 C 443.804688 513.105469 443.257812 514.375 442.738281 515.652344 C 442.21875 516.933594 441.726562 518.222656 441.261719 519.523438 C 440.792969 520.824219 440.359375 522.132812 439.949219 523.453125 C 439.539062 524.773438 439.160156 526.101562 438.808594 527.433594 C 438.457031 528.769531 438.132812 530.113281 437.839844 531.464844 C 437.546875 532.8125 437.28125 534.167969 437.042969 535.527344 C 435.550781 544.351562 435.484375 553.488281 435.464844 562.417969 C 435.449219 568.871094 435.585938 575.324219 435.871094 581.769531 C 436.15625 588.21875 436.59375 594.65625 437.183594 601.082031 C 437.773438 607.511719 438.511719 613.921875 439.398438 620.3125 C 440.289062 626.707031 441.328125 633.074219 442.515625 639.417969 C 443.6875 645.652344 444.746094 651.972656 446.421875 658.089844 C 451.316406 675.964844 457.207031 695.042969 468.179688 710.25 C 471.554688 714.921875 475.492188 719.097656 479.554688 723.171875 C 483.632812 727.257812 488.382812 731.796875 493.386719 734.664062 C 495.558594 735.910156 499.171875 737.289062 499.820312 739.953125 C 500.007812 740.730469 500 741.558594 499.476562 742.210938 C 497.335938 744.886719 490.269531 744.703125 487.171875 744.761719 C 468.222656 745.136719 454.882812 740.558594 436.832031 737.679688 C 416.191406 734.390625 394.640625 732.777344 373.800781 735.023438 C 360.421875 736.460938 347.246094 739.429688 334.164062 742.492188 L 321.246094 745.496094 C 318.984375 745.996094 316.554688 746.304688 314.347656 746.976562 L 313.835938 746.976562 C 312.207031 746.238281 310.316406 745.480469 309.660156 743.652344 C 309.28125 742.597656 309.511719 741.257812 310.128906 740.335938 C 311.753906 737.910156 323.125 731.097656 326.304688 728.609375 C 333.75 722.785156 341.179688 716.523438 347.332031 709.324219 C 356.171875 698.988281 363.261719 687.539062 368.015625 674.769531 C 378.039062 647.855469 379.382812 616.214844 380.179688 587.75 C 380.652344 570.941406 380.808594 553.921875 379.457031 537.140625 C 378.675781 527.46875 363.6875 505.050781 356.953125 497.800781 C 349.617188 500.335938 342.277344 498.398438 335.546875 495.113281 L 335.140625 494.917969 C 327.765625 503.976562 318.34375 509.429688 306.617188 510.660156 C 299.65625 511.390625 290.496094 510.355469 284.875 505.78125 C 282.714844 504.023438 281.523438 502.148438 280.667969 499.542969 C 276.835938 501.332031 273.042969 503.253906 269.039062 504.632812 C 258.714844 508.1875 246.019531 508.933594 235.652344 505.109375 C 229.039062 502.667969 223.785156 498.234375 220.878906 491.765625 C 220.59375 491.125 220.316406 490.484375 220.046875 489.835938 C 207.671875 493.359375 194.050781 495.632812 182.195312 489.085938 C 176.925781 486.175781 172.28125 480.945312 170.6875 475.054688 C 169.429688 470.402344 170.070312 465.972656 171.175781 461.363281 C 158.226562 460.984375 142.246094 459.234375 132.84375 449.183594 C 129.96875 446.109375 127.960938 442.210938 128.164062 437.910156 C 128.449219 431.90625 132.101562 427.273438 136.128906 423.183594 C 121.125 419.828125 103.539062 411.972656 95.054688 398.460938 C 91.628906 393 89.605469 386.871094 91.152344 380.429688 C 93.082031 372.386719 99.679688 366.363281 106.511719 362.238281 C 108.960938 360.761719 111.480469 359.628906 114.136719 358.578125 C 102.929688 350.398438 92.746094 340.164062 90.5625 325.820312 C 89.558594 319.234375 90.847656 312.613281 94.902344 307.242188 C 100.886719 299.316406 111.589844 295.246094 121.140625 293.988281 C 131.507812 292.625 142.214844 293.660156 152.28125 296.355469 C 148.085938 285.882812 144.007812 275.171875 148.695312 264.050781 C 151.308594 257.847656 156.683594 253.558594 162.8125 251.089844 C 166.765625 249.496094 170.804688 248.726562 175.027344 248.269531 C 169.1875 241.628906 164.125 234.792969 164.6875 225.457031 C 165.007812 220.097656 167.332031 215.027344 171.410156 211.496094 C 179.226562 204.730469 191.085938 202.5625 201.117188 203.367188 C 203.082031 203.539062 205.042969 203.738281 207 203.960938 C 205.621094 195.597656 205.660156 187.484375 210.789062 180.296875 C 211.015625 179.972656 211.25 179.65625 211.496094 179.34375 C 211.738281 179.03125 211.988281 178.726562 212.246094 178.429688 C 212.503906 178.128906 212.769531 177.835938 213.042969 177.550781 C 213.316406 177.265625 213.59375 176.988281 213.882812 176.714844 C 214.167969 176.441406 214.460938 176.179688 214.761719 175.921875 C 215.058594 175.664062 215.367188 175.414062 215.675781 175.171875 C 215.988281 174.929688 216.308594 174.695312 216.628906 174.46875 C 216.953125 174.242188 217.28125 174.023438 217.617188 173.816406 C 217.953125 173.605469 218.292969 173.402344 218.636719 173.210938 C 218.980469 173.015625 219.328125 172.832031 219.683594 172.65625 C 220.035156 172.480469 220.394531 172.3125 220.753906 172.15625 C 221.117188 171.996094 221.484375 171.847656 221.851562 171.707031 C 222.222656 171.566406 222.59375 171.4375 222.96875 171.316406 C 223.34375 171.191406 223.722656 171.082031 224.105469 170.976562 C 224.484375 170.875 224.871094 170.78125 225.253906 170.699219 C 225.640625 170.613281 226.027344 170.539062 226.417969 170.476562 C 232.585938 169.457031 238.464844 170.425781 244.25 172.605469 C 243.382812 159.910156 245.886719 147.378906 254.394531 137.511719 C 258.570312 132.664062 264.148438 128.894531 270.671875 128.457031 C 277.660156 127.988281 284.015625 130.558594 289.414062 134.863281 C 294.003906 125.96875 300.917969 118.730469 310.613281 115.585938 C 318.433594 113.046875 327.285156 113.414062 334.609375 117.273438 C 339.113281 119.648438 342.738281 123.113281 346.195312 126.800781 Z M 346.195312 126.800781 " fill-opacity="1" fill-rule="nonzero"/><path fill="#ffffff" d="M 399.707031 88.4375 C 403.488281 88.558594 406.980469 89.292969 410.382812 90.96875 C 419.75 95.589844 426.195312 105.449219 428.65625 115.390625 C 429.414062 118.453125 429.441406 121.859375 430.507812 124.800781 C 430.871094 125.808594 431.25 126.65625 432.265625 127.117188 C 435.96875 127.191406 440.109375 120.070312 443.183594 117.890625 C 447.707031 114.6875 453.339844 113.691406 458.75 114.691406 C 464.492188 115.75 469.324219 118.839844 472.617188 123.683594 C 476.3125 129.113281 478.289062 136.277344 477.476562 142.828125 C 477.246094 144.695312 476.554688 146.523438 476.359375 148.367188 C 476.269531 149.1875 476.4375 149.839844 477.011719 150.457031 C 477.609375 151.105469 478.167969 151.304688 479.011719 151.417969 C 482.753906 150.4375 484.359375 143.964844 486.46875 141.019531 C 487.886719 139.035156 489.917969 137.238281 491.796875 135.703125 C 500.894531 128.289062 518.222656 119.914062 530.253906 121.277344 C 533.742188 121.671875 537.183594 123.050781 539.34375 125.929688 C 542.941406 130.730469 542.316406 137.777344 539.535156 142.78125 C 538.339844 144.929688 536.339844 146.578125 535.984375 149.113281 C 536.234375 149.882812 536.316406 150.351562 537.105469 150.75 C 537.175781 150.789062 538.078125 151.078125 538.21875 151.066406 C 538.953125 151 540.574219 149.199219 541.101562 148.699219 C 545.308594 144.71875 549.292969 140.820312 554.558594 138.246094 C 559.140625 136.007812 565.328125 134.445312 570.277344 136.246094 C 573.320312 137.351562 575.546875 139.660156 576.792969 142.625 C 579.617188 149.351562 577.078125 161.007812 573.511719 167.039062 C 572.421875 168.882812 570.148438 170.832031 569.507812 172.832031 C 569.175781 173.875 569.203125 174.617188 569.714844 175.574219 L 570.570312 175.75 C 574.394531 174.535156 578.769531 167.988281 582.597656 165.394531 C 590.148438 160.28125 601.832031 156.140625 611.015625 158.132812 C 614.546875 158.898438 617.433594 160.859375 619.359375 163.933594 C 625.75 174.136719 617.921875 191.300781 611.910156 199.945312 C 609.226562 203.804688 603.453125 209.515625 602.421875 213.855469 C 602.648438 214.613281 602.945312 215 603.460938 215.59375 C 604.402344 215.96875 604.941406 216.140625 605.90625 215.734375 C 608.007812 214.851562 609.917969 213.273438 611.9375 212.183594 C 613.257812 211.476562 614.605469 210.824219 615.980469 210.226562 C 617.359375 209.632812 618.757812 209.09375 620.175781 208.613281 C 621.597656 208.128906 623.035156 207.710938 624.488281 207.347656 C 625.941406 206.984375 627.410156 206.683594 628.890625 206.441406 C 637.335938 205.035156 648.4375 205.34375 655.585938 210.714844 C 659.34375 213.535156 661.574219 217.445312 662.234375 222.085938 C 663.875 233.589844 654.273438 246.371094 646.84375 254.335938 C 644.167969 257.210938 640.785156 259.753906 638.460938 262.90625 C 637.6875 263.957031 637.253906 264.855469 637.445312 266.175781 C 638.152344 266.890625 639.019531 267.359375 640.082031 267.128906 C 641.886719 266.738281 643.859375 265.230469 645.601562 264.523438 C 649.453125 262.960938 657.269531 263.039062 661.464844 263.292969 C 669.726562 263.796875 680.132812 266.796875 685.695312 273.34375 C 688.585938 276.746094 689.433594 280.996094 689.023438 285.347656 C 688.421875 291.792969 684.417969 298.089844 679.5 302.171875 C 677.636719 303.71875 675.417969 304.910156 673.625 306.53125 C 672.851562 307.230469 672.132812 307.875 672.167969 308.996094 C 672.320312 314.027344 681.371094 310.980469 684.839844 311.257812 C 687.949219 311.511719 691.078125 313.105469 693.449219 315.074219 C 696.738281 317.808594 699.476562 321.789062 699.746094 326.148438 C 699.988281 330.070312 698.316406 333.320312 695.789062 336.175781 C 686.90625 333.6875 678.234375 332.875 669.523438 336.648438 C 668.175781 337.230469 666.324219 338.601562 665.949219 340.109375 C 665.730469 340.984375 665.816406 341.234375 666.167969 342.003906 C 666.902344 342.65625 667.765625 342.96875 668.75 342.992188 C 672.253906 343.082031 677.324219 340.738281 681.628906 340.6875 C 690.65625 340.582031 702.035156 345.550781 708.414062 351.859375 C 710.546875 353.96875 712.292969 356.554688 712.21875 359.664062 C 711.96875 370.429688 699.601562 379.773438 690.703125 383.5625 C 687.714844 384.835938 683.054688 385.4375 680.71875 387.59375 C 680.492188 388.3125 680.382812 389.0625 680.6875 389.785156 C 680.945312 390.398438 681.449219 390.765625 682.042969 390.996094 C 683.5625 391.578125 685.5625 391.65625 687.179688 391.9375 C 688.269531 392.117188 689.351562 392.347656 690.421875 392.625 C 691.492188 392.902344 692.546875 393.226562 693.589844 393.597656 C 694.632812 393.96875 695.65625 394.386719 696.660156 394.851562 C 697.664062 395.316406 698.644531 395.820312 699.605469 396.371094 C 704.824219 399.375 709.066406 403.570312 710.605469 409.535156 L 710.71875 409.992188 C 709.882812 412.121094 708.527344 413.9375 706.953125 415.578125 C 700.34375 422.457031 689.820312 426.761719 680.410156 427.535156 C 677.058594 427.808594 673.652344 427.480469 670.28125 427.535156 C 669.6875 428.058594 669.386719 428.3125 669.363281 429.191406 C 669.304688 431.460938 673.125 433.414062 674.566406 434.886719 C 676.179688 436.53125 677.039062 438.652344 676.996094 440.957031 C 676.921875 444.824219 674.71875 448.4375 671.957031 451.015625 C 665.835938 456.730469 657.082031 459.277344 648.828125 459.046875 C 646.371094 458.980469 643.941406 458.347656 641.492188 458.335938 C 640.789062 458.332031 639.9375 458.441406 639.460938 458.988281 C 638.589844 459.988281 638.203125 462.035156 637.726562 463.292969 C 636.574219 466.328125 634.929688 468.988281 632.632812 471.289062 C 626.015625 477.917969 615.46875 479.445312 606.789062 476.5 C 604.320312 475.660156 601.078125 473.597656 598.539062 473.582031 C 597.734375 473.957031 597.570312 474.046875 597.050781 474.757812 C 596.933594 476.65625 597.59375 478.265625 597.890625 480.109375 C 598.359375 482.988281 596.777344 485.871094 595.074219 488.066406 C 588.0625 497.140625 575.765625 499.265625 565.921875 493.773438 C 563.675781 492.519531 559.816406 489.023438 557.578125 488.601562 C 557.152344 488.523438 556.230469 489.1875 555.914062 489.449219 C 554.511719 490.617188 553.378906 492.269531 552.117188 493.597656 C 548.558594 497.351562 543.558594 499.316406 538.492188 499.914062 C 531.722656 500.710938 521.492188 499.800781 516.527344 494.535156 C 514.875 492.785156 514 490.175781 512.121094 488.710938 C 511.792969 488.695312 511.441406 488.554688 511.132812 488.667969 C 509.90625 489.125 506.625 493.957031 505.085938 495.230469 C 502.226562 497.601562 498.894531 498.554688 495.257812 498.828125 C 481.105469 499.898438 474.972656 489.976562 471.996094 490.113281 C 470.027344 490.207031 468.230469 492.382812 466.898438 493.660156 C 462.539062 497.832031 458.34375 498.722656 452.492188 498.589844 C 452.699219 498.199219 452.914062 497.8125 453.136719 497.433594 C 458.617188 488.101562 467.726562 478.671875 476.15625 471.988281 C 488.523438 462.179688 500.117188 455.75 516.320312 457.855469 C 522.09375 458.605469 527.757812 460.097656 533.535156 460.867188 C 548.976562 462.921875 565.113281 462.550781 580.226562 458.664062 C 601.039062 453.316406 618.625 441.46875 631.777344 424.527344 C 633.984375 421.6875 636.257812 418.777344 638.09375 415.683594 C 636.890625 414.0625 634.625 410.960938 632.511719 410.640625 C 631.410156 410.476562 630.371094 411.039062 629.53125 411.695312 C 627.203125 413.519531 625.152344 415.890625 622.925781 417.867188 C 617.558594 422.628906 611.6875 427.289062 605.648438 431.15625 C 582.050781 446.265625 556.148438 446.496094 529.574219 440.617188 C 543.269531 432.792969 554.542969 422.992188 563.386719 409.871094 C 575.515625 406.710938 582.972656 402.546875 591.460938 393.3125 C 599.046875 396.515625 605.125 397.878906 613.339844 396.242188 C 622.5 394.414062 631.359375 389.578125 636.597656 381.667969 C 640.46875 375.828125 641.753906 369.535156 640.410156 362.699219 C 646.847656 358.851562 652.640625 353.960938 655.667969 346.929688 C 658.53125 340.277344 659.105469 331.867188 656.347656 325.085938 C 651.957031 314.296875 641.757812 309.859375 631.789062 305.574219 C 626.800781 297.929688 622.003906 288.636719 614.835938 282.835938 C 606.207031 275.859375 595.140625 274.363281 584.429688 275.4375 C 583.5 269.734375 581.386719 264.6875 577.691406 260.230469 C 569.019531 249.769531 556.71875 247.453125 543.917969 246.265625 C 541.15625 243.554688 538.742188 240.488281 536.023438 237.726562 C 527.527344 229.09375 517.453125 222.664062 505.609375 219.875 C 506.78125 213.355469 507.75 206.832031 506.445312 200.253906 C 505.046875 193.199219 501.109375 188.054688 495.1875 184.144531 C 493.566406 183.183594 491.871094 182.382812 490.101562 181.738281 C 479.109375 177.761719 468.308594 179.910156 458.054688 184.765625 C 457.183594 182.925781 456.203125 181.042969 455.105469 179.332031 C 450.9375 172.839844 443.96875 168.761719 436.527344 167.164062 C 426.355469 164.984375 415.363281 167.355469 406.726562 173.078125 C 395.257812 180.679688 388.785156 192.503906 386.132812 205.753906 C 383.191406 201.207031 379.8125 196.722656 375.894531 192.976562 C 366.132812 183.640625 350.679688 176.453125 336.992188 176.898438 C 328.933594 177.15625 319.503906 181.238281 314.011719 187.191406 C 308.398438 193.269531 307.726562 199.738281 308.046875 207.65625 C 299.125 204.339844 289.078125 203.644531 280.210938 207.519531 C 274.433594 210.042969 270.335938 214.609375 268.117188 220.488281 C 265.144531 228.363281 266.308594 236.59375 269.652344 244.121094 C 265.660156 244 261.90625 244.09375 257.984375 244.917969 C 250.8125 246.421875 243.996094 250.15625 239.929688 256.417969 C 239.707031 256.765625 239.488281 257.117188 239.28125 257.476562 C 239.074219 257.835938 238.875 258.203125 238.683594 258.570312 C 238.496094 258.941406 238.316406 259.316406 238.144531 259.691406 C 237.976562 260.070312 237.816406 260.453125 237.664062 260.839844 C 237.511719 261.226562 237.371094 261.617188 237.238281 262.011719 C 237.109375 262.40625 236.988281 262.800781 236.875 263.203125 C 236.765625 263.601562 236.664062 264.003906 236.574219 264.410156 C 236.480469 264.816406 236.402344 265.222656 236.332031 265.632812 C 236.261719 266.039062 236.199219 266.449219 236.148438 266.863281 C 236.101562 267.273438 236.0625 267.6875 236.03125 268.101562 C 236.003906 268.515625 235.984375 268.933594 235.976562 269.347656 C 235.96875 269.761719 235.972656 270.175781 235.984375 270.59375 C 235.996094 271.007812 236.019531 271.421875 236.054688 271.835938 C 236.089844 272.25 236.132812 272.660156 236.1875 273.074219 C 236.242188 273.484375 236.308594 273.894531 236.382812 274.300781 C 236.460938 274.710938 236.546875 275.117188 236.640625 275.519531 C 238.5 283.695312 244.285156 289.628906 251.21875 293.941406 C 249.902344 296.539062 248.902344 299.1875 247.917969 301.921875 C 239.179688 302.316406 230.710938 304.429688 224.304688 310.757812 C 218.4375 316.550781 216.980469 323.835938 216.878906 331.808594 C 214.6875 330.964844 212.441406 330.328125 210.136719 329.894531 C 199.371094 327.851562 187.757812 329.582031 178.628906 335.839844 C 172.40625 340.101562 167.605469 346.175781 166.296875 353.738281 C 164.714844 362.875 168.628906 371.8125 173.746094 379.140625 C 171.019531 381.605469 168.589844 384.082031 167.027344 387.46875 C 164.746094 392.410156 164.761719 398.019531 166.757812 403.046875 C 170.332031 412.0625 178.421875 418.160156 187.066406 421.878906 C 187.910156 425.648438 189.035156 428.875 191.433594 431.953125 C 195.671875 437.390625 202.464844 440.5625 209.234375 441.320312 C 216.183594 442.097656 222.382812 440.484375 227.839844 436.113281 C 230.410156 438.515625 233.066406 440.613281 236.054688 442.480469 C 249.425781 450.828125 263.671875 451.582031 278.703125 448.097656 C 281.417969 450.625 283.84375 453.453125 286.660156 455.882812 C 298.117188 465.75 312.378906 472.03125 326.933594 475.667969 C 331.570312 476.824219 340.054688 478.136719 343.882812 480.390625 C 347.828125 482.714844 350.664062 488.027344 353.160156 491.75 C 338.359375 492.351562 336.890625 483.265625 332.957031 483.085938 C 332.117188 483.046875 328.054688 492.289062 324.425781 495.472656 C 317.761719 501.3125 308.417969 504.03125 299.640625 503.367188 C 293.355469 502.890625 289.984375 501.066406 285.886719 496.296875 C 288.6875 493.675781 292.421875 489.480469 292.636719 485.519531 C 292.710938 484.132812 292.460938 483.222656 291.566406 482.167969 C 290.953125 481.851562 290.550781 481.664062 289.855469 481.722656 C 288.054688 481.863281 284.363281 487.386719 282.917969 488.875 C 281.617188 490.207031 280.171875 491.417969 278.703125 492.558594 C 274.769531 495.625 269.210938 497.472656 264.4375 498.695312 C 254.402344 501.273438 243.183594 501.648438 234.027344 496.097656 C 230.191406 493.769531 227.511719 490.628906 226.417969 486.226562 C 228.167969 485.242188 229.890625 484.226562 231.546875 483.089844 C 233.929688 481.453125 236.726562 479.089844 237.15625 476.0625 C 237.308594 475.007812 237.039062 474.417969 236.40625 473.605469 C 235.367188 473.136719 234.515625 473.230469 233.484375 473.648438 C 231.472656 474.46875 229.539062 476.207031 227.714844 477.414062 C 224.089844 479.800781 220.136719 482.011719 216.054688 483.511719 C 207.320312 486.71875 196.152344 487.726562 187.527344 483.652344 C 183.09375 481.558594 179.023438 477.996094 177.464844 473.21875 C 175.886719 468.382812 177.617188 463.164062 180.921875 459.464844 C 182.207031 458.027344 184.046875 456.875 184.878906 455.097656 C 185.316406 454.160156 185.1875 453.550781 184.835938 452.625 C 184.511719 452.359375 184.25 451.988281 183.863281 451.828125 C 183.277344 451.589844 180.144531 452.445312 179.359375 452.589844 C 175.269531 453.347656 171.289062 453.917969 167.113281 453.863281 C 157.808594 453.738281 144.820312 451.566406 138.09375 444.441406 C 136.394531 442.644531 135.210938 440.355469 135.414062 437.824219 C 135.832031 432.542969 141.804688 427.75 145.9375 425.082031 C 147.925781 423.800781 150.332031 422.679688 152.035156 421.039062 C 152.773438 420.328125 153.214844 419.699219 153.257812 418.644531 C 152.8125 417.644531 151.988281 416.984375 150.867188 416.933594 C 148.648438 416.832031 146.378906 417.390625 144.15625 417.277344 C 134.890625 416.8125 122.96875 412.335938 115.148438 407.570312 C 107.773438 403.074219 99.921875 395.960938 97.972656 387.148438 C 97.1875 383.589844 98.148438 380.496094 100.164062 377.53125 C 105.417969 369.808594 115.332031 365.277344 124.148438 363.257812 C 126.199219 362.789062 128.277344 362.722656 130.320312 362.289062 C 131.488281 362.046875 132.144531 361.71875 132.789062 360.683594 C 132.917969 360.050781 133.027344 359.578125 132.804688 358.9375 C 132.546875 358.207031 132.082031 357.765625 131.414062 357.398438 C 129.570312 356.394531 127.125 356.097656 125.101562 355.519531 C 122.792969 354.855469 120.566406 353.839844 118.460938 352.691406 C 109.007812 347.550781 101.386719 338.203125 98.355469 327.859375 C 96.875 322.808594 96.617188 318.066406 99.347656 313.328125 C 107.902344 298.464844 135.132812 299.589844 149.1875 303.0625 C 153.300781 304.078125 157.382812 305.402344 161.183594 307.289062 C 162.820312 308.101562 164.539062 309.433594 166.257812 309.984375 C 166.957031 310.207031 167.601562 310.054688 168.285156 309.875 C 168.988281 309.347656 169.484375 308.863281 169.746094 307.988281 C 170.0625 306.929688 169.785156 305.9375 169.210938 305.042969 C 168.011719 303.183594 166.144531 301.617188 164.625 300.011719 C 163.671875 299.019531 162.769531 297.980469 161.917969 296.898438 C 161.0625 295.816406 160.265625 294.699219 159.519531 293.539062 C 158.773438 292.382812 158.082031 291.191406 157.453125 289.96875 C 156.820312 288.742188 156.25 287.492188 155.738281 286.214844 C 153.34375 280.382812 152.222656 273.320312 154.875 267.382812 C 157.175781 262.234375 161.804688 258.867188 166.972656 256.976562 C 167.519531 256.785156 168.070312 256.605469 168.625 256.441406 C 169.179688 256.28125 169.738281 256.132812 170.304688 256 C 170.867188 255.867188 171.433594 255.75 172.003906 255.648438 C 172.570312 255.546875 173.144531 255.460938 173.71875 255.390625 C 174.292969 255.320312 174.867188 255.265625 175.445312 255.230469 C 176.023438 255.191406 176.601562 255.167969 177.179688 255.160156 C 177.757812 255.15625 178.335938 255.164062 178.914062 255.191406 C 179.492188 255.214844 180.070312 255.257812 180.648438 255.3125 C 181.222656 255.371094 181.796875 255.445312 182.367188 255.53125 C 182.941406 255.621094 183.507812 255.726562 184.074219 255.84375 C 184.640625 255.964844 185.203125 256.097656 185.761719 256.25 C 186.320312 256.402344 186.875 256.566406 187.425781 256.75 C 187.976562 256.929688 188.519531 257.125 189.058594 257.335938 C 189.597656 257.546875 190.128906 257.773438 190.65625 258.015625 C 191.183594 258.253906 191.703125 258.507812 192.214844 258.777344 C 192.726562 259.046875 193.230469 259.332031 193.730469 259.628906 C 196.757812 261.410156 199.550781 263.882812 202.75 265.3125 C 203.652344 265.714844 204.542969 265.957031 205.472656 265.417969 C 206.117188 265.046875 206.488281 264.46875 206.601562 263.738281 C 207.421875 258.375 190.898438 251.320312 186.972656 248.753906 C 183.683594 246.601562 180.613281 243.867188 177.992188 240.941406 C 174.296875 236.8125 171.304688 231.753906 171.753906 226 C 172.054688 222.179688 173.960938 218.933594 176.941406 216.570312 C 186.359375 209.109375 199.324219 210.375 210.429688 211.453125 C 212.691406 214.515625 216.605469 219.5 219.453125 221.902344 C 220.839844 223.066406 223.007812 224.617188 224.925781 224.332031 C 225.503906 224.246094 225.511719 224.046875 225.847656 223.628906 C 226.050781 222.59375 225.839844 221.269531 225.328125 220.335938 C 224.425781 218.679688 222.585938 217.230469 221.335938 215.792969 C 219.402344 213.566406 217.644531 211.035156 216.183594 208.472656 C 213.066406 203.011719 211.71875 196.917969 213.417969 190.757812 C 214.726562 186.007812 217.378906 181.878906 221.789062 179.449219 C 228.730469 175.625 237.695312 176.515625 244.390625 180.542969 C 246.472656 181.792969 248.695312 184.074219 251.054688 184.667969 C 252.226562 184.960938 253.769531 184.734375 254.714844 183.96875 C 255.617188 183.234375 255.800781 182.378906 255.628906 181.277344 C 255.347656 179.453125 254.074219 177.269531 253.394531 175.503906 C 251.292969 170.035156 251.050781 163.519531 252.113281 157.789062 C 253.511719 150.253906 258.492188 142.40625 264.878906 138.117188 C 271.328125 133.792969 278.871094 135.5625 284.671875 140.101562 C 286.519531 141.546875 289.28125 144.960938 291.5625 145.238281 C 292.492188 145.351562 293.042969 144.519531 293.429688 143.792969 C 294.378906 141.996094 294.933594 139.882812 295.734375 138.003906 C 297.683594 133.425781 301.394531 129.261719 305.347656 126.292969 C 310.652344 122.3125 317.875 120.382812 324.453125 121.417969 C 334.34375 122.976562 341.503906 131.039062 345.128906 139.925781 C 346.035156 142.148438 346.773438 145.757812 348.347656 147.542969 C 348.921875 148.191406 349.65625 148.480469 350.527344 148.46875 C 351.390625 148.457031 352.105469 148.109375 352.632812 147.429688 C 353.964844 145.71875 352.46875 139.75 352.363281 137.4375 C 351.824219 125.585938 360.902344 112.78125 368.5 104.496094 C 376.738281 95.519531 387.320312 88.992188 399.707031 88.4375 Z M 399.707031 88.4375 " fill-opacity="1" fill-rule="nonzero"/><path fill="#ffffff" d="M 399.992188 362.726562 C 400.738281 363.105469 400.832031 364.234375 401.003906 364.984375 C 403.691406 376.878906 403.34375 388.386719 402.703125 400.453125 C 402.289062 408.21875 401.714844 416.25 402.984375 423.964844 C 404.273438 431.804688 407.035156 439.136719 410.71875 446.136719 C 411.894531 448.375 413.261719 451.792969 415.828125 452.589844 C 417.648438 452.402344 419.066406 450.933594 420.246094 449.640625 C 434.191406 434.332031 446.671875 412.304688 449.414062 391.730469 C 450.523438 383.4375 450.097656 375.257812 449.746094 366.9375 L 452.996094 367.703125 C 453.613281 371.296875 454.074219 378.386719 456.550781 381.152344 C 457.308594 382 458.128906 382.28125 459.25 382.242188 C 463.433594 382.089844 473.078125 370.019531 476.246094 366.582031 C 478.132812 366.144531 479.882812 365.578125 481.691406 364.890625 C 477.675781 369.75 473.414062 374.386719 469.179688 379.058594 C 466.332031 382.199219 463.050781 385.359375 460.871094 389.007812 C 457.789062 394.160156 456.398438 400.875 454.613281 406.613281 L 449.082031 423.835938 C 443.496094 441.199219 436.691406 458.421875 432.558594 476.214844 C 435.359375 473.414062 437.871094 470.296875 440.605469 467.425781 C 448.863281 458.75 458.246094 450.988281 469.839844 447.347656 C 473.609375 446.160156 477.519531 445.480469 481.378906 444.652344 C 499.101562 440.859375 510.949219 428.53125 518.78125 412.628906 C 519.476562 411.214844 520.242188 409.757812 520.78125 408.28125 C 521.617188 405.972656 522.050781 403.234375 523.382812 401.171875 L 523.925781 401.8125 C 524.046875 402.636719 523.957031 403.253906 523.679688 404.03125 C 523.003906 405.929688 521.957031 407.757812 521.167969 409.625 C 519.445312 413.710938 515.472656 424.304688 515.21875 428.363281 C 515.144531 429.511719 515.425781 430.878906 516.296875 431.691406 C 516.964844 432.324219 517.835938 432.484375 518.722656 432.460938 C 520.644531 432.410156 522.765625 431.410156 524.523438 430.671875 C 534.914062 426.328125 543.324219 419.171875 551.066406 411.136719 L 554.691406 410.757812 C 546.738281 420.082031 538.03125 428.128906 527.066406 433.855469 C 523.992188 435.460938 520.710938 436.53125 517.609375 438.046875 C 516.835938 438.421875 516.304688 438.945312 516.171875 439.835938 C 516.03125 440.773438 516.214844 441.484375 516.746094 442.261719 C 519.207031 445.875 534.242188 448.785156 538.757812 449.542969 C 558.175781 452.800781 580.214844 451.523438 598.183594 443.191406 C 601.125 441.828125 604.015625 440.476562 606.652344 438.5625 C 607.191406 438.167969 607.277344 438.101562 607.964844 437.945312 C 604.542969 441.859375 598.015625 444.710938 593.3125 446.953125 C 576.007812 455.210938 552.59375 456.730469 533.765625 453.644531 C 523.726562 452 514.078125 449.34375 503.78125 450.480469 C 483.800781 452.683594 463.273438 471.410156 451.21875 486.597656 C 447.78125 490.925781 445.097656 495.605469 442.378906 500.390625 C 429.871094 522.390625 428.984375 539.621094 428.742188 564.09375 C 428.652344 571.84375 428.804688 579.59375 429.195312 587.335938 C 429.585938 595.078125 430.214844 602.800781 431.082031 610.507812 C 434.945312 644.375 443.109375 689.421875 464.175781 717.242188 C 469.886719 724.789062 476.878906 730.984375 484.25 736.84375 C 481.261719 736.917969 478.988281 736.804688 476.183594 735.65625 C 471.742188 733.828125 467.453125 730.679688 463.703125 727.714844 C 442.089844 710.605469 438.664062 687.929688 429.03125 664.28125 C 429.824219 670.617188 431.207031 677.140625 432.984375 683.273438 C 435.136719 690.832031 437.867188 698.867188 441.4375 705.867188 C 447.222656 717.210938 457.203125 729.378906 468.203125 736.066406 C 457.730469 734.972656 447.425781 731.949219 437.023438 730.273438 C 431.265625 729.363281 425.480469 728.636719 419.671875 728.101562 C 413.863281 727.5625 408.042969 727.210938 402.214844 727.046875 C 396.382812 726.886719 390.550781 726.910156 384.722656 727.121094 C 378.894531 727.335938 373.078125 727.734375 367.277344 728.324219 C 371.515625 725.34375 375.496094 722.214844 378.960938 718.335938 C 396.703125 698.480469 400.898438 664.769531 399.4375 639.074219 C 399.425781 639.128906 399.425781 639.1875 399.402344 639.238281 C 398.453125 641.171875 398.285156 649.492188 398.019531 652.074219 C 395.992188 671.871094 392.410156 693.285156 380.835938 709.976562 C 375.558594 717.585938 363.832031 727.1875 355.082031 730.207031 C 352.4375 731.121094 349.472656 731.472656 346.726562 732.019531 C 340.628906 733.273438 334.515625 734.441406 328.386719 735.527344 C 332.953125 732.710938 337.261719 729.257812 341.34375 725.785156 C 357.320312 712.195312 369.929688 693.046875 376.429688 673.125 C 379.976562 662.261719 382.003906 650.90625 383.644531 639.621094 C 384.652344 632.664062 385.671875 625.679688 386.214844 618.671875 C 388.011719 595.65625 388.429688 570.304688 387.257812 547.292969 C 386.945312 541.117188 386.988281 534.070312 385.011719 528.164062 C 381.375 517.304688 370.296875 501.390625 363.539062 491.800781 C 360.410156 487.355469 353.101562 475.402344 348.460938 473.417969 C 343.988281 471.507812 337.503906 470.757812 332.613281 469.582031 C 316.46875 465.710938 296.679688 458.542969 285.558594 445.535156 L 289.046875 444.59375 C 301.835938 457.558594 313.542969 459.917969 331.363281 460.734375 C 333.726562 460.839844 336.730469 460.8125 338.535156 459.039062 C 339.253906 458.339844 339.792969 457.375 339.710938 456.34375 C 339.453125 453.019531 336.007812 448.289062 334.4375 445.300781 C 328.042969 433.121094 320.769531 419.472656 311.328125 409.324219 C 306.722656 404.375 301.425781 400.09375 296.113281 395.933594 C 298.5 396.75 301.410156 397.035156 303.554688 398.390625 C 306.222656 400.078125 308.53125 402.644531 310.792969 404.835938 C 320.71875 414.457031 327.261719 422.949219 335.730469 433.753906 C 347.480469 448.742188 360.066406 462.378906 374.234375 475.117188 C 378.445312 478.910156 382.984375 483.21875 387.882812 486.085938 C 388.214844 484.890625 388.515625 483.683594 388.785156 482.46875 C 389.054688 481.257812 389.292969 480.039062 389.496094 478.8125 C 389.699219 477.585938 389.867188 476.355469 390.007812 475.117188 C 390.144531 473.882812 390.246094 472.644531 390.320312 471.40625 C 390.390625 470.164062 390.425781 468.921875 390.429688 467.679688 C 390.4375 466.4375 390.40625 465.195312 390.34375 463.953125 C 390.28125 462.710938 390.1875 461.472656 390.058594 460.238281 C 389.929688 459 389.769531 457.769531 389.574219 456.542969 C 386.015625 434.875 375.140625 418.144531 360.230469 402.679688 C 355.429688 397.703125 350.589844 393.003906 344.957031 388.953125 C 346.074219 388.007812 347.296875 387.175781 348.476562 386.316406 C 351.683594 388.636719 354.519531 391.355469 357.492188 393.960938 C 361.796875 397.734375 366.183594 401.398438 370.367188 405.308594 C 375.023438 409.65625 379.53125 414.332031 384.394531 418.433594 C 386.285156 420.03125 388.101562 421.367188 390.664062 421.160156 C 391.273438 420.875 391.679688 420.609375 392.0625 420.058594 C 393.855469 417.484375 394.382812 413.328125 395.117188 410.292969 C 397.933594 398.640625 400.015625 386.207031 399.335938 374.15625 C 399.140625 370.707031 398.476562 367.203125 397.960938 363.789062 C 398.460938 363.109375 399.214844 363.011719 399.992188 362.726562 Z M 399.992188 362.726562 " fill-opacity="1" fill-rule="nonzero"/><path fill="#ffffff" d="M 427.339844 173.945312 C 431.640625 173.9375 435.726562 174.367188 439.734375 176.039062 C 448.023438 179.492188 450.089844 184.734375 453.378906 192.425781 C 453.898438 193.640625 454.277344 194.574219 455.582031 195.097656 C 458.574219 194.871094 460.96875 192.316406 463.40625 190.722656 C 469.40625 186.792969 476.796875 185.960938 483.75 187.414062 C 489.011719 188.515625 494.15625 191.515625 497.070312 196.121094 C 501.121094 202.515625 500.605469 210.96875 498.902344 218.019531 C 487.949219 217.21875 477.074219 217.789062 467.042969 222.734375 C 454.617188 228.863281 445.542969 240.441406 438.140625 251.828125 C 435.515625 255.867188 433.054688 260.371094 429.65625 263.804688 C 426.589844 266.898438 422.488281 268.664062 418.675781 270.644531 C 408.257812 276.050781 398.988281 283.144531 395.089844 294.695312 C 391.128906 306.445312 394.890625 318.945312 402.707031 328.195312 C 407.441406 333.792969 412.4375 337.75 415.75 344.46875 C 412.542969 347.605469 409.300781 350.648438 405.421875 352.957031 C 396.613281 358.203125 384.710938 359.164062 374.898438 356.65625 C 363.484375 353.742188 351.5 346.75 345.347656 336.46875 C 339.652344 336.730469 333.792969 336.515625 328.546875 334 C 322.570312 331.132812 317.179688 325.472656 315.078125 319.125 C 311.859375 309.414062 319.488281 309.445312 322.078125 304.1875 C 321.699219 302.167969 317.574219 300.554688 315.855469 299.335938 C 311.789062 296.449219 308.054688 291.722656 307.320312 286.710938 C 306.453125 280.824219 309.890625 274.484375 313.308594 269.941406 C 319.679688 261.464844 327.109375 258.292969 337.34375 256.890625 C 342.117188 248.132812 346.144531 239.085938 355.40625 234.148438 C 362.304688 230.46875 369.726562 230.75 377.011719 233.019531 C 384.761719 236.050781 391.34375 240.746094 397.355469 246.453125 C 398.808594 247.835938 399.941406 249.546875 401.425781 250.882812 C 402.03125 251.429688 402.632812 251.808594 403.472656 251.699219 C 404.304688 251.59375 404.941406 251.011719 405.414062 250.375 C 405.65625 249.511719 405.703125 248.9375 405.4375 248.0625 C 403.085938 240.335938 391.03125 231.664062 384.109375 228.203125 C 375.65625 223.976562 365.695312 222.601562 356.636719 225.703125 C 344.9375 229.710938 338.179688 239.773438 332.9375 250.367188 C 329.980469 250.597656 326.886719 251.332031 324.101562 252.351562 C 313.859375 256.101562 306.980469 264.503906 302.558594 274.175781 C 295.339844 271.503906 286.738281 270.226562 279.089844 271.441406 C 268.613281 273.109375 261.21875 279.367188 255.113281 287.734375 C 254.214844 287.3125 253.367188 286.851562 252.550781 286.28125 C 247.90625 283.042969 243.945312 277.992188 243.03125 272.292969 C 242.988281 272.023438 242.953125 271.75 242.925781 271.476562 C 242.898438 271.203125 242.878906 270.933594 242.863281 270.660156 C 242.851562 270.386719 242.84375 270.109375 242.84375 269.835938 C 242.84375 269.5625 242.847656 269.289062 242.863281 269.015625 C 242.875 268.742188 242.894531 268.46875 242.921875 268.195312 C 242.949219 267.925781 242.980469 267.652344 243.023438 267.382812 C 243.0625 267.109375 243.109375 266.839844 243.164062 266.570312 C 243.214844 266.304688 243.277344 266.035156 243.34375 265.769531 C 243.410156 265.503906 243.484375 265.242188 243.5625 264.980469 C 243.644531 264.71875 243.730469 264.457031 243.820312 264.199219 C 243.914062 263.941406 244.011719 263.6875 244.117188 263.433594 C 244.222656 263.179688 244.335938 262.929688 244.453125 262.683594 C 244.570312 262.4375 244.695312 262.191406 244.824219 261.953125 C 244.953125 261.710938 245.089844 261.472656 245.230469 261.238281 C 245.375 261.003906 245.519531 260.773438 245.675781 260.546875 C 245.828125 260.320312 245.984375 260.09375 246.148438 259.875 C 252.003906 251.917969 262.878906 250.019531 272.027344 252.128906 C 274.757812 252.757812 279.234375 254.886719 281.925781 254.285156 C 282.464844 254.164062 282.71875 253.875 282.933594 253.347656 C 284.101562 250.507812 278.207031 244.089844 276.746094 241.589844 C 275.414062 239.300781 274.324219 236.859375 273.683594 234.289062 C 272.515625 229.609375 273.160156 224.707031 275.722656 220.597656 C 281.1875 211.828125 292.171875 210.570312 301.375 213.164062 C 304.1875 213.957031 313.542969 218.871094 315.472656 218.179688 C 319.75 216.652344 315.402344 207.492188 315.042969 204.273438 C 314.746094 201.609375 315.226562 198.984375 316.339844 196.550781 C 318.792969 191.1875 323.785156 187.839844 329.167969 185.878906 C 339.105469 182.253906 349.640625 185.3125 358.859375 189.699219 C 368.34375 194.210938 375 201.113281 380.316406 210.050781 C 381.613281 212.234375 383.082031 214.445312 383.914062 216.855469 C 384.433594 218.359375 384.945312 220.261719 385.929688 221.53125 C 386.566406 222.351562 387.285156 222.738281 388.324219 222.773438 C 388.644531 222.789062 389.023438 222.699219 389.332031 222.617188 C 390.574219 222.273438 391.226562 221.523438 391.539062 220.285156 C 392.152344 217.875 391.804688 214.6875 392.035156 212.152344 C 392.914062 202.449219 395.753906 193.855469 402.261719 186.480469 C 408.980469 178.867188 417.1875 174.554688 427.339844 173.945312 Z M 427.339844 173.945312 " fill-opacity="1" fill-rule="nonzero"/><path fill="#ffffff" d="M 485.96875 225.183594 C 489.597656 224.601562 494.085938 224.894531 497.695312 225.4375 C 509.839844 227.269531 522.414062 233.984375 531 242.71875 C 534.28125 246.054688 537.007812 249.839844 539.761719 253.609375 C 543.351562 253.632812 546.988281 253.644531 550.554688 254.097656 C 558.894531 255.160156 567.558594 258.847656 572.753906 265.699219 C 575.890625 269.839844 577.746094 274.757812 576.996094 280.011719 C 575.464844 290.730469 568.996094 293.121094 561.320312 298.808594 C 559.578125 303.316406 567.546875 305.035156 568.269531 313.164062 C 568.6875 317.839844 566.613281 322.035156 563.71875 325.554688 C 558.507812 331.886719 551.96875 333.535156 544.148438 334.320312 C 543.847656 335.011719 543.515625 335.6875 543.15625 336.351562 C 540.722656 340.8125 536.429688 344.027344 531.585938 345.445312 C 524.019531 347.664062 516.9375 345.476562 510.273438 341.800781 C 511.066406 340.234375 512.257812 338.382812 512.40625 336.613281 C 512.507812 335.390625 512.441406 334.117188 511.480469 333.21875 C 510.859375 332.636719 510.027344 332.421875 509.191406 332.519531 C 508.320312 332.621094 507.664062 332.996094 507.082031 333.640625 C 505.636719 335.242188 504.53125 337.902344 503.390625 339.78125 C 502.160156 341.808594 500.65625 343.519531 499.070312 345.273438 C 490.898438 354.15625 480.34375 359.992188 468.238281 361.304688 C 455.398438 362.699219 442.035156 359.070312 431.945312 350.941406 C 425.816406 346 422.074219 339.585938 417.320312 333.5 C 410.335938 324.554688 401.960938 319.644531 400.652344 307.164062 C 399.332031 294.535156 407.933594 284.886719 418.324219 279.066406 C 424.039062 275.867188 430.347656 273.625 435.117188 268.976562 C 439.417969 264.789062 442.394531 258.910156 445.699219 253.90625 C 448.167969 250.171875 450.945312 246.574219 453.769531 243.097656 C 462.242188 232.667969 472.507812 226.582031 485.96875 225.183594 Z M 485.96875 225.183594 " fill-opacity="1" fill-rule="nonzero"/><path fill="#ffffff" d="M 585.753906 282.601562 C 588.738281 282.394531 591.800781 282.296875 594.777344 282.59375 C 610.160156 284.117188 615.464844 293.738281 623.164062 305.582031 C 624.6875 307.917969 626.140625 310.359375 627.9375 312.496094 C 628.023438 312.597656 628.109375 312.699219 628.199219 312.796875 C 630.0625 313.292969 631.953125 313.664062 633.765625 314.332031 C 640.453125 316.78125 646.894531 321.25 649.886719 327.933594 C 654.382812 337.996094 649.058594 347.632812 640.925781 353.617188 C 639.234375 354.859375 633.261719 357.78125 632.59375 359.464844 C 631.621094 361.921875 635.433594 367.597656 633.382812 372.820312 C 630.550781 380.03125 624.679688 384.871094 617.632812 387.734375 C 609.996094 390.839844 602.410156 390.832031 594.816406 387.613281 C 595.648438 386.117188 596.535156 384.402344 597.015625 382.757812 C 597.210938 382.101562 597.253906 381.53125 596.875 380.945312 C 596.242188 379.960938 595.054688 379.226562 593.894531 379.039062 C 592.929688 378.882812 592.269531 379.101562 591.601562 379.835938 C 590.117188 381.457031 589.136719 383.714844 588 385.59375 C 585.054688 390.46875 581.195312 393.914062 576.59375 397.195312 C 574.742188 398.277344 572.820312 399.222656 570.832031 400.027344 C 560.457031 404.207031 545.726562 405.957031 535.175781 401.417969 C 531.222656 399.714844 526.128906 395.957031 523.921875 392.234375 C 522.859375 390.4375 522.257812 388.386719 521.46875 386.460938 C 520.464844 384.007812 518.839844 383.625 516.566406 382.679688 C 512.964844 381.179688 510 378.054688 508.59375 374.414062 C 505.597656 366.65625 508.730469 357.710938 511.796875 350.511719 C 517.261719 352.542969 522.273438 353.78125 528.121094 353.15625 C 536.984375 352.207031 543.710938 347.671875 549.242188 340.84375 C 552.011719 340.242188 554.835938 339.765625 557.488281 338.742188 C 564.046875 336.222656 569.972656 330.8125 572.753906 324.316406 C 576.242188 316.171875 574.671875 309.28125 571.5 301.363281 C 575.421875 297.867188 579.652344 294.078125 581.824219 289.179688 C 582.570312 287.5 582.875 285.605469 583.71875 283.976562 C 584.25 282.949219 584.679688 282.894531 585.753906 282.601562 Z M 585.753906 282.601562 " fill-opacity="1" fill-rule="nonzero"/><path fill="#ffffff" d="M 282.464844 278.042969 C 283.242188 277.972656 284.019531 277.933594 284.796875 277.917969 C 285.574219 277.902344 286.355469 277.914062 287.132812 277.953125 C 287.910156 277.996094 288.683594 278.0625 289.457031 278.152344 C 290.230469 278.246094 291 278.367188 291.765625 278.511719 C 292.53125 278.660156 293.289062 278.832031 294.042969 279.03125 C 294.796875 279.230469 295.539062 279.453125 296.277344 279.703125 C 297.015625 279.953125 297.746094 280.230469 298.464844 280.53125 C 299.179688 280.832031 299.886719 281.15625 300.585938 281.507812 C 300.539062 283.246094 300.441406 285.023438 300.566406 286.761719 C 301.085938 294.097656 305.746094 299.792969 311.058594 304.4375 L 310.859375 305.054688 C 310.667969 305.1875 310.472656 305.316406 310.289062 305.460938 C 308.433594 306.925781 307.835938 310.394531 307.582031 312.675781 C 306.808594 319.648438 309.578125 326.125 313.925781 331.453125 C 321.234375 340.410156 331.652344 342.761719 342.578125 343.894531 C 346.921875 351.023438 354.222656 355.6875 361.535156 359.28125 C 355.460938 370.449219 345.390625 381.585938 333.742188 387.027344 C 333.046875 387.355469 332.34375 387.667969 331.632812 387.960938 C 330.921875 388.25 330.207031 388.527344 329.484375 388.785156 C 328.757812 389.042969 328.03125 389.28125 327.292969 389.503906 C 326.558594 389.722656 325.816406 389.925781 325.074219 390.113281 C 324.328125 390.296875 323.578125 390.464844 322.824219 390.613281 C 322.070312 390.761719 321.3125 390.890625 320.554688 391 C 319.792969 391.113281 319.03125 391.203125 318.265625 391.277344 C 317.5 391.351562 316.734375 391.40625 315.96875 391.441406 C 315.203125 391.476562 314.433594 391.496094 313.664062 391.492188 C 312.898438 391.492188 312.128906 391.46875 311.363281 391.429688 C 310.597656 391.390625 309.832031 391.332031 309.066406 391.253906 C 308.304688 391.175781 307.539062 391.082031 306.78125 390.964844 C 306.023438 390.851562 305.265625 390.714844 304.511719 390.566406 C 303.761719 390.414062 303.011719 390.242188 302.265625 390.054688 C 301.523438 389.863281 300.78125 389.65625 300.046875 389.429688 C 299.3125 389.207031 298.585938 388.960938 297.863281 388.699219 C 292.433594 386.304688 287.644531 383.054688 283.074219 379.28125 C 281.121094 377.671875 279.132812 375.6875 277 374.351562 C 276.308594 373.917969 275.535156 373.792969 274.753906 374.101562 C 273.875 374.453125 273.753906 374.867188 273.484375 375.671875 C 273.859375 377.660156 275.46875 379.335938 276.660156 380.9375 C 275.148438 381.25 273.605469 381.425781 272.070312 381.558594 C 262.886719 382.363281 251.996094 380.792969 244.777344 374.582031 C 240.277344 370.710938 238.222656 365.722656 239.441406 359.898438 C 239.835938 358.003906 240.488281 356.101562 240.332031 354.148438 C 239.074219 351.632812 235.523438 350.574219 233.304688 348.980469 C 228.445312 345.480469 225.179688 338.832031 224.277344 333.035156 C 223.570312 328.511719 224.328125 324.167969 226.605469 320.191406 C 234.359375 306.640625 246.640625 311.765625 252.613281 306.773438 C 255.449219 304.410156 256.730469 299.382812 258.402344 296.113281 C 259.574219 293.824219 260.921875 291.648438 262.449219 289.585938 C 267.425781 282.929688 274.300781 279.203125 282.464844 278.042969 Z M 282.464844 278.042969 " fill-opacity="1" fill-rule="nonzero"/><path fill="#ffffff" d="M 200.445312 336.167969 C 206.671875 335.925781 214.375 337.074219 218.824219 341.867188 C 220.332031 343.488281 221.460938 345.539062 222.738281 347.347656 C 225.488281 351.246094 228.667969 354.414062 232.464844 357.285156 C 231.988281 359.699219 231.761719 362.042969 231.984375 364.496094 C 232.558594 370.902344 235.515625 376.179688 240.4375 380.269531 C 250.179688 388.359375 263.003906 389.609375 275.121094 388.464844 C 286.402344 396.171875 297.371094 405.347656 307.222656 414.796875 C 304.355469 420.644531 300.925781 426.195312 296.175781 430.707031 C 286.054688 440.320312 272.4375 443.460938 258.859375 443.054688 C 249.34375 441.953125 239.917969 438.433594 233.21875 431.347656 C 231.359375 429.382812 230.109375 426.894531 228.25 424.976562 C 227.359375 424.054688 226.527344 423.78125 225.265625 423.789062 C 222.808594 425.265625 223.695312 428.757812 222.667969 431.152344 C 222.113281 432.441406 221.339844 432.917969 220.074219 433.410156 C 214.886719 435.429688 208.664062 434.878906 203.664062 432.566406 C 199.046875 430.429688 196.148438 427.363281 194.371094 422.609375 C 194.980469 421.421875 196.027344 419.804688 196.089844 418.457031 C 196.09375 418.375 196.046875 417.683594 195.945312 417.546875 C 195.277344 416.625 187.636719 414.007812 186.03125 413.167969 C 184.820312 412.542969 183.652344 411.847656 182.527344 411.078125 C 181.402344 410.308594 180.332031 409.46875 179.308594 408.566406 C 175.566406 405.234375 172.5625 401.019531 172.398438 395.816406 C 172.136719 387.386719 178.285156 386.765625 182.171875 382.511719 C 182.925781 381.6875 183.121094 380.796875 182.777344 379.726562 C 182.308594 378.269531 180.890625 376.804688 179.953125 375.585938 C 176.367188 370.914062 173.457031 365.929688 173.042969 359.917969 C 172.691406 354.804688 174.175781 349.875 177.582031 345.992188 C 183.425781 339.332031 191.890625 336.769531 200.445312 336.167969 Z M 200.445312 336.167969 " fill-opacity="1" fill-rule="nonzero"/><path fill="#ffffff" d="M 504.511719 349.6875 C 504.820312 351.0625 502.636719 354.988281 502.171875 356.5625 C 500.425781 362.46875 499.535156 369.386719 501.371094 375.378906 C 503.699219 382.984375 509.4375 387.167969 516.128906 390.773438 C 517.003906 394.039062 517.246094 396.816406 516.394531 400.136719 C 514.796875 406.382812 510.824219 413.078125 507.179688 418.351562 C 490.074219 443.078125 478.261719 432.976562 457.570312 445.078125 C 453.65625 447.1875 450.382812 449.65625 447.171875 452.726562 C 448.867188 448.660156 449.9375 444.15625 451.34375 439.964844 C 454.3125 431.117188 457.4375 422.300781 460.171875 413.375 C 462.089844 407.101562 463.617188 400.421875 466.523438 394.527344 C 470.503906 386.4375 480.433594 377.976562 486.328125 370.703125 C 489.742188 366.492188 492.53125 361.464844 496.128906 357.492188 C 498.652344 354.703125 501.878906 352.453125 504.511719 349.6875 Z M 504.511719 349.6875 " fill-opacity="1" fill-rule="nonzero"/><path fill="#ffffff" d="M 419.90625 349.75 C 427.351562 357.074219 432.257812 360.746094 441.796875 365.101562 C 446 393.316406 438.085938 412.613281 422.339844 435.398438 C 420.804688 437.78125 419.019531 439.941406 417.160156 442.074219 C 413.746094 435.96875 411.074219 429.074219 410.042969 422.128906 C 409.210938 416.519531 409.5625 410.597656 409.78125 404.945312 C 410.390625 389.15625 411.566406 375.582031 406.601562 360.214844 C 411.859375 357.417969 415.851562 354.09375 419.90625 349.75 Z M 419.90625 349.75 " fill-opacity="1" fill-rule="nonzero"/><path fill="#ffffff" d="M 338.589844 392.839844 C 346.929688 399.390625 354.996094 407.011719 361.839844 415.125 C 375.222656 430.980469 384.777344 451.898438 383.03125 472.949219 C 379.152344 468.953125 374.480469 465.605469 370.417969 461.746094 C 359.578125 451.890625 350.089844 440.722656 341.015625 429.257812 C 332.421875 418.402344 324.675781 407.132812 313.785156 398.371094 C 322.550781 397.953125 330.527344 396.382812 338.589844 392.839844 Z M 338.589844 392.839844 " fill-opacity="1" fill-rule="nonzero"/><path fill="#ffffff" d="M 368.230469 362.230469 C 376.597656 364.507812 382.351562 365.191406 391.019531 364.773438 C 393.839844 380.234375 391.46875 396.335938 387.175781 411.257812 C 385.75 409.8125 384.308594 408.386719 382.851562 406.972656 C 378.847656 403.515625 375.101562 399.691406 371.175781 396.132812 C 365.628906 391.101562 359.851562 386.292969 354.113281 381.484375 C 359.316406 375.28125 364.339844 369.398438 368.230469 362.230469 Z M 368.230469 362.230469 " fill-opacity="1" fill-rule="nonzero"/><path fill="#ffffff" d="M 311.71875 421.464844 C 317.035156 427.019531 327 445.847656 330.765625 453.207031 C 326.003906 452.9375 321.296875 452.289062 316.59375 451.496094 C 308.261719 450.042969 300.78125 447.242188 295.085938 440.777344 C 302.75 435.746094 307.328125 429.3125 311.71875 421.464844 Z M 311.71875 421.464844 " fill-opacity="1" fill-rule="nonzero"/><path fill="#ffffff" d="M 530.503906 406.8125 C 534.09375 408.570312 537.871094 409.621094 541.785156 410.351562 C 538.816406 413.558594 535.15625 416.621094 531.59375 419.148438 C 529.152344 420.640625 526.75 422.140625 524.140625 423.335938 C 525.679688 417.550781 527.820312 412.15625 530.503906 406.8125 Z M 530.503906 406.8125 " fill-opacity="1" fill-rule="nonzero"/><path fill="#ffffff" d="M 460.050781 368.585938 C 461.300781 368.550781 462.53125 368.472656 463.769531 368.664062 L 464.027344 369.125 L 463.175781 370.171875 C 462.609375 370.851562 462.1875 371.550781 461.273438 371.730469 C 460.460938 370.914062 460.347656 369.695312 460.050781 368.585938 Z M 460.050781 368.585938 " fill-opacity="1" fill-rule="nonzero"/></svg>