<svg xmlns="http://www.w3.org/2000/svg" xmlns:xlink="http://www.w3.org/1999/xlink" width="1080" zoomAndPan="magnify" viewBox="0 0 810 809.999993" height="1080" preserveAspectRatio="xMidYMid meet" version="1.0"><defs><clipPath id="6364129d8d"><path d="M 108.210938 72.695312 L 701.460938 72.695312 L 701.460938 696.695312 L 108.210938 696.695312 Z M 108.210938 72.695312 " clip-rule="nonzero"/></clipPath></defs><g clip-path="url(#6364129d8d)"><path fill="#000000" d="M 701.453125 317.832031 C 701.453125 305.519531 695.917969 294.0625 686.464844 286.449219 C 687.511719 265.417969 681.707031 245.003906 669.9375 228.589844 C 662.472656 218.179688 652.84375 209.628906 641.273438 203.125 C 640.519531 184.75 627.453125 169.308594 609.71875 165.402344 C 602.6875 149.136719 591.917969 135.960938 577.667969 126.195312 C 564.058594 116.871094 548.066406 111.476562 531.144531 110.457031 C 525.046875 95.421875 510.332031 85.300781 493.753906 85.300781 C 488.210938 85.300781 482.730469 86.441406 477.695312 88.628906 C 472.9375 85.707031 467.9375 83.148438 462.78125 81.003906 C 439.816406 71.476562 418.773438 71.875 404.828125 74.027344 C 390.882812 71.875 369.839844 71.476562 346.871094 81.007812 C 341.714844 83.148438 336.714844 85.707031 331.957031 88.628906 C 326.921875 86.441406 321.445312 85.300781 315.898438 85.300781 C 299.324219 85.300781 284.605469 95.421875 278.507812 110.457031 C 261.585938 111.476562 245.59375 116.871094 231.984375 126.195312 C 217.738281 135.960938 206.96875 149.136719 199.933594 165.402344 C 182.199219 169.308594 169.132812 184.75 168.378906 203.121094 C 156.808594 209.628906 147.179688 218.183594 139.714844 228.589844 C 127.753906 245.285156 121.964844 266.035156 123.242188 287.410156 C 113.753906 295.019531 108.203125 306.484375 108.203125 318.828125 C 108.203125 329.730469 112.492188 339.921875 120.117188 347.449219 C 111.433594 376.730469 116.472656 406.886719 133.921875 428.902344 C 141.160156 438.027344 150.289062 445.394531 161.105469 450.84375 C 161.726562 472.566406 179.585938 490.046875 201.453125 490.046875 C 203.828125 490.046875 206.183594 489.835938 208.503906 489.425781 C 211.019531 493.269531 213.570312 496.453125 216.117188 498.933594 C 230.285156 512.691406 254.386719 515.050781 289.726562 506.125 C 297.066406 511.261719 305.0625 515.050781 313.539062 517.398438 C 325.148438 520.613281 337.59375 520.996094 349.898438 518.582031 C 356.621094 546.890625 347.28125 575.425781 343.105469 586.050781 C 319.570312 586.429688 296.636719 590.824219 274.964844 599.164062 C 274.152344 599.476562 193.460938 630.902344 198.082031 660.433594 C 200.820312 677.941406 227.523438 695.933594 404.859375 696.625 C 582.132812 695.933594 608.832031 677.941406 611.570312 660.433594 C 616.195312 630.902344 535.503906 599.476562 534.6875 599.164062 C 513.019531 590.820312 490.082031 586.398438 466.542969 586.042969 C 462.367188 575.410156 453.03125 546.886719 459.753906 518.582031 C 465.035156 519.617188 470.34375 520.148438 475.601562 520.148438 C 482.589844 520.148438 489.488281 519.230469 496.113281 517.398438 C 504.589844 515.050781 512.585938 511.261719 519.925781 506.125 C 555.269531 515.046875 579.367188 512.691406 593.527344 498.9375 C 595.382812 497.140625 597.195312 495.015625 599.058594 492.453125 C 599.753906 491.5 600.449219 490.496094 601.148438 489.425781 C 603.46875 489.835938 605.828125 490.046875 608.203125 490.046875 C 630.066406 490.046875 647.929688 472.566406 648.550781 450.84375 C 659.367188 445.390625 668.496094 438.027344 675.730469 428.902344 C 693.335938 406.691406 698.308594 376.199219 689.304688 346.675781 C 697.074219 339.128906 701.453125 328.839844 701.453125 317.832031 Z M 529.816406 611.820312 C 541.363281 616.265625 560.339844 625.050781 575.816406 635.179688 C 593.210938 646.570312 598.734375 654.773438 598.175781 658.335938 C 597.960938 659.714844 595.253906 666.917969 563.148438 673.140625 C 530.617188 679.441406 477.339844 682.78125 404.847656 683.0625 C 332.3125 682.78125 279.039062 679.441406 246.503906 673.140625 C 214.398438 666.917969 211.695312 659.714844 211.476562 658.335938 C 210.921875 654.773438 216.441406 646.570312 233.839844 635.179688 C 249.3125 625.050781 268.289062 616.265625 279.835938 611.820312 C 297.898438 604.867188 316.90625 600.863281 336.4375 599.851562 C 332.984375 605.972656 329.53125 610.96875 326.570312 615.234375 C 320.414062 624.09375 315.097656 631.742188 320 639.605469 C 324.097656 646.1875 331.226562 645.636719 338.121094 645.101562 C 344.742188 644.59375 353.8125 643.890625 366.089844 647.359375 C 372.980469 649.304688 377.796875 651.328125 382.050781 653.113281 C 388.992188 656.027344 394.988281 658.542969 404.828125 658.382812 C 405.136719 658.386719 405.441406 658.390625 405.742188 658.390625 C 415.039062 658.390625 420.878906 655.9375 427.605469 653.113281 C 431.855469 651.328125 436.671875 649.304688 443.570312 647.359375 C 455.839844 643.890625 464.910156 644.589844 471.535156 645.101562 C 478.429688 645.636719 485.554688 646.183594 489.652344 639.609375 C 494.554688 631.742188 489.238281 624.09375 483.085938 615.230469 C 480.121094 610.96875 476.671875 605.976562 473.21875 599.855469 C 492.75 600.871094 511.753906 604.867188 529.816406 611.820312 Z M 459.933594 485.902344 C 453.933594 493.164062 451.445312 500.09375 449.449219 505.65625 C 435.097656 545.570312 451.988281 587.019531 455.765625 595.414062 C 455.789062 595.46875 455.8125 595.519531 455.835938 595.574219 C 455.839844 595.585938 455.847656 595.597656 455.851562 595.609375 C 461.335938 607.703125 467.46875 616.527344 471.949219 622.972656 C 474.085938 626.050781 476.648438 629.738281 477.601562 631.859375 C 476.242188 631.894531 474.269531 631.710938 472.578125 631.582031 C 465.367188 631.023438 454.476562 630.183594 439.886719 634.308594 C 432.191406 636.476562 426.738281 638.769531 422.351562 640.609375 C 415.898438 643.320312 412.015625 644.957031 404.957031 644.820312 C 404.871094 644.816406 404.785156 644.816406 404.695312 644.820312 C 397.632812 644.953125 393.753906 643.320312 387.300781 640.609375 C 382.914062 638.769531 377.460938 636.476562 369.769531 634.308594 C 355.171875 630.183594 344.28125 631.023438 337.074219 631.582031 C 335.386719 631.710938 333.414062 631.882812 332.054688 631.859375 C 333.003906 629.738281 335.566406 626.050781 337.703125 622.972656 C 342.183594 616.527344 348.316406 607.703125 353.804688 595.601562 C 353.820312 595.570312 353.839844 595.523438 353.855469 595.488281 C 353.859375 595.480469 353.863281 595.472656 353.867188 595.464844 C 357.496094 587.402344 373.726562 547.710938 361.210938 508.667969 C 361.210938 508.664062 361.210938 508.664062 361.210938 508.664062 C 361.207031 508.65625 361.207031 508.652344 361.203125 508.648438 C 360.886719 507.652344 360.5625 506.65625 360.203125 505.664062 C 358.207031 500.09375 355.71875 493.167969 349.71875 485.902344 C 341.824219 476.347656 333.300781 472.71875 325.785156 469.519531 C 320.421875 467.238281 315.789062 465.265625 311.691406 461.363281 C 306.496094 456.417969 303.140625 449.089844 301.660156 439.535156 C 301.820312 439.535156 301.972656 439.542969 302.132812 439.542969 C 308.773438 439.542969 316.070312 438.648438 323.691406 436.25 C 325.234375 435.765625 326.726562 435.226562 328.183594 434.660156 C 330.371094 438.492188 332.832031 442.148438 335.589844 445.542969 C 347.769531 460.582031 362.644531 468.027344 372.980469 471.628906 C 373.703125 471.882812 374.457031 472.003906 375.210938 472.003906 C 376.320312 472.003906 377.429688 471.730469 378.429688 471.191406 C 380.101562 470.289062 381.320312 468.722656 381.785156 466.878906 C 383.9375 458.3125 385.402344 449.539062 386.140625 440.804688 C 387.003906 430.515625 386.894531 420.140625 385.820312 409.851562 C 392.4375 410.019531 399.171875 407.890625 404.828125 403.746094 C 410.480469 407.890625 417.214844 410.019531 423.832031 409.847656 C 422.757812 420.140625 422.648438 430.515625 423.515625 440.804688 C 424.25 449.535156 425.714844 458.308594 427.867188 466.878906 C 428.332031 468.722656 429.550781 470.289062 431.222656 471.191406 C 432.222656 471.730469 433.332031 472.003906 434.441406 472.003906 C 435.195312 472.003906 435.949219 471.882812 436.671875 471.628906 C 447.007812 468.027344 461.882812 460.578125 474.058594 445.550781 C 476.820312 442.152344 479.28125 438.492188 481.46875 434.660156 C 482.925781 435.226562 484.417969 435.765625 485.964844 436.25 C 493.582031 438.648438 500.878906 439.542969 507.523438 439.542969 C 507.679688 439.542969 507.835938 439.535156 507.992188 439.535156 C 506.511719 449.089844 503.15625 456.417969 497.960938 461.363281 C 493.863281 465.265625 489.230469 467.238281 483.867188 469.519531 C 476.351562 472.722656 467.828125 476.347656 459.933594 485.902344 Z M 340.292969 428.515625 C 353.042969 420.421875 361.308594 409.480469 366.28125 400.832031 C 367.738281 402.476562 369.515625 404.035156 371.597656 405.410156 C 373.230469 416.765625 373.585938 428.269531 372.625 439.667969 C 372.167969 445.089844 371.40625 450.53125 370.347656 455.917969 C 362.699219 452.300781 353.761719 446.433594 346.121094 436.996094 C 343.964844 434.34375 342.03125 431.492188 340.292969 428.515625 Z M 438.054688 405.414062 C 440.136719 404.035156 441.914062 402.476562 443.371094 400.832031 C 448.347656 409.480469 456.613281 420.421875 469.359375 428.515625 C 467.621094 431.496094 465.6875 434.347656 463.527344 437.003906 C 455.890625 446.433594 446.953125 452.300781 439.304688 455.917969 C 438.246094 450.527344 437.484375 445.089844 437.027344 439.667969 C 436.066406 428.273438 436.421875 416.765625 438.054688 405.414062 Z M 675.320312 347.507812 C 684.355469 373.734375 680.535156 401.011719 665.105469 420.476562 C 658.335938 429.007812 649.519531 435.71875 638.890625 440.414062 C 636.207031 441.597656 634.59375 444.375 634.886719 447.296875 C 634.96875 448.09375 635.003906 448.871094 635.003906 449.675781 C 635.003906 464.457031 622.980469 476.484375 608.203125 476.484375 C 605.414062 476.484375 602.667969 476.054688 600.039062 475.207031 C 597.011719 474.230469 593.699219 475.5 592.097656 478.257812 C 590.703125 480.664062 589.398438 482.6875 588.097656 484.460938 C 586.710938 486.375 585.363281 487.96875 584.085938 489.203125 C 573.363281 499.617188 551.890625 500.625 520.265625 492.199219 C 518.234375 491.664062 516.074219 492.089844 514.40625 493.363281 C 507.722656 498.460938 500.351562 502.152344 492.492188 504.328125 C 481.800781 507.285156 471.828125 506.925781 463.96875 505.574219 C 465.417969 501.992188 467.265625 498.320312 470.386719 494.542969 C 476.179688 487.53125 482.492188 484.84375 489.179688 482 C 495.203125 479.433594 501.433594 476.78125 507.308594 471.183594 C 515.386719 463.496094 520.257812 452.40625 521.84375 438.175781 C 527.054688 437.183594 531.421875 435.8125 534.632812 434.609375 C 538.140625 433.292969 539.914062 429.382812 538.597656 425.878906 C 537.28125 422.371094 533.367188 420.59375 529.867188 421.910156 C 522.324219 424.742188 507.117188 428.691406 490.03125 423.316406 C 462.300781 414.589844 451.9375 388.578125 450.140625 383.449219 C 449.140625 380.597656 446.351562 378.742188 443.359375 378.921875 C 440.34375 379.09375 437.804688 381.238281 437.132812 384.1875 C 436.949219 384.988281 435.164062 392.125 428.949219 395.046875 C 422.867188 397.902344 415.027344 395.894531 409.882812 390.148438 C 409.777344 390.03125 409.652344 389.945312 409.542969 389.839844 C 409.472656 389.769531 409.417969 389.6875 409.34375 389.621094 C 409.285156 389.566406 409.210938 389.53125 409.148438 389.480469 C 408.929688 389.296875 408.703125 389.136719 408.46875 388.984375 C 408.320312 388.890625 408.171875 388.796875 408.019531 388.714844 C 407.789062 388.59375 407.554688 388.488281 407.3125 388.390625 C 407.136719 388.320312 406.960938 388.257812 406.78125 388.203125 C 406.550781 388.132812 406.320312 388.082031 406.082031 388.035156 C 405.886719 388 405.691406 387.964844 405.488281 387.945312 C 405.265625 387.925781 405.042969 387.917969 404.816406 387.917969 C 404.601562 387.917969 404.394531 387.925781 404.179688 387.945312 C 403.96875 387.964844 403.757812 388 403.546875 388.042969 C 403.324219 388.082031 403.105469 388.132812 402.886719 388.199219 C 402.695312 388.253906 402.511719 388.324219 402.328125 388.398438 C 402.09375 388.492188 401.867188 388.59375 401.644531 388.710938 C 401.484375 388.796875 401.332031 388.890625 401.175781 388.988281 C 400.945312 389.140625 400.722656 389.300781 400.503906 389.480469 C 400.441406 389.53125 400.371094 389.566406 400.308594 389.625 C 400.234375 389.6875 400.183594 389.769531 400.113281 389.839844 C 400 389.945312 399.875 390.03125 399.769531 390.148438 C 394.625 395.894531 386.785156 397.910156 380.703125 395.046875 C 374.488281 392.125 372.703125 384.992188 372.519531 384.1875 C 371.851562 381.238281 369.308594 379.09375 366.292969 378.921875 C 363.261719 378.746094 360.507812 380.597656 359.511719 383.449219 C 357.714844 388.578125 347.355469 414.589844 319.621094 423.316406 C 302.535156 428.6875 287.328125 424.742188 279.785156 421.910156 C 276.273438 420.597656 272.371094 422.371094 271.054688 425.878906 C 269.738281 429.382812 271.511719 433.292969 275.019531 434.609375 C 278.234375 435.816406 282.597656 437.183594 287.808594 438.175781 C 289.394531 452.40625 294.265625 463.496094 302.339844 471.183594 C 308.21875 476.78125 314.449219 479.433594 320.476562 482 C 327.160156 484.84375 333.472656 487.53125 339.265625 494.542969 C 342.390625 498.320312 344.234375 501.992188 345.6875 505.578125 C 337.828125 506.929688 327.855469 507.285156 317.160156 504.328125 C 309.300781 502.152344 301.929688 498.460938 295.246094 493.363281 C 293.578125 492.089844 291.417969 491.664062 289.390625 492.199219 C 257.761719 500.625 236.289062 499.617188 225.570312 489.207031 C 223.042969 486.75 220.277344 482.96875 217.5625 478.269531 C 215.964844 475.507812 212.65625 474.226562 209.617188 475.207031 C 206.984375 476.054688 204.238281 476.484375 201.453125 476.484375 C 186.671875 476.484375 174.648438 464.457031 174.648438 449.675781 C 174.648438 448.867188 174.6875 448.089844 174.765625 447.300781 C 175.0625 444.378906 173.445312 441.601562 170.761719 440.414062 C 160.136719 435.71875 151.316406 429.007812 144.546875 420.476562 C 129.117188 401.011719 125.300781 373.734375 134.332031 347.507812 C 134.578125 346.800781 134.703125 346.039062 134.703125 345.289062 C 134.703125 343.195312 133.734375 341.21875 132.082031 339.933594 C 125.523438 334.835938 121.761719 327.144531 121.761719 318.828125 C 121.761719 309.707031 126.332031 301.308594 133.980469 296.363281 C 136.117188 294.984375 137.300781 292.523438 137.046875 289.992188 C 135.101562 270.527344 139.964844 251.527344 150.734375 236.492188 C 157.714844 226.765625 166.980469 218.929688 178.277344 213.207031 C 180.738281 211.960938 182.199219 209.347656 181.96875 206.597656 C 181.925781 206.066406 181.902344 205.460938 181.902344 204.800781 C 181.902344 191.195312 192.074219 179.753906 205.558594 178.191406 C 208.058594 177.90625 210.191406 176.257812 211.101562 173.910156 C 217.054688 158.574219 226.660156 146.285156 239.648438 137.382812 C 252.507812 128.570312 267.265625 124.019531 283.511719 123.847656 C 286.566406 123.816406 289.21875 121.746094 289.996094 118.792969 C 293.089844 107.058594 303.738281 98.863281 315.898438 98.863281 C 320.523438 98.863281 325.066406 100.054688 329.039062 102.304688 C 331.269531 103.570312 334.019531 103.46875 336.148438 102.046875 C 341.152344 98.707031 346.511719 95.84375 352.070312 93.53125 C 372.691406 84.976562 391.542969 85.574219 403.722656 87.582031 C 404.453125 87.703125 405.199219 87.703125 405.929688 87.582031 C 418.109375 85.574219 436.960938 84.976562 457.582031 93.53125 C 463.144531 95.84375 468.5 98.707031 473.503906 102.046875 C 475.636719 103.472656 478.382812 103.570312 480.613281 102.308594 C 484.585938 100.054688 489.128906 98.863281 493.753906 98.863281 C 505.914062 98.863281 516.566406 107.058594 519.65625 118.792969 C 520.433594 121.746094 523.089844 123.816406 526.140625 123.847656 C 542.386719 124.019531 557.144531 128.570312 570.003906 137.382812 C 582.996094 146.285156 592.601562 158.574219 598.554688 173.910156 C 599.464844 176.253906 601.597656 177.90625 604.09375 178.191406 C 617.578125 179.753906 627.75 191.195312 627.75 204.800781 C 627.75 205.46875 627.726562 206.070312 627.683594 206.585938 C 627.449219 209.339844 628.910156 211.957031 631.375 213.207031 C 642.671875 218.929688 651.9375 226.761719 658.917969 236.492188 C 669.308594 250.984375 674.210938 269.234375 672.78125 287.992188 C 672.644531 288.53125 672.570312 289.09375 672.570312 289.667969 L 672.570312 290.667969 C 672.570312 294.082031 675.097656 296.921875 678.40625 297.382812 C 684.398438 302.433594 687.890625 309.863281 687.890625 317.832031 C 687.890625 326.144531 684.128906 333.835938 677.570312 338.9375 C 675.917969 340.21875 674.953125 342.195312 674.953125 344.289062 L 674.953125 345.300781 C 674.953125 346.050781 675.074219 346.796875 675.320312 347.507812 Z M 675.320312 347.507812 " fill-opacity="1" fill-rule="nonzero"/></g><path fill="#000000" d="M 438.574219 497.175781 C 438.613281 496.996094 438.550781 496.824219 438.371094 496.746094 C 438.195312 496.679688 438.003906 496.769531 437.9375 496.941406 C 436.101562 501.78125 434.515625 506.71875 433.222656 511.738281 C 425.453125 541.925781 428.746094 574.785156 442.941406 602.589844 C 445.304688 607.203125 447.929688 611.679688 450.796875 615.992188 C 450.878906 616.117188 451.042969 616.175781 451.191406 616.121094 C 451.398438 616.054688 451.457031 615.796875 451.367188 615.621094 C 435.308594 574.152344 432.238281 541.089844 438.574219 497.175781 Z M 438.574219 497.175781 " fill-opacity="1" fill-rule="nonzero"/><path fill="#000000" d="M 368.296875 496.75 C 368.121094 496.808594 368.03125 497 368.09375 497.175781 C 371.535156 506.886719 373.933594 516.953125 375.253906 527.152344 C 377.820312 547.550781 375.65625 568.535156 368.816406 587.933594 C 365.347656 597.613281 360.816406 606.917969 355.300781 615.621094 C 355.222656 615.75 355.234375 615.917969 355.34375 616.03125 C 355.492188 616.199219 355.742188 616.144531 355.871094 615.992188 C 386.296875 585.710938 391.636719 533.082031 368.730469 496.941406 C 368.648438 496.777344 368.476562 496.695312 368.296875 496.75 Z M 368.296875 496.75 " fill-opacity="1" fill-rule="nonzero"/></svg>