<svg xmlns="http://www.w3.org/2000/svg" xmlns:xlink="http://www.w3.org/1999/xlink" width="1080" zoomAndPan="magnify" viewBox="0 0 810 809.999993" height="1080" preserveAspectRatio="xMidYMid meet" version="1.0"><path fill="#000000" d="M 667.90625 357.351562 C 659.003906 357.71875 650.164062 356.941406 641.378906 355.78125 C 637.703125 355.300781 636.042969 357.402344 634.363281 359.777344 C 628.453125 368.160156 623.128906 376.898438 618.222656 385.90625 C 607.847656 404.972656 596.714844 423.550781 583.523438 440.824219 C 581.945312 442.882812 581.546875 444.347656 583.257812 446.601562 C 606.617188 477.453125 604.3125 509.964844 589.226562 543.203125 C 587.394531 547.230469 585.183594 551.101562 582.96875 554.945312 C 581.464844 557.558594 581.609375 558.652344 585.007812 559.113281 C 589.546875 559.730469 594.042969 560.867188 598.464844 562.085938 C 602.929688 563.316406 607.027344 565.46875 610.796875 568.191406 C 619.390625 574.402344 620.015625 581.859375 610.992188 587.394531 C 599.992188 594.144531 588.03125 599.441406 574.714844 600.097656 C 572.484375 600.210938 570.382812 600.335938 568.230469 601.125 C 546.273438 609.226562 521.980469 602.867188 506.976562 585.027344 C 499.59375 576.257812 495.78125 566.03125 495.117188 554.574219 C 494.347656 541.359375 495.886719 528.355469 498.394531 515.414062 C 498.640625 514.15625 499.816406 512.648438 498.484375 511.605469 C 497.207031 510.589844 495.90625 511.910156 494.757812 512.464844 C 477.625 520.660156 460.089844 528.183594 441.226562 530.742188 C 429.394531 532.351562 420.9375 536.582031 413.378906 546.277344 C 400.953125 562.210938 384.015625 573.132812 365.867188 581.972656 C 359.96875 584.84375 359.863281 585.691406 365.28125 589.597656 C 372.617188 594.882812 380.429688 599.503906 386.769531 606.082031 C 390.007812 609.433594 392.71875 613.113281 394.257812 617.570312 C 397.15625 626.011719 393.980469 633.203125 385.234375 634.792969 C 376.898438 636.296875 368.988281 638.101562 361.296875 641.953125 C 355.625 644.800781 348.945312 643.960938 342.792969 641.820312 C 340.785156 641.125 339.054688 640.671875 337.085938 642.242188 C 329.210938 648.542969 320.261719 648.613281 311.371094 645.425781 C 289.277344 637.496094 277.316406 620.589844 272.074219 598.582031 C 269.339844 587.128906 270.15625 575.539062 273.824219 564.21875 C 274.429688 562.351562 276.28125 559.945312 274.847656 558.519531 C 273.21875 556.902344 270.699219 558.703125 268.640625 559.289062 C 255.921875 562.863281 243.015625 565.007812 229.742188 564.351562 C 227.878906 564.257812 226.003906 564.0625 224.152344 563.808594 C 207.703125 561.511719 203.042969 551.675781 203.679688 536.738281 C 203.851562 532.503906 204.671875 528.265625 205.550781 524.09375 C 206.148438 521.246094 205.738281 519.738281 202.601562 518.917969 C 195.351562 517.015625 188.191406 514.769531 181.011719 512.578125 C 178.65625 511.859375 176.761719 512.238281 174.917969 513.929688 C 160.417969 527.238281 148.535156 542.476562 140.355469 560.46875 C 139.515625 562.320312 139.023438 564.339844 138.316406 566.257812 C 136.996094 569.851562 137.957031 571.808594 141.921875 572.863281 C 148.351562 574.574219 154.527344 577.105469 160.128906 580.828125 C 163.429688 583.019531 166.417969 585.570312 168.558594 588.929688 C 172.164062 594.578125 170.535156 599.699219 164.003906 601.0625 C 156.117188 602.703125 148.996094 606.429688 140.496094 606.984375 C 133.390625 607.445312 126.28125 610.910156 118.609375 610.632812 C 102.980469 610.070312 89.308594 604.660156 77.511719 594.535156 C 68.40625 586.726562 64.421875 576.441406 64.054688 564.636719 C 63.378906 543.203125 69.71875 523.210938 76.867188 503.425781 C 81.453125 490.742188 86.554688 478.253906 93.078125 466.417969 C 95.066406 462.8125 94.5625 460.804688 91.0625 458.570312 C 80.082031 451.582031 69.878906 443.582031 61.574219 433.4375 C 59.855469 431.324219 58.226562 429.101562 56.84375 426.765625 C 54.199219 422.308594 55.121094 420.617188 60.222656 420.292969 C 70.609375 419.636719 81.011719 419.585938 91.386719 418.539062 C 96.855469 417.984375 99.980469 416.429688 102.386719 410.496094 C 135.785156 327.953125 193.066406 269.121094 276.691406 237.101562 C 305.859375 225.933594 336.011719 219.160156 367.453125 218.667969 C 412.597656 217.960938 453.902344 230.707031 492.390625 253.640625 C 496.203125 255.902344 499.867188 258.425781 503.65625 260.730469 C 505.0625 261.578125 506.414062 263.507812 508.082031 262.695312 C 509.957031 261.792969 508.789062 259.632812 508.777344 258.023438 C 508.574219 238.003906 511.042969 218.515625 520.34375 200.421875 C 531.945312 177.859375 550.421875 162.765625 573.097656 152.429688 C 596.695312 141.648438 621.5625 136.230469 647.542969 136.855469 C 664.136719 137.253906 679.988281 141.066406 694.421875 149.652344 C 700.597656 153.332031 707.128906 156.25 713.519531 159.488281 C 730.175781 167.953125 738.5625 181.84375 740.488281 200.207031 C 741.769531 212.386719 741.113281 224.398438 738.632812 236.324219 C 738.101562 238.882812 738.960938 240.523438 740.804688 242.101562 C 753.199219 252.675781 755.480469 266.640625 753.390625 281.691406 C 752.144531 290.648438 746.292969 297.070312 739.25 302.257812 C 736.800781 304.058594 736.105469 305.484375 737.324219 308.527344 C 739.738281 314.582031 738.652344 320.660156 735.664062 326.292969 C 726.925781 342.738281 712.40625 351.210938 694.902344 355.257812 C 686.054688 357.308594 677.007812 357.738281 667.933594 357.351562 Z M 725.78125 242.429688 C 708.644531 233.617188 687.25 202.480469 684.558594 183.085938 C 683.257812 173.699219 683.890625 165.011719 690.742188 157.765625 C 692.851562 155.53125 691.410156 154.550781 689.554688 153.605469 C 682.40625 149.980469 675.339844 146.035156 667.433594 144.34375 C 627.519531 135.800781 590.792969 143.761719 557.582031 167 C 536.554688 181.703125 523.054688 201.925781 519.441406 227.6875 C 515.734375 254.019531 518.929688 279.765625 528.351562 304.652344 C 532.703125 316.160156 539.238281 326.273438 548.785156 334.234375 C 562.351562 345.566406 578.382812 350.042969 595.660156 350.824219 C 603.660156 351.179688 611.769531 350.421875 619.6875 351.386719 C 641.828125 354.101562 663.898438 354.769531 685.917969 350.773438 C 702.070312 347.839844 716.746094 341.898438 727.171875 328.324219 C 730.695312 323.730469 732.695312 318.515625 732.703125 312.6875 C 732.703125 309.683594 731.699219 308.230469 728.269531 309.726562 C 724.140625 311.527344 720.9375 313.671875 718.355469 317.832031 C 708.757812 333.3125 693.304688 338.28125 676.25 338.792969 C 656.207031 339.398438 638.511719 332.144531 622.605469 320.339844 C 618.671875 317.429688 614.933594 315.21875 609.710938 315.15625 C 604.109375 315.09375 598.988281 312.503906 595.445312 308.066406 C 592.554688 304.460938 590.386719 304.921875 587.761719 307.972656 C 587.128906 308.710938 586.289062 309.273438 584.835938 310.535156 C 585.613281 306.507812 587.476562 304.152344 589.390625 301.796875 C 591.5 299.203125 593.394531 298.527344 595.996094 301.457031 C 600.71875 306.785156 607.109375 308.363281 613.941406 308.894531 C 619.542969 309.328125 624.890625 307.941406 630.851562 306.46875 C 628.25 310.84375 623.9375 311.753906 620.546875 314.367188 C 621.589844 315.25 622.289062 315.988281 623.117188 316.507812 C 636.460938 324.847656 650.800781 330.6875 666.523438 332.164062 C 681.371094 333.558594 695.957031 332.667969 708.390625 322.820312 C 710.539062 321.121094 712.949219 319.511719 714.371094 315.875 C 701.9375 318.949219 690.210938 320.660156 678.300781 318.546875 C 681.320312 317.863281 684.351562 317.453125 687.382812 317.050781 C 705.613281 314.632812 722.65625 309.253906 737.035156 297.207031 C 741.472656 293.484375 745.300781 289.050781 745.90625 283.25 C 747.851562 264.5625 742.585938 248.496094 727.253906 236.640625 C 725.761719 235.484375 724.214844 233.863281 721.835938 234.664062 C 721.910156 237.984375 725.03125 239.550781 725.78125 242.429688 Z M 227.714844 451.367188 C 246.878906 451.019531 262.3125 449.65625 277.777344 448.375 C 315.085938 445.292969 349.398438 432.289062 383.289062 417.605469 C 386 416.429688 386.421875 414.964844 385.292969 412.472656 C 383.175781 407.800781 381.742188 402.894531 380.472656 397.933594 C 373.691406 371.355469 368.039062 344.492188 359.210938 318.445312 C 357.632812 313.792969 355.144531 310.882812 350.75 309.027344 C 339.738281 304.386719 328.15625 302.605469 316.378906 302.125 C 298.445312 301.375 280.675781 304.191406 262.824219 305.207031 C 260.53125 305.339844 259.128906 306.539062 257.886719 308.332031 C 253.996094 313.957031 249.285156 318.90625 244.871094 324.113281 C 237.710938 332.574219 230.429688 341.097656 226.785156 351.796875 C 219.582031 372.945312 212.3125 394.050781 204.355469 414.933594 C 200.933594 423.917969 199.265625 433.324219 198.988281 442.945312 C 198.804688 449.296875 199.664062 450.148438 205.796875 450.269531 C 214.320312 450.433594 222.800781 451.746094 227.707031 451.378906 Z M 518.171875 382.65625 C 515.179688 382.894531 513.859375 384.347656 512.382812 385.382812 C 487.679688 402.738281 463.082031 420.261719 438.234375 437.421875 C 433.902344 440.414062 432.753906 442.894531 434.996094 447.792969 C 441.46875 461.910156 441.972656 476.789062 439.648438 491.910156 C 438.164062 501.582031 435.417969 510.886719 431.167969 519.699219 C 429.671875 522.8125 430.417969 523.785156 433.71875 523.128906 C 434.546875 522.96875 435.429688 523.039062 436.269531 522.886719 C 473.023438 516.359375 506.730469 502.800781 535.644531 478.753906 C 562.488281 456.429688 582.683594 428.570312 600.535156 398.875 C 608.429688 385.730469 614.902344 371.703125 625.011719 359.941406 C 625.851562 358.957031 627.5 358.015625 626.855469 356.582031 C 626.097656 354.878906 624.132812 355.484375 622.726562 355.609375 C 611.65625 356.621094 600.566406 356.714844 589.492188 356.285156 C 571.804688 355.609375 554.855469 352.289062 540.90625 340.300781 C 537.476562 337.347656 536.351562 338.109375 535.40625 342.132812 C 532.160156 355.925781 527.429688 369.296875 523.105469 382.769531 C 520.945312 389.511719 518.703125 396.253906 514.738281 402.421875 C 515.855469 396.007812 516.960938 389.59375 518.171875 382.648438 Z M 322.421875 604.144531 C 331.566406 610.285156 338.890625 618.253906 340.507812 629.402344 C 341.359375 635.261719 344.132812 636.410156 348.679688 636.65625 C 352.246094 636.851562 355.851562 637.136719 359.371094 636.214844 C 366.511719 634.339844 369.011719 630.601562 366.398438 623.757812 C 360.570312 608.460938 351.28125 596.503906 333.921875 592.660156 C 339.195312 588.019531 347.207031 589.167969 353.167969 585.109375 C 351.621094 583.757812 350.492188 584.914062 349.367188 584.792969 C 348.179688 584.667969 346.847656 585.203125 345.484375 584.042969 C 347.144531 583.4375 348.414062 582.976562 349.675781 582.507812 C 383.132812 569.832031 408.777344 548.203125 424.765625 515.925781 C 433.914062 497.484375 438.234375 478.027344 433.667969 457.414062 C 431.554688 447.894531 430.828125 447.667969 421.644531 450.3125 C 376.4375 463.3125 339.195312 488.898438 307.128906 522.699219 C 297.050781 533.324219 288.839844 545.230469 282.910156 558.601562 C 270.875 585.734375 278.574219 616.371094 301.515625 633.46875 C 308.890625 638.972656 317.023438 642.046875 326.375 640.808594 C 332.878906 639.945312 335.316406 636.851562 334.527344 630.386719 C 333.308594 620.375 327.992188 612.269531 322.410156 604.136719 Z M 439.75 275.023438 C 434.886719 275.023438 430.253906 276.261719 425.863281 278.148438 C 411.914062 284.132812 398.046875 290.289062 384.136719 296.375 C 377.101562 299.460938 370.148438 302.644531 363.746094 306.992188 C 360.429688 309.234375 359.484375 311.34375 360.96875 315.421875 C 366.480469 330.484375 370.699219 345.957031 374.652344 361.488281 C 378.648438 377.175781 381.546875 393.160156 387.621094 408.261719 C 390.078125 414.378906 390.210938 414.441406 396.039062 411.644531 C 423.710938 398.394531 449.347656 381.898438 473.402344 362.902344 C 484.425781 354.203125 494.746094 344.808594 502.941406 333.269531 C 507.324219 327.101562 507.335938 327.207031 501.734375 322.511719 C 496.242188 317.914062 490.734375 313.3125 485.457031 308.464844 C 476.539062 300.269531 467.964844 291.691406 458.933594 283.617188 C 453.546875 278.8125 447.402344 275.03125 439.738281 275.011719 Z M 572.757812 564.085938 C 574.222656 562.804688 575.390625 561.972656 575.863281 560.363281 C 578.738281 550.519531 582.777344 541.09375 586.800781 531.695312 C 598.539062 504.277344 594.859375 478.457031 579.425781 453.632812 C 577.410156 450.394531 576.128906 450.085938 573.566406 453.046875 C 555.984375 473.394531 535.273438 489.953125 511.800781 503.019531 C 508.800781 504.6875 507.488281 506.960938 506.882812 510.21875 C 505.03125 520.304688 503.535156 530.425781 503.144531 540.660156 C 502.03125 570.28125 515.230469 591.523438 545.445312 598.296875 C 551.488281 599.648438 557.601562 599.976562 563.707031 598.574219 C 570.464844 597.023438 572.082031 593.777344 569.277344 587.375 C 567.484375 583.265625 564.09375 580.527344 560.613281 577.875 C 570.046875 580.886719 571.992188 582.988281 574.703125 592.660156 C 574.980469 593.652344 575.105469 594.882812 576.273438 595.066406 C 579.253906 595.539062 582.039062 594.710938 584.535156 593.121094 C 586.800781 591.6875 587.476562 589.496094 586.914062 586.882812 C 585.398438 579.8125 581.269531 575.039062 574.570312 572.351562 C 571.121094 570.960938 567.453125 570.519531 563.367188 569.957031 C 573.054688 564.257812 590.058594 573.511719 591.847656 584.769531 C 592.105469 586.371094 590.824219 589.136719 593.601562 589.308594 C 595.761719 589.441406 597.082031 587.28125 597.921875 585.394531 C 599.777344 581.234375 598.824219 577.351562 596.183594 573.878906 C 593.304688 570.097656 589.464844 567.527344 584.875 566.378906 C 581.097656 565.4375 577.203125 564.902344 572.71875 564.074219 Z M 251.464844 257.492188 C 255.960938 256.855469 260.53125 255.351562 264.925781 255.75 C 276.261719 256.773438 285.828125 253.78125 294.429688 246.25 C 298.320312 242.851562 303.144531 240.308594 308.398438 239.101562 C 301.035156 244.121094 294.113281 249.664062 286.933594 254.835938 C 283.070312 257.625 280.234375 261.015625 278.011719 265.15625 C 272.503906 275.402344 268.097656 286.109375 264.085938 297 C 262.660156 300.875 263.890625 301.960938 267.605469 301.632812 C 277.625 300.738281 287.640625 299.859375 297.65625 299.058594 C 313.949219 297.757812 330.398438 298.167969 345.527344 304.285156 C 354.539062 307.933594 360.019531 306.867188 367.894531 301.476562 C 384.054688 290.421875 402.304688 282.789062 420.015625 274.355469 C 423.179688 272.851562 429.078125 274.4375 429.109375 269.449219 C 429.128906 265.882812 425.566406 262.636719 422.859375 259.746094 C 422.511719 259.375 422.164062 258.996094 421.796875 258.640625 C 408.53125 246.109375 393.609375 236.035156 377.03125 228.453125 C 367.433594 224.070312 357.273438 223.167969 346.992188 224.589844 C 316.347656 228.84375 287.300781 238.421875 259.433594 251.703125 C 256.566406 253.066406 253.554688 254.253906 251.464844 257.5 Z M 131.167969 582.546875 C 137.117188 585.488281 141.082031 590.015625 142.28125 596.738281 C 142.605469 598.59375 141.796875 601.246094 144.695312 601.699219 C 147.617188 602.148438 150.585938 601.882812 152.816406 599.648438 C 154.753906 597.710938 153.667969 595.40625 152.816406 593.417969 C 150.023438 586.921875 145.394531 581.882812 139.15625 578.714844 C 134.996094 576.605469 132.746094 574.0625 133.695312 569.269531 C 134.28125 566.296875 132.804688 565.324219 129.980469 565.46875 C 126.867188 565.621094 123.742188 565.5 120.617188 565.5 C 124.039062 564.730469 127.410156 564.75 130.777344 564.71875 C 133.042969 564.699219 134.578125 563.726562 135.425781 561.480469 C 142.421875 542.945312 153.863281 527.351562 167.578125 513.316406 C 170.648438 510.167969 169.695312 509.042969 166.082031 508.160156 C 159.1875 506.480469 152.328125 504.707031 145.445312 502.964844 C 157.058594 502.011719 168.417969 503.652344 180.871094 505.558594 C 177.625 500.628906 174.890625 496.777344 172.503906 492.730469 C 171.046875 490.273438 169.050781 489.15625 166.398438 488.664062 C 145.117188 484.757812 124.808594 477.988281 105.859375 467.464844 C 102.632812 465.671875 101.160156 466.328125 99.488281 469.296875 C 94.398438 478.386719 89.964844 487.78125 85.847656 497.339844 C 84.28125 500.980469 85.507812 503.140625 88.488281 504.996094 C 98.1875 511.03125 108.554688 505.507812 109.363281 493.582031 C 109.585938 494.296875 109.824219 494.75 109.863281 495.210938 C 110.285156 499.902344 108.585938 503.746094 104.476562 505.988281 C 98.699219 509.132812 92.585938 509.441406 87.023438 505.652344 C 83.953125 503.5625 82.867188 504.132812 81.566406 507.3125 C 77.347656 517.585938 73.753906 528.050781 71.539062 538.949219 C 69.316406 549.902344 68.222656 560.929688 70.710938 571.941406 C 75.667969 593.910156 112.785156 612.835938 133.851562 604.351562 C 137.507812 602.875 138.519531 600.210938 138.171875 596.617188 C 137.628906 591.042969 134.371094 586.890625 131.175781 582.527344 Z M 163.59375 333.867188 C 160.070312 333.835938 157.304688 333.414062 155.050781 336.203125 C 136.132812 359.675781 119.953125 384.828125 107.457031 412.320312 C 105.839844 415.886719 106.648438 417.914062 109.679688 420.464844 C 133.207031 440.28125 161.972656 444.851562 190.957031 448.9375 C 193.386719 449.277344 194.328125 448.285156 194.246094 445.792969 C 194.101562 441.878906 194.0625 437.984375 194.53125 434.050781 C 195.957031 422.226562 200.453125 411.355469 204.671875 400.382812 C 210.785156 384.480469 216.890625 368.570312 222.964844 352.65625 C 223.855469 350.332031 225.523438 347.460938 220.925781 347.238281 C 212.621094 346.816406 204.9375 344.058594 197.277344 341.160156 C 186.207031 336.980469 174.734375 334.613281 163.601562 333.867188 Z M 183.503906 322.207031 C 183.472656 322.347656 183.441406 322.492188 183.398438 322.636719 C 180.550781 322.15625 177.574219 322.050781 174.890625 321.109375 C 169.890625 319.347656 166.714844 321.386719 164.136719 325.332031 C 163.511719 326.285156 162.210938 327.082031 162.945312 328.425781 C 163.5 329.417969 164.730469 329.285156 165.722656 329.296875 C 178.421875 329.480469 190.140625 333.433594 201.671875 338.351562 C 208.421875 341.234375 215.40625 343.414062 222.871094 343.753906 C 225.953125 343.898438 227.960938 342.890625 229.496094 340.125 C 234.433594 331.273438 240.957031 323.609375 247.667969 316.078125 C 252.089844 311.109375 256.894531 306.171875 259.238281 299.921875 C 264.105469 286.960938 269.296875 274.191406 275.976562 262.0625 C 277.582031 259.140625 276.597656 257.890625 273.515625 258.035156 C 258.738281 258.722656 243.765625 258.425781 230.890625 267.695312 C 225.769531 271.386719 220.257812 274.511719 215.109375 278.148438 C 200.144531 288.722656 186.453125 300.761719 174.132812 314.335938 C 170.691406 318.128906 170.9375 318.691406 175.953125 320.167969 C 178.453125 320.90625 180.992188 321.53125 183.511719 322.207031 Z M 243.847656 487.148438 C 255.359375 487.667969 268.28125 486.632812 281.15625 484.996094 C 296.046875 483.097656 310.746094 480.167969 325.238281 476.152344 C 328.617188 475.21875 329.558594 474.011719 328.402344 470.445312 C 326.292969 463.910156 326.085938 457.042969 326.179688 450.1875 C 326.261719 443.171875 326.179688 443.148438 319.542969 444.6875 C 294.859375 450.402344 269.726562 453.507812 244.523438 453.222656 C 231.617188 453.078125 223.589844 457.617188 217.359375 467.75 C 215.753906 470.363281 214.003906 472.90625 212.640625 475.640625 C 211.738281 477.433594 211.308594 479.484375 210.847656 481.460938 C 210.101562 484.675781 211.328125 485.949219 214.761719 486.222656 C 223.957031 486.972656 233.152344 487.269531 243.855469 487.136719 Z M 330.398438 449.964844 C 330.714844 453.007812 330.871094 456.082031 331.382812 459.09375 C 331.925781 462.269531 332.796875 465.394531 333.542969 468.539062 C 334.445312 472.351562 336.484375 473.160156 340.292969 471.910156 C 377.480469 459.644531 411.378906 440.785156 444.472656 420.269531 C 447 418.703125 446.804688 417.382812 444.65625 415.660156 C 440.007812 411.929688 435.210938 408.324219 430.890625 404.234375 C 427.625 401.152344 425.03125 400.988281 421.070312 403.222656 C 394.695312 418.046875 366.921875 429.707031 338.222656 439.207031 C 329.578125 442.0625 330.449219 439.921875 330.398438 449.984375 Z M 196.316406 484.082031 C 199.785156 484.320312 202.316406 485.40625 203.503906 481.664062 C 206.597656 471.980469 212.824219 464.347656 220.117188 457.484375 C 220.945312 456.707031 222.492188 456.070312 222.082031 454.769531 C 221.550781 453.089844 219.757812 453.753906 218.519531 453.722656 C 198.722656 453.230469 179.160156 450.875 159.8125 446.675781 C 157.683594 446.214844 155.46875 445.710938 153.523438 447.515625 C 146.992188 453.601562 139.289062 458.027344 131.800781 462.75 C 130.550781 463.539062 128.617188 464.144531 128.882812 465.90625 C 129.140625 467.554688 131.136719 467.84375 132.519531 468.367188 C 153.472656 476.285156 175.074219 481.59375 196.304688 484.0625 Z M 268.734375 544.472656 C 260.488281 543.050781 254.027344 538.664062 249.582031 531.542969 C 247.902344 528.847656 245.863281 527.503906 242.742188 526.992188 C 233.667969 525.496094 224.621094 523.816406 215.609375 521.984375 C 212.648438 521.378906 211.011719 521.890625 210.652344 525.109375 C 210.253906 528.664062 209.597656 532.1875 209.25 535.742188 C 207.867188 549.453125 214.554688 557.035156 228.371094 557.863281 C 244.421875 558.816406 259.957031 556.203125 275.269531 551.675781 C 277.601562 550.988281 279.660156 550.027344 280.984375 547.742188 C 283.296875 543.765625 285.695312 539.832031 288.246094 536 C 290.34375 532.84375 289.207031 531.878906 285.910156 531.636719 C 277.082031 530.96875 268.261719 530.148438 259.425781 529.460938 C 256.578125 529.238281 253.667969 527.761719 250.246094 529.351562 C 255.316406 536.367188 261.082031 541.429688 268.722656 544.472656 Z M 387.054688 230.207031 C 393.160156 233.976562 398.507812 236.96875 403.515625 240.441406 C 415.25 248.585938 427.582031 256.148438 434.832031 269.183594 C 435.753906 270.832031 437.21875 270.707031 438.625 271.222656 C 450.136719 275.453125 461.195312 275.566406 471.570312 268.066406 C 472.101562 267.6875 472.832031 267.542969 473.476562 267.347656 C 478.578125 265.832031 483.675781 264.335938 490.292969 262.390625 C 480.726562 257.574219 474.417969 249.046875 462.640625 254.160156 C 456.15625 256.980469 448.722656 255.679688 442.566406 251.210938 C 449.367188 252.941406 456.136719 254.59375 463.082031 252.082031 C 464.566406 251.550781 467.054688 251.742188 467.09375 249.652344 C 467.125 248.097656 464.933594 247.695312 463.601562 247.039062 C 445.035156 237.921875 425.6875 231.003906 405.460938 226.578125 C 399.058594 225.175781 393.46875 227.070312 387.046875 230.207031 Z M 514.699219 357.175781 C 514.0625 354.6875 512.210938 355.421875 510.910156 355.597656 C 506.1875 356.203125 501.445312 357.8125 496.785156 357.605469 C 486.707031 357.144531 479.683594 362.269531 472.480469 368.292969 C 460.570312 378.242188 447.605469 386.796875 434.445312 395.023438 C 429.703125 397.984375 429.765625 398.519531 434.179688 401.652344 C 439.03125 405.117188 444.082031 408.3125 448.84375 411.910156 C 451.875 414.195312 454.261719 414.226562 457.488281 412.023438 C 478.679688 397.597656 496.835938 379.984375 512.804688 360.023438 C 513.53125 359.113281 514.113281 358.066406 514.699219 357.175781 Z M 492.023438 264.457031 C 480.789062 267.019531 469.933594 270.472656 459.925781 276.199219 C 456.667969 278.066406 459.515625 279.273438 460.632812 280.257812 C 475 292.851562 489.390625 305.402344 503.863281 317.871094 C 510.664062 323.730469 510.652344 323.464844 518.210938 319.109375 C 521.539062 317.195312 521.703125 315.390625 520.167969 312.152344 C 516.296875 303.957031 512.855469 295.332031 512.160156 286.386719 C 511.441406 277.101562 506.710938 271.886719 499.242188 267.953125 C 496.867188 266.703125 494.882812 264.621094 492.023438 264.457031 Z M 102.132812 422.351562 C 90.066406 423.46875 78.953125 425.28125 67.667969 425.035156 C 66.082031 425.003906 63.785156 424.152344 63.027344 425.9375 C 62.292969 427.6875 64.410156 428.835938 65.527344 430.003906 C 80 445.148438 98.238281 454.207031 117.28125 461.953125 C 118.578125 462.484375 120.003906 462.863281 121.210938 462.035156 C 128.820312 456.839844 137.640625 453.734375 145.042969 448.179688 C 147.675781 446.214844 148.230469 444.625 144.441406 443.601562 C 130.582031 439.839844 118.355469 432.914062 106.863281 424.503906 C 105.203125 423.28125 103.410156 422.289062 102.132812 422.339844 Z M 334.269531 488.015625 C 333.6875 487.894531 333.164062 487.597656 332.746094 487.710938 C 306.945312 494.636719 280.738281 498.234375 253.996094 497.75 C 250.566406 497.691406 250.257812 499.328125 251.570312 501.921875 C 260.007812 518.765625 274.070312 527.773438 293.34375 525.785156 C 295.546875 525.558594 297.074219 524.308594 298.445312 522.710938 C 308.050781 511.582031 318.9375 501.796875 330.246094 492.445312 C 331.730469 491.214844 333.808594 490.394531 334.269531 487.996094 Z M 262.160156 523.101562 C 254.230469 516.347656 248.046875 508.601562 244.152344 499.09375 C 243.3125 497.054688 241.070312 497.175781 239.238281 497.035156 C 234.824219 496.695312 230.398438 496.492188 225.984375 496.183594 C 211.378906 495.167969 196.847656 493.40625 182.335938 491.523438 C 181.238281 491.378906 179.792969 490.640625 179.035156 491.878906 C 178.300781 493.089844 179.507812 494.105469 180.152344 495.035156 C 185.367188 502.609375 191.121094 509.289062 201.109375 510.691406 C 205.789062 511.359375 210.324219 513.101562 214.933594 514.320312 C 230.367188 518.429688 245.964844 521.6875 262.167969 523.101562 Z M 734.804688 223.617188 C 734.8125 215.585938 734.054688 207.613281 732.714844 199.714844 C 729.394531 180.164062 719 166.351562 700.03125 159.375 C 696.078125 157.921875 693.949219 158.902344 692.402344 162.542969 C 690.304688 167.46875 690.9375 172.601562 691.195312 177.683594 C 691.492188 183.8125 692.207031 184.203125 697.769531 181.988281 C 708.265625 177.816406 718.734375 181.679688 723.445312 192.03125 C 728.800781 203.800781 730.296875 215.914062 724.347656 228.035156 C 723.261719 230.246094 723.117188 231.414062 725.667969 232.769531 C 734.84375 237.65625 734.78125 237.777344 734.792969 227.195312 C 734.792969 226.003906 734.792969 224.808594 734.804688 223.609375 Z M 378.535156 630.457031 C 378.75 630.417969 380.09375 630.191406 381.402344 629.84375 C 389.339844 627.742188 390.886719 624.433594 387.28125 617.261719 C 385.816406 614.351562 383.890625 611.757812 381.824219 609.25 C 375.820312 601.945312 367.882812 596.699219 361.441406 589.902344 C 358.738281 587.046875 356.339844 586.492188 353.042969 588.285156 C 350.09375 589.894531 344.851562 589.925781 344.460938 592.84375 C 344.070312 595.816406 349.039062 597.21875 351.691406 599.226562 C 361.511719 606.675781 370.230469 614.894531 372.800781 627.679688 C 373.34375 630.40625 375.195312 630.652344 378.535156 630.457031 Z M 493.191406 354.714844 C 498.34375 353.773438 503.679688 352.0625 509.035156 351.992188 C 517.761719 351.867188 522.820312 347.667969 526.835938 340.339844 C 531.597656 331.671875 531.875 331.992188 526.539062 323.90625 C 524.570312 320.933594 523.148438 320.976562 520.066406 322.492188 C 506.78125 329.007812 501.734375 343.273438 491.359375 352.484375 C 489.648438 354 491.441406 354.664062 493.191406 354.714844 Z M 708.195312 184.179688 C 705.890625 184.039062 703.820312 184.632812 702.03125 186.117188 C 698.105469 189.367188 697.453125 195.617188 700.472656 201.097656 C 703.144531 205.953125 708.03125 208.289062 712.785156 206.753906 C 714.953125 206.046875 716.828125 204.859375 718.039062 208.085938 C 718.621094 209.640625 720.3125 210.195312 721.910156 209.613281 C 723.445312 209.046875 723.566406 207.511719 723.40625 206.136719 C 722.617188 199.457031 720.875 193.105469 716.214844 187.980469 C 714.113281 185.667969 711.523438 184.039062 708.195312 184.179688 Z M 137.597656 574.566406 C 137.96875 574.894531 138.273438 575.375 138.703125 575.539062 C 148.578125 579.238281 156.472656 584.925781 159.289062 595.804688 C 159.722656 597.464844 160.835938 597.925781 162.414062 597.363281 C 164.0625 596.769531 165.671875 596.144531 165.445312 593.890625 C 165.230469 591.757812 164.195312 589.964844 162.945312 588.367188 C 156.554688 580.230469 147.859375 576.0625 137.597656 574.574219 Z M 604.816406 584.679688 C 612.375 582.21875 614.105469 577.078125 609.128906 571.738281 C 604.691406 566.984375 599.007812 564.269531 592.472656 563.171875 C 600.257812 568.285156 606.484375 574.1875 604.816406 584.679688 Z M 370.773438 223.320312 C 373.660156 224.519531 376.816406 225.308594 379.386719 226.988281 C 384.371094 230.238281 388.140625 227.984375 392.851562 224.917969 C 385.128906 222.707031 378.042969 222.839844 370.761719 223.320312 Z M 370.773438 223.320312 " fill-opacity="1" fill-rule="nonzero"/><path fill="#000000" d="M 595.230469 264.234375 C 582.753906 264.160156 570.679688 252.296875 569.882812 235.472656 C 569.359375 224.4375 571.683594 214.46875 579.601562 206.363281 C 592.042969 193.617188 611.800781 195.378906 621.316406 210.460938 C 629.363281 223.21875 629.980469 236.929688 623.25 250.390625 C 618.527344 259.847656 610.253906 264.480469 595.230469 264.242188 Z M 619.613281 220.800781 C 622.289062 226.589844 622.933594 231.875 622.492188 237.335938 C 621.589844 248.710938 613.5 258.179688 603.390625 259.816406 C 592.800781 261.527344 582.476562 255.789062 578.035156 245.730469 C 571.867188 231.742188 577.777344 213.117188 590.886719 205.277344 C 593.476562 203.730469 596.121094 202.296875 599.839844 200.183594 C 590.546875 200.566406 584.035156 203.773438 579.40625 210.238281 C 571.96875 220.648438 570.207031 232.144531 574.222656 244.273438 C 578.1875 256.273438 589.402344 263.546875 601.96875 262.5625 C 609.15625 262 614.996094 258.832031 619.226562 252.890625 C 628.277344 240.175781 626.507812 218.394531 615.496094 207.328125 C 609.875 201.671875 602.203125 200.402344 596.449219 204.160156 C 590.957031 207.757812 588.746094 216.355469 591.480469 223.535156 C 594.050781 230.296875 600.484375 234.089844 607.765625 232.992188 C 614.308594 232 617.421875 227.277344 619.59375 220.8125 Z M 619.613281 220.800781 " fill-opacity="1" fill-rule="nonzero"/><path fill="#000000" d="M 572.964844 276.097656 C 556.988281 268.074219 548.382812 254.511719 545.332031 237.132812 C 542.332031 220.023438 545.476562 204.015625 555.582031 188.382812 C 548.097656 192.796875 545.945312 197.820312 537.792969 227.707031 C 532.652344 196.28125 556.84375 160.6875 591.5 162.335938 C 601.015625 162.789062 609.382812 166.292969 616.921875 172 C 638.570312 188.371094 650.820312 223.21875 644.183594 249.601562 C 643.148438 253.710938 641.613281 257.542969 638.355469 260.566406 C 640.660156 253.167969 642.1875 245.75 641.738281 237.992188 C 640.394531 215.277344 631.925781 195.882812 614.433594 181.085938 C 594.800781 164.476562 567.792969 169.835938 555.0625 192.304688 C 541.449219 216.332031 545.90625 254.949219 570.996094 274.53125 C 571.664062 275.054688 572.308594 275.585938 572.972656 276.117188 Z M 641.6875 281.589844 C 631.503906 263.640625 591 268.003906 579.878906 283.085938 C 600.1875 272.964844 620.773438 271.980469 641.6875 281.589844 Z M 708.328125 267.953125 C 708.675781 266.386719 701.558594 259.4375 699.570312 259.273438 C 697.832031 259.132812 697.144531 260.054688 696.992188 261.652344 C 696.683594 264.921875 700.605469 268.363281 705.59375 269.039062 C 706.546875 269.050781 707.949219 269.664062 708.328125 267.953125 Z M 730.933594 264.335938 C 733.183594 264.429688 733.308594 261.457031 733.257812 259.4375 C 733.214844 257.664062 733.421875 254.867188 731.125 255.03125 C 728.578125 255.21875 730.328125 258.097656 729.632812 259.695312 C 730.339844 261.261719 728.535156 264.242188 730.941406 264.347656 Z M 237.179688 392.433594 C 236.484375 395.382812 235.917969 398.363281 236.484375 401.53125 C 238.253906 411.480469 244.953125 416.675781 253.71875 419.992188 C 264.769531 424.164062 276.230469 423.210938 287.648438 422.75 C 282.375 422.605469 277.089844 422.71875 271.804688 422.585938 C 266.316406 422.441406 261 421.171875 255.828125 419.378906 C 240.464844 414.070312 234.976562 403.027344 239.964844 387.617188 C 242.105469 380.988281 245.1875 374.796875 248.648438 368.773438 C 243.160156 375.863281 239.226562 383.734375 237.160156 392.441406 Z M 380.613281 551.285156 C 368.609375 554.730469 358.851562 550.855469 350.839844 541.769531 C 346.457031 536.789062 344.902344 531.09375 347.238281 524.6875 C 348.855469 520.25 350.636719 515.886719 352.625 510.792969 C 342.402344 526.152344 342.136719 535.824219 351.300781 544.996094 C 362.394531 556.101562 376.96875 557.074219 391.164062 547.671875 C 387.648438 548.890625 384.179688 550.261719 380.613281 551.285156 Z M 378.011719 493.703125 C 386.921875 494.894531 394.960938 498.613281 402.777344 502.863281 C 404.046875 503.5625 405.121094 504.832031 407.386719 504.675781 C 399.101562 499.050781 390.824219 494.71875 381.503906 492.824219 C 372.839844 491.058594 364.800781 491.828125 359.21875 500.230469 C 364.054688 494.03125 370.710938 492.71875 378.011719 493.695312 Z M 409.957031 313.875 C 415.847656 310.09375 422 306.796875 428.382812 303.894531 C 437.292969 299.828125 446.152344 297.675781 455.019531 304.183594 C 450 299.582031 445.8125 298.210938 439.6875 299.285156 C 427.296875 301.457031 416.664062 307.554688 406.503906 314.582031 C 398.976562 319.796875 395.496094 326.855469 397.277344 336.203125 C 396.261719 325.730469 401.867188 319.070312 409.957031 313.875 Z M 567.105469 497.15625 C 564.800781 476.726562 566.714844 472.21875 580.6875 465.300781 C 567.414062 465.433594 560.941406 482.125 567.105469 497.15625 Z M 536.871094 532.679688 C 541.972656 530.128906 544.65625 526.675781 544.65625 521.574219 C 544.65625 516.707031 541.738281 513.808594 537.292969 512.148438 C 545.394531 519.125 545.476562 524.402344 536.871094 532.679688 Z M 403.484375 269.398438 C 378.433594 288.578125 349.582031 292.953125 319.152344 291.363281 C 349.519531 292.871094 379.222656 291.652344 403.484375 269.398438 Z M 119.296875 557.660156 C 123.78125 558.816406 128.226562 558.324219 132.664062 557.546875 C 128.136719 557.597656 123.617188 558.019531 119.03125 556.890625 C 119.144531 557.238281 119.175781 557.617188 119.296875 557.648438 Z M 147.011719 405.679688 C 166.316406 415.066406 180.6875 409.492188 190.117188 389.253906 C 179.824219 405.445312 167.035156 414.777344 147.011719 405.679688 Z M 145.179688 368.273438 C 155.707031 357.554688 166.695312 348.414062 183.164062 352.585938 C 170.558594 345.976562 153.8125 355.3125 145.179688 368.273438 Z M 260.398438 275.308594 C 256.382812 290.730469 245.535156 301.335938 234.804688 312.019531 C 246.714844 302.164062 258.667969 292.339844 260.398438 275.308594 Z M 260.398438 275.308594 " fill-opacity="1" fill-rule="nonzero"/></svg>