<svg xmlns="http://www.w3.org/2000/svg" xmlns:xlink="http://www.w3.org/1999/xlink" width="1080" zoomAndPan="magnify" viewBox="0 0 810 809.999993" height="1080" preserveAspectRatio="xMidYMid meet" version="1.0"><path fill="#000000" d="M 672.953125 360.832031 C 662.539062 360.683594 652.257812 372.554688 652.527344 384.394531 C 652.769531 395.171875 661.824219 404.464844 671.875 404.371094 C 682.988281 404.277344 689.980469 395.964844 690.074219 382.738281 C 690.167969 367.960938 684.738281 361.007812 672.953125 360.832031 Z M 532.570312 372.351562 C 522.546875 372.257812 515.945312 380.636719 515.703125 393.753906 C 515.421875 408.574219 524.648438 419.5 537.675781 419.835938 C 548.277344 420.117188 554.019531 413.410156 554.179688 400.546875 C 554.382812 385.082031 544.75 372.445312 532.570312 372.351562 Z M 643.609375 413.476562 C 643.53125 413.183594 643.4375 412.898438 643.324219 412.617188 C 643.210938 412.335938 643.082031 412.0625 642.9375 411.796875 C 642.789062 411.53125 642.628906 411.277344 642.449219 411.035156 C 642.273438 410.789062 642.082031 410.554688 641.875 410.335938 C 641.667969 410.113281 641.445312 409.90625 641.214844 409.714844 C 640.980469 409.519531 640.738281 409.339844 640.484375 409.179688 C 640.226562 409.015625 639.964844 408.867188 639.691406 408.738281 C 639.417969 408.605469 639.140625 408.492188 638.851562 408.398438 C 638.566406 408.300781 638.273438 408.222656 637.976562 408.164062 C 637.679688 408.105469 637.378906 408.0625 637.078125 408.039062 C 636.777344 408.019531 636.476562 408.015625 636.171875 408.027344 C 635.871094 408.042969 635.570312 408.078125 635.273438 408.128906 C 634.972656 408.183594 634.679688 408.253906 634.390625 408.339844 C 634.101562 408.429688 633.820312 408.535156 633.542969 408.660156 C 633.265625 408.785156 633 408.921875 632.738281 409.082031 C 632.480469 409.238281 632.234375 409.410156 631.996094 409.597656 L 630.648438 410.648438 C 627.105469 413.449219 624.046875 417.800781 620.074219 418.890625 C 609.027344 421.882812 600.039062 417.355469 592.105469 409.339844 C 591.746094 408.984375 591.335938 408.703125 590.878906 408.492188 C 586.027344 406.1875 580.679688 410.730469 581.769531 415.984375 C 581.890625 416.617188 582.117188 417.214844 582.445312 417.773438 C 583.546875 419.65625 584.824219 421.410156 586.273438 423.042969 C 587.722656 424.671875 589.320312 426.140625 591.0625 427.457031 C 592.800781 428.769531 594.65625 429.902344 596.621094 430.851562 C 598.582031 431.796875 600.621094 432.546875 602.734375 433.089844 C 605.816406 433.898438 608.953125 434.335938 612.140625 434.410156 C 615.324219 434.480469 618.476562 434.1875 621.59375 433.523438 C 623.144531 433.210938 624.773438 432.835938 626.363281 432.347656 C 635.09375 429.65625 642.53125 424.925781 643.703125 415.1875 C 643.765625 414.613281 643.734375 414.042969 643.609375 413.476562 Z M 672.953125 360.832031 C 662.539062 360.683594 652.257812 372.554688 652.527344 384.394531 C 652.769531 395.171875 661.824219 404.464844 671.875 404.371094 C 682.988281 404.277344 689.980469 395.964844 690.074219 382.738281 C 690.167969 367.960938 684.738281 361.007812 672.953125 360.832031 Z M 631.996094 409.597656 L 630.648438 410.648438 C 627.105469 413.449219 624.046875 417.800781 620.074219 418.890625 C 609.027344 421.882812 600.039062 417.355469 592.105469 409.339844 C 591.746094 408.984375 591.335938 408.703125 590.878906 408.492188 C 586.027344 406.1875 580.679688 410.730469 581.769531 415.984375 C 581.890625 416.617188 582.117188 417.214844 582.445312 417.773438 C 583.546875 419.65625 584.824219 421.410156 586.273438 423.039062 C 587.722656 424.671875 589.320312 426.140625 591.0625 427.457031 C 592.800781 428.769531 594.65625 429.902344 596.621094 430.851562 C 598.582031 431.796875 600.621094 432.546875 602.734375 433.089844 C 605.816406 433.898438 608.953125 434.335938 612.140625 434.410156 C 615.324219 434.480469 618.476562 434.1875 621.59375 433.523438 C 623.144531 433.210938 624.773438 432.835938 626.363281 432.347656 C 635.09375 429.65625 642.53125 424.925781 643.703125 415.1875 C 643.757812 414.609375 643.714844 414.039062 643.582031 413.476562 C 643.503906 413.183594 643.410156 412.898438 643.296875 412.621094 C 643.183594 412.339844 643.054688 412.070312 642.910156 411.804688 C 642.761719 411.539062 642.601562 411.289062 642.421875 411.042969 C 642.246094 410.800781 642.054688 410.566406 641.847656 410.347656 C 641.640625 410.128906 641.421875 409.921875 641.1875 409.730469 C 640.957031 409.535156 640.714844 409.359375 640.460938 409.195312 C 640.207031 409.03125 639.945312 408.886719 639.671875 408.753906 C 639.398438 408.625 639.121094 408.511719 638.835938 408.417969 C 638.546875 408.320312 638.257812 408.242188 637.960938 408.183594 C 637.667969 408.125 637.367188 408.082031 637.066406 408.058594 C 636.765625 408.035156 636.464844 408.03125 636.164062 408.046875 C 635.863281 408.058594 635.5625 408.09375 635.265625 408.144531 C 634.96875 408.195312 634.675781 408.265625 634.386719 408.351562 C 634.097656 408.441406 633.816406 408.546875 633.539062 408.667969 C 633.265625 408.789062 633 408.929688 632.738281 409.085938 C 632.480469 409.242188 632.234375 409.410156 631.996094 409.597656 Z M 532.570312 372.351562 C 522.546875 372.257812 515.945312 380.636719 515.703125 393.753906 C 515.421875 408.574219 524.648438 419.5 537.675781 419.835938 C 548.277344 420.117188 554.019531 413.410156 554.179688 400.546875 C 554.382812 385.082031 544.75 372.445312 532.570312 372.351562 Z M 672.953125 360.832031 C 662.539062 360.683594 652.257812 372.554688 652.527344 384.394531 C 652.769531 395.171875 661.824219 404.464844 671.875 404.371094 C 682.988281 404.277344 689.980469 395.964844 690.074219 382.738281 C 690.167969 367.960938 684.738281 361.007812 672.953125 360.832031 Z M 631.996094 409.597656 L 630.648438 410.648438 C 627.105469 413.449219 624.046875 417.800781 620.074219 418.890625 C 609.027344 421.882812 600.039062 417.355469 592.105469 409.339844 C 591.746094 408.984375 591.335938 408.703125 590.878906 408.492188 C 586.027344 406.1875 580.679688 410.730469 581.769531 415.984375 C 581.890625 416.617188 582.117188 417.214844 582.445312 417.773438 C 583.546875 419.65625 584.824219 421.410156 586.273438 423.039062 C 587.722656 424.671875 589.320312 426.140625 591.0625 427.457031 C 592.800781 428.769531 594.65625 429.902344 596.621094 430.851562 C 598.582031 431.796875 600.621094 432.546875 602.734375 433.089844 C 605.816406 433.898438 608.953125 434.335938 612.140625 434.410156 C 615.324219 434.480469 618.476562 434.1875 621.59375 433.523438 C 623.144531 433.210938 624.773438 432.835938 626.363281 432.347656 C 635.09375 429.65625 642.53125 424.925781 643.703125 415.1875 C 643.757812 414.609375 643.714844 414.039062 643.582031 413.476562 C 643.503906 413.183594 643.410156 412.898438 643.296875 412.621094 C 643.183594 412.339844 643.054688 412.070312 642.910156 411.804688 C 642.761719 411.539062 642.601562 411.289062 642.421875 411.042969 C 642.246094 410.800781 642.054688 410.566406 641.847656 410.347656 C 641.640625 410.128906 641.421875 409.921875 641.1875 409.730469 C 640.957031 409.535156 640.714844 409.359375 640.460938 409.195312 C 640.207031 409.03125 639.945312 408.886719 639.671875 408.753906 C 639.398438 408.625 639.121094 408.511719 638.835938 408.417969 C 638.546875 408.320312 638.257812 408.242188 637.960938 408.183594 C 637.667969 408.125 637.367188 408.082031 637.066406 408.058594 C 636.765625 408.035156 636.464844 408.03125 636.164062 408.046875 C 635.863281 408.058594 635.5625 408.09375 635.265625 408.144531 C 634.96875 408.195312 634.675781 408.265625 634.386719 408.351562 C 634.097656 408.441406 633.816406 408.546875 633.539062 408.667969 C 633.265625 408.789062 633 408.929688 632.738281 409.085938 C 632.480469 409.242188 632.234375 409.410156 631.996094 409.597656 Z M 532.570312 372.351562 C 522.546875 372.257812 515.945312 380.636719 515.703125 393.753906 C 515.421875 408.574219 524.648438 419.5 537.675781 419.835938 C 548.277344 420.117188 554.019531 413.410156 554.179688 400.546875 C 554.382812 385.082031 544.75 372.445312 532.570312 372.351562 Z M 702.78125 315.53125 C 684.578125 281.074219 657.917969 257.148438 619.171875 247.933594 C 615.773438 247.125 611.449219 243.894531 610.359375 240.769531 C 592.183594 189.230469 552.738281 157.84375 506.257812 135.453125 C 436.984375 102.085938 365.90625 108.511719 297.34375 137.527344 C 215.917969 172.082031 166.582031 235.769531 144.324219 320.648438 C 137.375 347.121094 132.199219 374.0625 126.3125 400.71875 C 121.976562 401.191406 119.484375 401.527344 116.964844 401.703125 C 88.671875 403.765625 74.929688 420.414062 80.589844 447.949219 C 82.5 457.214844 87.324219 466.390625 92.714844 474.339844 C 99.328125 484.105469 107.910156 492.550781 114.511719 500.230469 C 108.179688 523.585938 101.320312 545.839844 96.203125 568.484375 C 89.144531 599.804688 102.613281 623.824219 132.914062 635.367188 C 141.160156 638.507812 150.011719 640.285156 158.726562 641.941406 C 200.34375 649.929688 231.976562 629.816406 237.621094 590.859375 C 270.5625 608.734375 306.207031 611.46875 342.878906 609.167969 C 343.378906 615.78125 343.757812 620.414062 344.078125 625.035156 C 346.773438 662.820312 361.824219 682.3125 397.132812 687.59375 C 405.359375 688.820312 413.625 689.183594 421.929688 688.6875 C 430.230469 688.1875 438.394531 686.835938 446.414062 684.628906 C 484.351562 673.707031 502.148438 652.839844 490.875 612.953125 C 490.570312 611.285156 490.433594 609.605469 490.46875 607.914062 C 499.253906 606.269531 507.59375 604.84375 515.878906 603.117188 C 524.164062 601.394531 532.300781 599.359375 540.546875 597.460938 C 544.585938 635.757812 557.859375 650.699219 596.683594 653.351562 C 613.941406 654.535156 632.226562 650.050781 649.132812 645.148438 C 650.554688 644.730469 651.949219 644.246094 653.324219 643.695312 C 654.695312 643.140625 656.039062 642.523438 657.351562 641.839844 C 658.664062 641.15625 659.941406 640.410156 661.183594 639.601562 C 662.421875 638.792969 663.621094 637.925781 664.777344 637.003906 C 665.933594 636.078125 667.039062 635.097656 668.101562 634.066406 C 669.160156 633.035156 670.167969 631.953125 671.125 630.820312 C 672.078125 629.691406 672.976562 628.515625 673.816406 627.296875 C 674.65625 626.078125 675.4375 624.824219 676.15625 623.53125 C 676.875 622.234375 677.527344 620.910156 678.117188 619.550781 C 678.707031 618.195312 679.226562 616.808594 679.679688 615.402344 C 680.136719 613.992188 680.519531 612.566406 680.835938 611.117188 C 681.148438 609.671875 681.394531 608.214844 681.566406 606.746094 C 681.738281 605.273438 681.839844 603.800781 681.871094 602.320312 C 681.898438 600.839844 681.855469 599.363281 681.742188 597.886719 C 681.628906 596.410156 681.441406 594.945312 681.183594 593.488281 C 680.925781 592.03125 680.597656 590.589844 680.199219 589.164062 C 674.515625 568.539062 665.257812 548.886719 657.09375 527.414062 C 658.628906 526.699219 660.90625 525.714844 663.128906 524.609375 C 703.546875 504.554688 727.917969 473.140625 731.71875 427.367188 C 735.058594 386.792969 721.277344 350.515625 702.78125 315.53125 Z M 585.894531 243.355469 L 528.988281 249.699219 L 502.648438 212.238281 L 529.308594 177.132812 C 553.007812 194.871094 574.335938 214 585.894531 243.355469 Z M 402.671875 398.96875 L 325.757812 345.625 C 334.273438 315.828125 343.339844 283.660156 352.769531 251.679688 C 353.46875 249.308594 356.460938 247.046875 358.925781 245.847656 C 368.179688 241.304688 377.695312 237.40625 387.476562 234.152344 C 397.257812 230.898438 407.210938 228.320312 417.34375 226.414062 C 427.472656 224.511719 437.6875 223.300781 447.980469 222.78125 C 458.277344 222.257812 468.558594 222.4375 478.828125 223.308594 C 480.636719 223.621094 482.328125 224.253906 483.898438 225.203125 C 485.46875 226.15625 486.808594 227.359375 487.921875 228.820312 C 495.089844 238.25 501.585938 248.097656 509.074219 258.886719 C 446.996094 287.1875 420.371094 339.84375 402.589844 398.96875 Z M 395.167969 417.734375 C 391.125 433.644531 378.796875 445.765625 364.449219 455.679688 C 330.621094 479.027344 292.910156 480.226562 254.367188 472.34375 C 239.480469 469.046875 224.960938 464.554688 210.8125 458.875 C 207.347656 457.527344 204.492188 451.085938 203.886719 446.640625 C 203.160156 441.429688 205.476562 435.867188 205.949219 430.371094 C 206.945312 419.109375 211.09375 411.363281 222.574219 406.285156 C 249.300781 394.46875 275.113281 380.6875 301.667969 368.402344 C 305.832031 366.476562 312.648438 366.476562 316.621094 368.621094 C 331.914062 376.835938 346.640625 386.132812 361.363281 395.332031 C 372.277344 402.242188 382.933594 409.652344 395.085938 417.734375 Z M 510.246094 164.777344 L 482.882812 202.375 C 450.671875 200.273438 416.414062 198.1875 386.085938 212.910156 C 359.058594 226.042969 335.605469 224.0625 309.765625 212.25 C 292.171875 204.167969 273.066406 199.414062 254.636719 193.175781 C 296.695312 147.996094 423.539062 111.042969 510.246094 164.777344 Z M 166.703125 330.980469 C 168.90625 320.679688 171.753906 310.5625 175.25 300.625 C 178.742188 290.6875 182.855469 281.011719 187.582031 271.597656 C 192.308594 262.1875 197.617188 253.109375 203.5 244.375 C 209.386719 235.636719 215.800781 227.308594 222.746094 219.390625 C 229.753906 211.308594 235.898438 208.894531 246.660156 213.046875 C 270.789062 222.339844 295.605469 229.789062 320.125 238.101562 C 324.882812 239.71875 329.476562 241.792969 333.316406 243.300781 C 323.882812 274.527344 314.992188 304.96875 305.265625 335.132812 C 304.277344 337.746094 302.863281 340.105469 301.027344 342.210938 C 299.1875 344.3125 297.039062 346.03125 294.582031 347.363281 C 265.886719 362.003906 236.652344 375.542969 207.96875 390.238281 C 201.003906 393.796875 196.125 394.28125 189.6875 389.714844 C 150.496094 361.601562 156.464844 378.238281 166.730469 330.980469 Z M 144.003906 407.171875 C 146.886719 402.066406 149.796875 396.976562 153.3125 390.765625 L 167.96875 400.910156 C 187.71875 414.554688 188.933594 418.945312 177.589844 446.710938 L 141.160156 410.835938 Z M 212.710938 599.964844 C 205.851562 603.429688 199.914062 605.960938 194.457031 609.300781 C 192.582031 610.445312 190.765625 611.699219 189.066406 612.953125 C 188.824219 613.132812 188.570312 613.292969 188.304688 613.4375 C 188.039062 613.585938 187.765625 613.714844 187.484375 613.824219 C 187.203125 613.9375 186.917969 614.027344 186.625 614.101562 C 186.332031 614.175781 186.035156 614.230469 185.734375 614.269531 C 185.433594 614.304688 185.132812 614.320312 184.832031 614.320312 C 184.527344 614.316406 184.226562 614.292969 183.925781 614.253906 C 183.628906 614.210938 183.332031 614.152344 183.039062 614.074219 C 182.75 613.996094 182.460938 613.898438 182.183594 613.78125 C 181.902344 613.667969 181.632812 613.535156 181.371094 613.382812 C 181.109375 613.234375 180.855469 613.066406 180.617188 612.882812 C 180.375 612.699219 180.148438 612.503906 179.929688 612.292969 C 179.714844 612.082031 179.515625 611.855469 179.328125 611.617188 C 179.140625 611.378906 178.96875 611.132812 178.816406 610.871094 C 178.660156 610.613281 178.523438 610.34375 178.402344 610.066406 C 178.28125 609.789062 178.179688 609.507812 178.09375 609.214844 C 178.011719 608.925781 177.945312 608.628906 177.898438 608.332031 C 177.0625 602.945312 176.242188 598.539062 174.328125 598 C 162.484375 594.644531 158.902344 603.320312 155.117188 611.46875 C 154.933594 611.847656 154.71875 612.203125 154.472656 612.542969 C 154.230469 612.878906 153.957031 613.195312 153.65625 613.484375 C 153.351562 613.773438 153.027344 614.035156 152.683594 614.265625 C 152.335938 614.5 151.96875 614.699219 151.585938 614.867188 C 151.203125 615.035156 150.808594 615.167969 150.402344 615.265625 C 149.996094 615.363281 149.585938 615.425781 149.167969 615.449219 C 148.75 615.476562 148.335938 615.464844 147.917969 615.414062 C 147.503906 615.367188 147.097656 615.28125 146.695312 615.160156 C 122.796875 607.78125 116.625 597.125 121.4375 570.382812 C 124.683594 552.332031 130.960938 534.835938 135.445312 518.671875 L 218.101562 554.042969 C 216.253906 570.007812 214.382812 586.265625 212.792969 599.964844 Z M 123.792969 474.296875 C 114.726562 466.214844 109.257812 453.578125 104.058594 442.167969 C 102.5625 438.894531 106.589844 430.046875 110.320312 428.132812 C 117.164062 424.699219 126.8125 419.242188 133.117188 428.5625 C 160.734375 469.339844 202.660156 486.113281 247.820312 496 C 287.28125 504.632812 326.308594 502.382812 363.679688 483.96875 C 371.253906 480.339844 378.328125 475.917969 384.910156 470.703125 C 391.488281 465.488281 397.410156 459.609375 402.671875 453.066406 C 405.363281 471.628906 412.949219 488.011719 418.351562 497.832031 C 395.707031 513.539062 372.546875 528.960938 344.875 533.515625 C 262.558594 547.011719 187.4375 530.671875 123.875 474.296875 Z M 497.355469 584.757812 C 496.25 584.941406 495.144531 584.957031 494.035156 584.800781 C 492.929688 584.644531 491.867188 584.328125 490.859375 583.84375 C 489.847656 583.363281 488.933594 582.738281 488.117188 581.976562 C 487.296875 581.214844 486.613281 580.34375 486.0625 579.371094 C 483.101562 574.074219 478.425781 571.558594 470.382812 575.328125 C 459.605469 580.367188 456.007812 589.285156 462.21875 599.320312 C 470.894531 613.355469 470.300781 628.203125 469.144531 644.324219 C 457.476562 638.101562 451.628906 642.441406 447.585938 653.324219 C 446.425781 655.882812 444.761719 658.050781 442.589844 659.832031 C 442.210938 660.179688 441.792969 660.46875 441.332031 660.695312 C 440.871094 660.925781 440.386719 661.078125 439.878906 661.164062 C 439.371094 661.25 438.863281 661.257812 438.351562 661.191406 C 437.839844 661.128906 437.351562 660.988281 436.882812 660.78125 C 436.410156 660.570312 435.980469 660.296875 435.59375 659.960938 C 435.203125 659.625 434.871094 659.238281 434.59375 658.804688 C 434.320312 658.371094 434.109375 657.90625 433.972656 657.410156 C 433.832031 656.917969 433.769531 656.410156 433.777344 655.898438 C 433.886719 648.421875 434.4375 642.804688 425.222656 642.683594 C 413.917969 642.535156 413.960938 650.859375 413.246094 658.550781 C 413.171875 659.332031 412.972656 660.078125 412.644531 660.789062 C 412.316406 661.5 411.882812 662.136719 411.335938 662.703125 C 410.792969 663.265625 410.167969 663.722656 409.46875 664.074219 C 408.765625 664.421875 408.027344 664.648438 407.25 664.746094 C 391.878906 666.472656 376.535156 657.917969 372.507812 642.519531 C 368.328125 626.613281 366.792969 609.976562 364.730469 593.582031 C 363.734375 585.726562 366.214844 574.804688 355.300781 574.5625 C 352.335938 574.492188 349.320312 576.730469 345.871094 579.800781 C 344.242188 581.277344 342.476562 582.566406 340.578125 583.667969 C 338.675781 584.773438 336.679688 585.664062 334.589844 586.34375 C 332.5 587.027344 330.363281 587.480469 328.179688 587.710938 C 325.992188 587.941406 323.804688 587.941406 321.621094 587.707031 C 292.414062 584.503906 260.820312 578.964844 232.988281 557.386719 C 257.238281 559.40625 279.507812 562.921875 301.777344 562.773438 C 346.652344 562.503906 387.933594 549.625 424.523438 522.820312 C 427.417969 520.691406 433.386719 519.800781 436.445312 521.335938 C 483.8125 544.898438 533.824219 549.410156 585.449219 543.28125 C 577.703125 559.109375 529.6875 579.652344 497.433594 584.757812 Z M 659.453125 600.425781 C 659.5 600.9375 659.488281 601.449219 659.421875 601.957031 C 659.351562 602.46875 659.226562 602.960938 659.042969 603.441406 C 658.859375 603.925781 658.625 604.378906 658.339844 604.804688 C 658.050781 605.230469 657.71875 605.621094 657.34375 605.972656 C 656.96875 606.324219 656.558594 606.628906 656.113281 606.882812 C 655.667969 607.140625 655.199219 607.34375 654.707031 607.496094 C 654.214844 607.644531 653.710938 607.734375 653.195312 607.769531 C 652.683594 607.804688 652.171875 607.78125 651.664062 607.699219 C 643.21875 606.351562 640.429688 610.042969 637.480469 621.046875 C 637.003906 622.324219 636.1875 623.332031 635.039062 624.066406 C 634.679688 624.332031 634.296875 624.5625 633.890625 624.753906 C 633.480469 624.945312 633.058594 625.09375 632.625 625.199219 C 632.1875 625.308594 631.742188 625.367188 631.292969 625.386719 C 630.84375 625.40625 630.398438 625.378906 629.953125 625.304688 C 629.511719 625.234375 629.078125 625.121094 628.65625 624.960938 C 628.238281 624.804688 627.835938 624.605469 627.453125 624.367188 C 627.074219 624.128906 626.71875 623.855469 626.394531 623.546875 C 626.066406 623.238281 625.773438 622.898438 625.515625 622.53125 C 617.269531 610.824219 610.320312 611.175781 600.699219 623.59375 C 600.332031 624.070312 599.925781 624.515625 599.480469 624.921875 C 599.039062 625.332031 598.5625 625.699219 598.054688 626.023438 C 597.550781 626.351562 597.019531 626.632812 596.464844 626.871094 C 595.910156 627.109375 595.339844 627.296875 594.753906 627.4375 C 594.167969 627.578125 593.574219 627.667969 592.972656 627.703125 C 592.371094 627.742188 591.769531 627.730469 591.167969 627.667969 C 590.570312 627.605469 589.980469 627.492188 589.398438 627.328125 C 588.820312 627.164062 588.257812 626.953125 587.710938 626.691406 C 573.257812 619.753906 562.574219 609.179688 557.304688 594.902344 C 576.828125 579.894531 596.144531 566.921875 613.1875 551.417969 C 632.15625 534.1875 631.671875 532.976562 643.070312 556.105469 C 649.953125 570.0625 657.808594 583.882812 659.453125 600.425781 Z M 642.179688 508.917969 C 617.929688 515.519531 592.65625 518.710938 567.585938 522.46875 C 552.808594 524.703125 538.035156 524.703125 523.261719 522.46875 C 494.027344 518.039062 466.542969 509.363281 441.308594 492.914062 L 440.40625 492.347656 C 438.417969 491.257812 436.769531 489.785156 435.460938 487.929688 C 422.460938 468.597656 420.277344 437.292969 419.996094 422.796875 C 420.507812 421.53125 422.394531 413.371094 422.890625 412.023438 C 431.109375 389.039062 440.589844 366.585938 451.332031 344.667969 C 483.503906 279.523438 553.289062 257.109375 619.199219 273.273438 C 647.085938 280.074219 665.890625 298.585938 680.320312 322.253906 C 696.488281 348.738281 705.8125 377.78125 709.960938 408.332031 C 715.6875 451.085938 686.085938 497.007812 642.179688 508.917969 Z M 642.179688 508.917969 " fill-opacity="1" fill-rule="nonzero"/></svg>