<svg xmlns="http://www.w3.org/2000/svg" xmlns:xlink="http://www.w3.org/1999/xlink" width="1080" zoomAndPan="magnify" viewBox="0 0 810 809.999993" height="1080" preserveAspectRatio="xMidYMid meet" version="1.0"><defs><clipPath id="35718659cc"><path d="M 81 109.433594 L 729.75 109.433594 L 729.75 743.933594 L 81 743.933594 Z M 81 109.433594 " clip-rule="nonzero"/></clipPath></defs><g clip-path="url(#35718659cc)"><path fill="#000000" d="M 376.050781 120.070312 C 402.390625 119.777344 431.738281 122.703125 460.453125 130.777344 C 463.78125 131.710938 466.148438 131.152344 467.734375 127.953125 C 469.644531 124.089844 471.5 120.191406 473.605469 116.433594 C 477.175781 110.050781 481.816406 108.054688 487.195312 110.34375 C 493.90625 113.199219 496.320312 118.230469 494.40625 125.320312 C 493.203125 129.765625 490.539062 133.351562 487.621094 136.757812 C 486.1875 138.429688 485.347656 139.332031 488.324219 140.539062 C 548.046875 164.8125 597.300781 203.214844 638.226562 252.609375 C 676.832031 299.203125 701.96875 352.675781 718.140625 410.683594 C 722.78125 427.324219 726.589844 444.121094 729.320312 461.171875 C 729.644531 463.1875 730.351562 465.113281 728.332031 466.648438 C 726.199219 468.269531 723.886719 468 721.796875 466.867188 C 717.734375 464.667969 713.886719 462.070312 709.820312 459.890625 C 690.355469 449.460938 669.757812 443.136719 647.484375 443.601562 C 632.046875 443.929688 617.285156 447.617188 603.230469 453.941406 C 599.375 455.675781 596.703125 454.910156 593.769531 452.058594 C 563.679688 422.765625 527.835938 414.867188 487.558594 423.78125 C 483.507812 424.679688 479.410156 425.515625 475.480469 426.816406 C 471.617188 428.09375 469.003906 426.925781 466.707031 423.851562 C 454.417969 407.425781 437.726562 396.917969 419.277344 388.847656 C 413.8125 386.457031 413.550781 386.71875 411.652344 392.515625 C 389.933594 458.835938 368.203125 525.152344 346.457031 591.460938 C 345.386719 594.722656 343.121094 597.746094 345.753906 601.402344 C 346.351562 602.234375 345.796875 604.140625 345.367188 605.417969 C 335.070312 636.082031 326.707031 667.402344 314.609375 697.449219 C 308.816406 711.84375 299.761719 724.15625 287.210938 733.472656 C 254.113281 758.050781 210.492188 736.242188 203.414062 699.769531 C 199.941406 681.875 202.234375 664.773438 212.589844 649.28125 C 215.214844 645.355469 218.484375 642.125 223.035156 640.523438 C 228.972656 638.433594 234.695312 638.8125 239.515625 643.117188 C 244.425781 647.503906 245.0625 653.1875 243.273438 659.257812 C 240.789062 667.6875 237.730469 676.042969 238.5625 685.027344 C 239.273438 692.695312 240.949219 700.050781 248.226562 704.511719 C 255.335938 708.871094 262.804688 708.183594 269.164062 702.796875 C 275.863281 697.128906 279.933594 689.78125 282.75 681.660156 C 290.460938 659.394531 298.074219 637.09375 305.761719 614.820312 C 308.816406 605.96875 311.117188 596.6875 319.316406 590.679688 C 320.074219 590.125 320.363281 588.832031 320.695312 587.824219 C 336.625 539.40625 352.507812 490.96875 368.472656 442.5625 C 375.03125 422.675781 381.683594 402.820312 388.484375 383.015625 C 389.585938 379.804688 389.148438 378.507812 385.855469 377.28125 C 362.382812 368.542969 338.503906 366.613281 314.144531 372.746094 C 309.53125 373.90625 306.917969 372.699219 304.296875 368.632812 C 288.457031 344.042969 266.242188 327.445312 238.9375 317.398438 C 220.742188 310.707031 202.066406 309.210938 182.949219 311.78125 C 180.980469 312.042969 178.945312 311.949219 176.949219 311.871094 C 174.839844 311.789062 173.519531 310.550781 173.03125 308.546875 C 167.84375 287.238281 153.980469 272.730469 135.953125 261.664062 C 121.96875 253.085938 106.613281 248.269531 90.40625 245.988281 C 86.984375 245.503906 82.683594 245.777344 81.335938 241.742188 C 79.960938 237.625 83.691406 235.378906 86.246094 233.089844 C 126.070312 197.417969 171.277344 170.527344 220.824219 150.761719 C 253.449219 137.742188 287.195312 128.886719 321.976562 124.058594 C 338.773438 121.730469 355.679688 120.460938 376.050781 120.070312 Z M 500.820312 359.078125 C 503.125 346.84375 504.867188 334.695312 506.054688 322.460938 C 510.34375 278.402344 508.265625 234.71875 498.359375 191.507812 C 495.324219 178.257812 491.117188 165.371094 485.035156 153.191406 C 481.761719 146.632812 472.773438 144.28125 466.703125 148.152344 C 454.636719 155.855469 444.648438 165.96875 435.054688 176.402344 C 399.847656 214.703125 372.203125 258.144531 348.820312 304.4375 C 348.46875 305.136719 347.574219 305.921875 348.175781 306.5625 C 410.042969 292.339844 460.65625 309.65625 500.820312 359.078125 Z M 214.253906 263.347656 C 264.230469 250.59375 308.367188 255.839844 340.761719 300.703125 C 371.089844 242.472656 405.824219 188.0625 455.683594 144.753906 C 439.601562 139.523438 382.78125 149.472656 347.652344 163.886719 C 294.859375 185.542969 250.984375 219.214844 214.253906 263.347656 Z M 625.757812 407.820312 C 625.59375 394.613281 624.734375 382.851562 622.917969 371.164062 C 618.632812 343.636719 610.832031 317.113281 600.429688 291.296875 C 582.128906 245.878906 556.160156 205.742188 519.375 173.039062 C 512.390625 166.832031 504.992188 161.140625 496.667969 156.949219 C 495.816406 157.875 496.351562 158.410156 496.558594 158.921875 C 509.882812 191.636719 514.457031 226.066406 515.941406 260.988281 C 517.285156 292.628906 515.609375 324.160156 509.683594 355.359375 C 508.988281 359.035156 509.261719 360.351562 513.78125 359.433594 C 541.941406 353.734375 567.828125 359.40625 591.589844 375.535156 C 604.335938 384.1875 615.210938 394.75 625.757812 407.820312 Z M 106.621094 226.152344 C 109.347656 225.730469 111.15625 225.425781 112.96875 225.171875 C 136.824219 221.816406 159.3125 225.21875 179.820312 238.605469 C 188.261719 244.117188 195.898438 250.5625 202.488281 258.195312 C 204.273438 260.269531 205.644531 260.914062 207.425781 258.359375 C 208.125 257.351562 209.0625 256.515625 209.851562 255.566406 C 222.785156 239.992188 236.796875 225.472656 252.25 212.378906 C 299.167969 172.628906 352.417969 146.507812 413.59375 137.542969 C 420.839844 136.480469 428.136719 135.796875 435.40625 134.941406 C 428.5625 132.222656 421.453125 131.3125 414.371094 130.46875 C 383.542969 126.796875 352.847656 128.589844 322.195312 132.738281 C 284.871094 137.789062 248.984375 148.109375 214.273438 162.464844 C 175.75 178.394531 140.351562 199.78125 106.621094 226.152344 Z M 529.601562 170.785156 C 530.214844 171.464844 530.765625 172.210938 531.441406 172.816406 C 546.488281 186.238281 559.1875 201.722656 570.703125 218.164062 C 592.277344 248.96875 608.082031 282.609375 618.917969 318.582031 C 627.792969 348.050781 634.71875 377.875 633.714844 408.972656 C 633.578125 413.167969 635.9375 411.527344 637.875 410.957031 C 656.886719 405.359375 674.746094 408.050781 691.453125 418.554688 C 700.875 424.480469 709.304688 431.613281 717.128906 441.414062 C 691.519531 324.4375 631.921875 232.683594 529.601562 170.785156 Z M 309.632812 360.816406 C 317.082031 343.628906 325.722656 327.691406 335.417969 312.324219 C 336.515625 310.582031 336.214844 309.292969 335.210938 307.730469 C 324.675781 291.292969 310.71875 278.984375 292.324219 272.011719 C 267.460938 262.585938 242.496094 264.3125 217.519531 271.445312 C 213.695312 272.535156 209.285156 272.976562 206.441406 275.800781 C 198.148438 284.027344 190.863281 293.140625 184.195312 303.148438 C 231.738281 297.460938 277.839844 318.269531 309.632812 360.816406 Z M 592.238281 438.449219 C 593.207031 437.199219 592.519531 435.996094 592.375 434.847656 C 590.140625 417.21875 586.222656 399.996094 580.40625 383.179688 C 578.976562 379.039062 576.761719 376.316406 572.921875 374.449219 C 551.496094 364.050781 529.34375 363.347656 506.734375 369.511719 C 498.28125 371.816406 498.378906 372 493.925781 364.710938 C 491.757812 361.167969 489.460938 357.6875 486.027344 354.382812 C 483.078125 374.875 480.316406 394.382812 477.425781 413.875 C 476.960938 416.996094 477.832031 417.800781 480.816406 416.976562 C 484.816406 415.863281 488.832031 414.726562 492.910156 414 C 527.53125 407.839844 559.375 414.027344 587.742188 435.542969 C 589.148438 436.605469 590.285156 438.207031 592.238281 438.449219 Z M 210.210938 684.703125 C 210.246094 689.195312 211.210938 695.066406 212.375 701 C 217.292969 726.121094 254.070312 749.890625 283.984375 725.503906 C 297.011719 714.882812 304.984375 700.917969 310.332031 685.449219 C 319.242188 659.683594 327.53125 633.707031 336.113281 607.828125 C 337.765625 602.84375 336.734375 600.453125 331.878906 598.542969 C 326.441406 596.402344 321.6875 598.070312 318.980469 603.238281 C 317.84375 605.414062 316.894531 607.710938 316.097656 610.039062 C 308.078125 633.511719 300.09375 656.996094 292.132812 680.488281 C 289.945312 686.941406 287.347656 693.21875 283.511719 698.859375 C 278.949219 705.558594 273.699219 711.75 265.730469 714.441406 C 250.472656 719.59375 233.476562 708.328125 231.023438 691.628906 C 229.613281 682.019531 230.367188 672.589844 233.519531 663.359375 C 234.410156 660.746094 235.167969 658.0625 235.679688 655.351562 C 236.191406 652.625 235.59375 650.09375 233 648.496094 C 230.519531 646.964844 228.007812 647.242188 225.53125 648.546875 C 222.300781 650.25 219.914062 652.808594 218.035156 655.902344 C 212.945312 664.28125 210.667969 673.453125 210.210938 684.703125 Z M 317.285156 363.542969 C 318.839844 363.238281 319.386719 363.121094 319.9375 363.023438 C 343.515625 358.777344 366.550781 360.652344 388.847656 369.554688 C 392.082031 370.847656 392.964844 370.101562 393.964844 367.160156 C 399.824219 349.976562 405.769531 332.820312 411.898438 315.730469 C 412.910156 312.917969 412.070312 312.308594 409.632812 311.898438 C 388.136719 308.300781 367.023438 309.917969 346.167969 316.152344 C 342.78125 317.167969 340.515625 319.046875 338.886719 322.007812 C 334.660156 329.691406 330.296875 337.304688 326.222656 345.070312 C 323.183594 350.867188 320.503906 356.851562 317.285156 363.542969 Z M 469.425781 413.691406 C 470.019531 410.277344 470.503906 407.867188 470.855469 405.4375 C 473.367188 387.921875 474.597656 370.210938 478.226562 352.882812 C 479.226562 348.113281 477.816406 345.558594 474.46875 342.789062 C 463.855469 334.011719 452.539062 326.457031 439.929688 320.785156 C 436.574219 319.273438 435.578125 319.847656 434.539062 323.109375 C 428.921875 340.691406 423.15625 358.222656 417.34375 375.738281 C 416.542969 378.144531 416.886719 379.277344 419.4375 380.136719 C 427.78125 382.949219 435.46875 387.148438 442.984375 391.714844 C 452.617188 397.574219 461.050781 404.886719 469.425781 413.691406 Z M 337.070312 591.59375 C 338.1875 591.300781 338.289062 589.617188 338.726562 588.285156 C 346.691406 564.011719 354.621094 539.71875 362.585938 515.445312 C 383.898438 450.507812 405.203125 385.566406 426.625 320.664062 C 427.539062 317.902344 427.535156 316.871094 424.519531 315.753906 C 420.210938 314.15625 419.878906 317.125 419.011719 319.652344 C 411.492188 341.488281 403.816406 363.273438 396.550781 385.195312 C 374.597656 451.398438 352.804688 517.65625 330.953125 583.890625 C 329.492188 588.320312 331.53125 591.253906 337.070312 591.59375 Z M 713.371094 451.585938 C 703.664062 436.328125 690.308594 425.613281 673.582031 419.273438 C 659.675781 414.003906 645.960938 416.742188 632.46875 421.257812 C 628.890625 422.457031 626.527344 421.988281 624.117188 418.855469 C 615.179688 407.238281 605.429688 396.347656 593.890625 387.199219 C 592.691406 386.25 591.65625 384.730469 589.570312 384.917969 C 595.695312 403.890625 599.882812 422.929688 601.132812 442.539062 C 601.402344 446.757812 603.640625 444.921875 605.460938 444.191406 C 634.984375 432.328125 664.574219 432.597656 694.261719 443.550781 C 700.722656 445.933594 707.027344 448.664062 713.371094 451.585938 Z M 178.390625 297.246094 C 184.203125 288.347656 190.277344 280.398438 196.921875 272.929688 C 199.800781 269.6875 199.507812 267.398438 196.816406 264.273438 C 177.425781 241.738281 153.023438 230.855469 123.292969 232.476562 C 113.800781 232.992188 104.441406 234.621094 94.253906 238.046875 C 131.96875 244.949219 161.347656 261.71875 178.390625 297.246094 Z M 487.152344 121.445312 C 486.917969 120.078125 486.25 118.902344 484.78125 118.429688 C 483.210938 117.925781 481.96875 118.699219 481.265625 119.964844 C 478.726562 124.519531 476.195312 129.089844 473.90625 133.773438 C 472.769531 136.097656 474.753906 135.890625 476.089844 135.679688 C 478.628906 135.28125 487.226562 124.183594 487.152344 121.445312 Z M 487.152344 121.445312 " fill-opacity="1" fill-rule="nonzero"/></g></svg>