<svg xmlns="http://www.w3.org/2000/svg" xmlns:xlink="http://www.w3.org/1999/xlink" width="1080" zoomAndPan="magnify" viewBox="0 0 810 809.999993" height="1080" preserveAspectRatio="xMidYMid meet" version="1.0"><defs><clipPath id="bbba8991fe"><path d="M 83.378906 81 L 726.878906 81 L 726.878906 692.25 L 83.378906 692.25 Z M 83.378906 81 " clip-rule="nonzero"/></clipPath></defs><g clip-path="url(#bbba8991fe)"><path fill="#070603" d="M 480.214844 482.023438 C 480.480469 478.03125 480.613281 473.910156 480.613281 469.917969 C 480.625 467.066406 480.5625 464.21875 480.429688 461.371094 C 480.296875 458.523438 480.097656 455.679688 479.824219 452.839844 C 479.550781 450.003906 479.210938 447.175781 478.800781 444.355469 C 478.386719 441.535156 477.90625 438.722656 477.355469 435.925781 C 476.808594 433.128906 476.1875 430.347656 475.5 427.582031 C 474.8125 424.816406 474.058594 422.066406 473.238281 419.335938 C 472.414062 416.609375 471.523438 413.902344 470.566406 411.214844 C 469.613281 408.53125 468.589844 405.867188 467.503906 403.234375 C 466.414062 400.597656 465.261719 397.992188 464.046875 395.414062 C 462.832031 392.835938 461.550781 390.289062 460.210938 387.773438 C 458.867188 385.257812 457.464844 382.773438 456.003906 380.328125 C 454.539062 377.882812 453.015625 375.472656 451.433594 373.101562 C 449.847656 370.730469 448.210938 368.398438 446.511719 366.109375 C 444.8125 363.816406 443.058594 361.570312 441.25 359.367188 C 439.441406 357.164062 437.582031 355.003906 435.667969 352.890625 C 433.75 350.777344 431.785156 348.714844 429.769531 346.699219 C 427.75 344.683594 425.6875 342.71875 423.574219 340.804688 C 421.457031 338.890625 419.300781 337.03125 417.09375 335.222656 C 414.886719 333.414062 412.640625 331.664062 410.347656 329.964844 C 408.054688 328.269531 405.722656 326.628906 403.351562 325.046875 C 400.976562 323.464844 398.566406 321.945312 396.121094 320.480469 C 393.671875 319.015625 391.1875 317.613281 388.671875 316.273438 C 386.15625 314.933594 383.605469 313.65625 381.027344 312.441406 C 378.445312 311.222656 375.839844 310.074219 373.203125 308.988281 C 370.566406 307.898438 367.902344 306.878906 365.214844 305.921875 C 362.527344 304.96875 359.820312 304.078125 357.089844 303.257812 C 354.355469 302.433594 351.609375 301.679688 348.839844 300.992188 C 346.070312 300.304688 343.289062 299.6875 340.488281 299.136719 C 337.691406 298.589844 334.878906 298.109375 332.058594 297.695312 C 329.234375 297.285156 326.402344 296.945312 323.566406 296.671875 C 320.726562 296.398438 317.882812 296.199219 315.03125 296.066406 C 312.183594 295.933594 309.332031 295.875 306.480469 295.882812 C 210.359375 295.882812 132.210938 373.984375 132.210938 469.917969 C 132.210938 565.847656 210.359375 643.953125 306.480469 643.953125 C 309.203125 643.949219 311.925781 643.882812 314.644531 643.753906 C 317.367188 643.625 320.082031 643.433594 322.792969 643.175781 C 325.503906 642.921875 328.207031 642.601562 330.902344 642.21875 C 333.597656 641.835938 336.285156 641.390625 338.960938 640.878906 C 341.636719 640.371094 344.296875 639.800781 346.945312 639.167969 C 349.59375 638.535156 352.226562 637.839844 354.839844 637.082031 C 357.457031 636.324219 360.054688 635.507812 362.632812 634.628906 C 365.207031 633.75 367.765625 632.8125 370.296875 631.8125 C 372.832031 630.816406 375.339844 629.757812 377.824219 628.640625 C 380.308594 627.527344 382.761719 626.351562 385.191406 625.121094 C 387.621094 623.890625 390.019531 622.605469 392.386719 621.261719 C 394.757812 619.917969 397.09375 618.519531 399.394531 617.066406 C 401.699219 615.613281 403.964844 614.109375 406.199219 612.550781 C 408.429688 610.992188 410.625 609.378906 412.78125 607.71875 C 414.9375 606.054688 417.054688 604.34375 419.128906 602.585938 C 421.207031 600.824219 423.242188 599.015625 425.230469 597.160156 C 427.222656 595.300781 429.171875 593.402344 431.074219 591.453125 C 432.976562 589.503906 434.832031 587.515625 436.640625 585.480469 C 438.449219 583.445312 440.210938 581.371094 441.921875 579.253906 C 443.632812 577.136719 445.292969 574.980469 446.902344 572.785156 C 448.515625 570.589844 450.074219 568.359375 451.578125 566.09375 C 453.085938 563.824219 454.535156 561.523438 455.933594 559.1875 C 457.332031 556.851562 458.675781 554.484375 459.960938 552.085938 C 461.25 549.6875 462.476562 547.261719 463.652344 544.804688 C 464.824219 542.347656 465.9375 539.867188 466.996094 537.355469 C 468.050781 534.847656 469.050781 532.316406 469.988281 529.761719 C 470.925781 527.207031 471.800781 524.628906 472.617188 522.035156 C 473.4375 519.4375 474.191406 516.824219 474.886719 514.191406 C 475.582031 511.5625 476.210938 508.914062 476.78125 506.253906 C 477.351562 503.59375 477.859375 500.917969 478.304688 498.234375 C 478.75 495.546875 479.132812 492.855469 479.449219 490.152344 C 479.769531 487.449219 480.023438 484.738281 480.214844 482.023438 Z M 380.898438 612.417969 C 371.96875 617.085938 362.679688 620.875 353.03125 623.785156 C 343.382812 626.691406 333.546875 628.667969 323.519531 629.714844 C 317.859375 630.355469 312.179688 630.667969 306.480469 630.644531 C 217.683594 630.644531 145.527344 558.53125 145.527344 469.917969 C 145.527344 381.304688 217.683594 309.1875 306.480469 309.1875 C 312.179688 309.167969 317.859375 309.476562 323.519531 310.117188 C 338.605469 311.644531 353.160156 315.28125 367.1875 321.03125 C 371.882812 322.886719 376.453125 325.015625 380.898438 327.414062 C 383.828125 328.9375 386.710938 330.550781 389.539062 332.253906 C 392.371094 333.953125 395.144531 335.742188 397.863281 337.613281 C 400.582031 339.488281 403.242188 341.441406 405.839844 343.476562 C 408.441406 345.515625 410.972656 347.628906 413.441406 349.824219 C 415.910156 352.015625 418.304688 354.285156 420.632812 356.625 C 422.960938 358.96875 425.214844 361.378906 427.390625 363.859375 C 429.570312 366.339844 431.671875 368.886719 433.691406 371.496094 C 435.710938 374.105469 437.652344 376.777344 439.507812 379.507812 C 441.363281 382.238281 443.132812 385.023438 444.816406 387.863281 C 446.5 390.703125 448.09375 393.589844 449.597656 396.527344 C 451.105469 399.464844 452.515625 402.449219 453.835938 405.472656 C 455.15625 408.5 456.382812 411.5625 457.515625 414.664062 C 458.644531 417.761719 459.679688 420.894531 460.617188 424.0625 C 461.554688 427.226562 462.394531 430.417969 463.132812 433.632812 C 463.875 436.851562 464.511719 440.085938 465.054688 443.34375 C 465.59375 446.597656 466.03125 449.867188 466.371094 453.152344 C 466.902344 458.738281 467.300781 464.328125 467.300781 469.917969 C 467.304688 473.566406 467.179688 477.214844 466.933594 480.855469 C 466.6875 484.5 466.316406 488.128906 465.824219 491.746094 C 465.328125 495.363281 464.710938 498.960938 463.972656 502.535156 C 463.230469 506.113281 462.371094 509.65625 461.390625 513.175781 C 460.40625 516.691406 459.308594 520.171875 458.089844 523.613281 C 456.867188 527.054688 455.535156 530.449219 454.082031 533.800781 C 452.632812 537.152344 451.070312 540.449219 449.390625 543.691406 C 447.714844 546.9375 445.933594 550.121094 444.039062 553.242188 C 442.144531 556.363281 440.148438 559.417969 438.046875 562.40625 C 435.945312 565.390625 433.742188 568.304688 431.445312 571.140625 C 429.144531 573.976562 426.75 576.730469 424.261719 579.402344 C 421.773438 582.074219 419.195312 584.660156 416.53125 587.160156 C 413.867188 589.65625 411.121094 592.058594 408.289062 594.371094 C 405.460938 596.679688 402.558594 598.890625 399.578125 601.003906 C 396.597656 603.117188 393.550781 605.125 390.433594 607.027344 C 387.316406 608.933594 384.140625 610.730469 380.898438 612.417969 Z M 399.273438 430.398438 L 350.414062 423.347656 C 349.417969 423.191406 348.511719 422.820312 347.691406 422.234375 C 346.871094 421.648438 346.222656 420.910156 345.753906 420.023438 L 323.789062 375.714844 C 323.40625 374.898438 322.96875 374.109375 322.472656 373.355469 C 321.980469 372.601562 321.433594 371.886719 320.839844 371.207031 C 320.242188 370.53125 319.601562 369.902344 318.914062 369.316406 C 318.226562 368.730469 317.5 368.199219 316.738281 367.714844 C 315.976562 367.234375 315.179688 366.8125 314.355469 366.445312 C 313.535156 366.074219 312.6875 365.769531 311.820312 365.523438 C 310.949219 365.277344 310.070312 365.09375 309.175781 364.972656 C 308.28125 364.851562 307.382812 364.796875 306.480469 364.804688 C 305.574219 364.796875 304.671875 364.855469 303.773438 364.976562 C 302.875 365.097656 301.988281 365.28125 301.117188 365.527344 C 300.246094 365.777344 299.394531 366.082031 298.566406 366.449219 C 297.738281 366.816406 296.941406 367.242188 296.171875 367.722656 C 295.402344 368.203125 294.671875 368.734375 293.980469 369.320312 C 293.289062 369.90625 292.640625 370.535156 292.035156 371.210938 C 291.433594 371.886719 290.878906 372.601562 290.378906 373.355469 C 289.875 374.109375 289.429688 374.898438 289.039062 375.714844 L 267.074219 420.023438 C 266.632812 420.910156 266.011719 421.648438 265.214844 422.234375 C 264.414062 422.820312 263.527344 423.191406 262.546875 423.347656 L 213.554688 430.398438 C 212.664062 430.527344 211.78125 430.71875 210.917969 430.972656 C 210.050781 431.222656 209.207031 431.535156 208.382812 431.902344 C 207.558594 432.273438 206.765625 432.699219 206 433.175781 C 205.238281 433.65625 204.511719 434.1875 203.820312 434.769531 C 203.128906 435.347656 202.484375 435.976562 201.882812 436.648438 C 201.277344 437.316406 200.726562 438.027344 200.222656 438.773438 C 199.71875 439.523438 199.269531 440.300781 198.871094 441.113281 C 198.476562 441.921875 198.140625 442.757812 197.859375 443.617188 C 197.582031 444.472656 197.363281 445.34375 197.207031 446.234375 C 197.046875 447.121094 196.953125 448.015625 196.921875 448.917969 C 196.886719 449.816406 196.917969 450.71875 197.007812 451.613281 C 197.101562 452.511719 197.257812 453.398438 197.472656 454.273438 C 197.6875 455.148438 197.964844 456.003906 198.296875 456.84375 C 198.632812 457.679688 199.027344 458.488281 199.472656 459.273438 C 199.921875 460.054688 200.421875 460.804688 200.972656 461.515625 C 201.527344 462.230469 202.125 462.902344 202.773438 463.53125 L 238.183594 498.125 C 238.917969 498.800781 239.4375 499.613281 239.746094 500.558594 C 240.054688 501.507812 240.109375 502.46875 239.914062 503.445312 L 231.527344 552.277344 C 231.386719 553.164062 231.308594 554.054688 231.289062 554.953125 C 231.269531 555.851562 231.316406 556.746094 231.421875 557.636719 C 231.527344 558.53125 231.691406 559.410156 231.917969 560.28125 C 232.144531 561.148438 232.429688 561.996094 232.773438 562.828125 C 233.117188 563.65625 233.515625 564.460938 233.96875 565.234375 C 234.425781 566.007812 234.929688 566.75 235.484375 567.453125 C 236.042969 568.160156 236.644531 568.824219 237.292969 569.445312 C 237.941406 570.066406 238.628906 570.644531 239.355469 571.171875 C 240.082031 571.699219 240.839844 572.171875 241.632812 572.597656 C 242.425781 573.019531 243.242188 573.386719 244.085938 573.699219 C 244.929688 574.007812 245.789062 574.257812 246.667969 574.453125 C 247.542969 574.644531 248.429688 574.773438 249.328125 574.84375 C 250.222656 574.914062 251.121094 574.921875 252.015625 574.871094 C 252.914062 574.816406 253.800781 574.703125 254.683594 574.527344 C 255.5625 574.351562 256.429688 574.117188 257.277344 573.820312 C 258.125 573.527344 258.953125 573.175781 259.75 572.765625 L 303.550781 549.75 C 304.449219 549.289062 305.402344 549.054688 306.414062 549.054688 C 307.421875 549.054688 308.378906 549.289062 309.277344 549.75 L 353.074219 572.765625 C 355.910156 574.25 358.929688 575.003906 362.128906 575.03125 C 362.832031 575.019531 363.53125 574.972656 364.230469 574.886719 C 364.929688 574.800781 365.621094 574.675781 366.304688 574.519531 C 366.992188 574.359375 367.664062 574.164062 368.328125 573.929688 C 368.996094 573.699219 369.644531 573.433594 370.28125 573.132812 C 370.914062 572.832031 371.53125 572.496094 372.132812 572.128906 C 372.730469 571.761719 373.3125 571.363281 373.867188 570.933594 C 374.425781 570.503906 374.957031 570.046875 375.464844 569.558594 C 375.972656 569.074219 376.453125 568.5625 376.90625 568.023438 C 377.359375 567.484375 377.785156 566.925781 378.175781 566.34375 C 378.570312 565.757812 378.929688 565.15625 379.257812 564.535156 C 379.585938 563.914062 379.882812 563.277344 380.140625 562.625 C 380.402344 561.96875 380.625 561.304688 380.816406 560.628906 C 381.003906 559.949219 381.15625 559.265625 381.273438 558.570312 C 381.386719 557.878906 381.464844 557.179688 381.507812 556.476562 C 381.546875 555.777344 381.550781 555.074219 381.515625 554.371094 C 381.480469 553.671875 381.410156 552.972656 381.300781 552.277344 L 372.914062 503.445312 C 372.71875 502.46875 372.773438 501.507812 373.082031 500.558594 C 373.390625 499.613281 373.910156 498.800781 374.644531 498.125 L 410.054688 463.53125 C 410.703125 462.902344 411.300781 462.230469 411.851562 461.515625 C 412.40625 460.804688 412.90625 460.054688 413.351562 459.273438 C 413.800781 458.488281 414.191406 457.679688 414.527344 456.84375 C 414.863281 456.003906 415.140625 455.148438 415.355469 454.273438 C 415.570312 453.398438 415.726562 452.511719 415.816406 451.613281 C 415.910156 450.71875 415.941406 449.816406 415.90625 448.917969 C 415.875 448.015625 415.777344 447.121094 415.621094 446.234375 C 415.464844 445.34375 415.246094 444.472656 414.964844 443.617188 C 414.6875 442.757812 414.351562 441.921875 413.953125 441.113281 C 413.558594 440.300781 413.109375 439.523438 412.605469 438.773438 C 412.101562 438.027344 411.546875 437.316406 410.945312 436.648438 C 410.34375 435.976562 409.695312 435.347656 409.007812 434.769531 C 408.316406 434.1875 407.589844 433.65625 406.824219 433.175781 C 406.0625 432.699219 405.269531 432.273438 404.445312 431.902344 C 403.621094 431.535156 402.777344 431.222656 401.910156 430.972656 C 401.042969 430.71875 400.164062 430.527344 399.273438 430.398438 Z M 400.738281 454.082031 L 365.324219 488.542969 C 364.207031 489.648438 363.234375 490.867188 362.410156 492.203125 C 361.585938 493.539062 360.929688 494.957031 360.445312 496.449219 C 359.957031 497.941406 359.65625 499.46875 359.535156 501.035156 C 359.414062 502.601562 359.480469 504.160156 359.730469 505.707031 L 368.121094 554.539062 C 368.210938 555.101562 368.226562 555.664062 368.164062 556.226562 C 368.101562 556.792969 367.964844 557.335938 367.753906 557.863281 C 367.542969 558.394531 367.265625 558.882812 366.917969 559.335938 C 366.574219 559.785156 366.175781 560.183594 365.722656 560.527344 C 365.246094 560.851562 364.738281 561.105469 364.195312 561.289062 C 363.648438 561.476562 363.089844 561.585938 362.515625 561.621094 C 361.941406 561.65625 361.375 561.617188 360.8125 561.496094 C 360.25 561.378906 359.710938 561.1875 359.199219 560.925781 L 315.398438 537.90625 C 314.019531 537.167969 312.566406 536.605469 311.046875 536.226562 C 309.527344 535.84375 307.980469 535.652344 306.414062 535.652344 C 304.847656 535.652344 303.300781 535.84375 301.78125 536.226562 C 300.261719 536.605469 298.808594 537.167969 297.425781 537.90625 L 253.628906 560.925781 C 253.117188 561.1875 252.578125 561.378906 252.015625 561.496094 C 251.453125 561.617188 250.886719 561.65625 250.3125 561.621094 C 249.738281 561.585938 249.179688 561.476562 248.632812 561.289062 C 248.089844 561.105469 247.578125 560.851562 247.105469 560.527344 C 246.652344 560.183594 246.253906 559.785156 245.90625 559.335938 C 245.5625 558.882812 245.285156 558.394531 245.074219 557.863281 C 244.863281 557.335938 244.726562 556.792969 244.664062 556.226562 C 244.601562 555.664062 244.617188 555.101562 244.707031 554.539062 L 253.09375 505.707031 C 253.347656 504.160156 253.414062 502.601562 253.292969 501.035156 C 253.171875 499.46875 252.871094 497.941406 252.382812 496.449219 C 251.898438 494.957031 251.242188 493.539062 250.417969 492.203125 C 249.589844 490.867188 248.621094 489.648438 247.503906 488.542969 L 212.089844 454.082031 C 211.679688 453.6875 211.332031 453.246094 211.042969 452.75 C 210.753906 452.257812 210.542969 451.738281 210.398438 451.183594 C 210.257812 450.632812 210.195312 450.070312 210.210938 449.5 C 210.226562 448.929688 210.320312 448.375 210.492188 447.828125 C 210.675781 447.285156 210.925781 446.777344 211.246094 446.300781 C 211.5625 445.828125 211.941406 445.402344 212.371094 445.027344 C 212.804688 444.652344 213.28125 444.339844 213.796875 444.09375 C 214.316406 443.847656 214.855469 443.671875 215.417969 443.570312 L 264.410156 436.519531 C 265.96875 436.289062 267.480469 435.875 268.9375 435.277344 C 270.398438 434.679688 271.765625 433.917969 273.039062 432.992188 C 274.3125 432.066406 275.460938 431 276.476562 429.796875 C 277.496094 428.59375 278.355469 427.285156 279.054688 425.875 L 300.890625 381.570312 C 301.136719 381.046875 301.453125 380.570312 301.839844 380.140625 C 302.222656 379.707031 302.660156 379.339844 303.148438 379.03125 C 303.636719 378.722656 304.160156 378.488281 304.714844 378.328125 C 305.269531 378.167969 305.835938 378.089844 306.414062 378.089844 C 306.992188 378.089844 307.558594 378.167969 308.113281 378.328125 C 308.667969 378.488281 309.191406 378.722656 309.679688 379.03125 C 310.167969 379.339844 310.605469 379.707031 310.988281 380.140625 C 311.371094 380.570312 311.6875 381.046875 311.9375 381.570312 L 333.773438 425.875 C 334.472656 427.285156 335.332031 428.59375 336.351562 429.796875 C 337.367188 431 338.511719 432.066406 339.789062 432.992188 C 341.0625 433.917969 342.429688 434.679688 343.890625 435.277344 C 345.347656 435.875 346.855469 436.289062 348.417969 436.519531 L 397.40625 443.570312 C 397.976562 443.667969 398.519531 443.835938 399.039062 444.082031 C 399.558594 444.324219 400.035156 444.632812 400.46875 445.011719 C 400.902344 445.386719 401.277344 445.8125 401.597656 446.292969 C 401.914062 446.769531 402.160156 447.28125 402.332031 447.828125 C 402.503906 448.375 402.597656 448.929688 402.613281 449.5 C 402.628906 450.070312 402.566406 450.632812 402.425781 451.183594 C 402.285156 451.738281 402.070312 452.257812 401.785156 452.75 C 401.496094 453.246094 401.148438 453.6875 400.738281 454.082031 Z M 717.1875 166.15625 C 707.46875 151.652344 691.757812 146.0625 679.113281 141.671875 C 672.292969 139.308594 665.3125 137.625 658.167969 136.617188 C 651.023438 135.609375 643.847656 135.300781 636.644531 135.683594 C 627.191406 121.582031 596.171875 82.332031 545.183594 81 C 539.988281 80.84375 534.808594 81.070312 529.648438 81.675781 C 524.488281 82.277344 519.398438 83.257812 514.382812 84.609375 C 509.363281 85.960938 504.472656 87.671875 499.707031 89.742188 C 494.941406 91.816406 490.351562 94.222656 485.941406 96.964844 C 453.054688 89.25 416.84375 98.296875 386.226562 122.644531 C 381.183594 126.605469 376.460938 130.917969 372.054688 135.574219 C 367.648438 140.230469 363.605469 145.183594 359.929688 150.433594 C 356.253906 155.6875 352.984375 161.179688 350.117188 166.914062 C 347.25 172.644531 344.820312 178.558594 342.824219 184.648438 C 341.105469 189.898438 339.734375 195.238281 338.71875 200.667969 C 337.703125 206.097656 337.050781 211.570312 336.757812 217.085938 C 336.464844 222.601562 336.539062 228.109375 336.972656 233.617188 C 337.410156 239.125 338.207031 244.578125 339.363281 249.980469 C 328.464844 248.332031 317.503906 247.488281 306.480469 247.449219 C 183.734375 247.449219 83.886719 347.242188 83.886719 469.917969 C 83.886719 592.59375 183.734375 692.25 306.480469 692.25 C 326.222656 692.300781 345.613281 689.726562 364.65625 684.53125 C 383.746094 689.726562 403.183594 692.300781 422.96875 692.25 C 545.714844 692.25 645.5625 592.59375 645.5625 469.917969 C 645.5625 347.242188 545.714844 247.449219 422.96875 247.449219 C 403.179688 247.445312 383.742188 250.0625 364.65625 255.300781 C 361.0625 254.234375 357.46875 253.304688 353.742188 252.507812 C 341.894531 208.730469 357.601562 162.164062 394.480469 133.023438 C 418.441406 113.996094 445.867188 105.347656 471.695312 108.011719 C 465.609375 113.808594 460.503906 120.375 456.386719 127.703125 C 448.398438 142.203125 446.265625 158.570312 450.792969 172.675781 C 457.449219 194.230469 480.347656 209.132812 502.847656 206.601562 C 525.347656 204.074219 543.851562 184.648438 545.980469 160.699219 C 548.113281 136.75 532.535156 115.726562 502.980469 102.6875 C 509.570312 99.746094 516.402344 97.566406 523.480469 96.152344 C 530.554688 94.738281 537.703125 94.121094 544.917969 94.304688 C 590.578125 95.503906 618.9375 133.15625 626.257812 144.066406 C 620.691406 154.019531 616.964844 164.621094 615.074219 175.867188 C 613.34375 187.042969 610.015625 207.800781 621.066406 225.761719 C 629.320312 239.203125 644.628906 249.980469 661.140625 253.835938 C 665.46875 254.894531 669.863281 255.429688 674.320312 255.433594 C 679.066406 255.453125 683.726562 254.816406 688.296875 253.527344 C 692.867188 252.238281 697.171875 250.347656 701.210938 247.851562 C 713.460938 240.265625 721.714844 228.289062 725.042969 213.390625 C 728.371094 198.488281 725.574219 178.792969 717.1875 166.15625 Z M 97.199219 469.917969 C 97.199219 354.558594 191.054688 260.757812 306.480469 260.757812 C 325.644531 260.773438 344.460938 263.34375 362.925781 268.472656 C 369.316406 270.335938 375.574219 272.332031 381.566406 274.726562 L 385.558594 276.324219 L 386.359375 276.589844 C 390.351562 278.1875 394.214844 280.046875 397.941406 281.910156 C 412.855469 289.113281 426.703125 297.984375 439.476562 308.523438 L 439.609375 308.523438 L 439.609375 308.789062 L 439.875 308.789062 C 442.828125 311.230469 445.707031 313.753906 448.519531 316.355469 C 451.328125 318.953125 454.066406 321.628906 456.730469 324.382812 C 459.394531 327.132812 461.980469 329.957031 464.488281 332.851562 C 466.996094 335.742188 469.421875 338.703125 471.769531 341.730469 C 474.113281 344.757812 476.375 347.847656 478.550781 351 C 480.726562 354.148438 482.8125 357.359375 484.808594 360.625 C 486.808594 363.890625 488.714844 367.210938 490.53125 370.582031 C 492.347656 373.953125 494.070312 377.371094 495.699219 380.835938 C 497.324219 384.300781 498.855469 387.808594 500.292969 391.359375 C 501.726562 394.910156 503.0625 398.496094 504.300781 402.117188 C 505.535156 405.742188 506.671875 409.394531 507.710938 413.082031 C 508.746094 416.769531 509.679688 420.480469 510.511719 424.21875 C 511.34375 427.953125 512.070312 431.710938 512.695312 435.488281 C 513.320312 439.265625 513.84375 443.058594 514.257812 446.863281 C 514.675781 450.667969 514.984375 454.484375 515.191406 458.304688 C 515.398438 462.128906 515.5 465.957031 515.496094 469.785156 C 515.496094 471.78125 515.496094 473.640625 515.363281 475.636719 L 515.363281 477.898438 C 515.253906 479.050781 515.207031 480.203125 515.226562 481.359375 C 515.09375 482.421875 515.09375 483.488281 514.960938 484.550781 C 514.828125 485.617188 514.828125 486.28125 514.828125 487.214844 L 514.429688 491.339844 C 514.296875 491.871094 514.296875 492.402344 514.164062 492.933594 C 514.03125 493.46875 513.898438 495.863281 513.628906 497.457031 C 513.652344 497.867188 513.605469 498.265625 513.496094 498.65625 L 512.699219 503.578125 L 512.699219 504.378906 C 512.300781 506.109375 512.03125 507.835938 511.632812 509.566406 L 511.632812 509.964844 C 511.234375 511.695312 510.96875 513.425781 510.570312 515.023438 C 510.167969 516.617188 510.4375 515.421875 510.4375 515.554688 C 508.800781 522.984375 506.757812 530.304688 504.3125 537.507812 C 501.234375 546.457031 497.550781 555.148438 493.261719 563.585938 L 487.9375 573.433594 L 487.804688 573.433594 L 485.273438 577.957031 C 485.140625 578.089844 485.007812 578.222656 485.007812 578.355469 L 482.34375 582.480469 L 481.945312 583.144531 L 479.28125 587.136719 L 478.75 587.9375 L 476.089844 591.660156 L 475.421875 592.59375 C 474.609375 593.800781 473.722656 594.957031 472.761719 596.050781 L 471.960938 597.117188 C 471.164062 598.3125 470.230469 599.378906 469.429688 600.441406 L 468.5 601.640625 C 467.566406 602.703125 466.769531 603.769531 465.835938 604.699219 L 464.773438 606.03125 L 462.242188 608.824219 L 460.910156 610.421875 L 458.515625 612.949219 L 456.917969 614.546875 L 454.652344 616.941406 C 454.042969 617.484375 453.46875 618.0625 452.921875 618.671875 L 450.394531 621.066406 L 448.664062 622.664062 L 445.867188 625.191406 L 444.402344 626.652344 L 441.339844 629.183594 L 439.875 630.378906 L 439.34375 630.777344 C 430.710938 638.03125 421.546875 644.535156 411.855469 650.296875 C 402.160156 656.054688 392.066406 660.992188 381.566406 665.105469 C 375.574219 667.367188 369.316406 669.496094 362.925781 671.226562 C 344.46875 676.421875 325.65625 678.996094 306.480469 678.945312 C 191.054688 678.945312 97.199219 585.140625 97.199219 469.917969 Z M 466.101562 315.042969 C 468.203125 315.625 470.289062 316.25 472.363281 316.914062 C 474.433594 317.582031 476.496094 318.292969 478.539062 319.042969 C 480.582031 319.792969 482.613281 320.582031 484.625 321.417969 C 486.636719 322.25 488.632812 323.125 490.609375 324.035156 C 492.585938 324.949219 494.542969 325.90625 496.480469 326.898438 C 498.417969 327.890625 500.335938 328.921875 502.234375 329.996094 C 504.128906 331.066406 506.003906 332.175781 507.855469 333.324219 C 509.707031 334.46875 511.53125 335.65625 513.335938 336.875 C 515.136719 338.097656 516.914062 339.355469 518.667969 340.648438 C 520.417969 341.941406 522.144531 343.273438 523.84375 344.636719 C 525.539062 346 527.210938 347.398438 528.851562 348.828125 C 530.492188 350.261719 532.101562 351.722656 533.683594 353.222656 C 535.265625 354.71875 536.816406 356.246094 538.335938 357.808594 C 539.855469 359.367188 541.339844 360.957031 542.796875 362.578125 C 544.25 364.199219 545.671875 365.847656 547.058594 367.523438 C 548.445312 369.203125 549.800781 370.910156 551.117188 372.640625 C 552.4375 374.375 553.71875 376.132812 554.964844 377.917969 C 556.210938 379.703125 557.421875 381.511719 558.59375 383.347656 C 559.769531 385.179688 560.902344 387.039062 562 388.917969 C 563.097656 390.800781 564.160156 392.703125 565.179688 394.625 C 566.199219 396.546875 567.179688 398.492188 568.121094 400.453125 C 569.0625 402.417969 569.964844 404.398438 570.824219 406.398438 C 571.683594 408.398438 572.503906 410.414062 573.285156 412.449219 C 574.0625 414.480469 574.800781 416.527344 575.496094 418.59375 C 576.191406 420.65625 576.84375 422.730469 577.457031 424.820312 C 578.066406 426.910156 578.636719 429.011719 579.160156 431.125 C 579.6875 433.238281 580.167969 435.359375 580.609375 437.492188 C 581.046875 439.625 581.445312 441.761719 581.796875 443.910156 C 582.148438 446.058594 582.457031 448.214844 582.722656 450.375 C 582.988281 452.535156 583.207031 454.703125 583.386719 456.871094 C 583.5625 459.039062 583.695312 461.214844 583.78125 463.386719 C 583.871094 465.5625 583.914062 467.738281 583.914062 469.917969 C 583.914062 472.09375 583.871094 474.269531 583.78125 476.445312 C 583.695312 478.621094 583.5625 480.792969 583.386719 482.960938 C 583.207031 485.132812 582.988281 487.296875 582.722656 489.457031 C 582.457031 491.617188 582.148438 493.773438 581.796875 495.921875 C 581.445312 498.070312 581.046875 500.210938 580.609375 502.34375 C 580.167969 504.476562 579.6875 506.597656 579.160156 508.710938 C 578.636719 510.824219 578.066406 512.921875 577.457031 515.011719 C 576.84375 517.101562 576.191406 519.179688 575.496094 521.242188 C 574.800781 523.304688 574.0625 525.351562 573.285156 527.386719 C 572.503906 529.417969 571.683594 531.433594 570.824219 533.433594 C 569.964844 535.433594 569.0625 537.417969 568.121094 539.378906 C 567.179688 541.34375 566.199219 543.285156 565.179688 545.207031 C 564.160156 547.132812 563.097656 549.035156 562 550.914062 C 560.902344 552.792969 559.769531 554.652344 558.59375 556.484375 C 557.421875 558.320312 556.210938 560.128906 554.964844 561.914062 C 553.71875 563.699219 552.4375 565.460938 551.117188 567.191406 C 549.800781 568.925781 548.445312 570.628906 547.058594 572.308594 C 545.671875 573.988281 544.25 575.636719 542.796875 577.257812 C 541.339844 578.875 539.855469 580.46875 538.335938 582.027344 C 536.816406 583.585938 535.265625 585.113281 533.683594 586.613281 C 532.101562 588.109375 530.492188 589.574219 528.851562 591.003906 C 527.210938 592.4375 525.539062 593.835938 523.84375 595.199219 C 522.144531 596.5625 520.417969 597.890625 518.667969 599.183594 C 516.914062 600.476562 515.136719 601.734375 513.335938 602.957031 C 511.53125 604.179688 509.707031 605.363281 507.855469 606.511719 C 506.003906 607.65625 504.128906 608.765625 502.234375 609.839844 C 500.335938 610.910156 498.417969 611.941406 496.480469 612.933594 C 494.542969 613.929688 492.585938 614.882812 490.609375 615.796875 C 488.632812 616.710938 486.636719 617.582031 484.625 618.417969 C 482.613281 619.25 480.582031 620.042969 478.539062 620.792969 C 476.496094 621.542969 474.433594 622.25 472.363281 622.917969 C 470.289062 623.585938 468.203125 624.210938 466.101562 624.792969 L 466.371094 624.527344 L 467.835938 623.0625 L 470.363281 620.269531 L 471.960938 618.539062 L 474.222656 616.011719 L 475.820312 614.148438 L 477.953125 611.484375 L 479.550781 609.625 L 481.679688 606.960938 L 483.144531 605.101562 C 483.808594 604.167969 484.609375 603.238281 485.273438 602.171875 L 486.605469 600.574219 L 489.269531 596.71875 L 489.933594 595.785156 C 491 594.320312 492.0625 592.726562 492.996094 591.128906 L 494.0625 589.53125 L 496.058594 586.207031 L 497.253906 584.34375 L 498.988281 581.28125 L 500.183594 579.289062 L 501.914062 576.359375 C 502.21875 575.625 502.570312 574.914062 502.980469 574.230469 L 504.578125 571.171875 L 505.644531 569.175781 L 507.242188 565.847656 C 507.507812 565.316406 507.773438 564.652344 508.171875 563.984375 C 508.667969 562.664062 509.246094 561.378906 509.902344 560.128906 C 510.058594 559.675781 510.234375 559.230469 510.4375 558.796875 C 511.234375 557.066406 511.898438 555.335938 512.699219 553.476562 C 512.839844 553.015625 513.019531 552.574219 513.230469 552.144531 C 513.765625 550.8125 514.296875 549.484375 514.695312 548.152344 L 515.496094 546.15625 L 516.691406 542.832031 L 517.492188 540.703125 C 517.765625 539.566406 518.121094 538.457031 518.554688 537.375 C 518.71875 536.601562 518.9375 535.847656 519.222656 535.113281 L 520.152344 531.785156 L 520.820312 529.523438 C 521.085938 528.460938 521.484375 527.261719 521.75 526.066406 C 522.019531 524.867188 522.152344 524.734375 522.285156 524.070312 C 522.417969 523.40625 522.949219 521.410156 523.214844 520.078125 L 523.617188 518.347656 L 524.8125 512.761719 C 524.8125 512.492188 524.945312 512.09375 524.945312 511.828125 C 524.945312 511.5625 525.613281 508.636719 525.878906 507.171875 C 525.902344 506.496094 525.992188 505.832031 526.144531 505.175781 C 526.277344 503.84375 526.542969 502.648438 526.675781 501.449219 L 527.078125 499.1875 L 527.476562 495.597656 C 527.609375 494.796875 527.609375 494 527.742188 493.335938 C 527.898438 492.140625 527.988281 490.945312 528.007812 489.742188 C 528.140625 489.078125 528.140625 488.277344 528.273438 487.480469 C 528.410156 486.679688 528.410156 485.085938 528.542969 483.886719 C 528.519531 483.128906 528.5625 482.375 528.675781 481.625 C 528.675781 480.292969 528.808594 478.964844 528.808594 477.632812 L 528.808594 475.769531 C 528.941406 473.773438 528.941406 471.914062 528.941406 469.917969 C 528.941406 467.921875 528.941406 466.058594 528.808594 464.0625 L 528.808594 462.066406 C 528.808594 460.867188 528.675781 459.539062 528.675781 458.207031 C 528.5625 457.457031 528.519531 456.703125 528.542969 455.945312 C 528.410156 454.75 528.410156 453.550781 528.273438 452.351562 C 528.140625 451.15625 528.140625 450.757812 528.007812 449.957031 C 527.980469 448.800781 527.894531 447.648438 527.742188 446.5 C 527.609375 445.699219 527.609375 444.902344 527.476562 444.105469 L 527.078125 440.644531 L 526.675781 438.382812 C 526.566406 437.175781 526.386719 435.976562 526.144531 434.789062 C 526 434.089844 525.910156 433.378906 525.878906 432.660156 C 525.613281 431.199219 525.347656 429.734375 524.945312 428.136719 C 524.546875 426.542969 524.8125 427.339844 524.8125 426.941406 L 523.617188 421.351562 L 523.214844 419.753906 C 522.949219 418.558594 522.683594 417.226562 522.285156 415.898438 C 521.886719 414.566406 521.886719 414.566406 521.75 413.769531 L 520.820312 410.441406 C 520.660156 409.625 520.4375 408.828125 520.152344 408.046875 C 519.886719 406.980469 519.488281 405.917969 519.222656 404.851562 C 518.9375 404.117188 518.71875 403.363281 518.554688 402.589844 C 518.140625 401.546875 517.785156 400.484375 517.492188 399.398438 L 516.691406 397.136719 L 515.496094 393.808594 L 514.695312 391.679688 L 513.363281 388.089844 C 513.085938 387.535156 512.863281 386.957031 512.699219 386.359375 L 510.4375 381.167969 C 510.269531 380.65625 510.046875 380.167969 509.769531 379.707031 L 508.171875 375.980469 L 507.105469 373.984375 C 506.699219 372.925781 506.210938 371.90625 505.644531 370.925781 L 504.578125 368.664062 L 502.980469 365.734375 L 501.78125 363.605469 C 501.347656 362.605469 500.859375 361.628906 500.316406 360.679688 C 499.917969 360.015625 499.386719 359.347656 498.988281 358.550781 L 497.390625 355.757812 L 496.058594 353.628906 C 495.523438 352.5625 494.859375 351.632812 494.195312 350.566406 L 492.996094 348.835938 C 492.0625 347.242188 491 345.644531 489.933594 344.179688 C 489.664062 343.855469 489.441406 343.5 489.269531 343.117188 L 486.605469 339.523438 L 485.273438 337.660156 L 483.144531 334.867188 L 481.679688 332.871094 C 481.015625 332.074219 480.347656 331.140625 479.550781 330.34375 L 477.953125 328.347656 L 475.820312 325.820312 L 474.222656 323.957031 L 471.960938 321.429688 L 470.363281 319.699219 L 467.96875 317.039062 L 466.371094 315.441406 Z M 422.96875 260.757812 C 538.394531 260.757812 632.25 354.558594 632.25 469.917969 C 632.25 585.273438 538.394531 678.945312 422.96875 678.945312 C 411.710938 678.996094 400.527344 678.109375 389.421875 676.285156 L 389.820312 676.285156 L 396.742188 673.355469 L 397.675781 672.957031 L 404.464844 669.765625 L 405.527344 669.230469 C 407.792969 668.167969 409.921875 666.96875 412.050781 665.773438 L 413.117188 665.238281 L 419.640625 661.515625 L 420.574219 660.980469 L 426.964844 656.992188 L 427.894531 656.457031 L 434.152344 652.199219 L 434.816406 651.667969 L 441.207031 647.011719 L 441.605469 646.746094 L 447.066406 642.488281 C 532.800781 630.644531 597.101562 556.800781 597.101562 470.050781 C 597.101562 383.296875 532.800781 309.320312 447.066406 297.480469 L 441.472656 293.222656 L 441.207031 292.953125 C 439.078125 291.226562 436.949219 289.761719 434.816406 288.164062 L 434.152344 287.765625 L 427.761719 283.507812 L 426.964844 282.976562 C 424.832031 281.46875 422.703125 280.136719 420.574219 278.984375 L 419.640625 278.320312 L 413.117188 274.726562 L 412.050781 274.195312 L 405.527344 270.734375 L 404.464844 270.203125 L 397.675781 267.007812 L 396.742188 266.609375 L 389.6875 263.683594 C 389.6875 263.550781 389.554688 263.550781 389.421875 263.550781 C 400.523438 261.679688 411.707031 260.75 422.96875 260.757812 Z M 532.800781 159.367188 C 531.070312 176.933594 517.625 191.566406 501.25 193.429688 C 484.875 195.292969 468.234375 184.117188 463.441406 168.683594 C 460.113281 158.039062 461.84375 145.53125 468.101562 134.089844 C 470.621094 129.636719 473.589844 125.503906 477 121.691406 C 480.414062 117.878906 484.191406 114.46875 488.335938 111.46875 C 491.195312 112.3125 493.992188 113.332031 496.722656 114.53125 C 511.101562 120.648438 534.929688 134.753906 532.800781 159.367188 Z M 711.996094 210.59375 C 711.753906 211.898438 711.449219 213.183594 711.078125 214.457031 C 710.703125 215.726562 710.269531 216.976562 709.765625 218.199219 C 709.265625 219.425781 708.703125 220.625 708.078125 221.792969 C 707.453125 222.960938 706.773438 224.09375 706.03125 225.191406 C 705.289062 226.289062 704.492188 227.347656 703.644531 228.363281 C 702.792969 229.378906 701.894531 230.347656 700.945312 231.273438 C 699.996094 232.195312 699 233.070312 697.960938 233.890625 C 696.917969 234.710938 695.839844 235.476562 694.722656 236.1875 C 693.601562 236.898438 692.449219 237.546875 691.265625 238.140625 C 690.078125 238.730469 688.867188 239.261719 687.625 239.726562 C 686.386719 240.191406 685.125 240.59375 683.84375 240.933594 C 682.5625 241.269531 681.265625 241.539062 679.957031 241.742188 C 678.648438 241.945312 677.332031 242.082031 676.007812 242.148438 C 674.683594 242.21875 673.359375 242.21875 672.035156 242.148438 C 670.714844 242.082031 669.398438 241.945312 668.085938 241.742188 C 666.777344 241.539062 665.484375 241.269531 664.199219 240.929688 C 651.289062 237.871094 638.773438 229.222656 632.382812 218.84375 C 623.863281 205.007812 626.660156 188.109375 628.253906 177.996094 C 629.964844 167.675781 633.472656 158.007812 638.773438 148.992188 C 644.851562 148.707031 650.902344 149 656.925781 149.875 C 662.949219 150.746094 668.835938 152.183594 674.585938 154.179688 C 686.566406 158.4375 698.949219 162.695312 706.136719 173.472656 C 713.324219 184.25 714.789062 197.6875 711.996094 210.59375 Z M 673.386719 165.222656 C 665.871094 162.617188 658.148438 161.640625 650.222656 162.296875 C 649.496094 162.367188 648.816406 162.589844 648.1875 162.960938 C 647.558594 163.332031 647.039062 163.820312 646.628906 164.425781 C 642.878906 170.3125 640.4375 176.699219 639.304688 183.585938 C 638.375 189.4375 636.511719 200.347656 642.5 209.796875 C 643.691406 211.65625 645.050781 213.382812 646.574219 214.984375 C 648.101562 216.582031 649.761719 218.019531 651.566406 219.292969 C 653.367188 220.570312 655.277344 221.664062 657.289062 222.574219 C 659.304688 223.484375 661.386719 224.191406 663.535156 224.699219 C 665.859375 225.222656 668.210938 225.488281 670.589844 225.496094 C 673.125 225.503906 675.613281 225.167969 678.054688 224.492188 C 680.496094 223.8125 682.800781 222.820312 684.96875 221.503906 C 686.585938 220.476562 688.082031 219.296875 689.460938 217.964844 C 690.835938 216.636719 692.070312 215.183594 693.15625 213.605469 C 694.242188 212.027344 695.160156 210.359375 695.910156 208.597656 C 696.664062 206.835938 697.230469 205.019531 697.617188 203.144531 C 699.480469 194.496094 697.882812 184.914062 693.355469 178.261719 C 688.828125 171.609375 680.042969 167.617188 673.386719 165.222656 Z M 688.429688 201.148438 C 688.320312 201.769531 688.175781 202.382812 688 202.992188 C 687.824219 203.597656 687.617188 204.195312 687.378906 204.78125 C 687.144531 205.367188 686.875 205.9375 686.582031 206.496094 C 686.285156 207.054688 685.960938 207.597656 685.609375 208.121094 C 685.257812 208.648438 684.878906 209.152344 684.472656 209.636719 C 684.070312 210.125 683.640625 210.585938 683.1875 211.027344 C 682.734375 211.472656 682.261719 211.886719 681.765625 212.28125 C 681.273438 212.671875 680.757812 213.039062 680.222656 213.378906 C 679.691406 213.71875 679.140625 214.03125 678.578125 214.3125 C 678.011719 214.597656 677.433594 214.847656 676.839844 215.074219 C 676.25 215.296875 675.648438 215.488281 675.035156 215.648438 C 674.425781 215.8125 673.808594 215.941406 673.183594 216.039062 C 672.558594 216.136719 671.929688 216.199219 671.296875 216.234375 C 670.667969 216.265625 670.035156 216.265625 669.402344 216.234375 C 668.773438 216.199219 668.144531 216.136719 667.519531 216.039062 C 666.894531 215.941406 666.277344 215.8125 665.664062 215.652344 C 664.117188 215.269531 662.617188 214.75 661.167969 214.09375 C 659.714844 213.433594 658.335938 212.652344 657.027344 211.742188 C 655.71875 210.832031 654.503906 209.8125 653.382812 208.679688 C 652.261719 207.546875 651.253906 206.324219 650.355469 205.007812 C 646.363281 198.355469 647.691406 190.105469 648.492188 185.179688 C 649.289062 180.332031 650.886719 175.765625 653.285156 171.476562 C 659.113281 171.304688 664.796875 172.148438 670.324219 174.003906 C 676.183594 176.132812 682.171875 178.261719 685.636719 183.320312 C 689.097656 188.375 689.761719 195.027344 688.429688 201.148438 Z M 688.429688 201.148438 " fill-opacity="1" fill-rule="nonzero"/></g></svg>